%TF.GenerationSoftware,rivgen,1.0*%
%TF.FileFunction,Copper,L1,Top*%
%FSLAX46Y46*%
%MOMM*%
%LPD*%
G01*
%ADD10C,0.300*%
%ADD11C,0.500*%
%ADD12C,0.400*%
%ADD13C,0.800*%
%ADD14R,1.700X1.700*%
%ADD15C,1.700*%
%ADD16R,1.450X1.150*%
%ADD17R,1.150X1.450*%
%ADD18R,0.900X1.000*%
%ADD19R,1.950X0.600*%
%ADD20R,1.100X0.600*%
%ADD21R,0.600X1.100*%
%ADD22R,5.800X2.200*%
%ADD23R,2.800X1.150*%
%ADD24R,1.800X1.150*%
%ADD25R,1.600X1.600*%
%ADD26C,1.600*%
%ADD27R,1.150X1.800*%
%ADD28R,1.500X2.000*%
%ADD29R,3.600X2.200*%
D10*
X69025000Y-28095000D02*
X66990000Y-28095000D01*
X69025000Y-29365000D02*
X66990000Y-29365000D01*
X69025000Y-30635000D02*
X66990000Y-30635000D01*
X69025000Y-31905000D02*
X66990000Y-31905000D01*
X73975000Y-28095000D02*
X75880000Y-28095000D01*
X73975000Y-29365000D02*
X75880000Y-29365000D01*
X73975000Y-30635000D02*
X75880000Y-30635000D01*
X73975000Y-31905000D02*
X75880000Y-31905000D01*
X84300000Y-28450000D02*
X86040000Y-28450000D01*
X84300000Y-27500000D02*
X86040000Y-27500000D01*
X84300000Y-26550000D02*
X86040000Y-26550000D01*
X81700000Y-26550000D02*
X80325000Y-26550000D01*
X81700000Y-27500000D02*
X80325000Y-27500000D01*
X81525000Y-38095000D02*
X79690000Y-38095000D01*
X81525000Y-39365000D02*
X79690000Y-39365000D01*
X81525000Y-40635000D02*
X79690000Y-40635000D01*
X81525000Y-41905000D02*
X79690000Y-41905000D01*
X86475000Y-38095000D02*
X88580000Y-38095000D01*
X86475000Y-39365000D02*
X88580000Y-39365000D01*
X86475000Y-40635000D02*
X88580000Y-40635000D01*
X86475000Y-41905000D02*
X88580000Y-41905000D01*
X74050000Y-52300000D02*
X74050000Y-53655000D01*
X75000000Y-52300000D02*
X75000000Y-53655000D01*
X75950000Y-52300000D02*
X75950000Y-53655000D01*
X75000000Y-49700000D02*
X75000000Y-47940000D01*
X33550000Y-45800000D02*
X33550000Y-47305000D01*
X34500000Y-45800000D02*
X34500000Y-47305000D01*
X35450000Y-45800000D02*
X35450000Y-47305000D01*
X35450000Y-43200000D02*
X37780000Y-43200000D01*
X34500000Y-43200000D02*
X34500000Y-41590000D01*
X33550000Y-43200000D02*
X33550000Y-41590000D01*
X44525000Y-59365000D02*
X42225000Y-59365000D01*
X44525000Y-60635000D02*
X42225000Y-60635000D01*
X44525000Y-61905000D02*
X42225000Y-61905000D01*
X49475000Y-59365000D02*
X51750000Y-59365000D01*
X49475000Y-60635000D02*
X51750000Y-60635000D01*
X66050000Y-62300000D02*
X63815000Y-62300000D01*
X67000000Y-62300000D02*
X67000000Y-63815000D01*
X67950000Y-62300000D02*
X67950000Y-63815000D01*
X67000000Y-59700000D02*
X67000000Y-58100000D01*
X88000000Y-53800000D02*
X88000000Y-55560000D01*
X88950000Y-53800000D02*
X88950000Y-55560000D01*
X88950000Y-51200000D02*
X88950000Y-49845000D01*
X88000000Y-51200000D02*
X88000000Y-49845000D01*
D11*
X30000000Y-32550000D02*
X28874000Y-31900000D01*
X37000000Y-32550000D02*
X35874000Y-31900000D01*
X42950000Y-31650000D02*
X44076000Y-32300000D01*
X56500000Y-32550000D02*
X55374000Y-31900000D01*
X64000000Y-32550000D02*
X62874000Y-31900000D01*
X45450000Y-21500000D02*
X46750000Y-21500000D01*
X69025000Y-30635000D02*
X70625000Y-30635000D01*
X73975000Y-31905000D02*
X75101000Y-32555000D01*
X72450000Y-24000000D02*
X73576000Y-24650000D01*
X66500000Y-35550000D02*
X67150000Y-34424000D01*
X84300000Y-28450000D02*
X85426000Y-29100000D01*
X81700000Y-26550000D02*
X80574000Y-25900000D01*
X83950000Y-22000000D02*
X85076000Y-22650000D01*
X81525000Y-38095000D02*
X80399000Y-37445000D01*
X78000000Y-43050000D02*
X76400000Y-43050000D01*
X89950000Y-35000000D02*
X91076000Y-35650000D01*
X78500000Y-39050000D02*
X77200000Y-39050000D01*
X92500000Y-46950000D02*
X93626000Y-47600000D01*
X56950000Y-46000000D02*
X58076000Y-46650000D01*
X75000000Y-52300000D02*
X75000000Y-53600000D01*
X80600000Y-46850000D02*
X81250000Y-45724000D01*
X34500000Y-45800000D02*
X34500000Y-47100000D01*
X24000000Y-40050000D02*
X22874000Y-39400000D01*
X40000000Y-43037500D02*
X41126000Y-42388000D01*
X44000000Y-43037500D02*
X43350000Y-41912000D01*
X24950000Y-58000000D02*
X26076000Y-58650000D01*
X24950000Y-61000000D02*
X26076000Y-61650000D01*
X24950000Y-64000000D02*
X26076000Y-64650000D01*
X44525000Y-61905000D02*
X45651000Y-62555000D01*
X41000000Y-55550000D02*
X39874000Y-54900000D01*
X41500000Y-63550000D02*
X40374000Y-62900000D01*
X45450000Y-68000000D02*
X46576000Y-68650000D01*
X46950000Y-71500000D02*
X48076000Y-72150000D01*
X67000000Y-62300000D02*
X67000000Y-63600000D01*
X62450000Y-57500000D02*
X63576000Y-58150000D01*
X35962500Y-37000000D02*
X35962000Y-38300000D01*
X93250000Y-60800000D02*
X94376000Y-61450000D01*
X86000000Y-68650000D02*
X86000000Y-70650000D01*
X86000000Y-62350000D02*
X85350000Y-61224000D01*
X80950000Y-61500000D02*
X82076000Y-62150000D01*
X88950000Y-53800000D02*
X90076000Y-54450000D01*
X88950000Y-48500000D02*
X89600000Y-47374000D01*
D10*
X82230000Y-39050000D02*
X83500000Y-39050000D01*
X83500000Y-39050000D02*
X83500000Y-37145000D01*
X83500000Y-37145000D02*
X82865000Y-36510000D01*
X82865000Y-36510000D02*
X82230000Y-35875000D01*
X82230000Y-35875000D02*
X81595000Y-35240000D01*
X81595000Y-35240000D02*
X80960000Y-34605000D01*
X80960000Y-34605000D02*
X80325000Y-33970000D01*
X80325000Y-33970000D02*
X79690000Y-33335000D01*
X79690000Y-33335000D02*
X79055000Y-32700000D01*
X79055000Y-32700000D02*
X78420000Y-32065000D01*
X78420000Y-32065000D02*
X77785000Y-31430000D01*
X77785000Y-31430000D02*
X77150000Y-30795000D01*
X77150000Y-30795000D02*
X77150000Y-30160000D01*
X77150000Y-30160000D02*
X76515000Y-29525000D01*
X76515000Y-29525000D02*
X75880000Y-29525000D01*
X75880000Y-29525000D02*
X75880000Y-29515000D01*
D11*
X33550000Y-45800000D02*
X33335000Y-45400000D01*
X33335000Y-45400000D02*
X29950000Y-45400000D01*
D12*
X40955000Y-45400000D02*
X41590000Y-45400000D01*
X41590000Y-45400000D02*
X42225000Y-44765000D01*
X42225000Y-44765000D02*
X42225000Y-40955000D01*
X42225000Y-40955000D02*
X36510000Y-40955000D01*
X36510000Y-40955000D02*
X35875000Y-41590000D01*
X35875000Y-41590000D02*
X35240000Y-41590000D01*
X35240000Y-41590000D02*
X34605000Y-42225000D01*
X44000000Y-45962500D02*
X43495000Y-45400000D01*
X43495000Y-45400000D02*
X42225000Y-45400000D01*
X42225000Y-45400000D02*
X42049000Y-45224000D01*
X33050000Y-51000000D02*
X33335000Y-50480000D01*
X33335000Y-50480000D02*
X33335000Y-49210000D01*
X33335000Y-49210000D02*
X33970000Y-49210000D01*
X33970000Y-49210000D02*
X34605000Y-48575000D01*
X34605000Y-48575000D02*
X36510000Y-48575000D01*
X36510000Y-48575000D02*
X36510000Y-47940000D01*
X36510000Y-47940000D02*
X37145000Y-47305000D01*
X37145000Y-47305000D02*
X37780000Y-46670000D01*
X37780000Y-46670000D02*
X38415000Y-46035000D01*
X38415000Y-46035000D02*
X38550000Y-46035000D01*
X33050000Y-54000000D02*
X33335000Y-53655000D01*
X33335000Y-53655000D02*
X33335000Y-51750000D01*
X48575000Y-59370000D02*
X47305000Y-59370000D01*
X47305000Y-59370000D02*
X47305000Y-57465000D01*
X47305000Y-57465000D02*
X46670000Y-56830000D01*
X46670000Y-56830000D02*
X44765000Y-56830000D01*
X44765000Y-56830000D02*
X44765000Y-56195000D01*
X44765000Y-56195000D02*
X37145000Y-48575000D01*
X37145000Y-48575000D02*
X36710000Y-48575000D01*
D10*
X34950000Y-51000000D02*
X35240000Y-50480000D01*
X35240000Y-50480000D02*
X35240000Y-49845000D01*
X35875000Y-47305000D02*
X35600000Y-47305000D01*
X34950000Y-54000000D02*
X34605000Y-53655000D01*
X34605000Y-53655000D02*
X34605000Y-51750000D01*
X23050000Y-58000000D02*
X23175000Y-57465000D01*
X23175000Y-57465000D02*
X23175000Y-56195000D01*
X23175000Y-56195000D02*
X28890000Y-56195000D01*
X28890000Y-56195000D02*
X29525000Y-55560000D01*
X29525000Y-55560000D02*
X34605000Y-55560000D01*
X34605000Y-55560000D02*
X34605000Y-54775000D01*
X23050000Y-61000000D02*
X23175000Y-60640000D01*
X23175000Y-60640000D02*
X23175000Y-58735000D01*
X23050000Y-64000000D02*
X22540000Y-63815000D01*
X22540000Y-63815000D02*
X22540000Y-61775000D01*
D12*
X47950000Y-55000000D02*
X47940000Y-55560000D01*
X47940000Y-55560000D02*
X48575000Y-56195000D01*
X48575000Y-56195000D02*
X49210000Y-56830000D01*
X49210000Y-56830000D02*
X51115000Y-56830000D01*
X51115000Y-56830000D02*
X51750000Y-57465000D01*
X51750000Y-57465000D02*
X52385000Y-58100000D01*
X52385000Y-58100000D02*
X53020000Y-58735000D01*
X53020000Y-58735000D02*
X53020000Y-60005000D01*
X53020000Y-60005000D02*
X52385000Y-60640000D01*
X52385000Y-60640000D02*
X51750000Y-60640000D01*
X27050000Y-37000000D02*
X27620000Y-37145000D01*
X27620000Y-37145000D02*
X27620000Y-38415000D01*
X27620000Y-38415000D02*
X30795000Y-38415000D01*
X30795000Y-38415000D02*
X31430000Y-39050000D01*
X31430000Y-39050000D02*
X32065000Y-39685000D01*
X32065000Y-39685000D02*
X42860000Y-39685000D01*
X42860000Y-39685000D02*
X43495000Y-40320000D01*
X43495000Y-40320000D02*
X44130000Y-40320000D01*
X44130000Y-40320000D02*
X44765000Y-40955000D01*
X44765000Y-40955000D02*
X45400000Y-41590000D01*
X45400000Y-41590000D02*
X46035000Y-41590000D01*
X46035000Y-41590000D02*
X46035000Y-51750000D01*
X46035000Y-51750000D02*
X46670000Y-52385000D01*
X46670000Y-52385000D02*
X47305000Y-53020000D01*
X47305000Y-53020000D02*
X47305000Y-54290000D01*
X47305000Y-54290000D02*
X47325000Y-54290000D01*
X28950000Y-37000000D02*
X29525000Y-36510000D01*
X29525000Y-36510000D02*
X30795000Y-36510000D01*
X30795000Y-36510000D02*
X31430000Y-35875000D01*
X31430000Y-35875000D02*
X31430000Y-30795000D01*
X31430000Y-30795000D02*
X24900000Y-30795000D01*
X33037500Y-37000000D02*
X32700000Y-36510000D01*
X32700000Y-36510000D02*
X31430000Y-36510000D01*
X31430000Y-36510000D02*
X31254000Y-36334000D01*
D10*
X41000000Y-57450000D02*
X41590000Y-57465000D01*
X41590000Y-57465000D02*
X42860000Y-58735000D01*
X42860000Y-58735000D02*
X42860000Y-59370000D01*
X46050000Y-55000000D02*
X46035000Y-55560000D01*
X30000000Y-34450000D02*
X29525000Y-33970000D01*
X29525000Y-33970000D02*
X28255000Y-33970000D01*
X28255000Y-33970000D02*
X27620000Y-33335000D01*
X27620000Y-33335000D02*
X22540000Y-33335000D01*
X22540000Y-33335000D02*
X22540000Y-30160000D01*
X22540000Y-30160000D02*
X23175000Y-30160000D01*
X23175000Y-30160000D02*
X23175000Y-29900000D01*
X32550000Y-29000000D02*
X32065000Y-29525000D01*
X32065000Y-29525000D02*
X25715000Y-29525000D01*
X25715000Y-29525000D02*
X25080000Y-30160000D01*
X25080000Y-30160000D02*
X24900000Y-29900000D01*
X37000000Y-34450000D02*
X36510000Y-33970000D01*
X36510000Y-33970000D02*
X35240000Y-33970000D01*
X35240000Y-33970000D02*
X35240000Y-33335000D01*
X35240000Y-33335000D02*
X34605000Y-32700000D01*
X34605000Y-32700000D02*
X34605000Y-29775000D01*
X41050000Y-31650000D02*
X40955000Y-32065000D01*
X40955000Y-32065000D02*
X40320000Y-32065000D01*
X40320000Y-32065000D02*
X39685000Y-32700000D01*
X39685000Y-32700000D02*
X39050000Y-33335000D01*
X39050000Y-33335000D02*
X38415000Y-33970000D01*
X38415000Y-33970000D02*
X37775000Y-33970000D01*
X41050000Y-24500000D02*
X40955000Y-25080000D01*
X40955000Y-25080000D02*
X40955000Y-28255000D01*
X40955000Y-28255000D02*
X40320000Y-28890000D01*
X40320000Y-28890000D02*
X40320000Y-30795000D01*
X40320000Y-30795000D02*
X40550000Y-31100000D01*
X42950000Y-24500000D02*
X42860000Y-25080000D01*
X42860000Y-25080000D02*
X42860000Y-28255000D01*
X42860000Y-28255000D02*
X42225000Y-28890000D01*
X47305000Y-25715000D02*
X43495000Y-25715000D01*
X43495000Y-25715000D02*
X43495000Y-25275000D01*
X53450000Y-28850000D02*
X53020000Y-28890000D01*
X53020000Y-28890000D02*
X53020000Y-27620000D01*
X53020000Y-27620000D02*
X49210000Y-27620000D01*
X49210000Y-27620000D02*
X48575000Y-26985000D01*
X48575000Y-26985000D02*
X47940000Y-26350000D01*
X47940000Y-26350000D02*
X47940000Y-26075000D01*
X52500000Y-25450000D02*
X53020000Y-25715000D01*
X53020000Y-25715000D02*
X53655000Y-26350000D01*
X53655000Y-26350000D02*
X54290000Y-26985000D01*
X54290000Y-26985000D02*
X54925000Y-27620000D01*
X54925000Y-27620000D02*
X54925000Y-30160000D01*
X54925000Y-30160000D02*
X54290000Y-30795000D01*
X54290000Y-30795000D02*
X54290000Y-32065000D01*
X54290000Y-32065000D02*
X53655000Y-32700000D01*
X53655000Y-32700000D02*
X51115000Y-32700000D01*
X51115000Y-32700000D02*
X51115000Y-29400000D01*
X56500000Y-34450000D02*
X56195000Y-33970000D01*
X56195000Y-33970000D02*
X54925000Y-33970000D01*
X54925000Y-33970000D02*
X54290000Y-33335000D01*
X53020000Y-31430000D02*
X53000000Y-31430000D01*
X59550000Y-29000000D02*
X59370000Y-29525000D01*
X59370000Y-29525000D02*
X58100000Y-30795000D01*
X58100000Y-30795000D02*
X58100000Y-33970000D01*
X58100000Y-33970000D02*
X57275000Y-33970000D01*
X64000000Y-34450000D02*
X63815000Y-33970000D01*
X63815000Y-33970000D02*
X62545000Y-33970000D01*
X62545000Y-33970000D02*
X61910000Y-33335000D01*
X61910000Y-33335000D02*
X61275000Y-32700000D01*
X61275000Y-32700000D02*
X61275000Y-29775000D01*
X66990000Y-28095000D02*
X66990000Y-28255000D01*
X66990000Y-28255000D02*
X66355000Y-28255000D01*
X66355000Y-28255000D02*
X65720000Y-28890000D01*
X65720000Y-28890000D02*
X65085000Y-29525000D01*
X65085000Y-29525000D02*
X64450000Y-30160000D01*
X64450000Y-30160000D02*
X61910000Y-30160000D01*
X61910000Y-30160000D02*
X61910000Y-29775000D01*
D11*
X82050000Y-22000000D02*
X82230000Y-22540000D01*
X82230000Y-22540000D02*
X82230000Y-23810000D01*
X82230000Y-23810000D02*
X82865000Y-24445000D01*
X82865000Y-24445000D02*
X83500000Y-25080000D01*
X83500000Y-25080000D02*
X86675000Y-25080000D01*
X86675000Y-25080000D02*
X87310000Y-25715000D01*
X87310000Y-25715000D02*
X87310000Y-27620000D01*
X87310000Y-27620000D02*
X86040000Y-27620000D01*
X75950000Y-52300000D02*
X75880000Y-51750000D01*
X75880000Y-51750000D02*
X76515000Y-51750000D01*
X76515000Y-51750000D02*
X77150000Y-51115000D01*
X77150000Y-51115000D02*
X77785000Y-50480000D01*
X77785000Y-50480000D02*
X82230000Y-50480000D01*
X82230000Y-50480000D02*
X82230000Y-47305000D01*
X82230000Y-47305000D02*
X82865000Y-46670000D01*
X82865000Y-46670000D02*
X82865000Y-44130000D01*
X82865000Y-44130000D02*
X83500000Y-43495000D01*
X83500000Y-43495000D02*
X83500000Y-40955000D01*
X83500000Y-40955000D02*
X84135000Y-40320000D01*
X84135000Y-40320000D02*
X84770000Y-39685000D01*
X84770000Y-39685000D02*
X84770000Y-32065000D01*
X84770000Y-32065000D02*
X86040000Y-30795000D01*
X86040000Y-30795000D02*
X86675000Y-30160000D01*
X86675000Y-30160000D02*
X87310000Y-29525000D01*
X87310000Y-29525000D02*
X87310000Y-27870000D01*
X74050000Y-53655000D02*
X73975000Y-53655000D01*
X73975000Y-53655000D02*
X73975000Y-54925000D01*
X73975000Y-54925000D02*
X75880000Y-54925000D01*
X75880000Y-54925000D02*
X75880000Y-53655000D01*
X67950000Y-62300000D02*
X68260000Y-61910000D01*
X68260000Y-61910000D02*
X68895000Y-61275000D01*
X68895000Y-61275000D02*
X69530000Y-61275000D01*
X69530000Y-61275000D02*
X69530000Y-58735000D01*
X69530000Y-58735000D02*
X70165000Y-58100000D01*
X70165000Y-58100000D02*
X70800000Y-57465000D01*
X70800000Y-57465000D02*
X71435000Y-56830000D01*
X71435000Y-56830000D02*
X72070000Y-56195000D01*
X72070000Y-56195000D02*
X72705000Y-55560000D01*
X72705000Y-55560000D02*
X73340000Y-54925000D01*
X73340000Y-54925000D02*
X73725000Y-54925000D01*
X63815000Y-62300000D02*
X63815000Y-60640000D01*
X63815000Y-60640000D02*
X64450000Y-60005000D01*
X64450000Y-60005000D02*
X65085000Y-59370000D01*
X65085000Y-59370000D02*
X65085000Y-56830000D01*
X65085000Y-56830000D02*
X66355000Y-55560000D01*
X66355000Y-55560000D02*
X66990000Y-54925000D01*
X66990000Y-54925000D02*
X68260000Y-53655000D01*
X68260000Y-53655000D02*
X68895000Y-53020000D01*
X68895000Y-53020000D02*
X69530000Y-52385000D01*
X69530000Y-52385000D02*
X70165000Y-51750000D01*
X70165000Y-51750000D02*
X70800000Y-51115000D01*
X70800000Y-51115000D02*
X72705000Y-51115000D01*
X72705000Y-51115000D02*
X73340000Y-51750000D01*
X73340000Y-51750000D02*
X73700000Y-51750000D01*
X91350000Y-60800000D02*
X91120000Y-60640000D01*
X91120000Y-60640000D02*
X90485000Y-60005000D01*
X90485000Y-60005000D02*
X89850000Y-59370000D01*
X89850000Y-59370000D02*
X89215000Y-58735000D01*
X89215000Y-58735000D02*
X87945000Y-57465000D01*
X87945000Y-57465000D02*
X87310000Y-56830000D01*
X87310000Y-56830000D02*
X86675000Y-56195000D01*
X86675000Y-56195000D02*
X86040000Y-55560000D01*
X86040000Y-55560000D02*
X86040000Y-53655000D01*
X86040000Y-53655000D02*
X85405000Y-53020000D01*
X85405000Y-53020000D02*
X84770000Y-52385000D01*
X84770000Y-52385000D02*
X84135000Y-51750000D01*
X84135000Y-51750000D02*
X83500000Y-51115000D01*
X83500000Y-51115000D02*
X82865000Y-50480000D01*
X82865000Y-50480000D02*
X82480000Y-50480000D01*
X83700000Y-68650000D02*
X83500000Y-68260000D01*
X83500000Y-68260000D02*
X83500000Y-51750000D01*
X83500000Y-51750000D02*
X83641000Y-51609000D01*
X37780000Y-43200000D02*
X37780000Y-43495000D01*
X65085000Y-56195000D02*
X65226000Y-56336000D01*
X33550000Y-43200000D02*
X33335000Y-42860000D01*
X35875000Y-42860000D02*
X35800000Y-42860000D01*
X24445000Y-48575000D02*
X23810000Y-47940000D01*
X23810000Y-47940000D02*
X23175000Y-47305000D01*
X23175000Y-47305000D02*
X23175000Y-43495000D01*
X23175000Y-43495000D02*
X33335000Y-43495000D01*
X24000000Y-41950000D02*
X24445000Y-41590000D01*
X24445000Y-41590000D02*
X33400000Y-41590000D01*
X52500000Y-23550000D02*
X52385000Y-23175000D01*
X52385000Y-23175000D02*
X48775000Y-23175000D01*
X43550000Y-21500000D02*
X44130000Y-21905000D01*
X70550000Y-24000000D02*
X70165000Y-23810000D01*
X70165000Y-23810000D02*
X53275000Y-23810000D01*
X73975000Y-28095000D02*
X73340000Y-28255000D01*
X73340000Y-28255000D02*
X72705000Y-27620000D01*
X72705000Y-27620000D02*
X72070000Y-26985000D01*
X72070000Y-26985000D02*
X71435000Y-26350000D01*
X71435000Y-26350000D02*
X70800000Y-25715000D01*
X70800000Y-25715000D02*
X70165000Y-25080000D01*
X70165000Y-25080000D02*
X70165000Y-24775000D01*
X78950000Y-35500000D02*
X78420000Y-35240000D01*
X78420000Y-35240000D02*
X78420000Y-33970000D01*
X78420000Y-33970000D02*
X72705000Y-33970000D01*
X72705000Y-33970000D02*
X72070000Y-33335000D01*
X72070000Y-33335000D02*
X72070000Y-27620000D01*
X72070000Y-27620000D02*
X72211000Y-27479000D01*
X79690000Y-41905000D02*
X79690000Y-42225000D01*
X86475000Y-38095000D02*
X86040000Y-37780000D01*
X88050000Y-35000000D02*
X87945000Y-35240000D01*
X87945000Y-35240000D02*
X87310000Y-35875000D01*
X87310000Y-35875000D02*
X86675000Y-36510000D01*
X86675000Y-36510000D02*
X86040000Y-37145000D01*
X86040000Y-37145000D02*
X86040000Y-37380000D01*
X87050000Y-48500000D02*
X87310000Y-47940000D01*
X87310000Y-47940000D02*
X87310000Y-45400000D01*
X87310000Y-45400000D02*
X87945000Y-44765000D01*
X87945000Y-44765000D02*
X88580000Y-44130000D01*
X88580000Y-44130000D02*
X89215000Y-43495000D01*
X89215000Y-43495000D02*
X89850000Y-42860000D01*
X89850000Y-42860000D02*
X89850000Y-38415000D01*
X89850000Y-38415000D02*
X88580000Y-38415000D01*
X88580000Y-38415000D02*
X88580000Y-38245000D01*
X88000000Y-49845000D02*
X87310000Y-49845000D01*
X87310000Y-49845000D02*
X86675000Y-49210000D01*
X79050000Y-61500000D02*
X79055000Y-61275000D01*
X79055000Y-61275000D02*
X79055000Y-52385000D01*
X87945000Y-69530000D02*
X87945000Y-71435000D01*
X87945000Y-71435000D02*
X87310000Y-72070000D01*
X87310000Y-72070000D02*
X84770000Y-72070000D01*
X84770000Y-72070000D02*
X83500000Y-70800000D01*
X83500000Y-70800000D02*
X82230000Y-70800000D01*
X82230000Y-70800000D02*
X82230000Y-65085000D01*
X82230000Y-65085000D02*
X81595000Y-64450000D01*
X81595000Y-64450000D02*
X80960000Y-63815000D01*
X80960000Y-63815000D02*
X80325000Y-63180000D01*
X80325000Y-63180000D02*
X79690000Y-62545000D01*
X79690000Y-62545000D02*
X79675000Y-62275000D01*
D10*
X75000000Y-47940000D02*
X71435000Y-47940000D01*
X71435000Y-47940000D02*
X70800000Y-47305000D01*
X70800000Y-47305000D02*
X70575000Y-47275000D01*
X80600000Y-48750000D02*
X80325000Y-48575000D01*
X80325000Y-48575000D02*
X77785000Y-48575000D01*
X77785000Y-48575000D02*
X77150000Y-47940000D01*
X77150000Y-47940000D02*
X75150000Y-47940000D01*
X77785000Y-40955000D02*
X76515000Y-40955000D01*
X76515000Y-40955000D02*
X75880000Y-40320000D01*
X75880000Y-40320000D02*
X75880000Y-37780000D01*
X75880000Y-37780000D02*
X76515000Y-37145000D01*
X92500000Y-40950000D02*
X92390000Y-40955000D01*
X92390000Y-40955000D02*
X91755000Y-41590000D01*
X91755000Y-41590000D02*
X91120000Y-42225000D01*
X82865000Y-40320000D02*
X82550000Y-40320000D01*
X65085000Y-40320000D02*
X65085000Y-39685000D01*
X65085000Y-39685000D02*
X65720000Y-39050000D01*
X65720000Y-39050000D02*
X68260000Y-39050000D01*
X68260000Y-39050000D02*
X68260000Y-33335000D01*
X68260000Y-33335000D02*
X66990000Y-33335000D01*
X66990000Y-33335000D02*
X66355000Y-32700000D01*
X66355000Y-32700000D02*
X65720000Y-32700000D01*
X65720000Y-32700000D02*
X65720000Y-30160000D01*
X65720000Y-30160000D02*
X66355000Y-30160000D01*
X66355000Y-30160000D02*
X66355000Y-29525000D01*
X66355000Y-29525000D02*
X66990000Y-29525000D01*
X66990000Y-29525000D02*
X66990000Y-29515000D01*
X63815000Y-50480000D02*
X63815000Y-45400000D01*
X63815000Y-45400000D02*
X64450000Y-44765000D01*
X64450000Y-44765000D02*
X65085000Y-44130000D01*
X65085000Y-44130000D02*
X65720000Y-43495000D01*
X65720000Y-43495000D02*
X66355000Y-42860000D01*
X66355000Y-42860000D02*
X66355000Y-41775000D01*
X68050000Y-46500000D02*
X67625000Y-46670000D01*
X67625000Y-46670000D02*
X66990000Y-47305000D01*
X66990000Y-47305000D02*
X66990000Y-53020000D01*
X66990000Y-53020000D02*
X61275000Y-53020000D01*
X61275000Y-53020000D02*
X61275000Y-51750000D01*
X55560000Y-46670000D02*
X55560000Y-47940000D01*
X55560000Y-47940000D02*
X62545000Y-47940000D01*
X70550000Y-36500000D02*
X70165000Y-35875000D01*
X70165000Y-35875000D02*
X70165000Y-33970000D01*
X70165000Y-33970000D02*
X69530000Y-33335000D01*
X69530000Y-33335000D02*
X69530000Y-32255000D01*
X66500000Y-37450000D02*
X66990000Y-37145000D01*
X69530000Y-37145000D02*
X69925000Y-37145000D01*
X72450000Y-36500000D02*
X72705000Y-35875000D01*
X72705000Y-35875000D02*
X72705000Y-35240000D01*
X84300000Y-26550000D02*
X84135000Y-26350000D01*
X84135000Y-26350000D02*
X82865000Y-26350000D01*
X82865000Y-26350000D02*
X82865000Y-28890000D01*
X82865000Y-28890000D02*
X80325000Y-28890000D01*
X80325000Y-28890000D02*
X79690000Y-29525000D01*
X79690000Y-29525000D02*
X79055000Y-30160000D01*
X79055000Y-30160000D02*
X78420000Y-30795000D01*
X88000000Y-55560000D02*
X87945000Y-55560000D01*
X96500000Y-26000000D02*
X96200000Y-25715000D01*
X96200000Y-25715000D02*
X91120000Y-25715000D01*
X91120000Y-25715000D02*
X90485000Y-25080000D01*
X90485000Y-25080000D02*
X89850000Y-24445000D01*
X89850000Y-24445000D02*
X89215000Y-23810000D01*
X89215000Y-23810000D02*
X88580000Y-23175000D01*
X88580000Y-23175000D02*
X87945000Y-22540000D01*
X87945000Y-22540000D02*
X87310000Y-21905000D01*
X87310000Y-21905000D02*
X86675000Y-21905000D01*
X86675000Y-21905000D02*
X86040000Y-21270000D01*
X86040000Y-21270000D02*
X85405000Y-20635000D01*
X85405000Y-20635000D02*
X80325000Y-20635000D01*
X80325000Y-20635000D02*
X80325000Y-23810000D01*
X80325000Y-23810000D02*
X79690000Y-24445000D01*
X79690000Y-24445000D02*
X79055000Y-25080000D01*
X79055000Y-25080000D02*
X79055000Y-26985000D01*
X79055000Y-26985000D02*
X79690000Y-27620000D01*
X79690000Y-27620000D02*
X80325000Y-27620000D01*
X41500000Y-65450000D02*
X40955000Y-65085000D01*
X40955000Y-65085000D02*
X39685000Y-65085000D01*
X39685000Y-65085000D02*
X39685000Y-64450000D01*
X39685000Y-64450000D02*
X39050000Y-63815000D01*
X39050000Y-63815000D02*
X39050000Y-61910000D01*
X39050000Y-61910000D02*
X40320000Y-61910000D01*
X40320000Y-61910000D02*
X40955000Y-61275000D01*
X40955000Y-61275000D02*
X41590000Y-60640000D01*
X41590000Y-60640000D02*
X42225000Y-60640000D01*
X43550000Y-68000000D02*
X43495000Y-67625000D01*
X43495000Y-67625000D02*
X43495000Y-66990000D01*
X43495000Y-66990000D02*
X42860000Y-66355000D01*
X42860000Y-66355000D02*
X42225000Y-65720000D01*
X53000000Y-69500000D02*
X52385000Y-68895000D01*
X52385000Y-68895000D02*
X52385000Y-67625000D01*
X52385000Y-67625000D02*
X47940000Y-67625000D01*
X47940000Y-67625000D02*
X47305000Y-66990000D01*
X47305000Y-66990000D02*
X46670000Y-66355000D01*
X46670000Y-66355000D02*
X43495000Y-66355000D01*
X43495000Y-66355000D02*
X43284000Y-66566000D01*
X45400000Y-70800000D02*
X45400000Y-70165000D01*
X45400000Y-70165000D02*
X49560000Y-70165000D01*
X67000000Y-59700000D02*
X66990000Y-60005000D01*
X66990000Y-60005000D02*
X66990000Y-60640000D01*
X60550000Y-57500000D02*
X60640000Y-58100000D01*
X60640000Y-58100000D02*
X61275000Y-58735000D01*
X61275000Y-58735000D02*
X61275000Y-59370000D01*
X61275000Y-59370000D02*
X61910000Y-60005000D01*
X61910000Y-60005000D02*
X62545000Y-60640000D01*
X62545000Y-60640000D02*
X62545000Y-63180000D01*
X62545000Y-63180000D02*
X63460000Y-63180000D01*
X87310000Y-40320000D02*
X87310000Y-39685000D01*
X78000000Y-44950000D02*
X78420000Y-44765000D01*
X78420000Y-44765000D02*
X80325000Y-44765000D01*
X84770000Y-43495000D02*
X84770000Y-40955000D01*
X84770000Y-40955000D02*
X85450000Y-40955000D01*
X77050000Y-35500000D02*
X76515000Y-35875000D01*
X76515000Y-35875000D02*
X75245000Y-35875000D01*
X75245000Y-35875000D02*
X75245000Y-36510000D01*
X75245000Y-36510000D02*
X74610000Y-37145000D01*
X74610000Y-37145000D02*
X74610000Y-40955000D01*
X74610000Y-40955000D02*
X75245000Y-41590000D01*
X75245000Y-41590000D02*
X75245000Y-44130000D01*
X75245000Y-44130000D02*
X77150000Y-44130000D01*
X77150000Y-44130000D02*
X77225000Y-44325000D01*
X92500000Y-45050000D02*
X93025000Y-44765000D01*
X93025000Y-44765000D02*
X93025000Y-43495000D01*
X93025000Y-43495000D02*
X93660000Y-42860000D01*
X93660000Y-42860000D02*
X94295000Y-42225000D01*
X94295000Y-42225000D02*
X94295000Y-39685000D01*
X94295000Y-39685000D02*
X93660000Y-39685000D01*
X93660000Y-39685000D02*
X93275000Y-39675000D01*
X91550000Y-52500000D02*
X91120000Y-52385000D01*
X91120000Y-52385000D02*
X90485000Y-52385000D01*
X90485000Y-52385000D02*
X89850000Y-51750000D01*
X89850000Y-51750000D02*
X89215000Y-51115000D01*
X96200000Y-53655000D02*
X94930000Y-53655000D01*
X94930000Y-53655000D02*
X94295000Y-53020000D01*
X94295000Y-53020000D02*
X94075000Y-53020000D01*
D13*
X28874000Y-31900000D03*
X35874000Y-31900000D03*
X44076000Y-32300000D03*
X55374000Y-31900000D03*
X62874000Y-31900000D03*
X46750000Y-21500000D03*
X70625000Y-30635000D03*
X75101000Y-32555000D03*
X73576000Y-24650000D03*
X67150000Y-34424000D03*
X85426000Y-29100000D03*
X80574000Y-25900000D03*
X85076000Y-22650000D03*
X80399000Y-37445000D03*
X76400000Y-43050000D03*
X91076000Y-35650000D03*
X77200000Y-39050000D03*
X93626000Y-47600000D03*
X58076000Y-46650000D03*
X75000000Y-53600000D03*
X81250000Y-45724000D03*
X34500000Y-47100000D03*
X22874000Y-39400000D03*
X41126000Y-42388000D03*
X43350000Y-41912000D03*
X26076000Y-58650000D03*
X26076000Y-61650000D03*
X26076000Y-64650000D03*
X45651000Y-62555000D03*
X39874000Y-54900000D03*
X40374000Y-62900000D03*
X46576000Y-68650000D03*
X48076000Y-72150000D03*
X67000000Y-63600000D03*
X63576000Y-58150000D03*
X35962000Y-38300000D03*
X94376000Y-61450000D03*
X86000000Y-70650000D03*
X85350000Y-61224000D03*
X82076000Y-62150000D03*
X90076000Y-54450000D03*
X89600000Y-47374000D03*
X35240000Y-49845000D03*
X35875000Y-47305000D03*
X46035000Y-55560000D03*
X45400000Y-59370000D03*
X54290000Y-33335000D03*
X53020000Y-31430000D03*
X91755000Y-61275000D03*
X37780000Y-43495000D03*
X65085000Y-56195000D03*
X33335000Y-42860000D03*
X35875000Y-42860000D03*
X44130000Y-21905000D03*
X47305000Y-23175000D03*
X79690000Y-42225000D03*
X78420000Y-35875000D03*
X86040000Y-37780000D03*
X79055000Y-52385000D03*
X76515000Y-37145000D03*
X87310000Y-41590000D03*
X91120000Y-42225000D03*
X82865000Y-40320000D03*
X62545000Y-47940000D03*
X66990000Y-37145000D03*
X69530000Y-37145000D03*
X72705000Y-35240000D03*
X73340000Y-30795000D03*
X78420000Y-30795000D03*
X87945000Y-55560000D03*
X66990000Y-60640000D03*
X80325000Y-44765000D03*
X84770000Y-43495000D03*
D14*
X24000000Y-29000000D03*
D15*
X24000000Y-31540000D03*
D16*
X30000000Y-34450000D03*
X30000000Y-32550000D03*
D17*
X32550000Y-29000000D03*
X34450000Y-29000000D03*
D16*
X37000000Y-34450000D03*
X37000000Y-32550000D03*
D18*
X41050000Y-31650000D03*
X42950000Y-31650000D03*
X42000000Y-29350000D03*
D17*
X41050000Y-24500000D03*
X42950000Y-24500000D03*
D16*
X48000000Y-25450000D03*
X48000000Y-23550000D03*
D18*
X53450000Y-28850000D03*
X51550000Y-28850000D03*
X52500000Y-31150000D03*
D16*
X52500000Y-25450000D03*
X52500000Y-23550000D03*
X56500000Y-34450000D03*
X56500000Y-32550000D03*
D17*
X59550000Y-29000000D03*
X61450000Y-29000000D03*
D16*
X64000000Y-34450000D03*
X64000000Y-32550000D03*
D17*
X43550000Y-21500000D03*
X45450000Y-21500000D03*
D19*
X69025000Y-28095000D03*
X69025000Y-29365000D03*
X69025000Y-30635000D03*
X69025000Y-31905000D03*
X73975000Y-28095000D03*
X73975000Y-29365000D03*
X73975000Y-30635000D03*
X73975000Y-31905000D03*
D17*
X70550000Y-24000000D03*
X72450000Y-24000000D03*
D16*
X66500000Y-37450000D03*
X66500000Y-35550000D03*
D17*
X70550000Y-36500000D03*
X72450000Y-36500000D03*
X65050000Y-41000000D03*
X66950000Y-41000000D03*
D20*
X84300000Y-28450000D03*
X84300000Y-27500000D03*
X84300000Y-26550000D03*
X81700000Y-26550000D03*
X81700000Y-27500000D03*
D17*
X82050000Y-22000000D03*
X83950000Y-22000000D03*
D14*
X96500000Y-26000000D03*
D15*
X96500000Y-28540000D03*
D19*
X81525000Y-38095000D03*
X81525000Y-39365000D03*
X81525000Y-40635000D03*
X81525000Y-41905000D03*
X86475000Y-38095000D03*
X86475000Y-39365000D03*
X86475000Y-40635000D03*
X86475000Y-41905000D03*
D17*
X77050000Y-35500000D03*
X78950000Y-35500000D03*
D16*
X78000000Y-44950000D03*
X78000000Y-43050000D03*
D17*
X88050000Y-35000000D03*
X89950000Y-35000000D03*
D16*
X78500000Y-40950000D03*
X78500000Y-39050000D03*
X92500000Y-40950000D03*
X92500000Y-39050000D03*
X92500000Y-46950000D03*
X92500000Y-45050000D03*
D14*
X60460000Y-51000000D03*
D15*
X63000000Y-51000000D03*
X65540000Y-51000000D03*
D17*
X55050000Y-46000000D03*
X56950000Y-46000000D03*
X68050000Y-46500000D03*
X69950000Y-46500000D03*
D21*
X74050000Y-52300000D03*
X75000000Y-52300000D03*
X75950000Y-52300000D03*
X75950000Y-49700000D03*
X75000000Y-49700000D03*
D16*
X80600000Y-48750000D03*
X80600000Y-46850000D03*
D22*
X27000000Y-49600000D03*
X27000000Y-45400000D03*
D21*
X33550000Y-45800000D03*
X34500000Y-45800000D03*
X35450000Y-45800000D03*
X35450000Y-43200000D03*
X34500000Y-43200000D03*
X33550000Y-43200000D03*
D16*
X24000000Y-41950000D03*
X24000000Y-40050000D03*
D23*
X40000000Y-45962500D03*
X40000000Y-43037500D03*
D24*
X44000000Y-45962500D03*
X44000000Y-43037500D03*
D17*
X33050000Y-51000000D03*
X34950000Y-51000000D03*
X33050000Y-54000000D03*
X34950000Y-54000000D03*
X23050000Y-58000000D03*
X24950000Y-58000000D03*
X23050000Y-61000000D03*
X24950000Y-61000000D03*
X23050000Y-64000000D03*
X24950000Y-64000000D03*
D19*
X44525000Y-58095000D03*
X44525000Y-59365000D03*
X44525000Y-60635000D03*
X44525000Y-61905000D03*
X49475000Y-58095000D03*
X49475000Y-59365000D03*
X49475000Y-60635000D03*
X49475000Y-61905000D03*
D16*
X41000000Y-57450000D03*
X41000000Y-55550000D03*
D17*
X46050000Y-55000000D03*
X47950000Y-55000000D03*
D16*
X41500000Y-65450000D03*
X41500000Y-63550000D03*
D17*
X43550000Y-68000000D03*
X45450000Y-68000000D03*
D14*
X50460000Y-69500000D03*
D15*
X53000000Y-69500000D03*
X55540000Y-69500000D03*
D17*
X45050000Y-71500000D03*
X46950000Y-71500000D03*
D25*
X56690000Y-64000000D03*
D26*
X64310000Y-64000000D03*
D21*
X66050000Y-62300000D03*
X67000000Y-62300000D03*
X67950000Y-62300000D03*
X67950000Y-59700000D03*
X67000000Y-59700000D03*
D17*
X60550000Y-57500000D03*
X62450000Y-57500000D03*
X27050000Y-37000000D03*
X28950000Y-37000000D03*
D27*
X33037500Y-37000000D03*
X35962500Y-37000000D03*
D14*
X96500000Y-65000000D03*
D15*
X96500000Y-67540000D03*
D17*
X91350000Y-60800000D03*
X93250000Y-60800000D03*
D28*
X83700000Y-68650000D03*
X86000000Y-68650000D03*
X88300000Y-68650000D03*
D29*
X86000000Y-62350000D03*
D17*
X79050000Y-61500000D03*
X80950000Y-61500000D03*
D21*
X87050000Y-53800000D03*
X88000000Y-53800000D03*
X88950000Y-53800000D03*
X88950000Y-51200000D03*
X88000000Y-51200000D03*
D17*
X87050000Y-48500000D03*
X88950000Y-48500000D03*
X91550000Y-52500000D03*
X93450000Y-52500000D03*
D14*
X97000000Y-54000000D03*
D15*
X97000000Y-56540000D03*
M02*
