%TF.GenerationSoftware,rivgen,1.0*%
%TF.FileFunction,Legend,Top*%
%FSLAX46Y46*%
%MOMM*%
%LPD*%
G01*
%ADD10C,0.120*%
D10*
X25270000Y-27730000D02*
X25270000Y-32810000D01*
X22730000Y-27730000D02*
X22730000Y-32810000D01*
X25270000Y-27730000D02*
X22730000Y-27730000D01*
X25270000Y-32810000D02*
X22730000Y-32810000D01*
X29000000Y-35350000D02*
X29000000Y-31650000D01*
X31000000Y-35350000D02*
X31000000Y-31650000D01*
X31650000Y-28000000D02*
X35350000Y-28000000D01*
X31650000Y-30000000D02*
X35350000Y-30000000D01*
X36000000Y-35350000D02*
X36000000Y-31650000D01*
X38000000Y-35350000D02*
X38000000Y-31650000D01*
X40450000Y-30150000D02*
X40450000Y-30850000D01*
X43550000Y-30150000D02*
X43550000Y-30850000D01*
X40150000Y-23500000D02*
X43850000Y-23500000D01*
X40150000Y-25500000D02*
X43850000Y-25500000D01*
X47000000Y-26350000D02*
X47000000Y-22650000D01*
X49000000Y-26350000D02*
X49000000Y-22650000D01*
X54050000Y-30350000D02*
X54050000Y-29650000D01*
X50950000Y-30350000D02*
X50950000Y-29650000D01*
X51500000Y-26350000D02*
X51500000Y-22650000D01*
X53500000Y-26350000D02*
X53500000Y-22650000D01*
X55500000Y-35350000D02*
X55500000Y-31650000D01*
X57500000Y-35350000D02*
X57500000Y-31650000D01*
X58650000Y-28000000D02*
X62350000Y-28000000D01*
X58650000Y-30000000D02*
X62350000Y-30000000D01*
X63000000Y-35350000D02*
X63000000Y-31650000D01*
X65000000Y-35350000D02*
X65000000Y-31650000D01*
X42650000Y-20500000D02*
X46350000Y-20500000D01*
X42650000Y-22500000D02*
X46350000Y-22500000D01*
X69550000Y-27400000D02*
X73450000Y-27400000D01*
X69550000Y-32600000D02*
X73450000Y-32600000D01*
X69550000Y-27400000D02*
X69550000Y-27800000D01*
X69650000Y-23000000D02*
X73350000Y-23000000D01*
X69650000Y-25000000D02*
X73350000Y-25000000D01*
X65500000Y-38350000D02*
X65500000Y-34650000D01*
X67500000Y-38350000D02*
X67500000Y-34650000D01*
X69650000Y-35500000D02*
X73350000Y-35500000D01*
X69650000Y-37500000D02*
X73350000Y-37500000D01*
X64150000Y-40000000D02*
X67850000Y-40000000D01*
X64150000Y-42000000D02*
X67850000Y-42000000D01*
X82500000Y-29050000D02*
X83500000Y-29050000D01*
X82500000Y-25950000D02*
X83500000Y-25950000D01*
X81150000Y-21000000D02*
X84850000Y-21000000D01*
X81150000Y-23000000D02*
X84850000Y-23000000D01*
X97770000Y-24730000D02*
X97770000Y-29810000D01*
X95230000Y-24730000D02*
X95230000Y-29810000D01*
X97770000Y-24730000D02*
X95230000Y-24730000D01*
X97770000Y-29810000D02*
X95230000Y-29810000D01*
X82050000Y-37400000D02*
X85950000Y-37400000D01*
X82050000Y-42600000D02*
X85950000Y-42600000D01*
X82050000Y-37400000D02*
X82050000Y-37800000D01*
X76150000Y-34500000D02*
X79850000Y-34500000D01*
X76150000Y-36500000D02*
X79850000Y-36500000D01*
X77000000Y-45850000D02*
X77000000Y-42150000D01*
X79000000Y-45850000D02*
X79000000Y-42150000D01*
X87150000Y-34000000D02*
X90850000Y-34000000D01*
X87150000Y-36000000D02*
X90850000Y-36000000D01*
X77500000Y-41850000D02*
X77500000Y-38150000D01*
X79500000Y-41850000D02*
X79500000Y-38150000D01*
X91500000Y-41850000D02*
X91500000Y-38150000D01*
X93500000Y-41850000D02*
X93500000Y-38150000D01*
X91500000Y-47850000D02*
X91500000Y-44150000D01*
X93500000Y-47850000D02*
X93500000Y-44150000D01*
X91500000Y-47850000D02*
X93500000Y-47850000D01*
X58200000Y-48600000D02*
X67800000Y-48600000D01*
X58200000Y-53400000D02*
X67800000Y-53400000D01*
X58200000Y-48600000D02*
X58200000Y-53400000D01*
X67800000Y-48600000D02*
X67800000Y-53400000D01*
X54150000Y-45000000D02*
X57850000Y-45000000D01*
X54150000Y-47000000D02*
X57850000Y-47000000D01*
X67150000Y-45500000D02*
X70850000Y-45500000D01*
X67150000Y-47500000D02*
X70850000Y-47500000D01*
X73450000Y-50500000D02*
X73450000Y-51500000D01*
X76550000Y-50500000D02*
X76550000Y-51500000D01*
X79600000Y-49650000D02*
X79600000Y-45950000D01*
X81600000Y-49650000D02*
X81600000Y-45950000D01*
X23600000Y-51000000D02*
X23600000Y-44000000D01*
X30400000Y-51000000D02*
X30400000Y-44000000D01*
X32950000Y-44000000D02*
X32950000Y-45000000D01*
X36050000Y-44000000D02*
X36050000Y-45000000D01*
X23000000Y-42850000D02*
X23000000Y-39150000D01*
X25000000Y-42850000D02*
X25000000Y-39150000D01*
X38300000Y-46900000D02*
X38300000Y-42100000D01*
X41700000Y-46900000D02*
X41700000Y-42100000D01*
X42800000Y-46900000D02*
X42800000Y-42100000D01*
X45200000Y-46900000D02*
X45200000Y-42100000D01*
X32150000Y-50000000D02*
X35850000Y-50000000D01*
X32150000Y-52000000D02*
X35850000Y-52000000D01*
X32150000Y-53000000D02*
X35850000Y-53000000D01*
X32150000Y-55000000D02*
X35850000Y-55000000D01*
X22150000Y-57000000D02*
X25850000Y-57000000D01*
X22150000Y-59000000D02*
X25850000Y-59000000D01*
X22150000Y-60000000D02*
X25850000Y-60000000D01*
X22150000Y-62000000D02*
X25850000Y-62000000D01*
X22150000Y-63000000D02*
X25850000Y-63000000D01*
X22150000Y-65000000D02*
X25850000Y-65000000D01*
X45050000Y-57400000D02*
X48950000Y-57400000D01*
X45050000Y-62600000D02*
X48950000Y-62600000D01*
X45050000Y-57400000D02*
X45050000Y-57800000D01*
X40000000Y-58350000D02*
X40000000Y-54650000D01*
X42000000Y-58350000D02*
X42000000Y-54650000D01*
X45150000Y-54000000D02*
X48850000Y-54000000D01*
X45150000Y-56000000D02*
X48850000Y-56000000D01*
X40500000Y-66350000D02*
X40500000Y-62650000D01*
X42500000Y-66350000D02*
X42500000Y-62650000D01*
X42650000Y-67000000D02*
X46350000Y-67000000D01*
X42650000Y-69000000D02*
X46350000Y-69000000D01*
X48200000Y-67100000D02*
X57800000Y-67100000D01*
X48200000Y-71900000D02*
X57800000Y-71900000D01*
X48200000Y-67100000D02*
X48200000Y-71900000D01*
X57800000Y-67100000D02*
X57800000Y-71900000D01*
X44150000Y-70500000D02*
X47850000Y-70500000D01*
X44150000Y-72500000D02*
X47850000Y-72500000D01*
X58200000Y-63000000D02*
X62800000Y-63000000D01*
X58200000Y-65000000D02*
X62800000Y-65000000D01*
X58200000Y-63000000D02*
X58200000Y-65000000D01*
X58800000Y-63000000D02*
X58800000Y-65000000D01*
X65450000Y-60500000D02*
X65450000Y-61500000D01*
X68550000Y-60500000D02*
X68550000Y-61500000D01*
X59650000Y-56500000D02*
X63350000Y-56500000D01*
X59650000Y-58500000D02*
X63350000Y-58500000D01*
X26150000Y-36000000D02*
X29850000Y-36000000D01*
X26150000Y-38000000D02*
X29850000Y-38000000D01*
X32100000Y-35800000D02*
X36900000Y-35800000D01*
X32100000Y-38200000D02*
X36900000Y-38200000D01*
X97770000Y-63730000D02*
X97770000Y-68810000D01*
X95230000Y-63730000D02*
X95230000Y-68810000D01*
X97770000Y-63730000D02*
X95230000Y-63730000D01*
X97770000Y-68810000D02*
X95230000Y-68810000D01*
X90450000Y-59800000D02*
X94150000Y-59800000D01*
X90450000Y-61800000D02*
X94150000Y-61800000D01*
X82600000Y-63700000D02*
X82600000Y-67300000D01*
X89400000Y-63700000D02*
X89400000Y-67300000D01*
X78150000Y-60500000D02*
X81850000Y-60500000D01*
X78150000Y-62500000D02*
X81850000Y-62500000D01*
M02*
