%TF.GenerationSoftware,rivgen,1.0*%
%TF.FileFunction,Copper,L2,Bot*%
%FSLAX46Y46*%
%MOMM*%
%LPD*%
G01*
%ADD10C,0.300*%
%ADD11C,0.500*%
%ADD12C,0.800*%
%ADD13R,1.700X1.700*%
%ADD14C,1.700*%
%ADD15R,1.600X1.600*%
%ADD16C,1.600*%
%LPD*%
G36*
X20400000Y-20400000D02*
X20400000Y-74600000D01*
X99600000Y-74600000D01*
X99600000Y-20400000D01*
X20400000Y-20400000D01*
X20400000Y-20400000D01*
G37*
%LPD*%
%LPC*%
G36*
X44266563Y-21218450D02*
X44333199Y-21235142D01*
X44397878Y-21258284D01*
X44459978Y-21287655D01*
X44518899Y-21322971D01*
X44562085Y-21355000D01*
X44765000Y-21355000D01*
X44818909Y-21357648D01*
X44872300Y-21365568D01*
X44924657Y-21378683D01*
X44975476Y-21396866D01*
X45024268Y-21419943D01*
X45070564Y-21447692D01*
X45113916Y-21479844D01*
X45153909Y-21516091D01*
X45788909Y-22151091D01*
X46262817Y-22625000D01*
X46872915Y-22625000D01*
X46916101Y-22592971D01*
X46975022Y-22557655D01*
X47037122Y-22528284D01*
X47101801Y-22505142D01*
X47168437Y-22488450D01*
X47236388Y-22478371D01*
X47305000Y-22475000D01*
X47373612Y-22478371D01*
X47441563Y-22488450D01*
X47508199Y-22505142D01*
X47572878Y-22528284D01*
X47634978Y-22557655D01*
X47693899Y-22592971D01*
X47749075Y-22633893D01*
X47799975Y-22680025D01*
X47846107Y-22730925D01*
X47887029Y-22786101D01*
X47922345Y-22845022D01*
X47951716Y-22907122D01*
X47974858Y-22971801D01*
X47991550Y-23038437D01*
X48001629Y-23106388D01*
X48005000Y-23175000D01*
X48001629Y-23243612D01*
X47991550Y-23311563D01*
X47974858Y-23378199D01*
X47951716Y-23442878D01*
X47922345Y-23504978D01*
X47887029Y-23563899D01*
X47846107Y-23619075D01*
X47799975Y-23669975D01*
X47749075Y-23716107D01*
X47693899Y-23757029D01*
X47634978Y-23792345D01*
X47572878Y-23821716D01*
X47508199Y-23844858D01*
X47441563Y-23861550D01*
X47373612Y-23871629D01*
X47305000Y-23875000D01*
X47236388Y-23871629D01*
X47168437Y-23861550D01*
X47101801Y-23844858D01*
X47037122Y-23821716D01*
X46975022Y-23792345D01*
X46916101Y-23757029D01*
X46872915Y-23725000D01*
X46035000Y-23725000D01*
X45981091Y-23722352D01*
X45927700Y-23714432D01*
X45875343Y-23701317D01*
X45824524Y-23683134D01*
X45775732Y-23660057D01*
X45729436Y-23632308D01*
X45686084Y-23600156D01*
X45646091Y-23563909D01*
X45011091Y-22928909D01*
X44547787Y-22465604D01*
X44518899Y-22487029D01*
X44459978Y-22522345D01*
X44397878Y-22551716D01*
X44333199Y-22574858D01*
X44266563Y-22591550D01*
X44198612Y-22601629D01*
X44130000Y-22605000D01*
X44061388Y-22601629D01*
X43993437Y-22591550D01*
X43926801Y-22574858D01*
X43862122Y-22551716D01*
X43800022Y-22522345D01*
X43741101Y-22487029D01*
X43685925Y-22446107D01*
X43635025Y-22399975D01*
X43588893Y-22349075D01*
X43547971Y-22293899D01*
X43512655Y-22234978D01*
X43483284Y-22172878D01*
X43460142Y-22108199D01*
X43443450Y-22041563D01*
X43433371Y-21973612D01*
X43430000Y-21905000D01*
X43433371Y-21836388D01*
X43443450Y-21768437D01*
X43460142Y-21701801D01*
X43483284Y-21637122D01*
X43512655Y-21575022D01*
X43547971Y-21516101D01*
X43588893Y-21460925D01*
X43635025Y-21410025D01*
X43685925Y-21363893D01*
X43741101Y-21322971D01*
X43800022Y-21287655D01*
X43862122Y-21258284D01*
X43926801Y-21235142D01*
X43993437Y-21218450D01*
X44061388Y-21208371D01*
X44130000Y-21205000D01*
X44198612Y-21208371D01*
X44266563Y-21218450D01*
X44266563Y-21218450D01*
G37*
%LPD*%
%LPC*%
G36*
X25150000Y-27850000D02*
X25150000Y-30150000D01*
X22850000Y-30150000D01*
X22850000Y-27850000D01*
X25150000Y-27850000D01*
X25150000Y-27850000D01*
G37*
%LPD*%
%LPC*%
G36*
X53637345Y-31100022D02*
X53666716Y-31162122D01*
X53689858Y-31226801D01*
X53706550Y-31293437D01*
X53716629Y-31361388D01*
X53720000Y-31430000D01*
X53717022Y-31490626D01*
X53973198Y-31746802D01*
X54608198Y-32381802D01*
X54637855Y-32414523D01*
X54664161Y-32449993D01*
X54686865Y-32487871D01*
X54705746Y-32527792D01*
X54720623Y-32569372D01*
X54731353Y-32612209D01*
X54737833Y-32655892D01*
X54740000Y-32700000D01*
X54740000Y-32799263D01*
X54784975Y-32840025D01*
X54831107Y-32890925D01*
X54872029Y-32946101D01*
X54907345Y-33005022D01*
X54936716Y-33067122D01*
X54959858Y-33131801D01*
X54976550Y-33198437D01*
X54986629Y-33266388D01*
X54990000Y-33335000D01*
X54986629Y-33403612D01*
X54976550Y-33471563D01*
X54959858Y-33538199D01*
X54936716Y-33602878D01*
X54907345Y-33664978D01*
X54872029Y-33723899D01*
X54831107Y-33779075D01*
X54784975Y-33829975D01*
X54734075Y-33876107D01*
X54678899Y-33917029D01*
X54619978Y-33952345D01*
X54557878Y-33981716D01*
X54493199Y-34004858D01*
X54426563Y-34021550D01*
X54358612Y-34031629D01*
X54290000Y-34035000D01*
X54221388Y-34031629D01*
X54153437Y-34021550D01*
X54086801Y-34004858D01*
X54022122Y-33981716D01*
X53960022Y-33952345D01*
X53901101Y-33917029D01*
X53845925Y-33876107D01*
X53795025Y-33829975D01*
X53748893Y-33779075D01*
X53707971Y-33723899D01*
X53672655Y-33664978D01*
X53643284Y-33602878D01*
X53620142Y-33538199D01*
X53603450Y-33471563D01*
X53593371Y-33403612D01*
X53590000Y-33335000D01*
X53593371Y-33266388D01*
X53603450Y-33198437D01*
X53620142Y-33131801D01*
X53643284Y-33067122D01*
X53672655Y-33005022D01*
X53707971Y-32946101D01*
X53748893Y-32890925D01*
X53794361Y-32840758D01*
X53336802Y-32383198D01*
X53080626Y-32127022D01*
X53020000Y-32130000D01*
X52951388Y-32126629D01*
X52883437Y-32116550D01*
X52816801Y-32099858D01*
X52752122Y-32076716D01*
X52690022Y-32047345D01*
X52631101Y-32012029D01*
X52575925Y-31971107D01*
X52525025Y-31924975D01*
X52478893Y-31874075D01*
X52437971Y-31818899D01*
X52402655Y-31759978D01*
X52373284Y-31697878D01*
X52350142Y-31633199D01*
X52333450Y-31566563D01*
X52323371Y-31498612D01*
X52320000Y-31430000D01*
X52323371Y-31361388D01*
X52333450Y-31293437D01*
X52350142Y-31226801D01*
X52373284Y-31162122D01*
X52402655Y-31100022D01*
X52437971Y-31041101D01*
X52478893Y-30985925D01*
X52525025Y-30935025D01*
X52575925Y-30888893D01*
X52631101Y-30847971D01*
X52690022Y-30812655D01*
X52752122Y-30783284D01*
X52816801Y-30760142D01*
X52883437Y-30743450D01*
X52951388Y-30733371D01*
X53020000Y-30730000D01*
X53088612Y-30733371D01*
X53156563Y-30743450D01*
X53223199Y-30760142D01*
X53287878Y-30783284D01*
X53349978Y-30812655D01*
X53408899Y-30847971D01*
X53464075Y-30888893D01*
X53514975Y-30935025D01*
X53561107Y-30985925D01*
X53602029Y-31041101D01*
X53637345Y-31100022D01*
X53637345Y-31100022D01*
G37*
%LPD*%
%LPC*%
G36*
X25250000Y-30290000D02*
X25250000Y-32790000D01*
X22750000Y-32790000D01*
X22750000Y-30290000D01*
X25250000Y-30290000D01*
X25250000Y-30290000D01*
G37*
%LPD*%
%LPC*%
G36*
X36492345Y-42530022D02*
X36521716Y-42592122D01*
X36544858Y-42656801D01*
X36561550Y-42723437D01*
X36571629Y-42791388D01*
X36575000Y-42860000D01*
X36571629Y-42928612D01*
X36561550Y-42996563D01*
X36544858Y-43063199D01*
X36521716Y-43127878D01*
X36492345Y-43189978D01*
X36457029Y-43248899D01*
X36416107Y-43304075D01*
X36369975Y-43354975D01*
X36319075Y-43401107D01*
X36263899Y-43442029D01*
X36204978Y-43477345D01*
X36142878Y-43506716D01*
X36078199Y-43529858D01*
X36011563Y-43546550D01*
X35943612Y-43556629D01*
X35875000Y-43560000D01*
X35806388Y-43556629D01*
X35738437Y-43546550D01*
X35671801Y-43529858D01*
X35607122Y-43506716D01*
X35545022Y-43477345D01*
X35486101Y-43442029D01*
X35442915Y-43410000D01*
X33767085Y-43410000D01*
X33723899Y-43442029D01*
X33664978Y-43477345D01*
X33602878Y-43506716D01*
X33538199Y-43529858D01*
X33471563Y-43546550D01*
X33403612Y-43556629D01*
X33335000Y-43560000D01*
X33266388Y-43556629D01*
X33198437Y-43546550D01*
X33131801Y-43529858D01*
X33067122Y-43506716D01*
X33005022Y-43477345D01*
X32946101Y-43442029D01*
X32890925Y-43401107D01*
X32840025Y-43354975D01*
X32793893Y-43304075D01*
X32752971Y-43248899D01*
X32717655Y-43189978D01*
X32688284Y-43127878D01*
X32665142Y-43063199D01*
X32648450Y-42996563D01*
X32638371Y-42928612D01*
X32635000Y-42860000D01*
X32638371Y-42791388D01*
X32648450Y-42723437D01*
X32665142Y-42656801D01*
X32688284Y-42592122D01*
X32717655Y-42530022D01*
X32752971Y-42471101D01*
X32793893Y-42415925D01*
X32840025Y-42365025D01*
X32890925Y-42318893D01*
X32946101Y-42277971D01*
X33005022Y-42242655D01*
X33067122Y-42213284D01*
X33131801Y-42190142D01*
X33198437Y-42173450D01*
X33266388Y-42163371D01*
X33335000Y-42160000D01*
X33403612Y-42163371D01*
X33471563Y-42173450D01*
X33538199Y-42190142D01*
X33602878Y-42213284D01*
X33664978Y-42242655D01*
X33723899Y-42277971D01*
X33767085Y-42310000D01*
X35442915Y-42310000D01*
X35486101Y-42277971D01*
X35545022Y-42242655D01*
X35607122Y-42213284D01*
X35671801Y-42190142D01*
X35738437Y-42173450D01*
X35806388Y-42163371D01*
X35875000Y-42160000D01*
X35943612Y-42163371D01*
X36011563Y-42173450D01*
X36078199Y-42190142D01*
X36142878Y-42213284D01*
X36204978Y-42242655D01*
X36263899Y-42277971D01*
X36319075Y-42318893D01*
X36369975Y-42365025D01*
X36416107Y-42415925D01*
X36457029Y-42471101D01*
X36492345Y-42530022D01*
X36492345Y-42530022D01*
G37*
%LPD*%
%LPC*%
G36*
X38047878Y-42848284D02*
X38109978Y-42877655D01*
X38168899Y-42912971D01*
X38212085Y-42945000D01*
X49210000Y-42945000D01*
X49263909Y-42947648D01*
X49317300Y-42955568D01*
X49369657Y-42968683D01*
X49420476Y-42986866D01*
X49469268Y-43009943D01*
X49515564Y-43037692D01*
X49558916Y-43069844D01*
X49598909Y-43106091D01*
X50233909Y-43741091D01*
X50868909Y-44376091D01*
X51503909Y-45011091D01*
X52138909Y-45646091D01*
X52773909Y-46281091D01*
X53408909Y-46916091D01*
X54043909Y-47551091D01*
X54678909Y-48186091D01*
X55313909Y-48821091D01*
X55948909Y-49456091D01*
X56583909Y-50091091D01*
X57218909Y-50726091D01*
X57853909Y-51361091D01*
X58488909Y-51996091D01*
X58962817Y-52470000D01*
X61910000Y-52470000D01*
X61963909Y-52472648D01*
X62017300Y-52480568D01*
X62069657Y-52493683D01*
X62120476Y-52511866D01*
X62169268Y-52534943D01*
X62215564Y-52562692D01*
X62258916Y-52594844D01*
X62298909Y-52631091D01*
X62933909Y-53266091D01*
X64838909Y-55171091D01*
X65168379Y-55500561D01*
X65221563Y-55508450D01*
X65288199Y-55525142D01*
X65352878Y-55548284D01*
X65414978Y-55577655D01*
X65473899Y-55612971D01*
X65529075Y-55653893D01*
X65579975Y-55700025D01*
X65626107Y-55750925D01*
X65667029Y-55806101D01*
X65702345Y-55865022D01*
X65731716Y-55927122D01*
X65754858Y-55991801D01*
X65771550Y-56058437D01*
X65781629Y-56126388D01*
X65785000Y-56195000D01*
X65781629Y-56263612D01*
X65771550Y-56331563D01*
X65754858Y-56398199D01*
X65731716Y-56462878D01*
X65702345Y-56524978D01*
X65667029Y-56583899D01*
X65626107Y-56639075D01*
X65579975Y-56689975D01*
X65529075Y-56736107D01*
X65473899Y-56777029D01*
X65414978Y-56812345D01*
X65352878Y-56841716D01*
X65288199Y-56864858D01*
X65221563Y-56881550D01*
X65153612Y-56891629D01*
X65085000Y-56895000D01*
X65016388Y-56891629D01*
X64948437Y-56881550D01*
X64881801Y-56864858D01*
X64817122Y-56841716D01*
X64755022Y-56812345D01*
X64696101Y-56777029D01*
X64640925Y-56736107D01*
X64590025Y-56689975D01*
X64543893Y-56639075D01*
X64502971Y-56583899D01*
X64467655Y-56524978D01*
X64438284Y-56462878D01*
X64415142Y-56398199D01*
X64398450Y-56331563D01*
X64390561Y-56278379D01*
X64061091Y-55948909D01*
X62156091Y-54043909D01*
X61682183Y-53570000D01*
X58735000Y-53570000D01*
X58681091Y-53567352D01*
X58627700Y-53559432D01*
X58575343Y-53546317D01*
X58524524Y-53528134D01*
X58475732Y-53505057D01*
X58429436Y-53477308D01*
X58386084Y-53445156D01*
X58346091Y-53408909D01*
X57711091Y-52773909D01*
X57076091Y-52138909D01*
X56441091Y-51503909D01*
X55806091Y-50868909D01*
X55171091Y-50233909D01*
X54536091Y-49598909D01*
X53901091Y-48963909D01*
X53266091Y-48328909D01*
X52631091Y-47693909D01*
X51996091Y-47058909D01*
X51361091Y-46423909D01*
X50726091Y-45788909D01*
X50091091Y-45153909D01*
X49456091Y-44518909D01*
X48982183Y-44045000D01*
X38212085Y-44045000D01*
X38168899Y-44077029D01*
X38109978Y-44112345D01*
X38047878Y-44141716D01*
X37983199Y-44164858D01*
X37916563Y-44181550D01*
X37848612Y-44191629D01*
X37780000Y-44195000D01*
X37711388Y-44191629D01*
X37643437Y-44181550D01*
X37576801Y-44164858D01*
X37512122Y-44141716D01*
X37450022Y-44112345D01*
X37391101Y-44077029D01*
X37335925Y-44036107D01*
X37285025Y-43989975D01*
X37238893Y-43939075D01*
X37197971Y-43883899D01*
X37162655Y-43824978D01*
X37133284Y-43762878D01*
X37110142Y-43698199D01*
X37093450Y-43631563D01*
X37083371Y-43563612D01*
X37080000Y-43495000D01*
X37083371Y-43426388D01*
X37093450Y-43358437D01*
X37110142Y-43291801D01*
X37133284Y-43227122D01*
X37162655Y-43165022D01*
X37197971Y-43106101D01*
X37238893Y-43050925D01*
X37285025Y-43000025D01*
X37335925Y-42953893D01*
X37391101Y-42912971D01*
X37450022Y-42877655D01*
X37512122Y-42848284D01*
X37576801Y-42825142D01*
X37643437Y-42808450D01*
X37711388Y-42798371D01*
X37780000Y-42795000D01*
X37848612Y-42798371D01*
X37916563Y-42808450D01*
X37983199Y-42825142D01*
X38047878Y-42848284D01*
X38047878Y-42848284D01*
G37*
%LPD*%
%LPC*%
G36*
X36492345Y-46975022D02*
X36521716Y-47037122D01*
X36544858Y-47101801D01*
X36561550Y-47168437D01*
X36571629Y-47236388D01*
X36575000Y-47305000D01*
X36571629Y-47373612D01*
X36561550Y-47441563D01*
X36544858Y-47508199D01*
X36521716Y-47572878D01*
X36492345Y-47634978D01*
X36457029Y-47693899D01*
X36416107Y-47749075D01*
X36369975Y-47799975D01*
X36325000Y-47840737D01*
X36325000Y-47940000D01*
X36322833Y-47984108D01*
X36316353Y-48027791D01*
X36305623Y-48070628D01*
X36290746Y-48112208D01*
X36271865Y-48152129D01*
X36249161Y-48190007D01*
X36222855Y-48225477D01*
X36193198Y-48258198D01*
X35690000Y-48761396D01*
X35690000Y-49309263D01*
X35734975Y-49350025D01*
X35781107Y-49400925D01*
X35822029Y-49456101D01*
X35857345Y-49515022D01*
X35886716Y-49577122D01*
X35909858Y-49641801D01*
X35926550Y-49708437D01*
X35936629Y-49776388D01*
X35940000Y-49845000D01*
X35936629Y-49913612D01*
X35926550Y-49981563D01*
X35909858Y-50048199D01*
X35886716Y-50112878D01*
X35857345Y-50174978D01*
X35822029Y-50233899D01*
X35781107Y-50289075D01*
X35734975Y-50339975D01*
X35684075Y-50386107D01*
X35628899Y-50427029D01*
X35569978Y-50462345D01*
X35507878Y-50491716D01*
X35443199Y-50514858D01*
X35376563Y-50531550D01*
X35308612Y-50541629D01*
X35240000Y-50545000D01*
X35171388Y-50541629D01*
X35103437Y-50531550D01*
X35036801Y-50514858D01*
X34972122Y-50491716D01*
X34910022Y-50462345D01*
X34851101Y-50427029D01*
X34795925Y-50386107D01*
X34745025Y-50339975D01*
X34698893Y-50289075D01*
X34657971Y-50233899D01*
X34622655Y-50174978D01*
X34593284Y-50112878D01*
X34570142Y-50048199D01*
X34553450Y-49981563D01*
X34543371Y-49913612D01*
X34540000Y-49845000D01*
X34543371Y-49776388D01*
X34553450Y-49708437D01*
X34570142Y-49641801D01*
X34593284Y-49577122D01*
X34622655Y-49515022D01*
X34657971Y-49456101D01*
X34698893Y-49400925D01*
X34745025Y-49350025D01*
X34790000Y-49309263D01*
X34790000Y-48575000D01*
X34792167Y-48530892D01*
X34798647Y-48487209D01*
X34809377Y-48444372D01*
X34824254Y-48402792D01*
X34843135Y-48362871D01*
X34865839Y-48324993D01*
X34892145Y-48289523D01*
X34921802Y-48256802D01*
X35379361Y-47799242D01*
X35333893Y-47749075D01*
X35292971Y-47693899D01*
X35257655Y-47634978D01*
X35228284Y-47572878D01*
X35205142Y-47508199D01*
X35188450Y-47441563D01*
X35178371Y-47373612D01*
X35175000Y-47305000D01*
X35178371Y-47236388D01*
X35188450Y-47168437D01*
X35205142Y-47101801D01*
X35228284Y-47037122D01*
X35257655Y-46975022D01*
X35292971Y-46916101D01*
X35333893Y-46860925D01*
X35380025Y-46810025D01*
X35430925Y-46763893D01*
X35486101Y-46722971D01*
X35545022Y-46687655D01*
X35607122Y-46658284D01*
X35671801Y-46635142D01*
X35738437Y-46618450D01*
X35806388Y-46608371D01*
X35875000Y-46605000D01*
X35943612Y-46608371D01*
X36011563Y-46618450D01*
X36078199Y-46635142D01*
X36142878Y-46658284D01*
X36204978Y-46687655D01*
X36263899Y-46722971D01*
X36319075Y-46763893D01*
X36369975Y-46810025D01*
X36416107Y-46860925D01*
X36457029Y-46916101D01*
X36492345Y-46975022D01*
X36492345Y-46975022D01*
G37*
%LPD*%
%LPC*%
G36*
X46652345Y-55230022D02*
X46681716Y-55292122D01*
X46704858Y-55356801D01*
X46721550Y-55423437D01*
X46731629Y-55491388D01*
X46735000Y-55560000D01*
X46731629Y-55628612D01*
X46721550Y-55696563D01*
X46704858Y-55763199D01*
X46681716Y-55827878D01*
X46652345Y-55889978D01*
X46617029Y-55948899D01*
X46576107Y-56004075D01*
X46529975Y-56054975D01*
X46479075Y-56101107D01*
X46423899Y-56142029D01*
X46364978Y-56177345D01*
X46302878Y-56206716D01*
X46238199Y-56229858D01*
X46171563Y-56246550D01*
X46103612Y-56256629D01*
X46035000Y-56260000D01*
X45974374Y-56257022D01*
X45850000Y-56381396D01*
X45850000Y-58834263D01*
X45894975Y-58875025D01*
X45941107Y-58925925D01*
X45982029Y-58981101D01*
X46017345Y-59040022D01*
X46046716Y-59102122D01*
X46069858Y-59166801D01*
X46086550Y-59233437D01*
X46096629Y-59301388D01*
X46100000Y-59370000D01*
X46096629Y-59438612D01*
X46086550Y-59506563D01*
X46069858Y-59573199D01*
X46046716Y-59637878D01*
X46017345Y-59699978D01*
X45982029Y-59758899D01*
X45941107Y-59814075D01*
X45894975Y-59864975D01*
X45844075Y-59911107D01*
X45788899Y-59952029D01*
X45729978Y-59987345D01*
X45667878Y-60016716D01*
X45603199Y-60039858D01*
X45536563Y-60056550D01*
X45468612Y-60066629D01*
X45400000Y-60070000D01*
X45331388Y-60066629D01*
X45263437Y-60056550D01*
X45196801Y-60039858D01*
X45132122Y-60016716D01*
X45070022Y-59987345D01*
X45011101Y-59952029D01*
X44955925Y-59911107D01*
X44905025Y-59864975D01*
X44858893Y-59814075D01*
X44817971Y-59758899D01*
X44782655Y-59699978D01*
X44753284Y-59637878D01*
X44730142Y-59573199D01*
X44713450Y-59506563D01*
X44703371Y-59438612D01*
X44700000Y-59370000D01*
X44703371Y-59301388D01*
X44713450Y-59233437D01*
X44730142Y-59166801D01*
X44753284Y-59102122D01*
X44782655Y-59040022D01*
X44817971Y-58981101D01*
X44858893Y-58925925D01*
X44905025Y-58875025D01*
X44950000Y-58834263D01*
X44950000Y-56195000D01*
X44952167Y-56150892D01*
X44958647Y-56107209D01*
X44969377Y-56064372D01*
X44984254Y-56022792D01*
X45003135Y-55982871D01*
X45025839Y-55944993D01*
X45052145Y-55909523D01*
X45081802Y-55876802D01*
X45337978Y-55620626D01*
X45335000Y-55560000D01*
X45338371Y-55491388D01*
X45348450Y-55423437D01*
X45365142Y-55356801D01*
X45388284Y-55292122D01*
X45417655Y-55230022D01*
X45452971Y-55171101D01*
X45493893Y-55115925D01*
X45540025Y-55065025D01*
X45590925Y-55018893D01*
X45646101Y-54977971D01*
X45705022Y-54942655D01*
X45767122Y-54913284D01*
X45831801Y-54890142D01*
X45898437Y-54873450D01*
X45966388Y-54863371D01*
X46035000Y-54860000D01*
X46103612Y-54863371D01*
X46171563Y-54873450D01*
X46238199Y-54890142D01*
X46302878Y-54913284D01*
X46364978Y-54942655D01*
X46423899Y-54977971D01*
X46479075Y-55018893D01*
X46529975Y-55065025D01*
X46576107Y-55115925D01*
X46617029Y-55171101D01*
X46652345Y-55230022D01*
X46652345Y-55230022D01*
G37*
%LPD*%
%LPC*%
G36*
X51850000Y-68350000D02*
X54150000Y-68350000D01*
X54150000Y-70650000D01*
X51850000Y-70650000D01*
X51850000Y-68350000D01*
X51850000Y-68350000D01*
G37*
%LPD*%
%LPC*%
G36*
X49310000Y-68350000D02*
X51610000Y-68350000D01*
X51610000Y-70650000D01*
X49310000Y-70650000D01*
X49310000Y-68350000D01*
X49310000Y-68350000D01*
G37*
%LPD*%
%LPC*%
G36*
X54390000Y-68350000D02*
X55745000Y-68350000D01*
X55745000Y-65100000D01*
X55590000Y-65100000D01*
X55590000Y-62900000D01*
X57790000Y-62900000D01*
X57790000Y-65100000D01*
X56645000Y-65100000D01*
X56645000Y-68350000D01*
X56690000Y-68350000D01*
X56690000Y-70650000D01*
X54390000Y-70650000D01*
X54390000Y-68350000D01*
X54390000Y-68350000D01*
G37*
%LPD*%
%LPC*%
G36*
X73957345Y-30465022D02*
X73986716Y-30527122D01*
X74009858Y-30591801D01*
X74026550Y-30658437D01*
X74036629Y-30726388D01*
X74040000Y-30795000D01*
X74036629Y-30863612D01*
X74026550Y-30931563D01*
X74014417Y-30980000D01*
X76328604Y-30980000D01*
X76831802Y-30476802D01*
X76864523Y-30447145D01*
X76899993Y-30420839D01*
X76937871Y-30398135D01*
X76977792Y-30379254D01*
X77019372Y-30364377D01*
X77062209Y-30353647D01*
X77105892Y-30347167D01*
X77150000Y-30345000D01*
X77884263Y-30345000D01*
X77925025Y-30300025D01*
X77975925Y-30253893D01*
X78031101Y-30212971D01*
X78090022Y-30177655D01*
X78152122Y-30148284D01*
X78216801Y-30125142D01*
X78283437Y-30108450D01*
X78351388Y-30098371D01*
X78420000Y-30095000D01*
X78488612Y-30098371D01*
X78556563Y-30108450D01*
X78623199Y-30125142D01*
X78687878Y-30148284D01*
X78749978Y-30177655D01*
X78808899Y-30212971D01*
X78864075Y-30253893D01*
X78914975Y-30300025D01*
X78961107Y-30350925D01*
X79002029Y-30406101D01*
X79037345Y-30465022D01*
X79066716Y-30527122D01*
X79089858Y-30591801D01*
X79106550Y-30658437D01*
X79116629Y-30726388D01*
X79120000Y-30795000D01*
X79116629Y-30863612D01*
X79106550Y-30931563D01*
X79089858Y-30998199D01*
X79066716Y-31062878D01*
X79037345Y-31124978D01*
X79002029Y-31183899D01*
X78961107Y-31239075D01*
X78914975Y-31289975D01*
X78870000Y-31330737D01*
X78870000Y-31430000D01*
X78867833Y-31474108D01*
X78861353Y-31517791D01*
X78850623Y-31560628D01*
X78835746Y-31602208D01*
X78816865Y-31642129D01*
X78794161Y-31680007D01*
X78767855Y-31715477D01*
X78738198Y-31748198D01*
X78103198Y-32383198D01*
X77468198Y-33018198D01*
X76330000Y-34156396D01*
X76330000Y-34605000D01*
X76327833Y-34649108D01*
X76321353Y-34692791D01*
X76310623Y-34735628D01*
X76295746Y-34777208D01*
X76276865Y-34817129D01*
X76254161Y-34855007D01*
X76227855Y-34890477D01*
X76198198Y-34923198D01*
X75695000Y-35426396D01*
X75695000Y-38228604D01*
X76198198Y-38731802D01*
X76227855Y-38764523D01*
X76254161Y-38799993D01*
X76276865Y-38837871D01*
X76295746Y-38877792D01*
X76310623Y-38919372D01*
X76321353Y-38962209D01*
X76327833Y-39005892D01*
X76330000Y-39050000D01*
X76330000Y-40133604D01*
X76833198Y-40636802D01*
X77468198Y-41271802D01*
X78103198Y-41906802D01*
X78132855Y-41939523D01*
X78159161Y-41974993D01*
X78181865Y-42012871D01*
X78200746Y-42052792D01*
X78215623Y-42094372D01*
X78226353Y-42137209D01*
X78232833Y-42180892D01*
X78235000Y-42225000D01*
X78235000Y-53205000D01*
X86040000Y-53205000D01*
X86084108Y-53207167D01*
X86127791Y-53213647D01*
X86170628Y-53224377D01*
X86212208Y-53239254D01*
X86252129Y-53258135D01*
X86290007Y-53280839D01*
X86325477Y-53307145D01*
X86358198Y-53336802D01*
X86993198Y-53971802D01*
X87628198Y-54606802D01*
X87884374Y-54862978D01*
X87945000Y-54860000D01*
X88013612Y-54863371D01*
X88081563Y-54873450D01*
X88148199Y-54890142D01*
X88212878Y-54913284D01*
X88274978Y-54942655D01*
X88333899Y-54977971D01*
X88389075Y-55018893D01*
X88439975Y-55065025D01*
X88486107Y-55115925D01*
X88527029Y-55171101D01*
X88562345Y-55230022D01*
X88591716Y-55292122D01*
X88614858Y-55356801D01*
X88631550Y-55423437D01*
X88641629Y-55491388D01*
X88645000Y-55560000D01*
X88641629Y-55628612D01*
X88631550Y-55696563D01*
X88614858Y-55763199D01*
X88591716Y-55827878D01*
X88562345Y-55889978D01*
X88527029Y-55948899D01*
X88486107Y-56004075D01*
X88439975Y-56054975D01*
X88389075Y-56101107D01*
X88333899Y-56142029D01*
X88274978Y-56177345D01*
X88212878Y-56206716D01*
X88148199Y-56229858D01*
X88081563Y-56246550D01*
X88013612Y-56256629D01*
X87945000Y-56260000D01*
X87876388Y-56256629D01*
X87808437Y-56246550D01*
X87741801Y-56229858D01*
X87677122Y-56206716D01*
X87615022Y-56177345D01*
X87556101Y-56142029D01*
X87500925Y-56101107D01*
X87450025Y-56054975D01*
X87403893Y-56004075D01*
X87362971Y-55948899D01*
X87327655Y-55889978D01*
X87298284Y-55827878D01*
X87275142Y-55763199D01*
X87258450Y-55696563D01*
X87248371Y-55628612D01*
X87245000Y-55560000D01*
X87247978Y-55499374D01*
X86991802Y-55243198D01*
X86356802Y-54608198D01*
X85853604Y-54105000D01*
X77785000Y-54105000D01*
X77740892Y-54102833D01*
X77697209Y-54096353D01*
X77654372Y-54085623D01*
X77612792Y-54070746D01*
X77572871Y-54051865D01*
X77534993Y-54029161D01*
X77499523Y-54002855D01*
X77466802Y-53973198D01*
X77437145Y-53940477D01*
X77410839Y-53905007D01*
X77388135Y-53867129D01*
X77369254Y-53827208D01*
X77354377Y-53785628D01*
X77343647Y-53742791D01*
X77337167Y-53699108D01*
X77335000Y-53655000D01*
X77335000Y-42411396D01*
X76831802Y-41908198D01*
X76196802Y-41273198D01*
X75561802Y-40638198D01*
X75532145Y-40605477D01*
X75505839Y-40570007D01*
X75483135Y-40532129D01*
X75464254Y-40492208D01*
X75449377Y-40450628D01*
X75438647Y-40407791D01*
X75432167Y-40364108D01*
X75430000Y-40320000D01*
X75430000Y-39236396D01*
X74926802Y-38733198D01*
X74897145Y-38700477D01*
X74870839Y-38665007D01*
X74848135Y-38627129D01*
X74829254Y-38587208D01*
X74814377Y-38545628D01*
X74803647Y-38502791D01*
X74797167Y-38459108D01*
X74795000Y-38415000D01*
X74795000Y-35240000D01*
X74797167Y-35195892D01*
X74803647Y-35152209D01*
X74814377Y-35109372D01*
X74829254Y-35067792D01*
X74848135Y-35027871D01*
X74870839Y-34989993D01*
X74897145Y-34954523D01*
X74926802Y-34921802D01*
X75430000Y-34418604D01*
X75430000Y-33970000D01*
X75432167Y-33925892D01*
X75438647Y-33882209D01*
X75449377Y-33839372D01*
X75464254Y-33797792D01*
X75483135Y-33757871D01*
X75505839Y-33719993D01*
X75532145Y-33684523D01*
X75561802Y-33651802D01*
X76831802Y-32381802D01*
X77466802Y-31746802D01*
X77924361Y-31289242D01*
X77884263Y-31245000D01*
X77336396Y-31245000D01*
X76833198Y-31748198D01*
X76800477Y-31777855D01*
X76765007Y-31804161D01*
X76727129Y-31826865D01*
X76687208Y-31845746D01*
X76645628Y-31860623D01*
X76602791Y-31871353D01*
X76559108Y-31877833D01*
X76515000Y-31880000D01*
X74425000Y-31880000D01*
X74425000Y-32065000D01*
X74422833Y-32109108D01*
X74416353Y-32152791D01*
X74405623Y-32195628D01*
X74390746Y-32237208D01*
X74371865Y-32277129D01*
X74349161Y-32315007D01*
X74322855Y-32350477D01*
X74293198Y-32383198D01*
X73658198Y-33018198D01*
X73625477Y-33047855D01*
X73590007Y-33074161D01*
X73552129Y-33096865D01*
X73512208Y-33115746D01*
X73470628Y-33130623D01*
X73427791Y-33141353D01*
X73384108Y-33147833D01*
X73340000Y-33150000D01*
X73295892Y-33147833D01*
X73252209Y-33141353D01*
X73209372Y-33130623D01*
X73167792Y-33115746D01*
X73155000Y-33109695D01*
X73155000Y-34704263D01*
X73199975Y-34745025D01*
X73246107Y-34795925D01*
X73287029Y-34851101D01*
X73322345Y-34910022D01*
X73351716Y-34972122D01*
X73374858Y-35036801D01*
X73391550Y-35103437D01*
X73401629Y-35171388D01*
X73405000Y-35240000D01*
X73401629Y-35308612D01*
X73391550Y-35376563D01*
X73374858Y-35443199D01*
X73351716Y-35507878D01*
X73322345Y-35569978D01*
X73287029Y-35628899D01*
X73246107Y-35684075D01*
X73199975Y-35734975D01*
X73149075Y-35781107D01*
X73093899Y-35822029D01*
X73034978Y-35857345D01*
X72972878Y-35886716D01*
X72908199Y-35909858D01*
X72841563Y-35926550D01*
X72773612Y-35936629D01*
X72705000Y-35940000D01*
X72636388Y-35936629D01*
X72568437Y-35926550D01*
X72501801Y-35909858D01*
X72437122Y-35886716D01*
X72375022Y-35857345D01*
X72316101Y-35822029D01*
X72260925Y-35781107D01*
X72210025Y-35734975D01*
X72163893Y-35684075D01*
X72122971Y-35628899D01*
X72087655Y-35569978D01*
X72058284Y-35507878D01*
X72035142Y-35443199D01*
X72018450Y-35376563D01*
X72008371Y-35308612D01*
X72005000Y-35240000D01*
X72008371Y-35171388D01*
X72018450Y-35103437D01*
X72035142Y-35036801D01*
X72058284Y-34972122D01*
X72087655Y-34910022D01*
X72122971Y-34851101D01*
X72163893Y-34795925D01*
X72210025Y-34745025D01*
X72255000Y-34704263D01*
X72255000Y-32700000D01*
X72257167Y-32655892D01*
X72263647Y-32612209D01*
X72274377Y-32569372D01*
X72289254Y-32527792D01*
X72308135Y-32487871D01*
X72330839Y-32449993D01*
X72357145Y-32414523D01*
X72386802Y-32381802D01*
X72890000Y-31878604D01*
X72890000Y-31330737D01*
X72845025Y-31289975D01*
X72798893Y-31239075D01*
X72757971Y-31183899D01*
X72722655Y-31124978D01*
X72693284Y-31062878D01*
X72670142Y-30998199D01*
X72653450Y-30931563D01*
X72643371Y-30863612D01*
X72640000Y-30795000D01*
X72643371Y-30726388D01*
X72653450Y-30658437D01*
X72670142Y-30591801D01*
X72693284Y-30527122D01*
X72722655Y-30465022D01*
X72757971Y-30406101D01*
X72798893Y-30350925D01*
X72845025Y-30300025D01*
X72895925Y-30253893D01*
X72951101Y-30212971D01*
X73010022Y-30177655D01*
X73072122Y-30148284D01*
X73136801Y-30125142D01*
X73203437Y-30108450D01*
X73271388Y-30098371D01*
X73340000Y-30095000D01*
X73408612Y-30098371D01*
X73476563Y-30108450D01*
X73543199Y-30125142D01*
X73607878Y-30148284D01*
X73669978Y-30177655D01*
X73728899Y-30212971D01*
X73784075Y-30253893D01*
X73834975Y-30300025D01*
X73881107Y-30350925D01*
X73922029Y-30406101D01*
X73957345Y-30465022D01*
X73957345Y-30465022D01*
G37*
%LPD*%
%LPC*%
G36*
X79037345Y-35545022D02*
X79066716Y-35607122D01*
X79089858Y-35671801D01*
X79106550Y-35738437D01*
X79116629Y-35806388D01*
X79120000Y-35875000D01*
X79116629Y-35943612D01*
X79106550Y-36011563D01*
X79089858Y-36078199D01*
X79066716Y-36142878D01*
X79037345Y-36204978D01*
X79002029Y-36263899D01*
X78970000Y-36307085D01*
X78970000Y-38500000D01*
X80732183Y-38500000D01*
X81841091Y-37391091D01*
X81881084Y-37354844D01*
X81924436Y-37322692D01*
X81970732Y-37294943D01*
X82019524Y-37271866D01*
X82070343Y-37253683D01*
X82122700Y-37240568D01*
X82176091Y-37232648D01*
X82230000Y-37230000D01*
X85607915Y-37230000D01*
X85651101Y-37197971D01*
X85710022Y-37162655D01*
X85772122Y-37133284D01*
X85836801Y-37110142D01*
X85903437Y-37093450D01*
X85971388Y-37083371D01*
X86040000Y-37080000D01*
X86108612Y-37083371D01*
X86176563Y-37093450D01*
X86243199Y-37110142D01*
X86307878Y-37133284D01*
X86369978Y-37162655D01*
X86428899Y-37197971D01*
X86484075Y-37238893D01*
X86534975Y-37285025D01*
X86581107Y-37335925D01*
X86622029Y-37391101D01*
X86657345Y-37450022D01*
X86686716Y-37512122D01*
X86709858Y-37576801D01*
X86726550Y-37643437D01*
X86736629Y-37711388D01*
X86740000Y-37780000D01*
X86736629Y-37848612D01*
X86726550Y-37916563D01*
X86709858Y-37983199D01*
X86686716Y-38047878D01*
X86657345Y-38109978D01*
X86622029Y-38168899D01*
X86581107Y-38224075D01*
X86534975Y-38274975D01*
X86484075Y-38321107D01*
X86428899Y-38362029D01*
X86369978Y-38397345D01*
X86307878Y-38426716D01*
X86243199Y-38449858D01*
X86176563Y-38466550D01*
X86108612Y-38476629D01*
X86040000Y-38480000D01*
X85971388Y-38476629D01*
X85903437Y-38466550D01*
X85836801Y-38449858D01*
X85772122Y-38426716D01*
X85710022Y-38397345D01*
X85651101Y-38362029D01*
X85607915Y-38330000D01*
X82457817Y-38330000D01*
X81348909Y-39438909D01*
X81308916Y-39475156D01*
X81265564Y-39507308D01*
X81219268Y-39535057D01*
X81170476Y-39558134D01*
X81119657Y-39576317D01*
X81067300Y-39589432D01*
X81013909Y-39597352D01*
X80960000Y-39600000D01*
X78970000Y-39600000D01*
X78970000Y-40727183D01*
X79443909Y-41201091D01*
X79773379Y-41530561D01*
X79826563Y-41538450D01*
X79893199Y-41555142D01*
X79957878Y-41578284D01*
X80019978Y-41607655D01*
X80078899Y-41642971D01*
X80134075Y-41683893D01*
X80184975Y-41730025D01*
X80231107Y-41780925D01*
X80272029Y-41836101D01*
X80307345Y-41895022D01*
X80336716Y-41957122D01*
X80359858Y-42021801D01*
X80376550Y-42088437D01*
X80386629Y-42156388D01*
X80390000Y-42225000D01*
X80386629Y-42293612D01*
X80376550Y-42361563D01*
X80359858Y-42428199D01*
X80336716Y-42492878D01*
X80307345Y-42554978D01*
X80272029Y-42613899D01*
X80231107Y-42669075D01*
X80184975Y-42719975D01*
X80134075Y-42766107D01*
X80078899Y-42807029D01*
X80019978Y-42842345D01*
X79957878Y-42871716D01*
X79893199Y-42894858D01*
X79826563Y-42911550D01*
X79758612Y-42921629D01*
X79690000Y-42925000D01*
X79621388Y-42921629D01*
X79605000Y-42919198D01*
X79605000Y-51952915D01*
X79637029Y-51996101D01*
X79672345Y-52055022D01*
X79701716Y-52117122D01*
X79724858Y-52181801D01*
X79741550Y-52248437D01*
X79751629Y-52316388D01*
X79755000Y-52385000D01*
X79751629Y-52453612D01*
X79741550Y-52521563D01*
X79724858Y-52588199D01*
X79701716Y-52652878D01*
X79672345Y-52714978D01*
X79637029Y-52773899D01*
X79596107Y-52829075D01*
X79549975Y-52879975D01*
X79499075Y-52926107D01*
X79443899Y-52967029D01*
X79384978Y-53002345D01*
X79322878Y-53031716D01*
X79258199Y-53054858D01*
X79191563Y-53071550D01*
X79123612Y-53081629D01*
X79055000Y-53085000D01*
X78986388Y-53081629D01*
X78918437Y-53071550D01*
X78851801Y-53054858D01*
X78787122Y-53031716D01*
X78725022Y-53002345D01*
X78666101Y-52967029D01*
X78610925Y-52926107D01*
X78560025Y-52879975D01*
X78513893Y-52829075D01*
X78472971Y-52773899D01*
X78437655Y-52714978D01*
X78408284Y-52652878D01*
X78385142Y-52588199D01*
X78368450Y-52521563D01*
X78358371Y-52453612D01*
X78355000Y-52385000D01*
X78358371Y-52316388D01*
X78368450Y-52248437D01*
X78385142Y-52181801D01*
X78408284Y-52117122D01*
X78437655Y-52055022D01*
X78472971Y-51996101D01*
X78505000Y-51952915D01*
X78505000Y-42225000D01*
X78507648Y-42171091D01*
X78515568Y-42117700D01*
X78528683Y-42065343D01*
X78546866Y-42014524D01*
X78569943Y-41965732D01*
X78597692Y-41919436D01*
X78601493Y-41914311D01*
X78031091Y-41343909D01*
X77994844Y-41303916D01*
X77962692Y-41260564D01*
X77934943Y-41214268D01*
X77911866Y-41165476D01*
X77893683Y-41114657D01*
X77880568Y-41062300D01*
X77872648Y-41008909D01*
X77870000Y-40955000D01*
X77870000Y-36307085D01*
X77837971Y-36263899D01*
X77802655Y-36204978D01*
X77773284Y-36142878D01*
X77750142Y-36078199D01*
X77733450Y-36011563D01*
X77723371Y-35943612D01*
X77720000Y-35875000D01*
X77723371Y-35806388D01*
X77733450Y-35738437D01*
X77750142Y-35671801D01*
X77773284Y-35607122D01*
X77802655Y-35545022D01*
X77837971Y-35486101D01*
X77878893Y-35430925D01*
X77925025Y-35380025D01*
X77975925Y-35333893D01*
X78031101Y-35292971D01*
X78090022Y-35257655D01*
X78152122Y-35228284D01*
X78216801Y-35205142D01*
X78283437Y-35188450D01*
X78351388Y-35178371D01*
X78420000Y-35175000D01*
X78488612Y-35178371D01*
X78556563Y-35188450D01*
X78623199Y-35205142D01*
X78687878Y-35228284D01*
X78749978Y-35257655D01*
X78808899Y-35292971D01*
X78864075Y-35333893D01*
X78914975Y-35380025D01*
X78961107Y-35430925D01*
X79002029Y-35486101D01*
X79037345Y-35545022D01*
X79037345Y-35545022D01*
G37*
%LPD*%
%LPC*%
G36*
X67319978Y-36527655D02*
X67378899Y-36562971D01*
X67434075Y-36603893D01*
X67484975Y-36650025D01*
X67525737Y-36695000D01*
X68994263Y-36695000D01*
X69035025Y-36650025D01*
X69085925Y-36603893D01*
X69141101Y-36562971D01*
X69200022Y-36527655D01*
X69262122Y-36498284D01*
X69326801Y-36475142D01*
X69393437Y-36458450D01*
X69461388Y-36448371D01*
X69530000Y-36445000D01*
X69598612Y-36448371D01*
X69666563Y-36458450D01*
X69733199Y-36475142D01*
X69797878Y-36498284D01*
X69859978Y-36527655D01*
X69918899Y-36562971D01*
X69974075Y-36603893D01*
X70024975Y-36650025D01*
X70071107Y-36700925D01*
X70112029Y-36756101D01*
X70147345Y-36815022D01*
X70176716Y-36877122D01*
X70199858Y-36941801D01*
X70216550Y-37008437D01*
X70226629Y-37076388D01*
X70230000Y-37145000D01*
X70226629Y-37213612D01*
X70216550Y-37281563D01*
X70199858Y-37348199D01*
X70176716Y-37412878D01*
X70147345Y-37474978D01*
X70112029Y-37533899D01*
X70071107Y-37589075D01*
X70024975Y-37639975D01*
X69974075Y-37686107D01*
X69918899Y-37727029D01*
X69859978Y-37762345D01*
X69797878Y-37791716D01*
X69733199Y-37814858D01*
X69666563Y-37831550D01*
X69598612Y-37841629D01*
X69530000Y-37845000D01*
X69461388Y-37841629D01*
X69393437Y-37831550D01*
X69326801Y-37814858D01*
X69262122Y-37791716D01*
X69200022Y-37762345D01*
X69141101Y-37727029D01*
X69085925Y-37686107D01*
X69035025Y-37639975D01*
X68994263Y-37595000D01*
X67525737Y-37595000D01*
X67484975Y-37639975D01*
X67434075Y-37686107D01*
X67378899Y-37727029D01*
X67319978Y-37762345D01*
X67257878Y-37791716D01*
X67193199Y-37814858D01*
X67126563Y-37831550D01*
X67058612Y-37841629D01*
X66990000Y-37845000D01*
X66921388Y-37841629D01*
X66853437Y-37831550D01*
X66786801Y-37814858D01*
X66722122Y-37791716D01*
X66660022Y-37762345D01*
X66601101Y-37727029D01*
X66545925Y-37686107D01*
X66495025Y-37639975D01*
X66448893Y-37589075D01*
X66407971Y-37533899D01*
X66372655Y-37474978D01*
X66343284Y-37412878D01*
X66320142Y-37348199D01*
X66303450Y-37281563D01*
X66293371Y-37213612D01*
X66290000Y-37145000D01*
X66293371Y-37076388D01*
X66303450Y-37008437D01*
X66320142Y-36941801D01*
X66343284Y-36877122D01*
X66372655Y-36815022D01*
X66407971Y-36756101D01*
X66448893Y-36700925D01*
X66495025Y-36650025D01*
X66545925Y-36603893D01*
X66601101Y-36562971D01*
X66660022Y-36527655D01*
X66722122Y-36498284D01*
X66786801Y-36475142D01*
X66853437Y-36458450D01*
X66921388Y-36448371D01*
X66990000Y-36445000D01*
X67058612Y-36448371D01*
X67126563Y-36458450D01*
X67193199Y-36475142D01*
X67257878Y-36498284D01*
X67319978Y-36527655D01*
X67319978Y-36527655D01*
G37*
%LPD*%
%LPC*%
G36*
X76575626Y-36447978D02*
X76700000Y-36323604D01*
X76700000Y-34605000D01*
X76702167Y-34560892D01*
X76708647Y-34517209D01*
X76719377Y-34474372D01*
X76734254Y-34432792D01*
X76753135Y-34392871D01*
X76775839Y-34354993D01*
X76802145Y-34319523D01*
X76831802Y-34286802D01*
X76864523Y-34257145D01*
X76899993Y-34230839D01*
X76937871Y-34208135D01*
X76977792Y-34189254D01*
X77019372Y-34174377D01*
X77062209Y-34163647D01*
X77105892Y-34157167D01*
X77150000Y-34155000D01*
X79690000Y-34155000D01*
X79734108Y-34157167D01*
X79777791Y-34163647D01*
X79820628Y-34174377D01*
X79862208Y-34189254D01*
X79902129Y-34208135D01*
X79940007Y-34230839D01*
X79975477Y-34257145D01*
X80008198Y-34286802D01*
X80643198Y-34921802D01*
X81278198Y-35556802D01*
X81781396Y-36060000D01*
X87310000Y-36060000D01*
X87354108Y-36062167D01*
X87397791Y-36068647D01*
X87440628Y-36079377D01*
X87482208Y-36094254D01*
X87522129Y-36113135D01*
X87560007Y-36135839D01*
X87595477Y-36162145D01*
X87628198Y-36191802D01*
X87657855Y-36224523D01*
X87684161Y-36259993D01*
X87706865Y-36297871D01*
X87725746Y-36337792D01*
X87740623Y-36379372D01*
X87751353Y-36422209D01*
X87757833Y-36465892D01*
X87760000Y-36510000D01*
X87760000Y-41054263D01*
X87804975Y-41095025D01*
X87851107Y-41145925D01*
X87892029Y-41201101D01*
X87927345Y-41260022D01*
X87956716Y-41322122D01*
X87979858Y-41386801D01*
X87996550Y-41453437D01*
X88006629Y-41521388D01*
X88010000Y-41590000D01*
X88006629Y-41658612D01*
X87996550Y-41726563D01*
X87979858Y-41793199D01*
X87956716Y-41857878D01*
X87927345Y-41919978D01*
X87892029Y-41978899D01*
X87851107Y-42034075D01*
X87804975Y-42084975D01*
X87754075Y-42131107D01*
X87698899Y-42172029D01*
X87639978Y-42207345D01*
X87577878Y-42236716D01*
X87513199Y-42259858D01*
X87446563Y-42276550D01*
X87378612Y-42286629D01*
X87310000Y-42290000D01*
X87241388Y-42286629D01*
X87173437Y-42276550D01*
X87106801Y-42259858D01*
X87042122Y-42236716D01*
X86980022Y-42207345D01*
X86921101Y-42172029D01*
X86865925Y-42131107D01*
X86815025Y-42084975D01*
X86768893Y-42034075D01*
X86727971Y-41978899D01*
X86692655Y-41919978D01*
X86663284Y-41857878D01*
X86640142Y-41793199D01*
X86623450Y-41726563D01*
X86613371Y-41658612D01*
X86610000Y-41590000D01*
X86613371Y-41521388D01*
X86623450Y-41453437D01*
X86640142Y-41386801D01*
X86663284Y-41322122D01*
X86692655Y-41260022D01*
X86727971Y-41201101D01*
X86768893Y-41145925D01*
X86815025Y-41095025D01*
X86860000Y-41054263D01*
X86860000Y-36960000D01*
X81595000Y-36960000D01*
X81550892Y-36957833D01*
X81507209Y-36951353D01*
X81464372Y-36940623D01*
X81422792Y-36925746D01*
X81382871Y-36906865D01*
X81344993Y-36884161D01*
X81309523Y-36857855D01*
X81276802Y-36828198D01*
X80641802Y-36193198D01*
X80006802Y-35558198D01*
X79503604Y-35055000D01*
X77600000Y-35055000D01*
X77600000Y-36510000D01*
X77597833Y-36554108D01*
X77591353Y-36597791D01*
X77580623Y-36640628D01*
X77565746Y-36682208D01*
X77546865Y-36722129D01*
X77524161Y-36760007D01*
X77497855Y-36795477D01*
X77468198Y-36828198D01*
X77212022Y-37084374D01*
X77215000Y-37145000D01*
X77211629Y-37213612D01*
X77201550Y-37281563D01*
X77184858Y-37348199D01*
X77161716Y-37412878D01*
X77132345Y-37474978D01*
X77097029Y-37533899D01*
X77056107Y-37589075D01*
X77009975Y-37639975D01*
X76959075Y-37686107D01*
X76903899Y-37727029D01*
X76844978Y-37762345D01*
X76782878Y-37791716D01*
X76718199Y-37814858D01*
X76651563Y-37831550D01*
X76583612Y-37841629D01*
X76515000Y-37845000D01*
X76446388Y-37841629D01*
X76378437Y-37831550D01*
X76311801Y-37814858D01*
X76247122Y-37791716D01*
X76185022Y-37762345D01*
X76126101Y-37727029D01*
X76070925Y-37686107D01*
X76020025Y-37639975D01*
X75973893Y-37589075D01*
X75932971Y-37533899D01*
X75897655Y-37474978D01*
X75868284Y-37412878D01*
X75845142Y-37348199D01*
X75828450Y-37281563D01*
X75818371Y-37213612D01*
X75815000Y-37145000D01*
X75818371Y-37076388D01*
X75828450Y-37008437D01*
X75845142Y-36941801D01*
X75868284Y-36877122D01*
X75897655Y-36815022D01*
X75932971Y-36756101D01*
X75973893Y-36700925D01*
X76020025Y-36650025D01*
X76070925Y-36603893D01*
X76126101Y-36562971D01*
X76185022Y-36527655D01*
X76247122Y-36498284D01*
X76311801Y-36475142D01*
X76378437Y-36458450D01*
X76446388Y-36448371D01*
X76515000Y-36445000D01*
X76575626Y-36447978D01*
X76575626Y-36447978D01*
G37*
%LPD*%
%LPC*%
G36*
X63162345Y-47610022D02*
X63191716Y-47672122D01*
X63214858Y-47736801D01*
X63231550Y-47803437D01*
X63241629Y-47871388D01*
X63245000Y-47940000D01*
X63242022Y-48000626D01*
X63498198Y-48256802D01*
X64001396Y-48760000D01*
X64450000Y-48760000D01*
X64494108Y-48762167D01*
X64537791Y-48768647D01*
X64580628Y-48779377D01*
X64622208Y-48794254D01*
X64662129Y-48813135D01*
X64700007Y-48835839D01*
X64735477Y-48862145D01*
X64768198Y-48891802D01*
X64797855Y-48924523D01*
X64824161Y-48959993D01*
X64846865Y-48997871D01*
X64865746Y-49037792D01*
X64880623Y-49079372D01*
X64891353Y-49122209D01*
X64897833Y-49165892D01*
X64900000Y-49210000D01*
X64900000Y-49695786D01*
X65000847Y-49831133D01*
X65013514Y-49850000D01*
X66690000Y-49850000D01*
X66690000Y-52150000D01*
X64390000Y-52150000D01*
X64390000Y-50473516D01*
X64372739Y-50462038D01*
X64338540Y-50434098D01*
X64307244Y-50402941D01*
X64279153Y-50368867D01*
X64150000Y-50195530D01*
X64150000Y-52150000D01*
X61850000Y-52150000D01*
X61850000Y-49850000D01*
X64000229Y-49850000D01*
X64000000Y-49845000D01*
X64000000Y-49660000D01*
X63815000Y-49660000D01*
X63770892Y-49657833D01*
X63727209Y-49651353D01*
X63684372Y-49640623D01*
X63642792Y-49625746D01*
X63602871Y-49606865D01*
X63564993Y-49584161D01*
X63529523Y-49557855D01*
X63496802Y-49528198D01*
X62861802Y-48893198D01*
X62605626Y-48637022D01*
X62545000Y-48640000D01*
X62476388Y-48636629D01*
X62408437Y-48626550D01*
X62341801Y-48609858D01*
X62277122Y-48586716D01*
X62215022Y-48557345D01*
X62156101Y-48522029D01*
X62100925Y-48481107D01*
X62050025Y-48434975D01*
X62003893Y-48384075D01*
X61962971Y-48328899D01*
X61927655Y-48269978D01*
X61898284Y-48207878D01*
X61875142Y-48143199D01*
X61858450Y-48076563D01*
X61848371Y-48008612D01*
X61845000Y-47940000D01*
X61848371Y-47871388D01*
X61858450Y-47803437D01*
X61875142Y-47736801D01*
X61898284Y-47672122D01*
X61927655Y-47610022D01*
X61962971Y-47551101D01*
X62003893Y-47495925D01*
X62050025Y-47445025D01*
X62100925Y-47398893D01*
X62156101Y-47357971D01*
X62215022Y-47322655D01*
X62277122Y-47293284D01*
X62341801Y-47270142D01*
X62408437Y-47253450D01*
X62476388Y-47243371D01*
X62545000Y-47240000D01*
X62613612Y-47243371D01*
X62681563Y-47253450D01*
X62748199Y-47270142D01*
X62812878Y-47293284D01*
X62874978Y-47322655D01*
X62933899Y-47357971D01*
X62989075Y-47398893D01*
X63039975Y-47445025D01*
X63086107Y-47495925D01*
X63127029Y-47551101D01*
X63162345Y-47610022D01*
X63162345Y-47610022D01*
G37*
%LPD*%
%LPC*%
G36*
X59310000Y-49850000D02*
X61610000Y-49850000D01*
X61610000Y-52150000D01*
X59310000Y-52150000D01*
X59310000Y-49850000D01*
X59310000Y-49850000D01*
G37*
%LPD*%
%LPC*%
G36*
X67607345Y-60310022D02*
X67636716Y-60372122D01*
X67659858Y-60436801D01*
X67676550Y-60503437D01*
X67686629Y-60571388D01*
X67690000Y-60640000D01*
X67686629Y-60708612D01*
X67676550Y-60776563D01*
X67659858Y-60843199D01*
X67636716Y-60907878D01*
X67607345Y-60969978D01*
X67572029Y-61028899D01*
X67531107Y-61084075D01*
X67484975Y-61134975D01*
X67440000Y-61175737D01*
X67440000Y-61275000D01*
X67437833Y-61319108D01*
X67431353Y-61362791D01*
X67420623Y-61405628D01*
X67405746Y-61447208D01*
X67386865Y-61487129D01*
X67364161Y-61525007D01*
X67337855Y-61560477D01*
X67308198Y-61593198D01*
X66673198Y-62228198D01*
X66038198Y-62863198D01*
X65410000Y-63491396D01*
X65410000Y-65100000D01*
X63210000Y-65100000D01*
X63210000Y-62900000D01*
X64733083Y-62900000D01*
X64737145Y-62894523D01*
X64766802Y-62861802D01*
X65401802Y-62226802D01*
X66036802Y-61591802D01*
X66494361Y-61134242D01*
X66448893Y-61084075D01*
X66407971Y-61028899D01*
X66372655Y-60969978D01*
X66343284Y-60907878D01*
X66320142Y-60843199D01*
X66303450Y-60776563D01*
X66293371Y-60708612D01*
X66290000Y-60640000D01*
X66293371Y-60571388D01*
X66303450Y-60503437D01*
X66320142Y-60436801D01*
X66343284Y-60372122D01*
X66372655Y-60310022D01*
X66407971Y-60251101D01*
X66448893Y-60195925D01*
X66495025Y-60145025D01*
X66545925Y-60098893D01*
X66601101Y-60057971D01*
X66660022Y-60022655D01*
X66722122Y-59993284D01*
X66786801Y-59970142D01*
X66853437Y-59953450D01*
X66921388Y-59943371D01*
X66990000Y-59940000D01*
X67058612Y-59943371D01*
X67126563Y-59953450D01*
X67193199Y-59970142D01*
X67257878Y-59993284D01*
X67319978Y-60022655D01*
X67378899Y-60057971D01*
X67434075Y-60098893D01*
X67484975Y-60145025D01*
X67531107Y-60195925D01*
X67572029Y-60251101D01*
X67607345Y-60310022D01*
X67607345Y-60310022D01*
G37*
%LPD*%
%LPC*%
G36*
X97650000Y-24850000D02*
X97650000Y-27150000D01*
X95350000Y-27150000D01*
X95350000Y-24850000D01*
X97650000Y-24850000D01*
X97650000Y-24850000D01*
G37*
%LPD*%
%LPC*%
G36*
X83482345Y-39990022D02*
X83511716Y-40052122D01*
X83534858Y-40116801D01*
X83551550Y-40183437D01*
X83561629Y-40251388D01*
X83565000Y-40320000D01*
X83562022Y-40380626D01*
X83818198Y-40636802D01*
X84453198Y-41271802D01*
X85088198Y-41906802D01*
X85591396Y-42410000D01*
X89663604Y-42410000D01*
X90166802Y-41906802D01*
X90199523Y-41877145D01*
X90234993Y-41850839D01*
X90272871Y-41828135D01*
X90312792Y-41809254D01*
X90354372Y-41794377D01*
X90397209Y-41783647D01*
X90440892Y-41777167D01*
X90485000Y-41775000D01*
X90584263Y-41775000D01*
X90625025Y-41730025D01*
X90675925Y-41683893D01*
X90731101Y-41642971D01*
X90790022Y-41607655D01*
X90852122Y-41578284D01*
X90916801Y-41555142D01*
X90983437Y-41538450D01*
X91051388Y-41528371D01*
X91120000Y-41525000D01*
X91188612Y-41528371D01*
X91256563Y-41538450D01*
X91323199Y-41555142D01*
X91387878Y-41578284D01*
X91449978Y-41607655D01*
X91508899Y-41642971D01*
X91564075Y-41683893D01*
X91614975Y-41730025D01*
X91661107Y-41780925D01*
X91702029Y-41836101D01*
X91737345Y-41895022D01*
X91766716Y-41957122D01*
X91789858Y-42021801D01*
X91806550Y-42088437D01*
X91816629Y-42156388D01*
X91820000Y-42225000D01*
X91816629Y-42293612D01*
X91806550Y-42361563D01*
X91789858Y-42428199D01*
X91766716Y-42492878D01*
X91737345Y-42554978D01*
X91702029Y-42613899D01*
X91661107Y-42669075D01*
X91614975Y-42719975D01*
X91564075Y-42766107D01*
X91508899Y-42807029D01*
X91449978Y-42842345D01*
X91387878Y-42871716D01*
X91323199Y-42894858D01*
X91256563Y-42911550D01*
X91188612Y-42921629D01*
X91120000Y-42925000D01*
X91051388Y-42921629D01*
X90983437Y-42911550D01*
X90916801Y-42894858D01*
X90852122Y-42871716D01*
X90790022Y-42842345D01*
X90731101Y-42807029D01*
X90675925Y-42766107D01*
X90625758Y-42720639D01*
X90168198Y-43178198D01*
X90135477Y-43207855D01*
X90100007Y-43234161D01*
X90062129Y-43256865D01*
X90022208Y-43275746D01*
X89980628Y-43290623D01*
X89937791Y-43301353D01*
X89894108Y-43307833D01*
X89850000Y-43310000D01*
X85444417Y-43310000D01*
X85456550Y-43358437D01*
X85466629Y-43426388D01*
X85470000Y-43495000D01*
X85466629Y-43563612D01*
X85456550Y-43631563D01*
X85439858Y-43698199D01*
X85416716Y-43762878D01*
X85387345Y-43824978D01*
X85352029Y-43883899D01*
X85311107Y-43939075D01*
X85264975Y-43989975D01*
X85214075Y-44036107D01*
X85158899Y-44077029D01*
X85099978Y-44112345D01*
X85037878Y-44141716D01*
X84973199Y-44164858D01*
X84906563Y-44181550D01*
X84838612Y-44191629D01*
X84770000Y-44195000D01*
X84701388Y-44191629D01*
X84633437Y-44181550D01*
X84566801Y-44164858D01*
X84502122Y-44141716D01*
X84440022Y-44112345D01*
X84381101Y-44077029D01*
X84325925Y-44036107D01*
X84275025Y-43989975D01*
X84234263Y-43945000D01*
X83686396Y-43945000D01*
X83183198Y-44448198D01*
X82548198Y-45083198D01*
X82515477Y-45112855D01*
X82480007Y-45139161D01*
X82442129Y-45161865D01*
X82402208Y-45180746D01*
X82360628Y-45195623D01*
X82317791Y-45206353D01*
X82274108Y-45212833D01*
X82230000Y-45215000D01*
X80860737Y-45215000D01*
X80819975Y-45259975D01*
X80769075Y-45306107D01*
X80713899Y-45347029D01*
X80654978Y-45382345D01*
X80592878Y-45411716D01*
X80528199Y-45434858D01*
X80461563Y-45451550D01*
X80393612Y-45461629D01*
X80325000Y-45465000D01*
X80256388Y-45461629D01*
X80188437Y-45451550D01*
X80121801Y-45434858D01*
X80057122Y-45411716D01*
X79995022Y-45382345D01*
X79936101Y-45347029D01*
X79880925Y-45306107D01*
X79830025Y-45259975D01*
X79783893Y-45209075D01*
X79742971Y-45153899D01*
X79707655Y-45094978D01*
X79678284Y-45032878D01*
X79655142Y-44968199D01*
X79638450Y-44901563D01*
X79628371Y-44833612D01*
X79625000Y-44765000D01*
X79628371Y-44696388D01*
X79638450Y-44628437D01*
X79655142Y-44561801D01*
X79678284Y-44497122D01*
X79707655Y-44435022D01*
X79742971Y-44376101D01*
X79783893Y-44320925D01*
X79830025Y-44270025D01*
X79880925Y-44223893D01*
X79936101Y-44182971D01*
X79995022Y-44147655D01*
X80057122Y-44118284D01*
X80121801Y-44095142D01*
X80188437Y-44078450D01*
X80256388Y-44068371D01*
X80325000Y-44065000D01*
X80393612Y-44068371D01*
X80461563Y-44078450D01*
X80528199Y-44095142D01*
X80592878Y-44118284D01*
X80654978Y-44147655D01*
X80713899Y-44182971D01*
X80769075Y-44223893D01*
X80819975Y-44270025D01*
X80860737Y-44315000D01*
X82043604Y-44315000D01*
X82546802Y-43811802D01*
X83181802Y-43176802D01*
X83214523Y-43147145D01*
X83249993Y-43120839D01*
X83287871Y-43098135D01*
X83327792Y-43079254D01*
X83369372Y-43064377D01*
X83412209Y-43053647D01*
X83455892Y-43047167D01*
X83500000Y-43045000D01*
X84234263Y-43045000D01*
X84275025Y-43000025D01*
X84325925Y-42953893D01*
X84381101Y-42912971D01*
X84440022Y-42877655D01*
X84502122Y-42848284D01*
X84566801Y-42825142D01*
X84633437Y-42808450D01*
X84701388Y-42798371D01*
X84706713Y-42798109D01*
X84451802Y-42543198D01*
X83816802Y-41908198D01*
X83181802Y-41273198D01*
X82925626Y-41017022D01*
X82865000Y-41020000D01*
X82796388Y-41016629D01*
X82728437Y-41006550D01*
X82661801Y-40989858D01*
X82597122Y-40966716D01*
X82535022Y-40937345D01*
X82476101Y-40902029D01*
X82420925Y-40861107D01*
X82370025Y-40814975D01*
X82323893Y-40764075D01*
X82282971Y-40708899D01*
X82247655Y-40649978D01*
X82218284Y-40587878D01*
X82195142Y-40523199D01*
X82178450Y-40456563D01*
X82168371Y-40388612D01*
X82165000Y-40320000D01*
X82168371Y-40251388D01*
X82178450Y-40183437D01*
X82195142Y-40116801D01*
X82218284Y-40052122D01*
X82247655Y-39990022D01*
X82282971Y-39931101D01*
X82323893Y-39875925D01*
X82370025Y-39825025D01*
X82420925Y-39778893D01*
X82476101Y-39737971D01*
X82535022Y-39702655D01*
X82597122Y-39673284D01*
X82661801Y-39650142D01*
X82728437Y-39633450D01*
X82796388Y-39623371D01*
X82865000Y-39620000D01*
X82933612Y-39623371D01*
X83001563Y-39633450D01*
X83068199Y-39650142D01*
X83132878Y-39673284D01*
X83194978Y-39702655D01*
X83253899Y-39737971D01*
X83309075Y-39778893D01*
X83359975Y-39825025D01*
X83406107Y-39875925D01*
X83447029Y-39931101D01*
X83482345Y-39990022D01*
X83482345Y-39990022D01*
G37*
%LPD*%
%LPC*%
G36*
X98150000Y-52850000D02*
X98150000Y-55150000D01*
X95850000Y-55150000D01*
X95850000Y-52850000D01*
X98150000Y-52850000D01*
X98150000Y-52850000D01*
G37*
%LPD*%
%LPC*%
G36*
X92372345Y-60945022D02*
X92401716Y-61007122D01*
X92424858Y-61071801D01*
X92441550Y-61138437D01*
X92449439Y-61191621D01*
X92778909Y-61521091D01*
X93413909Y-62156091D01*
X94048909Y-62791091D01*
X94683909Y-63426091D01*
X95318909Y-64061091D01*
X95355156Y-64101084D01*
X95387308Y-64144436D01*
X95415057Y-64190732D01*
X95438134Y-64239524D01*
X95456317Y-64290343D01*
X95469432Y-64342700D01*
X95477352Y-64396091D01*
X95480000Y-64450000D01*
X95480000Y-66390000D01*
X97650000Y-66390000D01*
X97650000Y-68690000D01*
X95350000Y-68690000D01*
X95350000Y-67540000D01*
X94930000Y-67540000D01*
X94876091Y-67537352D01*
X94822700Y-67529432D01*
X94770343Y-67516317D01*
X94719524Y-67498134D01*
X94670732Y-67475057D01*
X94624436Y-67447308D01*
X94581084Y-67415156D01*
X94541091Y-67378909D01*
X94504844Y-67338916D01*
X94472692Y-67295564D01*
X94444943Y-67249268D01*
X94421866Y-67200476D01*
X94403683Y-67149657D01*
X94390568Y-67097300D01*
X94382648Y-67043909D01*
X94380000Y-66990000D01*
X94380000Y-64677817D01*
X93906091Y-64203909D01*
X93271091Y-63568909D01*
X92636091Y-62933909D01*
X92001091Y-62298909D01*
X91671621Y-61969439D01*
X91618437Y-61961550D01*
X91551801Y-61944858D01*
X91487122Y-61921716D01*
X91425022Y-61892345D01*
X91366101Y-61857029D01*
X91310925Y-61816107D01*
X91260025Y-61769975D01*
X91213893Y-61719075D01*
X91172971Y-61663899D01*
X91137655Y-61604978D01*
X91108284Y-61542878D01*
X91085142Y-61478199D01*
X91068450Y-61411563D01*
X91058371Y-61343612D01*
X91055000Y-61275000D01*
X91058371Y-61206388D01*
X91068450Y-61138437D01*
X91085142Y-61071801D01*
X91108284Y-61007122D01*
X91137655Y-60945022D01*
X91172971Y-60886101D01*
X91213893Y-60830925D01*
X91260025Y-60780025D01*
X91310925Y-60733893D01*
X91366101Y-60692971D01*
X91425022Y-60657655D01*
X91487122Y-60628284D01*
X91551801Y-60605142D01*
X91618437Y-60588450D01*
X91686388Y-60578371D01*
X91755000Y-60575000D01*
X91823612Y-60578371D01*
X91891563Y-60588450D01*
X91958199Y-60605142D01*
X92022878Y-60628284D01*
X92084978Y-60657655D01*
X92143899Y-60692971D01*
X92199075Y-60733893D01*
X92249975Y-60780025D01*
X92296107Y-60830925D01*
X92337029Y-60886101D01*
X92372345Y-60945022D01*
X92372345Y-60945022D01*
G37*
%LPD*%
D10*
X35240000Y-49845000D02*
X35240000Y-48575000D01*
X35240000Y-48575000D02*
X35875000Y-47940000D01*
X35875000Y-47940000D02*
X35875000Y-47305000D01*
X46035000Y-55560000D02*
X45400000Y-56195000D01*
X45400000Y-56195000D02*
X45400000Y-59370000D01*
X54290000Y-33335000D02*
X54290000Y-32700000D01*
X54290000Y-32700000D02*
X53655000Y-32065000D01*
X53655000Y-32065000D02*
X53020000Y-31430000D01*
D11*
X96500000Y-67540000D02*
X96200000Y-66990000D01*
X96200000Y-66990000D02*
X94930000Y-66990000D01*
X94930000Y-66990000D02*
X94930000Y-64450000D01*
X94930000Y-64450000D02*
X94295000Y-63815000D01*
X94295000Y-63815000D02*
X93660000Y-63180000D01*
X93660000Y-63180000D02*
X93025000Y-62545000D01*
X93025000Y-62545000D02*
X92390000Y-61910000D01*
X92390000Y-61910000D02*
X91755000Y-61275000D01*
X37780000Y-43495000D02*
X49210000Y-43495000D01*
X49210000Y-43495000D02*
X49845000Y-44130000D01*
X49845000Y-44130000D02*
X50480000Y-44765000D01*
X50480000Y-44765000D02*
X51115000Y-45400000D01*
X51115000Y-45400000D02*
X51750000Y-46035000D01*
X51750000Y-46035000D02*
X52385000Y-46670000D01*
X52385000Y-46670000D02*
X53020000Y-47305000D01*
X53020000Y-47305000D02*
X53655000Y-47940000D01*
X53655000Y-47940000D02*
X54290000Y-48575000D01*
X54290000Y-48575000D02*
X54925000Y-49210000D01*
X54925000Y-49210000D02*
X55560000Y-49845000D01*
X55560000Y-49845000D02*
X56195000Y-50480000D01*
X56195000Y-50480000D02*
X56830000Y-51115000D01*
X56830000Y-51115000D02*
X57465000Y-51750000D01*
X57465000Y-51750000D02*
X58100000Y-52385000D01*
X58100000Y-52385000D02*
X58735000Y-53020000D01*
X58735000Y-53020000D02*
X61910000Y-53020000D01*
X61910000Y-53020000D02*
X62545000Y-53655000D01*
X62545000Y-53655000D02*
X64450000Y-55560000D01*
X64450000Y-55560000D02*
X65085000Y-56195000D01*
X33335000Y-42860000D02*
X35875000Y-42860000D01*
X44130000Y-21905000D02*
X44765000Y-21905000D01*
X44765000Y-21905000D02*
X45400000Y-22540000D01*
X45400000Y-22540000D02*
X46035000Y-23175000D01*
X46035000Y-23175000D02*
X47305000Y-23175000D01*
X79690000Y-42225000D02*
X79055000Y-41590000D01*
X79055000Y-41590000D02*
X78420000Y-40955000D01*
X78420000Y-40955000D02*
X78420000Y-35875000D01*
X86040000Y-37780000D02*
X82230000Y-37780000D01*
X82230000Y-37780000D02*
X80960000Y-39050000D01*
X80960000Y-39050000D02*
X78670000Y-39050000D01*
X79055000Y-52385000D02*
X79055000Y-42225000D01*
X79055000Y-42225000D02*
X79196000Y-42084000D01*
D10*
X76515000Y-37145000D02*
X77150000Y-36510000D01*
X77150000Y-36510000D02*
X77150000Y-34605000D01*
X77150000Y-34605000D02*
X79690000Y-34605000D01*
X79690000Y-34605000D02*
X80325000Y-35240000D01*
X80325000Y-35240000D02*
X80960000Y-35875000D01*
X80960000Y-35875000D02*
X81595000Y-36510000D01*
X81595000Y-36510000D02*
X87310000Y-36510000D01*
X87310000Y-36510000D02*
X87310000Y-41590000D01*
X91120000Y-42225000D02*
X90485000Y-42225000D01*
X90485000Y-42225000D02*
X89850000Y-42860000D01*
X89850000Y-42860000D02*
X85405000Y-42860000D01*
X85405000Y-42860000D02*
X84770000Y-42225000D01*
X84770000Y-42225000D02*
X84135000Y-41590000D01*
X84135000Y-41590000D02*
X83500000Y-40955000D01*
X83500000Y-40955000D02*
X82865000Y-40320000D01*
X62545000Y-47940000D02*
X63180000Y-48575000D01*
X63180000Y-48575000D02*
X63815000Y-49210000D01*
X63815000Y-49210000D02*
X64450000Y-49210000D01*
X64450000Y-49210000D02*
X64450000Y-49845000D01*
X64450000Y-49845000D02*
X64640000Y-50100000D01*
X66990000Y-37145000D02*
X69530000Y-37145000D01*
X72705000Y-35240000D02*
X72705000Y-32700000D01*
X72705000Y-32700000D02*
X73340000Y-32065000D01*
X73340000Y-32065000D02*
X73340000Y-30795000D01*
X78420000Y-30795000D02*
X77150000Y-30795000D01*
X77150000Y-30795000D02*
X76515000Y-31430000D01*
X76515000Y-31430000D02*
X73975000Y-31430000D01*
X73975000Y-31430000D02*
X73975000Y-32065000D01*
X73975000Y-32065000D02*
X73340000Y-32700000D01*
X73340000Y-32700000D02*
X73129000Y-32489000D01*
X87945000Y-55560000D02*
X87310000Y-54925000D01*
X87310000Y-54925000D02*
X86675000Y-54290000D01*
X86675000Y-54290000D02*
X86040000Y-53655000D01*
X86040000Y-53655000D02*
X77785000Y-53655000D01*
X77785000Y-53655000D02*
X77785000Y-42225000D01*
X77785000Y-42225000D02*
X77150000Y-41590000D01*
X77150000Y-41590000D02*
X76515000Y-40955000D01*
X76515000Y-40955000D02*
X75880000Y-40320000D01*
X75880000Y-40320000D02*
X75880000Y-39050000D01*
X75880000Y-39050000D02*
X75245000Y-38415000D01*
X75245000Y-38415000D02*
X75245000Y-35240000D01*
X75245000Y-35240000D02*
X75880000Y-34605000D01*
X75880000Y-34605000D02*
X75880000Y-33970000D01*
X75880000Y-33970000D02*
X77150000Y-32700000D01*
X77150000Y-32700000D02*
X77785000Y-32065000D01*
X77785000Y-32065000D02*
X78420000Y-31430000D01*
X78420000Y-31430000D02*
X78420000Y-31195000D01*
X56690000Y-64000000D02*
X56195000Y-64450000D01*
X56195000Y-64450000D02*
X56195000Y-68600000D01*
X66990000Y-60640000D02*
X66990000Y-61275000D01*
X66990000Y-61275000D02*
X66355000Y-61910000D01*
X66355000Y-61910000D02*
X65720000Y-62545000D01*
X65720000Y-62545000D02*
X65085000Y-63180000D01*
X80325000Y-44765000D02*
X82230000Y-44765000D01*
X82230000Y-44765000D02*
X82865000Y-44130000D01*
X82865000Y-44130000D02*
X83500000Y-43495000D01*
X83500000Y-43495000D02*
X84770000Y-43495000D01*
D12*
X28874000Y-31900000D03*
X35874000Y-31900000D03*
X44076000Y-32300000D03*
X55374000Y-31900000D03*
X62874000Y-31900000D03*
X46750000Y-21500000D03*
X70625000Y-30635000D03*
X75101000Y-32555000D03*
X73576000Y-24650000D03*
X67150000Y-34424000D03*
X85426000Y-29100000D03*
X80574000Y-25900000D03*
X85076000Y-22650000D03*
X80399000Y-37445000D03*
X76400000Y-43050000D03*
X91076000Y-35650000D03*
X77200000Y-39050000D03*
X93626000Y-47600000D03*
X58076000Y-46650000D03*
X75000000Y-53600000D03*
X81250000Y-45724000D03*
X34500000Y-47100000D03*
X22874000Y-39400000D03*
X41126000Y-42388000D03*
X43350000Y-41912000D03*
X26076000Y-58650000D03*
X26076000Y-61650000D03*
X26076000Y-64650000D03*
X45651000Y-62555000D03*
X39874000Y-54900000D03*
X40374000Y-62900000D03*
X46576000Y-68650000D03*
X48076000Y-72150000D03*
X67000000Y-63600000D03*
X63576000Y-58150000D03*
X35962000Y-38300000D03*
X94376000Y-61450000D03*
X86000000Y-70650000D03*
X85350000Y-61224000D03*
X82076000Y-62150000D03*
X90076000Y-54450000D03*
X89600000Y-47374000D03*
X35240000Y-49845000D03*
X35875000Y-47305000D03*
X46035000Y-55560000D03*
X45400000Y-59370000D03*
X54290000Y-33335000D03*
X53020000Y-31430000D03*
X91755000Y-61275000D03*
X37780000Y-43495000D03*
X65085000Y-56195000D03*
X33335000Y-42860000D03*
X35875000Y-42860000D03*
X44130000Y-21905000D03*
X47305000Y-23175000D03*
X79690000Y-42225000D03*
X78420000Y-35875000D03*
X86040000Y-37780000D03*
X79055000Y-52385000D03*
X76515000Y-37145000D03*
X87310000Y-41590000D03*
X91120000Y-42225000D03*
X82865000Y-40320000D03*
X62545000Y-47940000D03*
X66990000Y-37145000D03*
X69530000Y-37145000D03*
X72705000Y-35240000D03*
X73340000Y-30795000D03*
X78420000Y-30795000D03*
X87945000Y-55560000D03*
X66990000Y-60640000D03*
X80325000Y-44765000D03*
X84770000Y-43495000D03*
D13*
X24000000Y-29000000D03*
D14*
X24000000Y-31540000D03*
D13*
X96500000Y-26000000D03*
D14*
X96500000Y-28540000D03*
D13*
X60460000Y-51000000D03*
D14*
X63000000Y-51000000D03*
X65540000Y-51000000D03*
D13*
X50460000Y-69500000D03*
D14*
X53000000Y-69500000D03*
X55540000Y-69500000D03*
D15*
X56690000Y-64000000D03*
D16*
X64310000Y-64000000D03*
D13*
X96500000Y-65000000D03*
D14*
X96500000Y-67540000D03*
D13*
X97000000Y-54000000D03*
D14*
X97000000Y-56540000D03*
M02*
