M48
METRIC,TZ
T1C0.400
T2C0.800
T3C0.900
T4C1.000
%
G90
G05
T1
X28.874Y-31.900
X35.874Y-31.900
X44.076Y-32.300
X55.374Y-31.900
X62.874Y-31.900
X46.750Y-21.500
X70.625Y-30.635
X75.101Y-32.555
X73.576Y-24.650
X67.150Y-34.424
X85.426Y-29.100
X80.574Y-25.900
X85.076Y-22.650
X80.399Y-37.445
X76.400Y-43.050
X91.076Y-35.650
X77.200Y-39.050
X93.626Y-47.600
X58.076Y-46.650
X75.000Y-53.600
X81.250Y-45.724
X34.500Y-47.100
X22.874Y-39.400
X41.126Y-42.388
X43.350Y-41.912
X26.076Y-58.650
X26.076Y-61.650
X26.076Y-64.650
X45.651Y-62.555
X39.874Y-54.900
X40.374Y-62.900
X46.576Y-68.650
X48.076Y-72.150
X67.000Y-63.600
X63.576Y-58.150
X35.962Y-38.300
X94.376Y-61.450
X86.000Y-70.650
X85.350Y-61.224
X82.076Y-62.150
X35.240Y-49.845
X35.875Y-47.305
X46.035Y-55.560
X45.400Y-59.370
X54.290Y-33.335
X53.020Y-31.430
X91.755Y-61.275
X37.780Y-43.495
X65.085Y-56.195
X33.335Y-42.860
X35.875Y-42.860
X44.130Y-21.905
X47.305Y-23.175
X79.690Y-42.225
X78.420Y-35.875
X84.770Y-37.780
X79.055Y-52.385
X66.990Y-37.145
X69.530Y-37.145
X78.420Y-29.525
X75.880Y-30.160
X82.230Y-39.050
X74.610Y-29.525
X66.990Y-60.640
X82.230Y-43.495
X85.405Y-40.955
X77.785Y-41.590
X85.405Y-42.225
X92.390Y-40.955
X82.230Y-40.320
T2
X56.690Y-64.000
X64.310Y-64.000
T3
X60.460Y-51.000
X63.000Y-51.000
X65.540Y-51.000
X50.460Y-69.500
X53.000Y-69.500
X55.540Y-69.500
T4
X24.000Y-29.000
X24.000Y-31.540
X96.500Y-26.000
X96.500Y-28.540
X96.500Y-65.000
X96.500Y-67.540
M30
