M48
METRIC,TZ
T1C0.400
T2C0.800
T3C0.900
T4C1.000
T5C3.200
%
G90
G05
T1
X104.400Y-125.390
X110.350Y-125.390
X104.400Y-179.390
X111.850Y-179.390
X43.350Y-37.150
X42.700Y-27.724
X42.426Y-40.650
X47.950Y-41.126
X56.129Y-22.400
X67.255Y-29.600
X73.881Y-24.887
X77.881Y-24.887
X70.629Y-35.400
X73.629Y-35.400
X76.629Y-35.400
X90.890Y-30.600
X94.764Y-26.400
X90.890Y-40.600
X94.764Y-36.400
X84.129Y-28.900
X84.129Y-33.900
X106.120Y-32.960
X105.646Y-36.150
X103.394Y-36.120
X108.344Y-31.040
X107.870Y-34.230
X110.596Y-37.420
X108.344Y-37.390
X107.310Y-43.600
X115.645Y-32.960
X115.171Y-36.150
X112.919Y-36.120
X117.869Y-31.040
X120.595Y-34.230
X120.595Y-36.770
X114.930Y-43.600
X108.280Y-47.424
X109.520Y-47.424
X32.626Y-72.490
X33.126Y-75.277
X40.779Y-72.790
X48.981Y-73.190
X60.279Y-72.790
X51.005Y-61.264
X72.410Y-73.440
X77.435Y-71.525
X81.911Y-73.445
X80.386Y-65.540
X73.960Y-75.314
X70.165Y-68.140
X101.426Y-70.340
X101.426Y-64.540
X31.651Y-96.445
X25.874Y-88.790
X26.374Y-96.790
X32.576Y-102.540
X34.076Y-106.040
X44.374Y-89.790
X47.874Y-89.790
X64.886Y-91.040
X100.951Y-96.445
X89.750Y-96.940
X104.426Y-89.540
X90.550Y-92.940
X106.976Y-101.490
X32.626Y-126.490
X31.350Y-128.802
X40.779Y-126.790
X48.981Y-127.190
X60.279Y-126.790
X51.005Y-115.264
X72.410Y-127.440
X77.435Y-125.525
X81.911Y-127.445
X80.386Y-119.540
X73.960Y-129.314
X70.165Y-122.140
X101.426Y-124.340
X100.950Y-116.764
X31.651Y-150.445
X25.874Y-142.790
X26.374Y-150.790
X32.576Y-156.540
X34.076Y-160.040
X44.374Y-143.790
X47.874Y-143.790
X64.886Y-145.040
X100.951Y-150.445
X89.750Y-150.940
X104.426Y-143.540
X90.550Y-146.940
X106.976Y-155.490
X32.626Y-180.490
X31.350Y-182.802
X40.779Y-180.790
X48.981Y-181.190
X60.279Y-180.790
X51.005Y-169.264
X72.410Y-181.440
X77.435Y-179.525
X81.911Y-181.445
X80.386Y-173.540
X73.960Y-183.314
X70.165Y-176.140
X101.426Y-178.340
X100.950Y-170.764
X31.651Y-204.445
X25.874Y-196.790
X26.374Y-204.790
X32.576Y-210.540
X34.076Y-214.040
X44.374Y-197.790
X47.874Y-197.790
X64.886Y-199.040
X100.951Y-204.445
X89.750Y-204.940
X104.426Y-197.540
X90.550Y-200.940
X106.976Y-209.490
X108.350Y-232.990
X110.426Y-226.040
X106.995Y-222.565
X103.185Y-178.750
X116.520Y-41.590
X110.805Y-39.050
X108.900Y-41.590
X107.630Y-39.050
X113.980Y-39.050
X71.435Y-28.255
X67.625Y-24.445
X84.770Y-25.715
X66.355Y-35.875
X46.670Y-60.005
X68.260Y-32.700
X68.260Y-30.160
X65.085Y-35.875
X34.605Y-94.295
X34.605Y-89.850
X34.605Y-148.270
X34.605Y-143.825
X37.145Y-123.505
X37.145Y-177.480
X44.765Y-73.975
X42.225Y-75.245
X88.580Y-64.450
X76.515Y-133.030
X76.515Y-91.755
X100.645Y-122.235
X103.820Y-124.140
X100.645Y-175.575
X103.820Y-177.480
X100.010Y-229.550
X105.725Y-227.645
X91.755Y-94.295
X93.660Y-91.755
X104.455Y-148.270
X101.915Y-147.635
X72.070Y-126.045
X72.070Y-180.020
X73.340Y-136.840
X68.895Y-93.025
X63.815Y-147.000
X68.895Y-200.975
X77.150Y-75.880
X76.515Y-73.340
X73.975Y-77.785
X77.785Y-129.220
X77.785Y-126.680
X73.975Y-133.030
X77.150Y-183.830
X76.515Y-181.290
X74.610Y-185.735
X98.105Y-71.435
X80.325Y-130.490
X98.105Y-125.410
X98.105Y-179.385
X99.375Y-94.295
X82.865Y-70.165
X99.375Y-148.270
X88.580Y-126.680
X99.375Y-202.245
X82.865Y-178.115
X30.160Y-101.280
X30.160Y-155.255
X31.430Y-105.090
X31.430Y-159.065
X90.485Y-35.875
X91.755Y-98.740
X95.565Y-93.025
X91.755Y-91.120
X91.755Y-152.715
X93.660Y-148.270
X91.755Y-206.690
X93.660Y-202.245
X106.995Y-122.235
X106.995Y-176.210
X89.850Y-65.085
X102.550Y-32.065
X41.590Y-143.190
X92.390Y-33.970
X85.405Y-30.795
X86.040Y-24.445
X73.340Y-69.530
X112.710Y-31.430
X70.800Y-70.800
X72.705Y-176.845
X119.060Y-35.240
X70.800Y-178.750
X72.070Y-177.480
X59.370Y-73.975
X57.465Y-72.070
X59.370Y-181.925
X57.465Y-180.020
X59.370Y-127.950
X57.465Y-126.045
X89.850Y-116.520
X88.580Y-94.930
X89.215Y-91.120
X108.265Y-35.240
X73.340Y-122.870
X74.610Y-120.965
X88.580Y-112.710
X115.250Y-33.970
X70.800Y-124.775
X72.070Y-123.505
T2
X119.000Y-68.390
X116.460Y-65.850
X121.540Y-65.850
X116.460Y-70.930
X121.540Y-70.930
X42.690Y-97.890
X50.310Y-97.890
X119.000Y-122.390
X116.460Y-119.850
X121.540Y-119.850
X116.460Y-124.930
X121.540Y-124.930
X42.690Y-151.890
X50.310Y-151.890
X119.000Y-176.390
X116.460Y-173.850
X121.540Y-173.850
X116.460Y-178.930
X121.540Y-178.930
X42.690Y-205.890
X50.310Y-205.890
X119.000Y-229.890
X116.460Y-227.350
X121.540Y-227.350
X116.460Y-232.430
X121.540Y-232.430
T3
X36.460Y-103.390
X39.000Y-103.390
X41.540Y-103.390
X67.270Y-95.390
X69.810Y-95.390
X72.350Y-95.390
X36.460Y-157.390
X39.000Y-157.390
X41.540Y-157.390
X67.270Y-149.390
X69.810Y-149.390
X72.350Y-149.390
X36.460Y-211.390
X39.000Y-211.390
X41.540Y-211.390
X67.270Y-203.390
X69.810Y-203.390
X72.350Y-203.390
T4
X30.350Y-32.000
X30.350Y-34.540
X113.980Y-49.500
X116.520Y-49.500
X119.060Y-49.500
X35.350Y-39.500
X35.350Y-43.500
X50.850Y-40.000
X81.255Y-27.000
X99.890Y-28.000
X27.000Y-69.890
X27.000Y-72.430
X31.500Y-65.890
X31.500Y-61.890
X30.000Y-81.390
X72.310Y-65.890
X68.310Y-79.890
X85.810Y-73.390
X27.000Y-123.890
X27.000Y-126.430
X31.500Y-119.890
X31.500Y-115.890
X30.000Y-135.390
X72.310Y-119.890
X68.310Y-133.890
X85.810Y-127.390
X27.000Y-177.890
X27.000Y-180.430
X31.500Y-173.890
X31.500Y-169.890
X30.000Y-189.390
X72.310Y-173.890
X68.310Y-187.890
X85.810Y-181.390
X90.350Y-223.390
X90.350Y-225.930
X96.350Y-223.390
X96.350Y-225.930
X102.350Y-223.390
X102.350Y-225.930
X111.500Y-238.890
T5
X24.000Y-24.000
X119.000Y-24.000
X24.000Y-239.890
X119.000Y-239.890
X24.000Y-109.890
X119.000Y-109.890
X24.000Y-163.890
X119.000Y-163.890
M30
