%TF.GenerationSoftware,rivgen,1.0*%
%TF.FileFunction,Copper,L1,Top*%
%FSLAX46Y46*%
%MOMM*%
%LPD*%
G01*
%ADD10C,0.300*%
%ADD11C,0.500*%
%ADD12C,0.400*%
%ADD13C,0.800*%
%ADD14R,1.700X1.700*%
%ADD15C,1.700*%
%ADD16R,1.500X2.000*%
%ADD17R,3.600X2.200*%
%ADD18R,1.150X1.450*%
%ADD19R,1.450X1.150*%
%ADD20R,5.800X2.200*%
%ADD21R,0.600X1.100*%
%ADD22R,2.800X1.150*%
%ADD23R,1.800X1.150*%
%ADD24R,1.950X0.600*%
%ADD25C,2.000*%
%ADD26R,0.900X1.000*%
%ADD27C,1.500*%
%ADD28R,1.600X1.600*%
%ADD29C,1.600*%
%ADD30C,6.000*%
D10*
X66305000Y-28300000D02*
X66305000Y-30160000D01*
X67255000Y-28300000D02*
X67255000Y-30160000D01*
X68205000Y-28300000D02*
X68205000Y-30160000D01*
X68205000Y-25700000D02*
X70165000Y-25700000D01*
X67255000Y-25700000D02*
X67255000Y-23810000D01*
X66305000Y-25700000D02*
X66305000Y-23810000D01*
X89940000Y-29300000D02*
X89940000Y-30795000D01*
X90890000Y-29300000D02*
X90890000Y-30795000D01*
X91840000Y-29300000D02*
X91840000Y-30795000D01*
X90890000Y-26700000D02*
X90890000Y-25080000D01*
X89940000Y-39300000D02*
X87945000Y-39300000D01*
X90890000Y-39300000D02*
X90890000Y-40955000D01*
X91840000Y-39300000D02*
X91840000Y-40955000D01*
X90890000Y-36700000D02*
X90890000Y-35240000D01*
X104520000Y-31690000D02*
X102550000Y-31690000D01*
X104520000Y-32960000D02*
X102550000Y-32960000D01*
X104520000Y-34230000D02*
X102550000Y-34230000D01*
X104520000Y-35500000D02*
X102550000Y-35500000D01*
X104520000Y-36770000D02*
X102550000Y-36770000D01*
X104520000Y-38040000D02*
X102550000Y-38040000D01*
X104520000Y-39310000D02*
X102550000Y-39310000D01*
X109470000Y-31690000D02*
X111440000Y-31690000D01*
X109470000Y-32960000D02*
X111440000Y-32960000D01*
X109470000Y-34230000D02*
X111440000Y-34230000D01*
X109470000Y-36770000D02*
X111440000Y-36770000D01*
X109470000Y-38040000D02*
X111440000Y-38040000D01*
X109470000Y-39310000D02*
X111440000Y-39310000D01*
X114045000Y-31690000D02*
X112075000Y-31690000D01*
X114045000Y-32960000D02*
X112075000Y-32960000D01*
X114045000Y-35500000D02*
X112075000Y-35500000D01*
X114045000Y-36770000D02*
X112075000Y-36770000D01*
X114045000Y-38040000D02*
X112075000Y-38040000D01*
X114045000Y-39310000D02*
X112075000Y-39310000D01*
X118995000Y-31690000D02*
X120965000Y-31690000D01*
X118995000Y-32960000D02*
X120965000Y-32960000D01*
X118995000Y-34230000D02*
X120965000Y-34230000D01*
X118995000Y-35500000D02*
X120965000Y-35500000D01*
X118995000Y-36770000D02*
X120965000Y-36770000D01*
X118995000Y-38040000D02*
X120965000Y-38040000D01*
X118995000Y-39310000D02*
X120965000Y-39310000D01*
X75835000Y-70255000D02*
X73975000Y-70255000D01*
X75835000Y-71525000D02*
X73975000Y-71525000D01*
X75835000Y-72795000D02*
X73975000Y-72795000D01*
X80785000Y-68985000D02*
X82865000Y-68985000D01*
X80785000Y-70255000D02*
X82865000Y-70255000D01*
X80785000Y-71525000D02*
X82865000Y-71525000D01*
X80785000Y-72795000D02*
X82865000Y-72795000D01*
X99350000Y-69690000D02*
X99350000Y-71435000D01*
X100300000Y-69690000D02*
X100300000Y-71435000D01*
X100300000Y-67090000D02*
X100300000Y-65720000D01*
X99350000Y-67090000D02*
X99350000Y-65720000D01*
X30525000Y-93255000D02*
X28255000Y-93255000D01*
X30525000Y-94525000D02*
X28255000Y-94525000D01*
X30525000Y-95795000D02*
X28255000Y-95795000D01*
X35475000Y-93255000D02*
X37780000Y-93255000D01*
X35475000Y-94525000D02*
X37780000Y-94525000D01*
X99825000Y-95795000D02*
X101915000Y-95795000D01*
X99825000Y-94525000D02*
X101915000Y-94525000D01*
X99825000Y-93255000D02*
X101915000Y-93255000D01*
X99825000Y-91985000D02*
X101915000Y-91985000D01*
X94875000Y-95795000D02*
X93025000Y-95795000D01*
X94875000Y-94525000D02*
X93025000Y-94525000D01*
X94875000Y-93255000D02*
X93025000Y-93255000D01*
X94875000Y-91985000D02*
X93025000Y-91985000D01*
X75835000Y-124255000D02*
X73975000Y-124255000D01*
X75835000Y-125525000D02*
X73975000Y-125525000D01*
X75835000Y-126795000D02*
X73975000Y-126795000D01*
X80785000Y-122985000D02*
X82865000Y-122985000D01*
X80785000Y-124255000D02*
X82865000Y-124255000D01*
X80785000Y-125525000D02*
X82865000Y-125525000D01*
X80785000Y-126795000D02*
X82865000Y-126795000D01*
X99350000Y-123690000D02*
X99350000Y-125410000D01*
X100300000Y-123690000D02*
X100300000Y-125410000D01*
X100300000Y-121090000D02*
X100300000Y-119695000D01*
X99350000Y-121090000D02*
X99350000Y-119695000D01*
X30525000Y-147255000D02*
X28255000Y-147255000D01*
X30525000Y-148525000D02*
X28255000Y-148525000D01*
X30525000Y-149795000D02*
X28255000Y-149795000D01*
X35475000Y-147255000D02*
X37780000Y-147255000D01*
X35475000Y-148525000D02*
X37780000Y-148525000D01*
X99825000Y-149795000D02*
X101915000Y-149795000D01*
X99825000Y-148525000D02*
X101915000Y-148525000D01*
X99825000Y-147255000D02*
X101915000Y-147255000D01*
X99825000Y-145985000D02*
X101915000Y-145985000D01*
X94875000Y-149795000D02*
X93025000Y-149795000D01*
X94875000Y-148525000D02*
X93025000Y-148525000D01*
X94875000Y-147255000D02*
X93025000Y-147255000D01*
X94875000Y-145985000D02*
X93025000Y-145985000D01*
X75835000Y-178255000D02*
X73975000Y-178255000D01*
X75835000Y-179525000D02*
X73975000Y-179525000D01*
X75835000Y-180795000D02*
X73975000Y-180795000D01*
X80785000Y-176985000D02*
X82865000Y-176985000D01*
X80785000Y-178255000D02*
X82865000Y-178255000D01*
X80785000Y-179525000D02*
X82865000Y-179525000D01*
X80785000Y-180795000D02*
X82865000Y-180795000D01*
X99350000Y-177690000D02*
X99350000Y-179385000D01*
X100300000Y-177690000D02*
X100300000Y-179385000D01*
X100300000Y-175090000D02*
X100300000Y-173670000D01*
X99350000Y-175090000D02*
X99350000Y-173670000D01*
X30525000Y-201255000D02*
X28255000Y-201255000D01*
X30525000Y-202525000D02*
X28255000Y-202525000D01*
X30525000Y-203795000D02*
X28255000Y-203795000D01*
X35475000Y-201255000D02*
X37780000Y-201255000D01*
X35475000Y-202525000D02*
X37780000Y-202525000D01*
X99825000Y-203795000D02*
X101915000Y-203795000D01*
X99825000Y-202525000D02*
X101915000Y-202525000D01*
X99825000Y-201255000D02*
X101915000Y-201255000D01*
X99825000Y-199985000D02*
X101915000Y-199985000D01*
X94875000Y-203795000D02*
X93025000Y-203795000D01*
X94875000Y-202525000D02*
X93025000Y-202525000D01*
X94875000Y-201255000D02*
X93025000Y-201255000D01*
X94875000Y-199985000D02*
X93025000Y-199985000D01*
X107400000Y-231690000D02*
X107400000Y-233360000D01*
X108350000Y-231690000D02*
X108350000Y-233360000D01*
X109300000Y-231690000D02*
X109300000Y-233360000D01*
X109300000Y-229090000D02*
X109300000Y-227645000D01*
X108350000Y-229090000D02*
X108350000Y-227645000D01*
X107400000Y-229090000D02*
X107400000Y-227645000D01*
X104400000Y-67090000D02*
X104400000Y-71390000D01*
X104400000Y-71390000D02*
X108850000Y-71390000D01*
X108850000Y-71390000D02*
X108850000Y-218890000D01*
X108850000Y-218890000D02*
X90350000Y-218890000D01*
X90350000Y-218890000D02*
X90350000Y-223390000D01*
X104400000Y-121090000D02*
X104400000Y-125390000D01*
X110350000Y-125390000D02*
X110350000Y-219890000D01*
X110350000Y-219890000D02*
X96350000Y-219890000D01*
X96350000Y-219890000D02*
X96350000Y-223390000D01*
X104400000Y-175090000D02*
X104400000Y-179390000D01*
X111850000Y-179390000D02*
X111850000Y-220890000D01*
X111850000Y-220890000D02*
X102350000Y-220890000D01*
X102350000Y-220890000D02*
X102350000Y-223390000D01*
D11*
X43350000Y-35150000D02*
X43350000Y-37150000D01*
X43350000Y-28850000D02*
X42700000Y-27724000D01*
X41300000Y-40000000D02*
X42426000Y-40650000D01*
X47300000Y-40000000D02*
X47950000Y-41126000D01*
X57255000Y-23050000D02*
X56129000Y-22400000D01*
X67255000Y-28300000D02*
X67255000Y-29600000D01*
X72755000Y-25537500D02*
X73881000Y-24887000D01*
X76755000Y-25537500D02*
X77881000Y-24887000D01*
X71755000Y-36050000D02*
X70629000Y-35400000D01*
X74755000Y-36050000D02*
X73629000Y-35400000D01*
X77755000Y-36050000D02*
X76629000Y-35400000D01*
X90890000Y-29300000D02*
X90890000Y-30600000D01*
X95890000Y-27050000D02*
X94764000Y-26400000D01*
X90890000Y-39300000D02*
X90890000Y-40600000D01*
X95890000Y-37050000D02*
X94764000Y-36400000D01*
X85255000Y-29550000D02*
X84129000Y-28900000D01*
X85255000Y-34550000D02*
X84129000Y-33900000D01*
X104520000Y-32960000D02*
X106120000Y-32960000D01*
X104520000Y-35500000D02*
X105646000Y-36150000D01*
X104520000Y-36770000D02*
X103394000Y-36120000D01*
X109470000Y-31690000D02*
X108344000Y-31040000D01*
X109470000Y-34230000D02*
X107870000Y-34230000D01*
X109470000Y-36770000D02*
X110596000Y-37420000D01*
X109470000Y-38040000D02*
X108344000Y-37390000D01*
X107310000Y-42000000D02*
X107310000Y-43600000D01*
X114045000Y-32960000D02*
X115645000Y-32960000D01*
X114045000Y-35500000D02*
X115171000Y-36150000D01*
X114045000Y-36770000D02*
X112919000Y-36120000D01*
X118995000Y-31690000D02*
X117869000Y-31040000D01*
X118995000Y-34230000D02*
X120595000Y-34230000D01*
X118995000Y-36770000D02*
X120595000Y-36770000D01*
X114930000Y-42000000D02*
X114930000Y-43600000D01*
X107630000Y-48550000D02*
X108280000Y-47424000D01*
X110170000Y-48550000D02*
X109520000Y-47424000D01*
X31500000Y-71840000D02*
X32626000Y-72490000D01*
X32000000Y-75927500D02*
X33126000Y-75277000D01*
X41905000Y-73440000D02*
X40779000Y-72790000D01*
X47855000Y-72540000D02*
X48981000Y-73190000D01*
X61405000Y-73440000D02*
X60279000Y-72790000D01*
X50355000Y-62390000D02*
X51005000Y-61264000D01*
X70810000Y-73440000D02*
X72410000Y-73440000D01*
X75835000Y-71525000D02*
X77435000Y-71525000D01*
X80785000Y-72795000D02*
X81911000Y-73445000D01*
X79260000Y-64890000D02*
X80386000Y-65540000D01*
X73310000Y-76440000D02*
X73960000Y-75314000D01*
X70165000Y-69440000D02*
X70165000Y-68140000D01*
X100300000Y-69690000D02*
X101426000Y-70340000D01*
X100300000Y-63890000D02*
X101426000Y-64540000D01*
X30525000Y-95795000D02*
X31651000Y-96445000D01*
X27000000Y-89440000D02*
X25874000Y-88790000D01*
X27500000Y-97440000D02*
X26374000Y-96790000D01*
X31450000Y-101890000D02*
X32576000Y-102540000D01*
X32950000Y-105390000D02*
X34076000Y-106040000D01*
X45500000Y-90440000D02*
X44374000Y-89790000D01*
X49000000Y-90440000D02*
X47874000Y-89790000D01*
X63760000Y-90390000D02*
X64886000Y-91040000D01*
X99825000Y-95795000D02*
X100951000Y-96445000D01*
X91350000Y-96940000D02*
X89750000Y-96940000D01*
X103300000Y-88890000D02*
X104426000Y-89540000D01*
X91850000Y-92940000D02*
X90550000Y-92940000D01*
X105850000Y-100840000D02*
X106976000Y-101490000D01*
X31500000Y-125840000D02*
X32626000Y-126490000D01*
X32000000Y-129927500D02*
X31350000Y-128802000D01*
X41905000Y-127440000D02*
X40779000Y-126790000D01*
X47855000Y-126540000D02*
X48981000Y-127190000D01*
X61405000Y-127440000D02*
X60279000Y-126790000D01*
X50355000Y-116390000D02*
X51005000Y-115264000D01*
X70810000Y-127440000D02*
X72410000Y-127440000D01*
X75835000Y-125525000D02*
X77435000Y-125525000D01*
X80785000Y-126795000D02*
X81911000Y-127445000D01*
X79260000Y-118890000D02*
X80386000Y-119540000D01*
X73310000Y-130440000D02*
X73960000Y-129314000D01*
X70165000Y-123440000D02*
X70165000Y-122140000D01*
X100300000Y-123690000D02*
X101426000Y-124340000D01*
X100300000Y-117890000D02*
X100950000Y-116764000D01*
X30525000Y-149795000D02*
X31651000Y-150445000D01*
X27000000Y-143440000D02*
X25874000Y-142790000D01*
X27500000Y-151440000D02*
X26374000Y-150790000D01*
X31450000Y-155890000D02*
X32576000Y-156540000D01*
X32950000Y-159390000D02*
X34076000Y-160040000D01*
X45500000Y-144440000D02*
X44374000Y-143790000D01*
X49000000Y-144440000D02*
X47874000Y-143790000D01*
X63760000Y-144390000D02*
X64886000Y-145040000D01*
X99825000Y-149795000D02*
X100951000Y-150445000D01*
X91350000Y-150940000D02*
X89750000Y-150940000D01*
X103300000Y-142890000D02*
X104426000Y-143540000D01*
X91850000Y-146940000D02*
X90550000Y-146940000D01*
X105850000Y-154840000D02*
X106976000Y-155490000D01*
X31500000Y-179840000D02*
X32626000Y-180490000D01*
X32000000Y-183927500D02*
X31350000Y-182802000D01*
X41905000Y-181440000D02*
X40779000Y-180790000D01*
X47855000Y-180540000D02*
X48981000Y-181190000D01*
X61405000Y-181440000D02*
X60279000Y-180790000D01*
X50355000Y-170390000D02*
X51005000Y-169264000D01*
X70810000Y-181440000D02*
X72410000Y-181440000D01*
X75835000Y-179525000D02*
X77435000Y-179525000D01*
X80785000Y-180795000D02*
X81911000Y-181445000D01*
X79260000Y-172890000D02*
X80386000Y-173540000D01*
X73310000Y-184440000D02*
X73960000Y-183314000D01*
X70165000Y-177440000D02*
X70165000Y-176140000D01*
X100300000Y-177690000D02*
X101426000Y-178340000D01*
X100300000Y-171890000D02*
X100950000Y-170764000D01*
X30525000Y-203795000D02*
X31651000Y-204445000D01*
X27000000Y-197440000D02*
X25874000Y-196790000D01*
X27500000Y-205440000D02*
X26374000Y-204790000D01*
X31450000Y-209890000D02*
X32576000Y-210540000D01*
X32950000Y-213390000D02*
X34076000Y-214040000D01*
X45500000Y-198440000D02*
X44374000Y-197790000D01*
X49000000Y-198440000D02*
X47874000Y-197790000D01*
X63760000Y-198390000D02*
X64886000Y-199040000D01*
X99825000Y-203795000D02*
X100951000Y-204445000D01*
X91350000Y-204940000D02*
X89750000Y-204940000D01*
X103300000Y-196890000D02*
X104426000Y-197540000D01*
X91850000Y-200940000D02*
X90550000Y-200940000D01*
X105850000Y-208840000D02*
X106976000Y-209490000D01*
X108350000Y-231690000D02*
X108350000Y-232990000D01*
X109300000Y-225390000D02*
X110426000Y-226040000D01*
X45400000Y-40000000D02*
X45400000Y-36200000D01*
X49845000Y-39050000D02*
X49210000Y-39050000D01*
X49210000Y-39050000D02*
X48575000Y-38415000D01*
X48575000Y-38415000D02*
X46670000Y-38415000D01*
X46670000Y-38415000D02*
X46035000Y-37780000D01*
X46035000Y-37780000D02*
X45650000Y-37780000D01*
X48455000Y-62390000D02*
X48575000Y-61910000D01*
X48575000Y-61910000D02*
X48575000Y-42860000D01*
X48575000Y-42860000D02*
X49210000Y-42225000D01*
X49210000Y-42225000D02*
X49210000Y-39300000D01*
X52905000Y-64440000D02*
X52385000Y-64450000D01*
X52385000Y-64450000D02*
X52385000Y-60005000D01*
X52385000Y-60005000D02*
X51750000Y-59370000D01*
X51750000Y-59370000D02*
X51115000Y-58735000D01*
X51115000Y-58735000D02*
X50480000Y-58100000D01*
X50480000Y-58100000D02*
X49845000Y-57465000D01*
X49845000Y-57465000D02*
X49210000Y-56830000D01*
X49210000Y-56830000D02*
X48825000Y-56830000D01*
X57405000Y-64440000D02*
X56830000Y-64450000D01*
X56830000Y-64450000D02*
X56195000Y-63815000D01*
X56195000Y-63815000D02*
X55560000Y-63180000D01*
X55560000Y-63180000D02*
X54925000Y-62545000D01*
X54925000Y-62545000D02*
X54290000Y-61910000D01*
X54290000Y-61910000D02*
X53020000Y-60640000D01*
X53020000Y-60640000D02*
X52635000Y-60640000D01*
X77360000Y-64890000D02*
X77150000Y-64450000D01*
X77150000Y-64450000D02*
X75245000Y-64450000D01*
X75245000Y-64450000D02*
X74610000Y-63815000D01*
X74610000Y-63815000D02*
X58100000Y-63815000D01*
X80785000Y-68985000D02*
X80325000Y-68895000D01*
X80325000Y-68895000D02*
X79690000Y-68260000D01*
X79690000Y-68260000D02*
X79055000Y-67625000D01*
X79055000Y-67625000D02*
X78420000Y-66990000D01*
X78420000Y-66990000D02*
X77785000Y-66355000D01*
X77785000Y-66355000D02*
X77150000Y-65720000D01*
X77150000Y-65720000D02*
X77150000Y-65665000D01*
X98105000Y-63180000D02*
X77150000Y-63180000D01*
X77150000Y-63180000D02*
X76515000Y-63815000D01*
X76515000Y-63815000D02*
X76735000Y-64115000D01*
X99350000Y-65720000D02*
X99375000Y-65720000D01*
X99375000Y-65720000D02*
X98740000Y-65720000D01*
X98740000Y-65720000D02*
X98105000Y-65085000D01*
X98105000Y-65085000D02*
X98105000Y-64665000D01*
X104455000Y-50480000D02*
X103820000Y-50480000D01*
X103820000Y-50480000D02*
X103185000Y-51115000D01*
X103185000Y-51115000D02*
X102550000Y-51750000D01*
X102550000Y-51750000D02*
X101915000Y-52385000D01*
X101915000Y-52385000D02*
X101280000Y-53020000D01*
X101280000Y-53020000D02*
X100645000Y-53655000D01*
X100645000Y-53655000D02*
X100010000Y-54290000D01*
X100010000Y-54290000D02*
X99375000Y-54925000D01*
X99375000Y-54925000D02*
X98740000Y-55560000D01*
X98740000Y-55560000D02*
X98105000Y-56195000D01*
X98105000Y-56195000D02*
X97470000Y-56830000D01*
X97470000Y-56830000D02*
X96835000Y-57465000D01*
X96835000Y-57465000D02*
X96200000Y-58100000D01*
X96200000Y-58100000D02*
X95565000Y-58735000D01*
X95565000Y-58735000D02*
X94930000Y-59370000D01*
X94930000Y-59370000D02*
X94295000Y-60005000D01*
X94295000Y-60005000D02*
X93660000Y-60640000D01*
X93660000Y-60640000D02*
X93025000Y-61275000D01*
X93025000Y-61275000D02*
X92390000Y-61910000D01*
X92390000Y-61910000D02*
X91755000Y-62545000D01*
X91755000Y-62545000D02*
X91755000Y-62930000D01*
X105410000Y-42000000D02*
X105090000Y-42225000D01*
X105090000Y-42225000D02*
X103820000Y-43495000D01*
X103820000Y-43495000D02*
X103185000Y-44130000D01*
X103185000Y-44130000D02*
X103185000Y-50480000D01*
X103185000Y-50480000D02*
X103326000Y-50621000D01*
X102550000Y-38040000D02*
X102550000Y-38415000D01*
X102550000Y-38415000D02*
X101280000Y-38415000D01*
X101280000Y-38415000D02*
X101280000Y-42860000D01*
X101280000Y-42860000D02*
X101915000Y-43495000D01*
X101915000Y-43495000D02*
X102550000Y-44130000D01*
X102550000Y-44130000D02*
X102935000Y-44130000D01*
X113030000Y-42000000D02*
X112710000Y-41590000D01*
X112710000Y-41590000D02*
X112710000Y-40320000D01*
X112710000Y-40320000D02*
X101530000Y-40320000D01*
X114045000Y-38040000D02*
X114615000Y-37780000D01*
X114615000Y-37780000D02*
X115885000Y-37780000D01*
X115885000Y-37780000D02*
X115885000Y-40320000D01*
X115885000Y-40320000D02*
X112960000Y-40320000D01*
X118995000Y-38040000D02*
X118425000Y-37780000D01*
X118425000Y-37780000D02*
X116135000Y-37780000D01*
X101400000Y-88890000D02*
X101280000Y-88580000D01*
X101280000Y-88580000D02*
X101280000Y-79690000D01*
X101280000Y-79690000D02*
X100645000Y-79055000D01*
X100645000Y-79055000D02*
X100010000Y-78420000D01*
X100010000Y-78420000D02*
X99375000Y-77785000D01*
X99375000Y-77785000D02*
X99375000Y-77150000D01*
X99375000Y-77150000D02*
X98740000Y-76515000D01*
X98740000Y-76515000D02*
X98740000Y-74610000D01*
X98740000Y-74610000D02*
X98105000Y-73975000D01*
X98105000Y-73975000D02*
X98105000Y-72705000D01*
X98105000Y-72705000D02*
X97470000Y-72070000D01*
X97470000Y-72070000D02*
X96835000Y-71435000D01*
X96835000Y-71435000D02*
X96835000Y-65720000D01*
X96835000Y-65720000D02*
X96200000Y-65085000D01*
X96200000Y-65085000D02*
X95565000Y-64450000D01*
X95565000Y-64450000D02*
X94930000Y-63815000D01*
X94930000Y-63815000D02*
X94930000Y-63430000D01*
X100645000Y-91755000D02*
X100645000Y-89850000D01*
X100645000Y-89850000D02*
X100775000Y-89665000D01*
X95565000Y-95565000D02*
X96835000Y-95565000D01*
X96835000Y-95565000D02*
X96835000Y-93025000D01*
X96835000Y-93025000D02*
X98105000Y-91755000D01*
X98105000Y-91755000D02*
X98800000Y-91755000D01*
X92300000Y-89390000D02*
X92390000Y-89215000D01*
X92390000Y-89215000D02*
X93025000Y-88580000D01*
X93025000Y-88580000D02*
X93660000Y-87945000D01*
X93660000Y-87945000D02*
X94295000Y-87310000D01*
X94295000Y-87310000D02*
X96200000Y-85405000D01*
X96200000Y-85405000D02*
X96835000Y-84770000D01*
X96835000Y-84770000D02*
X97470000Y-84135000D01*
X97470000Y-84135000D02*
X98105000Y-83500000D01*
X98105000Y-83500000D02*
X98740000Y-82865000D01*
X98740000Y-82865000D02*
X101030000Y-82865000D01*
X98105000Y-117155000D02*
X98105000Y-92390000D01*
X98105000Y-92390000D02*
X97964000Y-92249000D01*
X99350000Y-119695000D02*
X99375000Y-119695000D01*
X99375000Y-119695000D02*
X98740000Y-119695000D01*
X98740000Y-119695000D02*
X98740000Y-118665000D01*
X82865000Y-122985000D02*
X82865000Y-120965000D01*
X82865000Y-120965000D02*
X85405000Y-118425000D01*
X85405000Y-118425000D02*
X86040000Y-117790000D01*
X86040000Y-117790000D02*
X86675000Y-117155000D01*
X86675000Y-117155000D02*
X89215000Y-114615000D01*
X89215000Y-114615000D02*
X89215000Y-113980000D01*
X89215000Y-113980000D02*
X89850000Y-113345000D01*
X89850000Y-113345000D02*
X89850000Y-110170000D01*
X89850000Y-110170000D02*
X90485000Y-109535000D01*
X90485000Y-109535000D02*
X90485000Y-108900000D01*
X90485000Y-108900000D02*
X91120000Y-108265000D01*
X91120000Y-108265000D02*
X91120000Y-106360000D01*
X91120000Y-106360000D02*
X91755000Y-105725000D01*
X91755000Y-105725000D02*
X91755000Y-103185000D01*
X91755000Y-103185000D02*
X92390000Y-102550000D01*
X92390000Y-102550000D02*
X92390000Y-101280000D01*
X92390000Y-101280000D02*
X93025000Y-100645000D01*
X93025000Y-100645000D02*
X93025000Y-95945000D01*
X77360000Y-118890000D02*
X77785000Y-118425000D01*
X77785000Y-118425000D02*
X77785000Y-117155000D01*
X77785000Y-117155000D02*
X78420000Y-116520000D01*
X78420000Y-116520000D02*
X79055000Y-115885000D01*
X79055000Y-115885000D02*
X79690000Y-115250000D01*
X79690000Y-115250000D02*
X83500000Y-111440000D01*
X83500000Y-111440000D02*
X84135000Y-110805000D01*
X84135000Y-110805000D02*
X84770000Y-110170000D01*
X84770000Y-110170000D02*
X85405000Y-109535000D01*
X85405000Y-109535000D02*
X86040000Y-108900000D01*
X86040000Y-108900000D02*
X86675000Y-108265000D01*
X86675000Y-108265000D02*
X91120000Y-103820000D01*
X91120000Y-103820000D02*
X91505000Y-103820000D01*
X58100000Y-118425000D02*
X58735000Y-117790000D01*
X58735000Y-117790000D02*
X59370000Y-117155000D01*
X59370000Y-117155000D02*
X60005000Y-116520000D01*
X60005000Y-116520000D02*
X60640000Y-115885000D01*
X60640000Y-115885000D02*
X61910000Y-114615000D01*
X61910000Y-114615000D02*
X62545000Y-113980000D01*
X62545000Y-113980000D02*
X63815000Y-112710000D01*
X63815000Y-112710000D02*
X64450000Y-112075000D01*
X64450000Y-112075000D02*
X65085000Y-111440000D01*
X65085000Y-111440000D02*
X65720000Y-110805000D01*
X65720000Y-110805000D02*
X66355000Y-110170000D01*
X66355000Y-110170000D02*
X66990000Y-109535000D01*
X66990000Y-109535000D02*
X67625000Y-108900000D01*
X67625000Y-108900000D02*
X68260000Y-108265000D01*
X68260000Y-108265000D02*
X68895000Y-107630000D01*
X68895000Y-107630000D02*
X69530000Y-106995000D01*
X69530000Y-106995000D02*
X70165000Y-106360000D01*
X70165000Y-106360000D02*
X70800000Y-105725000D01*
X70800000Y-105725000D02*
X71435000Y-105090000D01*
X71435000Y-105090000D02*
X72070000Y-104455000D01*
X72070000Y-104455000D02*
X72705000Y-103820000D01*
X72705000Y-103820000D02*
X73340000Y-103185000D01*
X73340000Y-103185000D02*
X73975000Y-102550000D01*
X73975000Y-102550000D02*
X74610000Y-101915000D01*
X74610000Y-101915000D02*
X75245000Y-101280000D01*
X75245000Y-101280000D02*
X75880000Y-100645000D01*
X75880000Y-100645000D02*
X76515000Y-100010000D01*
X76515000Y-100010000D02*
X77150000Y-99375000D01*
X77150000Y-99375000D02*
X77785000Y-98740000D01*
X77785000Y-98740000D02*
X78420000Y-98105000D01*
X78420000Y-98105000D02*
X79055000Y-97470000D01*
X79055000Y-97470000D02*
X79690000Y-96835000D01*
X79690000Y-96835000D02*
X80325000Y-96200000D01*
X80325000Y-96200000D02*
X80960000Y-95565000D01*
X80960000Y-95565000D02*
X81595000Y-94930000D01*
X81595000Y-94930000D02*
X82230000Y-94295000D01*
X82230000Y-94295000D02*
X82865000Y-93660000D01*
X82865000Y-93660000D02*
X83500000Y-93025000D01*
X83500000Y-93025000D02*
X84135000Y-92390000D01*
X84135000Y-92390000D02*
X84770000Y-91755000D01*
X84770000Y-91755000D02*
X85405000Y-91120000D01*
X85405000Y-91120000D02*
X86040000Y-90485000D01*
X86040000Y-90485000D02*
X86675000Y-89850000D01*
X86675000Y-89850000D02*
X87310000Y-89215000D01*
X87310000Y-89215000D02*
X87945000Y-88580000D01*
X87945000Y-88580000D02*
X88580000Y-87945000D01*
X88580000Y-87945000D02*
X91755000Y-87945000D01*
X91755000Y-87945000D02*
X91755000Y-88615000D01*
X52905000Y-118440000D02*
X53020000Y-118425000D01*
X53020000Y-118425000D02*
X53655000Y-117790000D01*
X53655000Y-117790000D02*
X56195000Y-117790000D01*
X56195000Y-117790000D02*
X56630000Y-117815000D01*
X48455000Y-116390000D02*
X48575000Y-115885000D01*
X48575000Y-115885000D02*
X48575000Y-114615000D01*
X48575000Y-114615000D02*
X49210000Y-113980000D01*
X49210000Y-113980000D02*
X52385000Y-113980000D01*
X52385000Y-113980000D02*
X52385000Y-115885000D01*
X52385000Y-115885000D02*
X53020000Y-116520000D01*
X53020000Y-116520000D02*
X53655000Y-117155000D01*
X53655000Y-117155000D02*
X53655000Y-117540000D01*
X101400000Y-142890000D02*
X101915000Y-142555000D01*
X101915000Y-142555000D02*
X101915000Y-126045000D01*
X101915000Y-126045000D02*
X102550000Y-125410000D01*
X102550000Y-125410000D02*
X102550000Y-109535000D01*
X102550000Y-109535000D02*
X98740000Y-105725000D01*
X98740000Y-105725000D02*
X98355000Y-105725000D01*
X100645000Y-145730000D02*
X100645000Y-143825000D01*
X100645000Y-143825000D02*
X100775000Y-143665000D01*
X95565000Y-149540000D02*
X96835000Y-149540000D01*
X96835000Y-149540000D02*
X96835000Y-119060000D01*
X96835000Y-119060000D02*
X97470000Y-118425000D01*
X97470000Y-118425000D02*
X97775000Y-118425000D01*
X92300000Y-143390000D02*
X91755000Y-143190000D01*
X91755000Y-143190000D02*
X91755000Y-108265000D01*
X91755000Y-108265000D02*
X91370000Y-108265000D01*
X98400000Y-171890000D02*
X98105000Y-171765000D01*
X98105000Y-171765000D02*
X98105000Y-148270000D01*
X98105000Y-148270000D02*
X97470000Y-147635000D01*
X97470000Y-147635000D02*
X97085000Y-147635000D01*
X99350000Y-173670000D02*
X99375000Y-173670000D01*
X99375000Y-173670000D02*
X98740000Y-173670000D01*
X98740000Y-173670000D02*
X98740000Y-172665000D01*
X81595000Y-176845000D02*
X81595000Y-130490000D01*
X81595000Y-130490000D02*
X80960000Y-129855000D01*
X80960000Y-129855000D02*
X80325000Y-129220000D01*
X80325000Y-129220000D02*
X79690000Y-128585000D01*
X79690000Y-128585000D02*
X79055000Y-127950000D01*
X79055000Y-127950000D02*
X79055000Y-122870000D01*
X79055000Y-122870000D02*
X79690000Y-122235000D01*
X79690000Y-122235000D02*
X79760000Y-122635000D01*
X77360000Y-172890000D02*
X77785000Y-172400000D01*
X77785000Y-172400000D02*
X77785000Y-170495000D01*
X77785000Y-170495000D02*
X78420000Y-169860000D01*
X78420000Y-169860000D02*
X79055000Y-169225000D01*
X79055000Y-169225000D02*
X79690000Y-168590000D01*
X79690000Y-168590000D02*
X80325000Y-167955000D01*
X80325000Y-167955000D02*
X80960000Y-167320000D01*
X80960000Y-167320000D02*
X81345000Y-167320000D01*
X58100000Y-172400000D02*
X58100000Y-163510000D01*
X58100000Y-163510000D02*
X59370000Y-162240000D01*
X59370000Y-162240000D02*
X60005000Y-161605000D01*
X60005000Y-161605000D02*
X60005000Y-160335000D01*
X60005000Y-160335000D02*
X60640000Y-159700000D01*
X60640000Y-159700000D02*
X60640000Y-157795000D01*
X60640000Y-157795000D02*
X61275000Y-157160000D01*
X61275000Y-157160000D02*
X61275000Y-155890000D01*
X61275000Y-155890000D02*
X61910000Y-155255000D01*
X61910000Y-155255000D02*
X61910000Y-153985000D01*
X61910000Y-153985000D02*
X62545000Y-153350000D01*
X62545000Y-153350000D02*
X62545000Y-152080000D01*
X62545000Y-152080000D02*
X63180000Y-151445000D01*
X63180000Y-151445000D02*
X63180000Y-150175000D01*
X63180000Y-150175000D02*
X63815000Y-149540000D01*
X63815000Y-149540000D02*
X63815000Y-148905000D01*
X63815000Y-148905000D02*
X64450000Y-148270000D01*
X64450000Y-148270000D02*
X65085000Y-147635000D01*
X65085000Y-147635000D02*
X66355000Y-146365000D01*
X66355000Y-146365000D02*
X66990000Y-145730000D01*
X66990000Y-145730000D02*
X68260000Y-144460000D01*
X68260000Y-144460000D02*
X68895000Y-143825000D01*
X68895000Y-143825000D02*
X70165000Y-142555000D01*
X70165000Y-142555000D02*
X70800000Y-141920000D01*
X70800000Y-141920000D02*
X71435000Y-141285000D01*
X71435000Y-141285000D02*
X72070000Y-140650000D01*
X72070000Y-140650000D02*
X72705000Y-140015000D01*
X72705000Y-140015000D02*
X73340000Y-139380000D01*
X73340000Y-139380000D02*
X73975000Y-138745000D01*
X73975000Y-138745000D02*
X74610000Y-138110000D01*
X74610000Y-138110000D02*
X75245000Y-137475000D01*
X75245000Y-137475000D02*
X75245000Y-130490000D01*
X75245000Y-130490000D02*
X75880000Y-129855000D01*
X75880000Y-129855000D02*
X77150000Y-128585000D01*
X77150000Y-128585000D02*
X77785000Y-127950000D01*
X77785000Y-127950000D02*
X78420000Y-127315000D01*
X78420000Y-127315000D02*
X78805000Y-127315000D01*
X52905000Y-172440000D02*
X53020000Y-172400000D01*
X53020000Y-172400000D02*
X53020000Y-167955000D01*
X53020000Y-167955000D02*
X53655000Y-167320000D01*
X53655000Y-167320000D02*
X54925000Y-166050000D01*
X54925000Y-166050000D02*
X55560000Y-165415000D01*
X55560000Y-165415000D02*
X56830000Y-164145000D01*
X56830000Y-164145000D02*
X57465000Y-163510000D01*
X57465000Y-163510000D02*
X57850000Y-163510000D01*
X48455000Y-170390000D02*
X48575000Y-169860000D01*
X48575000Y-169860000D02*
X48575000Y-168590000D01*
X48575000Y-168590000D02*
X49210000Y-167955000D01*
X49210000Y-167955000D02*
X52770000Y-167955000D01*
X101400000Y-196890000D02*
X101915000Y-196530000D01*
X101915000Y-196530000D02*
X101915000Y-180020000D01*
X101915000Y-180020000D02*
X102550000Y-179385000D01*
X102550000Y-179385000D02*
X102550000Y-151445000D01*
X102550000Y-151445000D02*
X103185000Y-150810000D01*
X103185000Y-150810000D02*
X103185000Y-145730000D01*
X103185000Y-145730000D02*
X102550000Y-145095000D01*
X102550000Y-145095000D02*
X101915000Y-144460000D01*
X101915000Y-144460000D02*
X101915000Y-143665000D01*
X100645000Y-199705000D02*
X100645000Y-197800000D01*
X100645000Y-197800000D02*
X100775000Y-197665000D01*
X95565000Y-203515000D02*
X95565000Y-204150000D01*
X95565000Y-204150000D02*
X96835000Y-204150000D01*
X96835000Y-204150000D02*
X96835000Y-149790000D01*
X92300000Y-197390000D02*
X92390000Y-197165000D01*
X92390000Y-197165000D02*
X92390000Y-155255000D01*
X92390000Y-155255000D02*
X93025000Y-154620000D01*
X93025000Y-154620000D02*
X93025000Y-149945000D01*
X107400000Y-225390000D02*
X106995000Y-225105000D01*
X106995000Y-225105000D02*
X106995000Y-222565000D01*
X103185000Y-178750000D02*
X102800000Y-178750000D01*
X108350000Y-227645000D02*
X108265000Y-227645000D01*
X108265000Y-227645000D02*
X108265000Y-226375000D01*
X108265000Y-226375000D02*
X108025000Y-226165000D01*
X99550000Y-227840000D02*
X100010000Y-227645000D01*
X100010000Y-227645000D02*
X104455000Y-227645000D01*
X104455000Y-227645000D02*
X104455000Y-227010000D01*
X104455000Y-227010000D02*
X105090000Y-226375000D01*
X105090000Y-226375000D02*
X105725000Y-225740000D01*
X105725000Y-225740000D02*
X106360000Y-225105000D01*
X106360000Y-225105000D02*
X106745000Y-225105000D01*
X93550000Y-227840000D02*
X93660000Y-227645000D01*
X93660000Y-227645000D02*
X98105000Y-227645000D01*
X98105000Y-227645000D02*
X98740000Y-227010000D01*
X98740000Y-227010000D02*
X98775000Y-227215000D01*
X87550000Y-227840000D02*
X87310000Y-227645000D01*
X87310000Y-227645000D02*
X86040000Y-227645000D01*
X86040000Y-227645000D02*
X86040000Y-197165000D01*
X86040000Y-197165000D02*
X86675000Y-196530000D01*
X86675000Y-196530000D02*
X87310000Y-195895000D01*
X87310000Y-195895000D02*
X87945000Y-195260000D01*
X87945000Y-195260000D02*
X89215000Y-193990000D01*
X89215000Y-193990000D02*
X89850000Y-193355000D01*
X89850000Y-193355000D02*
X91120000Y-192085000D01*
X91120000Y-192085000D02*
X91755000Y-191450000D01*
X91755000Y-191450000D02*
X92140000Y-191450000D01*
D10*
X116840000Y-42000000D02*
X116520000Y-41590000D01*
X110805000Y-39050000D02*
X110805000Y-39160000D01*
X118995000Y-39310000D02*
X118425000Y-39050000D01*
X118425000Y-39050000D02*
X117790000Y-39685000D01*
X117790000Y-39685000D02*
X117155000Y-40320000D01*
X117155000Y-40320000D02*
X117155000Y-41225000D01*
X109220000Y-42000000D02*
X108900000Y-41590000D01*
X107630000Y-39050000D02*
X105545000Y-39050000D01*
X114045000Y-39310000D02*
X113980000Y-39050000D01*
D11*
X39400000Y-40000000D02*
X39050000Y-39685000D01*
X39050000Y-39685000D02*
X36400000Y-39685000D01*
X40320000Y-35875000D02*
X39050000Y-35875000D01*
X39050000Y-35875000D02*
X38415000Y-36510000D01*
X38415000Y-36510000D02*
X37780000Y-37145000D01*
X37780000Y-37145000D02*
X37145000Y-37780000D01*
X37145000Y-37780000D02*
X36510000Y-38415000D01*
X36510000Y-38415000D02*
X36400000Y-38450000D01*
X56830000Y-33335000D02*
X41590000Y-33335000D01*
X41590000Y-33335000D02*
X40955000Y-33970000D01*
X40955000Y-33970000D02*
X40955000Y-34100000D01*
X57255000Y-24950000D02*
X56830000Y-25080000D01*
X56830000Y-25080000D02*
X55560000Y-26350000D01*
X55560000Y-26350000D02*
X54925000Y-26985000D01*
X54925000Y-26985000D02*
X54290000Y-27620000D01*
X54290000Y-27620000D02*
X53655000Y-28255000D01*
X53655000Y-28255000D02*
X53020000Y-28890000D01*
X53020000Y-28890000D02*
X52385000Y-29525000D01*
X52385000Y-29525000D02*
X51115000Y-30795000D01*
X51115000Y-30795000D02*
X50480000Y-31430000D01*
X50480000Y-31430000D02*
X49845000Y-32065000D01*
X49845000Y-32065000D02*
X49210000Y-32700000D01*
X49210000Y-32700000D02*
X49210000Y-33085000D01*
X66305000Y-25700000D02*
X66355000Y-25715000D01*
X66355000Y-25715000D02*
X58100000Y-25715000D01*
X58100000Y-25715000D02*
X58030000Y-25575000D01*
X68205000Y-25700000D02*
X68260000Y-25715000D01*
X68260000Y-25715000D02*
X68260000Y-26985000D01*
X68260000Y-26985000D02*
X55560000Y-26985000D01*
X55560000Y-26985000D02*
X55419000Y-26844000D01*
X89940000Y-29300000D02*
X89850000Y-28890000D01*
X89850000Y-28890000D02*
X87310000Y-28890000D01*
X87310000Y-28890000D02*
X86675000Y-28255000D01*
X86675000Y-28255000D02*
X86040000Y-28255000D01*
X86040000Y-28255000D02*
X85405000Y-27620000D01*
X85405000Y-27620000D02*
X83500000Y-27620000D01*
X83500000Y-27620000D02*
X83500000Y-25080000D01*
X83500000Y-25080000D02*
X79055000Y-25080000D01*
X79055000Y-25080000D02*
X79055000Y-26350000D01*
X79055000Y-26350000D02*
X78420000Y-26985000D01*
X78420000Y-26985000D02*
X68510000Y-26985000D01*
X91840000Y-30795000D02*
X91755000Y-30795000D01*
X91755000Y-30795000D02*
X91755000Y-32065000D01*
X91755000Y-32065000D02*
X89850000Y-32065000D01*
X89850000Y-32065000D02*
X89215000Y-31430000D01*
X89215000Y-31430000D02*
X88580000Y-30795000D01*
X88580000Y-30795000D02*
X87945000Y-30160000D01*
X87945000Y-30160000D02*
X87310000Y-29525000D01*
X87310000Y-29525000D02*
X87310000Y-29140000D01*
X87945000Y-39300000D02*
X87945000Y-39050000D01*
X87945000Y-39050000D02*
X84135000Y-39050000D01*
X84135000Y-39050000D02*
X82865000Y-37780000D01*
X82865000Y-37780000D02*
X82230000Y-37145000D01*
X82230000Y-37145000D02*
X81595000Y-36510000D01*
X81595000Y-36510000D02*
X80960000Y-35875000D01*
X80960000Y-35875000D02*
X80325000Y-35240000D01*
X80325000Y-35240000D02*
X79690000Y-34605000D01*
X79690000Y-34605000D02*
X78420000Y-34605000D01*
X78420000Y-34605000D02*
X77785000Y-33970000D01*
X77785000Y-33970000D02*
X69530000Y-33970000D01*
X69530000Y-33970000D02*
X69530000Y-34605000D01*
X69530000Y-34605000D02*
X63180000Y-34605000D01*
X63180000Y-34605000D02*
X62545000Y-33970000D01*
X62545000Y-33970000D02*
X62205000Y-33970000D01*
X91840000Y-40955000D02*
X91755000Y-40955000D01*
X91755000Y-40955000D02*
X91755000Y-42225000D01*
X91755000Y-42225000D02*
X89215000Y-42225000D01*
X89215000Y-42225000D02*
X88580000Y-41590000D01*
X88580000Y-41590000D02*
X87945000Y-40955000D01*
X87945000Y-40955000D02*
X87310000Y-40320000D01*
X87310000Y-40320000D02*
X86675000Y-39685000D01*
X86675000Y-39685000D02*
X86675000Y-39300000D01*
X66305000Y-28300000D02*
X66355000Y-28255000D01*
X66355000Y-28255000D02*
X62205000Y-28255000D01*
D12*
X67625000Y-24445000D02*
X67405000Y-24445000D01*
X75880000Y-28255000D02*
X74205000Y-28255000D01*
X80325000Y-27620000D02*
X79690000Y-27620000D01*
X79690000Y-27620000D02*
X79055000Y-28255000D01*
X79055000Y-28255000D02*
X77705000Y-28255000D01*
X85255000Y-25950000D02*
X84770000Y-25715000D01*
X66305000Y-33000000D02*
X66355000Y-32700000D01*
X66355000Y-32700000D02*
X66355000Y-31430000D01*
X66355000Y-31430000D02*
X69530000Y-31430000D01*
X69530000Y-31430000D02*
X70165000Y-30795000D01*
X70165000Y-30795000D02*
X70800000Y-30160000D01*
X70800000Y-30160000D02*
X71435000Y-29525000D01*
X71435000Y-29525000D02*
X71435000Y-29088000D01*
X66305000Y-36500000D02*
X66355000Y-35875000D01*
X37780000Y-93255000D02*
X37780000Y-87945000D01*
X37780000Y-87945000D02*
X38415000Y-87310000D01*
X38415000Y-87310000D02*
X39050000Y-86675000D01*
X39050000Y-86675000D02*
X39685000Y-86040000D01*
X39685000Y-86040000D02*
X40955000Y-84770000D01*
X40955000Y-84770000D02*
X41590000Y-84135000D01*
X41590000Y-84135000D02*
X41590000Y-79055000D01*
X41590000Y-79055000D02*
X42860000Y-77785000D01*
X42860000Y-77785000D02*
X43495000Y-77150000D01*
X43495000Y-77150000D02*
X43495000Y-63180000D01*
X43495000Y-63180000D02*
X44130000Y-62545000D01*
X44130000Y-62545000D02*
X44765000Y-61910000D01*
X44765000Y-61910000D02*
X46035000Y-60640000D01*
X46035000Y-60640000D02*
X46670000Y-60005000D01*
X37780000Y-147255000D02*
X37780000Y-127315000D01*
X37780000Y-127315000D02*
X37145000Y-126680000D01*
X37145000Y-126680000D02*
X36510000Y-126045000D01*
X36510000Y-126045000D02*
X35875000Y-125410000D01*
X35875000Y-125410000D02*
X35875000Y-105725000D01*
X35875000Y-105725000D02*
X35240000Y-105090000D01*
X35240000Y-105090000D02*
X34605000Y-105090000D01*
X34605000Y-105090000D02*
X34605000Y-98105000D01*
X34605000Y-98105000D02*
X33335000Y-96835000D01*
X33335000Y-96835000D02*
X33335000Y-93025000D01*
X33335000Y-93025000D02*
X34605000Y-93025000D01*
X37780000Y-201255000D02*
X37780000Y-181290000D01*
X37780000Y-181290000D02*
X37145000Y-180655000D01*
X37145000Y-180655000D02*
X36510000Y-180020000D01*
X36510000Y-180020000D02*
X35875000Y-179385000D01*
X35875000Y-179385000D02*
X35875000Y-159700000D01*
X35875000Y-159700000D02*
X35240000Y-159065000D01*
X35240000Y-159065000D02*
X34605000Y-159065000D01*
X34605000Y-159065000D02*
X34605000Y-152080000D01*
X34605000Y-152080000D02*
X33970000Y-151445000D01*
X33970000Y-151445000D02*
X33335000Y-150810000D01*
X33335000Y-150810000D02*
X33335000Y-147000000D01*
X33335000Y-147000000D02*
X34605000Y-147000000D01*
D10*
X68205000Y-33000000D02*
X68260000Y-32700000D01*
X67625000Y-37145000D02*
X67625000Y-38415000D01*
X67625000Y-38415000D02*
X65085000Y-38415000D01*
X65085000Y-38415000D02*
X65085000Y-35875000D01*
X71755000Y-37950000D02*
X71435000Y-37780000D01*
X71435000Y-37780000D02*
X70165000Y-37780000D01*
X70165000Y-37780000D02*
X70165000Y-37145000D01*
X70165000Y-37145000D02*
X69530000Y-36510000D01*
X69530000Y-36510000D02*
X68895000Y-35875000D01*
X68895000Y-35875000D02*
X68830000Y-35875000D01*
X74755000Y-37950000D02*
X74610000Y-37780000D01*
X74610000Y-37780000D02*
X73340000Y-37780000D01*
X73340000Y-37780000D02*
X72705000Y-37145000D01*
X72705000Y-37145000D02*
X72530000Y-37325000D01*
X77755000Y-37950000D02*
X77150000Y-37780000D01*
X77150000Y-37780000D02*
X75530000Y-37780000D01*
D12*
X33950000Y-88890000D02*
X33970000Y-88580000D01*
X33970000Y-88580000D02*
X33970000Y-87945000D01*
X33970000Y-87945000D02*
X33335000Y-87310000D01*
X33335000Y-87310000D02*
X32700000Y-86675000D01*
X32700000Y-86675000D02*
X32065000Y-86040000D01*
X32065000Y-86040000D02*
X30795000Y-84770000D01*
X30795000Y-84770000D02*
X30160000Y-84135000D01*
X30160000Y-84135000D02*
X29525000Y-83500000D01*
X29525000Y-83500000D02*
X28255000Y-83500000D01*
X28255000Y-83500000D02*
X28255000Y-78965000D01*
X34605000Y-89850000D02*
X34575000Y-89665000D01*
X40050000Y-88890000D02*
X39685000Y-89215000D01*
X39685000Y-89215000D02*
X39685000Y-93660000D01*
X39685000Y-93660000D02*
X39050000Y-94295000D01*
X39050000Y-94295000D02*
X37780000Y-94295000D01*
X37780000Y-94295000D02*
X37780000Y-94375000D01*
X33950000Y-142890000D02*
X33970000Y-142555000D01*
X33970000Y-142555000D02*
X33970000Y-141920000D01*
X33970000Y-141920000D02*
X32700000Y-140650000D01*
X32700000Y-140650000D02*
X32065000Y-140015000D01*
X32065000Y-140015000D02*
X30795000Y-138745000D01*
X30795000Y-138745000D02*
X30160000Y-138110000D01*
X30160000Y-138110000D02*
X29525000Y-137475000D01*
X29525000Y-137475000D02*
X28255000Y-137475000D01*
X28255000Y-137475000D02*
X28255000Y-132965000D01*
X34605000Y-143825000D02*
X34575000Y-143665000D01*
X40050000Y-142890000D02*
X39685000Y-143190000D01*
X39685000Y-143190000D02*
X39685000Y-147635000D01*
X39685000Y-147635000D02*
X39050000Y-148270000D01*
X39050000Y-148270000D02*
X37780000Y-148270000D01*
X37780000Y-148270000D02*
X37780000Y-148375000D01*
X33950000Y-196890000D02*
X33970000Y-196530000D01*
X33970000Y-196530000D02*
X33970000Y-195895000D01*
X33970000Y-195895000D02*
X33335000Y-195260000D01*
X33335000Y-195260000D02*
X32700000Y-194625000D01*
X32700000Y-194625000D02*
X32065000Y-193990000D01*
X32065000Y-193990000D02*
X31430000Y-193355000D01*
X31430000Y-193355000D02*
X30795000Y-192720000D01*
X30795000Y-192720000D02*
X30160000Y-192085000D01*
X30160000Y-192085000D02*
X29525000Y-191450000D01*
X29525000Y-191450000D02*
X28255000Y-191450000D01*
X28255000Y-191450000D02*
X28255000Y-186965000D01*
X34605000Y-202245000D02*
X33335000Y-202245000D01*
X33335000Y-202245000D02*
X33335000Y-197665000D01*
X40050000Y-196890000D02*
X39685000Y-197165000D01*
X39685000Y-197165000D02*
X39685000Y-201610000D01*
X39685000Y-201610000D02*
X39050000Y-202245000D01*
X39050000Y-202245000D02*
X37780000Y-202245000D01*
X37780000Y-202245000D02*
X37780000Y-202375000D01*
X28000000Y-76440000D02*
X27620000Y-75880000D01*
X27620000Y-75880000D02*
X27620000Y-73330000D01*
X32000000Y-78852500D02*
X31430000Y-78420000D01*
X31430000Y-78420000D02*
X30795000Y-77785000D01*
X30795000Y-77785000D02*
X30160000Y-77150000D01*
X30160000Y-77150000D02*
X29525000Y-76515000D01*
X29525000Y-76515000D02*
X28890000Y-75880000D01*
X28890000Y-75880000D02*
X28775000Y-75880000D01*
X30000000Y-81390000D02*
X29525000Y-80960000D01*
X29525000Y-80960000D02*
X29525000Y-77150000D01*
X29525000Y-77150000D02*
X29701000Y-76974000D01*
X28000000Y-130440000D02*
X27620000Y-129855000D01*
X27620000Y-129855000D02*
X27620000Y-127315000D01*
X32000000Y-132852500D02*
X31430000Y-132395000D01*
X31430000Y-132395000D02*
X30795000Y-131760000D01*
X30795000Y-131760000D02*
X30160000Y-131760000D01*
X30160000Y-131760000D02*
X30160000Y-131125000D01*
X30160000Y-131125000D02*
X29525000Y-130490000D01*
X29525000Y-130490000D02*
X28890000Y-129855000D01*
X28890000Y-129855000D02*
X28775000Y-129855000D01*
X30000000Y-135390000D02*
X29525000Y-134935000D01*
X29525000Y-134935000D02*
X29525000Y-131760000D01*
X29525000Y-131760000D02*
X29960000Y-131760000D01*
X28000000Y-184440000D02*
X27620000Y-184465000D01*
X27620000Y-184465000D02*
X27620000Y-181290000D01*
X32000000Y-186852500D02*
X31430000Y-186370000D01*
X31430000Y-186370000D02*
X30795000Y-185735000D01*
X30795000Y-185735000D02*
X30160000Y-185735000D01*
X30160000Y-185735000D02*
X29525000Y-185100000D01*
X29525000Y-185100000D02*
X28890000Y-184465000D01*
X28890000Y-184465000D02*
X28775000Y-184465000D01*
X30000000Y-189390000D02*
X29525000Y-188910000D01*
X29525000Y-188910000D02*
X29525000Y-185735000D01*
X29525000Y-185735000D02*
X29701000Y-185559000D01*
D10*
X27000000Y-91340000D02*
X27620000Y-91755000D01*
X27620000Y-91755000D02*
X28255000Y-92390000D01*
X28255000Y-92390000D02*
X28890000Y-93025000D01*
X28890000Y-93025000D02*
X28890000Y-93105000D01*
X32050000Y-88890000D02*
X32065000Y-89215000D01*
X32065000Y-89215000D02*
X31430000Y-89850000D01*
X31430000Y-89850000D02*
X30795000Y-90485000D01*
X30795000Y-90485000D02*
X28890000Y-90485000D01*
X28890000Y-90485000D02*
X28890000Y-92390000D01*
X28890000Y-92390000D02*
X28679000Y-92601000D01*
X27000000Y-145340000D02*
X27620000Y-145730000D01*
X27620000Y-145730000D02*
X28255000Y-146365000D01*
X28255000Y-146365000D02*
X28890000Y-147000000D01*
X28890000Y-147000000D02*
X28890000Y-147105000D01*
X32050000Y-142890000D02*
X32065000Y-143190000D01*
X32065000Y-143190000D02*
X31430000Y-143825000D01*
X31430000Y-143825000D02*
X30795000Y-144460000D01*
X30795000Y-144460000D02*
X28890000Y-144460000D01*
X28890000Y-144460000D02*
X28890000Y-146365000D01*
X28890000Y-146365000D02*
X28679000Y-146576000D01*
X27000000Y-199340000D02*
X27620000Y-199705000D01*
X27620000Y-199705000D02*
X28255000Y-200340000D01*
X28255000Y-200340000D02*
X28890000Y-200975000D01*
X28890000Y-200975000D02*
X28890000Y-201105000D01*
X32050000Y-196890000D02*
X32065000Y-197165000D01*
X32065000Y-197165000D02*
X31430000Y-197800000D01*
X31430000Y-197800000D02*
X30795000Y-198435000D01*
X30795000Y-198435000D02*
X30160000Y-199070000D01*
X30160000Y-199070000D02*
X28890000Y-199070000D01*
X28890000Y-199070000D02*
X28890000Y-200340000D01*
X28890000Y-200340000D02*
X28679000Y-200551000D01*
X30795000Y-69530000D02*
X27900000Y-69530000D01*
X30795000Y-66355000D02*
X30795000Y-68260000D01*
X30795000Y-68260000D02*
X30160000Y-68895000D01*
X30160000Y-68895000D02*
X29525000Y-69530000D01*
X37455000Y-69890000D02*
X37145000Y-69530000D01*
X37145000Y-69530000D02*
X32275000Y-69530000D01*
X30795000Y-123505000D02*
X27900000Y-123505000D01*
X30795000Y-120330000D02*
X30795000Y-122235000D01*
X30795000Y-122235000D02*
X30160000Y-122870000D01*
X30160000Y-122870000D02*
X29525000Y-123505000D01*
X37455000Y-123890000D02*
X37145000Y-123505000D01*
X30795000Y-177480000D02*
X27900000Y-177480000D01*
X30795000Y-174305000D02*
X30795000Y-176210000D01*
X30795000Y-176210000D02*
X29525000Y-177480000D01*
X37455000Y-177890000D02*
X37145000Y-177480000D01*
X41905000Y-75340000D02*
X41590000Y-75245000D01*
X41590000Y-75245000D02*
X40955000Y-74610000D01*
X40955000Y-74610000D02*
X40320000Y-74610000D01*
X40320000Y-74610000D02*
X39685000Y-73975000D01*
X39685000Y-73975000D02*
X39685000Y-70665000D01*
X45955000Y-72540000D02*
X46035000Y-72705000D01*
X46035000Y-72705000D02*
X45400000Y-73340000D01*
X45400000Y-73340000D02*
X44765000Y-73975000D01*
X45955000Y-65390000D02*
X45400000Y-65720000D01*
X45400000Y-65720000D02*
X45400000Y-72070000D01*
X45400000Y-72070000D02*
X45455000Y-72070000D01*
X41905000Y-129340000D02*
X41590000Y-129220000D01*
X41590000Y-129220000D02*
X40320000Y-129220000D01*
X40320000Y-129220000D02*
X40320000Y-128585000D01*
X40320000Y-128585000D02*
X39685000Y-127950000D01*
X39685000Y-127950000D02*
X39685000Y-124665000D01*
X45955000Y-126540000D02*
X46035000Y-126680000D01*
X46035000Y-126680000D02*
X44765000Y-126680000D01*
X44765000Y-126680000D02*
X44130000Y-127315000D01*
X44130000Y-127315000D02*
X43495000Y-127950000D01*
X43495000Y-127950000D02*
X42860000Y-128585000D01*
X42860000Y-128585000D02*
X42680000Y-128715000D01*
X45955000Y-119390000D02*
X45400000Y-119695000D01*
X45400000Y-119695000D02*
X45400000Y-123505000D01*
X45400000Y-123505000D02*
X44130000Y-124775000D01*
X44130000Y-124775000D02*
X44130000Y-126680000D01*
X44130000Y-126680000D02*
X44341000Y-126891000D01*
X47855000Y-65390000D02*
X47305000Y-65720000D01*
X47305000Y-65720000D02*
X47305000Y-69690000D01*
X52905000Y-66340000D02*
X52385000Y-66355000D01*
X52385000Y-66355000D02*
X48575000Y-66355000D01*
X48575000Y-66355000D02*
X48480000Y-66165000D01*
X58355000Y-69740000D02*
X58100000Y-69530000D01*
X58100000Y-69530000D02*
X58100000Y-68260000D01*
X58100000Y-68260000D02*
X53655000Y-68260000D01*
X53655000Y-68260000D02*
X53020000Y-67625000D01*
X53020000Y-67625000D02*
X52385000Y-66990000D01*
X52385000Y-66990000D02*
X52385000Y-66965000D01*
X47855000Y-119390000D02*
X47305000Y-119695000D01*
X47305000Y-119695000D02*
X47305000Y-123690000D01*
X52905000Y-120340000D02*
X52385000Y-120330000D01*
X52385000Y-120330000D02*
X48575000Y-120330000D01*
X48575000Y-120330000D02*
X48480000Y-120165000D01*
X58355000Y-123740000D02*
X58100000Y-123505000D01*
X58100000Y-123505000D02*
X58100000Y-122235000D01*
X58100000Y-122235000D02*
X53655000Y-122235000D01*
X53655000Y-122235000D02*
X53020000Y-121600000D01*
X53020000Y-121600000D02*
X52385000Y-120965000D01*
X47855000Y-173390000D02*
X47305000Y-173670000D01*
X47305000Y-173670000D02*
X47305000Y-177690000D01*
X52905000Y-174340000D02*
X52385000Y-174305000D01*
X52385000Y-174305000D02*
X48575000Y-174305000D01*
X48575000Y-174305000D02*
X48480000Y-174165000D01*
X58355000Y-177740000D02*
X58100000Y-177480000D01*
X58100000Y-177480000D02*
X58100000Y-176210000D01*
X58100000Y-176210000D02*
X53655000Y-176210000D01*
X53655000Y-176210000D02*
X53020000Y-175575000D01*
X53020000Y-175575000D02*
X52385000Y-174940000D01*
X58100000Y-66355000D02*
X58735000Y-66990000D01*
X58735000Y-66990000D02*
X59370000Y-67625000D01*
X59370000Y-67625000D02*
X60005000Y-68260000D01*
X60005000Y-68260000D02*
X60005000Y-71435000D01*
X60005000Y-71435000D02*
X59370000Y-71435000D01*
X59370000Y-71435000D02*
X58735000Y-72070000D01*
X58735000Y-72070000D02*
X58735000Y-73340000D01*
X58735000Y-73340000D02*
X56195000Y-73340000D01*
X56195000Y-73340000D02*
X56195000Y-70165000D01*
X58100000Y-120330000D02*
X58735000Y-120965000D01*
X58735000Y-120965000D02*
X59370000Y-121600000D01*
X59370000Y-121600000D02*
X60005000Y-122235000D01*
X60005000Y-122235000D02*
X60005000Y-125410000D01*
X60005000Y-125410000D02*
X59370000Y-125410000D01*
X59370000Y-125410000D02*
X58735000Y-126045000D01*
X58735000Y-126045000D02*
X58735000Y-127315000D01*
X58735000Y-127315000D02*
X56195000Y-127315000D01*
X56195000Y-127315000D02*
X56195000Y-124140000D01*
X58100000Y-174305000D02*
X59370000Y-175575000D01*
X59370000Y-175575000D02*
X60005000Y-176210000D01*
X60005000Y-176210000D02*
X60005000Y-179385000D01*
X60005000Y-179385000D02*
X59370000Y-179385000D01*
X59370000Y-179385000D02*
X58735000Y-180020000D01*
X58735000Y-180020000D02*
X58735000Y-181290000D01*
X58735000Y-181290000D02*
X56195000Y-181290000D01*
X56195000Y-181290000D02*
X56195000Y-178115000D01*
X95890000Y-28950000D02*
X95565000Y-28890000D01*
X95565000Y-28890000D02*
X94930000Y-28890000D01*
X94930000Y-28890000D02*
X94295000Y-28255000D01*
X94295000Y-28255000D02*
X93660000Y-27620000D01*
X93660000Y-27620000D02*
X93025000Y-26985000D01*
X93025000Y-26985000D02*
X93025000Y-25080000D01*
X93025000Y-25080000D02*
X91755000Y-25080000D01*
X91755000Y-25080000D02*
X91120000Y-25715000D01*
X91120000Y-25715000D02*
X91040000Y-25715000D01*
X99890000Y-28000000D02*
X99375000Y-28255000D01*
X99375000Y-28255000D02*
X96835000Y-28255000D01*
X96835000Y-28255000D02*
X96665000Y-28325000D01*
X76760000Y-90890000D02*
X77150000Y-90485000D01*
X77150000Y-90485000D02*
X77150000Y-88580000D01*
X77150000Y-88580000D02*
X77785000Y-87945000D01*
X77785000Y-87945000D02*
X78420000Y-87310000D01*
X78420000Y-87310000D02*
X80325000Y-85405000D01*
X80325000Y-85405000D02*
X80960000Y-84770000D01*
X80960000Y-84770000D02*
X81595000Y-84135000D01*
X81595000Y-84135000D02*
X82230000Y-83500000D01*
X82230000Y-83500000D02*
X82865000Y-82865000D01*
X82865000Y-82865000D02*
X83500000Y-82230000D01*
X83500000Y-82230000D02*
X84135000Y-81595000D01*
X84135000Y-81595000D02*
X84135000Y-80325000D01*
X84135000Y-80325000D02*
X84770000Y-79690000D01*
X84770000Y-79690000D02*
X84770000Y-78420000D01*
X84770000Y-78420000D02*
X85405000Y-77785000D01*
X85405000Y-77785000D02*
X86040000Y-77150000D01*
X86040000Y-77150000D02*
X86675000Y-76515000D01*
X86675000Y-76515000D02*
X87945000Y-75245000D01*
X87945000Y-75245000D02*
X87945000Y-65085000D01*
X87945000Y-65085000D02*
X88580000Y-64450000D01*
X76760000Y-144890000D02*
X76515000Y-144460000D01*
X76515000Y-144460000D02*
X76515000Y-133030000D01*
X76515000Y-91755000D02*
X76515000Y-91665000D01*
X76760000Y-198890000D02*
X76515000Y-198435000D01*
X76515000Y-198435000D02*
X76515000Y-187640000D01*
X76515000Y-187640000D02*
X75880000Y-187005000D01*
X75880000Y-187005000D02*
X75880000Y-183830000D01*
X75880000Y-183830000D02*
X76515000Y-183195000D01*
X76515000Y-183195000D02*
X77150000Y-182560000D01*
X77150000Y-182560000D02*
X77785000Y-181925000D01*
X77785000Y-181925000D02*
X77785000Y-181290000D01*
X77785000Y-181290000D02*
X78420000Y-180655000D01*
X78420000Y-180655000D02*
X78420000Y-176210000D01*
X78420000Y-176210000D02*
X77785000Y-175575000D01*
X77785000Y-175575000D02*
X77150000Y-174940000D01*
X77150000Y-174940000D02*
X76515000Y-174305000D01*
X76515000Y-174305000D02*
X75880000Y-174305000D01*
X75880000Y-174305000D02*
X75880000Y-145730000D01*
X75880000Y-145730000D02*
X76135000Y-145665000D01*
X89850000Y-222565000D02*
X90200000Y-222565000D01*
X100300000Y-67090000D02*
X100010000Y-67625000D01*
X100010000Y-67625000D02*
X100645000Y-68260000D01*
X100645000Y-68260000D02*
X101280000Y-68260000D01*
X101280000Y-68260000D02*
X101915000Y-68895000D01*
X101915000Y-68895000D02*
X102550000Y-68895000D01*
X102550000Y-68895000D02*
X102550000Y-69530000D01*
X102550000Y-69530000D02*
X103820000Y-70800000D01*
X103820000Y-70800000D02*
X104250000Y-70800000D01*
X100300000Y-121090000D02*
X100010000Y-121600000D01*
X100010000Y-121600000D02*
X100645000Y-122235000D01*
X103820000Y-124140000D02*
X104250000Y-124140000D01*
X101915000Y-222565000D02*
X102200000Y-222565000D01*
X100300000Y-175090000D02*
X100010000Y-175575000D01*
X100010000Y-175575000D02*
X100645000Y-175575000D01*
X103820000Y-177480000D02*
X104250000Y-177480000D01*
X87550000Y-225940000D02*
X87945000Y-225740000D01*
X87945000Y-225740000D02*
X89450000Y-225740000D01*
X109300000Y-233360000D02*
X109535000Y-233360000D01*
X109535000Y-233360000D02*
X109535000Y-235265000D01*
X109535000Y-235265000D02*
X98105000Y-235265000D01*
X98105000Y-235265000D02*
X96835000Y-233995000D01*
X96835000Y-233995000D02*
X96200000Y-233360000D01*
X96200000Y-233360000D02*
X95565000Y-232725000D01*
X95565000Y-232725000D02*
X94295000Y-232725000D01*
X94295000Y-232725000D02*
X93660000Y-232090000D01*
X93660000Y-232090000D02*
X93025000Y-231455000D01*
X93025000Y-231455000D02*
X92390000Y-230820000D01*
X92390000Y-230820000D02*
X91755000Y-230185000D01*
X91755000Y-230185000D02*
X91120000Y-230185000D01*
X91120000Y-230185000D02*
X91120000Y-229550000D01*
X91120000Y-229550000D02*
X90485000Y-228915000D01*
X90485000Y-228915000D02*
X89850000Y-228280000D01*
X89850000Y-228280000D02*
X89850000Y-226830000D01*
X94295000Y-225740000D02*
X95565000Y-225740000D01*
X107400000Y-231690000D02*
X107630000Y-231455000D01*
X107630000Y-231455000D02*
X101915000Y-231455000D01*
X101915000Y-231455000D02*
X101280000Y-230820000D01*
X101280000Y-230820000D02*
X100645000Y-230185000D01*
X100645000Y-230185000D02*
X100010000Y-229550000D01*
X99550000Y-225940000D02*
X100010000Y-225740000D01*
X100010000Y-225740000D02*
X101450000Y-225740000D01*
X107400000Y-227645000D02*
X105725000Y-227645000D01*
X91850000Y-94840000D02*
X91755000Y-94295000D01*
X93660000Y-91755000D02*
X93660000Y-91835000D01*
X91120000Y-148270000D02*
X89215000Y-148270000D01*
X89215000Y-148270000D02*
X89215000Y-145730000D01*
X89215000Y-145730000D02*
X93025000Y-145730000D01*
X93025000Y-145730000D02*
X93025000Y-145835000D01*
X91120000Y-202880000D02*
X89850000Y-202880000D01*
X89850000Y-202880000D02*
X89215000Y-202245000D01*
X89215000Y-202245000D02*
X89215000Y-199705000D01*
X89215000Y-199705000D02*
X93025000Y-199705000D01*
X93025000Y-199705000D02*
X93025000Y-199835000D01*
X105850000Y-94840000D02*
X105725000Y-94295000D01*
X105725000Y-94295000D02*
X103820000Y-94295000D01*
X103820000Y-94295000D02*
X103185000Y-93660000D01*
X103185000Y-93660000D02*
X101915000Y-93660000D01*
X101915000Y-93660000D02*
X101915000Y-93405000D01*
X105850000Y-148840000D02*
X105725000Y-148270000D01*
X105725000Y-148270000D02*
X104455000Y-148270000D01*
X101915000Y-147635000D02*
X101915000Y-147405000D01*
X105850000Y-202840000D02*
X105725000Y-202880000D01*
X105725000Y-202880000D02*
X104455000Y-202880000D01*
X104455000Y-202880000D02*
X103820000Y-202245000D01*
X103820000Y-202245000D02*
X103185000Y-201610000D01*
X103185000Y-201610000D02*
X101915000Y-201610000D01*
X101915000Y-201610000D02*
X101915000Y-201405000D01*
X73340000Y-70800000D02*
X73975000Y-70800000D01*
X73975000Y-70800000D02*
X73975000Y-70405000D01*
X68310000Y-79890000D02*
X68895000Y-79690000D01*
X68895000Y-79690000D02*
X75245000Y-79690000D01*
X75245000Y-79690000D02*
X75245000Y-76515000D01*
X75245000Y-76515000D02*
X75880000Y-75880000D01*
X75880000Y-75880000D02*
X76515000Y-75245000D01*
X76515000Y-75245000D02*
X77150000Y-74610000D01*
X77150000Y-74610000D02*
X77785000Y-73975000D01*
X77785000Y-73975000D02*
X77785000Y-73340000D01*
X77785000Y-73340000D02*
X79055000Y-72070000D01*
X79055000Y-72070000D02*
X79055000Y-70800000D01*
X79055000Y-70800000D02*
X78420000Y-70165000D01*
X78420000Y-70165000D02*
X76860000Y-70165000D01*
X71860000Y-81890000D02*
X71435000Y-81595000D01*
X71435000Y-81595000D02*
X71435000Y-79690000D01*
X73340000Y-124775000D02*
X73975000Y-124775000D01*
X73975000Y-124775000D02*
X73975000Y-124405000D01*
X72070000Y-126045000D02*
X72070000Y-125965000D01*
X71860000Y-135890000D02*
X71435000Y-135570000D01*
X71435000Y-135570000D02*
X71435000Y-134935000D01*
X71435000Y-134935000D02*
X70800000Y-134300000D01*
X70800000Y-134300000D02*
X70165000Y-133665000D01*
X70165000Y-133665000D02*
X69530000Y-133030000D01*
X69530000Y-133030000D02*
X69360000Y-133030000D01*
X73340000Y-178750000D02*
X73975000Y-178750000D01*
X73975000Y-178750000D02*
X73975000Y-178405000D01*
X72070000Y-180020000D02*
X72070000Y-179965000D01*
X71860000Y-189890000D02*
X71435000Y-189545000D01*
X71435000Y-189545000D02*
X71435000Y-188910000D01*
X71435000Y-188910000D02*
X70800000Y-188275000D01*
X70800000Y-188275000D02*
X70165000Y-187640000D01*
X70165000Y-187640000D02*
X69530000Y-187005000D01*
X69530000Y-187005000D02*
X69360000Y-187005000D01*
X69810000Y-95390000D02*
X70165000Y-94930000D01*
X70165000Y-94930000D02*
X70165000Y-86675000D01*
X70165000Y-86675000D02*
X71435000Y-85405000D01*
X71435000Y-85405000D02*
X72070000Y-84770000D01*
X72070000Y-84770000D02*
X72705000Y-84135000D01*
X72705000Y-84135000D02*
X73340000Y-83500000D01*
X73340000Y-83500000D02*
X73340000Y-82665000D01*
X73340000Y-136840000D02*
X73340000Y-136665000D01*
X69810000Y-203390000D02*
X70165000Y-202880000D01*
X70165000Y-202880000D02*
X70165000Y-194625000D01*
X70165000Y-194625000D02*
X70800000Y-193990000D01*
X70800000Y-193990000D02*
X71435000Y-193355000D01*
X71435000Y-193355000D02*
X72070000Y-192720000D01*
X72070000Y-192720000D02*
X72705000Y-192085000D01*
X72705000Y-192085000D02*
X73340000Y-191450000D01*
X73340000Y-191450000D02*
X73340000Y-190665000D01*
X74860000Y-90890000D02*
X74610000Y-91120000D01*
X74610000Y-91120000D02*
X73975000Y-91755000D01*
X73975000Y-91755000D02*
X73975000Y-96835000D01*
X73975000Y-96835000D02*
X68260000Y-96835000D01*
X68260000Y-96835000D02*
X68260000Y-96200000D01*
X68260000Y-96200000D02*
X68170000Y-96200000D01*
X74860000Y-144890000D02*
X74610000Y-145095000D01*
X74610000Y-145095000D02*
X71435000Y-145095000D01*
X71435000Y-145095000D02*
X70800000Y-145730000D01*
X70800000Y-145730000D02*
X70165000Y-146365000D01*
X70165000Y-146365000D02*
X68895000Y-147635000D01*
X68895000Y-147635000D02*
X68260000Y-147635000D01*
X68260000Y-147635000D02*
X68260000Y-148270000D01*
X68260000Y-148270000D02*
X68170000Y-148490000D01*
X74860000Y-198890000D02*
X74610000Y-199070000D01*
X74610000Y-199070000D02*
X73975000Y-199705000D01*
X73975000Y-199705000D02*
X73975000Y-205420000D01*
X73975000Y-205420000D02*
X68260000Y-205420000D01*
X68260000Y-205420000D02*
X68260000Y-204150000D01*
X68260000Y-204150000D02*
X68170000Y-204150000D01*
X61910000Y-91120000D02*
X62545000Y-91755000D01*
X62545000Y-91755000D02*
X63180000Y-91755000D01*
X63180000Y-91755000D02*
X63815000Y-92390000D01*
X63815000Y-92390000D02*
X68260000Y-92390000D01*
X68260000Y-92390000D02*
X68895000Y-93025000D01*
X61910000Y-145095000D02*
X62545000Y-145730000D01*
X62545000Y-145730000D02*
X63180000Y-146365000D01*
X63180000Y-146365000D02*
X63815000Y-147000000D01*
X61910000Y-199070000D02*
X62545000Y-199705000D01*
X62545000Y-199705000D02*
X63180000Y-199705000D01*
X63180000Y-199705000D02*
X63815000Y-200340000D01*
X63815000Y-200340000D02*
X68260000Y-200340000D01*
X68260000Y-200340000D02*
X68895000Y-200975000D01*
X77360000Y-77390000D02*
X77150000Y-77150000D01*
X77150000Y-77150000D02*
X77150000Y-75880000D01*
X76515000Y-73340000D02*
X76515000Y-73145000D01*
X77360000Y-131390000D02*
X77785000Y-131125000D01*
X77785000Y-131125000D02*
X77785000Y-129220000D01*
X77785000Y-126680000D02*
X76860000Y-126680000D01*
X73975000Y-132395000D02*
X73975000Y-133030000D01*
X77360000Y-185390000D02*
X77150000Y-185100000D01*
X77150000Y-185100000D02*
X77150000Y-183830000D01*
X76515000Y-181290000D02*
X76515000Y-181145000D01*
X73975000Y-186370000D02*
X74610000Y-185735000D01*
X85405000Y-72705000D02*
X84770000Y-72705000D01*
X84770000Y-72705000D02*
X84135000Y-72070000D01*
X84135000Y-72070000D02*
X82865000Y-72070000D01*
X82865000Y-72070000D02*
X82865000Y-71675000D01*
X79260000Y-77390000D02*
X79690000Y-77150000D01*
X79690000Y-77150000D02*
X80325000Y-76515000D01*
X80325000Y-76515000D02*
X80960000Y-75880000D01*
X80960000Y-75880000D02*
X81595000Y-75245000D01*
X81595000Y-75245000D02*
X82230000Y-74610000D01*
X82230000Y-74610000D02*
X82865000Y-74610000D01*
X82865000Y-74610000D02*
X83500000Y-73975000D01*
X83500000Y-73975000D02*
X84135000Y-73340000D01*
X84135000Y-73340000D02*
X84135000Y-72705000D01*
X84135000Y-72705000D02*
X84346000Y-72494000D01*
X99350000Y-71435000D02*
X99375000Y-71435000D01*
X99375000Y-71435000D02*
X98105000Y-71435000D01*
X85405000Y-126680000D02*
X84770000Y-126680000D01*
X84770000Y-126680000D02*
X84135000Y-126045000D01*
X84135000Y-126045000D02*
X82865000Y-126045000D01*
X82865000Y-126045000D02*
X82865000Y-125675000D01*
X79260000Y-131390000D02*
X79690000Y-131125000D01*
X79690000Y-131125000D02*
X80325000Y-130490000D01*
X99350000Y-125410000D02*
X99375000Y-125410000D01*
X99375000Y-125410000D02*
X98105000Y-125410000D01*
X85405000Y-180655000D02*
X84770000Y-180655000D01*
X84770000Y-180655000D02*
X84135000Y-180020000D01*
X84135000Y-180020000D02*
X82865000Y-180020000D01*
X82865000Y-180020000D02*
X82865000Y-179675000D01*
X79260000Y-185390000D02*
X79690000Y-185100000D01*
X79690000Y-185100000D02*
X80325000Y-184465000D01*
X80325000Y-184465000D02*
X80960000Y-183830000D01*
X80960000Y-183830000D02*
X81595000Y-183195000D01*
X81595000Y-183195000D02*
X82230000Y-182560000D01*
X82230000Y-182560000D02*
X82865000Y-182560000D01*
X82865000Y-182560000D02*
X83500000Y-181925000D01*
X83500000Y-181925000D02*
X84135000Y-181290000D01*
X84135000Y-181290000D02*
X84135000Y-180655000D01*
X84135000Y-180655000D02*
X84346000Y-180444000D01*
X99350000Y-179385000D02*
X99375000Y-179385000D01*
X99375000Y-179385000D02*
X98105000Y-179385000D01*
X99825000Y-94525000D02*
X99375000Y-94295000D01*
X99825000Y-148525000D02*
X99375000Y-148270000D01*
X88580000Y-126680000D02*
X87945000Y-126045000D01*
X87945000Y-126045000D02*
X87945000Y-125410000D01*
X87945000Y-125410000D02*
X85405000Y-125410000D01*
X85405000Y-125410000D02*
X84770000Y-124775000D01*
X84770000Y-124775000D02*
X82865000Y-124775000D01*
X82865000Y-124775000D02*
X82865000Y-124405000D01*
X99825000Y-202525000D02*
X99375000Y-202245000D01*
X27500000Y-99340000D02*
X26985000Y-99375000D01*
X26985000Y-99375000D02*
X26350000Y-98740000D01*
X26350000Y-98740000D02*
X25715000Y-98740000D01*
X25715000Y-98740000D02*
X25080000Y-98105000D01*
X25080000Y-98105000D02*
X25080000Y-95565000D01*
X25080000Y-95565000D02*
X26350000Y-95565000D01*
X26350000Y-95565000D02*
X26985000Y-94930000D01*
X26985000Y-94930000D02*
X28255000Y-94930000D01*
X28255000Y-94930000D02*
X28255000Y-94675000D01*
X29550000Y-101890000D02*
X29525000Y-101280000D01*
X29525000Y-101280000D02*
X29525000Y-100010000D01*
X29525000Y-100010000D02*
X28890000Y-99375000D01*
X28890000Y-99375000D02*
X28255000Y-98740000D01*
X27500000Y-153340000D02*
X26985000Y-153350000D01*
X26985000Y-153350000D02*
X26350000Y-152715000D01*
X26350000Y-152715000D02*
X25715000Y-152715000D01*
X25715000Y-152715000D02*
X25080000Y-152080000D01*
X25080000Y-152080000D02*
X25080000Y-149540000D01*
X25080000Y-149540000D02*
X26350000Y-149540000D01*
X26350000Y-149540000D02*
X26985000Y-148905000D01*
X26985000Y-148905000D02*
X28255000Y-148905000D01*
X28255000Y-148905000D02*
X28255000Y-148675000D01*
X29550000Y-155890000D02*
X29525000Y-155255000D01*
X29525000Y-155255000D02*
X29525000Y-154620000D01*
X29525000Y-154620000D02*
X28890000Y-153985000D01*
X28890000Y-153985000D02*
X28255000Y-153350000D01*
X27500000Y-207340000D02*
X26985000Y-207325000D01*
X26985000Y-207325000D02*
X26350000Y-206690000D01*
X26350000Y-206690000D02*
X25715000Y-206690000D01*
X25715000Y-206690000D02*
X25080000Y-206055000D01*
X25080000Y-206055000D02*
X25080000Y-203515000D01*
X25080000Y-203515000D02*
X26350000Y-203515000D01*
X26350000Y-203515000D02*
X26985000Y-202880000D01*
X26985000Y-202880000D02*
X28255000Y-202880000D01*
X28255000Y-202880000D02*
X28255000Y-202675000D01*
X29525000Y-209230000D02*
X29525000Y-208595000D01*
X29525000Y-208595000D02*
X28890000Y-207960000D01*
X28890000Y-207960000D02*
X28255000Y-207325000D01*
X39000000Y-211390000D02*
X38415000Y-211135000D01*
X38415000Y-211135000D02*
X38415000Y-209865000D01*
X38415000Y-209865000D02*
X34605000Y-209865000D01*
X34605000Y-209865000D02*
X33970000Y-209230000D01*
X33970000Y-209230000D02*
X32700000Y-207960000D01*
X32700000Y-207960000D02*
X29525000Y-207960000D01*
X29525000Y-207960000D02*
X29314000Y-208171000D01*
X31050000Y-105390000D02*
X31430000Y-105090000D01*
X31050000Y-159390000D02*
X31430000Y-159065000D01*
X31050000Y-213390000D02*
X31430000Y-213040000D01*
X31430000Y-213040000D02*
X31430000Y-211770000D01*
X31430000Y-211770000D02*
X35560000Y-211770000D01*
X95890000Y-38950000D02*
X95565000Y-38415000D01*
X95565000Y-38415000D02*
X94295000Y-38415000D01*
X94295000Y-38415000D02*
X93660000Y-37780000D01*
X93660000Y-37780000D02*
X93025000Y-37145000D01*
X93025000Y-37145000D02*
X93025000Y-35240000D01*
X93025000Y-35240000D02*
X91040000Y-35240000D01*
X90485000Y-35875000D02*
X90540000Y-36100000D01*
X94875000Y-93255000D02*
X94295000Y-93025000D01*
X94295000Y-93025000D02*
X94295000Y-94295000D01*
X91350000Y-98840000D02*
X91755000Y-98740000D01*
X90400000Y-89390000D02*
X90485000Y-89850000D01*
X90485000Y-89850000D02*
X91120000Y-90485000D01*
X91120000Y-90485000D02*
X91120000Y-91120000D01*
X91120000Y-91120000D02*
X91755000Y-91120000D01*
X94875000Y-147255000D02*
X94295000Y-147000000D01*
X94295000Y-147000000D02*
X94295000Y-148270000D01*
X91350000Y-152840000D02*
X91755000Y-152715000D01*
X93660000Y-148270000D02*
X93660000Y-148375000D01*
X90400000Y-143390000D02*
X89850000Y-143825000D01*
X89850000Y-143825000D02*
X89215000Y-144460000D01*
X89215000Y-144460000D02*
X88580000Y-144460000D01*
X88580000Y-144460000D02*
X87945000Y-145095000D01*
X87945000Y-145095000D02*
X87945000Y-148905000D01*
X87945000Y-148905000D02*
X88580000Y-149540000D01*
X88580000Y-149540000D02*
X88580000Y-152080000D01*
X88580000Y-152080000D02*
X90485000Y-152080000D01*
X90485000Y-152080000D02*
X90575000Y-152215000D01*
X94875000Y-201255000D02*
X94295000Y-200975000D01*
X94295000Y-200975000D02*
X94295000Y-202245000D01*
X91350000Y-206840000D02*
X91755000Y-206690000D01*
X93660000Y-202245000D02*
X93660000Y-202375000D01*
X90400000Y-197390000D02*
X89850000Y-197800000D01*
X89850000Y-197800000D02*
X89215000Y-198435000D01*
X89215000Y-198435000D02*
X88580000Y-198435000D01*
X88580000Y-198435000D02*
X87945000Y-199070000D01*
X87945000Y-199070000D02*
X87945000Y-202880000D01*
X87945000Y-202880000D02*
X88580000Y-203515000D01*
X88580000Y-203515000D02*
X88580000Y-206055000D01*
X88580000Y-206055000D02*
X90485000Y-206055000D01*
X90485000Y-206055000D02*
X90575000Y-206215000D01*
X105850000Y-98940000D02*
X106360000Y-98740000D01*
X106360000Y-98740000D02*
X106360000Y-97470000D01*
X106360000Y-97470000D02*
X107630000Y-96200000D01*
X107630000Y-96200000D02*
X107630000Y-93660000D01*
X107630000Y-93660000D02*
X106995000Y-93660000D01*
X106995000Y-93660000D02*
X106625000Y-93565000D01*
X105850000Y-152940000D02*
X106360000Y-152715000D01*
X106360000Y-152715000D02*
X106360000Y-151445000D01*
X106360000Y-151445000D02*
X106995000Y-150810000D01*
X106995000Y-150810000D02*
X107630000Y-150175000D01*
X107630000Y-150175000D02*
X107630000Y-147635000D01*
X107630000Y-147635000D02*
X106995000Y-147635000D01*
X106995000Y-147635000D02*
X106625000Y-147565000D01*
X105850000Y-206940000D02*
X106360000Y-206690000D01*
X106360000Y-206690000D02*
X106360000Y-205420000D01*
X106360000Y-205420000D02*
X106995000Y-204785000D01*
X106995000Y-204785000D02*
X107630000Y-204150000D01*
X107630000Y-204150000D02*
X107630000Y-201610000D01*
X107630000Y-201610000D02*
X106995000Y-201610000D01*
X106995000Y-201610000D02*
X106625000Y-201565000D01*
X118425000Y-67625000D02*
X106925000Y-67625000D01*
X106995000Y-122235000D02*
X106925000Y-121865000D01*
X106995000Y-176210000D02*
X106925000Y-175865000D01*
X111850000Y-230440000D02*
X111440000Y-230185000D01*
X111440000Y-230185000D02*
X110805000Y-230185000D01*
X110805000Y-230185000D02*
X110170000Y-229550000D01*
X110170000Y-229550000D02*
X109535000Y-228915000D01*
X111500000Y-238890000D02*
X111440000Y-238440000D01*
X111440000Y-238440000D02*
X111440000Y-232965000D01*
X119000000Y-229890000D02*
X118425000Y-230185000D01*
X118425000Y-230185000D02*
X117155000Y-230185000D01*
X117155000Y-230185000D02*
X116520000Y-230820000D01*
X116520000Y-230820000D02*
X114615000Y-230820000D01*
X114615000Y-230820000D02*
X114615000Y-231455000D01*
X114615000Y-231455000D02*
X113980000Y-232090000D01*
X113980000Y-232090000D02*
X113345000Y-232725000D01*
X113345000Y-232725000D02*
X112710000Y-233360000D01*
X112710000Y-233360000D02*
X112625000Y-232965000D01*
X49000000Y-92340000D02*
X49210000Y-92390000D01*
X49210000Y-92390000D02*
X54290000Y-92390000D01*
X54290000Y-92390000D02*
X54925000Y-93025000D01*
X54925000Y-93025000D02*
X55560000Y-93660000D01*
X55560000Y-93660000D02*
X56830000Y-94930000D01*
X56830000Y-94930000D02*
X57465000Y-95565000D01*
X57465000Y-95565000D02*
X58100000Y-96200000D01*
X58100000Y-96200000D02*
X62545000Y-96200000D01*
X62545000Y-96200000D02*
X63180000Y-96835000D01*
X63180000Y-96835000D02*
X63815000Y-97470000D01*
X63815000Y-97470000D02*
X64450000Y-98105000D01*
X64450000Y-98105000D02*
X66355000Y-98105000D01*
X66355000Y-98105000D02*
X66990000Y-98740000D01*
X66990000Y-98740000D02*
X75245000Y-98740000D01*
X75245000Y-98740000D02*
X75880000Y-98105000D01*
X75880000Y-98105000D02*
X75880000Y-94930000D01*
X75880000Y-94930000D02*
X78420000Y-92390000D01*
X78420000Y-92390000D02*
X78420000Y-89215000D01*
X78420000Y-89215000D02*
X79055000Y-88580000D01*
X79055000Y-88580000D02*
X79690000Y-87945000D01*
X79690000Y-87945000D02*
X80325000Y-87310000D01*
X80325000Y-87310000D02*
X80960000Y-86675000D01*
X80960000Y-86675000D02*
X81595000Y-86040000D01*
X81595000Y-86040000D02*
X82230000Y-85405000D01*
X82230000Y-85405000D02*
X82865000Y-84770000D01*
X82865000Y-84770000D02*
X83500000Y-84135000D01*
X83500000Y-84135000D02*
X84135000Y-83500000D01*
X84135000Y-83500000D02*
X84770000Y-82865000D01*
X84770000Y-82865000D02*
X85405000Y-82230000D01*
X85405000Y-82230000D02*
X85405000Y-80960000D01*
X85405000Y-80960000D02*
X86040000Y-80325000D01*
X86040000Y-80325000D02*
X86040000Y-79055000D01*
X86040000Y-79055000D02*
X86675000Y-78420000D01*
X86675000Y-78420000D02*
X89215000Y-75880000D01*
X89215000Y-75880000D02*
X89215000Y-66355000D01*
X89215000Y-66355000D02*
X89850000Y-65720000D01*
X89850000Y-65720000D02*
X89850000Y-65085000D01*
X102550000Y-32065000D02*
X102550000Y-31840000D01*
X45500000Y-92340000D02*
X46035000Y-91755000D01*
X46035000Y-91755000D02*
X48225000Y-91755000D01*
X41950000Y-88890000D02*
X42225000Y-89215000D01*
X42225000Y-89215000D02*
X42860000Y-89850000D01*
X42860000Y-89850000D02*
X42860000Y-90485000D01*
X42860000Y-90485000D02*
X43495000Y-91120000D01*
X43495000Y-91120000D02*
X44130000Y-91755000D01*
X44130000Y-91755000D02*
X44765000Y-91755000D01*
X49000000Y-146340000D02*
X48575000Y-146365000D01*
X48575000Y-146365000D02*
X47940000Y-145730000D01*
X47940000Y-145730000D02*
X44130000Y-145730000D01*
X44130000Y-145730000D02*
X43495000Y-145095000D01*
X43495000Y-145095000D02*
X42860000Y-144460000D01*
X42860000Y-144460000D02*
X42225000Y-143825000D01*
X42225000Y-143825000D02*
X41590000Y-143190000D01*
X92390000Y-33970000D02*
X102550000Y-33970000D01*
X102550000Y-33970000D02*
X102550000Y-34080000D01*
X41950000Y-142890000D02*
X41590000Y-142555000D01*
X41590000Y-142555000D02*
X41590000Y-142790000D01*
X44765000Y-146365000D02*
X44765000Y-145730000D01*
X85255000Y-31450000D02*
X85405000Y-31430000D01*
X85405000Y-31430000D02*
X85405000Y-30795000D01*
X86040000Y-24445000D02*
X86030000Y-24445000D01*
X85255000Y-36450000D02*
X85405000Y-35875000D01*
X85405000Y-35875000D02*
X86675000Y-35875000D01*
X86675000Y-35875000D02*
X86675000Y-32700000D01*
X86675000Y-32700000D02*
X86040000Y-32065000D01*
X86040000Y-32065000D02*
X86030000Y-32065000D01*
X109470000Y-32960000D02*
X108900000Y-32700000D01*
X108900000Y-32700000D02*
X107630000Y-32700000D01*
X107630000Y-32700000D02*
X107630000Y-32065000D01*
X107630000Y-32065000D02*
X106995000Y-32065000D01*
X106995000Y-32065000D02*
X106995000Y-31430000D01*
X106995000Y-31430000D02*
X106360000Y-30795000D01*
X106360000Y-30795000D02*
X105725000Y-30160000D01*
X105725000Y-30160000D02*
X105090000Y-29525000D01*
X105090000Y-29525000D02*
X104455000Y-28890000D01*
X104455000Y-28890000D02*
X103820000Y-28255000D01*
X103820000Y-28255000D02*
X103185000Y-27620000D01*
X103185000Y-27620000D02*
X102550000Y-26985000D01*
X102550000Y-26985000D02*
X101915000Y-26350000D01*
X101915000Y-26350000D02*
X98105000Y-26350000D01*
X98105000Y-26350000D02*
X97470000Y-25715000D01*
X97470000Y-25715000D02*
X96200000Y-25715000D01*
X96200000Y-25715000D02*
X95565000Y-25080000D01*
X95565000Y-25080000D02*
X94930000Y-25080000D01*
X94930000Y-25080000D02*
X94295000Y-24445000D01*
X94295000Y-24445000D02*
X93660000Y-23810000D01*
X93660000Y-23810000D02*
X90485000Y-23810000D01*
X90485000Y-23810000D02*
X89850000Y-24445000D01*
X89850000Y-24445000D02*
X86440000Y-24445000D01*
X116520000Y-49500000D02*
X115885000Y-49210000D01*
X115885000Y-49210000D02*
X115885000Y-47305000D01*
X115885000Y-47305000D02*
X115250000Y-46670000D01*
X115250000Y-46670000D02*
X114615000Y-46035000D01*
X114615000Y-46035000D02*
X113980000Y-45400000D01*
X113980000Y-45400000D02*
X112710000Y-44130000D01*
X112710000Y-44130000D02*
X112075000Y-43495000D01*
X112075000Y-43495000D02*
X112075000Y-42860000D01*
X112075000Y-42860000D02*
X111745000Y-42775000D01*
X118425000Y-49210000D02*
X118425000Y-42775000D01*
X112710000Y-31430000D02*
X112710000Y-31540000D01*
X70165000Y-71340000D02*
X70800000Y-70800000D01*
X72705000Y-177440000D02*
X72705000Y-176845000D01*
X70165000Y-179340000D02*
X70800000Y-178750000D01*
X110805000Y-50480000D02*
X111440000Y-50480000D01*
X111440000Y-50480000D02*
X112075000Y-51115000D01*
X112075000Y-51115000D02*
X120965000Y-51115000D01*
X120965000Y-51115000D02*
X120965000Y-41590000D01*
X120965000Y-41590000D02*
X121600000Y-40955000D01*
X121600000Y-40955000D02*
X122235000Y-40320000D01*
X122235000Y-40320000D02*
X122235000Y-33335000D01*
X122235000Y-33335000D02*
X120965000Y-33335000D01*
X120965000Y-33335000D02*
X120965000Y-33110000D01*
X108265000Y-50480000D02*
X108900000Y-49845000D01*
X108900000Y-49845000D02*
X109535000Y-49845000D01*
X105090000Y-48550000D02*
X105725000Y-48575000D01*
X105725000Y-48575000D02*
X105725000Y-47305000D01*
X105725000Y-47305000D02*
X106360000Y-47305000D01*
X106360000Y-47305000D02*
X106995000Y-46670000D01*
X106995000Y-46670000D02*
X107630000Y-46035000D01*
X107630000Y-46035000D02*
X110805000Y-46035000D01*
X110805000Y-46035000D02*
X111440000Y-46670000D01*
X111440000Y-46670000D02*
X112075000Y-47305000D01*
X112075000Y-47305000D02*
X112075000Y-49845000D01*
X112075000Y-49845000D02*
X110805000Y-49845000D01*
X104400000Y-67090000D02*
X104400000Y-67090000D01*
X104400000Y-121090000D02*
X104400000Y-121090000D01*
X104400000Y-175090000D02*
X104400000Y-175090000D01*
D11*
X42700000Y-27724000D02*
X43350000Y-28850000D01*
X73881000Y-24887000D02*
X72755000Y-25537500D01*
X77881000Y-24887000D02*
X76755000Y-25537500D01*
X33126000Y-75277000D02*
X32000000Y-75927500D01*
X45400000Y-36200000D02*
X45650000Y-35150000D01*
X49845000Y-39050000D02*
X50850000Y-40000000D01*
X58100000Y-63815000D02*
X57405000Y-64440000D01*
X77150000Y-65665000D02*
X77360000Y-64890000D01*
X98105000Y-63180000D02*
X98400000Y-63890000D01*
X76735000Y-64115000D02*
X77360000Y-64890000D01*
X98105000Y-64665000D02*
X98400000Y-63890000D01*
X104455000Y-50480000D02*
X105090000Y-50450000D01*
X100645000Y-91755000D02*
X99825000Y-91985000D01*
X100775000Y-89665000D02*
X101400000Y-88890000D01*
X95565000Y-95565000D02*
X94875000Y-95795000D01*
X98800000Y-91755000D02*
X99825000Y-91985000D01*
X98105000Y-117155000D02*
X98400000Y-117890000D01*
X98740000Y-118665000D02*
X98400000Y-117890000D01*
X58100000Y-118425000D02*
X57405000Y-118440000D01*
X91755000Y-88615000D02*
X92300000Y-89390000D01*
X56630000Y-117815000D02*
X57405000Y-118440000D01*
X100645000Y-145730000D02*
X99825000Y-145985000D01*
X100775000Y-143665000D02*
X101400000Y-142890000D01*
X95565000Y-149540000D02*
X94875000Y-149795000D01*
X97775000Y-118425000D02*
X98400000Y-117890000D01*
X98740000Y-172665000D02*
X98400000Y-171890000D01*
X81595000Y-176845000D02*
X80785000Y-176985000D01*
X79760000Y-122635000D02*
X80785000Y-122985000D01*
X58100000Y-172400000D02*
X57405000Y-172440000D01*
X101915000Y-143665000D02*
X101400000Y-142890000D01*
X100645000Y-199705000D02*
X99825000Y-199985000D01*
X100775000Y-197665000D02*
X101400000Y-196890000D01*
X95565000Y-203515000D02*
X94875000Y-203795000D01*
X108025000Y-226165000D02*
X107400000Y-225390000D01*
X106745000Y-225105000D02*
X107400000Y-225390000D01*
X98775000Y-227215000D02*
X99550000Y-227840000D01*
D10*
X116520000Y-41590000D02*
X116840000Y-42000000D01*
X117155000Y-41225000D02*
X116840000Y-42000000D01*
X108900000Y-41590000D02*
X109220000Y-42000000D01*
X105545000Y-39050000D02*
X104520000Y-39310000D01*
X113980000Y-39050000D02*
X114045000Y-39310000D01*
D11*
X36400000Y-39685000D02*
X35350000Y-39500000D01*
X40320000Y-35875000D02*
X41050000Y-35150000D01*
X36400000Y-38450000D02*
X35350000Y-39500000D01*
X56830000Y-33335000D02*
X59255000Y-33100000D01*
X40955000Y-34100000D02*
X41050000Y-35150000D01*
X58030000Y-25575000D02*
X57255000Y-24950000D01*
X62205000Y-33970000D02*
X59255000Y-33100000D01*
X62205000Y-28255000D02*
X59255000Y-28900000D01*
D12*
X75880000Y-28255000D02*
X76755000Y-28462500D01*
X74205000Y-28255000D02*
X72755000Y-28462500D01*
X80325000Y-27620000D02*
X81255000Y-27000000D01*
X77705000Y-28255000D02*
X76755000Y-28462500D01*
X84770000Y-25715000D02*
X85255000Y-25950000D01*
X71435000Y-29088000D02*
X72755000Y-28462500D01*
X66355000Y-35875000D02*
X66305000Y-36500000D01*
X34605000Y-93025000D02*
X35475000Y-93255000D01*
X34605000Y-147000000D02*
X35475000Y-147255000D01*
D10*
X68260000Y-32700000D02*
X68205000Y-33000000D01*
X67625000Y-37145000D02*
X68205000Y-36500000D01*
X68830000Y-35875000D02*
X68205000Y-36500000D01*
X72530000Y-37325000D02*
X71755000Y-37950000D01*
X75530000Y-37780000D02*
X74755000Y-37950000D01*
D12*
X28255000Y-78965000D02*
X28000000Y-78340000D01*
X34605000Y-89850000D02*
X33950000Y-88890000D01*
X34575000Y-89665000D02*
X33950000Y-88890000D01*
X28255000Y-132965000D02*
X28000000Y-132340000D01*
X34605000Y-143825000D02*
X33950000Y-142890000D01*
X34575000Y-143665000D02*
X33950000Y-142890000D01*
X28255000Y-186965000D02*
X28000000Y-186340000D01*
X34605000Y-202245000D02*
X35475000Y-202525000D01*
X33335000Y-197665000D02*
X33950000Y-196890000D01*
X27620000Y-73330000D02*
X27000000Y-72430000D01*
X28775000Y-75880000D02*
X28000000Y-76440000D01*
X27620000Y-127315000D02*
X27000000Y-126430000D01*
X28775000Y-129855000D02*
X28000000Y-130440000D01*
X27620000Y-181290000D02*
X27000000Y-180430000D01*
X28775000Y-184465000D02*
X28000000Y-184440000D01*
D10*
X30795000Y-69530000D02*
X31500000Y-69940000D01*
X27900000Y-69530000D02*
X27000000Y-69890000D01*
X30795000Y-66355000D02*
X31500000Y-65890000D01*
X32275000Y-69530000D02*
X31500000Y-69940000D01*
X30795000Y-123505000D02*
X31500000Y-123940000D01*
X27900000Y-123505000D02*
X27000000Y-123890000D01*
X30795000Y-120330000D02*
X31500000Y-119890000D01*
X37145000Y-123505000D02*
X37455000Y-123890000D01*
X30795000Y-177480000D02*
X31500000Y-177940000D01*
X27900000Y-177480000D02*
X27000000Y-177890000D01*
X30795000Y-174305000D02*
X31500000Y-173890000D01*
X37145000Y-177480000D02*
X37455000Y-177890000D01*
X39685000Y-70665000D02*
X39355000Y-69890000D01*
X45455000Y-72070000D02*
X45955000Y-72540000D01*
X39685000Y-124665000D02*
X39355000Y-123890000D01*
X42680000Y-128715000D02*
X41905000Y-129340000D01*
X47305000Y-69690000D02*
X46905000Y-70240000D01*
X48480000Y-66165000D02*
X47855000Y-65390000D01*
X52385000Y-66965000D02*
X52905000Y-66340000D01*
X47305000Y-123690000D02*
X46905000Y-124240000D01*
X48480000Y-120165000D02*
X47855000Y-119390000D01*
X52385000Y-120965000D02*
X52905000Y-120340000D01*
X47305000Y-177690000D02*
X46905000Y-178240000D01*
X48480000Y-174165000D02*
X47855000Y-173390000D01*
X52385000Y-174940000D02*
X52905000Y-174340000D01*
X58100000Y-66355000D02*
X57405000Y-66340000D01*
X56195000Y-70165000D02*
X56455000Y-69740000D01*
X58100000Y-120330000D02*
X57405000Y-120340000D01*
X56195000Y-124140000D02*
X56455000Y-123740000D01*
X58100000Y-174305000D02*
X57405000Y-174340000D01*
X56195000Y-178115000D02*
X56455000Y-177740000D01*
X96665000Y-28325000D02*
X95890000Y-28950000D01*
X76515000Y-91755000D02*
X76760000Y-90890000D01*
X76515000Y-91665000D02*
X76760000Y-90890000D01*
X76135000Y-145665000D02*
X76760000Y-144890000D01*
X89850000Y-222565000D02*
X90350000Y-223390000D01*
X90200000Y-222565000D02*
X90350000Y-223390000D01*
X101915000Y-222565000D02*
X102350000Y-223390000D01*
X102200000Y-222565000D02*
X102350000Y-223390000D01*
X100645000Y-175575000D02*
X100300000Y-175090000D01*
X89450000Y-225740000D02*
X90350000Y-225930000D01*
X89850000Y-226830000D02*
X90350000Y-225930000D01*
X94295000Y-225740000D02*
X93550000Y-225940000D01*
X95565000Y-225740000D02*
X96350000Y-225930000D01*
X101450000Y-225740000D02*
X102350000Y-225930000D01*
X91755000Y-94295000D02*
X91850000Y-94840000D01*
X91120000Y-148270000D02*
X91850000Y-148840000D01*
X91120000Y-202880000D02*
X91850000Y-202840000D01*
X73340000Y-70800000D02*
X72705000Y-71340000D01*
X76860000Y-70165000D02*
X75835000Y-70255000D01*
X73340000Y-124775000D02*
X72705000Y-125340000D01*
X72070000Y-126045000D02*
X72705000Y-125340000D01*
X72070000Y-125965000D02*
X72705000Y-125340000D01*
X69360000Y-133030000D02*
X68310000Y-133890000D01*
X73340000Y-178750000D02*
X72705000Y-179340000D01*
X72070000Y-180020000D02*
X72705000Y-179340000D01*
X72070000Y-179965000D02*
X72705000Y-179340000D01*
X69360000Y-187005000D02*
X68310000Y-187890000D01*
X73340000Y-82665000D02*
X73760000Y-81890000D01*
X73340000Y-136665000D02*
X73760000Y-135890000D01*
X73340000Y-190665000D02*
X73760000Y-189890000D01*
X68170000Y-96200000D02*
X67270000Y-95390000D01*
X68170000Y-148490000D02*
X67270000Y-149390000D01*
X68170000Y-204150000D02*
X67270000Y-203390000D01*
X61910000Y-91120000D02*
X61860000Y-90390000D01*
X61910000Y-145095000D02*
X61860000Y-144390000D01*
X61910000Y-199070000D02*
X61860000Y-198390000D01*
X76515000Y-73145000D02*
X75835000Y-72795000D01*
X76860000Y-126680000D02*
X75835000Y-126795000D01*
X73975000Y-132395000D02*
X73310000Y-132340000D01*
X73975000Y-133030000D02*
X73310000Y-132340000D01*
X76515000Y-181290000D02*
X75835000Y-180795000D01*
X76515000Y-181145000D02*
X75835000Y-180795000D01*
X73975000Y-186370000D02*
X73310000Y-186340000D01*
X85405000Y-72705000D02*
X85810000Y-73390000D01*
X85405000Y-126680000D02*
X85810000Y-127390000D01*
X85405000Y-180655000D02*
X85810000Y-181390000D01*
X99375000Y-94295000D02*
X99825000Y-94525000D01*
X99375000Y-148270000D02*
X99825000Y-148525000D01*
X99375000Y-202245000D02*
X99825000Y-202525000D01*
X28255000Y-98740000D02*
X27500000Y-99340000D01*
X28255000Y-153350000D02*
X27500000Y-153340000D01*
X29525000Y-209230000D02*
X29550000Y-209890000D01*
X28255000Y-207325000D02*
X27500000Y-207340000D01*
X31430000Y-105090000D02*
X31050000Y-105390000D01*
X31430000Y-159065000D02*
X31050000Y-159390000D01*
X35560000Y-211770000D02*
X36460000Y-211390000D01*
X90540000Y-36100000D02*
X90890000Y-36700000D01*
X94295000Y-94295000D02*
X94875000Y-94525000D01*
X91755000Y-98740000D02*
X91350000Y-98840000D01*
X94295000Y-148270000D02*
X94875000Y-148525000D01*
X91755000Y-152715000D02*
X91350000Y-152840000D01*
X90575000Y-152215000D02*
X91350000Y-152840000D01*
X94295000Y-202245000D02*
X94875000Y-202525000D01*
X91755000Y-206690000D02*
X91350000Y-206840000D01*
X90575000Y-206215000D02*
X91350000Y-206840000D01*
X106625000Y-93565000D02*
X105850000Y-92940000D01*
X106625000Y-147565000D02*
X105850000Y-146940000D01*
X106625000Y-201565000D02*
X105850000Y-200940000D01*
X118425000Y-67625000D02*
X119000000Y-68390000D01*
X106925000Y-67625000D02*
X106300000Y-67090000D01*
X106925000Y-121865000D02*
X106300000Y-121090000D01*
X106925000Y-175865000D02*
X106300000Y-175090000D01*
X109535000Y-228915000D02*
X109300000Y-229090000D01*
X111440000Y-232965000D02*
X111850000Y-232340000D01*
X112625000Y-232965000D02*
X111850000Y-232340000D01*
X48225000Y-91755000D02*
X49000000Y-92340000D01*
X44765000Y-91755000D02*
X45500000Y-92340000D01*
X41590000Y-143190000D02*
X41950000Y-142890000D01*
X41590000Y-142790000D02*
X41950000Y-142890000D01*
X44765000Y-146365000D02*
X45500000Y-146340000D01*
X44765000Y-145730000D02*
X45500000Y-146340000D01*
X85405000Y-30795000D02*
X85255000Y-31450000D01*
X86040000Y-24445000D02*
X85255000Y-24050000D01*
X86030000Y-24445000D02*
X85255000Y-24050000D01*
X86030000Y-32065000D02*
X85255000Y-31450000D01*
X111745000Y-42775000D02*
X111120000Y-42000000D01*
X118425000Y-49210000D02*
X119060000Y-49500000D01*
X118425000Y-42775000D02*
X118740000Y-42000000D01*
X70800000Y-70800000D02*
X70165000Y-71340000D01*
X72705000Y-176845000D02*
X72705000Y-177440000D01*
X70800000Y-178750000D02*
X70165000Y-179340000D01*
X110805000Y-50480000D02*
X110170000Y-50450000D01*
X108265000Y-50480000D02*
X107630000Y-50450000D01*
X109535000Y-49845000D02*
X110170000Y-50450000D01*
X110805000Y-49845000D02*
X110170000Y-50450000D01*
X61405000Y-75340000D02*
X61275000Y-75245000D01*
X61275000Y-75245000D02*
X60640000Y-75245000D01*
X60640000Y-75245000D02*
X60005000Y-74610000D01*
X60005000Y-74610000D02*
X59370000Y-73975000D01*
X65090000Y-69890000D02*
X65085000Y-70165000D01*
X65085000Y-70165000D02*
X63815000Y-71435000D01*
X63815000Y-71435000D02*
X63180000Y-72070000D01*
X63180000Y-72070000D02*
X63180000Y-74610000D01*
X63180000Y-74610000D02*
X62545000Y-74610000D01*
X62545000Y-74610000D02*
X62180000Y-74715000D01*
X61405000Y-183340000D02*
X61275000Y-183195000D01*
X61275000Y-183195000D02*
X60005000Y-183195000D01*
X60005000Y-183195000D02*
X60005000Y-182560000D01*
X60005000Y-182560000D02*
X59370000Y-181925000D01*
X65090000Y-177890000D02*
X65085000Y-178115000D01*
X65085000Y-178115000D02*
X64450000Y-178750000D01*
X64450000Y-178750000D02*
X63815000Y-179385000D01*
X63815000Y-179385000D02*
X63180000Y-180020000D01*
X63180000Y-180020000D02*
X63180000Y-181925000D01*
X63180000Y-181925000D02*
X62545000Y-182560000D01*
X62545000Y-182560000D02*
X62180000Y-182715000D01*
X70165000Y-75245000D02*
X69530000Y-74610000D01*
X69530000Y-74610000D02*
X68895000Y-74610000D01*
X68895000Y-74610000D02*
X68895000Y-73340000D01*
X68895000Y-73340000D02*
X68260000Y-72705000D01*
X68260000Y-72705000D02*
X68260000Y-71435000D01*
X68260000Y-71435000D02*
X67625000Y-70800000D01*
X67625000Y-70800000D02*
X67615000Y-70665000D01*
X71435000Y-66355000D02*
X70800000Y-66990000D01*
X70800000Y-66990000D02*
X68895000Y-66990000D01*
X68895000Y-66990000D02*
X68895000Y-67625000D01*
X68895000Y-67625000D02*
X68260000Y-68260000D01*
X68260000Y-68260000D02*
X68260000Y-70800000D01*
X68260000Y-70800000D02*
X68049000Y-71011000D01*
X75835000Y-68985000D02*
X75245000Y-68895000D01*
X75245000Y-68895000D02*
X74610000Y-68260000D01*
X74610000Y-68260000D02*
X73975000Y-67625000D01*
X73975000Y-67625000D02*
X73340000Y-66990000D01*
X73340000Y-66990000D02*
X73340000Y-66940000D01*
X70165000Y-183195000D02*
X68895000Y-183195000D01*
X68895000Y-183195000D02*
X68895000Y-181290000D01*
X68895000Y-181290000D02*
X68260000Y-180655000D01*
X68260000Y-180655000D02*
X68260000Y-179385000D01*
X68260000Y-179385000D02*
X67625000Y-178750000D01*
X67625000Y-178750000D02*
X67615000Y-178665000D01*
X71435000Y-174305000D02*
X70800000Y-174940000D01*
X70800000Y-174940000D02*
X68895000Y-174940000D01*
X68895000Y-174940000D02*
X68895000Y-175575000D01*
X68895000Y-175575000D02*
X68260000Y-176210000D01*
X68260000Y-176210000D02*
X68260000Y-178750000D01*
X68260000Y-178750000D02*
X68049000Y-178961000D01*
X75835000Y-176985000D02*
X75245000Y-176845000D01*
X75245000Y-176845000D02*
X74610000Y-176210000D01*
X74610000Y-176210000D02*
X73975000Y-175575000D01*
X73975000Y-175575000D02*
X73340000Y-174940000D01*
X62180000Y-74715000D02*
X61405000Y-75340000D01*
X62180000Y-182715000D02*
X61405000Y-183340000D01*
X70165000Y-75245000D02*
X70810000Y-75340000D01*
X67615000Y-70665000D02*
X66990000Y-69890000D01*
X71435000Y-66355000D02*
X72310000Y-65890000D01*
X73340000Y-66940000D02*
X72310000Y-65890000D01*
X70165000Y-183195000D02*
X70810000Y-183340000D01*
X67615000Y-178665000D02*
X66990000Y-177890000D01*
X71435000Y-174305000D02*
X72310000Y-173890000D01*
X73340000Y-174940000D02*
X72310000Y-173890000D01*
X41905000Y-183340000D02*
X41590000Y-183195000D01*
X41590000Y-183195000D02*
X40320000Y-183195000D01*
X40320000Y-183195000D02*
X40320000Y-182560000D01*
X40320000Y-182560000D02*
X39685000Y-181925000D01*
X39685000Y-181925000D02*
X39685000Y-178665000D01*
X45955000Y-180540000D02*
X46035000Y-180655000D01*
X46035000Y-180655000D02*
X44765000Y-180655000D01*
X44765000Y-180655000D02*
X44130000Y-181290000D01*
X44130000Y-181290000D02*
X43495000Y-181925000D01*
X43495000Y-181925000D02*
X42860000Y-182560000D01*
X42860000Y-182560000D02*
X42680000Y-182715000D01*
X45955000Y-173390000D02*
X45400000Y-173670000D01*
X45400000Y-173670000D02*
X45400000Y-177480000D01*
X45400000Y-177480000D02*
X44765000Y-178115000D01*
X44765000Y-178115000D02*
X44130000Y-178750000D01*
X44130000Y-178750000D02*
X44130000Y-180655000D01*
X44130000Y-180655000D02*
X44341000Y-180866000D01*
X61405000Y-129340000D02*
X61275000Y-129220000D01*
X61275000Y-129220000D02*
X60005000Y-129220000D01*
X60005000Y-129220000D02*
X60005000Y-128585000D01*
X60005000Y-128585000D02*
X59370000Y-127950000D01*
X65090000Y-123890000D02*
X65085000Y-124140000D01*
X65085000Y-124140000D02*
X64450000Y-124775000D01*
X64450000Y-124775000D02*
X63815000Y-125410000D01*
X63815000Y-125410000D02*
X63180000Y-126045000D01*
X63180000Y-126045000D02*
X63180000Y-127950000D01*
X63180000Y-127950000D02*
X62545000Y-128585000D01*
X62545000Y-128585000D02*
X62180000Y-128715000D01*
X41950000Y-196890000D02*
X42225000Y-196530000D01*
X42225000Y-196530000D02*
X51115000Y-196530000D01*
X51115000Y-196530000D02*
X51750000Y-197165000D01*
X51750000Y-197165000D02*
X52385000Y-197800000D01*
X52385000Y-197800000D02*
X56195000Y-197800000D01*
X56195000Y-197800000D02*
X56830000Y-198435000D01*
X56830000Y-198435000D02*
X57465000Y-199070000D01*
X57465000Y-199070000D02*
X58100000Y-199705000D01*
X58100000Y-199705000D02*
X59370000Y-200975000D01*
X59370000Y-200975000D02*
X60005000Y-201610000D01*
X60005000Y-201610000D02*
X61910000Y-203515000D01*
X61910000Y-203515000D02*
X62545000Y-204150000D01*
X62545000Y-204150000D02*
X63815000Y-205420000D01*
X63815000Y-205420000D02*
X64450000Y-206055000D01*
X64450000Y-206055000D02*
X65720000Y-206055000D01*
X65720000Y-206055000D02*
X66355000Y-206690000D01*
X66355000Y-206690000D02*
X66990000Y-207325000D01*
X66990000Y-207325000D02*
X75245000Y-207325000D01*
X75245000Y-207325000D02*
X75880000Y-206690000D01*
X75880000Y-206690000D02*
X75880000Y-204785000D01*
X75880000Y-204785000D02*
X76515000Y-204150000D01*
X76515000Y-204150000D02*
X76515000Y-203515000D01*
X76515000Y-203515000D02*
X77150000Y-202880000D01*
X77150000Y-202880000D02*
X77150000Y-201610000D01*
X77150000Y-201610000D02*
X77785000Y-200975000D01*
X77785000Y-200975000D02*
X78420000Y-200340000D01*
X78420000Y-200340000D02*
X78420000Y-192720000D01*
X78420000Y-192720000D02*
X79055000Y-192085000D01*
X79055000Y-192085000D02*
X79690000Y-191450000D01*
X79690000Y-191450000D02*
X80325000Y-190815000D01*
X80325000Y-190815000D02*
X80960000Y-190180000D01*
X80960000Y-190180000D02*
X81595000Y-189545000D01*
X81595000Y-189545000D02*
X82230000Y-188910000D01*
X82230000Y-188910000D02*
X82865000Y-188275000D01*
X82865000Y-188275000D02*
X83500000Y-187640000D01*
X83500000Y-187640000D02*
X84135000Y-187005000D01*
X84135000Y-187005000D02*
X84770000Y-186370000D01*
X84770000Y-186370000D02*
X85405000Y-185735000D01*
X85405000Y-185735000D02*
X86040000Y-185100000D01*
X86040000Y-185100000D02*
X86675000Y-184465000D01*
X86675000Y-184465000D02*
X87310000Y-183830000D01*
X87310000Y-183830000D02*
X87945000Y-183195000D01*
X87945000Y-183195000D02*
X87945000Y-153350000D01*
X87945000Y-153350000D02*
X87310000Y-152715000D01*
X87310000Y-152715000D02*
X87310000Y-150175000D01*
X87310000Y-150175000D02*
X86675000Y-149540000D01*
X86675000Y-149540000D02*
X86675000Y-131125000D01*
X86675000Y-131125000D02*
X87310000Y-130490000D01*
X87310000Y-130490000D02*
X87945000Y-129855000D01*
X87945000Y-129855000D02*
X89215000Y-128585000D01*
X89215000Y-128585000D02*
X89850000Y-127950000D01*
X89850000Y-127950000D02*
X89850000Y-116520000D01*
X88580000Y-94930000D02*
X88580000Y-91755000D01*
X88580000Y-91755000D02*
X89215000Y-91120000D01*
X108265000Y-35240000D02*
X108445000Y-35240000D01*
X49000000Y-200340000D02*
X49210000Y-200340000D01*
X49210000Y-200340000D02*
X49845000Y-199705000D01*
X49845000Y-199705000D02*
X50480000Y-199705000D01*
X50480000Y-199705000D02*
X50480000Y-196530000D01*
X44765000Y-200340000D02*
X44130000Y-199705000D01*
X44130000Y-199705000D02*
X43495000Y-199070000D01*
X43495000Y-199070000D02*
X42860000Y-198435000D01*
X42860000Y-198435000D02*
X42860000Y-197800000D01*
X42860000Y-197800000D02*
X42575000Y-197665000D01*
X39685000Y-178665000D02*
X39355000Y-177890000D01*
X42680000Y-182715000D02*
X41905000Y-183340000D01*
X62180000Y-128715000D02*
X61405000Y-129340000D01*
X108445000Y-35240000D02*
X109470000Y-35500000D01*
X44765000Y-200340000D02*
X45500000Y-200340000D01*
X42575000Y-197665000D02*
X41950000Y-196890000D01*
X70165000Y-129220000D02*
X68895000Y-129220000D01*
X68895000Y-129220000D02*
X68895000Y-127315000D01*
X68895000Y-127315000D02*
X68260000Y-126680000D01*
X68260000Y-126680000D02*
X68260000Y-125410000D01*
X68260000Y-125410000D02*
X67625000Y-124775000D01*
X67625000Y-124775000D02*
X67615000Y-124665000D01*
X71435000Y-120330000D02*
X70800000Y-120965000D01*
X70800000Y-120965000D02*
X68895000Y-120965000D01*
X68895000Y-120965000D02*
X68895000Y-121600000D01*
X68895000Y-121600000D02*
X68260000Y-122235000D01*
X68260000Y-122235000D02*
X68260000Y-124775000D01*
X68260000Y-124775000D02*
X68049000Y-124986000D01*
X75835000Y-122985000D02*
X75245000Y-122870000D01*
X75245000Y-122870000D02*
X73340000Y-120965000D01*
X73340000Y-120965000D02*
X73340000Y-120940000D01*
X74610000Y-120965000D02*
X81595000Y-120965000D01*
X81595000Y-120965000D02*
X81595000Y-119695000D01*
X81595000Y-119695000D02*
X82230000Y-119060000D01*
X82230000Y-119060000D02*
X82865000Y-118425000D01*
X82865000Y-118425000D02*
X83500000Y-117790000D01*
X83500000Y-117790000D02*
X84135000Y-117155000D01*
X84135000Y-117155000D02*
X84770000Y-116520000D01*
X84770000Y-116520000D02*
X85405000Y-115885000D01*
X85405000Y-115885000D02*
X86040000Y-115250000D01*
X86040000Y-115250000D02*
X86675000Y-114615000D01*
X86675000Y-114615000D02*
X87310000Y-113980000D01*
X87310000Y-113980000D02*
X87945000Y-113345000D01*
X87945000Y-113345000D02*
X88580000Y-112710000D01*
X115250000Y-33970000D02*
X115070000Y-33970000D01*
X70165000Y-125340000D02*
X70800000Y-124775000D01*
X70165000Y-129220000D02*
X70810000Y-129340000D01*
X67615000Y-124665000D02*
X66990000Y-123890000D01*
X71435000Y-120330000D02*
X72310000Y-119890000D01*
X73340000Y-120940000D02*
X72310000Y-119890000D01*
X115070000Y-33970000D02*
X114045000Y-34230000D01*
X70800000Y-124775000D02*
X70165000Y-125340000D01*
D13*
X104400000Y-125390000D03*
X110350000Y-125390000D03*
X104400000Y-179390000D03*
X111850000Y-179390000D03*
X43350000Y-37150000D03*
X42700000Y-27724000D03*
X42426000Y-40650000D03*
X47950000Y-41126000D03*
X56129000Y-22400000D03*
X67255000Y-29600000D03*
X73881000Y-24887000D03*
X77881000Y-24887000D03*
X70629000Y-35400000D03*
X73629000Y-35400000D03*
X76629000Y-35400000D03*
X90890000Y-30600000D03*
X94764000Y-26400000D03*
X90890000Y-40600000D03*
X94764000Y-36400000D03*
X84129000Y-28900000D03*
X84129000Y-33900000D03*
X106120000Y-32960000D03*
X105646000Y-36150000D03*
X103394000Y-36120000D03*
X108344000Y-31040000D03*
X107870000Y-34230000D03*
X110596000Y-37420000D03*
X108344000Y-37390000D03*
X107310000Y-43600000D03*
X115645000Y-32960000D03*
X115171000Y-36150000D03*
X112919000Y-36120000D03*
X117869000Y-31040000D03*
X120595000Y-34230000D03*
X120595000Y-36770000D03*
X114930000Y-43600000D03*
X108280000Y-47424000D03*
X109520000Y-47424000D03*
X32626000Y-72490000D03*
X33126000Y-75277000D03*
X40779000Y-72790000D03*
X48981000Y-73190000D03*
X60279000Y-72790000D03*
X51005000Y-61264000D03*
X72410000Y-73440000D03*
X77435000Y-71525000D03*
X81911000Y-73445000D03*
X80386000Y-65540000D03*
X73960000Y-75314000D03*
X70165000Y-68140000D03*
X101426000Y-70340000D03*
X101426000Y-64540000D03*
X31651000Y-96445000D03*
X25874000Y-88790000D03*
X26374000Y-96790000D03*
X32576000Y-102540000D03*
X34076000Y-106040000D03*
X44374000Y-89790000D03*
X47874000Y-89790000D03*
X64886000Y-91040000D03*
X100951000Y-96445000D03*
X89750000Y-96940000D03*
X104426000Y-89540000D03*
X90550000Y-92940000D03*
X106976000Y-101490000D03*
X32626000Y-126490000D03*
X31350000Y-128802000D03*
X40779000Y-126790000D03*
X48981000Y-127190000D03*
X60279000Y-126790000D03*
X51005000Y-115264000D03*
X72410000Y-127440000D03*
X77435000Y-125525000D03*
X81911000Y-127445000D03*
X80386000Y-119540000D03*
X73960000Y-129314000D03*
X70165000Y-122140000D03*
X101426000Y-124340000D03*
X100950000Y-116764000D03*
X31651000Y-150445000D03*
X25874000Y-142790000D03*
X26374000Y-150790000D03*
X32576000Y-156540000D03*
X34076000Y-160040000D03*
X44374000Y-143790000D03*
X47874000Y-143790000D03*
X64886000Y-145040000D03*
X100951000Y-150445000D03*
X89750000Y-150940000D03*
X104426000Y-143540000D03*
X90550000Y-146940000D03*
X106976000Y-155490000D03*
X32626000Y-180490000D03*
X31350000Y-182802000D03*
X40779000Y-180790000D03*
X48981000Y-181190000D03*
X60279000Y-180790000D03*
X51005000Y-169264000D03*
X72410000Y-181440000D03*
X77435000Y-179525000D03*
X81911000Y-181445000D03*
X80386000Y-173540000D03*
X73960000Y-183314000D03*
X70165000Y-176140000D03*
X101426000Y-178340000D03*
X100950000Y-170764000D03*
X31651000Y-204445000D03*
X25874000Y-196790000D03*
X26374000Y-204790000D03*
X32576000Y-210540000D03*
X34076000Y-214040000D03*
X44374000Y-197790000D03*
X47874000Y-197790000D03*
X64886000Y-199040000D03*
X100951000Y-204445000D03*
X89750000Y-204940000D03*
X104426000Y-197540000D03*
X90550000Y-200940000D03*
X106976000Y-209490000D03*
X108350000Y-232990000D03*
X110426000Y-226040000D03*
X106995000Y-222565000D03*
X103185000Y-178750000D03*
X116520000Y-41590000D03*
X110805000Y-39050000D03*
X108900000Y-41590000D03*
X107630000Y-39050000D03*
X113980000Y-39050000D03*
X71435000Y-28255000D03*
X67625000Y-24445000D03*
X84770000Y-25715000D03*
X66355000Y-35875000D03*
X46670000Y-60005000D03*
X68260000Y-32700000D03*
X68260000Y-30160000D03*
X65085000Y-35875000D03*
X34605000Y-94295000D03*
X34605000Y-89850000D03*
X34605000Y-148270000D03*
X34605000Y-143825000D03*
X37145000Y-123505000D03*
X37145000Y-177480000D03*
X44765000Y-73975000D03*
X42225000Y-75245000D03*
X88580000Y-64450000D03*
X76515000Y-133030000D03*
X76515000Y-91755000D03*
X100645000Y-122235000D03*
X103820000Y-124140000D03*
X100645000Y-175575000D03*
X103820000Y-177480000D03*
X100010000Y-229550000D03*
X105725000Y-227645000D03*
X91755000Y-94295000D03*
X93660000Y-91755000D03*
X104455000Y-148270000D03*
X101915000Y-147635000D03*
X72070000Y-126045000D03*
X72070000Y-180020000D03*
X73340000Y-136840000D03*
X68895000Y-93025000D03*
X63815000Y-147000000D03*
X68895000Y-200975000D03*
X77150000Y-75880000D03*
X76515000Y-73340000D03*
X73975000Y-77785000D03*
X77785000Y-129220000D03*
X77785000Y-126680000D03*
X73975000Y-133030000D03*
X77150000Y-183830000D03*
X76515000Y-181290000D03*
X74610000Y-185735000D03*
X98105000Y-71435000D03*
X80325000Y-130490000D03*
X98105000Y-125410000D03*
X98105000Y-179385000D03*
X99375000Y-94295000D03*
X82865000Y-70165000D03*
X99375000Y-148270000D03*
X88580000Y-126680000D03*
X99375000Y-202245000D03*
X82865000Y-178115000D03*
X30160000Y-101280000D03*
X30160000Y-155255000D03*
X31430000Y-105090000D03*
X31430000Y-159065000D03*
X90485000Y-35875000D03*
X91755000Y-98740000D03*
X95565000Y-93025000D03*
X91755000Y-91120000D03*
X91755000Y-152715000D03*
X93660000Y-148270000D03*
X91755000Y-206690000D03*
X93660000Y-202245000D03*
X106995000Y-122235000D03*
X106995000Y-176210000D03*
X89850000Y-65085000D03*
X102550000Y-32065000D03*
X41590000Y-143190000D03*
X92390000Y-33970000D03*
X85405000Y-30795000D03*
X86040000Y-24445000D03*
X73340000Y-69530000D03*
X112710000Y-31430000D03*
X70800000Y-70800000D03*
X72705000Y-176845000D03*
X119060000Y-35240000D03*
X70800000Y-178750000D03*
X72070000Y-177480000D03*
X59370000Y-73975000D03*
X57465000Y-72070000D03*
X59370000Y-181925000D03*
X57465000Y-180020000D03*
X59370000Y-127950000D03*
X57465000Y-126045000D03*
X89850000Y-116520000D03*
X88580000Y-94930000D03*
X89215000Y-91120000D03*
X108265000Y-35240000D03*
X73340000Y-122870000D03*
X74610000Y-120965000D03*
X88580000Y-112710000D03*
X115250000Y-33970000D03*
X70800000Y-124775000D03*
X72070000Y-123505000D03*
D14*
X30350000Y-32000000D03*
D15*
X30350000Y-34540000D03*
D16*
X41050000Y-35150000D03*
X43350000Y-35150000D03*
X45650000Y-35150000D03*
D17*
X43350000Y-28850000D03*
D18*
X39400000Y-40000000D03*
X41300000Y-40000000D03*
X45400000Y-40000000D03*
X47300000Y-40000000D03*
D19*
X57255000Y-24950000D03*
X57255000Y-23050000D03*
D20*
X59255000Y-33100000D03*
X59255000Y-28900000D03*
D21*
X66305000Y-28300000D03*
X67255000Y-28300000D03*
X68205000Y-28300000D03*
X68205000Y-25700000D03*
X67255000Y-25700000D03*
X66305000Y-25700000D03*
D22*
X72755000Y-28462500D03*
X72755000Y-25537500D03*
D23*
X76755000Y-28462500D03*
X76755000Y-25537500D03*
D18*
X66305000Y-33000000D03*
X68205000Y-33000000D03*
X66305000Y-36500000D03*
X68205000Y-36500000D03*
D19*
X71755000Y-37950000D03*
X71755000Y-36050000D03*
X74755000Y-37950000D03*
X74755000Y-36050000D03*
X77755000Y-37950000D03*
X77755000Y-36050000D03*
D21*
X89940000Y-29300000D03*
X90890000Y-29300000D03*
X91840000Y-29300000D03*
X91840000Y-26700000D03*
X90890000Y-26700000D03*
D19*
X95890000Y-28950000D03*
X95890000Y-27050000D03*
D21*
X89940000Y-39300000D03*
X90890000Y-39300000D03*
X91840000Y-39300000D03*
X91840000Y-36700000D03*
X90890000Y-36700000D03*
D19*
X95890000Y-38950000D03*
X95890000Y-37050000D03*
X85255000Y-25950000D03*
X85255000Y-24050000D03*
X85255000Y-31450000D03*
X85255000Y-29550000D03*
X85255000Y-36450000D03*
X85255000Y-34550000D03*
D24*
X104520000Y-31690000D03*
X104520000Y-32960000D03*
X104520000Y-34230000D03*
X104520000Y-35500000D03*
X104520000Y-36770000D03*
X104520000Y-38040000D03*
X104520000Y-39310000D03*
X109470000Y-31690000D03*
X109470000Y-32960000D03*
X109470000Y-34230000D03*
X109470000Y-35500000D03*
X109470000Y-36770000D03*
X109470000Y-38040000D03*
X109470000Y-39310000D03*
D18*
X105410000Y-42000000D03*
X107310000Y-42000000D03*
X109220000Y-42000000D03*
X111120000Y-42000000D03*
X116840000Y-42000000D03*
X118740000Y-42000000D03*
D14*
X113980000Y-49500000D03*
D15*
X116520000Y-49500000D03*
X119060000Y-49500000D03*
D24*
X114045000Y-31690000D03*
X114045000Y-32960000D03*
X114045000Y-34230000D03*
X114045000Y-35500000D03*
X114045000Y-36770000D03*
X114045000Y-38040000D03*
X114045000Y-39310000D03*
X118995000Y-31690000D03*
X118995000Y-32960000D03*
X118995000Y-34230000D03*
X118995000Y-35500000D03*
X118995000Y-36770000D03*
X118995000Y-38040000D03*
X118995000Y-39310000D03*
D18*
X113030000Y-42000000D03*
X114930000Y-42000000D03*
D19*
X105090000Y-50450000D03*
X105090000Y-48550000D03*
X107630000Y-50450000D03*
X107630000Y-48550000D03*
X110170000Y-50450000D03*
X110170000Y-48550000D03*
D25*
X35350000Y-39500000D03*
X35350000Y-43500000D03*
X50850000Y-40000000D03*
X81255000Y-27000000D03*
X99890000Y-28000000D03*
D14*
X27000000Y-69890000D03*
D15*
X27000000Y-72430000D03*
D19*
X31500000Y-69940000D03*
X31500000Y-71840000D03*
X28000000Y-78340000D03*
X28000000Y-76440000D03*
D23*
X32000000Y-78852500D03*
X32000000Y-75927500D03*
D18*
X37455000Y-69890000D03*
X39355000Y-69890000D03*
D19*
X41905000Y-75340000D03*
X41905000Y-73440000D03*
D26*
X45955000Y-72540000D03*
X47855000Y-72540000D03*
X46905000Y-70240000D03*
D18*
X45955000Y-65390000D03*
X47855000Y-65390000D03*
D19*
X52905000Y-66340000D03*
X52905000Y-64440000D03*
D26*
X58355000Y-69740000D03*
X56455000Y-69740000D03*
X57405000Y-72040000D03*
D19*
X57405000Y-66340000D03*
X57405000Y-64440000D03*
X61405000Y-75340000D03*
X61405000Y-73440000D03*
D18*
X48455000Y-62390000D03*
X50355000Y-62390000D03*
X65090000Y-69890000D03*
X66990000Y-69890000D03*
D19*
X70810000Y-75340000D03*
X70810000Y-73440000D03*
D24*
X75835000Y-68985000D03*
X75835000Y-70255000D03*
X75835000Y-71525000D03*
X75835000Y-72795000D03*
X80785000Y-68985000D03*
X80785000Y-70255000D03*
X80785000Y-71525000D03*
X80785000Y-72795000D03*
D18*
X77360000Y-64890000D03*
X79260000Y-64890000D03*
D19*
X73310000Y-78340000D03*
X73310000Y-76440000D03*
D18*
X77360000Y-77390000D03*
X79260000Y-77390000D03*
X71860000Y-81890000D03*
X73760000Y-81890000D03*
D19*
X72705000Y-71340000D03*
X72705000Y-69440000D03*
X70165000Y-71340000D03*
X70165000Y-69440000D03*
D21*
X98400000Y-69690000D03*
X99350000Y-69690000D03*
X100300000Y-69690000D03*
X100300000Y-67090000D03*
X99350000Y-67090000D03*
D18*
X98400000Y-63890000D03*
X100300000Y-63890000D03*
X104400000Y-67090000D03*
X106300000Y-67090000D03*
D27*
X119000000Y-68390000D03*
X116460000Y-65850000D03*
X121540000Y-65850000D03*
X116460000Y-70930000D03*
X121540000Y-70930000D03*
D24*
X30525000Y-91985000D03*
X30525000Y-93255000D03*
X30525000Y-94525000D03*
X30525000Y-95795000D03*
X35475000Y-91985000D03*
X35475000Y-93255000D03*
X35475000Y-94525000D03*
X35475000Y-95795000D03*
D19*
X27000000Y-91340000D03*
X27000000Y-89440000D03*
D18*
X32050000Y-88890000D03*
X33950000Y-88890000D03*
D19*
X27500000Y-99340000D03*
X27500000Y-97440000D03*
D18*
X29550000Y-101890000D03*
X31450000Y-101890000D03*
D14*
X36460000Y-103390000D03*
D15*
X39000000Y-103390000D03*
X41540000Y-103390000D03*
D18*
X31050000Y-105390000D03*
X32950000Y-105390000D03*
D28*
X42690000Y-97890000D03*
D29*
X50310000Y-97890000D03*
D18*
X40050000Y-88890000D03*
X41950000Y-88890000D03*
D19*
X45500000Y-92340000D03*
X45500000Y-90440000D03*
X49000000Y-92340000D03*
X49000000Y-90440000D03*
D14*
X67270000Y-95390000D03*
D15*
X69810000Y-95390000D03*
X72350000Y-95390000D03*
D18*
X61860000Y-90390000D03*
X63760000Y-90390000D03*
X74860000Y-90890000D03*
X76760000Y-90890000D03*
D24*
X99825000Y-95795000D03*
X99825000Y-94525000D03*
X99825000Y-93255000D03*
X99825000Y-91985000D03*
X94875000Y-95795000D03*
X94875000Y-94525000D03*
X94875000Y-93255000D03*
X94875000Y-91985000D03*
D18*
X90400000Y-89390000D03*
X92300000Y-89390000D03*
D19*
X91350000Y-98840000D03*
X91350000Y-96940000D03*
D18*
X101400000Y-88890000D03*
X103300000Y-88890000D03*
D19*
X91850000Y-94840000D03*
X91850000Y-92940000D03*
X105850000Y-94840000D03*
X105850000Y-92940000D03*
X105850000Y-100840000D03*
X105850000Y-98940000D03*
D25*
X31500000Y-65890000D03*
X31500000Y-61890000D03*
X30000000Y-81390000D03*
X72310000Y-65890000D03*
X68310000Y-79890000D03*
X85810000Y-73390000D03*
D14*
X27000000Y-123890000D03*
D15*
X27000000Y-126430000D03*
D19*
X31500000Y-123940000D03*
X31500000Y-125840000D03*
X28000000Y-132340000D03*
X28000000Y-130440000D03*
D23*
X32000000Y-132852500D03*
X32000000Y-129927500D03*
D18*
X37455000Y-123890000D03*
X39355000Y-123890000D03*
D19*
X41905000Y-129340000D03*
X41905000Y-127440000D03*
D26*
X45955000Y-126540000D03*
X47855000Y-126540000D03*
X46905000Y-124240000D03*
D18*
X45955000Y-119390000D03*
X47855000Y-119390000D03*
D19*
X52905000Y-120340000D03*
X52905000Y-118440000D03*
D26*
X58355000Y-123740000D03*
X56455000Y-123740000D03*
X57405000Y-126040000D03*
D19*
X57405000Y-120340000D03*
X57405000Y-118440000D03*
X61405000Y-129340000D03*
X61405000Y-127440000D03*
D18*
X48455000Y-116390000D03*
X50355000Y-116390000D03*
X65090000Y-123890000D03*
X66990000Y-123890000D03*
D19*
X70810000Y-129340000D03*
X70810000Y-127440000D03*
D24*
X75835000Y-122985000D03*
X75835000Y-124255000D03*
X75835000Y-125525000D03*
X75835000Y-126795000D03*
X80785000Y-122985000D03*
X80785000Y-124255000D03*
X80785000Y-125525000D03*
X80785000Y-126795000D03*
D18*
X77360000Y-118890000D03*
X79260000Y-118890000D03*
D19*
X73310000Y-132340000D03*
X73310000Y-130440000D03*
D18*
X77360000Y-131390000D03*
X79260000Y-131390000D03*
X71860000Y-135890000D03*
X73760000Y-135890000D03*
D19*
X72705000Y-125340000D03*
X72705000Y-123440000D03*
X70165000Y-125340000D03*
X70165000Y-123440000D03*
D21*
X98400000Y-123690000D03*
X99350000Y-123690000D03*
X100300000Y-123690000D03*
X100300000Y-121090000D03*
X99350000Y-121090000D03*
D18*
X98400000Y-117890000D03*
X100300000Y-117890000D03*
X104400000Y-121090000D03*
X106300000Y-121090000D03*
D27*
X119000000Y-122390000D03*
X116460000Y-119850000D03*
X121540000Y-119850000D03*
X116460000Y-124930000D03*
X121540000Y-124930000D03*
D24*
X30525000Y-145985000D03*
X30525000Y-147255000D03*
X30525000Y-148525000D03*
X30525000Y-149795000D03*
X35475000Y-145985000D03*
X35475000Y-147255000D03*
X35475000Y-148525000D03*
X35475000Y-149795000D03*
D19*
X27000000Y-145340000D03*
X27000000Y-143440000D03*
D18*
X32050000Y-142890000D03*
X33950000Y-142890000D03*
D19*
X27500000Y-153340000D03*
X27500000Y-151440000D03*
D18*
X29550000Y-155890000D03*
X31450000Y-155890000D03*
D14*
X36460000Y-157390000D03*
D15*
X39000000Y-157390000D03*
X41540000Y-157390000D03*
D18*
X31050000Y-159390000D03*
X32950000Y-159390000D03*
D28*
X42690000Y-151890000D03*
D29*
X50310000Y-151890000D03*
D18*
X40050000Y-142890000D03*
X41950000Y-142890000D03*
D19*
X45500000Y-146340000D03*
X45500000Y-144440000D03*
X49000000Y-146340000D03*
X49000000Y-144440000D03*
D14*
X67270000Y-149390000D03*
D15*
X69810000Y-149390000D03*
X72350000Y-149390000D03*
D18*
X61860000Y-144390000D03*
X63760000Y-144390000D03*
X74860000Y-144890000D03*
X76760000Y-144890000D03*
D24*
X99825000Y-149795000D03*
X99825000Y-148525000D03*
X99825000Y-147255000D03*
X99825000Y-145985000D03*
X94875000Y-149795000D03*
X94875000Y-148525000D03*
X94875000Y-147255000D03*
X94875000Y-145985000D03*
D18*
X90400000Y-143390000D03*
X92300000Y-143390000D03*
D19*
X91350000Y-152840000D03*
X91350000Y-150940000D03*
D18*
X101400000Y-142890000D03*
X103300000Y-142890000D03*
D19*
X91850000Y-148840000D03*
X91850000Y-146940000D03*
X105850000Y-148840000D03*
X105850000Y-146940000D03*
X105850000Y-154840000D03*
X105850000Y-152940000D03*
D25*
X31500000Y-119890000D03*
X31500000Y-115890000D03*
X30000000Y-135390000D03*
X72310000Y-119890000D03*
X68310000Y-133890000D03*
X85810000Y-127390000D03*
D14*
X27000000Y-177890000D03*
D15*
X27000000Y-180430000D03*
D19*
X31500000Y-177940000D03*
X31500000Y-179840000D03*
X28000000Y-186340000D03*
X28000000Y-184440000D03*
D23*
X32000000Y-186852500D03*
X32000000Y-183927500D03*
D18*
X37455000Y-177890000D03*
X39355000Y-177890000D03*
D19*
X41905000Y-183340000D03*
X41905000Y-181440000D03*
D26*
X45955000Y-180540000D03*
X47855000Y-180540000D03*
X46905000Y-178240000D03*
D18*
X45955000Y-173390000D03*
X47855000Y-173390000D03*
D19*
X52905000Y-174340000D03*
X52905000Y-172440000D03*
D26*
X58355000Y-177740000D03*
X56455000Y-177740000D03*
X57405000Y-180040000D03*
D19*
X57405000Y-174340000D03*
X57405000Y-172440000D03*
X61405000Y-183340000D03*
X61405000Y-181440000D03*
D18*
X48455000Y-170390000D03*
X50355000Y-170390000D03*
X65090000Y-177890000D03*
X66990000Y-177890000D03*
D19*
X70810000Y-183340000D03*
X70810000Y-181440000D03*
D24*
X75835000Y-176985000D03*
X75835000Y-178255000D03*
X75835000Y-179525000D03*
X75835000Y-180795000D03*
X80785000Y-176985000D03*
X80785000Y-178255000D03*
X80785000Y-179525000D03*
X80785000Y-180795000D03*
D18*
X77360000Y-172890000D03*
X79260000Y-172890000D03*
D19*
X73310000Y-186340000D03*
X73310000Y-184440000D03*
D18*
X77360000Y-185390000D03*
X79260000Y-185390000D03*
X71860000Y-189890000D03*
X73760000Y-189890000D03*
D19*
X72705000Y-179340000D03*
X72705000Y-177440000D03*
X70165000Y-179340000D03*
X70165000Y-177440000D03*
D21*
X98400000Y-177690000D03*
X99350000Y-177690000D03*
X100300000Y-177690000D03*
X100300000Y-175090000D03*
X99350000Y-175090000D03*
D18*
X98400000Y-171890000D03*
X100300000Y-171890000D03*
X104400000Y-175090000D03*
X106300000Y-175090000D03*
D27*
X119000000Y-176390000D03*
X116460000Y-173850000D03*
X121540000Y-173850000D03*
X116460000Y-178930000D03*
X121540000Y-178930000D03*
D24*
X30525000Y-199985000D03*
X30525000Y-201255000D03*
X30525000Y-202525000D03*
X30525000Y-203795000D03*
X35475000Y-199985000D03*
X35475000Y-201255000D03*
X35475000Y-202525000D03*
X35475000Y-203795000D03*
D19*
X27000000Y-199340000D03*
X27000000Y-197440000D03*
D18*
X32050000Y-196890000D03*
X33950000Y-196890000D03*
D19*
X27500000Y-207340000D03*
X27500000Y-205440000D03*
D18*
X29550000Y-209890000D03*
X31450000Y-209890000D03*
D14*
X36460000Y-211390000D03*
D15*
X39000000Y-211390000D03*
X41540000Y-211390000D03*
D18*
X31050000Y-213390000D03*
X32950000Y-213390000D03*
D28*
X42690000Y-205890000D03*
D29*
X50310000Y-205890000D03*
D18*
X40050000Y-196890000D03*
X41950000Y-196890000D03*
D19*
X45500000Y-200340000D03*
X45500000Y-198440000D03*
X49000000Y-200340000D03*
X49000000Y-198440000D03*
D14*
X67270000Y-203390000D03*
D15*
X69810000Y-203390000D03*
X72350000Y-203390000D03*
D18*
X61860000Y-198390000D03*
X63760000Y-198390000D03*
X74860000Y-198890000D03*
X76760000Y-198890000D03*
D24*
X99825000Y-203795000D03*
X99825000Y-202525000D03*
X99825000Y-201255000D03*
X99825000Y-199985000D03*
X94875000Y-203795000D03*
X94875000Y-202525000D03*
X94875000Y-201255000D03*
X94875000Y-199985000D03*
D18*
X90400000Y-197390000D03*
X92300000Y-197390000D03*
D19*
X91350000Y-206840000D03*
X91350000Y-204940000D03*
D18*
X101400000Y-196890000D03*
X103300000Y-196890000D03*
D19*
X91850000Y-202840000D03*
X91850000Y-200940000D03*
X105850000Y-202840000D03*
X105850000Y-200940000D03*
X105850000Y-208840000D03*
X105850000Y-206940000D03*
D25*
X31500000Y-173890000D03*
X31500000Y-169890000D03*
X30000000Y-189390000D03*
X72310000Y-173890000D03*
X68310000Y-187890000D03*
X85810000Y-181390000D03*
D14*
X90350000Y-223390000D03*
D15*
X90350000Y-225930000D03*
D14*
X96350000Y-223390000D03*
D15*
X96350000Y-225930000D03*
D14*
X102350000Y-223390000D03*
D15*
X102350000Y-225930000D03*
D19*
X87550000Y-225940000D03*
X87550000Y-227840000D03*
X93550000Y-225940000D03*
X93550000Y-227840000D03*
X99550000Y-225940000D03*
X99550000Y-227840000D03*
D21*
X107400000Y-231690000D03*
X108350000Y-231690000D03*
X109300000Y-231690000D03*
X109300000Y-229090000D03*
X108350000Y-229090000D03*
X107400000Y-229090000D03*
D18*
X107400000Y-225390000D03*
X109300000Y-225390000D03*
D19*
X111850000Y-230440000D03*
X111850000Y-232340000D03*
D27*
X119000000Y-229890000D03*
X116460000Y-227350000D03*
X121540000Y-227350000D03*
X116460000Y-232430000D03*
X121540000Y-232430000D03*
D25*
X111500000Y-238890000D03*
D30*
X24000000Y-24000000D03*
X119000000Y-24000000D03*
X24000000Y-239890000D03*
X119000000Y-239890000D03*
X24000000Y-109890000D03*
X119000000Y-109890000D03*
X24000000Y-163890000D03*
X119000000Y-163890000D03*
M02*
