%TF.GenerationSoftware,rivgen,1.0*%
%TF.FileFunction,Soldermask,Bot*%
%FSLAX46Y46*%
%MOMM*%
%LPD*%
G01*
%ADD10R,1.800X1.800*%
%ADD11C,1.800*%
%ADD12C,2.100*%
%ADD13C,1.600*%
%ADD14R,1.700X1.700*%
%ADD15C,1.700*%
%ADD16C,6.100*%
D10*
X30350000Y-32000000D03*
D11*
X30350000Y-34540000D03*
D10*
X114500000Y-43700000D03*
D11*
X117040000Y-43700000D03*
X119580000Y-43700000D03*
D12*
X35350000Y-39500000D03*
X35350000Y-43500000D03*
X50850000Y-40000000D03*
X81255000Y-27000000D03*
X101795000Y-28000000D03*
D10*
X27000000Y-61000000D03*
D11*
X27000000Y-63540000D03*
D13*
X119000000Y-59500000D03*
X116460000Y-56960000D03*
X121540000Y-56960000D03*
X116460000Y-62040000D03*
X121540000Y-62040000D03*
D10*
X36460000Y-94500000D03*
D11*
X39000000Y-94500000D03*
X41540000Y-94500000D03*
D14*
X42690000Y-89000000D03*
D15*
X50310000Y-89000000D03*
D10*
X67270000Y-86500000D03*
D11*
X69810000Y-86500000D03*
X72350000Y-86500000D03*
D12*
X31500000Y-57000000D03*
X31500000Y-53000000D03*
X30000000Y-72500000D03*
X72310000Y-57000000D03*
X68310000Y-71000000D03*
X85810000Y-64500000D03*
D10*
X27000000Y-115000000D03*
D11*
X27000000Y-117540000D03*
D13*
X119000000Y-113500000D03*
X116460000Y-110960000D03*
X121540000Y-110960000D03*
X116460000Y-116040000D03*
X121540000Y-116040000D03*
D10*
X36460000Y-148500000D03*
D11*
X39000000Y-148500000D03*
X41540000Y-148500000D03*
D14*
X42690000Y-143000000D03*
D15*
X50310000Y-143000000D03*
D10*
X67270000Y-140500000D03*
D11*
X69810000Y-140500000D03*
X72350000Y-140500000D03*
D12*
X31500000Y-111000000D03*
X31500000Y-107000000D03*
X30000000Y-126500000D03*
X72310000Y-111000000D03*
X68310000Y-125000000D03*
X85810000Y-118500000D03*
D10*
X27000000Y-169000000D03*
D11*
X27000000Y-171540000D03*
D13*
X119000000Y-167500000D03*
X116460000Y-164960000D03*
X121540000Y-164960000D03*
X116460000Y-170040000D03*
X121540000Y-170040000D03*
D10*
X36460000Y-202500000D03*
D11*
X39000000Y-202500000D03*
X41540000Y-202500000D03*
D14*
X42690000Y-197000000D03*
D15*
X50310000Y-197000000D03*
D10*
X67270000Y-194500000D03*
D11*
X69810000Y-194500000D03*
X72350000Y-194500000D03*
D12*
X31500000Y-165000000D03*
X31500000Y-161000000D03*
X30000000Y-180500000D03*
X72310000Y-165000000D03*
X68310000Y-179000000D03*
X85810000Y-172500000D03*
D10*
X90350000Y-214500000D03*
D11*
X90350000Y-217040000D03*
D10*
X96350000Y-214500000D03*
D11*
X96350000Y-217040000D03*
D10*
X102350000Y-214500000D03*
D11*
X102350000Y-217040000D03*
D13*
X119000000Y-221000000D03*
X116460000Y-218460000D03*
X121540000Y-218460000D03*
X116460000Y-223540000D03*
X121540000Y-223540000D03*
D12*
X111500000Y-230000000D03*
D16*
X24000000Y-24000000D03*
X119000000Y-24000000D03*
X24000000Y-231000000D03*
X119000000Y-231000000D03*
X24000000Y-101000000D03*
X119000000Y-101000000D03*
X24000000Y-155000000D03*
X119000000Y-155000000D03*
M02*
