%TF.GenerationSoftware,rivgen,1.0*%
%TF.FileFunction,Soldermask,Bot*%
%FSLAX46Y46*%
%MOMM*%
%LPD*%
G01*
%ADD10R,1.800X1.800*%
%ADD11C,1.800*%
%ADD12C,2.100*%
%ADD13C,1.600*%
%ADD14R,1.700X1.700*%
%ADD15C,1.700*%
%ADD16C,6.100*%
D10*
X30350000Y-32000000D03*
D11*
X30350000Y-34540000D03*
D10*
X113980000Y-49500000D03*
D11*
X116520000Y-49500000D03*
X119060000Y-49500000D03*
D12*
X35350000Y-39500000D03*
X35350000Y-43500000D03*
X50850000Y-40000000D03*
X81255000Y-27000000D03*
X99890000Y-28000000D03*
D10*
X27000000Y-69890000D03*
D11*
X27000000Y-72430000D03*
D13*
X119000000Y-68390000D03*
X116460000Y-65850000D03*
X121540000Y-65850000D03*
X116460000Y-70930000D03*
X121540000Y-70930000D03*
D10*
X36460000Y-103390000D03*
D11*
X39000000Y-103390000D03*
X41540000Y-103390000D03*
D14*
X42690000Y-97890000D03*
D15*
X50310000Y-97890000D03*
D10*
X67270000Y-95390000D03*
D11*
X69810000Y-95390000D03*
X72350000Y-95390000D03*
D12*
X31500000Y-65890000D03*
X31500000Y-61890000D03*
X30000000Y-81390000D03*
X72310000Y-65890000D03*
X68310000Y-79890000D03*
X85810000Y-73390000D03*
D10*
X27000000Y-123890000D03*
D11*
X27000000Y-126430000D03*
D13*
X119000000Y-122390000D03*
X116460000Y-119850000D03*
X121540000Y-119850000D03*
X116460000Y-124930000D03*
X121540000Y-124930000D03*
D10*
X36460000Y-157390000D03*
D11*
X39000000Y-157390000D03*
X41540000Y-157390000D03*
D14*
X42690000Y-151890000D03*
D15*
X50310000Y-151890000D03*
D10*
X67270000Y-149390000D03*
D11*
X69810000Y-149390000D03*
X72350000Y-149390000D03*
D12*
X31500000Y-119890000D03*
X31500000Y-115890000D03*
X30000000Y-135390000D03*
X72310000Y-119890000D03*
X68310000Y-133890000D03*
X85810000Y-127390000D03*
D10*
X27000000Y-177890000D03*
D11*
X27000000Y-180430000D03*
D13*
X119000000Y-176390000D03*
X116460000Y-173850000D03*
X121540000Y-173850000D03*
X116460000Y-178930000D03*
X121540000Y-178930000D03*
D10*
X36460000Y-211390000D03*
D11*
X39000000Y-211390000D03*
X41540000Y-211390000D03*
D14*
X42690000Y-205890000D03*
D15*
X50310000Y-205890000D03*
D10*
X67270000Y-203390000D03*
D11*
X69810000Y-203390000D03*
X72350000Y-203390000D03*
D12*
X31500000Y-173890000D03*
X31500000Y-169890000D03*
X30000000Y-189390000D03*
X72310000Y-173890000D03*
X68310000Y-187890000D03*
X85810000Y-181390000D03*
D10*
X90350000Y-223390000D03*
D11*
X90350000Y-225930000D03*
D10*
X96350000Y-223390000D03*
D11*
X96350000Y-225930000D03*
D10*
X102350000Y-223390000D03*
D11*
X102350000Y-225930000D03*
D13*
X119000000Y-229890000D03*
X116460000Y-227350000D03*
X121540000Y-227350000D03*
X116460000Y-232430000D03*
X121540000Y-232430000D03*
D12*
X111500000Y-238890000D03*
D16*
X24000000Y-24000000D03*
X119000000Y-24000000D03*
X24000000Y-239890000D03*
X119000000Y-239890000D03*
X24000000Y-109890000D03*
X119000000Y-109890000D03*
X24000000Y-163890000D03*
X119000000Y-163890000D03*
M02*
