%TF.GenerationSoftware,rivgen,1.0*%
%TF.FileFunction,Soldermask,Bot*%
%FSLAX46Y46*%
%MOMM*%
%LPD*%
G01*
%ADD10R,1.800X1.800*%
%ADD11C,1.800*%
%ADD12C,2.100*%
%ADD13C,1.600*%
%ADD14R,1.700X1.700*%
%ADD15C,1.700*%
D10*
X24000000Y-32000000D03*
D11*
X24000000Y-34540000D03*
D10*
X113000000Y-28000000D03*
D11*
X113000000Y-30540000D03*
X113000000Y-33080000D03*
D12*
X29000000Y-39500000D03*
X29000000Y-43500000D03*
X44500000Y-40000000D03*
X73000000Y-27000000D03*
X91000000Y-28000000D03*
D10*
X27000000Y-61000000D03*
D11*
X27000000Y-63540000D03*
D13*
X111000000Y-59500000D03*
X108460000Y-56960000D03*
X113540000Y-56960000D03*
X108460000Y-62040000D03*
X113540000Y-62040000D03*
D10*
X36460000Y-94500000D03*
D11*
X39000000Y-94500000D03*
X41540000Y-94500000D03*
D14*
X42690000Y-89000000D03*
D15*
X50310000Y-89000000D03*
D10*
X63460000Y-86500000D03*
D11*
X66000000Y-86500000D03*
X68540000Y-86500000D03*
D12*
X31500000Y-57000000D03*
X31500000Y-53000000D03*
X30000000Y-72500000D03*
X68500000Y-57000000D03*
X64500000Y-71000000D03*
X82000000Y-64500000D03*
D10*
X27000000Y-113000000D03*
D11*
X27000000Y-115540000D03*
D13*
X111000000Y-111500000D03*
X108460000Y-108960000D03*
X113540000Y-108960000D03*
X108460000Y-114040000D03*
X113540000Y-114040000D03*
D10*
X36460000Y-146500000D03*
D11*
X39000000Y-146500000D03*
X41540000Y-146500000D03*
D14*
X42690000Y-141000000D03*
D15*
X50310000Y-141000000D03*
D10*
X63460000Y-138500000D03*
D11*
X66000000Y-138500000D03*
X68540000Y-138500000D03*
D12*
X31500000Y-109000000D03*
X31500000Y-105000000D03*
X30000000Y-124500000D03*
X68500000Y-109000000D03*
X64500000Y-123000000D03*
X82000000Y-116500000D03*
D10*
X27000000Y-165000000D03*
D11*
X27000000Y-167540000D03*
D13*
X111000000Y-163500000D03*
X108460000Y-160960000D03*
X113540000Y-160960000D03*
X108460000Y-166040000D03*
X113540000Y-166040000D03*
D10*
X36460000Y-198500000D03*
D11*
X39000000Y-198500000D03*
X41540000Y-198500000D03*
D14*
X42690000Y-193000000D03*
D15*
X50310000Y-193000000D03*
D10*
X63460000Y-190500000D03*
D11*
X66000000Y-190500000D03*
X68540000Y-190500000D03*
D12*
X31500000Y-161000000D03*
X31500000Y-157000000D03*
X30000000Y-176500000D03*
X68500000Y-161000000D03*
X64500000Y-175000000D03*
X82000000Y-168500000D03*
D10*
X84000000Y-208500000D03*
D11*
X84000000Y-211040000D03*
D10*
X90000000Y-208500000D03*
D11*
X90000000Y-211040000D03*
D10*
X96000000Y-208500000D03*
D11*
X96000000Y-211040000D03*
D13*
X111000000Y-215000000D03*
X108460000Y-212460000D03*
X113540000Y-212460000D03*
X108460000Y-217540000D03*
X113540000Y-217540000D03*
D12*
X109500000Y-222500000D03*
M02*
