M48
METRIC,TZ
T1C0.400
T2C0.800
T3C0.900
T4C1.000
%
G90
G05
T1
X98.050Y-114.500
X104.000Y-114.500
X98.050Y-166.500
X105.500Y-166.500
X37.000Y-37.150
X35.874Y-28.200
X36.076Y-40.650
X41.600Y-41.126
X47.874Y-22.400
X59.000Y-29.600
X65.626Y-24.887
X69.626Y-24.887
X62.374Y-35.400
X65.374Y-35.400
X68.374Y-35.400
X82.000Y-30.600
X85.874Y-26.400
X82.000Y-40.600
X85.874Y-36.400
X75.874Y-28.900
X75.874Y-33.900
X98.625Y-28.460
X98.151Y-31.650
X95.899Y-31.620
X100.849Y-26.540
X103.575Y-29.730
X103.101Y-32.920
X100.849Y-32.890
X99.076Y-24.650
X32.626Y-63.600
X33.126Y-66.387
X38.874Y-63.900
X47.076Y-64.300
X58.374Y-63.900
X49.100Y-52.374
X65.874Y-63.900
X73.625Y-62.635
X78.101Y-64.555
X76.576Y-56.650
X70.150Y-66.424
X95.076Y-61.450
X95.076Y-55.650
X31.651Y-87.555
X25.874Y-79.900
X26.374Y-87.900
X32.576Y-93.650
X34.076Y-97.150
X44.374Y-80.900
X47.874Y-80.900
X61.076Y-82.150
X94.601Y-87.555
X83.400Y-88.050
X98.076Y-80.650
X84.200Y-84.050
X100.626Y-92.600
X32.626Y-115.600
X33.126Y-118.387
X38.874Y-115.900
X47.076Y-116.300
X58.374Y-115.900
X49.100Y-104.374
X65.874Y-115.900
X73.625Y-114.635
X78.101Y-116.555
X76.576Y-108.650
X70.150Y-118.424
X95.076Y-113.450
X95.076Y-106.350
X31.651Y-139.555
X25.874Y-131.900
X26.374Y-139.900
X32.576Y-145.650
X34.076Y-149.150
X44.374Y-132.900
X47.874Y-132.900
X61.076Y-134.150
X94.601Y-139.555
X83.400Y-140.050
X98.076Y-132.650
X84.200Y-136.050
X100.626Y-144.600
X32.626Y-167.600
X33.126Y-170.387
X38.874Y-167.900
X47.076Y-168.300
X58.374Y-167.900
X49.100Y-156.374
X65.874Y-167.900
X73.625Y-166.635
X78.101Y-168.555
X76.576Y-160.650
X70.150Y-170.424
X95.076Y-165.450
X95.076Y-158.350
X31.651Y-191.555
X25.874Y-183.900
X26.374Y-191.900
X32.576Y-197.650
X34.076Y-201.150
X44.374Y-184.900
X47.874Y-184.900
X61.076Y-186.150
X94.601Y-191.555
X83.400Y-192.050
X98.076Y-184.650
X84.200Y-188.050
X100.626Y-196.600
X102.000Y-218.100
X104.076Y-211.150
X63.180Y-28.255
X59.370Y-24.445
X76.515Y-25.715
X58.100Y-35.875
X60.005Y-32.700
X60.005Y-30.160
X59.370Y-36.510
X34.605Y-85.405
X34.605Y-80.960
X39.050Y-131.760
X34.605Y-131.760
X35.240Y-112.710
X42.860Y-169.225
X40.320Y-169.860
X53.020Y-59.370
X51.115Y-58.100
X57.465Y-65.085
X55.560Y-63.180
X53.655Y-55.560
X51.115Y-55.560
X101.915Y-212.405
X101.280Y-211.135
X84.770Y-60.005
X72.705Y-122.235
X72.705Y-82.230
X83.500Y-207.325
X89.850Y-206.690
X94.295Y-110.170
X97.470Y-113.345
X95.565Y-207.325
X94.295Y-162.240
X103.185Y-216.850
X99.375Y-213.040
X100.645Y-213.675
X98.740Y-209.865
X98.105Y-137.475
X95.565Y-136.840
X70.165Y-113.345
X70.165Y-165.415
X69.530Y-126.045
X65.085Y-84.135
X60.005Y-136.205
X65.085Y-188.275
X73.340Y-66.990
X72.705Y-64.450
X70.165Y-68.895
X73.975Y-118.425
X73.975Y-115.885
X70.165Y-122.235
X73.340Y-171.130
X72.705Y-168.590
X70.165Y-173.035
X87.945Y-62.545
X76.515Y-119.695
X91.755Y-114.615
X91.755Y-166.685
X93.025Y-85.405
X79.055Y-61.275
X93.025Y-137.475
X76.515Y-113.345
X93.025Y-189.545
X79.055Y-165.415
X30.160Y-92.390
X31.430Y-96.200
X81.595Y-37.145
X85.405Y-89.850
X87.310Y-85.405
X85.405Y-141.285
X87.310Y-137.475
X85.405Y-193.355
X87.310Y-189.545
X100.645Y-110.805
X100.645Y-162.875
X86.040Y-66.990
X94.930Y-27.620
X58.735Y-140.015
X94.930Y-30.160
X84.135Y-153.985
X100.645Y-30.795
X77.150Y-30.795
X77.785Y-24.445
X106.360Y-33.335
X103.820Y-34.605
T2
X111.000Y-59.500
X108.460Y-56.960
X113.540Y-56.960
X108.460Y-62.040
X113.540Y-62.040
X42.690Y-89.000
X50.310Y-89.000
X111.000Y-111.500
X108.460Y-108.960
X113.540Y-108.960
X108.460Y-114.040
X113.540Y-114.040
X42.690Y-141.000
X50.310Y-141.000
X111.000Y-163.500
X108.460Y-160.960
X113.540Y-160.960
X108.460Y-166.040
X113.540Y-166.040
X42.690Y-193.000
X50.310Y-193.000
X111.000Y-215.000
X108.460Y-212.460
X113.540Y-212.460
X108.460Y-217.540
X113.540Y-217.540
T3
X36.460Y-94.500
X39.000Y-94.500
X41.540Y-94.500
X63.460Y-86.500
X66.000Y-86.500
X68.540Y-86.500
X36.460Y-146.500
X39.000Y-146.500
X41.540Y-146.500
X63.460Y-138.500
X66.000Y-138.500
X68.540Y-138.500
X36.460Y-198.500
X39.000Y-198.500
X41.540Y-198.500
X63.460Y-190.500
X66.000Y-190.500
X68.540Y-190.500
T4
X24.000Y-32.000
X24.000Y-34.540
X113.000Y-28.000
X113.000Y-30.540
X113.000Y-33.080
X29.000Y-39.500
X29.000Y-43.500
X44.500Y-40.000
X73.000Y-27.000
X91.000Y-28.000
X27.000Y-61.000
X27.000Y-63.540
X31.500Y-57.000
X31.500Y-53.000
X30.000Y-72.500
X68.500Y-57.000
X64.500Y-71.000
X82.000Y-64.500
X27.000Y-113.000
X27.000Y-115.540
X31.500Y-109.000
X31.500Y-105.000
X30.000Y-124.500
X68.500Y-109.000
X64.500Y-123.000
X82.000Y-116.500
X27.000Y-165.000
X27.000Y-167.540
X31.500Y-161.000
X31.500Y-157.000
X30.000Y-176.500
X68.500Y-161.000
X64.500Y-175.000
X82.000Y-168.500
X84.000Y-208.500
X84.000Y-211.040
X90.000Y-208.500
X90.000Y-211.040
X96.000Y-208.500
X96.000Y-211.040
X109.500Y-222.500
M30
