%TF.GenerationSoftware,rivgen,1.0*%
%TF.FileFunction,Soldermask,Bot*%
%FSLAX46Y46*%
%MOMM*%
%LPD*%
G01*
%ADD10R,1.800X1.800*%
%ADD11C,1.800*%
%ADD12R,1.700X1.700*%
%ADD13C,1.700*%
%ADD14C,1.600*%
%ADD15C,2.100*%
D10*
X24000000Y-29000000D03*
D11*
X24000000Y-31540000D03*
D10*
X24000000Y-84000000D03*
D11*
X24000000Y-86540000D03*
D10*
X24000000Y-139000000D03*
D11*
X24000000Y-141540000D03*
D10*
X60460000Y-51000000D03*
D11*
X63000000Y-51000000D03*
X65540000Y-51000000D03*
D10*
X60460000Y-106000000D03*
D11*
X63000000Y-106000000D03*
X65540000Y-106000000D03*
D10*
X60460000Y-161000000D03*
D11*
X63000000Y-161000000D03*
X65540000Y-161000000D03*
D10*
X50460000Y-69500000D03*
D11*
X53000000Y-69500000D03*
X55540000Y-69500000D03*
D10*
X50460000Y-124500000D03*
D11*
X53000000Y-124500000D03*
X55540000Y-124500000D03*
D10*
X50460000Y-179500000D03*
D11*
X53000000Y-179500000D03*
X55540000Y-179500000D03*
D12*
X56690000Y-64000000D03*
D13*
X64310000Y-64000000D03*
D12*
X56690000Y-119000000D03*
D13*
X64310000Y-119000000D03*
D12*
X56690000Y-174000000D03*
D13*
X64310000Y-174000000D03*
D10*
X96500000Y-65000000D03*
D11*
X96500000Y-67540000D03*
D14*
X96000000Y-55000000D03*
X93460000Y-52460000D03*
X98540000Y-52460000D03*
X93460000Y-57540000D03*
X98540000Y-57540000D03*
X96000000Y-110000000D03*
X93460000Y-107460000D03*
X98540000Y-107460000D03*
X93460000Y-112540000D03*
X98540000Y-112540000D03*
X96000000Y-165000000D03*
X93460000Y-162460000D03*
X98540000Y-162460000D03*
X93460000Y-167540000D03*
X98540000Y-167540000D03*
D15*
X97000000Y-22000000D03*
X97000000Y-26000000D03*
X97000000Y-30000000D03*
X97000000Y-34000000D03*
X97000000Y-38000000D03*
X97000000Y-42000000D03*
X97000000Y-77000000D03*
X97000000Y-81000000D03*
X97000000Y-85000000D03*
X97000000Y-89000000D03*
X97000000Y-93000000D03*
X97000000Y-97000000D03*
X97000000Y-132000000D03*
X97000000Y-136000000D03*
X97000000Y-140000000D03*
X97000000Y-144000000D03*
X97000000Y-148000000D03*
X97000000Y-152000000D03*
D14*
X96000000Y-121000000D03*
X93460000Y-118460000D03*
X98540000Y-118460000D03*
X93460000Y-123540000D03*
X98540000Y-123540000D03*
D10*
X77000000Y-126000000D03*
D11*
X79540000Y-126000000D03*
D10*
X82500000Y-126000000D03*
D11*
X85040000Y-126000000D03*
D10*
X88000000Y-126000000D03*
D11*
X90540000Y-126000000D03*
D15*
X49000000Y-47000000D03*
X92500000Y-71000000D03*
X79000000Y-71000000D03*
X72500000Y-47000000D03*
X94000000Y-127500000D03*
X84500000Y-72500000D03*
M02*
