%TF.GenerationSoftware,rivgen,1.0*%
%TF.FileFunction,Paste,Top*%
%FSLAX46Y46*%
%MOMM*%
%LPD*%
G01*
%ADD10R,1.500X2.000*%
%ADD11R,3.600X2.200*%
%ADD12R,1.150X1.450*%
%ADD13R,1.450X1.150*%
%ADD14R,5.800X2.200*%
%ADD15R,0.600X1.100*%
%ADD16R,2.800X1.150*%
%ADD17R,1.800X1.150*%
%ADD18R,1.950X0.600*%
%ADD19R,0.900X1.000*%
D10*
X41050000Y-35150000D03*
X43350000Y-35150000D03*
X45650000Y-35150000D03*
D11*
X43350000Y-28850000D03*
D12*
X39400000Y-40000000D03*
X41300000Y-40000000D03*
X45400000Y-40000000D03*
X47300000Y-40000000D03*
D13*
X57255000Y-24950000D03*
X57255000Y-23050000D03*
D14*
X59255000Y-33100000D03*
X59255000Y-28900000D03*
D15*
X66305000Y-28300000D03*
X67255000Y-28300000D03*
X68205000Y-28300000D03*
X68205000Y-25700000D03*
X67255000Y-25700000D03*
X66305000Y-25700000D03*
D16*
X72755000Y-28462500D03*
X72755000Y-25537500D03*
D17*
X76755000Y-28462500D03*
X76755000Y-25537500D03*
D12*
X66305000Y-33000000D03*
X68205000Y-33000000D03*
X66305000Y-36500000D03*
X68205000Y-36500000D03*
D13*
X71755000Y-37950000D03*
X71755000Y-36050000D03*
X74755000Y-37950000D03*
X74755000Y-36050000D03*
X77755000Y-37950000D03*
X77755000Y-36050000D03*
D15*
X89940000Y-29300000D03*
X90890000Y-29300000D03*
X91840000Y-29300000D03*
X91840000Y-26700000D03*
X90890000Y-26700000D03*
D13*
X95890000Y-28950000D03*
X95890000Y-27050000D03*
D15*
X89940000Y-39300000D03*
X90890000Y-39300000D03*
X91840000Y-39300000D03*
X91840000Y-36700000D03*
X90890000Y-36700000D03*
D13*
X95890000Y-38950000D03*
X95890000Y-37050000D03*
X85255000Y-25950000D03*
X85255000Y-24050000D03*
X85255000Y-31450000D03*
X85255000Y-29550000D03*
X85255000Y-36450000D03*
X85255000Y-34550000D03*
D18*
X104520000Y-31690000D03*
X104520000Y-32960000D03*
X104520000Y-34230000D03*
X104520000Y-35500000D03*
X104520000Y-36770000D03*
X104520000Y-38040000D03*
X104520000Y-39310000D03*
X109470000Y-31690000D03*
X109470000Y-32960000D03*
X109470000Y-34230000D03*
X109470000Y-35500000D03*
X109470000Y-36770000D03*
X109470000Y-38040000D03*
X109470000Y-39310000D03*
D12*
X105410000Y-42000000D03*
X107310000Y-42000000D03*
X109220000Y-42000000D03*
X111120000Y-42000000D03*
X116840000Y-42000000D03*
X118740000Y-42000000D03*
D18*
X114045000Y-31690000D03*
X114045000Y-32960000D03*
X114045000Y-34230000D03*
X114045000Y-35500000D03*
X114045000Y-36770000D03*
X114045000Y-38040000D03*
X114045000Y-39310000D03*
X118995000Y-31690000D03*
X118995000Y-32960000D03*
X118995000Y-34230000D03*
X118995000Y-35500000D03*
X118995000Y-36770000D03*
X118995000Y-38040000D03*
X118995000Y-39310000D03*
D12*
X113030000Y-42000000D03*
X114930000Y-42000000D03*
D13*
X105090000Y-50450000D03*
X105090000Y-48550000D03*
X107630000Y-50450000D03*
X107630000Y-48550000D03*
X110170000Y-50450000D03*
X110170000Y-48550000D03*
X31500000Y-69940000D03*
X31500000Y-71840000D03*
X28000000Y-78340000D03*
X28000000Y-76440000D03*
D17*
X32000000Y-78852500D03*
X32000000Y-75927500D03*
D12*
X37455000Y-69890000D03*
X39355000Y-69890000D03*
D13*
X41905000Y-75340000D03*
X41905000Y-73440000D03*
D19*
X45955000Y-72540000D03*
X47855000Y-72540000D03*
X46905000Y-70240000D03*
D12*
X45955000Y-65390000D03*
X47855000Y-65390000D03*
D13*
X52905000Y-66340000D03*
X52905000Y-64440000D03*
D19*
X58355000Y-69740000D03*
X56455000Y-69740000D03*
X57405000Y-72040000D03*
D13*
X57405000Y-66340000D03*
X57405000Y-64440000D03*
X61405000Y-75340000D03*
X61405000Y-73440000D03*
D12*
X48455000Y-62390000D03*
X50355000Y-62390000D03*
X65090000Y-69890000D03*
X66990000Y-69890000D03*
D13*
X70810000Y-75340000D03*
X70810000Y-73440000D03*
D18*
X75835000Y-68985000D03*
X75835000Y-70255000D03*
X75835000Y-71525000D03*
X75835000Y-72795000D03*
X80785000Y-68985000D03*
X80785000Y-70255000D03*
X80785000Y-71525000D03*
X80785000Y-72795000D03*
D12*
X77360000Y-64890000D03*
X79260000Y-64890000D03*
D13*
X73310000Y-78340000D03*
X73310000Y-76440000D03*
D12*
X77360000Y-77390000D03*
X79260000Y-77390000D03*
X71860000Y-81890000D03*
X73760000Y-81890000D03*
D13*
X72705000Y-71340000D03*
X72705000Y-69440000D03*
X70165000Y-71340000D03*
X70165000Y-69440000D03*
D15*
X98400000Y-69690000D03*
X99350000Y-69690000D03*
X100300000Y-69690000D03*
X100300000Y-67090000D03*
X99350000Y-67090000D03*
D12*
X98400000Y-63890000D03*
X100300000Y-63890000D03*
X104400000Y-67090000D03*
X106300000Y-67090000D03*
D18*
X30525000Y-91985000D03*
X30525000Y-93255000D03*
X30525000Y-94525000D03*
X30525000Y-95795000D03*
X35475000Y-91985000D03*
X35475000Y-93255000D03*
X35475000Y-94525000D03*
X35475000Y-95795000D03*
D13*
X27000000Y-91340000D03*
X27000000Y-89440000D03*
D12*
X32050000Y-88890000D03*
X33950000Y-88890000D03*
D13*
X27500000Y-99340000D03*
X27500000Y-97440000D03*
D12*
X29550000Y-101890000D03*
X31450000Y-101890000D03*
X31050000Y-105390000D03*
X32950000Y-105390000D03*
X40050000Y-88890000D03*
X41950000Y-88890000D03*
D13*
X45500000Y-92340000D03*
X45500000Y-90440000D03*
X49000000Y-92340000D03*
X49000000Y-90440000D03*
D12*
X61860000Y-90390000D03*
X63760000Y-90390000D03*
X74860000Y-90890000D03*
X76760000Y-90890000D03*
D18*
X99825000Y-95795000D03*
X99825000Y-94525000D03*
X99825000Y-93255000D03*
X99825000Y-91985000D03*
X94875000Y-95795000D03*
X94875000Y-94525000D03*
X94875000Y-93255000D03*
X94875000Y-91985000D03*
D12*
X90400000Y-89390000D03*
X92300000Y-89390000D03*
D13*
X91350000Y-98840000D03*
X91350000Y-96940000D03*
D12*
X101400000Y-88890000D03*
X103300000Y-88890000D03*
D13*
X91850000Y-94840000D03*
X91850000Y-92940000D03*
X105850000Y-94840000D03*
X105850000Y-92940000D03*
X105850000Y-100840000D03*
X105850000Y-98940000D03*
X31500000Y-123940000D03*
X31500000Y-125840000D03*
X28000000Y-132340000D03*
X28000000Y-130440000D03*
D17*
X32000000Y-132852500D03*
X32000000Y-129927500D03*
D12*
X37455000Y-123890000D03*
X39355000Y-123890000D03*
D13*
X41905000Y-129340000D03*
X41905000Y-127440000D03*
D19*
X45955000Y-126540000D03*
X47855000Y-126540000D03*
X46905000Y-124240000D03*
D12*
X45955000Y-119390000D03*
X47855000Y-119390000D03*
D13*
X52905000Y-120340000D03*
X52905000Y-118440000D03*
D19*
X58355000Y-123740000D03*
X56455000Y-123740000D03*
X57405000Y-126040000D03*
D13*
X57405000Y-120340000D03*
X57405000Y-118440000D03*
X61405000Y-129340000D03*
X61405000Y-127440000D03*
D12*
X48455000Y-116390000D03*
X50355000Y-116390000D03*
X65090000Y-123890000D03*
X66990000Y-123890000D03*
D13*
X70810000Y-129340000D03*
X70810000Y-127440000D03*
D18*
X75835000Y-122985000D03*
X75835000Y-124255000D03*
X75835000Y-125525000D03*
X75835000Y-126795000D03*
X80785000Y-122985000D03*
X80785000Y-124255000D03*
X80785000Y-125525000D03*
X80785000Y-126795000D03*
D12*
X77360000Y-118890000D03*
X79260000Y-118890000D03*
D13*
X73310000Y-132340000D03*
X73310000Y-130440000D03*
D12*
X77360000Y-131390000D03*
X79260000Y-131390000D03*
X71860000Y-135890000D03*
X73760000Y-135890000D03*
D13*
X72705000Y-125340000D03*
X72705000Y-123440000D03*
X70165000Y-125340000D03*
X70165000Y-123440000D03*
D15*
X98400000Y-123690000D03*
X99350000Y-123690000D03*
X100300000Y-123690000D03*
X100300000Y-121090000D03*
X99350000Y-121090000D03*
D12*
X98400000Y-117890000D03*
X100300000Y-117890000D03*
X104400000Y-121090000D03*
X106300000Y-121090000D03*
D18*
X30525000Y-145985000D03*
X30525000Y-147255000D03*
X30525000Y-148525000D03*
X30525000Y-149795000D03*
X35475000Y-145985000D03*
X35475000Y-147255000D03*
X35475000Y-148525000D03*
X35475000Y-149795000D03*
D13*
X27000000Y-145340000D03*
X27000000Y-143440000D03*
D12*
X32050000Y-142890000D03*
X33950000Y-142890000D03*
D13*
X27500000Y-153340000D03*
X27500000Y-151440000D03*
D12*
X29550000Y-155890000D03*
X31450000Y-155890000D03*
X31050000Y-159390000D03*
X32950000Y-159390000D03*
X40050000Y-142890000D03*
X41950000Y-142890000D03*
D13*
X45500000Y-146340000D03*
X45500000Y-144440000D03*
X49000000Y-146340000D03*
X49000000Y-144440000D03*
D12*
X61860000Y-144390000D03*
X63760000Y-144390000D03*
X74860000Y-144890000D03*
X76760000Y-144890000D03*
D18*
X99825000Y-149795000D03*
X99825000Y-148525000D03*
X99825000Y-147255000D03*
X99825000Y-145985000D03*
X94875000Y-149795000D03*
X94875000Y-148525000D03*
X94875000Y-147255000D03*
X94875000Y-145985000D03*
D12*
X90400000Y-143390000D03*
X92300000Y-143390000D03*
D13*
X91350000Y-152840000D03*
X91350000Y-150940000D03*
D12*
X101400000Y-142890000D03*
X103300000Y-142890000D03*
D13*
X91850000Y-148840000D03*
X91850000Y-146940000D03*
X105850000Y-148840000D03*
X105850000Y-146940000D03*
X105850000Y-154840000D03*
X105850000Y-152940000D03*
X31500000Y-177940000D03*
X31500000Y-179840000D03*
X28000000Y-186340000D03*
X28000000Y-184440000D03*
D17*
X32000000Y-186852500D03*
X32000000Y-183927500D03*
D12*
X37455000Y-177890000D03*
X39355000Y-177890000D03*
D13*
X41905000Y-183340000D03*
X41905000Y-181440000D03*
D19*
X45955000Y-180540000D03*
X47855000Y-180540000D03*
X46905000Y-178240000D03*
D12*
X45955000Y-173390000D03*
X47855000Y-173390000D03*
D13*
X52905000Y-174340000D03*
X52905000Y-172440000D03*
D19*
X58355000Y-177740000D03*
X56455000Y-177740000D03*
X57405000Y-180040000D03*
D13*
X57405000Y-174340000D03*
X57405000Y-172440000D03*
X61405000Y-183340000D03*
X61405000Y-181440000D03*
D12*
X48455000Y-170390000D03*
X50355000Y-170390000D03*
X65090000Y-177890000D03*
X66990000Y-177890000D03*
D13*
X70810000Y-183340000D03*
X70810000Y-181440000D03*
D18*
X75835000Y-176985000D03*
X75835000Y-178255000D03*
X75835000Y-179525000D03*
X75835000Y-180795000D03*
X80785000Y-176985000D03*
X80785000Y-178255000D03*
X80785000Y-179525000D03*
X80785000Y-180795000D03*
D12*
X77360000Y-172890000D03*
X79260000Y-172890000D03*
D13*
X73310000Y-186340000D03*
X73310000Y-184440000D03*
D12*
X77360000Y-185390000D03*
X79260000Y-185390000D03*
X71860000Y-189890000D03*
X73760000Y-189890000D03*
D13*
X72705000Y-179340000D03*
X72705000Y-177440000D03*
X70165000Y-179340000D03*
X70165000Y-177440000D03*
D15*
X98400000Y-177690000D03*
X99350000Y-177690000D03*
X100300000Y-177690000D03*
X100300000Y-175090000D03*
X99350000Y-175090000D03*
D12*
X98400000Y-171890000D03*
X100300000Y-171890000D03*
X104400000Y-175090000D03*
X106300000Y-175090000D03*
D18*
X30525000Y-199985000D03*
X30525000Y-201255000D03*
X30525000Y-202525000D03*
X30525000Y-203795000D03*
X35475000Y-199985000D03*
X35475000Y-201255000D03*
X35475000Y-202525000D03*
X35475000Y-203795000D03*
D13*
X27000000Y-199340000D03*
X27000000Y-197440000D03*
D12*
X32050000Y-196890000D03*
X33950000Y-196890000D03*
D13*
X27500000Y-207340000D03*
X27500000Y-205440000D03*
D12*
X29550000Y-209890000D03*
X31450000Y-209890000D03*
X31050000Y-213390000D03*
X32950000Y-213390000D03*
X40050000Y-196890000D03*
X41950000Y-196890000D03*
D13*
X45500000Y-200340000D03*
X45500000Y-198440000D03*
X49000000Y-200340000D03*
X49000000Y-198440000D03*
D12*
X61860000Y-198390000D03*
X63760000Y-198390000D03*
X74860000Y-198890000D03*
X76760000Y-198890000D03*
D18*
X99825000Y-203795000D03*
X99825000Y-202525000D03*
X99825000Y-201255000D03*
X99825000Y-199985000D03*
X94875000Y-203795000D03*
X94875000Y-202525000D03*
X94875000Y-201255000D03*
X94875000Y-199985000D03*
D12*
X90400000Y-197390000D03*
X92300000Y-197390000D03*
D13*
X91350000Y-206840000D03*
X91350000Y-204940000D03*
D12*
X101400000Y-196890000D03*
X103300000Y-196890000D03*
D13*
X91850000Y-202840000D03*
X91850000Y-200940000D03*
X105850000Y-202840000D03*
X105850000Y-200940000D03*
X105850000Y-208840000D03*
X105850000Y-206940000D03*
X87550000Y-225940000D03*
X87550000Y-227840000D03*
X93550000Y-225940000D03*
X93550000Y-227840000D03*
X99550000Y-225940000D03*
X99550000Y-227840000D03*
D15*
X107400000Y-231690000D03*
X108350000Y-231690000D03*
X109300000Y-231690000D03*
X109300000Y-229090000D03*
X108350000Y-229090000D03*
X107400000Y-229090000D03*
D12*
X107400000Y-225390000D03*
X109300000Y-225390000D03*
D13*
X111850000Y-230440000D03*
X111850000Y-232340000D03*
M02*
