%TF.GenerationSoftware,rivgen,1.0*%
%TF.FileFunction,Copper,L2,Bot*%
%FSLAX46Y46*%
%MOMM*%
%LPD*%
G01*
%ADD10C,0.300*%
%ADD11C,0.500*%
%ADD12C,0.400*%
%ADD13C,0.800*%
%ADD14R,1.700X1.700*%
%ADD15C,1.700*%
%ADD16C,2.000*%
%ADD17C,1.500*%
%ADD18R,1.600X1.600*%
%ADD19C,1.600*%
%ADD20C,6.000*%
%LPD*%
G36*
X20400000Y-20400000D02*
X20400000Y-234600000D01*
X122600000Y-234600000D01*
X122600000Y-20400000D01*
X20400000Y-20400000D01*
X20400000Y-20400000D01*
G37*
%LPD*%
%LPC*%
G36*
X34050000Y-40800000D02*
X34050000Y-39272817D01*
X30467183Y-35690000D01*
X29200000Y-35690000D01*
X29200000Y-33390000D01*
X31500000Y-33390000D01*
X31500000Y-35167183D01*
X34532817Y-38200000D01*
X36650000Y-38200000D01*
X36650000Y-40800000D01*
X34050000Y-40800000D01*
X34050000Y-40800000D01*
G37*
%LPD*%
%LPC*%
G36*
X30200000Y-58300000D02*
X30200000Y-55700000D01*
X32800000Y-55700000D01*
X32800000Y-58300000D01*
X30200000Y-58300000D01*
X30200000Y-58300000D01*
G37*
%LPD*%
%LPC*%
G36*
X25850000Y-62150000D02*
X25850000Y-59850000D01*
X28150000Y-59850000D01*
X28150000Y-62150000D01*
X25850000Y-62150000D01*
X25850000Y-62150000D01*
G37*
%LPD*%
%LPC*%
G36*
X25750000Y-64790000D02*
X25750000Y-62290000D01*
X28250000Y-62290000D01*
X28250000Y-64790000D01*
X25750000Y-64790000D01*
X25750000Y-64790000D01*
G37*
%LPD*%
%LPC*%
G36*
X28600000Y-73900000D02*
X28600000Y-71100000D01*
X31400000Y-71100000D01*
X31400000Y-73900000D01*
X28600000Y-73900000D01*
X28600000Y-73900000D01*
G37*
%LPD*%
%LPC*%
G36*
X35223408Y-80452485D02*
X35270176Y-80515544D01*
X35310537Y-80582883D01*
X35344104Y-80653853D01*
X35370552Y-80727772D01*
X35389628Y-80803928D01*
X35401148Y-80881586D01*
X35405000Y-80960000D01*
X35401148Y-81038414D01*
X35389628Y-81116072D01*
X35370552Y-81192228D01*
X35344104Y-81266147D01*
X35310537Y-81337117D01*
X35270176Y-81404456D01*
X35223408Y-81467515D01*
X35205000Y-81487825D01*
X35205000Y-84877175D01*
X35223408Y-84897485D01*
X35270176Y-84960544D01*
X35310537Y-85027883D01*
X35344104Y-85098853D01*
X35370552Y-85172772D01*
X35389628Y-85248928D01*
X35401148Y-85326586D01*
X35405000Y-85405000D01*
X35401148Y-85483414D01*
X35389628Y-85561072D01*
X35370552Y-85637228D01*
X35344104Y-85711147D01*
X35310537Y-85782117D01*
X35270176Y-85849456D01*
X35223408Y-85912515D01*
X35170685Y-85970685D01*
X35112515Y-86023408D01*
X35049456Y-86070176D01*
X34982117Y-86110537D01*
X34911147Y-86144104D01*
X34837228Y-86170552D01*
X34761072Y-86189628D01*
X34683414Y-86201148D01*
X34605000Y-86205000D01*
X34526586Y-86201148D01*
X34448928Y-86189628D01*
X34372772Y-86170552D01*
X34298853Y-86144104D01*
X34227883Y-86110537D01*
X34160544Y-86070176D01*
X34097485Y-86023408D01*
X34039315Y-85970685D01*
X33986592Y-85912515D01*
X33939824Y-85849456D01*
X33899463Y-85782117D01*
X33865896Y-85711147D01*
X33839448Y-85637228D01*
X33820372Y-85561072D01*
X33808852Y-85483414D01*
X33805000Y-85405000D01*
X33808852Y-85326586D01*
X33820372Y-85248928D01*
X33839448Y-85172772D01*
X33865896Y-85098853D01*
X33899463Y-85027883D01*
X33939824Y-84960544D01*
X33986592Y-84897485D01*
X34005000Y-84877175D01*
X34005000Y-81487825D01*
X33986592Y-81467515D01*
X33939824Y-81404456D01*
X33899463Y-81337117D01*
X33865896Y-81266147D01*
X33839448Y-81192228D01*
X33820372Y-81116072D01*
X33808852Y-81038414D01*
X33805000Y-80960000D01*
X33808852Y-80881586D01*
X33820372Y-80803928D01*
X33839448Y-80727772D01*
X33865896Y-80653853D01*
X33899463Y-80582883D01*
X33939824Y-80515544D01*
X33986592Y-80452485D01*
X34039315Y-80394315D01*
X34097485Y-80341592D01*
X34160544Y-80294824D01*
X34227883Y-80254463D01*
X34298853Y-80220896D01*
X34372772Y-80194448D01*
X34448928Y-80175372D01*
X34526586Y-80163852D01*
X34605000Y-80160000D01*
X34683414Y-80163852D01*
X34761072Y-80175372D01*
X34837228Y-80194448D01*
X34911147Y-80220896D01*
X34982117Y-80254463D01*
X35049456Y-80294824D01*
X35112515Y-80341592D01*
X35170685Y-80394315D01*
X35223408Y-80452485D01*
X35223408Y-80452485D01*
G37*
%LPD*%
%LPC*%
G36*
X30363199Y-91720142D02*
X30427878Y-91743284D01*
X30489978Y-91772655D01*
X30548899Y-91807971D01*
X30604075Y-91848893D01*
X30654975Y-91895025D01*
X30695737Y-91940000D01*
X33970000Y-91940000D01*
X34014108Y-91942167D01*
X34057791Y-91948647D01*
X34100628Y-91959377D01*
X34142208Y-91974254D01*
X34182129Y-91993135D01*
X34220007Y-92015839D01*
X34255477Y-92042145D01*
X34288198Y-92071802D01*
X34791396Y-92575000D01*
X38415000Y-92575000D01*
X38459108Y-92577167D01*
X38502791Y-92583647D01*
X38545628Y-92594377D01*
X38587208Y-92609254D01*
X38627129Y-92628135D01*
X38665007Y-92650839D01*
X38700477Y-92677145D01*
X38733198Y-92706802D01*
X38762855Y-92739523D01*
X38789161Y-92774993D01*
X38811865Y-92812871D01*
X38830746Y-92852792D01*
X38845623Y-92894372D01*
X38856353Y-92937209D01*
X38862833Y-92980892D01*
X38865000Y-93025000D01*
X38865000Y-93350000D01*
X40150000Y-93350000D01*
X40150000Y-95650000D01*
X37850000Y-95650000D01*
X37850000Y-93475000D01*
X37610000Y-93475000D01*
X37610000Y-95650000D01*
X35933839Y-95650000D01*
X35930419Y-95655518D01*
X35903590Y-95690595D01*
X35873453Y-95722874D01*
X35840296Y-95752043D01*
X35804440Y-95777821D01*
X35766230Y-95799961D01*
X35446230Y-95964961D01*
X35407272Y-95982756D01*
X35366798Y-95996766D01*
X35325176Y-96006866D01*
X35282782Y-96012962D01*
X35240000Y-96015000D01*
X33521396Y-96015000D01*
X33018198Y-96518198D01*
X32985477Y-96547855D01*
X32950007Y-96574161D01*
X32912129Y-96596865D01*
X32872208Y-96615746D01*
X32830628Y-96630623D01*
X32787791Y-96641353D01*
X32744108Y-96647833D01*
X32700000Y-96650000D01*
X31965737Y-96650000D01*
X31924975Y-96694975D01*
X31874075Y-96741107D01*
X31818899Y-96782029D01*
X31759978Y-96817345D01*
X31697878Y-96846716D01*
X31633199Y-96869858D01*
X31566563Y-96886550D01*
X31498612Y-96896629D01*
X31430000Y-96900000D01*
X31361388Y-96896629D01*
X31293437Y-96886550D01*
X31226801Y-96869858D01*
X31162122Y-96846716D01*
X31100022Y-96817345D01*
X31041101Y-96782029D01*
X30985925Y-96741107D01*
X30935025Y-96694975D01*
X30888893Y-96644075D01*
X30847971Y-96588899D01*
X30812655Y-96529978D01*
X30783284Y-96467878D01*
X30760142Y-96403199D01*
X30743450Y-96336563D01*
X30733371Y-96268612D01*
X30730000Y-96200000D01*
X30733371Y-96131388D01*
X30743450Y-96063437D01*
X30760142Y-95996801D01*
X30783284Y-95932122D01*
X30812655Y-95870022D01*
X30847971Y-95811101D01*
X30888893Y-95755925D01*
X30935025Y-95705025D01*
X30985925Y-95658893D01*
X31041101Y-95617971D01*
X31100022Y-95582655D01*
X31162122Y-95553284D01*
X31226801Y-95530142D01*
X31293437Y-95513450D01*
X31361388Y-95503371D01*
X31430000Y-95500000D01*
X31498612Y-95503371D01*
X31566563Y-95513450D01*
X31633199Y-95530142D01*
X31697878Y-95553284D01*
X31759978Y-95582655D01*
X31818899Y-95617971D01*
X31874075Y-95658893D01*
X31924975Y-95705025D01*
X31965737Y-95750000D01*
X32513604Y-95750000D01*
X33016802Y-95246802D01*
X33049523Y-95217145D01*
X33084993Y-95190839D01*
X33122871Y-95168135D01*
X33162792Y-95149254D01*
X33204372Y-95134377D01*
X33247209Y-95123647D01*
X33290892Y-95117167D01*
X33335000Y-95115000D01*
X35130814Y-95115000D01*
X35310000Y-95022607D01*
X35310000Y-93475000D01*
X34605000Y-93475000D01*
X34560892Y-93472833D01*
X34517209Y-93466353D01*
X34474372Y-93455623D01*
X34432792Y-93440746D01*
X34392871Y-93421865D01*
X34354993Y-93399161D01*
X34319523Y-93372855D01*
X34286802Y-93343198D01*
X33783604Y-92840000D01*
X30695737Y-92840000D01*
X30654975Y-92884975D01*
X30604075Y-92931107D01*
X30548899Y-92972029D01*
X30489978Y-93007345D01*
X30427878Y-93036716D01*
X30363199Y-93059858D01*
X30296563Y-93076550D01*
X30228612Y-93086629D01*
X30160000Y-93090000D01*
X30091388Y-93086629D01*
X30023437Y-93076550D01*
X29956801Y-93059858D01*
X29892122Y-93036716D01*
X29830022Y-93007345D01*
X29771101Y-92972029D01*
X29715925Y-92931107D01*
X29665025Y-92884975D01*
X29618893Y-92834075D01*
X29577971Y-92778899D01*
X29542655Y-92719978D01*
X29513284Y-92657878D01*
X29490142Y-92593199D01*
X29473450Y-92526563D01*
X29463371Y-92458612D01*
X29460000Y-92390000D01*
X29463371Y-92321388D01*
X29473450Y-92253437D01*
X29490142Y-92186801D01*
X29513284Y-92122122D01*
X29542655Y-92060022D01*
X29577971Y-92001101D01*
X29618893Y-91945925D01*
X29665025Y-91895025D01*
X29715925Y-91848893D01*
X29771101Y-91807971D01*
X29830022Y-91772655D01*
X29892122Y-91743284D01*
X29956801Y-91720142D01*
X30023437Y-91703450D01*
X30091388Y-91693371D01*
X30160000Y-91690000D01*
X30228612Y-91693371D01*
X30296563Y-91703450D01*
X30363199Y-91720142D01*
X30363199Y-91720142D01*
G37*
%LPD*%
%LPC*%
G36*
X42690000Y-95650000D02*
X40390000Y-95650000D01*
X40390000Y-93350000D01*
X41775000Y-93350000D01*
X41775000Y-90100000D01*
X41590000Y-90100000D01*
X41590000Y-87900000D01*
X43790000Y-87900000D01*
X43790000Y-90100000D01*
X42675000Y-90100000D01*
X42675000Y-93350000D01*
X42690000Y-93350000D01*
X42690000Y-95650000D01*
X42690000Y-95650000D01*
G37*
%LPD*%
%LPC*%
G36*
X31746802Y-112393198D02*
X31717145Y-112360477D01*
X31690839Y-112325007D01*
X31675850Y-112300000D01*
X30200000Y-112300000D01*
X30200000Y-109700000D01*
X32800000Y-109700000D01*
X32800000Y-112173604D01*
X33018198Y-112391802D01*
X34288198Y-113661802D01*
X34791396Y-114165000D01*
X36609263Y-114165000D01*
X36650025Y-114120025D01*
X36700925Y-114073893D01*
X36756101Y-114032971D01*
X36815022Y-113997655D01*
X36877122Y-113968284D01*
X36941801Y-113945142D01*
X37008437Y-113928450D01*
X37076388Y-113918371D01*
X37145000Y-113915000D01*
X37213612Y-113918371D01*
X37281563Y-113928450D01*
X37348199Y-113945142D01*
X37412878Y-113968284D01*
X37474978Y-113997655D01*
X37533899Y-114032971D01*
X37589075Y-114073893D01*
X37639975Y-114120025D01*
X37686107Y-114170925D01*
X37727029Y-114226101D01*
X37762345Y-114285022D01*
X37791716Y-114347122D01*
X37814858Y-114411801D01*
X37831550Y-114478437D01*
X37841629Y-114546388D01*
X37845000Y-114615000D01*
X37841629Y-114683612D01*
X37831550Y-114751563D01*
X37814858Y-114818199D01*
X37791716Y-114882878D01*
X37762345Y-114944978D01*
X37727029Y-115003899D01*
X37686107Y-115059075D01*
X37639975Y-115109975D01*
X37589075Y-115156107D01*
X37533899Y-115197029D01*
X37474978Y-115232345D01*
X37412878Y-115261716D01*
X37348199Y-115284858D01*
X37281563Y-115301550D01*
X37213612Y-115311629D01*
X37145000Y-115315000D01*
X37076388Y-115311629D01*
X37008437Y-115301550D01*
X36941801Y-115284858D01*
X36877122Y-115261716D01*
X36815022Y-115232345D01*
X36756101Y-115197029D01*
X36700925Y-115156107D01*
X36650025Y-115109975D01*
X36609263Y-115065000D01*
X34605000Y-115065000D01*
X34560892Y-115062833D01*
X34517209Y-115056353D01*
X34474372Y-115045623D01*
X34432792Y-115030746D01*
X34392871Y-115011865D01*
X34354993Y-114989161D01*
X34319523Y-114962855D01*
X34286802Y-114933198D01*
X33651802Y-114298198D01*
X32381802Y-113028198D01*
X31746802Y-112393198D01*
X31746802Y-112393198D01*
G37*
%LPD*%
%LPC*%
G36*
X25850000Y-116150000D02*
X25850000Y-113850000D01*
X28150000Y-113850000D01*
X28150000Y-116150000D01*
X25850000Y-116150000D01*
X25850000Y-116150000D01*
G37*
%LPD*%
%LPC*%
G36*
X25750000Y-118790000D02*
X25750000Y-116290000D01*
X28250000Y-116290000D01*
X28250000Y-118790000D01*
X25750000Y-118790000D01*
X25750000Y-118790000D01*
G37*
%LPD*%
%LPC*%
G36*
X31400000Y-127900000D02*
X28600000Y-127900000D01*
X28600000Y-125100000D01*
X31400000Y-125100000D01*
X31400000Y-127900000D01*
X31400000Y-127900000D01*
G37*
%LPD*%
%LPC*%
G36*
X35223408Y-134427485D02*
X35270176Y-134490544D01*
X35310537Y-134557883D01*
X35344104Y-134628853D01*
X35370552Y-134702772D01*
X35389628Y-134778928D01*
X35401148Y-134856586D01*
X35405000Y-134935000D01*
X35401148Y-135013414D01*
X35389628Y-135091072D01*
X35370552Y-135167228D01*
X35344104Y-135241147D01*
X35310537Y-135312117D01*
X35270176Y-135379456D01*
X35223408Y-135442515D01*
X35205000Y-135462825D01*
X35205000Y-138852175D01*
X35223408Y-138872485D01*
X35270176Y-138935544D01*
X35310537Y-139002883D01*
X35344104Y-139073853D01*
X35370552Y-139147772D01*
X35389628Y-139223928D01*
X35401148Y-139301586D01*
X35405000Y-139380000D01*
X35401148Y-139458414D01*
X35389628Y-139536072D01*
X35370552Y-139612228D01*
X35344104Y-139686147D01*
X35310537Y-139757117D01*
X35270176Y-139824456D01*
X35223408Y-139887515D01*
X35170685Y-139945685D01*
X35112515Y-139998408D01*
X35049456Y-140045176D01*
X34982117Y-140085537D01*
X34911147Y-140119104D01*
X34837228Y-140145552D01*
X34761072Y-140164628D01*
X34683414Y-140176148D01*
X34605000Y-140180000D01*
X34526586Y-140176148D01*
X34448928Y-140164628D01*
X34372772Y-140145552D01*
X34298853Y-140119104D01*
X34227883Y-140085537D01*
X34160544Y-140045176D01*
X34097485Y-139998408D01*
X34039315Y-139945685D01*
X33986592Y-139887515D01*
X33939824Y-139824456D01*
X33899463Y-139757117D01*
X33865896Y-139686147D01*
X33839448Y-139612228D01*
X33820372Y-139536072D01*
X33808852Y-139458414D01*
X33805000Y-139380000D01*
X33808852Y-139301586D01*
X33820372Y-139223928D01*
X33839448Y-139147772D01*
X33865896Y-139073853D01*
X33899463Y-139002883D01*
X33939824Y-138935544D01*
X33986592Y-138872485D01*
X34005000Y-138852175D01*
X34005000Y-135462825D01*
X33986592Y-135442515D01*
X33939824Y-135379456D01*
X33899463Y-135312117D01*
X33865896Y-135241147D01*
X33839448Y-135167228D01*
X33820372Y-135091072D01*
X33808852Y-135013414D01*
X33805000Y-134935000D01*
X33808852Y-134856586D01*
X33820372Y-134778928D01*
X33839448Y-134702772D01*
X33865896Y-134628853D01*
X33899463Y-134557883D01*
X33939824Y-134490544D01*
X33986592Y-134427485D01*
X34039315Y-134369315D01*
X34097485Y-134316592D01*
X34160544Y-134269824D01*
X34227883Y-134229463D01*
X34298853Y-134195896D01*
X34372772Y-134169448D01*
X34448928Y-134150372D01*
X34526586Y-134138852D01*
X34605000Y-134135000D01*
X34683414Y-134138852D01*
X34761072Y-134150372D01*
X34837228Y-134169448D01*
X34911147Y-134195896D01*
X34982117Y-134229463D01*
X35049456Y-134269824D01*
X35112515Y-134316592D01*
X35170685Y-134369315D01*
X35223408Y-134427485D01*
X35223408Y-134427485D01*
G37*
%LPD*%
%LPC*%
G36*
X30363199Y-145695142D02*
X30427878Y-145718284D01*
X30489978Y-145747655D01*
X30548899Y-145782971D01*
X30604075Y-145823893D01*
X30654975Y-145870025D01*
X30695737Y-145915000D01*
X33335000Y-145915000D01*
X33379108Y-145917167D01*
X33422791Y-145923647D01*
X33465628Y-145934377D01*
X33507208Y-145949254D01*
X33547129Y-145968135D01*
X33585007Y-145990839D01*
X33620477Y-146017145D01*
X33653198Y-146046802D01*
X34156396Y-146550000D01*
X38415000Y-146550000D01*
X38459108Y-146552167D01*
X38502791Y-146558647D01*
X38545628Y-146569377D01*
X38587208Y-146584254D01*
X38627129Y-146603135D01*
X38665007Y-146625839D01*
X38700477Y-146652145D01*
X38733198Y-146681802D01*
X38762855Y-146714523D01*
X38789161Y-146749993D01*
X38811865Y-146787871D01*
X38830746Y-146827792D01*
X38845623Y-146869372D01*
X38856353Y-146912209D01*
X38862833Y-146955892D01*
X38865000Y-147000000D01*
X38865000Y-147350000D01*
X40150000Y-147350000D01*
X40150000Y-149650000D01*
X37850000Y-149650000D01*
X37850000Y-147450000D01*
X37610000Y-147450000D01*
X37610000Y-149650000D01*
X35933739Y-149650000D01*
X35913414Y-149678565D01*
X35884408Y-149711865D01*
X35852278Y-149742160D01*
X35817333Y-149769161D01*
X35779910Y-149792606D01*
X35740368Y-149812271D01*
X35420368Y-149952271D01*
X35376980Y-149968645D01*
X35332136Y-149980467D01*
X35286314Y-149987610D01*
X35240000Y-149990000D01*
X33521396Y-149990000D01*
X33018198Y-150493198D01*
X32985477Y-150522855D01*
X32950007Y-150549161D01*
X32912129Y-150571865D01*
X32872208Y-150590746D01*
X32830628Y-150605623D01*
X32787791Y-150616353D01*
X32744108Y-150622833D01*
X32700000Y-150625000D01*
X31965737Y-150625000D01*
X31924975Y-150669975D01*
X31874075Y-150716107D01*
X31818899Y-150757029D01*
X31759978Y-150792345D01*
X31697878Y-150821716D01*
X31633199Y-150844858D01*
X31566563Y-150861550D01*
X31498612Y-150871629D01*
X31430000Y-150875000D01*
X31361388Y-150871629D01*
X31293437Y-150861550D01*
X31226801Y-150844858D01*
X31162122Y-150821716D01*
X31100022Y-150792345D01*
X31041101Y-150757029D01*
X30985925Y-150716107D01*
X30935025Y-150669975D01*
X30888893Y-150619075D01*
X30847971Y-150563899D01*
X30812655Y-150504978D01*
X30783284Y-150442878D01*
X30760142Y-150378199D01*
X30743450Y-150311563D01*
X30733371Y-150243612D01*
X30730000Y-150175000D01*
X30733371Y-150106388D01*
X30743450Y-150038437D01*
X30760142Y-149971801D01*
X30783284Y-149907122D01*
X30812655Y-149845022D01*
X30847971Y-149786101D01*
X30888893Y-149730925D01*
X30935025Y-149680025D01*
X30985925Y-149633893D01*
X31041101Y-149592971D01*
X31100022Y-149557655D01*
X31162122Y-149528284D01*
X31226801Y-149505142D01*
X31293437Y-149488450D01*
X31361388Y-149478371D01*
X31430000Y-149475000D01*
X31498612Y-149478371D01*
X31566563Y-149488450D01*
X31633199Y-149505142D01*
X31697878Y-149528284D01*
X31759978Y-149557655D01*
X31818899Y-149592971D01*
X31874075Y-149633893D01*
X31924975Y-149680025D01*
X31965737Y-149725000D01*
X32513604Y-149725000D01*
X33016802Y-149221802D01*
X33049523Y-149192145D01*
X33084993Y-149165839D01*
X33122871Y-149143135D01*
X33162792Y-149124254D01*
X33204372Y-149109377D01*
X33247209Y-149098647D01*
X33290892Y-149092167D01*
X33335000Y-149090000D01*
X35145870Y-149090000D01*
X35310000Y-149018193D01*
X35310000Y-147450000D01*
X33970000Y-147450000D01*
X33925892Y-147447833D01*
X33882209Y-147441353D01*
X33839372Y-147430623D01*
X33797792Y-147415746D01*
X33757871Y-147396865D01*
X33719993Y-147374161D01*
X33684523Y-147347855D01*
X33651802Y-147318198D01*
X33148604Y-146815000D01*
X30695737Y-146815000D01*
X30654975Y-146859975D01*
X30604075Y-146906107D01*
X30548899Y-146947029D01*
X30489978Y-146982345D01*
X30427878Y-147011716D01*
X30363199Y-147034858D01*
X30296563Y-147051550D01*
X30228612Y-147061629D01*
X30160000Y-147065000D01*
X30091388Y-147061629D01*
X30023437Y-147051550D01*
X29956801Y-147034858D01*
X29892122Y-147011716D01*
X29830022Y-146982345D01*
X29771101Y-146947029D01*
X29715925Y-146906107D01*
X29665025Y-146859975D01*
X29618893Y-146809075D01*
X29577971Y-146753899D01*
X29542655Y-146694978D01*
X29513284Y-146632878D01*
X29490142Y-146568199D01*
X29473450Y-146501563D01*
X29463371Y-146433612D01*
X29460000Y-146365000D01*
X29463371Y-146296388D01*
X29473450Y-146228437D01*
X29490142Y-146161801D01*
X29513284Y-146097122D01*
X29542655Y-146035022D01*
X29577971Y-145976101D01*
X29618893Y-145920925D01*
X29665025Y-145870025D01*
X29715925Y-145823893D01*
X29771101Y-145782971D01*
X29830022Y-145747655D01*
X29892122Y-145718284D01*
X29956801Y-145695142D01*
X30023437Y-145678450D01*
X30091388Y-145668371D01*
X30160000Y-145665000D01*
X30228612Y-145668371D01*
X30296563Y-145678450D01*
X30363199Y-145695142D01*
X30363199Y-145695142D01*
G37*
%LPD*%
%LPC*%
G36*
X40390000Y-149650000D02*
X40390000Y-147350000D01*
X41775000Y-147350000D01*
X41775000Y-144100000D01*
X41590000Y-144100000D01*
X41590000Y-141900000D01*
X43790000Y-141900000D01*
X43790000Y-144100000D01*
X42675000Y-144100000D01*
X42675000Y-147350000D01*
X42690000Y-147350000D01*
X42690000Y-149650000D01*
X40390000Y-149650000D01*
X40390000Y-149650000D01*
G37*
%LPD*%
%LPC*%
G36*
X31746802Y-166368198D02*
X31717145Y-166335477D01*
X31690839Y-166300007D01*
X31690835Y-166300000D01*
X30200000Y-166300000D01*
X30200000Y-163700000D01*
X32800000Y-163700000D01*
X32800000Y-166148604D01*
X33018198Y-166366802D01*
X33653198Y-167001802D01*
X34288198Y-167636802D01*
X34791396Y-168140000D01*
X36609263Y-168140000D01*
X36650025Y-168095025D01*
X36700925Y-168048893D01*
X36756101Y-168007971D01*
X36815022Y-167972655D01*
X36877122Y-167943284D01*
X36941801Y-167920142D01*
X37008437Y-167903450D01*
X37076388Y-167893371D01*
X37145000Y-167890000D01*
X37213612Y-167893371D01*
X37281563Y-167903450D01*
X37348199Y-167920142D01*
X37412878Y-167943284D01*
X37474978Y-167972655D01*
X37533899Y-168007971D01*
X37589075Y-168048893D01*
X37639975Y-168095025D01*
X37686107Y-168145925D01*
X37727029Y-168201101D01*
X37762345Y-168260022D01*
X37791716Y-168322122D01*
X37814858Y-168386801D01*
X37831550Y-168453437D01*
X37841629Y-168521388D01*
X37845000Y-168590000D01*
X37841629Y-168658612D01*
X37831550Y-168726563D01*
X37814858Y-168793199D01*
X37791716Y-168857878D01*
X37762345Y-168919978D01*
X37727029Y-168978899D01*
X37686107Y-169034075D01*
X37639975Y-169084975D01*
X37589075Y-169131107D01*
X37533899Y-169172029D01*
X37474978Y-169207345D01*
X37412878Y-169236716D01*
X37348199Y-169259858D01*
X37281563Y-169276550D01*
X37213612Y-169286629D01*
X37145000Y-169290000D01*
X37076388Y-169286629D01*
X37008437Y-169276550D01*
X36941801Y-169259858D01*
X36877122Y-169236716D01*
X36815022Y-169207345D01*
X36756101Y-169172029D01*
X36700925Y-169131107D01*
X36650025Y-169084975D01*
X36609263Y-169040000D01*
X34605000Y-169040000D01*
X34560892Y-169037833D01*
X34517209Y-169031353D01*
X34474372Y-169020623D01*
X34432792Y-169005746D01*
X34392871Y-168986865D01*
X34354993Y-168964161D01*
X34319523Y-168937855D01*
X34286802Y-168908198D01*
X33651802Y-168273198D01*
X33016802Y-167638198D01*
X32381802Y-167003198D01*
X31746802Y-166368198D01*
X31746802Y-166368198D01*
G37*
%LPD*%
%LPC*%
G36*
X25850000Y-170150000D02*
X25850000Y-167850000D01*
X28150000Y-167850000D01*
X28150000Y-170150000D01*
X25850000Y-170150000D01*
X25850000Y-170150000D01*
G37*
%LPD*%
%LPC*%
G36*
X25750000Y-172790000D02*
X25750000Y-170290000D01*
X28250000Y-170290000D01*
X28250000Y-172790000D01*
X25750000Y-172790000D01*
X25750000Y-172790000D01*
G37*
%LPD*%
%LPC*%
G36*
X31400000Y-181900000D02*
X28600000Y-181900000D01*
X28600000Y-179100000D01*
X31400000Y-179100000D01*
X31400000Y-181900000D01*
X31400000Y-181900000D01*
G37*
%LPD*%
%LPC*%
G36*
X41775000Y-201350000D02*
X41775000Y-198100000D01*
X41590000Y-198100000D01*
X41590000Y-195900000D01*
X43790000Y-195900000D01*
X43790000Y-198100000D01*
X42675000Y-198100000D01*
X42675000Y-201350000D01*
X42690000Y-201350000D01*
X42690000Y-203650000D01*
X40390000Y-203650000D01*
X40390000Y-201350000D01*
X41775000Y-201350000D01*
X41775000Y-201350000D01*
G37*
%LPD*%
%LPC*%
G36*
X40150000Y-203650000D02*
X37850000Y-203650000D01*
X37850000Y-201350000D01*
X40150000Y-201350000D01*
X40150000Y-203650000D01*
X40150000Y-203650000D01*
G37*
%LPD*%
%LPC*%
G36*
X37610000Y-203650000D02*
X35310000Y-203650000D01*
X35310000Y-201350000D01*
X37610000Y-201350000D01*
X37610000Y-203650000D01*
X37610000Y-203650000D01*
G37*
%LPD*%
%LPC*%
G36*
X66862515Y-32081592D02*
X66882825Y-32100000D01*
X68646472Y-32100000D01*
X69105736Y-31640736D01*
X69149364Y-31601194D01*
X69196658Y-31566118D01*
X69247162Y-31535847D01*
X69300390Y-31510672D01*
X69355829Y-31490836D01*
X69412946Y-31476529D01*
X69471190Y-31467889D01*
X69530000Y-31465000D01*
X70551472Y-31465000D01*
X71010736Y-31005736D01*
X71645736Y-30370736D01*
X72915736Y-29100736D01*
X73550736Y-28465736D01*
X73594364Y-28426194D01*
X73641658Y-28391118D01*
X73692162Y-28360847D01*
X73745390Y-28335672D01*
X73800829Y-28315836D01*
X73857946Y-28301529D01*
X73916190Y-28292889D01*
X73975000Y-28290000D01*
X79441472Y-28290000D01*
X79727249Y-28004223D01*
X79727889Y-27991190D01*
X79736529Y-27932946D01*
X79750836Y-27875829D01*
X79770672Y-27820390D01*
X79795847Y-27767162D01*
X79826118Y-27716658D01*
X79855000Y-27677715D01*
X79855000Y-25600000D01*
X82655000Y-25600000D01*
X82655000Y-28400000D01*
X80906471Y-28400000D01*
X80899164Y-28429171D01*
X80879328Y-28484610D01*
X80854153Y-28537838D01*
X80823882Y-28588342D01*
X80788806Y-28635636D01*
X80749264Y-28679264D01*
X80114264Y-29314264D01*
X80070636Y-29353806D01*
X80023342Y-29388882D01*
X79972838Y-29419153D01*
X79919610Y-29444328D01*
X79864171Y-29464164D01*
X79807054Y-29478471D01*
X79748810Y-29487111D01*
X79690000Y-29490000D01*
X74223528Y-29490000D01*
X73764264Y-29949264D01*
X72494264Y-31219264D01*
X72306479Y-31407049D01*
X72337878Y-31418284D01*
X72399978Y-31447655D01*
X72458899Y-31482971D01*
X72514075Y-31523893D01*
X72564975Y-31570025D01*
X72611107Y-31620925D01*
X72652029Y-31676101D01*
X72687345Y-31735022D01*
X72716716Y-31797122D01*
X72739858Y-31861801D01*
X72756550Y-31928437D01*
X72766629Y-31996388D01*
X72770000Y-32065000D01*
X72766629Y-32133612D01*
X72756550Y-32201563D01*
X72739858Y-32268199D01*
X72716716Y-32332878D01*
X72687345Y-32394978D01*
X72652029Y-32453899D01*
X72611107Y-32509075D01*
X72564975Y-32559975D01*
X72520000Y-32600737D01*
X72520000Y-32700000D01*
X72517833Y-32744108D01*
X72511353Y-32787791D01*
X72500623Y-32830628D01*
X72485746Y-32872208D01*
X72466865Y-32912129D01*
X72444161Y-32950007D01*
X72417855Y-32985477D01*
X72388198Y-33018198D01*
X71753198Y-33653198D01*
X71720477Y-33682855D01*
X71685007Y-33709161D01*
X71647129Y-33731865D01*
X71607208Y-33750746D01*
X71565628Y-33765623D01*
X71522791Y-33776353D01*
X71479108Y-33782833D01*
X71435000Y-33785000D01*
X70700737Y-33785000D01*
X70659975Y-33829975D01*
X70609075Y-33876107D01*
X70553899Y-33917029D01*
X70494978Y-33952345D01*
X70432878Y-33981716D01*
X70368199Y-34004858D01*
X70301563Y-34021550D01*
X70233612Y-34031629D01*
X70165000Y-34035000D01*
X70096388Y-34031629D01*
X70028437Y-34021550D01*
X69961801Y-34004858D01*
X69897122Y-33981716D01*
X69835022Y-33952345D01*
X69776101Y-33917029D01*
X69720925Y-33876107D01*
X69670025Y-33829975D01*
X69623893Y-33779075D01*
X69582971Y-33723899D01*
X69547655Y-33664978D01*
X69518284Y-33602878D01*
X69495142Y-33538199D01*
X69478450Y-33471563D01*
X69468371Y-33403612D01*
X69465000Y-33335000D01*
X69468371Y-33266388D01*
X69478450Y-33198437D01*
X69495142Y-33131801D01*
X69518284Y-33067122D01*
X69547655Y-33005022D01*
X69582971Y-32946101D01*
X69623893Y-32890925D01*
X69670025Y-32840025D01*
X69720925Y-32793893D01*
X69776101Y-32752971D01*
X69835022Y-32717655D01*
X69897122Y-32688284D01*
X69961801Y-32665142D01*
X69962367Y-32665000D01*
X69778528Y-32665000D01*
X69319264Y-33124264D01*
X69275636Y-33163806D01*
X69228342Y-33198882D01*
X69177838Y-33229153D01*
X69124610Y-33254328D01*
X69069171Y-33274164D01*
X69012054Y-33288471D01*
X68953810Y-33297111D01*
X68895000Y-33300000D01*
X66882825Y-33300000D01*
X66862515Y-33318408D01*
X66799456Y-33365176D01*
X66732117Y-33405537D01*
X66661147Y-33439104D01*
X66587228Y-33465552D01*
X66511072Y-33484628D01*
X66433414Y-33496148D01*
X66355000Y-33500000D01*
X66276586Y-33496148D01*
X66198928Y-33484628D01*
X66122772Y-33465552D01*
X66048853Y-33439104D01*
X65977883Y-33405537D01*
X65910544Y-33365176D01*
X65847485Y-33318408D01*
X65789315Y-33265685D01*
X65736592Y-33207515D01*
X65689824Y-33144456D01*
X65649463Y-33077117D01*
X65615896Y-33006147D01*
X65589448Y-32932228D01*
X65570372Y-32856072D01*
X65558852Y-32778414D01*
X65555000Y-32700000D01*
X65558852Y-32621586D01*
X65570372Y-32543928D01*
X65589448Y-32467772D01*
X65615896Y-32393853D01*
X65649463Y-32322883D01*
X65689824Y-32255544D01*
X65736592Y-32192485D01*
X65789315Y-32134315D01*
X65847485Y-32081592D01*
X65910544Y-32034824D01*
X65977883Y-31994463D01*
X66048853Y-31960896D01*
X66122772Y-31934448D01*
X66198928Y-31915372D01*
X66276586Y-31903852D01*
X66355000Y-31900000D01*
X66433414Y-31903852D01*
X66511072Y-31915372D01*
X66587228Y-31934448D01*
X66661147Y-31960896D01*
X66732117Y-31994463D01*
X66799456Y-32034824D01*
X66862515Y-32081592D01*
X66862515Y-32081592D01*
G37*
%LPD*%
%LPC*%
G36*
X52150000Y-41300000D02*
X49550000Y-41300000D01*
X49550000Y-38700000D01*
X52150000Y-38700000D01*
X52150000Y-41300000D01*
X52150000Y-41300000D01*
G37*
%LPD*%
%LPC*%
G36*
X56142029Y-55171101D02*
X56177345Y-55230022D01*
X56206716Y-55292122D01*
X56229858Y-55356801D01*
X56246550Y-55423437D01*
X56256629Y-55491388D01*
X56260000Y-55560000D01*
X56256629Y-55628612D01*
X56246550Y-55696563D01*
X56229858Y-55763199D01*
X56206716Y-55827878D01*
X56177345Y-55889978D01*
X56142029Y-55948899D01*
X56101107Y-56004075D01*
X56054975Y-56054975D01*
X56004075Y-56101107D01*
X55948899Y-56142029D01*
X55889978Y-56177345D01*
X55827878Y-56206716D01*
X55763199Y-56229858D01*
X55696563Y-56246550D01*
X55628612Y-56256629D01*
X55560000Y-56260000D01*
X55491388Y-56256629D01*
X55423437Y-56246550D01*
X55356801Y-56229858D01*
X55292122Y-56206716D01*
X55230022Y-56177345D01*
X55171101Y-56142029D01*
X55127915Y-56110000D01*
X53452085Y-56110000D01*
X53408899Y-56142029D01*
X53349978Y-56177345D01*
X53287878Y-56206716D01*
X53223199Y-56229858D01*
X53156563Y-56246550D01*
X53088612Y-56256629D01*
X53020000Y-56260000D01*
X52951388Y-56256629D01*
X52883437Y-56246550D01*
X52816801Y-56229858D01*
X52752122Y-56206716D01*
X52690022Y-56177345D01*
X52631101Y-56142029D01*
X52575925Y-56101107D01*
X52525025Y-56054975D01*
X52478893Y-56004075D01*
X52437971Y-55948899D01*
X52402655Y-55889978D01*
X52373284Y-55827878D01*
X52350142Y-55763199D01*
X52333450Y-55696563D01*
X52323371Y-55628612D01*
X52320000Y-55560000D01*
X52323371Y-55491388D01*
X52333450Y-55423437D01*
X52350142Y-55356801D01*
X52373284Y-55292122D01*
X52402655Y-55230022D01*
X52437971Y-55171101D01*
X52478893Y-55115925D01*
X52525025Y-55065025D01*
X52575925Y-55018893D01*
X52631101Y-54977971D01*
X52690022Y-54942655D01*
X52752122Y-54913284D01*
X52816801Y-54890142D01*
X52883437Y-54873450D01*
X52951388Y-54863371D01*
X53020000Y-54860000D01*
X53088612Y-54863371D01*
X53156563Y-54873450D01*
X53223199Y-54890142D01*
X53287878Y-54913284D01*
X53349978Y-54942655D01*
X53408899Y-54977971D01*
X53452085Y-55010000D01*
X55127915Y-55010000D01*
X55171101Y-54977971D01*
X55230022Y-54942655D01*
X55292122Y-54913284D01*
X55356801Y-54890142D01*
X55423437Y-54873450D01*
X55491388Y-54863371D01*
X55560000Y-54860000D01*
X55628612Y-54863371D01*
X55696563Y-54873450D01*
X55763199Y-54890142D01*
X55827878Y-54913284D01*
X55889978Y-54942655D01*
X55948899Y-54977971D01*
X56004075Y-55018893D01*
X56054975Y-55065025D01*
X56101107Y-55115925D01*
X56142029Y-55171101D01*
X56142029Y-55171101D01*
G37*
%LPD*%
%LPC*%
G36*
X53561107Y-57655925D02*
X53602029Y-57711101D01*
X53637345Y-57770022D01*
X53666716Y-57832122D01*
X53689858Y-57896801D01*
X53706550Y-57963437D01*
X53716629Y-58031388D01*
X53720000Y-58100000D01*
X53717022Y-58160626D01*
X54430758Y-58874361D01*
X54480925Y-58828893D01*
X54536101Y-58787971D01*
X54595022Y-58752655D01*
X54657122Y-58723284D01*
X54721801Y-58700142D01*
X54788437Y-58683450D01*
X54856388Y-58673371D01*
X54925000Y-58670000D01*
X54993612Y-58673371D01*
X55061563Y-58683450D01*
X55128199Y-58700142D01*
X55192878Y-58723284D01*
X55254978Y-58752655D01*
X55313899Y-58787971D01*
X55369075Y-58828893D01*
X55419975Y-58875025D01*
X55466107Y-58925925D01*
X55507029Y-58981101D01*
X55542345Y-59040022D01*
X55571716Y-59102122D01*
X55594858Y-59166801D01*
X55611550Y-59233437D01*
X55621629Y-59301388D01*
X55625000Y-59370000D01*
X55621629Y-59438612D01*
X55611550Y-59506563D01*
X55594858Y-59573199D01*
X55571716Y-59637878D01*
X55542345Y-59699978D01*
X55507029Y-59758899D01*
X55466107Y-59814075D01*
X55419975Y-59864975D01*
X55369075Y-59911107D01*
X55313899Y-59952029D01*
X55254978Y-59987345D01*
X55192878Y-60016716D01*
X55128199Y-60039858D01*
X55061563Y-60056550D01*
X54993612Y-60066629D01*
X54925000Y-60070000D01*
X54856388Y-60066629D01*
X54788437Y-60056550D01*
X54721801Y-60039858D01*
X54657122Y-60016716D01*
X54595022Y-59987345D01*
X54536101Y-59952029D01*
X54480925Y-59911107D01*
X54430025Y-59864975D01*
X54389263Y-59820000D01*
X54290000Y-59820000D01*
X54245892Y-59817833D01*
X54202209Y-59811353D01*
X54159372Y-59800623D01*
X54117792Y-59785746D01*
X54077871Y-59766865D01*
X54039993Y-59744161D01*
X54004523Y-59717855D01*
X53971802Y-59688198D01*
X53080626Y-58797022D01*
X53020000Y-58800000D01*
X52951388Y-58796629D01*
X52883437Y-58786550D01*
X52816801Y-58769858D01*
X52752122Y-58746716D01*
X52690022Y-58717345D01*
X52631101Y-58682029D01*
X52575925Y-58641107D01*
X52525025Y-58594975D01*
X52478893Y-58544075D01*
X52437971Y-58488899D01*
X52402655Y-58429978D01*
X52373284Y-58367878D01*
X52350142Y-58303199D01*
X52333450Y-58236563D01*
X52323371Y-58168612D01*
X52320000Y-58100000D01*
X52323371Y-58031388D01*
X52333450Y-57963437D01*
X52350142Y-57896801D01*
X52373284Y-57832122D01*
X52402655Y-57770022D01*
X52437971Y-57711101D01*
X52478893Y-57655925D01*
X52525025Y-57605025D01*
X52575925Y-57558893D01*
X52631101Y-57517971D01*
X52690022Y-57482655D01*
X52752122Y-57453284D01*
X52816801Y-57430142D01*
X52883437Y-57413450D01*
X52951388Y-57403371D01*
X53020000Y-57400000D01*
X53088612Y-57403371D01*
X53156563Y-57413450D01*
X53223199Y-57430142D01*
X53287878Y-57453284D01*
X53349978Y-57482655D01*
X53408899Y-57517971D01*
X53464075Y-57558893D01*
X53514975Y-57605025D01*
X53561107Y-57655925D01*
X53561107Y-57655925D01*
G37*
%LPD*%
%LPC*%
G36*
X58006107Y-62735925D02*
X58047029Y-62791101D01*
X58082345Y-62850022D01*
X58111716Y-62912122D01*
X58134858Y-62976801D01*
X58151550Y-63043437D01*
X58161629Y-63111388D01*
X58165000Y-63180000D01*
X58162022Y-63240626D01*
X58418198Y-63496802D01*
X59053198Y-64131802D01*
X59309374Y-64387978D01*
X59370000Y-64385000D01*
X59438612Y-64388371D01*
X59506563Y-64398450D01*
X59573199Y-64415142D01*
X59637878Y-64438284D01*
X59699978Y-64467655D01*
X59758899Y-64502971D01*
X59814075Y-64543893D01*
X59864975Y-64590025D01*
X59911107Y-64640925D01*
X59952029Y-64696101D01*
X59987345Y-64755022D01*
X60016716Y-64817122D01*
X60039858Y-64881801D01*
X60056550Y-64948437D01*
X60066629Y-65016388D01*
X60070000Y-65085000D01*
X60066629Y-65153612D01*
X60056550Y-65221563D01*
X60039858Y-65288199D01*
X60016716Y-65352878D01*
X59987345Y-65414978D01*
X59952029Y-65473899D01*
X59911107Y-65529075D01*
X59864975Y-65579975D01*
X59814075Y-65626107D01*
X59758899Y-65667029D01*
X59699978Y-65702345D01*
X59637878Y-65731716D01*
X59573199Y-65754858D01*
X59506563Y-65771550D01*
X59438612Y-65781629D01*
X59370000Y-65785000D01*
X59301388Y-65781629D01*
X59233437Y-65771550D01*
X59166801Y-65754858D01*
X59102122Y-65731716D01*
X59040022Y-65702345D01*
X58981101Y-65667029D01*
X58925925Y-65626107D01*
X58875025Y-65579975D01*
X58828893Y-65529075D01*
X58787971Y-65473899D01*
X58752655Y-65414978D01*
X58723284Y-65352878D01*
X58700142Y-65288199D01*
X58683450Y-65221563D01*
X58673371Y-65153612D01*
X58670000Y-65085000D01*
X58672978Y-65024374D01*
X58416802Y-64768198D01*
X57781802Y-64133198D01*
X57525626Y-63877022D01*
X57465000Y-63880000D01*
X57396388Y-63876629D01*
X57328437Y-63866550D01*
X57261801Y-63849858D01*
X57197122Y-63826716D01*
X57135022Y-63797345D01*
X57076101Y-63762029D01*
X57020925Y-63721107D01*
X56970025Y-63674975D01*
X56923893Y-63624075D01*
X56882971Y-63568899D01*
X56847655Y-63509978D01*
X56818284Y-63447878D01*
X56795142Y-63383199D01*
X56778450Y-63316563D01*
X56768371Y-63248612D01*
X56765000Y-63180000D01*
X56768371Y-63111388D01*
X56778450Y-63043437D01*
X56795142Y-62976801D01*
X56818284Y-62912122D01*
X56847655Y-62850022D01*
X56882971Y-62791101D01*
X56923893Y-62735925D01*
X56970025Y-62685025D01*
X57020925Y-62638893D01*
X57076101Y-62597971D01*
X57135022Y-62562655D01*
X57197122Y-62533284D01*
X57261801Y-62510142D01*
X57328437Y-62493450D01*
X57396388Y-62483371D01*
X57465000Y-62480000D01*
X57533612Y-62483371D01*
X57601563Y-62493450D01*
X57668199Y-62510142D01*
X57732878Y-62533284D01*
X57794978Y-62562655D01*
X57853899Y-62597971D01*
X57909075Y-62638893D01*
X57959975Y-62685025D01*
X58006107Y-62735925D01*
X58006107Y-62735925D01*
G37*
%LPD*%
%LPC*%
G36*
X69610000Y-72300000D02*
X67010000Y-72300000D01*
X67010000Y-69700000D01*
X69610000Y-69700000D01*
X69610000Y-72300000D01*
X69610000Y-72300000D01*
G37*
%LPD*%
%LPC*%
G36*
X69339075Y-83593893D02*
X69389975Y-83640025D01*
X69430737Y-83685000D01*
X70165000Y-83685000D01*
X70209108Y-83687167D01*
X70252791Y-83693647D01*
X70295628Y-83704377D01*
X70337208Y-83719254D01*
X70377129Y-83738135D01*
X70415007Y-83760839D01*
X70450477Y-83787145D01*
X70483198Y-83816802D01*
X70986396Y-84320000D01*
X71435000Y-84320000D01*
X71479108Y-84322167D01*
X71522791Y-84328647D01*
X71565628Y-84339377D01*
X71607208Y-84354254D01*
X71647129Y-84373135D01*
X71685007Y-84395839D01*
X71720477Y-84422145D01*
X71753198Y-84451802D01*
X71782855Y-84484523D01*
X71809161Y-84519993D01*
X71831865Y-84557871D01*
X71850746Y-84597792D01*
X71865623Y-84639372D01*
X71876353Y-84682209D01*
X71882833Y-84725892D01*
X71885000Y-84770000D01*
X71885000Y-85350000D01*
X73500000Y-85350000D01*
X73500000Y-87650000D01*
X71200000Y-87650000D01*
X71200000Y-85973729D01*
X71192043Y-85968725D01*
X71157144Y-85941665D01*
X71125065Y-85911315D01*
X71096115Y-85877967D01*
X71070574Y-85841942D01*
X71048687Y-85803587D01*
X71030664Y-85763271D01*
X71016680Y-85721382D01*
X71006869Y-85678325D01*
X71001325Y-85634513D01*
X70986325Y-85439513D01*
X70985000Y-85405000D01*
X70985000Y-85220000D01*
X70800000Y-85220000D01*
X70755892Y-85217833D01*
X70712209Y-85211353D01*
X70669372Y-85200623D01*
X70627792Y-85185746D01*
X70587871Y-85166865D01*
X70549993Y-85144161D01*
X70514523Y-85117855D01*
X70481802Y-85088198D01*
X69978604Y-84585000D01*
X69430737Y-84585000D01*
X69389975Y-84629975D01*
X69339075Y-84676107D01*
X69283899Y-84717029D01*
X69224978Y-84752345D01*
X69162878Y-84781716D01*
X69098199Y-84804858D01*
X69031563Y-84821550D01*
X68963612Y-84831629D01*
X68895000Y-84835000D01*
X68826388Y-84831629D01*
X68758437Y-84821550D01*
X68691801Y-84804858D01*
X68627122Y-84781716D01*
X68565022Y-84752345D01*
X68506101Y-84717029D01*
X68450925Y-84676107D01*
X68400025Y-84629975D01*
X68353893Y-84579075D01*
X68312971Y-84523899D01*
X68277655Y-84464978D01*
X68248284Y-84402878D01*
X68225142Y-84338199D01*
X68208450Y-84271563D01*
X68198371Y-84203612D01*
X68195000Y-84135000D01*
X68198371Y-84066388D01*
X68208450Y-83998437D01*
X68225142Y-83931801D01*
X68248284Y-83867122D01*
X68277655Y-83805022D01*
X68312971Y-83746101D01*
X68353893Y-83690925D01*
X68400025Y-83640025D01*
X68450925Y-83593893D01*
X68506101Y-83552971D01*
X68565022Y-83517655D01*
X68627122Y-83488284D01*
X68691801Y-83465142D01*
X68758437Y-83448450D01*
X68826388Y-83438371D01*
X68895000Y-83435000D01*
X68963612Y-83438371D01*
X69031563Y-83448450D01*
X69098199Y-83465142D01*
X69162878Y-83488284D01*
X69224978Y-83517655D01*
X69283899Y-83552971D01*
X69339075Y-83593893D01*
X69339075Y-83593893D01*
G37*
%LPD*%
%LPC*%
G36*
X68420000Y-87650000D02*
X66120000Y-87650000D01*
X66120000Y-85350000D01*
X68420000Y-85350000D01*
X68420000Y-87650000D01*
X68420000Y-87650000D01*
G37*
%LPD*%
%LPC*%
G36*
X70960000Y-87650000D02*
X68660000Y-87650000D01*
X68660000Y-85350000D01*
X70960000Y-85350000D01*
X70960000Y-87650000D01*
X70960000Y-87650000D01*
G37*
%LPD*%
%LPC*%
G36*
X49403647Y-107717791D02*
X49397167Y-107674108D01*
X49395000Y-107630000D01*
X49395000Y-90100000D01*
X49210000Y-90100000D01*
X49210000Y-87900000D01*
X50665000Y-87900000D01*
X50665000Y-86675000D01*
X50667167Y-86630892D01*
X50673647Y-86587209D01*
X50684377Y-86544372D01*
X50699254Y-86502792D01*
X50718135Y-86462871D01*
X50740839Y-86424993D01*
X50767145Y-86389523D01*
X50796802Y-86356802D01*
X51431802Y-85721802D01*
X52066802Y-85086802D01*
X52701802Y-84451802D01*
X53336802Y-83816802D01*
X54606802Y-82546802D01*
X55241802Y-81911802D01*
X56511802Y-80641802D01*
X57015000Y-80138604D01*
X57015000Y-79055000D01*
X57017167Y-79010892D01*
X57023647Y-78967209D01*
X57034377Y-78924372D01*
X57049254Y-78882792D01*
X57068135Y-78842871D01*
X57090839Y-78804993D01*
X57117145Y-78769523D01*
X57146802Y-78736802D01*
X57650000Y-78233604D01*
X57650000Y-77150000D01*
X57652167Y-77105892D01*
X57658647Y-77062209D01*
X57669377Y-77019372D01*
X57684254Y-76977792D01*
X57703135Y-76937871D01*
X57725839Y-76899993D01*
X57752145Y-76864523D01*
X57781802Y-76831802D01*
X59051802Y-75561802D01*
X59686802Y-74926802D01*
X60956802Y-73656802D01*
X61591802Y-73021802D01*
X62226802Y-72386802D01*
X62861802Y-71751802D01*
X63496802Y-71116802D01*
X69846802Y-64766802D01*
X69879523Y-64737145D01*
X69914993Y-64710839D01*
X69952871Y-64688135D01*
X69992792Y-64669254D01*
X70034372Y-64654377D01*
X70077209Y-64643647D01*
X70120892Y-64637167D01*
X70165000Y-64635000D01*
X70350000Y-64635000D01*
X70350000Y-61910000D01*
X70352167Y-61865892D01*
X70358647Y-61822209D01*
X70369377Y-61779372D01*
X70384254Y-61737792D01*
X70403135Y-61697871D01*
X70425839Y-61659993D01*
X70452145Y-61624523D01*
X70481802Y-61591802D01*
X71116802Y-60956802D01*
X71751802Y-60321802D01*
X72386802Y-59686802D01*
X73021802Y-59051802D01*
X73656802Y-58416802D01*
X74926802Y-57146802D01*
X75561802Y-56511802D01*
X76831802Y-55241802D01*
X77466802Y-54606802D01*
X78736802Y-53336802D01*
X79371802Y-52701802D01*
X80006802Y-52066802D01*
X80641802Y-51431802D01*
X81276802Y-50796802D01*
X81911802Y-50161802D01*
X82546802Y-49526802D01*
X83816802Y-48256802D01*
X84451802Y-47621802D01*
X85721802Y-46351802D01*
X86356802Y-45716802D01*
X86860000Y-45213604D01*
X86860000Y-40320000D01*
X86862167Y-40275892D01*
X86868647Y-40232209D01*
X86879377Y-40189372D01*
X86894254Y-40147792D01*
X86913135Y-40107871D01*
X86935839Y-40069993D01*
X86962145Y-40034523D01*
X86991802Y-40001802D01*
X87626802Y-39366802D01*
X88261802Y-38731802D01*
X88896802Y-38096802D01*
X89531802Y-37461802D01*
X90166802Y-36826802D01*
X90801802Y-36191802D01*
X91436802Y-35556802D01*
X91469523Y-35527145D01*
X91504993Y-35500839D01*
X91542871Y-35478135D01*
X91582792Y-35459254D01*
X91624372Y-35444377D01*
X91667209Y-35433647D01*
X91710892Y-35427167D01*
X91755000Y-35425000D01*
X91854263Y-35425000D01*
X91895025Y-35380025D01*
X91945925Y-35333893D01*
X92001101Y-35292971D01*
X92060022Y-35257655D01*
X92122122Y-35228284D01*
X92186801Y-35205142D01*
X92253437Y-35188450D01*
X92321388Y-35178371D01*
X92390000Y-35175000D01*
X92458612Y-35178371D01*
X92526563Y-35188450D01*
X92593199Y-35205142D01*
X92657878Y-35228284D01*
X92719978Y-35257655D01*
X92778899Y-35292971D01*
X92834075Y-35333893D01*
X92884975Y-35380025D01*
X92931107Y-35430925D01*
X92972029Y-35486101D01*
X93007345Y-35545022D01*
X93036716Y-35607122D01*
X93059858Y-35671801D01*
X93076550Y-35738437D01*
X93086629Y-35806388D01*
X93086891Y-35811713D01*
X93341802Y-35556802D01*
X93976802Y-34921802D01*
X94611802Y-34286802D01*
X95246802Y-33651802D01*
X95881802Y-33016802D01*
X96516802Y-32381802D01*
X97151802Y-31746802D01*
X97786802Y-31111802D01*
X98421802Y-30476802D01*
X99691802Y-29206802D01*
X100326802Y-28571802D01*
X100359523Y-28542145D01*
X100394993Y-28515839D01*
X100432871Y-28493135D01*
X100472792Y-28474254D01*
X100495000Y-28466308D01*
X100495000Y-26700000D01*
X103095000Y-26700000D01*
X103095000Y-29300000D01*
X100929356Y-29300000D01*
X100917208Y-29305746D01*
X100875628Y-29320623D01*
X100842466Y-29328930D01*
X100328198Y-29843198D01*
X99058198Y-31113198D01*
X98423198Y-31748198D01*
X97788198Y-32383198D01*
X97153198Y-33018198D01*
X96518198Y-33653198D01*
X95883198Y-34288198D01*
X95248198Y-34923198D01*
X94613198Y-35558198D01*
X93978198Y-36193198D01*
X93343198Y-36828198D01*
X92708198Y-37463198D01*
X92073198Y-38098198D01*
X91438198Y-38733198D01*
X90803198Y-39368198D01*
X90168198Y-40003198D01*
X89533198Y-40638198D01*
X89030000Y-41141396D01*
X89030000Y-59469263D01*
X89074975Y-59510025D01*
X89121107Y-59560925D01*
X89162029Y-59616101D01*
X89197345Y-59675022D01*
X89226716Y-59737122D01*
X89249858Y-59801801D01*
X89266550Y-59868437D01*
X89276629Y-59936388D01*
X89280000Y-60005000D01*
X89276629Y-60073612D01*
X89266550Y-60141563D01*
X89249858Y-60208199D01*
X89226716Y-60272878D01*
X89197345Y-60334978D01*
X89162029Y-60393899D01*
X89121107Y-60449075D01*
X89074975Y-60499975D01*
X89024075Y-60546107D01*
X88968899Y-60587029D01*
X88909978Y-60622345D01*
X88847878Y-60651716D01*
X88783199Y-60674858D01*
X88716563Y-60691550D01*
X88648612Y-60701629D01*
X88580000Y-60705000D01*
X88511388Y-60701629D01*
X88443437Y-60691550D01*
X88376801Y-60674858D01*
X88312122Y-60651716D01*
X88250022Y-60622345D01*
X88191101Y-60587029D01*
X88135925Y-60546107D01*
X88085025Y-60499975D01*
X88038893Y-60449075D01*
X87997971Y-60393899D01*
X87962655Y-60334978D01*
X87933284Y-60272878D01*
X87910142Y-60208199D01*
X87893450Y-60141563D01*
X87883371Y-60073612D01*
X87880000Y-60005000D01*
X87883371Y-59936388D01*
X87893450Y-59868437D01*
X87910142Y-59801801D01*
X87933284Y-59737122D01*
X87962655Y-59675022D01*
X87997971Y-59616101D01*
X88038893Y-59560925D01*
X88085025Y-59510025D01*
X88130000Y-59469263D01*
X88130000Y-40955000D01*
X88132167Y-40910892D01*
X88138647Y-40867209D01*
X88149377Y-40824372D01*
X88164254Y-40782792D01*
X88183135Y-40742871D01*
X88205839Y-40704993D01*
X88232145Y-40669523D01*
X88261802Y-40636802D01*
X88896802Y-40001802D01*
X89531802Y-39366802D01*
X90166802Y-38731802D01*
X90801802Y-38096802D01*
X91436802Y-37461802D01*
X92071802Y-36826802D01*
X92326713Y-36571891D01*
X92321388Y-36571629D01*
X92253437Y-36561550D01*
X92186801Y-36544858D01*
X92122122Y-36521716D01*
X92060022Y-36492345D01*
X92001101Y-36457029D01*
X91945925Y-36416107D01*
X91895758Y-36370639D01*
X91438198Y-36828198D01*
X90803198Y-37463198D01*
X90168198Y-38098198D01*
X89533198Y-38733198D01*
X88898198Y-39368198D01*
X88263198Y-40003198D01*
X87760000Y-40506396D01*
X87760000Y-45400000D01*
X87757833Y-45444108D01*
X87751353Y-45487791D01*
X87740623Y-45530628D01*
X87725746Y-45572208D01*
X87706865Y-45612129D01*
X87684161Y-45650007D01*
X87657855Y-45685477D01*
X87628198Y-45718198D01*
X86993198Y-46353198D01*
X86358198Y-46988198D01*
X85088198Y-48258198D01*
X84453198Y-48893198D01*
X83183198Y-50163198D01*
X82548198Y-50798198D01*
X81913198Y-51433198D01*
X81278198Y-52068198D01*
X80643198Y-52703198D01*
X80008198Y-53338198D01*
X79373198Y-53973198D01*
X78103198Y-55243198D01*
X77468198Y-55878198D01*
X76198198Y-57148198D01*
X75563198Y-57783198D01*
X74293198Y-59053198D01*
X73658198Y-59688198D01*
X73023198Y-60323198D01*
X72388198Y-60958198D01*
X71753198Y-61593198D01*
X71250000Y-62096396D01*
X71250000Y-65085000D01*
X71247833Y-65129108D01*
X71241353Y-65172791D01*
X71230623Y-65215628D01*
X71215746Y-65257208D01*
X71196865Y-65297129D01*
X71174161Y-65335007D01*
X71147855Y-65370477D01*
X71118198Y-65403198D01*
X71085477Y-65432855D01*
X71050007Y-65459161D01*
X71012129Y-65481865D01*
X70972208Y-65500746D01*
X70930628Y-65515623D01*
X70887791Y-65526353D01*
X70844108Y-65532833D01*
X70800000Y-65535000D01*
X70351396Y-65535000D01*
X64133198Y-71753198D01*
X63498198Y-72388198D01*
X62863198Y-73023198D01*
X62228198Y-73658198D01*
X61593198Y-74293198D01*
X60323198Y-75563198D01*
X59688198Y-76198198D01*
X58550000Y-77336396D01*
X58550000Y-78420000D01*
X58547833Y-78464108D01*
X58541353Y-78507791D01*
X58530623Y-78550628D01*
X58515746Y-78592208D01*
X58496865Y-78632129D01*
X58474161Y-78670007D01*
X58447855Y-78705477D01*
X58418198Y-78738198D01*
X57915000Y-79241396D01*
X57915000Y-80325000D01*
X57912833Y-80369108D01*
X57906353Y-80412791D01*
X57895623Y-80455628D01*
X57880746Y-80497208D01*
X57861865Y-80537129D01*
X57839161Y-80575007D01*
X57812855Y-80610477D01*
X57783198Y-80643198D01*
X57148198Y-81278198D01*
X55878198Y-82548198D01*
X55243198Y-83183198D01*
X53973198Y-84453198D01*
X53338198Y-85088198D01*
X52703198Y-85723198D01*
X52068198Y-86358198D01*
X51565000Y-86861396D01*
X51565000Y-88580000D01*
X51562833Y-88624108D01*
X51556353Y-88667791D01*
X51545623Y-88710628D01*
X51530746Y-88752208D01*
X51511865Y-88792129D01*
X51489161Y-88830007D01*
X51462855Y-88865477D01*
X51433198Y-88898198D01*
X51410000Y-88919224D01*
X51410000Y-90100000D01*
X50295000Y-90100000D01*
X50295000Y-107443604D01*
X50798198Y-107946802D01*
X50827855Y-107979523D01*
X50854161Y-108014993D01*
X50876865Y-108052871D01*
X50895746Y-108092792D01*
X50910623Y-108134372D01*
X50921353Y-108177209D01*
X50927833Y-108220892D01*
X50930000Y-108265000D01*
X50930000Y-141900000D01*
X51410000Y-141900000D01*
X51410000Y-144100000D01*
X50295000Y-144100000D01*
X50295000Y-161418604D01*
X50798198Y-161921802D01*
X50827855Y-161954523D01*
X50854161Y-161989993D01*
X50876865Y-162027871D01*
X50895746Y-162067792D01*
X50910623Y-162109372D01*
X50921353Y-162152209D01*
X50927833Y-162195892D01*
X50930000Y-162240000D01*
X50930000Y-195900000D01*
X51410000Y-195900000D01*
X51410000Y-198100000D01*
X49210000Y-198100000D01*
X49210000Y-195900000D01*
X50030000Y-195900000D01*
X50030000Y-162426396D01*
X49526802Y-161923198D01*
X49497145Y-161890477D01*
X49470839Y-161855007D01*
X49448135Y-161817129D01*
X49429254Y-161777208D01*
X49414377Y-161735628D01*
X49403647Y-161692791D01*
X49397167Y-161649108D01*
X49395000Y-161605000D01*
X49395000Y-144100000D01*
X49210000Y-144100000D01*
X49210000Y-141900000D01*
X50030000Y-141900000D01*
X50030000Y-108451396D01*
X49526802Y-107948198D01*
X49497145Y-107915477D01*
X49470839Y-107880007D01*
X49448135Y-107842129D01*
X49429254Y-107802208D01*
X49414377Y-107760628D01*
X49403647Y-107717791D01*
X49403647Y-107717791D01*
G37*
%LPD*%
%LPC*%
G36*
X58006107Y-116710925D02*
X58047029Y-116766101D01*
X58082345Y-116825022D01*
X58111716Y-116887122D01*
X58134858Y-116951801D01*
X58151550Y-117018437D01*
X58161629Y-117086388D01*
X58165000Y-117155000D01*
X58162022Y-117215626D01*
X58418198Y-117471802D01*
X59053198Y-118106802D01*
X59309374Y-118362978D01*
X59370000Y-118360000D01*
X59438612Y-118363371D01*
X59506563Y-118373450D01*
X59573199Y-118390142D01*
X59637878Y-118413284D01*
X59699978Y-118442655D01*
X59758899Y-118477971D01*
X59814075Y-118518893D01*
X59864975Y-118565025D01*
X59911107Y-118615925D01*
X59952029Y-118671101D01*
X59987345Y-118730022D01*
X60016716Y-118792122D01*
X60039858Y-118856801D01*
X60056550Y-118923437D01*
X60066629Y-118991388D01*
X60070000Y-119060000D01*
X60066629Y-119128612D01*
X60056550Y-119196563D01*
X60039858Y-119263199D01*
X60016716Y-119327878D01*
X59987345Y-119389978D01*
X59952029Y-119448899D01*
X59911107Y-119504075D01*
X59864975Y-119554975D01*
X59814075Y-119601107D01*
X59758899Y-119642029D01*
X59699978Y-119677345D01*
X59637878Y-119706716D01*
X59573199Y-119729858D01*
X59506563Y-119746550D01*
X59438612Y-119756629D01*
X59370000Y-119760000D01*
X59301388Y-119756629D01*
X59233437Y-119746550D01*
X59166801Y-119729858D01*
X59102122Y-119706716D01*
X59040022Y-119677345D01*
X58981101Y-119642029D01*
X58925925Y-119601107D01*
X58875025Y-119554975D01*
X58828893Y-119504075D01*
X58787971Y-119448899D01*
X58752655Y-119389978D01*
X58723284Y-119327878D01*
X58700142Y-119263199D01*
X58683450Y-119196563D01*
X58673371Y-119128612D01*
X58670000Y-119060000D01*
X58672978Y-118999374D01*
X58416802Y-118743198D01*
X57781802Y-118108198D01*
X57525626Y-117852022D01*
X57465000Y-117855000D01*
X57396388Y-117851629D01*
X57328437Y-117841550D01*
X57261801Y-117824858D01*
X57197122Y-117801716D01*
X57135022Y-117772345D01*
X57076101Y-117737029D01*
X57020925Y-117696107D01*
X56970025Y-117649975D01*
X56923893Y-117599075D01*
X56882971Y-117543899D01*
X56847655Y-117484978D01*
X56818284Y-117422878D01*
X56795142Y-117358199D01*
X56778450Y-117291563D01*
X56768371Y-117223612D01*
X56765000Y-117155000D01*
X56768371Y-117086388D01*
X56778450Y-117018437D01*
X56795142Y-116951801D01*
X56818284Y-116887122D01*
X56847655Y-116825022D01*
X56882971Y-116766101D01*
X56923893Y-116710925D01*
X56970025Y-116660025D01*
X57020925Y-116613893D01*
X57076101Y-116572971D01*
X57135022Y-116537655D01*
X57197122Y-116508284D01*
X57261801Y-116485142D01*
X57328437Y-116468450D01*
X57396388Y-116458371D01*
X57465000Y-116455000D01*
X57533612Y-116458371D01*
X57601563Y-116468450D01*
X57668199Y-116485142D01*
X57732878Y-116508284D01*
X57794978Y-116537655D01*
X57853899Y-116572971D01*
X57909075Y-116613893D01*
X57959975Y-116660025D01*
X58006107Y-116710925D01*
X58006107Y-116710925D01*
G37*
%LPD*%
%LPC*%
G36*
X67010000Y-126300000D02*
X67010000Y-123700000D01*
X68445000Y-123700000D01*
X68445000Y-121600000D01*
X68447167Y-121555892D01*
X68453647Y-121512209D01*
X68464377Y-121469372D01*
X68479254Y-121427792D01*
X68498135Y-121387871D01*
X68520839Y-121349993D01*
X68547145Y-121314523D01*
X68576802Y-121281802D01*
X69211802Y-120646802D01*
X69846802Y-120011802D01*
X70481802Y-119376802D01*
X71116802Y-118741802D01*
X71751802Y-118106802D01*
X72386802Y-117471802D01*
X73021802Y-116836802D01*
X73525000Y-116333604D01*
X73525000Y-115785737D01*
X73480025Y-115744975D01*
X73433893Y-115694075D01*
X73392971Y-115638899D01*
X73357655Y-115579978D01*
X73328284Y-115517878D01*
X73305142Y-115453199D01*
X73288450Y-115386563D01*
X73278371Y-115318612D01*
X73275000Y-115250000D01*
X73278371Y-115181388D01*
X73288450Y-115113437D01*
X73305142Y-115046801D01*
X73328284Y-114982122D01*
X73357655Y-114920022D01*
X73392971Y-114861101D01*
X73433893Y-114805925D01*
X73480025Y-114755025D01*
X73530925Y-114708893D01*
X73586101Y-114667971D01*
X73645022Y-114632655D01*
X73707122Y-114603284D01*
X73771801Y-114580142D01*
X73838437Y-114563450D01*
X73906388Y-114553371D01*
X73975000Y-114550000D01*
X74043612Y-114553371D01*
X74111563Y-114563450D01*
X74178199Y-114580142D01*
X74242878Y-114603284D01*
X74304978Y-114632655D01*
X74363899Y-114667971D01*
X74419075Y-114708893D01*
X74469975Y-114755025D01*
X74516107Y-114805925D01*
X74557029Y-114861101D01*
X74592345Y-114920022D01*
X74621716Y-114982122D01*
X74644858Y-115046801D01*
X74661550Y-115113437D01*
X74671629Y-115181388D01*
X74675000Y-115250000D01*
X74671629Y-115318612D01*
X74661550Y-115386563D01*
X74644858Y-115453199D01*
X74621716Y-115517878D01*
X74592345Y-115579978D01*
X74557029Y-115638899D01*
X74516107Y-115694075D01*
X74469975Y-115744975D01*
X74425000Y-115785737D01*
X74425000Y-116520000D01*
X74422833Y-116564108D01*
X74416353Y-116607791D01*
X74405623Y-116650628D01*
X74390746Y-116692208D01*
X74371865Y-116732129D01*
X74349161Y-116770007D01*
X74322855Y-116805477D01*
X74293198Y-116838198D01*
X73658198Y-117473198D01*
X73023198Y-118108198D01*
X72388198Y-118743198D01*
X71753198Y-119378198D01*
X71118198Y-120013198D01*
X70483198Y-120648198D01*
X69848198Y-121283198D01*
X69345000Y-121786396D01*
X69345000Y-123700000D01*
X69610000Y-123700000D01*
X69610000Y-126300000D01*
X67010000Y-126300000D01*
X67010000Y-126300000D01*
G37*
%LPD*%
%LPC*%
G36*
X64356107Y-137665925D02*
X64397029Y-137721101D01*
X64432345Y-137780022D01*
X64461716Y-137842122D01*
X64484858Y-137906801D01*
X64501550Y-137973437D01*
X64511629Y-138041388D01*
X64515000Y-138110000D01*
X64512022Y-138170626D01*
X64768198Y-138426802D01*
X65403198Y-139061802D01*
X66038198Y-139696802D01*
X66067855Y-139729523D01*
X66094161Y-139764993D01*
X66116865Y-139802871D01*
X66120000Y-139809501D01*
X66120000Y-139350000D01*
X68420000Y-139350000D01*
X68420000Y-141650000D01*
X66170000Y-141650000D01*
X66170000Y-142105000D01*
X70985000Y-142105000D01*
X70985000Y-141285000D01*
X70987167Y-141240892D01*
X70993647Y-141197209D01*
X71004377Y-141154372D01*
X71019254Y-141112792D01*
X71038135Y-141072871D01*
X71060839Y-141034993D01*
X71087145Y-140999523D01*
X71116802Y-140966802D01*
X71149523Y-140937145D01*
X71184993Y-140910839D01*
X71200000Y-140901844D01*
X71200000Y-139350000D01*
X73500000Y-139350000D01*
X73500000Y-141650000D01*
X71885000Y-141650000D01*
X71885000Y-142555000D01*
X71882833Y-142599108D01*
X71876353Y-142642791D01*
X71865623Y-142685628D01*
X71850746Y-142727208D01*
X71831865Y-142767129D01*
X71809161Y-142805007D01*
X71782855Y-142840477D01*
X71753198Y-142873198D01*
X71720477Y-142902855D01*
X71685007Y-142929161D01*
X71647129Y-142951865D01*
X71607208Y-142970746D01*
X71565628Y-142985623D01*
X71522791Y-142996353D01*
X71479108Y-143002833D01*
X71435000Y-143005000D01*
X65720000Y-143005000D01*
X65675892Y-143002833D01*
X65632209Y-142996353D01*
X65589372Y-142985623D01*
X65547792Y-142970746D01*
X65507871Y-142951865D01*
X65469993Y-142929161D01*
X65434523Y-142902855D01*
X65401802Y-142873198D01*
X65372145Y-142840477D01*
X65345839Y-142805007D01*
X65323135Y-142767129D01*
X65304254Y-142727208D01*
X65289377Y-142685628D01*
X65278647Y-142642791D01*
X65272167Y-142599108D01*
X65270000Y-142555000D01*
X65270000Y-140201396D01*
X64766802Y-139698198D01*
X64131802Y-139063198D01*
X63875626Y-138807022D01*
X63815000Y-138810000D01*
X63746388Y-138806629D01*
X63678437Y-138796550D01*
X63611801Y-138779858D01*
X63547122Y-138756716D01*
X63485022Y-138727345D01*
X63426101Y-138692029D01*
X63370925Y-138651107D01*
X63320025Y-138604975D01*
X63273893Y-138554075D01*
X63232971Y-138498899D01*
X63197655Y-138439978D01*
X63168284Y-138377878D01*
X63145142Y-138313199D01*
X63128450Y-138246563D01*
X63118371Y-138178612D01*
X63115000Y-138110000D01*
X63118371Y-138041388D01*
X63128450Y-137973437D01*
X63145142Y-137906801D01*
X63168284Y-137842122D01*
X63197655Y-137780022D01*
X63232971Y-137721101D01*
X63273893Y-137665925D01*
X63320025Y-137615025D01*
X63370925Y-137568893D01*
X63426101Y-137527971D01*
X63485022Y-137492655D01*
X63547122Y-137463284D01*
X63611801Y-137440142D01*
X63678437Y-137423450D01*
X63746388Y-137413371D01*
X63815000Y-137410000D01*
X63883612Y-137413371D01*
X63951563Y-137423450D01*
X64018199Y-137440142D01*
X64082878Y-137463284D01*
X64144978Y-137492655D01*
X64203899Y-137527971D01*
X64259075Y-137568893D01*
X64309975Y-137615025D01*
X64356107Y-137665925D01*
X64356107Y-137665925D01*
G37*
%LPD*%
%LPC*%
G36*
X70960000Y-141650000D02*
X68660000Y-141650000D01*
X68660000Y-139350000D01*
X69715000Y-139350000D01*
X69715000Y-131125000D01*
X69717167Y-131080892D01*
X69723647Y-131037209D01*
X69734377Y-130994372D01*
X69749254Y-130952792D01*
X69768135Y-130912871D01*
X69790839Y-130874993D01*
X69817145Y-130839523D01*
X69846802Y-130806802D01*
X70481802Y-130171802D01*
X71116802Y-129536802D01*
X71751802Y-128901802D01*
X72386802Y-128266802D01*
X72642978Y-128010626D01*
X72640000Y-127950000D01*
X72643371Y-127881388D01*
X72653450Y-127813437D01*
X72670142Y-127746801D01*
X72693284Y-127682122D01*
X72722655Y-127620022D01*
X72757971Y-127561101D01*
X72798893Y-127505925D01*
X72845025Y-127455025D01*
X72895925Y-127408893D01*
X72951101Y-127367971D01*
X73010022Y-127332655D01*
X73072122Y-127303284D01*
X73136801Y-127280142D01*
X73203437Y-127263450D01*
X73271388Y-127253371D01*
X73340000Y-127250000D01*
X73408612Y-127253371D01*
X73476563Y-127263450D01*
X73543199Y-127280142D01*
X73607878Y-127303284D01*
X73669978Y-127332655D01*
X73728899Y-127367971D01*
X73784075Y-127408893D01*
X73834975Y-127455025D01*
X73881107Y-127505925D01*
X73922029Y-127561101D01*
X73957345Y-127620022D01*
X73986716Y-127682122D01*
X74009858Y-127746801D01*
X74026550Y-127813437D01*
X74036629Y-127881388D01*
X74040000Y-127950000D01*
X74036629Y-128018612D01*
X74026550Y-128086563D01*
X74009858Y-128153199D01*
X73986716Y-128217878D01*
X73957345Y-128279978D01*
X73922029Y-128338899D01*
X73881107Y-128394075D01*
X73834975Y-128444975D01*
X73784075Y-128491107D01*
X73728899Y-128532029D01*
X73669978Y-128567345D01*
X73607878Y-128596716D01*
X73543199Y-128619858D01*
X73476563Y-128636550D01*
X73408612Y-128646629D01*
X73340000Y-128650000D01*
X73279374Y-128647022D01*
X73023198Y-128903198D01*
X72388198Y-129538198D01*
X71753198Y-130173198D01*
X71118198Y-130808198D01*
X70615000Y-131311396D01*
X70615000Y-139350000D01*
X70960000Y-139350000D01*
X70960000Y-141650000D01*
X70960000Y-141650000D01*
G37*
%LPD*%
%LPC*%
G36*
X60449075Y-143918893D02*
X60499975Y-143965025D01*
X60540737Y-144010000D01*
X70800000Y-144010000D01*
X70844108Y-144012167D01*
X70887791Y-144018647D01*
X70930628Y-144029377D01*
X70972208Y-144044254D01*
X71012129Y-144063135D01*
X71050007Y-144085839D01*
X71085477Y-144112145D01*
X71118198Y-144141802D01*
X71621396Y-144645000D01*
X92838604Y-144645000D01*
X93341802Y-144141802D01*
X93976802Y-143506802D01*
X94611802Y-142871802D01*
X95246802Y-142236802D01*
X95279523Y-142207145D01*
X95314993Y-142180839D01*
X95352871Y-142158135D01*
X95392792Y-142139254D01*
X95434372Y-142124377D01*
X95477209Y-142113647D01*
X95520892Y-142107167D01*
X95565000Y-142105000D01*
X101465000Y-142105000D01*
X101465000Y-140465000D01*
X100645000Y-140465000D01*
X100600892Y-140462833D01*
X100557209Y-140456353D01*
X100514372Y-140445623D01*
X100472792Y-140430746D01*
X100432871Y-140411865D01*
X100394993Y-140389161D01*
X100359523Y-140362855D01*
X100326802Y-140333198D01*
X100297145Y-140300477D01*
X100270839Y-140265007D01*
X100248135Y-140227129D01*
X100229254Y-140187208D01*
X100214377Y-140145628D01*
X100203647Y-140102791D01*
X100197167Y-140059108D01*
X100195000Y-140015000D01*
X100195000Y-117341396D01*
X99691802Y-116838198D01*
X99662145Y-116805477D01*
X99635839Y-116770007D01*
X99613135Y-116732129D01*
X99594254Y-116692208D01*
X99579377Y-116650628D01*
X99568647Y-116607791D01*
X99562167Y-116564108D01*
X99560000Y-116520000D01*
X99560000Y-115436396D01*
X99056802Y-114933198D01*
X99027145Y-114900477D01*
X99000839Y-114865007D01*
X98978135Y-114827129D01*
X98959254Y-114787208D01*
X98944377Y-114745628D01*
X98933647Y-114702791D01*
X98927167Y-114659108D01*
X98925000Y-114615000D01*
X98925000Y-91120000D01*
X98927167Y-91075892D01*
X98933647Y-91032209D01*
X98944377Y-90989372D01*
X98959254Y-90947792D01*
X98978135Y-90907871D01*
X99000839Y-90869993D01*
X99027145Y-90834523D01*
X99056802Y-90801802D01*
X99691802Y-90166802D01*
X100326802Y-89531802D01*
X100961802Y-88896802D01*
X101465000Y-88393604D01*
X101465000Y-63180000D01*
X101467167Y-63135892D01*
X101473647Y-63092209D01*
X101484377Y-63049372D01*
X101499254Y-63007792D01*
X101518135Y-62967871D01*
X101540839Y-62929993D01*
X101567145Y-62894523D01*
X101596802Y-62861802D01*
X102100000Y-62358604D01*
X102100000Y-58735000D01*
X102102167Y-58690892D01*
X102108647Y-58647209D01*
X102119377Y-58604372D01*
X102134254Y-58562792D01*
X102153135Y-58522871D01*
X102175839Y-58484993D01*
X102202145Y-58449523D01*
X102231802Y-58416802D01*
X102866802Y-57781802D01*
X103501802Y-57146802D01*
X104005000Y-56643604D01*
X104005000Y-35240000D01*
X104007167Y-35195892D01*
X104013647Y-35152209D01*
X104024377Y-35109372D01*
X104039254Y-35067792D01*
X104058135Y-35027871D01*
X104080839Y-34989993D01*
X104107145Y-34954523D01*
X104109780Y-34951616D01*
X103503198Y-35558198D01*
X102868198Y-36193198D01*
X102233198Y-36828198D01*
X101598198Y-37463198D01*
X100963198Y-38098198D01*
X100328198Y-38733198D01*
X99693198Y-39368198D01*
X99058198Y-40003198D01*
X98423198Y-40638198D01*
X97788198Y-41273198D01*
X97153198Y-41908198D01*
X96518198Y-42543198D01*
X95883198Y-43178198D01*
X95248198Y-43813198D01*
X94613198Y-44448198D01*
X93978198Y-45083198D01*
X93343198Y-45718198D01*
X92708198Y-46353198D01*
X92073198Y-46988198D01*
X91438198Y-47623198D01*
X90803198Y-48258198D01*
X90300000Y-48761396D01*
X90300000Y-60739263D01*
X90344975Y-60780025D01*
X90391107Y-60830925D01*
X90432029Y-60886101D01*
X90467345Y-60945022D01*
X90496716Y-61007122D01*
X90519858Y-61071801D01*
X90536550Y-61138437D01*
X90546629Y-61206388D01*
X90550000Y-61275000D01*
X90546629Y-61343612D01*
X90536550Y-61411563D01*
X90519858Y-61478199D01*
X90496716Y-61542878D01*
X90467345Y-61604978D01*
X90432029Y-61663899D01*
X90391107Y-61719075D01*
X90344975Y-61769975D01*
X90294075Y-61816107D01*
X90238899Y-61857029D01*
X90179978Y-61892345D01*
X90117878Y-61921716D01*
X90053199Y-61944858D01*
X89986563Y-61961550D01*
X89918612Y-61971629D01*
X89850000Y-61975000D01*
X89781388Y-61971629D01*
X89713437Y-61961550D01*
X89646801Y-61944858D01*
X89582122Y-61921716D01*
X89520022Y-61892345D01*
X89461101Y-61857029D01*
X89405925Y-61816107D01*
X89355025Y-61769975D01*
X89308893Y-61719075D01*
X89267971Y-61663899D01*
X89232655Y-61604978D01*
X89203284Y-61542878D01*
X89180142Y-61478199D01*
X89163450Y-61411563D01*
X89153371Y-61343612D01*
X89150000Y-61275000D01*
X89153371Y-61206388D01*
X89163450Y-61138437D01*
X89180142Y-61071801D01*
X89203284Y-61007122D01*
X89232655Y-60945022D01*
X89267971Y-60886101D01*
X89308893Y-60830925D01*
X89355025Y-60780025D01*
X89400000Y-60739263D01*
X89400000Y-48575000D01*
X89402167Y-48530892D01*
X89408647Y-48487209D01*
X89419377Y-48444372D01*
X89434254Y-48402792D01*
X89453135Y-48362871D01*
X89475839Y-48324993D01*
X89502145Y-48289523D01*
X89531802Y-48256802D01*
X90166802Y-47621802D01*
X90801802Y-46986802D01*
X91436802Y-46351802D01*
X92071802Y-45716802D01*
X92706802Y-45081802D01*
X93341802Y-44446802D01*
X93976802Y-43811802D01*
X94611802Y-43176802D01*
X95246802Y-42541802D01*
X95881802Y-41906802D01*
X96516802Y-41271802D01*
X97151802Y-40636802D01*
X97786802Y-40001802D01*
X98421802Y-39366802D01*
X99056802Y-38731802D01*
X99691802Y-38096802D01*
X100326802Y-37461802D01*
X100961802Y-36826802D01*
X101596802Y-36191802D01*
X102231802Y-35556802D01*
X102866802Y-34921802D01*
X103501802Y-34286802D01*
X104640000Y-33148604D01*
X104640000Y-32600737D01*
X104595025Y-32559975D01*
X104548893Y-32509075D01*
X104507971Y-32453899D01*
X104472655Y-32394978D01*
X104443284Y-32332878D01*
X104420142Y-32268199D01*
X104403450Y-32201563D01*
X104393371Y-32133612D01*
X104390000Y-32065000D01*
X104393371Y-31996388D01*
X104403450Y-31928437D01*
X104420142Y-31861801D01*
X104443284Y-31797122D01*
X104472655Y-31735022D01*
X104507971Y-31676101D01*
X104548893Y-31620925D01*
X104595025Y-31570025D01*
X104645925Y-31523893D01*
X104701101Y-31482971D01*
X104760022Y-31447655D01*
X104822122Y-31418284D01*
X104886801Y-31395142D01*
X104953437Y-31378450D01*
X105021388Y-31368371D01*
X105090000Y-31365000D01*
X105158612Y-31368371D01*
X105226563Y-31378450D01*
X105293199Y-31395142D01*
X105357878Y-31418284D01*
X105419978Y-31447655D01*
X105478899Y-31482971D01*
X105534075Y-31523893D01*
X105584975Y-31570025D01*
X105631107Y-31620925D01*
X105672029Y-31676101D01*
X105707345Y-31735022D01*
X105736716Y-31797122D01*
X105759858Y-31861801D01*
X105776550Y-31928437D01*
X105786629Y-31996388D01*
X105790000Y-32065000D01*
X105786629Y-32133612D01*
X105776550Y-32201563D01*
X105759858Y-32268199D01*
X105736716Y-32332878D01*
X105707345Y-32394978D01*
X105672029Y-32453899D01*
X105631107Y-32509075D01*
X105584975Y-32559975D01*
X105540000Y-32600737D01*
X105540000Y-33335000D01*
X105537833Y-33379108D01*
X105531353Y-33422791D01*
X105520623Y-33465628D01*
X105505746Y-33507208D01*
X105486865Y-33547129D01*
X105464161Y-33585007D01*
X105437855Y-33620477D01*
X105408198Y-33653198D01*
X105153287Y-33908109D01*
X105158612Y-33908371D01*
X105226563Y-33918450D01*
X105293199Y-33935142D01*
X105357878Y-33958284D01*
X105419978Y-33987655D01*
X105478899Y-34022971D01*
X105534075Y-34063893D01*
X105584975Y-34110025D01*
X105631107Y-34160925D01*
X105672029Y-34216101D01*
X105707345Y-34275022D01*
X105736716Y-34337122D01*
X105759858Y-34401801D01*
X105776550Y-34468437D01*
X105786629Y-34536388D01*
X105790000Y-34605000D01*
X105786629Y-34673612D01*
X105776550Y-34741563D01*
X105759858Y-34808199D01*
X105736716Y-34872878D01*
X105707345Y-34934978D01*
X105672029Y-34993899D01*
X105631107Y-35049075D01*
X105584975Y-35099975D01*
X105540000Y-35140737D01*
X105540000Y-35240000D01*
X105537833Y-35284108D01*
X105531353Y-35327791D01*
X105520623Y-35370628D01*
X105505746Y-35412208D01*
X105486865Y-35452129D01*
X105464161Y-35490007D01*
X105437855Y-35525477D01*
X105408198Y-35558198D01*
X105375477Y-35587855D01*
X105340007Y-35614161D01*
X105302129Y-35636865D01*
X105262208Y-35655746D01*
X105220628Y-35670623D01*
X105177791Y-35681353D01*
X105134108Y-35687833D01*
X105090000Y-35690000D01*
X104905000Y-35690000D01*
X104905000Y-56830000D01*
X104902833Y-56874108D01*
X104896353Y-56917791D01*
X104885623Y-56960628D01*
X104870746Y-57002208D01*
X104851865Y-57042129D01*
X104829161Y-57080007D01*
X104802855Y-57115477D01*
X104773198Y-57148198D01*
X104138198Y-57783198D01*
X103503198Y-58418198D01*
X103000000Y-58921396D01*
X103000000Y-62545000D01*
X102997833Y-62589108D01*
X102991353Y-62632791D01*
X102980623Y-62675628D01*
X102965746Y-62717208D01*
X102946865Y-62757129D01*
X102924161Y-62795007D01*
X102897855Y-62830477D01*
X102868198Y-62863198D01*
X102365000Y-63366396D01*
X102365000Y-88580000D01*
X102362833Y-88624108D01*
X102356353Y-88667791D01*
X102345623Y-88710628D01*
X102330746Y-88752208D01*
X102311865Y-88792129D01*
X102289161Y-88830007D01*
X102262855Y-88865477D01*
X102233198Y-88898198D01*
X101598198Y-89533198D01*
X100963198Y-90168198D01*
X100328198Y-90803198D01*
X99825000Y-91306396D01*
X99825000Y-114428604D01*
X100328198Y-114931802D01*
X100357855Y-114964523D01*
X100384161Y-114999993D01*
X100406865Y-115037871D01*
X100425746Y-115077792D01*
X100440623Y-115119372D01*
X100451353Y-115162209D01*
X100457833Y-115205892D01*
X100460000Y-115250000D01*
X100460000Y-116333604D01*
X100963198Y-116836802D01*
X100992855Y-116869523D01*
X101019161Y-116904993D01*
X101041865Y-116942871D01*
X101060746Y-116982792D01*
X101075623Y-117024372D01*
X101086353Y-117067209D01*
X101092833Y-117110892D01*
X101095000Y-117155000D01*
X101095000Y-139565000D01*
X101915000Y-139565000D01*
X101959108Y-139567167D01*
X102002791Y-139573647D01*
X102045628Y-139584377D01*
X102087208Y-139599254D01*
X102127129Y-139618135D01*
X102165007Y-139640839D01*
X102200477Y-139667145D01*
X102203384Y-139669780D01*
X101975626Y-139442022D01*
X101915000Y-139445000D01*
X101846388Y-139441629D01*
X101778437Y-139431550D01*
X101711801Y-139414858D01*
X101647122Y-139391716D01*
X101585022Y-139362345D01*
X101526101Y-139327029D01*
X101470925Y-139286107D01*
X101420025Y-139239975D01*
X101373893Y-139189075D01*
X101332971Y-139133899D01*
X101297655Y-139074978D01*
X101268284Y-139012878D01*
X101245142Y-138948199D01*
X101228450Y-138881563D01*
X101218371Y-138813612D01*
X101215000Y-138745000D01*
X101218371Y-138676388D01*
X101228450Y-138608437D01*
X101245142Y-138541801D01*
X101268284Y-138477122D01*
X101297655Y-138415022D01*
X101332971Y-138356101D01*
X101373893Y-138300925D01*
X101420025Y-138250025D01*
X101470925Y-138203893D01*
X101526101Y-138162971D01*
X101585022Y-138127655D01*
X101647122Y-138098284D01*
X101711801Y-138075142D01*
X101778437Y-138058450D01*
X101846388Y-138048371D01*
X101915000Y-138045000D01*
X101983612Y-138048371D01*
X102051563Y-138058450D01*
X102118199Y-138075142D01*
X102182878Y-138098284D01*
X102244978Y-138127655D01*
X102303899Y-138162971D01*
X102359075Y-138203893D01*
X102409975Y-138250025D01*
X102456107Y-138300925D01*
X102497029Y-138356101D01*
X102532345Y-138415022D01*
X102561716Y-138477122D01*
X102584858Y-138541801D01*
X102601550Y-138608437D01*
X102611629Y-138676388D01*
X102615000Y-138745000D01*
X102612022Y-138805626D01*
X102736396Y-138930000D01*
X103919263Y-138930000D01*
X103960025Y-138885025D01*
X104010925Y-138838893D01*
X104066101Y-138797971D01*
X104125022Y-138762655D01*
X104187122Y-138733284D01*
X104251801Y-138710142D01*
X104318437Y-138693450D01*
X104386388Y-138683371D01*
X104455000Y-138680000D01*
X104523612Y-138683371D01*
X104591563Y-138693450D01*
X104658199Y-138710142D01*
X104722878Y-138733284D01*
X104784978Y-138762655D01*
X104843899Y-138797971D01*
X104899075Y-138838893D01*
X104949975Y-138885025D01*
X104996107Y-138935925D01*
X105037029Y-138991101D01*
X105072345Y-139050022D01*
X105101716Y-139112122D01*
X105124858Y-139176801D01*
X105141550Y-139243437D01*
X105151629Y-139311388D01*
X105155000Y-139380000D01*
X105151629Y-139448612D01*
X105141550Y-139516563D01*
X105124858Y-139583199D01*
X105101716Y-139647878D01*
X105072345Y-139709978D01*
X105037029Y-139768899D01*
X104996107Y-139824075D01*
X104949975Y-139874975D01*
X104899075Y-139921107D01*
X104843899Y-139962029D01*
X104784978Y-139997345D01*
X104722878Y-140026716D01*
X104658199Y-140049858D01*
X104591563Y-140066550D01*
X104523612Y-140076629D01*
X104455000Y-140080000D01*
X104386388Y-140076629D01*
X104318437Y-140066550D01*
X104251801Y-140049858D01*
X104187122Y-140026716D01*
X104125022Y-139997345D01*
X104066101Y-139962029D01*
X104010925Y-139921107D01*
X103960025Y-139874975D01*
X103919263Y-139830000D01*
X102550000Y-139830000D01*
X102505892Y-139827833D01*
X102462209Y-139821353D01*
X102419372Y-139810623D01*
X102377792Y-139795746D01*
X102337871Y-139776865D01*
X102299993Y-139754161D01*
X102264523Y-139727855D01*
X102246709Y-139711709D01*
X102262855Y-139729523D01*
X102289161Y-139764993D01*
X102311865Y-139802871D01*
X102330746Y-139842792D01*
X102345623Y-139884372D01*
X102356353Y-139927209D01*
X102362833Y-139970892D01*
X102365000Y-140015000D01*
X102365000Y-142555000D01*
X102362833Y-142599108D01*
X102356353Y-142642791D01*
X102345623Y-142685628D01*
X102330746Y-142727208D01*
X102311865Y-142767129D01*
X102289161Y-142805007D01*
X102262855Y-142840477D01*
X102233198Y-142873198D01*
X102200477Y-142902855D01*
X102165007Y-142929161D01*
X102127129Y-142951865D01*
X102087208Y-142970746D01*
X102045628Y-142985623D01*
X102002791Y-142996353D01*
X101959108Y-143002833D01*
X101915000Y-143005000D01*
X95751396Y-143005000D01*
X95248198Y-143508198D01*
X94613198Y-144143198D01*
X93978198Y-144778198D01*
X93343198Y-145413198D01*
X93310477Y-145442855D01*
X93275007Y-145469161D01*
X93237129Y-145491865D01*
X93197208Y-145510746D01*
X93155628Y-145525623D01*
X93112791Y-145536353D01*
X93069108Y-145542833D01*
X93025000Y-145545000D01*
X71435000Y-145545000D01*
X71390892Y-145542833D01*
X71347209Y-145536353D01*
X71304372Y-145525623D01*
X71262792Y-145510746D01*
X71222871Y-145491865D01*
X71184993Y-145469161D01*
X71149523Y-145442855D01*
X71116802Y-145413198D01*
X70613604Y-144910000D01*
X60540737Y-144910000D01*
X60499975Y-144954975D01*
X60449075Y-145001107D01*
X60393899Y-145042029D01*
X60334978Y-145077345D01*
X60272878Y-145106716D01*
X60208199Y-145129858D01*
X60141563Y-145146550D01*
X60073612Y-145156629D01*
X60005000Y-145160000D01*
X59936388Y-145156629D01*
X59868437Y-145146550D01*
X59801801Y-145129858D01*
X59737122Y-145106716D01*
X59675022Y-145077345D01*
X59616101Y-145042029D01*
X59560925Y-145001107D01*
X59510025Y-144954975D01*
X59463893Y-144904075D01*
X59422971Y-144848899D01*
X59387655Y-144789978D01*
X59358284Y-144727878D01*
X59335142Y-144663199D01*
X59318450Y-144596563D01*
X59308371Y-144528612D01*
X59305000Y-144460000D01*
X59308371Y-144391388D01*
X59318450Y-144323437D01*
X59335142Y-144256801D01*
X59358284Y-144192122D01*
X59387655Y-144130022D01*
X59422971Y-144071101D01*
X59463893Y-144015925D01*
X59510025Y-143965025D01*
X59560925Y-143918893D01*
X59616101Y-143877971D01*
X59675022Y-143842655D01*
X59737122Y-143813284D01*
X59801801Y-143790142D01*
X59868437Y-143773450D01*
X59936388Y-143763371D01*
X60005000Y-143760000D01*
X60073612Y-143763371D01*
X60141563Y-143773450D01*
X60208199Y-143790142D01*
X60272878Y-143813284D01*
X60334978Y-143842655D01*
X60393899Y-143877971D01*
X60449075Y-143918893D01*
X60449075Y-143918893D01*
G37*
%LPD*%
%LPC*%
G36*
X58006107Y-170685925D02*
X58047029Y-170741101D01*
X58082345Y-170800022D01*
X58111716Y-170862122D01*
X58134858Y-170926801D01*
X58151550Y-170993437D01*
X58161629Y-171061388D01*
X58165000Y-171130000D01*
X58162022Y-171190626D01*
X58418198Y-171446802D01*
X59053198Y-172081802D01*
X59309374Y-172337978D01*
X59370000Y-172335000D01*
X59438612Y-172338371D01*
X59506563Y-172348450D01*
X59573199Y-172365142D01*
X59637878Y-172388284D01*
X59699978Y-172417655D01*
X59758899Y-172452971D01*
X59814075Y-172493893D01*
X59864975Y-172540025D01*
X59911107Y-172590925D01*
X59952029Y-172646101D01*
X59987345Y-172705022D01*
X60016716Y-172767122D01*
X60039858Y-172831801D01*
X60056550Y-172898437D01*
X60066629Y-172966388D01*
X60070000Y-173035000D01*
X60066629Y-173103612D01*
X60056550Y-173171563D01*
X60039858Y-173238199D01*
X60016716Y-173302878D01*
X59987345Y-173364978D01*
X59952029Y-173423899D01*
X59911107Y-173479075D01*
X59864975Y-173529975D01*
X59814075Y-173576107D01*
X59758899Y-173617029D01*
X59699978Y-173652345D01*
X59637878Y-173681716D01*
X59573199Y-173704858D01*
X59506563Y-173721550D01*
X59438612Y-173731629D01*
X59370000Y-173735000D01*
X59301388Y-173731629D01*
X59233437Y-173721550D01*
X59166801Y-173704858D01*
X59102122Y-173681716D01*
X59040022Y-173652345D01*
X58981101Y-173617029D01*
X58925925Y-173576107D01*
X58875025Y-173529975D01*
X58828893Y-173479075D01*
X58787971Y-173423899D01*
X58752655Y-173364978D01*
X58723284Y-173302878D01*
X58700142Y-173238199D01*
X58683450Y-173171563D01*
X58673371Y-173103612D01*
X58670000Y-173035000D01*
X58672978Y-172974374D01*
X58416802Y-172718198D01*
X57781802Y-172083198D01*
X57525626Y-171827022D01*
X57465000Y-171830000D01*
X57396388Y-171826629D01*
X57328437Y-171816550D01*
X57261801Y-171799858D01*
X57197122Y-171776716D01*
X57135022Y-171747345D01*
X57076101Y-171712029D01*
X57020925Y-171671107D01*
X56970025Y-171624975D01*
X56923893Y-171574075D01*
X56882971Y-171518899D01*
X56847655Y-171459978D01*
X56818284Y-171397878D01*
X56795142Y-171333199D01*
X56778450Y-171266563D01*
X56768371Y-171198612D01*
X56765000Y-171130000D01*
X56768371Y-171061388D01*
X56778450Y-170993437D01*
X56795142Y-170926801D01*
X56818284Y-170862122D01*
X56847655Y-170800022D01*
X56882971Y-170741101D01*
X56923893Y-170685925D01*
X56970025Y-170635025D01*
X57020925Y-170588893D01*
X57076101Y-170547971D01*
X57135022Y-170512655D01*
X57197122Y-170483284D01*
X57261801Y-170460142D01*
X57328437Y-170443450D01*
X57396388Y-170433371D01*
X57465000Y-170430000D01*
X57533612Y-170433371D01*
X57601563Y-170443450D01*
X57668199Y-170460142D01*
X57732878Y-170483284D01*
X57794978Y-170512655D01*
X57853899Y-170547971D01*
X57909075Y-170588893D01*
X57959975Y-170635025D01*
X58006107Y-170685925D01*
X58006107Y-170685925D01*
G37*
%LPD*%
%LPC*%
G36*
X69610000Y-180300000D02*
X67010000Y-180300000D01*
X67010000Y-177700000D01*
X68445000Y-177700000D01*
X68445000Y-175575000D01*
X68447167Y-175530892D01*
X68453647Y-175487209D01*
X68464377Y-175444372D01*
X68479254Y-175402792D01*
X68498135Y-175362871D01*
X68520839Y-175324993D01*
X68547145Y-175289523D01*
X68576802Y-175256802D01*
X69846802Y-173986802D01*
X70481802Y-173351802D01*
X71116802Y-172716802D01*
X71751802Y-172081802D01*
X72386802Y-171446802D01*
X73021802Y-170811802D01*
X73525000Y-170308604D01*
X73525000Y-169760737D01*
X73480025Y-169719975D01*
X73433893Y-169669075D01*
X73392971Y-169613899D01*
X73357655Y-169554978D01*
X73328284Y-169492878D01*
X73305142Y-169428199D01*
X73288450Y-169361563D01*
X73278371Y-169293612D01*
X73275000Y-169225000D01*
X73278371Y-169156388D01*
X73288450Y-169088437D01*
X73305142Y-169021801D01*
X73328284Y-168957122D01*
X73357655Y-168895022D01*
X73392971Y-168836101D01*
X73433893Y-168780925D01*
X73480025Y-168730025D01*
X73530925Y-168683893D01*
X73586101Y-168642971D01*
X73645022Y-168607655D01*
X73707122Y-168578284D01*
X73771801Y-168555142D01*
X73838437Y-168538450D01*
X73906388Y-168528371D01*
X73975000Y-168525000D01*
X74043612Y-168528371D01*
X74111563Y-168538450D01*
X74178199Y-168555142D01*
X74242878Y-168578284D01*
X74304978Y-168607655D01*
X74363899Y-168642971D01*
X74419075Y-168683893D01*
X74469975Y-168730025D01*
X74516107Y-168780925D01*
X74557029Y-168836101D01*
X74592345Y-168895022D01*
X74621716Y-168957122D01*
X74644858Y-169021801D01*
X74661550Y-169088437D01*
X74671629Y-169156388D01*
X74675000Y-169225000D01*
X74671629Y-169293612D01*
X74661550Y-169361563D01*
X74644858Y-169428199D01*
X74621716Y-169492878D01*
X74592345Y-169554978D01*
X74557029Y-169613899D01*
X74516107Y-169669075D01*
X74469975Y-169719975D01*
X74425000Y-169760737D01*
X74425000Y-170495000D01*
X74422833Y-170539108D01*
X74416353Y-170582791D01*
X74405623Y-170625628D01*
X74390746Y-170667208D01*
X74371865Y-170707129D01*
X74349161Y-170745007D01*
X74322855Y-170780477D01*
X74293198Y-170813198D01*
X73658198Y-171448198D01*
X73023198Y-172083198D01*
X72388198Y-172718198D01*
X71753198Y-173353198D01*
X71118198Y-173988198D01*
X70483198Y-174623198D01*
X69345000Y-175761396D01*
X69345000Y-177700000D01*
X69610000Y-177700000D01*
X69610000Y-180300000D01*
X69610000Y-180300000D01*
G37*
%LPD*%
%LPC*%
G36*
X69098199Y-192050142D02*
X69162878Y-192073284D01*
X69224978Y-192102655D01*
X69283899Y-192137971D01*
X69339075Y-192178893D01*
X69389975Y-192225025D01*
X69430737Y-192270000D01*
X71435000Y-192270000D01*
X71479108Y-192272167D01*
X71522791Y-192278647D01*
X71565628Y-192289377D01*
X71607208Y-192304254D01*
X71647129Y-192323135D01*
X71685007Y-192345839D01*
X71720477Y-192372145D01*
X71753198Y-192401802D01*
X71782855Y-192434523D01*
X71809161Y-192469993D01*
X71831865Y-192507871D01*
X71850746Y-192547792D01*
X71865623Y-192589372D01*
X71876353Y-192632209D01*
X71882833Y-192675892D01*
X71885000Y-192720000D01*
X71885000Y-193341237D01*
X71885536Y-193350000D01*
X73500000Y-193350000D01*
X73500000Y-195650000D01*
X71200000Y-195650000D01*
X71200000Y-193973558D01*
X71186314Y-193964650D01*
X71151842Y-193937048D01*
X71120241Y-193906201D01*
X71091816Y-193872404D01*
X71066840Y-193835984D01*
X71045555Y-193797292D01*
X71028164Y-193756699D01*
X71014836Y-193714598D01*
X71005699Y-193671392D01*
X71000841Y-193627500D01*
X70985841Y-193382500D01*
X70985000Y-193355000D01*
X70985000Y-193170000D01*
X69430737Y-193170000D01*
X69389975Y-193214975D01*
X69339075Y-193261107D01*
X69283899Y-193302029D01*
X69224978Y-193337345D01*
X69198221Y-193350000D01*
X70960000Y-193350000D01*
X70960000Y-195650000D01*
X68660000Y-195650000D01*
X68660000Y-193378480D01*
X68627122Y-193366716D01*
X68565022Y-193337345D01*
X68506101Y-193302029D01*
X68450925Y-193261107D01*
X68400025Y-193214975D01*
X68353893Y-193164075D01*
X68312971Y-193108899D01*
X68277655Y-193049978D01*
X68248284Y-192987878D01*
X68225142Y-192923199D01*
X68208450Y-192856563D01*
X68198371Y-192788612D01*
X68195000Y-192720000D01*
X68198371Y-192651388D01*
X68208450Y-192583437D01*
X68225142Y-192516801D01*
X68248284Y-192452122D01*
X68277655Y-192390022D01*
X68312971Y-192331101D01*
X68353893Y-192275925D01*
X68400025Y-192225025D01*
X68450925Y-192178893D01*
X68506101Y-192137971D01*
X68565022Y-192102655D01*
X68627122Y-192073284D01*
X68691801Y-192050142D01*
X68758437Y-192033450D01*
X68826388Y-192023371D01*
X68895000Y-192020000D01*
X68963612Y-192023371D01*
X69031563Y-192033450D01*
X69098199Y-192050142D01*
X69098199Y-192050142D01*
G37*
%LPD*%
%LPC*%
G36*
X68420000Y-195650000D02*
X66120000Y-195650000D01*
X66120000Y-193350000D01*
X68420000Y-193350000D01*
X68420000Y-195650000D01*
X68420000Y-195650000D01*
G37*
%LPD*%
%LPC*%
G36*
X73610000Y-58300000D02*
X71010000Y-58300000D01*
X71010000Y-55700000D01*
X73610000Y-55700000D01*
X73610000Y-58300000D01*
X73610000Y-58300000D01*
G37*
%LPD*%
%LPC*%
G36*
X83406107Y-60830925D02*
X83447029Y-60886101D01*
X83482345Y-60945022D01*
X83511716Y-61007122D01*
X83534858Y-61071801D01*
X83551550Y-61138437D01*
X83561629Y-61206388D01*
X83565000Y-61275000D01*
X83561629Y-61343612D01*
X83551550Y-61411563D01*
X83534858Y-61478199D01*
X83511716Y-61542878D01*
X83482345Y-61604978D01*
X83447029Y-61663899D01*
X83406107Y-61719075D01*
X83359975Y-61769975D01*
X83315000Y-61810737D01*
X83315000Y-62993604D01*
X83818198Y-63496802D01*
X84453198Y-64131802D01*
X84482855Y-64164523D01*
X84509161Y-64199993D01*
X84510000Y-64201393D01*
X84510000Y-63200000D01*
X86225000Y-63200000D01*
X86225000Y-63180000D01*
X86227167Y-63135892D01*
X86233647Y-63092209D01*
X86244377Y-63049372D01*
X86259254Y-63007792D01*
X86278135Y-62967871D01*
X86300839Y-62929993D01*
X86327145Y-62894523D01*
X86356802Y-62861802D01*
X86991802Y-62226802D01*
X87024523Y-62197145D01*
X87059993Y-62170839D01*
X87097871Y-62148135D01*
X87137792Y-62129254D01*
X87179372Y-62114377D01*
X87222209Y-62103647D01*
X87265892Y-62097167D01*
X87310000Y-62095000D01*
X93124263Y-62095000D01*
X93165025Y-62050025D01*
X93215925Y-62003893D01*
X93271101Y-61962971D01*
X93330022Y-61927655D01*
X93392122Y-61898284D01*
X93456801Y-61875142D01*
X93523437Y-61858450D01*
X93591388Y-61848371D01*
X93660000Y-61845000D01*
X93728612Y-61848371D01*
X93796563Y-61858450D01*
X93863199Y-61875142D01*
X93927878Y-61898284D01*
X93989978Y-61927655D01*
X94048899Y-61962971D01*
X94104075Y-62003893D01*
X94154975Y-62050025D01*
X94201107Y-62100925D01*
X94242029Y-62156101D01*
X94277345Y-62215022D01*
X94306716Y-62277122D01*
X94329858Y-62341801D01*
X94346550Y-62408437D01*
X94356629Y-62476388D01*
X94360000Y-62545000D01*
X94356629Y-62613612D01*
X94346550Y-62681563D01*
X94329858Y-62748199D01*
X94306716Y-62812878D01*
X94277345Y-62874978D01*
X94242029Y-62933899D01*
X94201107Y-62989075D01*
X94154975Y-63039975D01*
X94104075Y-63086107D01*
X94048899Y-63127029D01*
X93989978Y-63162345D01*
X93927878Y-63191716D01*
X93863199Y-63214858D01*
X93796563Y-63231550D01*
X93728612Y-63241629D01*
X93660000Y-63245000D01*
X93591388Y-63241629D01*
X93523437Y-63231550D01*
X93456801Y-63214858D01*
X93392122Y-63191716D01*
X93330022Y-63162345D01*
X93271101Y-63127029D01*
X93215925Y-63086107D01*
X93165025Y-63039975D01*
X93124263Y-62995000D01*
X87496396Y-62995000D01*
X87125000Y-63366396D01*
X87125000Y-63450000D01*
X87122833Y-63494108D01*
X87116353Y-63537791D01*
X87110000Y-63563155D01*
X87110000Y-65800000D01*
X84585000Y-65800000D01*
X84585000Y-66168604D01*
X87628198Y-69211802D01*
X88263198Y-69846802D01*
X88898198Y-70481802D01*
X96518198Y-78101802D01*
X97153198Y-78736802D01*
X97788198Y-79371802D01*
X99693198Y-81276802D01*
X99722855Y-81309523D01*
X99749161Y-81344993D01*
X99771865Y-81382871D01*
X99790746Y-81422792D01*
X99805623Y-81464372D01*
X99816353Y-81507209D01*
X99822833Y-81550892D01*
X99825000Y-81595000D01*
X99825000Y-84869263D01*
X99869975Y-84910025D01*
X99916107Y-84960925D01*
X99957029Y-85016101D01*
X99992345Y-85075022D01*
X100021716Y-85137122D01*
X100044858Y-85201801D01*
X100061550Y-85268437D01*
X100071629Y-85336388D01*
X100075000Y-85405000D01*
X100071629Y-85473612D01*
X100061550Y-85541563D01*
X100044858Y-85608199D01*
X100021716Y-85672878D01*
X99992345Y-85734978D01*
X99957029Y-85793899D01*
X99916107Y-85849075D01*
X99869975Y-85899975D01*
X99819075Y-85946107D01*
X99763899Y-85987029D01*
X99704978Y-86022345D01*
X99642878Y-86051716D01*
X99578199Y-86074858D01*
X99511563Y-86091550D01*
X99443612Y-86101629D01*
X99375000Y-86105000D01*
X99306388Y-86101629D01*
X99238437Y-86091550D01*
X99171801Y-86074858D01*
X99107122Y-86051716D01*
X99045022Y-86022345D01*
X98986101Y-85987029D01*
X98930925Y-85946107D01*
X98880025Y-85899975D01*
X98833893Y-85849075D01*
X98792971Y-85793899D01*
X98757655Y-85734978D01*
X98728284Y-85672878D01*
X98705142Y-85608199D01*
X98688450Y-85541563D01*
X98678371Y-85473612D01*
X98675000Y-85405000D01*
X98678371Y-85336388D01*
X98688450Y-85268437D01*
X98705142Y-85201801D01*
X98728284Y-85137122D01*
X98757655Y-85075022D01*
X98792971Y-85016101D01*
X98833893Y-84960925D01*
X98880025Y-84910025D01*
X98925000Y-84869263D01*
X98925000Y-81781396D01*
X97151802Y-80008198D01*
X96516802Y-79373198D01*
X95881802Y-78738198D01*
X88261802Y-71118198D01*
X87626802Y-70483198D01*
X86991802Y-69848198D01*
X83816802Y-66673198D01*
X83787145Y-66640477D01*
X83760839Y-66605007D01*
X83738135Y-66567129D01*
X83719254Y-66527208D01*
X83704377Y-66485628D01*
X83693647Y-66442791D01*
X83687167Y-66399108D01*
X83685000Y-66355000D01*
X83685000Y-64636396D01*
X83181802Y-64133198D01*
X82546802Y-63498198D01*
X82517145Y-63465477D01*
X82490839Y-63430007D01*
X82468135Y-63392129D01*
X82449254Y-63352208D01*
X82434377Y-63310628D01*
X82423647Y-63267791D01*
X82417167Y-63224108D01*
X82415000Y-63180000D01*
X82415000Y-61810737D01*
X82370025Y-61769975D01*
X82323893Y-61719075D01*
X82282971Y-61663899D01*
X82247655Y-61604978D01*
X82218284Y-61542878D01*
X82195142Y-61478199D01*
X82178450Y-61411563D01*
X82168371Y-61343612D01*
X82165000Y-61275000D01*
X82168371Y-61206388D01*
X82178450Y-61138437D01*
X82195142Y-61071801D01*
X82218284Y-61007122D01*
X82247655Y-60945022D01*
X82282971Y-60886101D01*
X82323893Y-60830925D01*
X82370025Y-60780025D01*
X82420925Y-60733893D01*
X82476101Y-60692971D01*
X82535022Y-60657655D01*
X82597122Y-60628284D01*
X82661801Y-60605142D01*
X82728437Y-60588450D01*
X82796388Y-60578371D01*
X82865000Y-60575000D01*
X82933612Y-60578371D01*
X83001563Y-60588450D01*
X83068199Y-60605142D01*
X83132878Y-60628284D01*
X83194978Y-60657655D01*
X83253899Y-60692971D01*
X83309075Y-60733893D01*
X83359975Y-60780025D01*
X83406107Y-60830925D01*
X83406107Y-60830925D01*
G37*
%LPD*%
%LPC*%
G36*
X77097029Y-64061101D02*
X77132345Y-64120022D01*
X77161716Y-64182122D01*
X77184858Y-64246801D01*
X77201550Y-64313437D01*
X77211629Y-64381388D01*
X77215000Y-64450000D01*
X77211629Y-64518612D01*
X77201550Y-64586563D01*
X77184858Y-64653199D01*
X77161716Y-64717878D01*
X77132345Y-64779978D01*
X77097029Y-64838899D01*
X77056107Y-64894075D01*
X77010639Y-64944242D01*
X77468198Y-65401802D01*
X77497855Y-65434523D01*
X77524161Y-65469993D01*
X77546865Y-65507871D01*
X77565746Y-65547792D01*
X77580623Y-65589372D01*
X77591353Y-65632209D01*
X77597833Y-65675892D01*
X77600000Y-65720000D01*
X77600000Y-66454263D01*
X77644975Y-66495025D01*
X77691107Y-66545925D01*
X77732029Y-66601101D01*
X77767345Y-66660022D01*
X77796716Y-66722122D01*
X77819858Y-66786801D01*
X77836550Y-66853437D01*
X77846629Y-66921388D01*
X77850000Y-66990000D01*
X77846629Y-67058612D01*
X77836550Y-67126563D01*
X77819858Y-67193199D01*
X77796716Y-67257878D01*
X77767345Y-67319978D01*
X77732029Y-67378899D01*
X77691107Y-67434075D01*
X77644975Y-67484975D01*
X77594075Y-67531107D01*
X77538899Y-67572029D01*
X77479978Y-67607345D01*
X77417878Y-67636716D01*
X77353199Y-67659858D01*
X77286563Y-67676550D01*
X77218612Y-67686629D01*
X77150000Y-67690000D01*
X77081388Y-67686629D01*
X77013437Y-67676550D01*
X76946801Y-67659858D01*
X76882122Y-67636716D01*
X76820022Y-67607345D01*
X76761101Y-67572029D01*
X76705925Y-67531107D01*
X76655025Y-67484975D01*
X76614263Y-67440000D01*
X76066396Y-67440000D01*
X75563198Y-67943198D01*
X74928198Y-68578198D01*
X74672022Y-68834374D01*
X74675000Y-68895000D01*
X74671629Y-68963612D01*
X74661550Y-69031563D01*
X74644858Y-69098199D01*
X74621716Y-69162878D01*
X74592345Y-69224978D01*
X74557029Y-69283899D01*
X74516107Y-69339075D01*
X74469975Y-69389975D01*
X74419075Y-69436107D01*
X74363899Y-69477029D01*
X74304978Y-69512345D01*
X74242878Y-69541716D01*
X74178199Y-69564858D01*
X74111563Y-69581550D01*
X74043612Y-69591629D01*
X73975000Y-69595000D01*
X73906388Y-69591629D01*
X73838437Y-69581550D01*
X73771801Y-69564858D01*
X73707122Y-69541716D01*
X73645022Y-69512345D01*
X73586101Y-69477029D01*
X73530925Y-69436107D01*
X73480025Y-69389975D01*
X73433893Y-69339075D01*
X73392971Y-69283899D01*
X73357655Y-69224978D01*
X73328284Y-69162878D01*
X73305142Y-69098199D01*
X73288450Y-69031563D01*
X73278371Y-68963612D01*
X73275000Y-68895000D01*
X73278371Y-68826388D01*
X73288450Y-68758437D01*
X73305142Y-68691801D01*
X73328284Y-68627122D01*
X73357655Y-68565022D01*
X73392971Y-68506101D01*
X73433893Y-68450925D01*
X73480025Y-68400025D01*
X73530925Y-68353893D01*
X73586101Y-68312971D01*
X73645022Y-68277655D01*
X73707122Y-68248284D01*
X73771801Y-68225142D01*
X73838437Y-68208450D01*
X73906388Y-68198371D01*
X73975000Y-68195000D01*
X74035626Y-68197978D01*
X74291802Y-67941802D01*
X74926802Y-67306802D01*
X75561802Y-66671802D01*
X75594523Y-66642145D01*
X75629993Y-66615839D01*
X75667871Y-66593135D01*
X75707792Y-66574254D01*
X75749372Y-66559377D01*
X75792209Y-66548647D01*
X75835892Y-66542167D01*
X75880000Y-66540000D01*
X76614263Y-66540000D01*
X76655025Y-66495025D01*
X76700000Y-66454263D01*
X76700000Y-65906396D01*
X76196802Y-65403198D01*
X76167145Y-65370477D01*
X76140839Y-65335007D01*
X76118135Y-65297129D01*
X76099254Y-65257208D01*
X76084377Y-65215628D01*
X76073647Y-65172791D01*
X76067167Y-65129108D01*
X76065000Y-65085000D01*
X76065000Y-64985737D01*
X76020025Y-64944975D01*
X75973893Y-64894075D01*
X75932971Y-64838899D01*
X75897655Y-64779978D01*
X75868284Y-64717878D01*
X75845142Y-64653199D01*
X75828450Y-64586563D01*
X75818371Y-64518612D01*
X75815000Y-64450000D01*
X75818371Y-64381388D01*
X75828450Y-64313437D01*
X75845142Y-64246801D01*
X75868284Y-64182122D01*
X75897655Y-64120022D01*
X75932971Y-64061101D01*
X75973893Y-64005925D01*
X76020025Y-63955025D01*
X76070925Y-63908893D01*
X76126101Y-63867971D01*
X76185022Y-63832655D01*
X76247122Y-63803284D01*
X76311801Y-63780142D01*
X76378437Y-63763450D01*
X76446388Y-63753371D01*
X76515000Y-63750000D01*
X76583612Y-63753371D01*
X76651563Y-63763450D01*
X76718199Y-63780142D01*
X76782878Y-63803284D01*
X76844978Y-63832655D01*
X76903899Y-63867971D01*
X76959075Y-63908893D01*
X77009975Y-63955025D01*
X77056107Y-64005925D01*
X77097029Y-64061101D01*
X77097029Y-64061101D01*
G37*
%LPD*%
%LPC*%
G36*
X77056107Y-81785925D02*
X77097029Y-81841101D01*
X77132345Y-81900022D01*
X77161716Y-81962122D01*
X77184858Y-82026801D01*
X77201550Y-82093437D01*
X77211629Y-82161388D01*
X77215000Y-82230000D01*
X77211629Y-82298612D01*
X77201550Y-82366563D01*
X77184858Y-82433199D01*
X77161716Y-82497878D01*
X77132345Y-82559978D01*
X77097029Y-82618899D01*
X77056107Y-82674075D01*
X77009975Y-82724975D01*
X76959075Y-82771107D01*
X76903899Y-82812029D01*
X76844978Y-82847345D01*
X76782878Y-82876716D01*
X76718199Y-82899858D01*
X76651563Y-82916550D01*
X76583612Y-82926629D01*
X76515000Y-82930000D01*
X76454374Y-82927022D01*
X76330000Y-83051396D01*
X76330000Y-116968604D01*
X76833198Y-117471802D01*
X76862855Y-117504523D01*
X76889161Y-117539993D01*
X76911865Y-117577871D01*
X76930746Y-117617792D01*
X76945623Y-117659372D01*
X76956353Y-117702209D01*
X76962833Y-117745892D01*
X76965000Y-117790000D01*
X76965000Y-123604263D01*
X77009975Y-123645025D01*
X77056107Y-123695925D01*
X77097029Y-123751101D01*
X77132345Y-123810022D01*
X77161716Y-123872122D01*
X77184858Y-123936801D01*
X77201550Y-124003437D01*
X77211629Y-124071388D01*
X77215000Y-124140000D01*
X77211629Y-124208612D01*
X77201550Y-124276563D01*
X77184858Y-124343199D01*
X77161716Y-124407878D01*
X77132345Y-124469978D01*
X77097029Y-124528899D01*
X77056107Y-124584075D01*
X77009975Y-124634975D01*
X76959075Y-124681107D01*
X76903899Y-124722029D01*
X76844978Y-124757345D01*
X76782878Y-124786716D01*
X76718199Y-124809858D01*
X76651563Y-124826550D01*
X76583612Y-124836629D01*
X76515000Y-124840000D01*
X76446388Y-124836629D01*
X76378437Y-124826550D01*
X76311801Y-124809858D01*
X76247122Y-124786716D01*
X76185022Y-124757345D01*
X76126101Y-124722029D01*
X76070925Y-124681107D01*
X76020025Y-124634975D01*
X75973893Y-124584075D01*
X75932971Y-124528899D01*
X75897655Y-124469978D01*
X75868284Y-124407878D01*
X75845142Y-124343199D01*
X75828450Y-124276563D01*
X75818371Y-124208612D01*
X75815000Y-124140000D01*
X75818371Y-124071388D01*
X75828450Y-124003437D01*
X75845142Y-123936801D01*
X75868284Y-123872122D01*
X75897655Y-123810022D01*
X75932971Y-123751101D01*
X75973893Y-123695925D01*
X76020025Y-123645025D01*
X76065000Y-123604263D01*
X76065000Y-117976396D01*
X75561802Y-117473198D01*
X75532145Y-117440477D01*
X75505839Y-117405007D01*
X75483135Y-117367129D01*
X75464254Y-117327208D01*
X75449377Y-117285628D01*
X75438647Y-117242791D01*
X75432167Y-117199108D01*
X75430000Y-117155000D01*
X75430000Y-82865000D01*
X75432167Y-82820892D01*
X75438647Y-82777209D01*
X75449377Y-82734372D01*
X75464254Y-82692792D01*
X75483135Y-82652871D01*
X75505839Y-82614993D01*
X75532145Y-82579523D01*
X75561802Y-82546802D01*
X75817978Y-82290626D01*
X75815000Y-82230000D01*
X75818371Y-82161388D01*
X75828450Y-82093437D01*
X75845142Y-82026801D01*
X75868284Y-81962122D01*
X75897655Y-81900022D01*
X75932971Y-81841101D01*
X75973893Y-81785925D01*
X76020025Y-81735025D01*
X76070925Y-81688893D01*
X76126101Y-81647971D01*
X76185022Y-81612655D01*
X76247122Y-81583284D01*
X76311801Y-81560142D01*
X76378437Y-81543450D01*
X76446388Y-81533371D01*
X76515000Y-81530000D01*
X76583612Y-81533371D01*
X76651563Y-81543450D01*
X76718199Y-81560142D01*
X76782878Y-81583284D01*
X76844978Y-81612655D01*
X76903899Y-81647971D01*
X76959075Y-81688893D01*
X77009975Y-81735025D01*
X77056107Y-81785925D01*
X77056107Y-81785925D01*
G37*
%LPD*%
%LPC*%
G36*
X73610000Y-112300000D02*
X71010000Y-112300000D01*
X71010000Y-109700000D01*
X73610000Y-109700000D01*
X73610000Y-112300000D01*
X73610000Y-112300000D01*
G37*
%LPD*%
%LPC*%
G36*
X78326107Y-117345925D02*
X78367029Y-117401101D01*
X78402345Y-117460022D01*
X78431716Y-117522122D01*
X78454858Y-117586801D01*
X78471550Y-117653437D01*
X78481629Y-117721388D01*
X78485000Y-117790000D01*
X78481629Y-117858612D01*
X78471550Y-117926563D01*
X78454858Y-117993199D01*
X78431716Y-118057878D01*
X78402345Y-118119978D01*
X78367029Y-118178899D01*
X78326107Y-118234075D01*
X78279975Y-118284975D01*
X78235000Y-118325737D01*
X78235000Y-119794263D01*
X78279975Y-119835025D01*
X78326107Y-119885925D01*
X78367029Y-119941101D01*
X78402345Y-120000022D01*
X78431716Y-120062122D01*
X78454858Y-120126801D01*
X78471550Y-120193437D01*
X78481629Y-120261388D01*
X78485000Y-120330000D01*
X78481629Y-120398612D01*
X78471550Y-120466563D01*
X78454858Y-120533199D01*
X78431716Y-120597878D01*
X78402345Y-120659978D01*
X78367029Y-120718899D01*
X78326107Y-120774075D01*
X78279975Y-120824975D01*
X78235000Y-120865737D01*
X78235000Y-125410000D01*
X78232833Y-125454108D01*
X78226353Y-125497791D01*
X78215623Y-125540628D01*
X78200746Y-125582208D01*
X78181865Y-125622129D01*
X78159161Y-125660007D01*
X78132855Y-125695477D01*
X78103198Y-125728198D01*
X78070477Y-125757855D01*
X78035007Y-125784161D01*
X77997129Y-125806865D01*
X77957208Y-125825746D01*
X77915628Y-125840623D01*
X77872791Y-125851353D01*
X77829108Y-125857833D01*
X77785000Y-125860000D01*
X75245000Y-125860000D01*
X75200892Y-125857833D01*
X75157209Y-125851353D01*
X75114372Y-125840623D01*
X75072792Y-125825746D01*
X75032871Y-125806865D01*
X74994993Y-125784161D01*
X74959523Y-125757855D01*
X74926802Y-125728198D01*
X74291802Y-125093198D01*
X74035626Y-124837022D01*
X73975000Y-124840000D01*
X73906388Y-124836629D01*
X73838437Y-124826550D01*
X73771801Y-124809858D01*
X73707122Y-124786716D01*
X73645022Y-124757345D01*
X73586101Y-124722029D01*
X73530925Y-124681107D01*
X73480025Y-124634975D01*
X73433893Y-124584075D01*
X73392971Y-124528899D01*
X73357655Y-124469978D01*
X73328284Y-124407878D01*
X73305142Y-124343199D01*
X73288450Y-124276563D01*
X73278371Y-124208612D01*
X73275000Y-124140000D01*
X73278371Y-124071388D01*
X73288450Y-124003437D01*
X73305142Y-123936801D01*
X73328284Y-123872122D01*
X73357655Y-123810022D01*
X73392971Y-123751101D01*
X73433893Y-123695925D01*
X73480025Y-123645025D01*
X73530925Y-123598893D01*
X73586101Y-123557971D01*
X73645022Y-123522655D01*
X73707122Y-123493284D01*
X73771801Y-123470142D01*
X73838437Y-123453450D01*
X73906388Y-123443371D01*
X73975000Y-123440000D01*
X74043612Y-123443371D01*
X74111563Y-123453450D01*
X74178199Y-123470142D01*
X74242878Y-123493284D01*
X74304978Y-123522655D01*
X74363899Y-123557971D01*
X74419075Y-123598893D01*
X74469975Y-123645025D01*
X74516107Y-123695925D01*
X74557029Y-123751101D01*
X74592345Y-123810022D01*
X74621716Y-123872122D01*
X74644858Y-123936801D01*
X74661550Y-124003437D01*
X74671629Y-124071388D01*
X74675000Y-124140000D01*
X74672022Y-124200626D01*
X74928198Y-124456802D01*
X75431396Y-124960000D01*
X77335000Y-124960000D01*
X77335000Y-120865737D01*
X77290025Y-120824975D01*
X77243893Y-120774075D01*
X77202971Y-120718899D01*
X77167655Y-120659978D01*
X77138284Y-120597878D01*
X77115142Y-120533199D01*
X77098450Y-120466563D01*
X77088371Y-120398612D01*
X77085000Y-120330000D01*
X77088371Y-120261388D01*
X77098450Y-120193437D01*
X77115142Y-120126801D01*
X77138284Y-120062122D01*
X77167655Y-120000022D01*
X77202971Y-119941101D01*
X77243893Y-119885925D01*
X77290025Y-119835025D01*
X77335000Y-119794263D01*
X77335000Y-118325737D01*
X77290025Y-118284975D01*
X77243893Y-118234075D01*
X77202971Y-118178899D01*
X77167655Y-118119978D01*
X77138284Y-118057878D01*
X77115142Y-117993199D01*
X77098450Y-117926563D01*
X77088371Y-117858612D01*
X77085000Y-117790000D01*
X77088371Y-117721388D01*
X77098450Y-117653437D01*
X77115142Y-117586801D01*
X77138284Y-117522122D01*
X77167655Y-117460022D01*
X77202971Y-117401101D01*
X77243893Y-117345925D01*
X77290025Y-117295025D01*
X77340925Y-117248893D01*
X77396101Y-117207971D01*
X77455022Y-117172655D01*
X77517122Y-117143284D01*
X77581801Y-117120142D01*
X77648437Y-117103450D01*
X77716388Y-117093371D01*
X77785000Y-117090000D01*
X77853612Y-117093371D01*
X77921563Y-117103450D01*
X77988199Y-117120142D01*
X78052878Y-117143284D01*
X78114978Y-117172655D01*
X78173899Y-117207971D01*
X78229075Y-117248893D01*
X78279975Y-117295025D01*
X78326107Y-117345925D01*
X78326107Y-117345925D01*
G37*
%LPD*%
%LPC*%
G36*
X83369372Y-118629377D02*
X83412209Y-118618647D01*
X83455892Y-118612167D01*
X83500000Y-118610000D01*
X84510000Y-118610000D01*
X84510000Y-117200000D01*
X86225000Y-117200000D01*
X86225000Y-117155000D01*
X86227167Y-117110892D01*
X86233647Y-117067209D01*
X86244377Y-117024372D01*
X86259254Y-116982792D01*
X86278135Y-116942871D01*
X86300839Y-116904993D01*
X86327145Y-116869523D01*
X86356802Y-116836802D01*
X86991802Y-116201802D01*
X87024523Y-116172145D01*
X87059993Y-116145839D01*
X87097871Y-116123135D01*
X87137792Y-116104254D01*
X87179372Y-116089377D01*
X87222209Y-116078647D01*
X87265892Y-116072167D01*
X87310000Y-116070000D01*
X97569263Y-116070000D01*
X97610025Y-116025025D01*
X97660925Y-115978893D01*
X97716101Y-115937971D01*
X97775022Y-115902655D01*
X97837122Y-115873284D01*
X97901801Y-115850142D01*
X97968437Y-115833450D01*
X98036388Y-115823371D01*
X98105000Y-115820000D01*
X98173612Y-115823371D01*
X98241563Y-115833450D01*
X98308199Y-115850142D01*
X98372878Y-115873284D01*
X98434978Y-115902655D01*
X98493899Y-115937971D01*
X98549075Y-115978893D01*
X98599975Y-116025025D01*
X98646107Y-116075925D01*
X98687029Y-116131101D01*
X98722345Y-116190022D01*
X98751716Y-116252122D01*
X98774858Y-116316801D01*
X98791550Y-116383437D01*
X98801629Y-116451388D01*
X98805000Y-116520000D01*
X98801629Y-116588612D01*
X98791550Y-116656563D01*
X98774858Y-116723199D01*
X98751716Y-116787878D01*
X98722345Y-116849978D01*
X98687029Y-116908899D01*
X98646107Y-116964075D01*
X98599975Y-117014975D01*
X98549075Y-117061107D01*
X98493899Y-117102029D01*
X98434978Y-117137345D01*
X98372878Y-117166716D01*
X98308199Y-117189858D01*
X98241563Y-117206550D01*
X98173612Y-117216629D01*
X98105000Y-117220000D01*
X98036388Y-117216629D01*
X97968437Y-117206550D01*
X97901801Y-117189858D01*
X97837122Y-117166716D01*
X97775022Y-117137345D01*
X97716101Y-117102029D01*
X97660925Y-117061107D01*
X97610025Y-117014975D01*
X97569263Y-116970000D01*
X87496396Y-116970000D01*
X87125000Y-117341396D01*
X87125000Y-117450000D01*
X87122833Y-117494108D01*
X87116353Y-117537791D01*
X87110000Y-117563155D01*
X87110000Y-119800000D01*
X84510000Y-119800000D01*
X84510000Y-119510000D01*
X83686396Y-119510000D01*
X83183198Y-120013198D01*
X83150477Y-120042855D01*
X83115007Y-120069161D01*
X83077129Y-120091865D01*
X83037208Y-120110746D01*
X82995628Y-120125623D01*
X82952791Y-120136353D01*
X82909108Y-120142833D01*
X82865000Y-120145000D01*
X82416396Y-120145000D01*
X81022022Y-121539374D01*
X81025000Y-121600000D01*
X81021629Y-121668612D01*
X81011550Y-121736563D01*
X80994858Y-121803199D01*
X80971716Y-121867878D01*
X80942345Y-121929978D01*
X80907029Y-121988899D01*
X80866107Y-122044075D01*
X80819975Y-122094975D01*
X80769075Y-122141107D01*
X80713899Y-122182029D01*
X80654978Y-122217345D01*
X80592878Y-122246716D01*
X80528199Y-122269858D01*
X80461563Y-122286550D01*
X80393612Y-122296629D01*
X80325000Y-122300000D01*
X80256388Y-122296629D01*
X80188437Y-122286550D01*
X80121801Y-122269858D01*
X80057122Y-122246716D01*
X79995022Y-122217345D01*
X79936101Y-122182029D01*
X79880925Y-122141107D01*
X79830025Y-122094975D01*
X79783893Y-122044075D01*
X79742971Y-121988899D01*
X79707655Y-121929978D01*
X79678284Y-121867878D01*
X79655142Y-121803199D01*
X79638450Y-121736563D01*
X79628371Y-121668612D01*
X79625000Y-121600000D01*
X79628371Y-121531388D01*
X79638450Y-121463437D01*
X79655142Y-121396801D01*
X79678284Y-121332122D01*
X79707655Y-121270022D01*
X79742971Y-121211101D01*
X79783893Y-121155925D01*
X79830025Y-121105025D01*
X79880925Y-121058893D01*
X79936101Y-121017971D01*
X79995022Y-120982655D01*
X80057122Y-120953284D01*
X80121801Y-120930142D01*
X80188437Y-120913450D01*
X80256388Y-120903371D01*
X80325000Y-120900000D01*
X80385626Y-120902978D01*
X81911802Y-119376802D01*
X81944523Y-119347145D01*
X81979993Y-119320839D01*
X82017871Y-119298135D01*
X82057792Y-119279254D01*
X82099372Y-119264377D01*
X82142209Y-119253647D01*
X82185892Y-119247167D01*
X82230000Y-119245000D01*
X82678604Y-119245000D01*
X83181802Y-118741802D01*
X83214523Y-118712145D01*
X83249993Y-118685839D01*
X83287871Y-118663135D01*
X83327792Y-118644254D01*
X83369372Y-118629377D01*
X83369372Y-118629377D01*
G37*
%LPD*%
%LPC*%
G36*
X73610000Y-166300000D02*
X71010000Y-166300000D01*
X71010000Y-163700000D01*
X73610000Y-163700000D01*
X73610000Y-166300000D01*
X73610000Y-166300000D01*
G37*
%LPD*%
%LPC*%
G36*
X83406107Y-168780925D02*
X83447029Y-168836101D01*
X83482345Y-168895022D01*
X83511716Y-168957122D01*
X83534858Y-169021801D01*
X83551550Y-169088437D01*
X83561629Y-169156388D01*
X83565000Y-169225000D01*
X83561629Y-169293612D01*
X83551550Y-169361563D01*
X83534858Y-169428199D01*
X83511716Y-169492878D01*
X83482345Y-169554978D01*
X83447029Y-169613899D01*
X83406107Y-169669075D01*
X83359975Y-169719975D01*
X83315000Y-169760737D01*
X83315000Y-170943604D01*
X83818198Y-171446802D01*
X84453198Y-172081802D01*
X84482855Y-172114523D01*
X84509161Y-172149993D01*
X84510000Y-172151393D01*
X84510000Y-171200000D01*
X86225000Y-171200000D01*
X86225000Y-171130000D01*
X86227167Y-171085892D01*
X86233647Y-171042209D01*
X86244377Y-170999372D01*
X86259254Y-170957792D01*
X86278135Y-170917871D01*
X86300839Y-170879993D01*
X86327145Y-170844523D01*
X86356802Y-170811802D01*
X86991802Y-170176802D01*
X87024523Y-170147145D01*
X87059993Y-170120839D01*
X87097871Y-170098135D01*
X87137792Y-170079254D01*
X87179372Y-170064377D01*
X87222209Y-170053647D01*
X87265892Y-170047167D01*
X87310000Y-170045000D01*
X97569263Y-170045000D01*
X97610025Y-170000025D01*
X97660925Y-169953893D01*
X97716101Y-169912971D01*
X97775022Y-169877655D01*
X97837122Y-169848284D01*
X97901801Y-169825142D01*
X97968437Y-169808450D01*
X98036388Y-169798371D01*
X98105000Y-169795000D01*
X98173612Y-169798371D01*
X98241563Y-169808450D01*
X98308199Y-169825142D01*
X98372878Y-169848284D01*
X98434978Y-169877655D01*
X98493899Y-169912971D01*
X98549075Y-169953893D01*
X98599975Y-170000025D01*
X98646107Y-170050925D01*
X98687029Y-170106101D01*
X98722345Y-170165022D01*
X98751716Y-170227122D01*
X98774858Y-170291801D01*
X98791550Y-170358437D01*
X98801629Y-170426388D01*
X98805000Y-170495000D01*
X98801629Y-170563612D01*
X98791550Y-170631563D01*
X98774858Y-170698199D01*
X98751716Y-170762878D01*
X98722345Y-170824978D01*
X98687029Y-170883899D01*
X98646107Y-170939075D01*
X98599975Y-170989975D01*
X98549075Y-171036107D01*
X98493899Y-171077029D01*
X98434978Y-171112345D01*
X98372878Y-171141716D01*
X98308199Y-171164858D01*
X98241563Y-171181550D01*
X98173612Y-171191629D01*
X98105000Y-171195000D01*
X98036388Y-171191629D01*
X97968437Y-171181550D01*
X97901801Y-171164858D01*
X97837122Y-171141716D01*
X97775022Y-171112345D01*
X97716101Y-171077029D01*
X97660925Y-171036107D01*
X97610025Y-170989975D01*
X97569263Y-170945000D01*
X87496396Y-170945000D01*
X87125000Y-171316396D01*
X87125000Y-171450000D01*
X87122833Y-171494108D01*
X87116353Y-171537791D01*
X87110000Y-171563155D01*
X87110000Y-173800000D01*
X84585000Y-173800000D01*
X84585000Y-174118604D01*
X85088198Y-174621802D01*
X85723198Y-175256802D01*
X86358198Y-175891802D01*
X86993198Y-176526802D01*
X87628198Y-177161802D01*
X88263198Y-177796802D01*
X89533198Y-179066802D01*
X90168198Y-179701802D01*
X91438198Y-180971802D01*
X92073198Y-181606802D01*
X93343198Y-182876802D01*
X93978198Y-183511802D01*
X95248198Y-184781802D01*
X95883198Y-185416802D01*
X96518198Y-186051802D01*
X97153198Y-186686802D01*
X97788198Y-187321802D01*
X97817855Y-187354523D01*
X97844161Y-187389993D01*
X97866865Y-187427871D01*
X97885746Y-187467792D01*
X97900623Y-187509372D01*
X97911353Y-187552209D01*
X97917833Y-187595892D01*
X97920000Y-187640000D01*
X97920000Y-189358604D01*
X98423198Y-189861802D01*
X99058198Y-190496802D01*
X99693198Y-191131802D01*
X99722855Y-191164523D01*
X99749161Y-191199993D01*
X99771865Y-191237871D01*
X99790746Y-191277792D01*
X99805623Y-191319372D01*
X99816353Y-191362209D01*
X99822833Y-191405892D01*
X99825000Y-191450000D01*
X99825000Y-192819263D01*
X99869975Y-192860025D01*
X99916107Y-192910925D01*
X99957029Y-192966101D01*
X99992345Y-193025022D01*
X100021716Y-193087122D01*
X100044858Y-193151801D01*
X100061550Y-193218437D01*
X100071629Y-193286388D01*
X100075000Y-193355000D01*
X100071629Y-193423612D01*
X100061550Y-193491563D01*
X100044858Y-193558199D01*
X100021716Y-193622878D01*
X99992345Y-193684978D01*
X99957029Y-193743899D01*
X99916107Y-193799075D01*
X99869975Y-193849975D01*
X99819075Y-193896107D01*
X99763899Y-193937029D01*
X99704978Y-193972345D01*
X99642878Y-194001716D01*
X99578199Y-194024858D01*
X99511563Y-194041550D01*
X99443612Y-194051629D01*
X99375000Y-194055000D01*
X99306388Y-194051629D01*
X99238437Y-194041550D01*
X99171801Y-194024858D01*
X99107122Y-194001716D01*
X99045022Y-193972345D01*
X98986101Y-193937029D01*
X98930925Y-193896107D01*
X98880025Y-193849975D01*
X98833893Y-193799075D01*
X98792971Y-193743899D01*
X98757655Y-193684978D01*
X98728284Y-193622878D01*
X98705142Y-193558199D01*
X98688450Y-193491563D01*
X98678371Y-193423612D01*
X98675000Y-193355000D01*
X98678371Y-193286388D01*
X98688450Y-193218437D01*
X98705142Y-193151801D01*
X98728284Y-193087122D01*
X98757655Y-193025022D01*
X98792971Y-192966101D01*
X98833893Y-192910925D01*
X98880025Y-192860025D01*
X98925000Y-192819263D01*
X98925000Y-191636396D01*
X98421802Y-191133198D01*
X97786802Y-190498198D01*
X97151802Y-189863198D01*
X97122145Y-189830477D01*
X97095839Y-189795007D01*
X97073135Y-189757129D01*
X97054254Y-189717208D01*
X97039377Y-189675628D01*
X97028647Y-189632791D01*
X97022167Y-189589108D01*
X97020000Y-189545000D01*
X97020000Y-187826396D01*
X96516802Y-187323198D01*
X95881802Y-186688198D01*
X95246802Y-186053198D01*
X94611802Y-185418198D01*
X93341802Y-184148198D01*
X92706802Y-183513198D01*
X91436802Y-182243198D01*
X90801802Y-181608198D01*
X89531802Y-180338198D01*
X88896802Y-179703198D01*
X87626802Y-178433198D01*
X86991802Y-177798198D01*
X86356802Y-177163198D01*
X85721802Y-176528198D01*
X85086802Y-175893198D01*
X84451802Y-175258198D01*
X83816802Y-174623198D01*
X83787145Y-174590477D01*
X83760839Y-174555007D01*
X83738135Y-174517129D01*
X83719254Y-174477208D01*
X83704377Y-174435628D01*
X83693647Y-174392791D01*
X83687167Y-174349108D01*
X83685000Y-174305000D01*
X83685000Y-172586396D01*
X83181802Y-172083198D01*
X82546802Y-171448198D01*
X82517145Y-171415477D01*
X82490839Y-171380007D01*
X82468135Y-171342129D01*
X82449254Y-171302208D01*
X82434377Y-171260628D01*
X82423647Y-171217791D01*
X82417167Y-171174108D01*
X82415000Y-171130000D01*
X82415000Y-169760737D01*
X82370025Y-169719975D01*
X82323893Y-169669075D01*
X82282971Y-169613899D01*
X82247655Y-169554978D01*
X82218284Y-169492878D01*
X82195142Y-169428199D01*
X82178450Y-169361563D01*
X82168371Y-169293612D01*
X82165000Y-169225000D01*
X82168371Y-169156388D01*
X82178450Y-169088437D01*
X82195142Y-169021801D01*
X82218284Y-168957122D01*
X82247655Y-168895022D01*
X82282971Y-168836101D01*
X82323893Y-168780925D01*
X82370025Y-168730025D01*
X82420925Y-168683893D01*
X82476101Y-168642971D01*
X82535022Y-168607655D01*
X82597122Y-168578284D01*
X82661801Y-168555142D01*
X82728437Y-168538450D01*
X82796388Y-168528371D01*
X82865000Y-168525000D01*
X82933612Y-168528371D01*
X83001563Y-168538450D01*
X83068199Y-168555142D01*
X83132878Y-168578284D01*
X83194978Y-168607655D01*
X83253899Y-168642971D01*
X83309075Y-168683893D01*
X83359975Y-168730025D01*
X83406107Y-168780925D01*
X83406107Y-168780925D01*
G37*
%LPD*%
%LPC*%
G36*
X77056107Y-171955925D02*
X77097029Y-172011101D01*
X77132345Y-172070022D01*
X77161716Y-172132122D01*
X77184858Y-172196801D01*
X77201550Y-172263437D01*
X77211629Y-172331388D01*
X77215000Y-172400000D01*
X77211629Y-172468612D01*
X77201550Y-172536563D01*
X77184858Y-172603199D01*
X77161716Y-172667878D01*
X77132345Y-172729978D01*
X77097029Y-172788899D01*
X77056107Y-172844075D01*
X77010639Y-172894242D01*
X77468198Y-173351802D01*
X77497855Y-173384523D01*
X77524161Y-173419993D01*
X77546865Y-173457871D01*
X77565746Y-173497792D01*
X77580623Y-173539372D01*
X77591353Y-173582209D01*
X77597833Y-173625892D01*
X77600000Y-173670000D01*
X77600000Y-174404263D01*
X77644975Y-174445025D01*
X77691107Y-174495925D01*
X77732029Y-174551101D01*
X77767345Y-174610022D01*
X77796716Y-174672122D01*
X77819858Y-174736801D01*
X77836550Y-174803437D01*
X77846629Y-174871388D01*
X77850000Y-174940000D01*
X77846629Y-175008612D01*
X77836550Y-175076563D01*
X77819858Y-175143199D01*
X77796716Y-175207878D01*
X77767345Y-175269978D01*
X77732029Y-175328899D01*
X77691107Y-175384075D01*
X77644975Y-175434975D01*
X77594075Y-175481107D01*
X77538899Y-175522029D01*
X77479978Y-175557345D01*
X77417878Y-175586716D01*
X77353199Y-175609858D01*
X77286563Y-175626550D01*
X77218612Y-175636629D01*
X77150000Y-175640000D01*
X77081388Y-175636629D01*
X77013437Y-175626550D01*
X76946801Y-175609858D01*
X76882122Y-175586716D01*
X76820022Y-175557345D01*
X76761101Y-175522029D01*
X76705925Y-175481107D01*
X76655758Y-175435639D01*
X76198198Y-175893198D01*
X75563198Y-176528198D01*
X75307022Y-176784374D01*
X75310000Y-176845000D01*
X75306629Y-176913612D01*
X75296550Y-176981563D01*
X75279858Y-177048199D01*
X75256716Y-177112878D01*
X75227345Y-177174978D01*
X75192029Y-177233899D01*
X75151107Y-177289075D01*
X75104975Y-177339975D01*
X75054075Y-177386107D01*
X74998899Y-177427029D01*
X74939978Y-177462345D01*
X74877878Y-177491716D01*
X74813199Y-177514858D01*
X74746563Y-177531550D01*
X74678612Y-177541629D01*
X74610000Y-177545000D01*
X74541388Y-177541629D01*
X74473437Y-177531550D01*
X74406801Y-177514858D01*
X74342122Y-177491716D01*
X74280022Y-177462345D01*
X74221101Y-177427029D01*
X74165925Y-177386107D01*
X74115025Y-177339975D01*
X74068893Y-177289075D01*
X74027971Y-177233899D01*
X73992655Y-177174978D01*
X73963284Y-177112878D01*
X73940142Y-177048199D01*
X73923450Y-176981563D01*
X73913371Y-176913612D01*
X73910000Y-176845000D01*
X73913371Y-176776388D01*
X73923450Y-176708437D01*
X73940142Y-176641801D01*
X73963284Y-176577122D01*
X73992655Y-176515022D01*
X74027971Y-176456101D01*
X74068893Y-176400925D01*
X74115025Y-176350025D01*
X74165925Y-176303893D01*
X74221101Y-176262971D01*
X74280022Y-176227655D01*
X74342122Y-176198284D01*
X74406801Y-176175142D01*
X74473437Y-176158450D01*
X74541388Y-176148371D01*
X74610000Y-176145000D01*
X74670626Y-176147978D01*
X74926802Y-175891802D01*
X75561802Y-175256802D01*
X76196802Y-174621802D01*
X76229523Y-174592145D01*
X76264993Y-174565839D01*
X76302871Y-174543135D01*
X76342792Y-174524254D01*
X76384372Y-174509377D01*
X76427209Y-174498647D01*
X76470892Y-174492167D01*
X76515000Y-174490000D01*
X76614263Y-174490000D01*
X76655025Y-174445025D01*
X76700000Y-174404263D01*
X76700000Y-173856396D01*
X76196802Y-173353198D01*
X76167145Y-173320477D01*
X76140839Y-173285007D01*
X76118135Y-173247129D01*
X76099254Y-173207208D01*
X76084377Y-173165628D01*
X76073647Y-173122791D01*
X76067167Y-173079108D01*
X76065000Y-173035000D01*
X76065000Y-172935737D01*
X76020025Y-172894975D01*
X75973893Y-172844075D01*
X75932971Y-172788899D01*
X75897655Y-172729978D01*
X75868284Y-172667878D01*
X75845142Y-172603199D01*
X75828450Y-172536563D01*
X75818371Y-172468612D01*
X75815000Y-172400000D01*
X75818371Y-172331388D01*
X75828450Y-172263437D01*
X75845142Y-172196801D01*
X75868284Y-172132122D01*
X75897655Y-172070022D01*
X75932971Y-172011101D01*
X75973893Y-171955925D01*
X76020025Y-171905025D01*
X76070925Y-171858893D01*
X76126101Y-171817971D01*
X76185022Y-171782655D01*
X76247122Y-171753284D01*
X76311801Y-171730142D01*
X76378437Y-171713450D01*
X76446388Y-171703371D01*
X76515000Y-171700000D01*
X76583612Y-171703371D01*
X76651563Y-171713450D01*
X76718199Y-171730142D01*
X76782878Y-171753284D01*
X76844978Y-171782655D01*
X76903899Y-171817971D01*
X76959075Y-171858893D01*
X77009975Y-171905025D01*
X77056107Y-171955925D01*
X77056107Y-171955925D01*
G37*
%LPD*%
%LPC*%
G36*
X86581107Y-24000925D02*
X86622029Y-24056101D01*
X86657345Y-24115022D01*
X86686716Y-24177122D01*
X86709858Y-24241801D01*
X86726550Y-24308437D01*
X86736629Y-24376388D01*
X86736956Y-24383044D01*
X86743612Y-24383371D01*
X86811563Y-24393450D01*
X86878199Y-24410142D01*
X86942878Y-24433284D01*
X87004978Y-24462655D01*
X87063899Y-24497971D01*
X87119075Y-24538893D01*
X87169975Y-24585025D01*
X87216107Y-24635925D01*
X87257029Y-24691101D01*
X87292345Y-24750022D01*
X87321716Y-24812122D01*
X87344858Y-24876801D01*
X87361550Y-24943437D01*
X87371629Y-25011388D01*
X87375000Y-25080000D01*
X87371629Y-25148612D01*
X87361550Y-25216563D01*
X87344858Y-25283199D01*
X87321716Y-25347878D01*
X87292345Y-25409978D01*
X87257029Y-25468899D01*
X87216107Y-25524075D01*
X87169975Y-25574975D01*
X87119075Y-25621107D01*
X87063899Y-25662029D01*
X87004978Y-25697345D01*
X86942878Y-25726716D01*
X86878199Y-25749858D01*
X86811563Y-25766550D01*
X86743612Y-25776629D01*
X86675000Y-25780000D01*
X86606388Y-25776629D01*
X86538437Y-25766550D01*
X86471801Y-25749858D01*
X86407122Y-25726716D01*
X86345022Y-25697345D01*
X86286101Y-25662029D01*
X86230925Y-25621107D01*
X86180025Y-25574975D01*
X86133893Y-25524075D01*
X86092971Y-25468899D01*
X86057655Y-25409978D01*
X86028284Y-25347878D01*
X86005142Y-25283199D01*
X85988450Y-25216563D01*
X85978371Y-25148612D01*
X85978044Y-25141956D01*
X85971388Y-25141629D01*
X85903437Y-25131550D01*
X85836801Y-25114858D01*
X85772122Y-25091716D01*
X85710022Y-25062345D01*
X85651101Y-25027029D01*
X85595925Y-24986107D01*
X85545025Y-24939975D01*
X85498893Y-24889075D01*
X85457971Y-24833899D01*
X85422655Y-24774978D01*
X85393284Y-24712878D01*
X85370142Y-24648199D01*
X85353450Y-24581563D01*
X85343371Y-24513612D01*
X85340000Y-24445000D01*
X85343371Y-24376388D01*
X85353450Y-24308437D01*
X85370142Y-24241801D01*
X85393284Y-24177122D01*
X85422655Y-24115022D01*
X85457971Y-24056101D01*
X85498893Y-24000925D01*
X85545025Y-23950025D01*
X85595925Y-23903893D01*
X85651101Y-23862971D01*
X85710022Y-23827655D01*
X85772122Y-23798284D01*
X85836801Y-23775142D01*
X85903437Y-23758450D01*
X85971388Y-23748371D01*
X86040000Y-23745000D01*
X86108612Y-23748371D01*
X86176563Y-23758450D01*
X86243199Y-23775142D01*
X86307878Y-23798284D01*
X86369978Y-23827655D01*
X86428899Y-23862971D01*
X86484075Y-23903893D01*
X86534975Y-23950025D01*
X86581107Y-24000925D01*
X86581107Y-24000925D01*
G37*
%LPD*%
%LPC*%
G36*
X94201107Y-84960925D02*
X94242029Y-85016101D01*
X94277345Y-85075022D01*
X94306716Y-85137122D01*
X94329858Y-85201801D01*
X94346550Y-85268437D01*
X94356629Y-85336388D01*
X94360000Y-85405000D01*
X94356629Y-85473612D01*
X94346550Y-85541563D01*
X94329858Y-85608199D01*
X94306716Y-85672878D01*
X94277345Y-85734978D01*
X94242029Y-85793899D01*
X94201107Y-85849075D01*
X94154975Y-85899975D01*
X94110000Y-85940737D01*
X94110000Y-86040000D01*
X94107833Y-86084108D01*
X94101353Y-86127791D01*
X94090623Y-86170628D01*
X94075746Y-86212208D01*
X94056865Y-86252129D01*
X94034161Y-86290007D01*
X94007855Y-86325477D01*
X93978198Y-86358198D01*
X92708198Y-87628198D01*
X92205000Y-88131396D01*
X92205000Y-89314263D01*
X92249975Y-89355025D01*
X92296107Y-89405925D01*
X92337029Y-89461101D01*
X92372345Y-89520022D01*
X92401716Y-89582122D01*
X92424858Y-89646801D01*
X92441550Y-89713437D01*
X92451629Y-89781388D01*
X92455000Y-89850000D01*
X92451629Y-89918612D01*
X92441550Y-89986563D01*
X92424858Y-90053199D01*
X92401716Y-90117878D01*
X92372345Y-90179978D01*
X92337029Y-90238899D01*
X92296107Y-90294075D01*
X92249975Y-90344975D01*
X92199075Y-90391107D01*
X92143899Y-90432029D01*
X92084978Y-90467345D01*
X92022878Y-90496716D01*
X91958199Y-90519858D01*
X91891563Y-90536550D01*
X91823612Y-90546629D01*
X91755000Y-90550000D01*
X91686388Y-90546629D01*
X91618437Y-90536550D01*
X91551801Y-90519858D01*
X91487122Y-90496716D01*
X91425022Y-90467345D01*
X91366101Y-90432029D01*
X91310925Y-90391107D01*
X91260025Y-90344975D01*
X91213893Y-90294075D01*
X91172971Y-90238899D01*
X91137655Y-90179978D01*
X91108284Y-90117878D01*
X91085142Y-90053199D01*
X91068450Y-89986563D01*
X91058371Y-89918612D01*
X91055000Y-89850000D01*
X91058371Y-89781388D01*
X91068450Y-89713437D01*
X91085142Y-89646801D01*
X91108284Y-89582122D01*
X91137655Y-89520022D01*
X91172971Y-89461101D01*
X91213893Y-89405925D01*
X91260025Y-89355025D01*
X91305000Y-89314263D01*
X91305000Y-87945000D01*
X91307167Y-87900892D01*
X91313647Y-87857209D01*
X91324377Y-87814372D01*
X91339254Y-87772792D01*
X91358135Y-87732871D01*
X91380839Y-87694993D01*
X91407145Y-87659523D01*
X91436802Y-87626802D01*
X92071802Y-86991802D01*
X93164361Y-85899242D01*
X93118893Y-85849075D01*
X93077971Y-85793899D01*
X93042655Y-85734978D01*
X93013284Y-85672878D01*
X92990142Y-85608199D01*
X92973450Y-85541563D01*
X92963371Y-85473612D01*
X92960000Y-85405000D01*
X92963371Y-85336388D01*
X92973450Y-85268437D01*
X92990142Y-85201801D01*
X93013284Y-85137122D01*
X93042655Y-85075022D01*
X93077971Y-85016101D01*
X93118893Y-84960925D01*
X93165025Y-84910025D01*
X93215925Y-84863893D01*
X93271101Y-84822971D01*
X93330022Y-84787655D01*
X93392122Y-84758284D01*
X93456801Y-84735142D01*
X93523437Y-84718450D01*
X93591388Y-84708371D01*
X93660000Y-84705000D01*
X93728612Y-84708371D01*
X93796563Y-84718450D01*
X93863199Y-84735142D01*
X93927878Y-84758284D01*
X93989978Y-84787655D01*
X94048899Y-84822971D01*
X94104075Y-84863893D01*
X94154975Y-84910025D01*
X94201107Y-84960925D01*
X94201107Y-84960925D01*
G37*
%LPD*%
%LPC*%
G36*
X89162029Y-117401101D02*
X89197345Y-117460022D01*
X89226716Y-117522122D01*
X89249858Y-117586801D01*
X89266550Y-117653437D01*
X89276629Y-117721388D01*
X89280000Y-117790000D01*
X89276629Y-117858612D01*
X89266550Y-117926563D01*
X89249858Y-117993199D01*
X89226716Y-118057878D01*
X89197345Y-118119978D01*
X89162029Y-118178899D01*
X89121107Y-118234075D01*
X89074975Y-118284975D01*
X89030000Y-118325737D01*
X89030000Y-122683604D01*
X89533198Y-123186802D01*
X90168198Y-123821802D01*
X90803198Y-124456802D01*
X91438198Y-125091802D01*
X92073198Y-125726802D01*
X92708198Y-126361802D01*
X93343198Y-126996802D01*
X93978198Y-127631802D01*
X94613198Y-128266802D01*
X95248198Y-128901802D01*
X95883198Y-129536802D01*
X96518198Y-130171802D01*
X97153198Y-130806802D01*
X97788198Y-131441802D01*
X97817855Y-131474523D01*
X97844161Y-131509993D01*
X97866865Y-131547871D01*
X97885746Y-131587792D01*
X97900623Y-131629372D01*
X97911353Y-131672209D01*
X97917833Y-131715892D01*
X97920000Y-131760000D01*
X97920000Y-134113604D01*
X98423198Y-134616802D01*
X99058198Y-135251802D01*
X99693198Y-135886802D01*
X99722855Y-135919523D01*
X99749161Y-135954993D01*
X99771865Y-135992871D01*
X99790746Y-136032792D01*
X99805623Y-136074372D01*
X99816353Y-136117209D01*
X99822833Y-136160892D01*
X99825000Y-136205000D01*
X99825000Y-138844263D01*
X99869975Y-138885025D01*
X99916107Y-138935925D01*
X99957029Y-138991101D01*
X99992345Y-139050022D01*
X100021716Y-139112122D01*
X100044858Y-139176801D01*
X100061550Y-139243437D01*
X100071629Y-139311388D01*
X100075000Y-139380000D01*
X100071629Y-139448612D01*
X100061550Y-139516563D01*
X100044858Y-139583199D01*
X100021716Y-139647878D01*
X99992345Y-139709978D01*
X99957029Y-139768899D01*
X99916107Y-139824075D01*
X99869975Y-139874975D01*
X99819075Y-139921107D01*
X99763899Y-139962029D01*
X99704978Y-139997345D01*
X99642878Y-140026716D01*
X99578199Y-140049858D01*
X99511563Y-140066550D01*
X99443612Y-140076629D01*
X99375000Y-140080000D01*
X99306388Y-140076629D01*
X99238437Y-140066550D01*
X99171801Y-140049858D01*
X99107122Y-140026716D01*
X99045022Y-139997345D01*
X98986101Y-139962029D01*
X98930925Y-139921107D01*
X98880025Y-139874975D01*
X98833893Y-139824075D01*
X98792971Y-139768899D01*
X98757655Y-139709978D01*
X98728284Y-139647878D01*
X98705142Y-139583199D01*
X98688450Y-139516563D01*
X98678371Y-139448612D01*
X98675000Y-139380000D01*
X98678371Y-139311388D01*
X98688450Y-139243437D01*
X98705142Y-139176801D01*
X98728284Y-139112122D01*
X98757655Y-139050022D01*
X98792971Y-138991101D01*
X98833893Y-138935925D01*
X98880025Y-138885025D01*
X98925000Y-138844263D01*
X98925000Y-136391396D01*
X98421802Y-135888198D01*
X97786802Y-135253198D01*
X97151802Y-134618198D01*
X97122145Y-134585477D01*
X97095839Y-134550007D01*
X97073135Y-134512129D01*
X97054254Y-134472208D01*
X97039377Y-134430628D01*
X97028647Y-134387791D01*
X97022167Y-134344108D01*
X97020000Y-134300000D01*
X97020000Y-131946396D01*
X96516802Y-131443198D01*
X95881802Y-130808198D01*
X95246802Y-130173198D01*
X94611802Y-129538198D01*
X93976802Y-128903198D01*
X93341802Y-128268198D01*
X92706802Y-127633198D01*
X92071802Y-126998198D01*
X91436802Y-126363198D01*
X90801802Y-125728198D01*
X90166802Y-125093198D01*
X89531802Y-124458198D01*
X88896802Y-123823198D01*
X88261802Y-123188198D01*
X88232145Y-123155477D01*
X88205839Y-123120007D01*
X88183135Y-123082129D01*
X88164254Y-123042208D01*
X88149377Y-123000628D01*
X88138647Y-122957791D01*
X88132167Y-122914108D01*
X88130000Y-122870000D01*
X88130000Y-118325737D01*
X88085025Y-118284975D01*
X88038893Y-118234075D01*
X87997971Y-118178899D01*
X87962655Y-118119978D01*
X87933284Y-118057878D01*
X87910142Y-117993199D01*
X87893450Y-117926563D01*
X87883371Y-117858612D01*
X87880000Y-117790000D01*
X87883371Y-117721388D01*
X87893450Y-117653437D01*
X87910142Y-117586801D01*
X87933284Y-117522122D01*
X87962655Y-117460022D01*
X87997971Y-117401101D01*
X88038893Y-117345925D01*
X88085025Y-117295025D01*
X88135925Y-117248893D01*
X88191101Y-117207971D01*
X88250022Y-117172655D01*
X88312122Y-117143284D01*
X88376801Y-117120142D01*
X88443437Y-117103450D01*
X88511388Y-117093371D01*
X88580000Y-117090000D01*
X88648612Y-117093371D01*
X88716563Y-117103450D01*
X88783199Y-117120142D01*
X88847878Y-117143284D01*
X88909978Y-117172655D01*
X88968899Y-117207971D01*
X89024075Y-117248893D01*
X89074975Y-117295025D01*
X89121107Y-117345925D01*
X89162029Y-117401101D01*
X89162029Y-117401101D01*
G37*
%LPD*%
%LPC*%
G36*
X94201107Y-138935925D02*
X94242029Y-138991101D01*
X94277345Y-139050022D01*
X94306716Y-139112122D01*
X94329858Y-139176801D01*
X94346550Y-139243437D01*
X94356629Y-139311388D01*
X94360000Y-139380000D01*
X94356629Y-139448612D01*
X94346550Y-139516563D01*
X94329858Y-139583199D01*
X94306716Y-139647878D01*
X94277345Y-139709978D01*
X94242029Y-139768899D01*
X94201107Y-139824075D01*
X94154975Y-139874975D01*
X94110000Y-139915737D01*
X94110000Y-140015000D01*
X94107833Y-140059108D01*
X94101353Y-140102791D01*
X94090623Y-140145628D01*
X94075746Y-140187208D01*
X94056865Y-140227129D01*
X94034161Y-140265007D01*
X94007855Y-140300477D01*
X93978198Y-140333198D01*
X93343198Y-140968198D01*
X92205000Y-142106396D01*
X92205000Y-143289263D01*
X92249975Y-143330025D01*
X92296107Y-143380925D01*
X92337029Y-143436101D01*
X92372345Y-143495022D01*
X92401716Y-143557122D01*
X92424858Y-143621801D01*
X92441550Y-143688437D01*
X92451629Y-143756388D01*
X92455000Y-143825000D01*
X92451629Y-143893612D01*
X92441550Y-143961563D01*
X92424858Y-144028199D01*
X92401716Y-144092878D01*
X92372345Y-144154978D01*
X92337029Y-144213899D01*
X92296107Y-144269075D01*
X92249975Y-144319975D01*
X92199075Y-144366107D01*
X92143899Y-144407029D01*
X92084978Y-144442345D01*
X92022878Y-144471716D01*
X91958199Y-144494858D01*
X91891563Y-144511550D01*
X91823612Y-144521629D01*
X91755000Y-144525000D01*
X91686388Y-144521629D01*
X91618437Y-144511550D01*
X91551801Y-144494858D01*
X91487122Y-144471716D01*
X91425022Y-144442345D01*
X91366101Y-144407029D01*
X91310925Y-144366107D01*
X91260025Y-144319975D01*
X91213893Y-144269075D01*
X91172971Y-144213899D01*
X91137655Y-144154978D01*
X91108284Y-144092878D01*
X91085142Y-144028199D01*
X91068450Y-143961563D01*
X91058371Y-143893612D01*
X91055000Y-143825000D01*
X91058371Y-143756388D01*
X91068450Y-143688437D01*
X91085142Y-143621801D01*
X91108284Y-143557122D01*
X91137655Y-143495022D01*
X91172971Y-143436101D01*
X91213893Y-143380925D01*
X91260025Y-143330025D01*
X91305000Y-143289263D01*
X91305000Y-141920000D01*
X91307167Y-141875892D01*
X91313647Y-141832209D01*
X91324377Y-141789372D01*
X91339254Y-141747792D01*
X91358135Y-141707871D01*
X91380839Y-141669993D01*
X91407145Y-141634523D01*
X91436802Y-141601802D01*
X92706802Y-140331802D01*
X93164361Y-139874242D01*
X93118893Y-139824075D01*
X93077971Y-139768899D01*
X93042655Y-139709978D01*
X93013284Y-139647878D01*
X92990142Y-139583199D01*
X92973450Y-139516563D01*
X92963371Y-139448612D01*
X92960000Y-139380000D01*
X92963371Y-139311388D01*
X92973450Y-139243437D01*
X92990142Y-139176801D01*
X93013284Y-139112122D01*
X93042655Y-139050022D01*
X93077971Y-138991101D01*
X93118893Y-138935925D01*
X93165025Y-138885025D01*
X93215925Y-138838893D01*
X93271101Y-138797971D01*
X93330022Y-138762655D01*
X93392122Y-138733284D01*
X93456801Y-138710142D01*
X93523437Y-138693450D01*
X93591388Y-138683371D01*
X93660000Y-138680000D01*
X93728612Y-138683371D01*
X93796563Y-138693450D01*
X93863199Y-138710142D01*
X93927878Y-138733284D01*
X93989978Y-138762655D01*
X94048899Y-138797971D01*
X94104075Y-138838893D01*
X94154975Y-138885025D01*
X94201107Y-138935925D01*
X94201107Y-138935925D01*
G37*
%LPD*%
%LPC*%
G36*
X91120000Y-154555000D02*
X91180626Y-154557978D01*
X91436802Y-154301802D01*
X92071802Y-153666802D01*
X92706802Y-153031802D01*
X93341802Y-152396802D01*
X93976802Y-151761802D01*
X94611802Y-151126802D01*
X95246802Y-150491802D01*
X95881802Y-149856802D01*
X96516802Y-149221802D01*
X97786802Y-147951802D01*
X98421802Y-147316802D01*
X99691802Y-146046802D01*
X100326802Y-145411802D01*
X101596802Y-144141802D01*
X102231802Y-143506802D01*
X102866802Y-142871802D01*
X103501802Y-142236802D01*
X104136802Y-141601802D01*
X104771802Y-140966802D01*
X105275000Y-140463604D01*
X105275000Y-123505000D01*
X105277167Y-123460892D01*
X105283647Y-123417209D01*
X105294377Y-123374372D01*
X105309254Y-123332792D01*
X105328135Y-123292871D01*
X105350839Y-123254993D01*
X105377145Y-123219523D01*
X105406802Y-123186802D01*
X106041802Y-122551802D01*
X106676802Y-121916802D01*
X107311802Y-121281802D01*
X107946802Y-120646802D01*
X108581802Y-120011802D01*
X109216802Y-119376802D01*
X109851802Y-118741802D01*
X110990000Y-117603604D01*
X110990000Y-116782077D01*
X110967345Y-116829978D01*
X110932029Y-116888899D01*
X110891107Y-116944075D01*
X110844975Y-116994975D01*
X110794075Y-117041107D01*
X110738899Y-117082029D01*
X110679978Y-117117345D01*
X110617878Y-117146716D01*
X110553199Y-117169858D01*
X110486563Y-117186550D01*
X110418612Y-117196629D01*
X110350000Y-117200000D01*
X110281388Y-117196629D01*
X110213437Y-117186550D01*
X110146801Y-117169858D01*
X110082122Y-117146716D01*
X110020022Y-117117345D01*
X109961101Y-117082029D01*
X109905925Y-117041107D01*
X109855025Y-116994975D01*
X109814263Y-116950000D01*
X104935737Y-116950000D01*
X104894975Y-116994975D01*
X104844075Y-117041107D01*
X104788899Y-117082029D01*
X104729978Y-117117345D01*
X104667878Y-117146716D01*
X104603199Y-117169858D01*
X104536563Y-117186550D01*
X104468612Y-117196629D01*
X104400000Y-117200000D01*
X104331388Y-117196629D01*
X104263437Y-117186550D01*
X104196801Y-117169858D01*
X104132122Y-117146716D01*
X104070022Y-117117345D01*
X104011101Y-117082029D01*
X103955925Y-117041107D01*
X103905025Y-116994975D01*
X103858893Y-116944075D01*
X103817971Y-116888899D01*
X103782655Y-116829978D01*
X103753284Y-116767878D01*
X103730142Y-116703199D01*
X103713450Y-116636563D01*
X103703371Y-116568612D01*
X103700000Y-116500000D01*
X103703371Y-116431388D01*
X103703997Y-116427168D01*
X103493966Y-116195362D01*
X102866802Y-115568198D01*
X102231802Y-114933198D01*
X102202145Y-114900477D01*
X102175839Y-114865007D01*
X102153135Y-114827129D01*
X102134254Y-114787208D01*
X102119377Y-114745628D01*
X102108647Y-114702791D01*
X102102167Y-114659108D01*
X102100000Y-114615000D01*
X102100000Y-114430000D01*
X101280000Y-114430000D01*
X101235892Y-114427833D01*
X101192209Y-114421353D01*
X101149372Y-114410623D01*
X101107792Y-114395746D01*
X101067871Y-114376865D01*
X101029993Y-114354161D01*
X100994523Y-114327855D01*
X100961802Y-114298198D01*
X100705626Y-114042022D01*
X100645000Y-114045000D01*
X100576388Y-114041629D01*
X100508437Y-114031550D01*
X100441801Y-114014858D01*
X100377122Y-113991716D01*
X100315022Y-113962345D01*
X100256101Y-113927029D01*
X100200925Y-113886107D01*
X100150025Y-113839975D01*
X100103893Y-113789075D01*
X100062971Y-113733899D01*
X100027655Y-113674978D01*
X99998284Y-113612878D01*
X99975142Y-113548199D01*
X99958450Y-113481563D01*
X99948371Y-113413612D01*
X99945000Y-113345000D01*
X99948371Y-113276388D01*
X99958450Y-113208437D01*
X99975142Y-113141801D01*
X99998284Y-113077122D01*
X100027655Y-113015022D01*
X100062971Y-112956101D01*
X100103893Y-112900925D01*
X100150025Y-112850025D01*
X100200925Y-112803893D01*
X100256101Y-112762971D01*
X100315022Y-112727655D01*
X100377122Y-112698284D01*
X100441801Y-112675142D01*
X100508437Y-112658450D01*
X100576388Y-112648371D01*
X100645000Y-112645000D01*
X100713612Y-112648371D01*
X100781563Y-112658450D01*
X100848199Y-112675142D01*
X100912878Y-112698284D01*
X100974978Y-112727655D01*
X101033899Y-112762971D01*
X101089075Y-112803893D01*
X101139975Y-112850025D01*
X101186107Y-112900925D01*
X101227029Y-112956101D01*
X101262345Y-113015022D01*
X101291716Y-113077122D01*
X101314858Y-113141801D01*
X101331550Y-113208437D01*
X101341629Y-113276388D01*
X101345000Y-113345000D01*
X101342022Y-113405626D01*
X101466396Y-113530000D01*
X102550000Y-113530000D01*
X102594108Y-113532167D01*
X102637791Y-113538647D01*
X102680628Y-113549377D01*
X102722208Y-113564254D01*
X102762129Y-113583135D01*
X102800007Y-113605839D01*
X102835477Y-113632145D01*
X102868198Y-113661802D01*
X102897855Y-113694523D01*
X102924161Y-113729993D01*
X102946865Y-113767871D01*
X102965746Y-113807792D01*
X102980623Y-113849372D01*
X102991353Y-113892209D01*
X102997833Y-113935892D01*
X103000000Y-113980000D01*
X103000000Y-114428604D01*
X103503198Y-114931802D01*
X104138198Y-115566802D01*
X104153476Y-115582851D01*
X104352347Y-115802341D01*
X104400000Y-115800000D01*
X104468612Y-115803371D01*
X104536563Y-115813450D01*
X104603199Y-115830142D01*
X104667878Y-115853284D01*
X104729978Y-115882655D01*
X104788899Y-115917971D01*
X104844075Y-115958893D01*
X104894975Y-116005025D01*
X104935737Y-116050000D01*
X109814263Y-116050000D01*
X109855025Y-116005025D01*
X109905925Y-115958893D01*
X109961101Y-115917971D01*
X110020022Y-115882655D01*
X110082122Y-115853284D01*
X110146801Y-115830142D01*
X110213437Y-115813450D01*
X110281388Y-115803371D01*
X110350000Y-115800000D01*
X110418612Y-115803371D01*
X110486563Y-115813450D01*
X110553199Y-115830142D01*
X110617878Y-115853284D01*
X110679978Y-115882655D01*
X110738899Y-115917971D01*
X110794075Y-115958893D01*
X110844975Y-116005025D01*
X110891107Y-116055925D01*
X110932029Y-116111101D01*
X110967345Y-116170022D01*
X110990000Y-116217923D01*
X110990000Y-115436396D01*
X110618604Y-115065000D01*
X105725000Y-115065000D01*
X105680892Y-115062833D01*
X105637209Y-115056353D01*
X105594372Y-115045623D01*
X105552792Y-115030746D01*
X105512871Y-115011865D01*
X105474993Y-114989161D01*
X105439523Y-114962855D01*
X105406802Y-114933198D01*
X105377145Y-114900477D01*
X105350839Y-114865007D01*
X105328135Y-114827129D01*
X105309254Y-114787208D01*
X105294377Y-114745628D01*
X105283647Y-114702791D01*
X105277167Y-114659108D01*
X105275000Y-114615000D01*
X105275000Y-112075000D01*
X105277167Y-112030892D01*
X105283647Y-111987209D01*
X105294377Y-111944372D01*
X105309254Y-111902792D01*
X105328135Y-111862871D01*
X105350839Y-111824993D01*
X105377145Y-111789523D01*
X105406802Y-111756802D01*
X106041802Y-111121802D01*
X106676802Y-110486802D01*
X107180000Y-109983604D01*
X107180000Y-94295000D01*
X107182167Y-94250892D01*
X107188647Y-94207209D01*
X107199377Y-94164372D01*
X107214254Y-94122792D01*
X107233135Y-94082871D01*
X107255839Y-94044993D01*
X107282145Y-94009523D01*
X107311802Y-93976802D01*
X107815000Y-93473604D01*
X107815000Y-39685000D01*
X107817167Y-39640892D01*
X107823647Y-39597209D01*
X107834377Y-39554372D01*
X107849254Y-39512792D01*
X107868135Y-39472871D01*
X107890839Y-39434993D01*
X107917145Y-39399523D01*
X107946802Y-39366802D01*
X108581802Y-38731802D01*
X109085000Y-38228604D01*
X109085000Y-36510000D01*
X109087167Y-36465892D01*
X109093647Y-36422209D01*
X109104377Y-36379372D01*
X109119254Y-36337792D01*
X109138135Y-36297871D01*
X109160839Y-36259993D01*
X109187145Y-36224523D01*
X109216802Y-36191802D01*
X110107978Y-35300626D01*
X110105000Y-35240000D01*
X110108371Y-35171388D01*
X110118450Y-35103437D01*
X110135142Y-35036801D01*
X110158284Y-34972122D01*
X110187655Y-34910022D01*
X110222971Y-34851101D01*
X110263893Y-34795925D01*
X110310025Y-34745025D01*
X110360925Y-34698893D01*
X110416101Y-34657971D01*
X110475022Y-34622655D01*
X110537122Y-34593284D01*
X110601801Y-34570142D01*
X110668437Y-34553450D01*
X110736388Y-34543371D01*
X110805000Y-34540000D01*
X110873612Y-34543371D01*
X110941563Y-34553450D01*
X111008199Y-34570142D01*
X111072878Y-34593284D01*
X111134978Y-34622655D01*
X111193899Y-34657971D01*
X111249075Y-34698893D01*
X111299975Y-34745025D01*
X111346107Y-34795925D01*
X111387029Y-34851101D01*
X111422345Y-34910022D01*
X111451716Y-34972122D01*
X111474858Y-35036801D01*
X111491550Y-35103437D01*
X111501629Y-35171388D01*
X111505000Y-35240000D01*
X111501629Y-35308612D01*
X111491550Y-35376563D01*
X111474858Y-35443199D01*
X111451716Y-35507878D01*
X111422345Y-35569978D01*
X111387029Y-35628899D01*
X111346107Y-35684075D01*
X111299975Y-35734975D01*
X111249075Y-35781107D01*
X111193899Y-35822029D01*
X111134978Y-35857345D01*
X111072878Y-35886716D01*
X111008199Y-35909858D01*
X110941563Y-35926550D01*
X110873612Y-35936629D01*
X110805000Y-35940000D01*
X110744374Y-35937022D01*
X109985000Y-36696396D01*
X109985000Y-38415000D01*
X109982833Y-38459108D01*
X109976353Y-38502791D01*
X109965623Y-38545628D01*
X109950746Y-38587208D01*
X109931865Y-38627129D01*
X109909161Y-38665007D01*
X109882855Y-38700477D01*
X109853198Y-38733198D01*
X109218198Y-39368198D01*
X108715000Y-39871396D01*
X108715000Y-93660000D01*
X108712833Y-93704108D01*
X108706353Y-93747791D01*
X108695623Y-93790628D01*
X108680746Y-93832208D01*
X108661865Y-93872129D01*
X108639161Y-93910007D01*
X108612855Y-93945477D01*
X108583198Y-93978198D01*
X108080000Y-94481396D01*
X108080000Y-110170000D01*
X108077833Y-110214108D01*
X108071353Y-110257791D01*
X108060623Y-110300628D01*
X108045746Y-110342208D01*
X108026865Y-110382129D01*
X108004161Y-110420007D01*
X107977855Y-110455477D01*
X107948198Y-110488198D01*
X107313198Y-111123198D01*
X106678198Y-111758198D01*
X106175000Y-112261396D01*
X106175000Y-114165000D01*
X110805000Y-114165000D01*
X110849108Y-114167167D01*
X110892791Y-114173647D01*
X110935628Y-114184377D01*
X110977208Y-114199254D01*
X111017129Y-114218135D01*
X111055007Y-114240839D01*
X111090477Y-114267145D01*
X111123198Y-114296802D01*
X111758198Y-114931802D01*
X111787855Y-114964523D01*
X111814161Y-114999993D01*
X111836865Y-115037871D01*
X111855746Y-115077792D01*
X111870623Y-115119372D01*
X111881353Y-115162209D01*
X111887833Y-115205892D01*
X111890000Y-115250000D01*
X111890000Y-117790000D01*
X111887833Y-117834108D01*
X111881353Y-117877791D01*
X111870623Y-117920628D01*
X111855746Y-117962208D01*
X111836865Y-118002129D01*
X111814161Y-118040007D01*
X111787855Y-118075477D01*
X111758198Y-118108198D01*
X110488198Y-119378198D01*
X109853198Y-120013198D01*
X109218198Y-120648198D01*
X108583198Y-121283198D01*
X107948198Y-121918198D01*
X107313198Y-122553198D01*
X106678198Y-123188198D01*
X106175000Y-123691396D01*
X106175000Y-140650000D01*
X106172833Y-140694108D01*
X106166353Y-140737791D01*
X106155623Y-140780628D01*
X106140746Y-140822208D01*
X106121865Y-140862129D01*
X106099161Y-140900007D01*
X106072855Y-140935477D01*
X106043198Y-140968198D01*
X105408198Y-141603198D01*
X104773198Y-142238198D01*
X104138198Y-142873198D01*
X103503198Y-143508198D01*
X102868198Y-144143198D01*
X102233198Y-144778198D01*
X100963198Y-146048198D01*
X100328198Y-146683198D01*
X99058198Y-147953198D01*
X98423198Y-148588198D01*
X97153198Y-149858198D01*
X96518198Y-150493198D01*
X95883198Y-151128198D01*
X95248198Y-151763198D01*
X94613198Y-152398198D01*
X93978198Y-153033198D01*
X93343198Y-153668198D01*
X92708198Y-154303198D01*
X92073198Y-154938198D01*
X91817022Y-155194374D01*
X91820000Y-155255000D01*
X91816629Y-155323612D01*
X91806550Y-155391563D01*
X91789858Y-155458199D01*
X91766716Y-155522878D01*
X91737345Y-155584978D01*
X91702029Y-155643899D01*
X91661107Y-155699075D01*
X91614975Y-155749975D01*
X91564075Y-155796107D01*
X91508899Y-155837029D01*
X91449978Y-155872345D01*
X91387878Y-155901716D01*
X91323199Y-155924858D01*
X91256563Y-155941550D01*
X91188612Y-155951629D01*
X91120000Y-155955000D01*
X91051388Y-155951629D01*
X90983437Y-155941550D01*
X90916801Y-155924858D01*
X90852122Y-155901716D01*
X90790022Y-155872345D01*
X90731101Y-155837029D01*
X90675925Y-155796107D01*
X90625025Y-155749975D01*
X90578893Y-155699075D01*
X90537971Y-155643899D01*
X90502655Y-155584978D01*
X90473284Y-155522878D01*
X90450142Y-155458199D01*
X90433450Y-155391563D01*
X90423371Y-155323612D01*
X90420000Y-155255000D01*
X90423371Y-155186388D01*
X90433450Y-155118437D01*
X90450142Y-155051801D01*
X90473284Y-154987122D01*
X90502655Y-154925022D01*
X90537971Y-154866101D01*
X90578893Y-154810925D01*
X90625025Y-154760025D01*
X90675925Y-154713893D01*
X90731101Y-154672971D01*
X90790022Y-154637655D01*
X90852122Y-154608284D01*
X90916801Y-154585142D01*
X90983437Y-154568450D01*
X91051388Y-154558371D01*
X91120000Y-154555000D01*
X91120000Y-154555000D01*
G37*
%LPD*%
%LPC*%
G36*
X101227029Y-166296101D02*
X101262345Y-166355022D01*
X101291716Y-166417122D01*
X101314858Y-166481801D01*
X101331550Y-166548437D01*
X101341629Y-166616388D01*
X101345000Y-166685000D01*
X101342022Y-166745626D01*
X101598198Y-167001802D01*
X102233198Y-167636802D01*
X102736396Y-168140000D01*
X103284263Y-168140000D01*
X103325025Y-168095025D01*
X103375925Y-168048893D01*
X103431101Y-168007971D01*
X103490022Y-167972655D01*
X103552122Y-167943284D01*
X103616801Y-167920142D01*
X103683437Y-167903450D01*
X103751388Y-167893371D01*
X103820000Y-167890000D01*
X103888612Y-167893371D01*
X103956563Y-167903450D01*
X104023199Y-167920142D01*
X104087878Y-167943284D01*
X104149978Y-167972655D01*
X104208899Y-168007971D01*
X104264075Y-168048893D01*
X104314975Y-168095025D01*
X104361107Y-168145925D01*
X104402029Y-168201101D01*
X104437345Y-168260022D01*
X104466716Y-168322122D01*
X104489858Y-168386801D01*
X104506550Y-168453437D01*
X104516629Y-168521388D01*
X104520000Y-168590000D01*
X104516629Y-168658612D01*
X104506550Y-168726563D01*
X104489858Y-168793199D01*
X104466716Y-168857878D01*
X104437345Y-168919978D01*
X104402029Y-168978899D01*
X104361107Y-169034075D01*
X104314975Y-169084975D01*
X104264075Y-169131107D01*
X104208899Y-169172029D01*
X104149978Y-169207345D01*
X104087878Y-169236716D01*
X104023199Y-169259858D01*
X103956563Y-169276550D01*
X103888612Y-169286629D01*
X103820000Y-169290000D01*
X103751388Y-169286629D01*
X103683437Y-169276550D01*
X103616801Y-169259858D01*
X103552122Y-169236716D01*
X103490022Y-169207345D01*
X103431101Y-169172029D01*
X103375925Y-169131107D01*
X103325025Y-169084975D01*
X103284263Y-169040000D01*
X102550000Y-169040000D01*
X102505892Y-169037833D01*
X102462209Y-169031353D01*
X102419372Y-169020623D01*
X102377792Y-169005746D01*
X102337871Y-168986865D01*
X102299993Y-168964161D01*
X102264523Y-168937855D01*
X102231802Y-168908198D01*
X101596802Y-168273198D01*
X100961802Y-167638198D01*
X100705626Y-167382022D01*
X100645000Y-167385000D01*
X100576388Y-167381629D01*
X100508437Y-167371550D01*
X100441801Y-167354858D01*
X100377122Y-167331716D01*
X100315022Y-167302345D01*
X100256101Y-167267029D01*
X100200925Y-167226107D01*
X100150025Y-167179975D01*
X100103893Y-167129075D01*
X100062971Y-167073899D01*
X100027655Y-167014978D01*
X99998284Y-166952878D01*
X99975142Y-166888199D01*
X99958450Y-166821563D01*
X99948371Y-166753612D01*
X99945000Y-166685000D01*
X99948371Y-166616388D01*
X99958450Y-166548437D01*
X99975142Y-166481801D01*
X99998284Y-166417122D01*
X100027655Y-166355022D01*
X100062971Y-166296101D01*
X100103893Y-166240925D01*
X100150025Y-166190025D01*
X100200925Y-166143893D01*
X100256101Y-166102971D01*
X100315022Y-166067655D01*
X100377122Y-166038284D01*
X100441801Y-166015142D01*
X100508437Y-165998450D01*
X100576388Y-165988371D01*
X100645000Y-165985000D01*
X100713612Y-165988371D01*
X100781563Y-165998450D01*
X100848199Y-166015142D01*
X100912878Y-166038284D01*
X100974978Y-166067655D01*
X101033899Y-166102971D01*
X101089075Y-166143893D01*
X101139975Y-166190025D01*
X101186107Y-166240925D01*
X101227029Y-166296101D01*
X101227029Y-166296101D01*
G37*
%LPD*%
%LPC*%
G36*
X94201107Y-192910925D02*
X94242029Y-192966101D01*
X94277345Y-193025022D01*
X94306716Y-193087122D01*
X94329858Y-193151801D01*
X94346550Y-193218437D01*
X94356629Y-193286388D01*
X94360000Y-193355000D01*
X94356629Y-193423612D01*
X94346550Y-193491563D01*
X94329858Y-193558199D01*
X94306716Y-193622878D01*
X94277345Y-193684978D01*
X94242029Y-193743899D01*
X94201107Y-193799075D01*
X94154975Y-193849975D01*
X94110000Y-193890737D01*
X94110000Y-193990000D01*
X94107833Y-194034108D01*
X94101353Y-194077791D01*
X94090623Y-194120628D01*
X94075746Y-194162208D01*
X94056865Y-194202129D01*
X94034161Y-194240007D01*
X94007855Y-194275477D01*
X93978198Y-194308198D01*
X93343198Y-194943198D01*
X92708198Y-195578198D01*
X92205000Y-196081396D01*
X92205000Y-197264263D01*
X92249975Y-197305025D01*
X92296107Y-197355925D01*
X92337029Y-197411101D01*
X92372345Y-197470022D01*
X92401716Y-197532122D01*
X92424858Y-197596801D01*
X92441550Y-197663437D01*
X92451629Y-197731388D01*
X92455000Y-197800000D01*
X92451629Y-197868612D01*
X92441550Y-197936563D01*
X92424858Y-198003199D01*
X92401716Y-198067878D01*
X92372345Y-198129978D01*
X92337029Y-198188899D01*
X92296107Y-198244075D01*
X92249975Y-198294975D01*
X92199075Y-198341107D01*
X92143899Y-198382029D01*
X92084978Y-198417345D01*
X92022878Y-198446716D01*
X91958199Y-198469858D01*
X91891563Y-198486550D01*
X91823612Y-198496629D01*
X91755000Y-198500000D01*
X91686388Y-198496629D01*
X91618437Y-198486550D01*
X91551801Y-198469858D01*
X91487122Y-198446716D01*
X91425022Y-198417345D01*
X91366101Y-198382029D01*
X91310925Y-198341107D01*
X91260025Y-198294975D01*
X91213893Y-198244075D01*
X91172971Y-198188899D01*
X91137655Y-198129978D01*
X91108284Y-198067878D01*
X91085142Y-198003199D01*
X91068450Y-197936563D01*
X91058371Y-197868612D01*
X91055000Y-197800000D01*
X91058371Y-197731388D01*
X91068450Y-197663437D01*
X91085142Y-197596801D01*
X91108284Y-197532122D01*
X91137655Y-197470022D01*
X91172971Y-197411101D01*
X91213893Y-197355925D01*
X91260025Y-197305025D01*
X91305000Y-197264263D01*
X91305000Y-195895000D01*
X91307167Y-195850892D01*
X91313647Y-195807209D01*
X91324377Y-195764372D01*
X91339254Y-195722792D01*
X91358135Y-195682871D01*
X91380839Y-195644993D01*
X91407145Y-195609523D01*
X91436802Y-195576802D01*
X92071802Y-194941802D01*
X92706802Y-194306802D01*
X93164361Y-193849242D01*
X93118893Y-193799075D01*
X93077971Y-193743899D01*
X93042655Y-193684978D01*
X93013284Y-193622878D01*
X92990142Y-193558199D01*
X92973450Y-193491563D01*
X92963371Y-193423612D01*
X92960000Y-193355000D01*
X92963371Y-193286388D01*
X92973450Y-193218437D01*
X92990142Y-193151801D01*
X93013284Y-193087122D01*
X93042655Y-193025022D01*
X93077971Y-192966101D01*
X93118893Y-192910925D01*
X93165025Y-192860025D01*
X93215925Y-192813893D01*
X93271101Y-192772971D01*
X93330022Y-192737655D01*
X93392122Y-192708284D01*
X93456801Y-192685142D01*
X93523437Y-192668450D01*
X93591388Y-192658371D01*
X93660000Y-192655000D01*
X93728612Y-192658371D01*
X93796563Y-192668450D01*
X93863199Y-192685142D01*
X93927878Y-192708284D01*
X93989978Y-192737655D01*
X94048899Y-192772971D01*
X94104075Y-192813893D01*
X94154975Y-192860025D01*
X94201107Y-192910925D01*
X94201107Y-192910925D01*
G37*
%LPD*%
%LPC*%
G36*
X96741107Y-211960925D02*
X96782029Y-212016101D01*
X96817345Y-212075022D01*
X96846716Y-212137122D01*
X96869858Y-212201801D01*
X96886550Y-212268437D01*
X96896629Y-212336388D01*
X96900000Y-212405000D01*
X96896629Y-212473612D01*
X96886550Y-212541563D01*
X96869858Y-212608199D01*
X96846716Y-212672878D01*
X96817345Y-212734978D01*
X96782029Y-212793899D01*
X96741107Y-212849075D01*
X96694975Y-212899975D01*
X96650000Y-212940737D01*
X96650000Y-213350000D01*
X97500000Y-213350000D01*
X97500000Y-215650000D01*
X95200000Y-215650000D01*
X95200000Y-213350000D01*
X95750000Y-213350000D01*
X95750000Y-212940737D01*
X95705025Y-212899975D01*
X95658893Y-212849075D01*
X95617971Y-212793899D01*
X95582655Y-212734978D01*
X95553284Y-212672878D01*
X95530142Y-212608199D01*
X95513450Y-212541563D01*
X95503371Y-212473612D01*
X95500000Y-212405000D01*
X95503371Y-212336388D01*
X95513450Y-212268437D01*
X95530142Y-212201801D01*
X95553284Y-212137122D01*
X95582655Y-212075022D01*
X95617971Y-212016101D01*
X95658893Y-211960925D01*
X95705025Y-211910025D01*
X95755925Y-211863893D01*
X95811101Y-211822971D01*
X95870022Y-211787655D01*
X95932122Y-211758284D01*
X95996801Y-211735142D01*
X96063437Y-211718450D01*
X96131388Y-211708371D01*
X96200000Y-211705000D01*
X96268612Y-211708371D01*
X96336563Y-211718450D01*
X96403199Y-211735142D01*
X96467878Y-211758284D01*
X96529978Y-211787655D01*
X96588899Y-211822971D01*
X96644075Y-211863893D01*
X96694975Y-211910025D01*
X96741107Y-211960925D01*
X96741107Y-211960925D01*
G37*
%LPD*%
%LPC*%
G36*
X90432029Y-212651101D02*
X90467345Y-212710022D01*
X90496716Y-212772122D01*
X90519858Y-212836801D01*
X90536550Y-212903437D01*
X90546629Y-212971388D01*
X90550000Y-213040000D01*
X90546629Y-213108612D01*
X90536550Y-213176563D01*
X90519858Y-213243199D01*
X90496716Y-213307878D01*
X90476794Y-213350000D01*
X91500000Y-213350000D01*
X91500000Y-215650000D01*
X89200000Y-215650000D01*
X89200000Y-213350000D01*
X89223206Y-213350000D01*
X89203284Y-213307878D01*
X89180142Y-213243199D01*
X89163450Y-213176563D01*
X89153371Y-213108612D01*
X89150000Y-213040000D01*
X89153371Y-212971388D01*
X89163450Y-212903437D01*
X89180142Y-212836801D01*
X89203284Y-212772122D01*
X89232655Y-212710022D01*
X89267971Y-212651101D01*
X89308893Y-212595925D01*
X89355025Y-212545025D01*
X89405925Y-212498893D01*
X89461101Y-212457971D01*
X89520022Y-212422655D01*
X89582122Y-212393284D01*
X89646801Y-212370142D01*
X89713437Y-212353450D01*
X89781388Y-212343371D01*
X89850000Y-212340000D01*
X89918612Y-212343371D01*
X89986563Y-212353450D01*
X90053199Y-212370142D01*
X90117878Y-212393284D01*
X90179978Y-212422655D01*
X90238899Y-212457971D01*
X90294075Y-212498893D01*
X90344975Y-212545025D01*
X90391107Y-212595925D01*
X90432029Y-212651101D01*
X90432029Y-212651101D01*
G37*
%LPD*%
%LPC*%
G36*
X96932278Y-218258673D02*
X96902572Y-218225996D01*
X96876213Y-218190565D01*
X96875873Y-218190000D01*
X95200000Y-218190000D01*
X95200000Y-215890000D01*
X97500000Y-215890000D01*
X97500000Y-217565874D01*
X97534957Y-217591719D01*
X97754957Y-217771719D01*
X97788198Y-217801802D01*
X98423198Y-218436802D01*
X99058198Y-219071802D01*
X99693198Y-219706802D01*
X99949374Y-219962978D01*
X100010000Y-219960000D01*
X100078612Y-219963371D01*
X100146563Y-219973450D01*
X100213199Y-219990142D01*
X100277878Y-220013284D01*
X100339978Y-220042655D01*
X100398899Y-220077971D01*
X100454075Y-220118893D01*
X100504975Y-220165025D01*
X100551107Y-220215925D01*
X100592029Y-220271101D01*
X100627345Y-220330022D01*
X100656716Y-220392122D01*
X100679858Y-220456801D01*
X100696550Y-220523437D01*
X100706629Y-220591388D01*
X100710000Y-220660000D01*
X100706629Y-220728612D01*
X100696550Y-220796563D01*
X100679858Y-220863199D01*
X100656716Y-220927878D01*
X100627345Y-220989978D01*
X100592029Y-221048899D01*
X100551107Y-221104075D01*
X100504975Y-221154975D01*
X100454075Y-221201107D01*
X100398899Y-221242029D01*
X100339978Y-221277345D01*
X100277878Y-221306716D01*
X100213199Y-221329858D01*
X100146563Y-221346550D01*
X100078612Y-221356629D01*
X100010000Y-221360000D01*
X99941388Y-221356629D01*
X99873437Y-221346550D01*
X99806801Y-221329858D01*
X99742122Y-221306716D01*
X99680022Y-221277345D01*
X99621101Y-221242029D01*
X99565925Y-221201107D01*
X99515025Y-221154975D01*
X99468893Y-221104075D01*
X99427971Y-221048899D01*
X99392655Y-220989978D01*
X99363284Y-220927878D01*
X99340142Y-220863199D01*
X99323450Y-220796563D01*
X99313371Y-220728612D01*
X99310000Y-220660000D01*
X99312978Y-220599374D01*
X99056802Y-220343198D01*
X98421802Y-219708198D01*
X97786802Y-219073198D01*
X97167672Y-218454068D01*
X96965043Y-218288281D01*
X96932278Y-218258673D01*
X96932278Y-218258673D01*
G37*
%LPD*%
%LPC*%
G36*
X89200000Y-218190000D02*
X89200000Y-215890000D01*
X91500000Y-215890000D01*
X91500000Y-218190000D01*
X89200000Y-218190000D01*
X89200000Y-218190000D01*
G37*
%LPD*%
%LPC*%
G36*
X118966107Y-34795925D02*
X119007029Y-34851101D01*
X119042345Y-34910022D01*
X119071716Y-34972122D01*
X119094858Y-35036801D01*
X119111550Y-35103437D01*
X119121629Y-35171388D01*
X119125000Y-35240000D01*
X119121629Y-35308612D01*
X119111550Y-35376563D01*
X119094858Y-35443199D01*
X119071716Y-35507878D01*
X119042345Y-35569978D01*
X119007029Y-35628899D01*
X118966107Y-35684075D01*
X118920639Y-35734242D01*
X119246396Y-36060000D01*
X119850000Y-36060000D01*
X119850000Y-35890000D01*
X122150000Y-35890000D01*
X122150000Y-38190000D01*
X119850000Y-38190000D01*
X119850000Y-36960000D01*
X119060000Y-36960000D01*
X119015892Y-36957833D01*
X118972209Y-36951353D01*
X118929372Y-36940623D01*
X118887792Y-36925746D01*
X118847871Y-36906865D01*
X118809993Y-36884161D01*
X118774523Y-36857855D01*
X118741802Y-36828198D01*
X118106802Y-36193198D01*
X118077145Y-36160477D01*
X118050839Y-36125007D01*
X118028135Y-36087129D01*
X118009254Y-36047208D01*
X117994377Y-36005628D01*
X117983647Y-35962791D01*
X117977167Y-35919108D01*
X117975000Y-35875000D01*
X117975000Y-35775737D01*
X117930025Y-35734975D01*
X117883893Y-35684075D01*
X117842971Y-35628899D01*
X117807655Y-35569978D01*
X117778284Y-35507878D01*
X117755142Y-35443199D01*
X117738450Y-35376563D01*
X117728371Y-35308612D01*
X117725000Y-35240000D01*
X117728371Y-35171388D01*
X117738450Y-35103437D01*
X117755142Y-35036801D01*
X117778284Y-34972122D01*
X117807655Y-34910022D01*
X117842971Y-34851101D01*
X117883893Y-34795925D01*
X117930025Y-34745025D01*
X117980925Y-34698893D01*
X118036101Y-34657971D01*
X118095022Y-34622655D01*
X118157122Y-34593284D01*
X118221801Y-34570142D01*
X118288437Y-34553450D01*
X118356388Y-34543371D01*
X118425000Y-34540000D01*
X118493612Y-34543371D01*
X118561563Y-34553450D01*
X118628199Y-34570142D01*
X118692878Y-34593284D01*
X118754978Y-34622655D01*
X118813899Y-34657971D01*
X118869075Y-34698893D01*
X118919975Y-34745025D01*
X118966107Y-34795925D01*
X118966107Y-34795925D01*
G37*
%LPD*%
%LPC*%
G36*
X118331107Y-37970925D02*
X118372029Y-38026101D01*
X118407345Y-38085022D01*
X118436716Y-38147122D01*
X118459858Y-38211801D01*
X118476550Y-38278437D01*
X118486629Y-38346388D01*
X118490000Y-38415000D01*
X118487022Y-38475626D01*
X118611396Y-38600000D01*
X119850000Y-38600000D01*
X119850000Y-38430000D01*
X122150000Y-38430000D01*
X122150000Y-40730000D01*
X119850000Y-40730000D01*
X119850000Y-39500000D01*
X118425000Y-39500000D01*
X118380892Y-39497833D01*
X118337209Y-39491353D01*
X118294372Y-39480623D01*
X118252792Y-39465746D01*
X118212871Y-39446865D01*
X118174993Y-39424161D01*
X118139523Y-39397855D01*
X118106802Y-39368198D01*
X117850626Y-39112022D01*
X117790000Y-39115000D01*
X117721388Y-39111629D01*
X117653437Y-39101550D01*
X117586801Y-39084858D01*
X117522122Y-39061716D01*
X117460022Y-39032345D01*
X117401101Y-38997029D01*
X117345925Y-38956107D01*
X117295025Y-38909975D01*
X117248893Y-38859075D01*
X117207971Y-38803899D01*
X117172655Y-38744978D01*
X117143284Y-38682878D01*
X117120142Y-38618199D01*
X117103450Y-38551563D01*
X117093371Y-38483612D01*
X117090000Y-38415000D01*
X117093371Y-38346388D01*
X117103450Y-38278437D01*
X117120142Y-38211801D01*
X117143284Y-38147122D01*
X117172655Y-38085022D01*
X117207971Y-38026101D01*
X117248893Y-37970925D01*
X117295025Y-37920025D01*
X117345925Y-37873893D01*
X117401101Y-37832971D01*
X117460022Y-37797655D01*
X117522122Y-37768284D01*
X117586801Y-37745142D01*
X117653437Y-37728450D01*
X117721388Y-37718371D01*
X117790000Y-37715000D01*
X117858612Y-37718371D01*
X117926563Y-37728450D01*
X117993199Y-37745142D01*
X118057878Y-37768284D01*
X118119978Y-37797655D01*
X118178899Y-37832971D01*
X118234075Y-37873893D01*
X118284975Y-37920025D01*
X118331107Y-37970925D01*
X118331107Y-37970925D01*
G37*
%LPD*%
%LPC*%
G36*
X120050000Y-60550000D02*
X117950000Y-60550000D01*
X117950000Y-58450000D01*
X120050000Y-58450000D01*
X120050000Y-60550000D01*
X120050000Y-60550000D01*
G37*
%LPD*%
%LPC*%
G36*
X107131563Y-112658450D02*
X107198199Y-112675142D01*
X107262878Y-112698284D01*
X107324978Y-112727655D01*
X107383899Y-112762971D01*
X107439075Y-112803893D01*
X107489975Y-112850025D01*
X107530737Y-112895000D01*
X117950000Y-112895000D01*
X117950000Y-112450000D01*
X120050000Y-112450000D01*
X120050000Y-114550000D01*
X117950000Y-114550000D01*
X117950000Y-113795000D01*
X107530737Y-113795000D01*
X107489975Y-113839975D01*
X107439075Y-113886107D01*
X107383899Y-113927029D01*
X107324978Y-113962345D01*
X107262878Y-113991716D01*
X107198199Y-114014858D01*
X107131563Y-114031550D01*
X107063612Y-114041629D01*
X106995000Y-114045000D01*
X106926388Y-114041629D01*
X106858437Y-114031550D01*
X106791801Y-114014858D01*
X106727122Y-113991716D01*
X106665022Y-113962345D01*
X106606101Y-113927029D01*
X106550925Y-113886107D01*
X106500025Y-113839975D01*
X106453893Y-113789075D01*
X106412971Y-113733899D01*
X106377655Y-113674978D01*
X106348284Y-113612878D01*
X106325142Y-113548199D01*
X106308450Y-113481563D01*
X106298371Y-113413612D01*
X106295000Y-113345000D01*
X106298371Y-113276388D01*
X106308450Y-113208437D01*
X106325142Y-113141801D01*
X106348284Y-113077122D01*
X106377655Y-113015022D01*
X106412971Y-112956101D01*
X106453893Y-112900925D01*
X106500025Y-112850025D01*
X106550925Y-112803893D01*
X106606101Y-112762971D01*
X106665022Y-112727655D01*
X106727122Y-112698284D01*
X106791801Y-112675142D01*
X106858437Y-112658450D01*
X106926388Y-112648371D01*
X106995000Y-112645000D01*
X107063612Y-112648371D01*
X107131563Y-112658450D01*
X107131563Y-112658450D01*
G37*
%LPD*%
%LPC*%
G36*
X107262878Y-166673284D02*
X107324978Y-166702655D01*
X107383899Y-166737971D01*
X107439075Y-166778893D01*
X107489975Y-166825025D01*
X107530737Y-166870000D01*
X117950000Y-166870000D01*
X117950000Y-166450000D01*
X120050000Y-166450000D01*
X120050000Y-168550000D01*
X117950000Y-168550000D01*
X117950000Y-167770000D01*
X107530737Y-167770000D01*
X107489975Y-167814975D01*
X107439075Y-167861107D01*
X107383899Y-167902029D01*
X107324978Y-167937345D01*
X107262878Y-167966716D01*
X107198199Y-167989858D01*
X107131563Y-168006550D01*
X107063612Y-168016629D01*
X106995000Y-168020000D01*
X106926388Y-168016629D01*
X106858437Y-168006550D01*
X106791801Y-167989858D01*
X106727122Y-167966716D01*
X106665022Y-167937345D01*
X106606101Y-167902029D01*
X106550925Y-167861107D01*
X106500025Y-167814975D01*
X106453893Y-167764075D01*
X106412971Y-167708899D01*
X106377655Y-167649978D01*
X106348284Y-167587878D01*
X106325142Y-167523199D01*
X106308450Y-167456563D01*
X106298371Y-167388612D01*
X106295000Y-167320000D01*
X106298371Y-167251388D01*
X106308450Y-167183437D01*
X106325142Y-167116801D01*
X106348284Y-167052122D01*
X106377655Y-166990022D01*
X106412971Y-166931101D01*
X106453893Y-166875925D01*
X106500025Y-166825025D01*
X106550925Y-166778893D01*
X106606101Y-166737971D01*
X106665022Y-166702655D01*
X106727122Y-166673284D01*
X106791801Y-166650142D01*
X106858437Y-166633450D01*
X106926388Y-166623371D01*
X106995000Y-166620000D01*
X107063612Y-166623371D01*
X107131563Y-166633450D01*
X107198199Y-166650142D01*
X107262878Y-166673284D01*
X107262878Y-166673284D01*
G37*
%LPD*%
%LPC*%
G36*
X103767029Y-169471101D02*
X103802345Y-169530022D01*
X103831716Y-169592122D01*
X103854858Y-169656801D01*
X103871550Y-169723437D01*
X103881629Y-169791388D01*
X103885000Y-169860000D01*
X103881629Y-169928612D01*
X103871550Y-169996563D01*
X103855552Y-170060429D01*
X103858893Y-170055925D01*
X103905025Y-170005025D01*
X103955925Y-169958893D01*
X104011101Y-169917971D01*
X104070022Y-169882655D01*
X104132122Y-169853284D01*
X104196801Y-169830142D01*
X104263437Y-169813450D01*
X104331388Y-169803371D01*
X104400000Y-169800000D01*
X104468612Y-169803371D01*
X104536563Y-169813450D01*
X104603199Y-169830142D01*
X104667878Y-169853284D01*
X104729978Y-169882655D01*
X104788899Y-169917971D01*
X104844075Y-169958893D01*
X104894975Y-170005025D01*
X104935737Y-170050000D01*
X111314263Y-170050000D01*
X111355025Y-170005025D01*
X111405925Y-169958893D01*
X111461101Y-169917971D01*
X111520022Y-169882655D01*
X111582122Y-169853284D01*
X111646801Y-169830142D01*
X111713437Y-169813450D01*
X111781388Y-169803371D01*
X111850000Y-169800000D01*
X111918612Y-169803371D01*
X111986563Y-169813450D01*
X112053199Y-169830142D01*
X112117878Y-169853284D01*
X112179978Y-169882655D01*
X112238899Y-169917971D01*
X112294075Y-169958893D01*
X112344975Y-170005025D01*
X112391107Y-170055925D01*
X112432029Y-170111101D01*
X112467345Y-170170022D01*
X112496716Y-170232122D01*
X112519858Y-170296801D01*
X112536550Y-170363437D01*
X112546629Y-170431388D01*
X112550000Y-170500000D01*
X112546629Y-170568612D01*
X112536550Y-170636563D01*
X112519858Y-170703199D01*
X112496716Y-170767878D01*
X112467345Y-170829978D01*
X112432029Y-170888899D01*
X112391107Y-170944075D01*
X112344975Y-170994975D01*
X112294075Y-171041107D01*
X112238899Y-171082029D01*
X112179978Y-171117345D01*
X112117878Y-171146716D01*
X112053199Y-171169858D01*
X111986563Y-171186550D01*
X111918612Y-171196629D01*
X111850000Y-171200000D01*
X111781388Y-171196629D01*
X111713437Y-171186550D01*
X111646801Y-171169858D01*
X111582122Y-171146716D01*
X111520022Y-171117345D01*
X111461101Y-171082029D01*
X111405925Y-171041107D01*
X111355025Y-170994975D01*
X111314263Y-170950000D01*
X104935737Y-170950000D01*
X104894975Y-170994975D01*
X104844075Y-171041107D01*
X104788899Y-171082029D01*
X104729978Y-171117345D01*
X104667878Y-171146716D01*
X104603199Y-171169858D01*
X104536563Y-171186550D01*
X104468612Y-171196629D01*
X104400000Y-171200000D01*
X104331388Y-171196629D01*
X104263437Y-171186550D01*
X104196801Y-171169858D01*
X104132122Y-171146716D01*
X104070022Y-171117345D01*
X104011101Y-171082029D01*
X103955925Y-171041107D01*
X103905025Y-170994975D01*
X103858893Y-170944075D01*
X103817971Y-170888899D01*
X103782655Y-170829978D01*
X103753284Y-170767878D01*
X103735000Y-170716777D01*
X103735000Y-171537183D01*
X104208909Y-172011091D01*
X105478909Y-173281091D01*
X106113909Y-173916091D01*
X106150156Y-173956084D01*
X106182308Y-173999436D01*
X106210057Y-174045732D01*
X106233134Y-174094524D01*
X106251317Y-174145343D01*
X106264432Y-174197700D01*
X106272352Y-174251091D01*
X106275000Y-174305000D01*
X106275000Y-201382183D01*
X107383909Y-202491091D01*
X107420156Y-202531084D01*
X107452308Y-202574436D01*
X107480057Y-202620732D01*
X107503134Y-202669524D01*
X107521317Y-202720343D01*
X107534432Y-202772700D01*
X107542352Y-202826091D01*
X107545000Y-202880000D01*
X107545000Y-213242915D01*
X107577029Y-213286101D01*
X107612345Y-213345022D01*
X107641716Y-213407122D01*
X107664858Y-213471801D01*
X107681550Y-213538437D01*
X107691629Y-213606388D01*
X107695000Y-213675000D01*
X107691629Y-213743612D01*
X107681550Y-213811563D01*
X107664858Y-213878199D01*
X107641716Y-213942878D01*
X107612345Y-214004978D01*
X107577029Y-214063899D01*
X107536107Y-214119075D01*
X107489975Y-214169975D01*
X107439075Y-214216107D01*
X107383899Y-214257029D01*
X107324978Y-214292345D01*
X107262878Y-214321716D01*
X107198199Y-214344858D01*
X107131563Y-214361550D01*
X107063612Y-214371629D01*
X106995000Y-214375000D01*
X106926388Y-214371629D01*
X106858437Y-214361550D01*
X106791801Y-214344858D01*
X106727122Y-214321716D01*
X106665022Y-214292345D01*
X106606101Y-214257029D01*
X106550925Y-214216107D01*
X106500025Y-214169975D01*
X106453893Y-214119075D01*
X106412971Y-214063899D01*
X106377655Y-214004978D01*
X106348284Y-213942878D01*
X106325142Y-213878199D01*
X106308450Y-213811563D01*
X106298371Y-213743612D01*
X106295000Y-213675000D01*
X106298371Y-213606388D01*
X106308450Y-213538437D01*
X106325142Y-213471801D01*
X106348284Y-213407122D01*
X106377655Y-213345022D01*
X106412971Y-213286101D01*
X106445000Y-213242915D01*
X106445000Y-203107817D01*
X105336091Y-201998909D01*
X105299844Y-201958916D01*
X105267692Y-201915564D01*
X105239943Y-201869268D01*
X105216866Y-201820476D01*
X105198683Y-201769657D01*
X105185568Y-201717300D01*
X105177648Y-201663909D01*
X105175000Y-201610000D01*
X105175000Y-174532817D01*
X104701091Y-174058909D01*
X103431091Y-172788909D01*
X102796091Y-172153909D01*
X102759844Y-172113916D01*
X102727692Y-172070564D01*
X102699943Y-172024268D01*
X102676866Y-171975476D01*
X102658683Y-171924657D01*
X102645568Y-171872300D01*
X102637648Y-171818909D01*
X102635000Y-171765000D01*
X102635000Y-170292085D01*
X102602971Y-170248899D01*
X102567655Y-170189978D01*
X102538284Y-170127878D01*
X102515142Y-170063199D01*
X102498450Y-169996563D01*
X102488371Y-169928612D01*
X102485000Y-169860000D01*
X102488371Y-169791388D01*
X102498450Y-169723437D01*
X102515142Y-169656801D01*
X102538284Y-169592122D01*
X102567655Y-169530022D01*
X102602971Y-169471101D01*
X102643893Y-169415925D01*
X102690025Y-169365025D01*
X102740925Y-169318893D01*
X102796101Y-169277971D01*
X102855022Y-169242655D01*
X102917122Y-169213284D01*
X102981801Y-169190142D01*
X103048437Y-169173450D01*
X103116388Y-169163371D01*
X103185000Y-169160000D01*
X103253612Y-169163371D01*
X103321563Y-169173450D01*
X103388199Y-169190142D01*
X103452878Y-169213284D01*
X103514978Y-169242655D01*
X103573899Y-169277971D01*
X103629075Y-169318893D01*
X103679975Y-169365025D01*
X103726107Y-169415925D01*
X103767029Y-169471101D01*
X103767029Y-169471101D01*
G37*
%LPD*%
%LPC*%
G36*
X102456107Y-212595925D02*
X102497029Y-212651101D01*
X102532345Y-212710022D01*
X102561716Y-212772122D01*
X102584858Y-212836801D01*
X102601550Y-212903437D01*
X102611629Y-212971388D01*
X102615000Y-213040000D01*
X102611629Y-213108612D01*
X102601550Y-213176563D01*
X102584858Y-213243199D01*
X102561716Y-213307878D01*
X102541794Y-213350000D01*
X103500000Y-213350000D01*
X103500000Y-215650000D01*
X101200000Y-215650000D01*
X101200000Y-213350000D01*
X101288206Y-213350000D01*
X101268284Y-213307878D01*
X101245142Y-213243199D01*
X101228450Y-213176563D01*
X101218371Y-213108612D01*
X101215000Y-213040000D01*
X101218371Y-212971388D01*
X101228450Y-212903437D01*
X101245142Y-212836801D01*
X101268284Y-212772122D01*
X101297655Y-212710022D01*
X101332971Y-212651101D01*
X101373893Y-212595925D01*
X101420025Y-212545025D01*
X101470925Y-212498893D01*
X101526101Y-212457971D01*
X101585022Y-212422655D01*
X101647122Y-212393284D01*
X101711801Y-212370142D01*
X101778437Y-212353450D01*
X101846388Y-212343371D01*
X101915000Y-212340000D01*
X101983612Y-212343371D01*
X102051563Y-212353450D01*
X102118199Y-212370142D01*
X102182878Y-212393284D01*
X102244978Y-212422655D01*
X102303899Y-212457971D01*
X102359075Y-212498893D01*
X102409975Y-212545025D01*
X102456107Y-212595925D01*
X102456107Y-212595925D01*
G37*
%LPD*%
%LPC*%
G36*
X102134254Y-218292208D02*
X102119377Y-218250628D01*
X102108647Y-218207791D01*
X102106008Y-218190000D01*
X101200000Y-218190000D01*
X101200000Y-215890000D01*
X103500000Y-215890000D01*
X103500000Y-218190000D01*
X103256396Y-218190000D01*
X103371396Y-218305000D01*
X105189263Y-218305000D01*
X105230025Y-218260025D01*
X105280925Y-218213893D01*
X105336101Y-218172971D01*
X105395022Y-218137655D01*
X105457122Y-218108284D01*
X105521801Y-218085142D01*
X105588437Y-218068450D01*
X105656388Y-218058371D01*
X105725000Y-218055000D01*
X105793612Y-218058371D01*
X105861563Y-218068450D01*
X105928199Y-218085142D01*
X105992878Y-218108284D01*
X106054978Y-218137655D01*
X106113899Y-218172971D01*
X106169075Y-218213893D01*
X106219975Y-218260025D01*
X106266107Y-218310925D01*
X106307029Y-218366101D01*
X106342345Y-218425022D01*
X106371716Y-218487122D01*
X106394858Y-218551801D01*
X106411550Y-218618437D01*
X106421629Y-218686388D01*
X106425000Y-218755000D01*
X106421629Y-218823612D01*
X106411550Y-218891563D01*
X106394858Y-218958199D01*
X106371716Y-219022878D01*
X106342345Y-219084978D01*
X106307029Y-219143899D01*
X106266107Y-219199075D01*
X106219975Y-219249975D01*
X106169075Y-219296107D01*
X106113899Y-219337029D01*
X106054978Y-219372345D01*
X105992878Y-219401716D01*
X105928199Y-219424858D01*
X105861563Y-219441550D01*
X105793612Y-219451629D01*
X105725000Y-219455000D01*
X105656388Y-219451629D01*
X105588437Y-219441550D01*
X105521801Y-219424858D01*
X105457122Y-219401716D01*
X105395022Y-219372345D01*
X105336101Y-219337029D01*
X105280925Y-219296107D01*
X105230025Y-219249975D01*
X105189263Y-219205000D01*
X103185000Y-219205000D01*
X103140892Y-219202833D01*
X103097209Y-219196353D01*
X103054372Y-219185623D01*
X103012792Y-219170746D01*
X102972871Y-219151865D01*
X102934993Y-219129161D01*
X102899523Y-219102855D01*
X102866802Y-219073198D01*
X102231802Y-218438198D01*
X102202145Y-218405477D01*
X102175839Y-218370007D01*
X102153135Y-218332129D01*
X102134254Y-218292208D01*
X102134254Y-218292208D01*
G37*
%LPD*%
%LPC*%
G36*
X120050000Y-222050000D02*
X117950000Y-222050000D01*
X117950000Y-219950000D01*
X120050000Y-219950000D01*
X120050000Y-222050000D01*
X120050000Y-222050000D01*
G37*
%LPD*%
%LPC*%
G36*
X112800000Y-231300000D02*
X110200000Y-231300000D01*
X110200000Y-228700000D01*
X112800000Y-228700000D01*
X112800000Y-231300000D01*
X112800000Y-231300000D01*
G37*
%LPD*%
D10*
X104400000Y-116500000D02*
X110350000Y-116500000D01*
X104400000Y-170500000D02*
X111850000Y-170500000D01*
D11*
X34605000Y-39050000D02*
X30795000Y-35240000D01*
D12*
X66355000Y-32700000D02*
X68895000Y-32700000D01*
X68895000Y-32700000D02*
X69530000Y-32065000D01*
X69530000Y-32065000D02*
X70800000Y-32065000D01*
X70800000Y-32065000D02*
X71435000Y-31430000D01*
X71435000Y-31430000D02*
X72070000Y-30795000D01*
X72070000Y-30795000D02*
X73340000Y-29525000D01*
X73340000Y-29525000D02*
X73975000Y-28890000D01*
X73975000Y-28890000D02*
X79690000Y-28890000D01*
X79690000Y-28890000D02*
X80325000Y-28255000D01*
X80325000Y-28255000D02*
X80325000Y-28050000D01*
D10*
X70165000Y-33335000D02*
X71435000Y-33335000D01*
X71435000Y-33335000D02*
X72070000Y-32700000D01*
X72070000Y-32700000D02*
X72070000Y-32065000D01*
D12*
X34605000Y-85405000D02*
X34605000Y-80960000D01*
X34605000Y-139380000D02*
X34605000Y-134935000D01*
D10*
X37145000Y-114615000D02*
X34605000Y-114615000D01*
X34605000Y-114615000D02*
X33970000Y-113980000D01*
X33970000Y-113980000D02*
X32700000Y-112710000D01*
X32700000Y-112710000D02*
X32065000Y-112075000D01*
X32065000Y-112075000D02*
X32065000Y-112050000D01*
X37145000Y-168590000D02*
X34605000Y-168590000D01*
X34605000Y-168590000D02*
X33970000Y-167955000D01*
X33970000Y-167955000D02*
X33335000Y-167320000D01*
X33335000Y-167320000D02*
X32700000Y-166685000D01*
X32700000Y-166685000D02*
X32065000Y-166050000D01*
X54925000Y-59370000D02*
X54290000Y-59370000D01*
X54290000Y-59370000D02*
X53020000Y-58100000D01*
X59370000Y-65085000D02*
X58735000Y-64450000D01*
X58735000Y-64450000D02*
X58100000Y-63815000D01*
X58100000Y-63815000D02*
X57465000Y-63180000D01*
X59370000Y-119060000D02*
X58735000Y-118425000D01*
X58735000Y-118425000D02*
X58100000Y-117790000D01*
X58100000Y-117790000D02*
X57465000Y-117155000D01*
X59370000Y-173035000D02*
X58735000Y-172400000D01*
X58735000Y-172400000D02*
X58100000Y-171765000D01*
X58100000Y-171765000D02*
X57465000Y-171130000D01*
D11*
X55560000Y-55560000D02*
X53020000Y-55560000D01*
X106995000Y-213675000D02*
X106995000Y-202880000D01*
X106995000Y-202880000D02*
X105725000Y-201610000D01*
X105725000Y-201610000D02*
X105725000Y-174305000D01*
X105725000Y-174305000D02*
X105090000Y-173670000D01*
X105090000Y-173670000D02*
X103820000Y-172400000D01*
X103820000Y-172400000D02*
X103185000Y-171765000D01*
X103185000Y-171765000D02*
X103185000Y-169860000D01*
D10*
X88580000Y-60005000D02*
X88580000Y-40955000D01*
X88580000Y-40955000D02*
X89215000Y-40320000D01*
X89215000Y-40320000D02*
X89850000Y-39685000D01*
X89850000Y-39685000D02*
X90485000Y-39050000D01*
X90485000Y-39050000D02*
X91120000Y-38415000D01*
X91120000Y-38415000D02*
X91755000Y-37780000D01*
X91755000Y-37780000D02*
X92390000Y-37145000D01*
X92390000Y-37145000D02*
X93025000Y-36510000D01*
X93025000Y-36510000D02*
X93660000Y-35875000D01*
X93660000Y-35875000D02*
X94295000Y-35240000D01*
X94295000Y-35240000D02*
X94930000Y-34605000D01*
X94930000Y-34605000D02*
X95565000Y-33970000D01*
X95565000Y-33970000D02*
X96200000Y-33335000D01*
X96200000Y-33335000D02*
X96835000Y-32700000D01*
X96835000Y-32700000D02*
X97470000Y-32065000D01*
X97470000Y-32065000D02*
X98105000Y-31430000D01*
X98105000Y-31430000D02*
X98740000Y-30795000D01*
X98740000Y-30795000D02*
X100010000Y-29525000D01*
X100010000Y-29525000D02*
X100645000Y-28890000D01*
X100645000Y-28890000D02*
X100745000Y-28890000D01*
X76515000Y-124140000D02*
X76515000Y-117790000D01*
X76515000Y-117790000D02*
X75880000Y-117155000D01*
X75880000Y-117155000D02*
X75880000Y-82865000D01*
X75880000Y-82865000D02*
X76515000Y-82230000D01*
X89850000Y-213675000D02*
X89850000Y-213040000D01*
X96200000Y-213675000D02*
X96200000Y-212405000D01*
X100645000Y-113345000D02*
X101280000Y-113980000D01*
X101280000Y-113980000D02*
X102550000Y-113980000D01*
X102550000Y-113980000D02*
X102550000Y-114615000D01*
X102550000Y-114615000D02*
X103185000Y-115250000D01*
X103185000Y-115250000D02*
X103820000Y-115885000D01*
X103820000Y-115885000D02*
X104119000Y-116215000D01*
X101915000Y-213675000D02*
X101915000Y-213040000D01*
X100645000Y-166685000D02*
X101280000Y-167320000D01*
X101280000Y-167320000D02*
X101915000Y-167955000D01*
X101915000Y-167955000D02*
X102550000Y-168590000D01*
X102550000Y-168590000D02*
X103820000Y-168590000D01*
X100010000Y-220660000D02*
X99375000Y-220025000D01*
X99375000Y-220025000D02*
X98740000Y-219390000D01*
X98740000Y-219390000D02*
X98105000Y-218755000D01*
X98105000Y-218755000D02*
X97470000Y-218120000D01*
X97470000Y-218120000D02*
X97250000Y-217940000D01*
X105725000Y-218755000D02*
X103185000Y-218755000D01*
X103185000Y-218755000D02*
X102550000Y-218120000D01*
X102550000Y-218120000D02*
X102550000Y-217940000D01*
X104455000Y-139380000D02*
X102550000Y-139380000D01*
X102550000Y-139380000D02*
X101915000Y-138745000D01*
X68895000Y-124140000D02*
X68895000Y-121600000D01*
X68895000Y-121600000D02*
X69530000Y-120965000D01*
X69530000Y-120965000D02*
X70165000Y-120330000D01*
X70165000Y-120330000D02*
X70800000Y-119695000D01*
X70800000Y-119695000D02*
X71435000Y-119060000D01*
X71435000Y-119060000D02*
X72070000Y-118425000D01*
X72070000Y-118425000D02*
X72705000Y-117790000D01*
X72705000Y-117790000D02*
X73340000Y-117155000D01*
X73340000Y-117155000D02*
X73975000Y-116520000D01*
X73975000Y-116520000D02*
X73975000Y-115250000D01*
X68895000Y-178115000D02*
X68895000Y-175575000D01*
X68895000Y-175575000D02*
X70165000Y-174305000D01*
X70165000Y-174305000D02*
X70800000Y-173670000D01*
X70800000Y-173670000D02*
X71435000Y-173035000D01*
X71435000Y-173035000D02*
X72070000Y-172400000D01*
X72070000Y-172400000D02*
X72705000Y-171765000D01*
X72705000Y-171765000D02*
X73340000Y-171130000D01*
X73340000Y-171130000D02*
X73975000Y-170495000D01*
X73975000Y-170495000D02*
X73975000Y-169225000D01*
X69810000Y-140500000D02*
X70165000Y-140015000D01*
X70165000Y-140015000D02*
X70165000Y-131125000D01*
X70165000Y-131125000D02*
X70800000Y-130490000D01*
X70800000Y-130490000D02*
X71435000Y-129855000D01*
X71435000Y-129855000D02*
X72070000Y-129220000D01*
X72070000Y-129220000D02*
X72705000Y-128585000D01*
X72705000Y-128585000D02*
X73340000Y-127950000D01*
X68895000Y-84135000D02*
X70165000Y-84135000D01*
X70165000Y-84135000D02*
X70800000Y-84770000D01*
X70800000Y-84770000D02*
X71435000Y-84770000D01*
X71435000Y-84770000D02*
X71435000Y-85405000D01*
X71435000Y-85405000D02*
X71450000Y-85600000D01*
X63815000Y-138110000D02*
X64450000Y-138745000D01*
X64450000Y-138745000D02*
X65085000Y-139380000D01*
X65085000Y-139380000D02*
X65720000Y-140015000D01*
X65720000Y-140015000D02*
X65720000Y-142555000D01*
X65720000Y-142555000D02*
X71435000Y-142555000D01*
X71435000Y-142555000D02*
X71435000Y-141285000D01*
X71435000Y-141285000D02*
X71450000Y-141285000D01*
X68895000Y-192720000D02*
X71435000Y-192720000D01*
X71435000Y-192720000D02*
X71435000Y-193355000D01*
X71435000Y-193355000D02*
X71450000Y-193600000D01*
X77150000Y-66990000D02*
X77150000Y-65720000D01*
X77150000Y-65720000D02*
X76515000Y-65085000D01*
X76515000Y-65085000D02*
X76515000Y-64450000D01*
X73975000Y-68895000D02*
X74610000Y-68260000D01*
X74610000Y-68260000D02*
X75245000Y-67625000D01*
X75245000Y-67625000D02*
X75880000Y-66990000D01*
X75880000Y-66990000D02*
X76750000Y-66990000D01*
X77785000Y-120330000D02*
X77785000Y-117790000D01*
X73975000Y-124140000D02*
X74610000Y-124775000D01*
X74610000Y-124775000D02*
X75245000Y-125410000D01*
X75245000Y-125410000D02*
X77785000Y-125410000D01*
X77785000Y-125410000D02*
X77785000Y-120730000D01*
X77150000Y-174940000D02*
X77150000Y-173670000D01*
X77150000Y-173670000D02*
X76515000Y-173035000D01*
X76515000Y-173035000D02*
X76515000Y-172400000D01*
X74610000Y-176845000D02*
X75245000Y-176210000D01*
X75245000Y-176210000D02*
X75880000Y-175575000D01*
X75880000Y-175575000D02*
X76515000Y-174940000D01*
X76515000Y-174940000D02*
X76750000Y-174940000D01*
X93660000Y-62545000D02*
X87310000Y-62545000D01*
X87310000Y-62545000D02*
X86675000Y-63180000D01*
X86675000Y-63180000D02*
X86675000Y-63450000D01*
X80325000Y-121600000D02*
X82230000Y-119695000D01*
X82230000Y-119695000D02*
X82865000Y-119695000D01*
X82865000Y-119695000D02*
X83500000Y-119060000D01*
X83500000Y-119060000D02*
X84770000Y-119060000D01*
X98105000Y-116520000D02*
X87310000Y-116520000D01*
X87310000Y-116520000D02*
X86675000Y-117155000D01*
X86675000Y-117155000D02*
X86675000Y-117450000D01*
X98105000Y-170495000D02*
X87310000Y-170495000D01*
X87310000Y-170495000D02*
X86675000Y-171130000D01*
X86675000Y-171130000D02*
X86675000Y-171450000D01*
X99375000Y-85405000D02*
X99375000Y-81595000D01*
X99375000Y-81595000D02*
X97470000Y-79690000D01*
X97470000Y-79690000D02*
X96835000Y-79055000D01*
X96835000Y-79055000D02*
X96200000Y-78420000D01*
X96200000Y-78420000D02*
X88580000Y-70800000D01*
X88580000Y-70800000D02*
X87945000Y-70165000D01*
X87945000Y-70165000D02*
X87310000Y-69530000D01*
X87310000Y-69530000D02*
X84135000Y-66355000D01*
X84135000Y-66355000D02*
X84135000Y-64450000D01*
X84135000Y-64450000D02*
X83500000Y-63815000D01*
X83500000Y-63815000D02*
X82865000Y-63180000D01*
X82865000Y-63180000D02*
X82865000Y-61275000D01*
X99375000Y-139380000D02*
X99375000Y-136205000D01*
X99375000Y-136205000D02*
X98740000Y-135570000D01*
X98740000Y-135570000D02*
X98105000Y-134935000D01*
X98105000Y-134935000D02*
X97470000Y-134300000D01*
X97470000Y-134300000D02*
X97470000Y-131760000D01*
X97470000Y-131760000D02*
X96835000Y-131125000D01*
X96835000Y-131125000D02*
X96200000Y-130490000D01*
X96200000Y-130490000D02*
X95565000Y-129855000D01*
X95565000Y-129855000D02*
X94930000Y-129220000D01*
X94930000Y-129220000D02*
X94295000Y-128585000D01*
X94295000Y-128585000D02*
X93660000Y-127950000D01*
X93660000Y-127950000D02*
X93025000Y-127315000D01*
X93025000Y-127315000D02*
X92390000Y-126680000D01*
X92390000Y-126680000D02*
X91755000Y-126045000D01*
X91755000Y-126045000D02*
X91120000Y-125410000D01*
X91120000Y-125410000D02*
X90485000Y-124775000D01*
X90485000Y-124775000D02*
X89850000Y-124140000D01*
X89850000Y-124140000D02*
X89215000Y-123505000D01*
X89215000Y-123505000D02*
X88580000Y-122870000D01*
X88580000Y-122870000D02*
X88580000Y-117790000D01*
X99375000Y-193355000D02*
X99375000Y-191450000D01*
X99375000Y-191450000D02*
X98740000Y-190815000D01*
X98740000Y-190815000D02*
X98105000Y-190180000D01*
X98105000Y-190180000D02*
X97470000Y-189545000D01*
X97470000Y-189545000D02*
X97470000Y-187640000D01*
X97470000Y-187640000D02*
X96835000Y-187005000D01*
X96835000Y-187005000D02*
X96200000Y-186370000D01*
X96200000Y-186370000D02*
X95565000Y-185735000D01*
X95565000Y-185735000D02*
X94930000Y-185100000D01*
X94930000Y-185100000D02*
X93660000Y-183830000D01*
X93660000Y-183830000D02*
X93025000Y-183195000D01*
X93025000Y-183195000D02*
X91755000Y-181925000D01*
X91755000Y-181925000D02*
X91120000Y-181290000D01*
X91120000Y-181290000D02*
X89850000Y-180020000D01*
X89850000Y-180020000D02*
X89215000Y-179385000D01*
X89215000Y-179385000D02*
X87945000Y-178115000D01*
X87945000Y-178115000D02*
X87310000Y-177480000D01*
X87310000Y-177480000D02*
X86675000Y-176845000D01*
X86675000Y-176845000D02*
X86040000Y-176210000D01*
X86040000Y-176210000D02*
X85405000Y-175575000D01*
X85405000Y-175575000D02*
X84770000Y-174940000D01*
X84770000Y-174940000D02*
X84135000Y-174305000D01*
X84135000Y-174305000D02*
X84135000Y-172400000D01*
X84135000Y-172400000D02*
X83500000Y-171765000D01*
X83500000Y-171765000D02*
X82865000Y-171130000D01*
X82865000Y-171130000D02*
X82865000Y-169225000D01*
X38415000Y-93660000D02*
X38415000Y-93025000D01*
X38415000Y-93025000D02*
X34605000Y-93025000D01*
X34605000Y-93025000D02*
X33970000Y-92390000D01*
X33970000Y-92390000D02*
X30160000Y-92390000D01*
X38415000Y-147635000D02*
X38415000Y-147000000D01*
X38415000Y-147000000D02*
X33970000Y-147000000D01*
X33970000Y-147000000D02*
X33335000Y-146365000D01*
X33335000Y-146365000D02*
X30160000Y-146365000D01*
X42690000Y-89000000D02*
X42225000Y-89215000D01*
X42225000Y-89215000D02*
X42225000Y-93660000D01*
X42690000Y-143000000D02*
X42225000Y-143190000D01*
X42225000Y-143190000D02*
X42225000Y-147635000D01*
X42225000Y-197800000D02*
X42225000Y-201610000D01*
X31430000Y-96200000D02*
X32700000Y-96200000D01*
X32700000Y-96200000D02*
X33335000Y-95565000D01*
X33335000Y-95565000D02*
X35240000Y-95565000D01*
X35240000Y-95565000D02*
X35560000Y-95400000D01*
X31430000Y-150175000D02*
X32700000Y-150175000D01*
X32700000Y-150175000D02*
X33335000Y-149540000D01*
X33335000Y-149540000D02*
X35240000Y-149540000D01*
X35240000Y-149540000D02*
X35560000Y-149400000D01*
X51115000Y-88580000D02*
X51115000Y-86675000D01*
X51115000Y-86675000D02*
X51750000Y-86040000D01*
X51750000Y-86040000D02*
X52385000Y-85405000D01*
X52385000Y-85405000D02*
X53020000Y-84770000D01*
X53020000Y-84770000D02*
X53655000Y-84135000D01*
X53655000Y-84135000D02*
X54925000Y-82865000D01*
X54925000Y-82865000D02*
X55560000Y-82230000D01*
X55560000Y-82230000D02*
X56830000Y-80960000D01*
X56830000Y-80960000D02*
X57465000Y-80325000D01*
X57465000Y-80325000D02*
X57465000Y-79055000D01*
X57465000Y-79055000D02*
X58100000Y-78420000D01*
X58100000Y-78420000D02*
X58100000Y-77150000D01*
X58100000Y-77150000D02*
X59370000Y-75880000D01*
X59370000Y-75880000D02*
X60005000Y-75245000D01*
X60005000Y-75245000D02*
X61275000Y-73975000D01*
X61275000Y-73975000D02*
X61910000Y-73340000D01*
X61910000Y-73340000D02*
X62545000Y-72705000D01*
X62545000Y-72705000D02*
X63180000Y-72070000D01*
X63180000Y-72070000D02*
X63815000Y-71435000D01*
X63815000Y-71435000D02*
X70165000Y-65085000D01*
X70165000Y-65085000D02*
X70800000Y-65085000D01*
X70800000Y-65085000D02*
X70800000Y-61910000D01*
X70800000Y-61910000D02*
X71435000Y-61275000D01*
X71435000Y-61275000D02*
X72070000Y-60640000D01*
X72070000Y-60640000D02*
X72705000Y-60005000D01*
X72705000Y-60005000D02*
X73340000Y-59370000D01*
X73340000Y-59370000D02*
X73975000Y-58735000D01*
X73975000Y-58735000D02*
X75245000Y-57465000D01*
X75245000Y-57465000D02*
X75880000Y-56830000D01*
X75880000Y-56830000D02*
X77150000Y-55560000D01*
X77150000Y-55560000D02*
X77785000Y-54925000D01*
X77785000Y-54925000D02*
X79055000Y-53655000D01*
X79055000Y-53655000D02*
X79690000Y-53020000D01*
X79690000Y-53020000D02*
X80325000Y-52385000D01*
X80325000Y-52385000D02*
X80960000Y-51750000D01*
X80960000Y-51750000D02*
X81595000Y-51115000D01*
X81595000Y-51115000D02*
X82230000Y-50480000D01*
X82230000Y-50480000D02*
X82865000Y-49845000D01*
X82865000Y-49845000D02*
X84135000Y-48575000D01*
X84135000Y-48575000D02*
X84770000Y-47940000D01*
X84770000Y-47940000D02*
X86040000Y-46670000D01*
X86040000Y-46670000D02*
X86675000Y-46035000D01*
X86675000Y-46035000D02*
X87310000Y-45400000D01*
X87310000Y-45400000D02*
X87310000Y-40320000D01*
X87310000Y-40320000D02*
X87945000Y-39685000D01*
X87945000Y-39685000D02*
X88580000Y-39050000D01*
X88580000Y-39050000D02*
X89215000Y-38415000D01*
X89215000Y-38415000D02*
X89850000Y-37780000D01*
X89850000Y-37780000D02*
X90485000Y-37145000D01*
X90485000Y-37145000D02*
X91120000Y-36510000D01*
X91120000Y-36510000D02*
X91755000Y-35875000D01*
X91755000Y-35875000D02*
X92390000Y-35875000D01*
X50310000Y-143000000D02*
X50480000Y-142555000D01*
X50480000Y-142555000D02*
X50480000Y-108265000D01*
X50480000Y-108265000D02*
X49845000Y-107630000D01*
X49845000Y-107630000D02*
X49845000Y-89850000D01*
X50310000Y-197000000D02*
X50480000Y-196530000D01*
X50480000Y-196530000D02*
X50480000Y-162240000D01*
X50480000Y-162240000D02*
X49845000Y-161605000D01*
X49845000Y-161605000D02*
X49845000Y-143825000D01*
X91755000Y-89850000D02*
X91755000Y-87945000D01*
X91755000Y-87945000D02*
X92390000Y-87310000D01*
X92390000Y-87310000D02*
X93660000Y-86040000D01*
X93660000Y-86040000D02*
X93660000Y-85405000D01*
X91755000Y-143825000D02*
X91755000Y-141920000D01*
X91755000Y-141920000D02*
X93025000Y-140650000D01*
X93025000Y-140650000D02*
X93660000Y-140015000D01*
X93660000Y-140015000D02*
X93660000Y-139380000D01*
X91755000Y-197800000D02*
X91755000Y-195895000D01*
X91755000Y-195895000D02*
X92390000Y-195260000D01*
X92390000Y-195260000D02*
X93025000Y-194625000D01*
X93025000Y-194625000D02*
X93660000Y-193990000D01*
X93660000Y-193990000D02*
X93660000Y-193355000D01*
X119000000Y-113500000D02*
X118425000Y-113345000D01*
X118425000Y-113345000D02*
X106995000Y-113345000D01*
X119000000Y-167500000D02*
X118425000Y-167320000D01*
X118425000Y-167320000D02*
X106995000Y-167320000D01*
X89850000Y-61275000D02*
X89850000Y-48575000D01*
X89850000Y-48575000D02*
X90485000Y-47940000D01*
X90485000Y-47940000D02*
X91120000Y-47305000D01*
X91120000Y-47305000D02*
X91755000Y-46670000D01*
X91755000Y-46670000D02*
X92390000Y-46035000D01*
X92390000Y-46035000D02*
X93025000Y-45400000D01*
X93025000Y-45400000D02*
X93660000Y-44765000D01*
X93660000Y-44765000D02*
X94295000Y-44130000D01*
X94295000Y-44130000D02*
X94930000Y-43495000D01*
X94930000Y-43495000D02*
X95565000Y-42860000D01*
X95565000Y-42860000D02*
X96200000Y-42225000D01*
X96200000Y-42225000D02*
X96835000Y-41590000D01*
X96835000Y-41590000D02*
X97470000Y-40955000D01*
X97470000Y-40955000D02*
X98105000Y-40320000D01*
X98105000Y-40320000D02*
X98740000Y-39685000D01*
X98740000Y-39685000D02*
X99375000Y-39050000D01*
X99375000Y-39050000D02*
X100010000Y-38415000D01*
X100010000Y-38415000D02*
X100645000Y-37780000D01*
X100645000Y-37780000D02*
X101280000Y-37145000D01*
X101280000Y-37145000D02*
X101915000Y-36510000D01*
X101915000Y-36510000D02*
X102550000Y-35875000D01*
X102550000Y-35875000D02*
X103185000Y-35240000D01*
X103185000Y-35240000D02*
X103820000Y-34605000D01*
X103820000Y-34605000D02*
X105090000Y-33335000D01*
X105090000Y-33335000D02*
X105090000Y-32065000D01*
X60005000Y-144460000D02*
X70800000Y-144460000D01*
X70800000Y-144460000D02*
X71435000Y-145095000D01*
X71435000Y-145095000D02*
X93025000Y-145095000D01*
X93025000Y-145095000D02*
X93660000Y-144460000D01*
X93660000Y-144460000D02*
X94295000Y-143825000D01*
X94295000Y-143825000D02*
X94930000Y-143190000D01*
X94930000Y-143190000D02*
X95565000Y-142555000D01*
X95565000Y-142555000D02*
X101915000Y-142555000D01*
X101915000Y-142555000D02*
X101915000Y-140015000D01*
X101915000Y-140015000D02*
X100645000Y-140015000D01*
X100645000Y-140015000D02*
X100645000Y-117155000D01*
X100645000Y-117155000D02*
X100010000Y-116520000D01*
X100010000Y-116520000D02*
X100010000Y-115250000D01*
X100010000Y-115250000D02*
X99375000Y-114615000D01*
X99375000Y-114615000D02*
X99375000Y-91120000D01*
X99375000Y-91120000D02*
X100010000Y-90485000D01*
X100010000Y-90485000D02*
X100645000Y-89850000D01*
X100645000Y-89850000D02*
X101280000Y-89215000D01*
X101280000Y-89215000D02*
X101915000Y-88580000D01*
X101915000Y-88580000D02*
X101915000Y-63180000D01*
X101915000Y-63180000D02*
X102550000Y-62545000D01*
X102550000Y-62545000D02*
X102550000Y-58735000D01*
X102550000Y-58735000D02*
X103185000Y-58100000D01*
X103185000Y-58100000D02*
X103820000Y-57465000D01*
X103820000Y-57465000D02*
X104455000Y-56830000D01*
X104455000Y-56830000D02*
X104455000Y-35240000D01*
X104455000Y-35240000D02*
X105090000Y-35240000D01*
X105090000Y-35240000D02*
X105090000Y-34605000D01*
X91120000Y-155255000D02*
X91755000Y-154620000D01*
X91755000Y-154620000D02*
X92390000Y-153985000D01*
X92390000Y-153985000D02*
X93025000Y-153350000D01*
X93025000Y-153350000D02*
X93660000Y-152715000D01*
X93660000Y-152715000D02*
X94295000Y-152080000D01*
X94295000Y-152080000D02*
X94930000Y-151445000D01*
X94930000Y-151445000D02*
X95565000Y-150810000D01*
X95565000Y-150810000D02*
X96200000Y-150175000D01*
X96200000Y-150175000D02*
X96835000Y-149540000D01*
X96835000Y-149540000D02*
X98105000Y-148270000D01*
X98105000Y-148270000D02*
X98740000Y-147635000D01*
X98740000Y-147635000D02*
X100010000Y-146365000D01*
X100010000Y-146365000D02*
X100645000Y-145730000D01*
X100645000Y-145730000D02*
X101915000Y-144460000D01*
X101915000Y-144460000D02*
X102550000Y-143825000D01*
X102550000Y-143825000D02*
X103185000Y-143190000D01*
X103185000Y-143190000D02*
X103820000Y-142555000D01*
X103820000Y-142555000D02*
X104455000Y-141920000D01*
X104455000Y-141920000D02*
X105090000Y-141285000D01*
X105090000Y-141285000D02*
X105725000Y-140650000D01*
X105725000Y-140650000D02*
X105725000Y-123505000D01*
X105725000Y-123505000D02*
X106360000Y-122870000D01*
X106360000Y-122870000D02*
X106995000Y-122235000D01*
X106995000Y-122235000D02*
X107630000Y-121600000D01*
X107630000Y-121600000D02*
X108265000Y-120965000D01*
X108265000Y-120965000D02*
X108900000Y-120330000D01*
X108900000Y-120330000D02*
X109535000Y-119695000D01*
X109535000Y-119695000D02*
X110170000Y-119060000D01*
X110170000Y-119060000D02*
X111440000Y-117790000D01*
X111440000Y-117790000D02*
X111440000Y-115250000D01*
X111440000Y-115250000D02*
X110805000Y-114615000D01*
X110805000Y-114615000D02*
X105725000Y-114615000D01*
X105725000Y-114615000D02*
X105725000Y-112075000D01*
X105725000Y-112075000D02*
X106360000Y-111440000D01*
X106360000Y-111440000D02*
X106995000Y-110805000D01*
X106995000Y-110805000D02*
X107630000Y-110170000D01*
X107630000Y-110170000D02*
X107630000Y-94295000D01*
X107630000Y-94295000D02*
X108265000Y-93660000D01*
X108265000Y-93660000D02*
X108265000Y-39685000D01*
X108265000Y-39685000D02*
X108900000Y-39050000D01*
X108900000Y-39050000D02*
X109535000Y-38415000D01*
X109535000Y-38415000D02*
X109535000Y-36510000D01*
X109535000Y-36510000D02*
X110805000Y-35240000D01*
X86675000Y-25080000D02*
X86040000Y-24445000D01*
X120330000Y-36510000D02*
X119060000Y-36510000D01*
X119060000Y-36510000D02*
X118425000Y-35875000D01*
X118425000Y-35875000D02*
X118425000Y-35240000D01*
X120330000Y-39050000D02*
X118425000Y-39050000D01*
X118425000Y-39050000D02*
X117790000Y-38415000D01*
D13*
X104400000Y-116500000D03*
X110350000Y-116500000D03*
X104400000Y-170500000D03*
X111850000Y-170500000D03*
X43350000Y-37150000D03*
X42700000Y-27724000D03*
X42426000Y-40650000D03*
X47950000Y-41126000D03*
X56129000Y-22400000D03*
X67255000Y-29600000D03*
X73881000Y-24887000D03*
X77881000Y-24887000D03*
X70629000Y-35400000D03*
X73629000Y-35400000D03*
X76629000Y-35400000D03*
X92795000Y-30600000D03*
X96669000Y-26400000D03*
X92795000Y-40600000D03*
X96669000Y-36400000D03*
X84129000Y-28900000D03*
X84129000Y-33900000D03*
X108660000Y-32960000D03*
X108186000Y-36150000D03*
X105934000Y-36120000D03*
X110884000Y-31040000D03*
X113610000Y-34230000D03*
X113136000Y-37420000D03*
X110884000Y-37390000D03*
X111611000Y-42650000D03*
X32626000Y-63600000D03*
X33126000Y-66387000D03*
X40779000Y-63900000D03*
X48981000Y-64300000D03*
X60279000Y-63900000D03*
X51005000Y-52374000D03*
X69684000Y-63900000D03*
X77435000Y-62635000D03*
X81911000Y-64555000D03*
X80386000Y-56650000D03*
X73960000Y-66424000D03*
X101426000Y-61450000D03*
X101426000Y-55650000D03*
X31651000Y-87555000D03*
X25874000Y-79900000D03*
X26374000Y-87900000D03*
X32576000Y-93650000D03*
X34076000Y-97150000D03*
X44374000Y-80900000D03*
X47874000Y-80900000D03*
X64886000Y-82150000D03*
X100951000Y-87555000D03*
X89750000Y-88050000D03*
X104426000Y-80650000D03*
X90550000Y-84050000D03*
X106976000Y-92600000D03*
X32626000Y-117600000D03*
X33126000Y-120387000D03*
X40779000Y-117900000D03*
X48981000Y-118300000D03*
X60279000Y-117900000D03*
X51005000Y-106374000D03*
X69684000Y-117900000D03*
X77435000Y-116635000D03*
X81911000Y-118555000D03*
X80386000Y-110650000D03*
X73960000Y-120424000D03*
X101426000Y-115450000D03*
X100950000Y-107874000D03*
X31651000Y-141555000D03*
X25874000Y-133900000D03*
X26374000Y-141900000D03*
X32576000Y-147650000D03*
X34076000Y-151150000D03*
X44374000Y-134900000D03*
X47874000Y-134900000D03*
X64886000Y-136150000D03*
X100951000Y-141555000D03*
X89750000Y-142050000D03*
X104426000Y-134650000D03*
X90550000Y-138050000D03*
X106976000Y-146600000D03*
X32626000Y-171600000D03*
X33126000Y-174387000D03*
X40779000Y-171900000D03*
X48981000Y-172300000D03*
X60279000Y-171900000D03*
X51005000Y-160374000D03*
X69684000Y-171900000D03*
X77435000Y-170635000D03*
X81911000Y-172555000D03*
X80386000Y-164650000D03*
X73960000Y-174424000D03*
X101426000Y-169450000D03*
X100950000Y-161874000D03*
X31651000Y-195555000D03*
X25874000Y-187900000D03*
X26374000Y-195900000D03*
X32576000Y-201650000D03*
X34076000Y-205150000D03*
X44374000Y-188900000D03*
X47874000Y-188900000D03*
X64886000Y-190150000D03*
X100951000Y-195555000D03*
X89750000Y-196050000D03*
X104426000Y-188650000D03*
X90550000Y-192050000D03*
X106976000Y-200600000D03*
X108350000Y-224100000D03*
X110426000Y-217150000D03*
X66355000Y-32700000D03*
X70165000Y-33335000D03*
X72070000Y-32065000D03*
X34605000Y-85405000D03*
X34605000Y-80960000D03*
X34605000Y-139380000D03*
X34605000Y-134935000D03*
X37145000Y-114615000D03*
X37145000Y-168590000D03*
X54925000Y-59370000D03*
X53020000Y-58100000D03*
X59370000Y-65085000D03*
X57465000Y-63180000D03*
X59370000Y-119060000D03*
X57465000Y-117155000D03*
X59370000Y-173035000D03*
X57465000Y-171130000D03*
X55560000Y-55560000D03*
X53020000Y-55560000D03*
X106995000Y-213675000D03*
X103185000Y-169860000D03*
X88580000Y-60005000D03*
X76515000Y-124140000D03*
X76515000Y-82230000D03*
X89850000Y-213040000D03*
X96200000Y-212405000D03*
X100645000Y-113345000D03*
X101915000Y-213040000D03*
X100645000Y-166685000D03*
X103820000Y-168590000D03*
X100010000Y-220660000D03*
X105725000Y-218755000D03*
X104455000Y-139380000D03*
X101915000Y-138745000D03*
X73975000Y-115250000D03*
X73975000Y-169225000D03*
X73340000Y-127950000D03*
X68895000Y-84135000D03*
X63815000Y-138110000D03*
X68895000Y-192720000D03*
X77150000Y-66990000D03*
X76515000Y-64450000D03*
X73975000Y-68895000D03*
X77785000Y-120330000D03*
X77785000Y-117790000D03*
X73975000Y-124140000D03*
X77150000Y-174940000D03*
X76515000Y-172400000D03*
X74610000Y-176845000D03*
X93660000Y-62545000D03*
X80325000Y-121600000D03*
X98105000Y-116520000D03*
X98105000Y-170495000D03*
X99375000Y-85405000D03*
X82865000Y-61275000D03*
X99375000Y-139380000D03*
X88580000Y-117790000D03*
X99375000Y-193355000D03*
X82865000Y-169225000D03*
X30160000Y-92390000D03*
X30160000Y-146365000D03*
X31430000Y-96200000D03*
X31430000Y-150175000D03*
X92390000Y-35875000D03*
X91755000Y-89850000D03*
X93660000Y-85405000D03*
X91755000Y-143825000D03*
X93660000Y-139380000D03*
X91755000Y-197800000D03*
X93660000Y-193355000D03*
X106995000Y-113345000D03*
X106995000Y-167320000D03*
X89850000Y-61275000D03*
X105090000Y-32065000D03*
X60005000Y-144460000D03*
X105090000Y-34605000D03*
X91120000Y-155255000D03*
X110805000Y-35240000D03*
X86675000Y-25080000D03*
X86040000Y-24445000D03*
X118425000Y-35240000D03*
X117790000Y-38415000D03*
D14*
X30350000Y-32000000D03*
D15*
X30350000Y-34540000D03*
D14*
X121000000Y-34500000D03*
D15*
X121000000Y-37040000D03*
X121000000Y-39580000D03*
D16*
X35350000Y-39500000D03*
X35350000Y-43500000D03*
X50850000Y-40000000D03*
X81255000Y-27000000D03*
X101795000Y-28000000D03*
D14*
X27000000Y-61000000D03*
D15*
X27000000Y-63540000D03*
D17*
X119000000Y-59500000D03*
X116460000Y-56960000D03*
X121540000Y-56960000D03*
X116460000Y-62040000D03*
X121540000Y-62040000D03*
D14*
X36460000Y-94500000D03*
D15*
X39000000Y-94500000D03*
X41540000Y-94500000D03*
D18*
X42690000Y-89000000D03*
D19*
X50310000Y-89000000D03*
D14*
X67270000Y-86500000D03*
D15*
X69810000Y-86500000D03*
X72350000Y-86500000D03*
D16*
X31500000Y-57000000D03*
X31500000Y-53000000D03*
X30000000Y-72500000D03*
X72310000Y-57000000D03*
X68310000Y-71000000D03*
X85810000Y-64500000D03*
D14*
X27000000Y-115000000D03*
D15*
X27000000Y-117540000D03*
D17*
X119000000Y-113500000D03*
X116460000Y-110960000D03*
X121540000Y-110960000D03*
X116460000Y-116040000D03*
X121540000Y-116040000D03*
D14*
X36460000Y-148500000D03*
D15*
X39000000Y-148500000D03*
X41540000Y-148500000D03*
D18*
X42690000Y-143000000D03*
D19*
X50310000Y-143000000D03*
D14*
X67270000Y-140500000D03*
D15*
X69810000Y-140500000D03*
X72350000Y-140500000D03*
D16*
X31500000Y-111000000D03*
X31500000Y-107000000D03*
X30000000Y-126500000D03*
X72310000Y-111000000D03*
X68310000Y-125000000D03*
X85810000Y-118500000D03*
D14*
X27000000Y-169000000D03*
D15*
X27000000Y-171540000D03*
D17*
X119000000Y-167500000D03*
X116460000Y-164960000D03*
X121540000Y-164960000D03*
X116460000Y-170040000D03*
X121540000Y-170040000D03*
D14*
X36460000Y-202500000D03*
D15*
X39000000Y-202500000D03*
X41540000Y-202500000D03*
D18*
X42690000Y-197000000D03*
D19*
X50310000Y-197000000D03*
D14*
X67270000Y-194500000D03*
D15*
X69810000Y-194500000D03*
X72350000Y-194500000D03*
D16*
X31500000Y-165000000D03*
X31500000Y-161000000D03*
X30000000Y-180500000D03*
X72310000Y-165000000D03*
X68310000Y-179000000D03*
X85810000Y-172500000D03*
D14*
X90350000Y-214500000D03*
D15*
X90350000Y-217040000D03*
D14*
X96350000Y-214500000D03*
D15*
X96350000Y-217040000D03*
D14*
X102350000Y-214500000D03*
D15*
X102350000Y-217040000D03*
D17*
X119000000Y-221000000D03*
X116460000Y-218460000D03*
X121540000Y-218460000D03*
X116460000Y-223540000D03*
X121540000Y-223540000D03*
D16*
X111500000Y-230000000D03*
D20*
X24000000Y-24000000D03*
X119000000Y-24000000D03*
X24000000Y-231000000D03*
X119000000Y-231000000D03*
X24000000Y-101000000D03*
X119000000Y-101000000D03*
X24000000Y-155000000D03*
X119000000Y-155000000D03*
M02*
