M48
METRIC,TZ
T1C0.400
T2C0.800
T3C0.900
T4C1.000
%
G90
G05
T1
X28.874Y-31.900
X28.874Y-86.900
X28.874Y-141.900
X35.874Y-31.900
X35.874Y-86.900
X35.874Y-141.900
X44.076Y-32.300
X44.076Y-87.300
X44.076Y-142.300
X55.374Y-31.900
X55.374Y-86.900
X55.374Y-141.900
X62.874Y-31.900
X62.874Y-86.900
X62.874Y-141.900
X46.750Y-21.500
X46.100Y-75.374
X46.100Y-130.374
X70.625Y-30.635
X75.101Y-32.555
X70.625Y-85.635
X75.101Y-87.555
X70.625Y-140.635
X75.101Y-142.555
X73.576Y-24.650
X73.576Y-79.650
X73.576Y-134.650
X67.150Y-34.424
X67.150Y-89.424
X67.150Y-144.424
X87.601Y-42.555
X87.601Y-97.555
X87.601Y-152.555
X76.400Y-43.050
X76.400Y-98.050
X76.400Y-153.050
X91.076Y-35.650
X91.076Y-90.650
X91.076Y-145.650
X77.200Y-39.050
X77.200Y-94.050
X77.200Y-149.050
X93.626Y-47.600
X93.626Y-102.600
X93.626Y-157.600
X58.076Y-46.650
X58.076Y-101.650
X58.076Y-156.650
X75.000Y-53.600
X81.250Y-45.724
X34.500Y-47.100
X22.874Y-39.400
X41.126Y-42.388
X43.350Y-41.912
X26.076Y-58.650
X26.076Y-61.650
X26.076Y-64.650
X45.651Y-62.555
X45.651Y-117.555
X45.651Y-172.555
X39.874Y-54.900
X39.874Y-109.900
X39.874Y-164.900
X40.374Y-62.900
X40.374Y-117.900
X40.374Y-172.900
X46.576Y-68.650
X46.576Y-123.650
X46.576Y-178.650
X48.076Y-72.150
X48.076Y-127.150
X48.076Y-182.150
X67.000Y-63.600
X63.576Y-58.150
X35.962Y-38.300
X35.962Y-93.300
X35.962Y-148.300
X94.376Y-61.450
X86.000Y-70.650
X84.874Y-61.700
X82.076Y-62.150
X90.076Y-54.450
X90.076Y-109.450
X90.076Y-164.450
X83.374Y-50.900
X83.374Y-105.900
X83.374Y-160.900
X84.000Y-123.100
X85.374Y-113.900
X35.240Y-50.480
X35.875Y-47.305
X31.430Y-42.225
X47.305Y-54.290
X47.940Y-112.075
X48.575Y-115.885
X46.035Y-110.170
X42.860Y-113.345
X46.035Y-165.415
X45.400Y-169.225
X51.115Y-136.205
X48.575Y-136.205
X39.685Y-83.500
X51.115Y-83.500
X54.290Y-33.335
X53.020Y-31.430
X54.290Y-88.580
X52.385Y-86.675
X37.780Y-43.495
X65.085Y-56.830
X51.115Y-48.575
X44.130Y-21.905
X47.305Y-23.175
X70.800Y-28.255
X68.895Y-26.985
X78.420Y-61.910
X72.070Y-82.865
X65.085Y-82.865
X53.655Y-79.055
X66.355Y-80.325
X49.845Y-78.420
X44.130Y-77.150
X48.575Y-77.785
X72.070Y-138.110
X64.450Y-138.745
X48.575Y-133.030
X52.385Y-131.125
X68.895Y-88.580
X63.815Y-82.865
X68.260Y-143.190
X63.180Y-138.745
X65.720Y-115.885
X68.895Y-93.660
X90.485Y-59.370
X89.215Y-114.615
X79.690Y-120.965
X80.960Y-117.155
X91.120Y-95.565
X88.580Y-94.295
X70.165Y-29.525
X65.085Y-91.120
X65.085Y-86.040
X73.975Y-144.460
X66.355Y-157.160
X62.545Y-47.940
X62.545Y-104.455
X65.085Y-35.875
X69.530Y-35.875
X66.355Y-94.295
X65.720Y-99.375
X68.260Y-96.835
X70.800Y-93.660
X67.625Y-148.270
X70.165Y-148.270
X72.705Y-35.240
X73.340Y-30.795
X87.945Y-54.925
X72.705Y-91.120
X77.150Y-86.675
X87.945Y-107.630
X94.295Y-93.660
X72.705Y-145.095
X73.340Y-140.650
X87.945Y-165.415
X88.580Y-95.565
X91.120Y-96.835
X79.055Y-84.135
X75.880Y-84.135
X79.690Y-139.380
X75.880Y-139.380
X44.130Y-122.235
X45.400Y-126.045
X66.990Y-60.640
X63.815Y-60.005
X78.420Y-44.765
X80.325Y-40.955
X78.420Y-99.375
X80.325Y-95.565
X78.420Y-154.620
X80.325Y-150.810
X76.515Y-141.285
X65.085Y-145.730
X65.085Y-148.270
X92.390Y-43.495
X92.390Y-39.685
X92.390Y-153.985
X92.390Y-149.540
X89.850Y-56.195
X91.755Y-107.630
X59.370Y-94.295
X59.370Y-86.040
X58.100Y-82.865
X62.545Y-77.785
X96.835Y-75.245
X77.785Y-82.865
X70.800Y-86.675
X72.070Y-89.215
X73.975Y-88.580
X75.245Y-89.850
X92.390Y-91.120
T2
X56.690Y-64.000
X64.310Y-64.000
X56.690Y-119.000
X64.310Y-119.000
X56.690Y-174.000
X64.310Y-174.000
X96.000Y-55.000
X93.460Y-52.460
X98.540Y-52.460
X93.460Y-57.540
X98.540Y-57.540
X96.000Y-110.000
X93.460Y-107.460
X98.540Y-107.460
X93.460Y-112.540
X98.540Y-112.540
X96.000Y-165.000
X93.460Y-162.460
X98.540Y-162.460
X93.460Y-167.540
X98.540Y-167.540
X96.000Y-121.000
X93.460Y-118.460
X98.540Y-118.460
X93.460Y-123.540
X98.540Y-123.540
T3
X60.460Y-51.000
X63.000Y-51.000
X65.540Y-51.000
X60.460Y-106.000
X63.000Y-106.000
X65.540Y-106.000
X60.460Y-161.000
X63.000Y-161.000
X65.540Y-161.000
X50.460Y-69.500
X53.000Y-69.500
X55.540Y-69.500
X50.460Y-124.500
X53.000Y-124.500
X55.540Y-124.500
X50.460Y-179.500
X53.000Y-179.500
X55.540Y-179.500
T4
X24.000Y-29.000
X24.000Y-31.540
X24.000Y-84.000
X24.000Y-86.540
X24.000Y-139.000
X24.000Y-141.540
X96.500Y-65.000
X96.500Y-67.540
X97.000Y-22.000
X97.000Y-26.000
X97.000Y-30.000
X97.000Y-34.000
X97.000Y-38.000
X97.000Y-42.000
X97.000Y-77.000
X97.000Y-81.000
X97.000Y-85.000
X97.000Y-89.000
X97.000Y-93.000
X97.000Y-97.000
X97.000Y-132.000
X97.000Y-136.000
X97.000Y-140.000
X97.000Y-144.000
X97.000Y-148.000
X97.000Y-152.000
X77.000Y-126.000
X79.540Y-126.000
X82.500Y-126.000
X85.040Y-126.000
X88.000Y-126.000
X90.540Y-126.000
X49.000Y-47.000
X92.500Y-71.000
X79.000Y-71.000
X72.500Y-47.000
X94.000Y-127.500
X84.500Y-72.500
M30
