%TF.GenerationSoftware,rivgen,1.0*%
%TF.FileFunction,Copper,L1,Top*%
%FSLAX46Y46*%
%MOMM*%
%LPD*%
G01*
%ADD10C,0.300*%
%ADD11C,0.500*%
%ADD12C,0.400*%
%ADD13C,0.800*%
%ADD14R,1.700X1.700*%
%ADD15C,1.700*%
%ADD16R,1.500X2.000*%
%ADD17R,3.600X2.200*%
%ADD18R,1.150X1.450*%
%ADD19R,1.450X1.150*%
%ADD20R,5.800X2.200*%
%ADD21R,0.600X1.100*%
%ADD22R,2.800X1.150*%
%ADD23R,1.800X1.150*%
%ADD24R,1.950X0.600*%
%ADD25C,2.000*%
%ADD26R,0.900X1.000*%
%ADD27C,1.500*%
%ADD28R,1.600X1.600*%
%ADD29C,1.600*%
D10*
X58050000Y-28300000D02*
X58050000Y-30160000D01*
X59000000Y-28300000D02*
X59000000Y-30160000D01*
X59950000Y-28300000D02*
X59950000Y-30160000D01*
X59950000Y-25700000D02*
X61910000Y-25700000D01*
X59000000Y-25700000D02*
X59000000Y-23810000D01*
X58050000Y-25700000D02*
X58050000Y-23810000D01*
X81050000Y-29300000D02*
X81050000Y-30795000D01*
X82000000Y-29300000D02*
X82000000Y-30795000D01*
X82950000Y-29300000D02*
X82950000Y-30795000D01*
X82000000Y-26700000D02*
X82000000Y-25080000D01*
X81050000Y-39300000D02*
X79055000Y-39300000D01*
X82000000Y-39300000D02*
X82000000Y-40955000D01*
X82950000Y-39300000D02*
X82950000Y-40955000D01*
X82000000Y-36700000D02*
X82000000Y-35240000D01*
X97025000Y-27190000D02*
X94930000Y-27190000D01*
X97025000Y-28460000D02*
X94930000Y-28460000D01*
X97025000Y-29730000D02*
X94930000Y-29730000D01*
X97025000Y-31000000D02*
X94930000Y-31000000D01*
X97025000Y-32270000D02*
X94930000Y-32270000D01*
X97025000Y-33540000D02*
X94930000Y-33540000D01*
X97025000Y-34810000D02*
X94930000Y-34810000D01*
X101975000Y-27190000D02*
X103820000Y-27190000D01*
X101975000Y-28460000D02*
X103820000Y-28460000D01*
X101975000Y-29730000D02*
X103820000Y-29730000D01*
X101975000Y-31000000D02*
X103820000Y-31000000D01*
X101975000Y-32270000D02*
X103820000Y-32270000D01*
X101975000Y-33540000D02*
X103820000Y-33540000D01*
X101975000Y-34810000D02*
X103820000Y-34810000D01*
X72025000Y-60095000D02*
X70165000Y-60095000D01*
X72025000Y-61365000D02*
X70165000Y-61365000D01*
X72025000Y-62635000D02*
X70165000Y-62635000D01*
X72025000Y-63905000D02*
X70165000Y-63905000D01*
X76975000Y-60095000D02*
X79055000Y-60095000D01*
X76975000Y-61365000D02*
X79055000Y-61365000D01*
X76975000Y-62635000D02*
X79055000Y-62635000D01*
X76975000Y-63905000D02*
X79055000Y-63905000D01*
X93000000Y-60800000D02*
X93000000Y-62545000D01*
X93950000Y-60800000D02*
X93950000Y-62545000D01*
X93950000Y-58200000D02*
X93950000Y-56830000D01*
X93000000Y-58200000D02*
X93000000Y-56830000D01*
X30525000Y-84365000D02*
X28255000Y-84365000D01*
X30525000Y-85635000D02*
X28255000Y-85635000D01*
X30525000Y-86905000D02*
X28255000Y-86905000D01*
X35475000Y-84365000D02*
X37780000Y-84365000D01*
X35475000Y-85635000D02*
X37780000Y-85635000D01*
X93475000Y-86905000D02*
X95565000Y-86905000D01*
X93475000Y-85635000D02*
X95565000Y-85635000D01*
X93475000Y-84365000D02*
X95565000Y-84365000D01*
X93475000Y-83095000D02*
X95565000Y-83095000D01*
X88525000Y-86905000D02*
X86675000Y-86905000D01*
X88525000Y-85635000D02*
X86675000Y-85635000D01*
X88525000Y-84365000D02*
X86675000Y-84365000D01*
X88525000Y-83095000D02*
X86675000Y-83095000D01*
X72025000Y-112095000D02*
X70165000Y-112095000D01*
X72025000Y-113365000D02*
X70165000Y-113365000D01*
X72025000Y-114635000D02*
X70165000Y-114635000D01*
X72025000Y-115905000D02*
X70165000Y-115905000D01*
X76975000Y-112095000D02*
X79055000Y-112095000D01*
X76975000Y-113365000D02*
X79055000Y-113365000D01*
X76975000Y-114635000D02*
X79055000Y-114635000D01*
X76975000Y-115905000D02*
X79055000Y-115905000D01*
X93000000Y-112800000D02*
X93000000Y-114615000D01*
X93950000Y-112800000D02*
X93950000Y-114615000D01*
X93950000Y-110200000D02*
X93950000Y-108265000D01*
X93000000Y-110200000D02*
X93000000Y-108265000D01*
X30525000Y-136365000D02*
X28255000Y-136365000D01*
X30525000Y-137635000D02*
X28255000Y-137635000D01*
X30525000Y-138905000D02*
X28255000Y-138905000D01*
X35475000Y-136365000D02*
X37780000Y-136365000D01*
X35475000Y-137635000D02*
X37780000Y-137635000D01*
X93475000Y-138905000D02*
X95565000Y-138905000D01*
X93475000Y-137635000D02*
X95565000Y-137635000D01*
X93475000Y-136365000D02*
X95565000Y-136365000D01*
X93475000Y-135095000D02*
X95565000Y-135095000D01*
X88525000Y-138905000D02*
X86675000Y-138905000D01*
X88525000Y-137635000D02*
X86675000Y-137635000D01*
X88525000Y-136365000D02*
X86675000Y-136365000D01*
X88525000Y-135095000D02*
X86675000Y-135095000D01*
X72025000Y-164095000D02*
X70165000Y-164095000D01*
X72025000Y-165365000D02*
X70165000Y-165365000D01*
X72025000Y-166635000D02*
X70165000Y-166635000D01*
X72025000Y-167905000D02*
X70165000Y-167905000D01*
X76975000Y-164095000D02*
X79055000Y-164095000D01*
X76975000Y-165365000D02*
X79055000Y-165365000D01*
X76975000Y-166635000D02*
X79055000Y-166635000D01*
X76975000Y-167905000D02*
X79055000Y-167905000D01*
X93000000Y-164800000D02*
X93000000Y-166685000D01*
X93950000Y-164800000D02*
X93950000Y-166685000D01*
X93950000Y-162200000D02*
X93950000Y-160335000D01*
X93000000Y-162200000D02*
X93000000Y-160335000D01*
X30525000Y-188365000D02*
X28255000Y-188365000D01*
X30525000Y-189635000D02*
X28255000Y-189635000D01*
X30525000Y-190905000D02*
X28255000Y-190905000D01*
X35475000Y-188365000D02*
X37780000Y-188365000D01*
X35475000Y-189635000D02*
X37780000Y-189635000D01*
X93475000Y-190905000D02*
X95565000Y-190905000D01*
X93475000Y-189635000D02*
X95565000Y-189635000D01*
X93475000Y-188365000D02*
X95565000Y-188365000D01*
X93475000Y-187095000D02*
X95565000Y-187095000D01*
X88525000Y-190905000D02*
X86675000Y-190905000D01*
X88525000Y-189635000D02*
X86675000Y-189635000D01*
X88525000Y-188365000D02*
X86675000Y-188365000D01*
X88525000Y-187095000D02*
X86675000Y-187095000D01*
X101050000Y-216800000D02*
X101050000Y-218755000D01*
X102000000Y-216800000D02*
X102000000Y-218755000D01*
X102950000Y-216800000D02*
X102950000Y-218755000D01*
X102950000Y-214200000D02*
X102950000Y-212405000D01*
X102000000Y-214200000D02*
X102000000Y-212405000D01*
X101050000Y-214200000D02*
X101050000Y-212405000D01*
X98050000Y-58200000D02*
X98050000Y-62500000D01*
X98050000Y-62500000D02*
X102500000Y-62500000D01*
X102500000Y-62500000D02*
X102500000Y-204000000D01*
X102500000Y-204000000D02*
X84000000Y-204000000D01*
X84000000Y-204000000D02*
X84000000Y-208500000D01*
X98050000Y-110200000D02*
X98050000Y-114500000D01*
X104000000Y-114500000D02*
X104000000Y-205000000D01*
X104000000Y-205000000D02*
X90000000Y-205000000D01*
X90000000Y-205000000D02*
X90000000Y-208500000D01*
X98050000Y-162200000D02*
X98050000Y-166500000D01*
X105500000Y-166500000D02*
X105500000Y-206000000D01*
X105500000Y-206000000D02*
X96000000Y-206000000D01*
X96000000Y-206000000D02*
X96000000Y-208500000D01*
D11*
X37000000Y-35150000D02*
X37000000Y-37150000D01*
X37000000Y-28850000D02*
X35874000Y-28200000D01*
X34950000Y-40000000D02*
X36076000Y-40650000D01*
X40950000Y-40000000D02*
X41600000Y-41126000D01*
X49000000Y-23050000D02*
X47874000Y-22400000D01*
X59000000Y-28300000D02*
X59000000Y-29600000D01*
X64500000Y-25537500D02*
X65626000Y-24887000D01*
X68500000Y-25537500D02*
X69626000Y-24887000D01*
X63500000Y-36050000D02*
X62374000Y-35400000D01*
X66500000Y-36050000D02*
X65374000Y-35400000D01*
X69500000Y-36050000D02*
X68374000Y-35400000D01*
X82000000Y-29300000D02*
X82000000Y-30600000D01*
X87000000Y-27050000D02*
X85874000Y-26400000D01*
X82000000Y-39300000D02*
X82000000Y-40600000D01*
X87000000Y-37050000D02*
X85874000Y-36400000D01*
X77000000Y-29550000D02*
X75874000Y-28900000D01*
X77000000Y-34550000D02*
X75874000Y-33900000D01*
X97025000Y-28460000D02*
X98625000Y-28460000D01*
X97025000Y-31000000D02*
X98151000Y-31650000D01*
X97025000Y-32270000D02*
X95899000Y-31620000D01*
X101975000Y-27190000D02*
X100849000Y-26540000D01*
X101975000Y-29730000D02*
X103575000Y-29730000D01*
X101975000Y-32270000D02*
X103101000Y-32920000D01*
X101975000Y-33540000D02*
X100849000Y-32890000D01*
X97950000Y-24000000D02*
X99076000Y-24650000D01*
X31500000Y-62950000D02*
X32626000Y-63600000D01*
X32000000Y-67037500D02*
X33126000Y-66387000D01*
X40000000Y-64550000D02*
X38874000Y-63900000D01*
X45950000Y-63650000D02*
X47076000Y-64300000D01*
X59500000Y-64550000D02*
X58374000Y-63900000D01*
X48450000Y-53500000D02*
X49100000Y-52374000D01*
X67000000Y-64550000D02*
X65874000Y-63900000D01*
X72025000Y-62635000D02*
X73625000Y-62635000D01*
X76975000Y-63905000D02*
X78101000Y-64555000D01*
X75450000Y-56000000D02*
X76576000Y-56650000D01*
X69500000Y-67550000D02*
X70150000Y-66424000D01*
X93950000Y-60800000D02*
X95076000Y-61450000D01*
X93950000Y-55000000D02*
X95076000Y-55650000D01*
X30525000Y-86905000D02*
X31651000Y-87555000D01*
X27000000Y-80550000D02*
X25874000Y-79900000D01*
X27500000Y-88550000D02*
X26374000Y-87900000D01*
X31450000Y-93000000D02*
X32576000Y-93650000D01*
X32950000Y-96500000D02*
X34076000Y-97150000D01*
X45500000Y-81550000D02*
X44374000Y-80900000D01*
X49000000Y-81550000D02*
X47874000Y-80900000D01*
X59950000Y-81500000D02*
X61076000Y-82150000D01*
X93475000Y-86905000D02*
X94601000Y-87555000D01*
X85000000Y-88050000D02*
X83400000Y-88050000D01*
X96950000Y-80000000D02*
X98076000Y-80650000D01*
X85500000Y-84050000D02*
X84200000Y-84050000D01*
X99500000Y-91950000D02*
X100626000Y-92600000D01*
X31500000Y-114950000D02*
X32626000Y-115600000D01*
X32000000Y-119037500D02*
X33126000Y-118387000D01*
X40000000Y-116550000D02*
X38874000Y-115900000D01*
X45950000Y-115650000D02*
X47076000Y-116300000D01*
X59500000Y-116550000D02*
X58374000Y-115900000D01*
X48450000Y-105500000D02*
X49100000Y-104374000D01*
X67000000Y-116550000D02*
X65874000Y-115900000D01*
X72025000Y-114635000D02*
X73625000Y-114635000D01*
X76975000Y-115905000D02*
X78101000Y-116555000D01*
X75450000Y-108000000D02*
X76576000Y-108650000D01*
X69500000Y-119550000D02*
X70150000Y-118424000D01*
X93950000Y-112800000D02*
X95076000Y-113450000D01*
X93950000Y-107000000D02*
X95076000Y-106350000D01*
X30525000Y-138905000D02*
X31651000Y-139555000D01*
X27000000Y-132550000D02*
X25874000Y-131900000D01*
X27500000Y-140550000D02*
X26374000Y-139900000D01*
X31450000Y-145000000D02*
X32576000Y-145650000D01*
X32950000Y-148500000D02*
X34076000Y-149150000D01*
X45500000Y-133550000D02*
X44374000Y-132900000D01*
X49000000Y-133550000D02*
X47874000Y-132900000D01*
X59950000Y-133500000D02*
X61076000Y-134150000D01*
X93475000Y-138905000D02*
X94601000Y-139555000D01*
X85000000Y-140050000D02*
X83400000Y-140050000D01*
X96950000Y-132000000D02*
X98076000Y-132650000D01*
X85500000Y-136050000D02*
X84200000Y-136050000D01*
X99500000Y-143950000D02*
X100626000Y-144600000D01*
X31500000Y-166950000D02*
X32626000Y-167600000D01*
X32000000Y-171037500D02*
X33126000Y-170387000D01*
X40000000Y-168550000D02*
X38874000Y-167900000D01*
X45950000Y-167650000D02*
X47076000Y-168300000D01*
X59500000Y-168550000D02*
X58374000Y-167900000D01*
X48450000Y-157500000D02*
X49100000Y-156374000D01*
X67000000Y-168550000D02*
X65874000Y-167900000D01*
X72025000Y-166635000D02*
X73625000Y-166635000D01*
X76975000Y-167905000D02*
X78101000Y-168555000D01*
X75450000Y-160000000D02*
X76576000Y-160650000D01*
X69500000Y-171550000D02*
X70150000Y-170424000D01*
X93950000Y-164800000D02*
X95076000Y-165450000D01*
X93950000Y-159000000D02*
X95076000Y-158350000D01*
X30525000Y-190905000D02*
X31651000Y-191555000D01*
X27000000Y-184550000D02*
X25874000Y-183900000D01*
X27500000Y-192550000D02*
X26374000Y-191900000D01*
X31450000Y-197000000D02*
X32576000Y-197650000D01*
X32950000Y-200500000D02*
X34076000Y-201150000D01*
X45500000Y-185550000D02*
X44374000Y-184900000D01*
X49000000Y-185550000D02*
X47874000Y-184900000D01*
X59950000Y-185500000D02*
X61076000Y-186150000D01*
X93475000Y-190905000D02*
X94601000Y-191555000D01*
X85000000Y-192050000D02*
X83400000Y-192050000D01*
X96950000Y-184000000D02*
X98076000Y-184650000D01*
X85500000Y-188050000D02*
X84200000Y-188050000D01*
X99500000Y-195950000D02*
X100626000Y-196600000D01*
X102000000Y-216800000D02*
X102000000Y-218100000D01*
X102950000Y-210500000D02*
X104076000Y-211150000D01*
X33050000Y-40000000D02*
X32700000Y-39685000D01*
X32700000Y-39685000D02*
X30050000Y-39685000D01*
X33970000Y-35875000D02*
X32700000Y-35875000D01*
X32700000Y-35875000D02*
X32065000Y-36510000D01*
X32065000Y-36510000D02*
X31430000Y-37145000D01*
X31430000Y-37145000D02*
X30795000Y-37780000D01*
X30795000Y-37780000D02*
X30160000Y-38415000D01*
X30160000Y-38415000D02*
X30050000Y-38450000D01*
X48575000Y-33335000D02*
X34605000Y-33335000D01*
X34605000Y-33335000D02*
X33970000Y-33970000D01*
X33970000Y-33970000D02*
X33970000Y-34100000D01*
X49000000Y-24950000D02*
X48575000Y-25080000D01*
X48575000Y-25080000D02*
X48575000Y-25715000D01*
X48575000Y-25715000D02*
X47940000Y-26350000D01*
X47940000Y-26350000D02*
X47305000Y-26985000D01*
X47305000Y-26985000D02*
X47305000Y-27620000D01*
X47305000Y-27620000D02*
X46670000Y-28255000D01*
X46670000Y-28255000D02*
X46035000Y-28890000D01*
X46035000Y-28890000D02*
X45400000Y-29525000D01*
X45400000Y-29525000D02*
X44130000Y-30795000D01*
X44130000Y-30795000D02*
X43495000Y-31430000D01*
X43495000Y-31430000D02*
X42860000Y-32065000D01*
X42860000Y-32065000D02*
X42225000Y-32700000D01*
X42225000Y-32700000D02*
X42225000Y-33085000D01*
X58050000Y-25700000D02*
X58100000Y-25715000D01*
X58100000Y-25715000D02*
X49845000Y-25715000D01*
X49845000Y-25715000D02*
X49775000Y-25575000D01*
X59950000Y-25700000D02*
X60005000Y-25715000D01*
X60005000Y-25715000D02*
X60005000Y-26985000D01*
X60005000Y-26985000D02*
X47940000Y-26985000D01*
X47940000Y-26985000D02*
X47799000Y-26844000D01*
X81050000Y-29300000D02*
X80960000Y-28890000D01*
X80960000Y-28890000D02*
X79055000Y-28890000D01*
X79055000Y-28890000D02*
X78420000Y-28255000D01*
X78420000Y-28255000D02*
X77785000Y-28255000D01*
X77785000Y-28255000D02*
X77150000Y-27620000D01*
X77150000Y-27620000D02*
X75245000Y-27620000D01*
X75245000Y-27620000D02*
X75245000Y-25080000D01*
X75245000Y-25080000D02*
X70800000Y-25080000D01*
X70800000Y-25080000D02*
X70800000Y-26350000D01*
X70800000Y-26350000D02*
X70165000Y-26985000D01*
X70165000Y-26985000D02*
X60255000Y-26985000D01*
X82950000Y-30795000D02*
X82865000Y-30795000D01*
X82865000Y-30795000D02*
X82865000Y-32065000D01*
X82865000Y-32065000D02*
X80960000Y-32065000D01*
X80960000Y-32065000D02*
X80960000Y-30795000D01*
X79055000Y-39300000D02*
X79055000Y-39050000D01*
X79055000Y-39050000D02*
X75880000Y-39050000D01*
X75880000Y-39050000D02*
X75245000Y-38415000D01*
X75245000Y-38415000D02*
X73975000Y-37145000D01*
X73975000Y-37145000D02*
X73340000Y-36510000D01*
X73340000Y-36510000D02*
X72070000Y-35240000D01*
X72070000Y-35240000D02*
X71435000Y-34605000D01*
X71435000Y-34605000D02*
X70165000Y-34605000D01*
X70165000Y-34605000D02*
X69530000Y-33970000D01*
X69530000Y-33970000D02*
X61275000Y-33970000D01*
X61275000Y-33970000D02*
X61275000Y-34605000D01*
X61275000Y-34605000D02*
X55560000Y-34605000D01*
X55560000Y-34605000D02*
X54925000Y-33970000D01*
X54925000Y-33970000D02*
X54290000Y-33335000D01*
X54290000Y-33335000D02*
X53950000Y-33335000D01*
X82950000Y-40955000D02*
X82865000Y-40955000D01*
X82865000Y-40955000D02*
X82865000Y-42225000D01*
X82865000Y-42225000D02*
X80325000Y-42225000D01*
X80325000Y-42225000D02*
X79690000Y-41590000D01*
X79690000Y-41590000D02*
X79055000Y-40955000D01*
X79055000Y-40955000D02*
X77785000Y-39685000D01*
X77785000Y-39685000D02*
X77785000Y-39300000D01*
X58050000Y-28300000D02*
X58100000Y-28255000D01*
X58100000Y-28255000D02*
X53950000Y-28255000D01*
D12*
X59370000Y-24445000D02*
X59150000Y-24445000D01*
X67625000Y-28255000D02*
X65950000Y-28255000D01*
X72070000Y-27620000D02*
X71435000Y-27620000D01*
X71435000Y-27620000D02*
X70800000Y-28255000D01*
X70800000Y-28255000D02*
X69450000Y-28255000D01*
X77000000Y-25950000D02*
X76515000Y-25715000D01*
X58050000Y-33000000D02*
X58100000Y-32700000D01*
X58100000Y-32700000D02*
X58100000Y-31430000D01*
X58100000Y-31430000D02*
X62545000Y-31430000D01*
X62545000Y-31430000D02*
X63180000Y-30795000D01*
X63180000Y-30795000D02*
X63815000Y-30160000D01*
X63815000Y-30160000D02*
X64450000Y-29525000D01*
X64450000Y-29525000D02*
X64450000Y-29088000D01*
X58050000Y-36500000D02*
X58100000Y-35875000D01*
X37780000Y-84365000D02*
X37780000Y-79055000D01*
X37780000Y-79055000D02*
X39050000Y-77785000D01*
X39050000Y-77785000D02*
X39685000Y-77150000D01*
X39685000Y-77150000D02*
X40955000Y-75880000D01*
X40955000Y-75880000D02*
X41590000Y-75245000D01*
X41590000Y-75245000D02*
X41590000Y-74610000D01*
X41590000Y-74610000D02*
X42225000Y-73975000D01*
X42225000Y-73975000D02*
X42225000Y-71435000D01*
X42225000Y-71435000D02*
X42860000Y-70800000D01*
X42860000Y-70800000D02*
X43495000Y-70165000D01*
X43495000Y-70165000D02*
X44130000Y-69530000D01*
X44130000Y-69530000D02*
X44765000Y-68895000D01*
X44765000Y-68895000D02*
X45400000Y-68260000D01*
X45400000Y-68260000D02*
X46035000Y-67625000D01*
X46035000Y-67625000D02*
X46670000Y-66990000D01*
X46670000Y-66990000D02*
X47305000Y-66355000D01*
X47305000Y-66355000D02*
X47940000Y-65720000D01*
X47940000Y-65720000D02*
X48575000Y-65085000D01*
X48575000Y-65085000D02*
X48575000Y-62545000D01*
X48575000Y-62545000D02*
X49210000Y-61910000D01*
X49210000Y-61910000D02*
X50480000Y-60640000D01*
X50480000Y-60640000D02*
X51115000Y-60005000D01*
X51115000Y-60005000D02*
X51750000Y-59370000D01*
X51750000Y-59370000D02*
X52385000Y-58735000D01*
X52385000Y-58735000D02*
X52385000Y-46035000D01*
X52385000Y-46035000D02*
X53020000Y-45400000D01*
X53020000Y-45400000D02*
X54290000Y-44130000D01*
X54290000Y-44130000D02*
X54925000Y-43495000D01*
X54925000Y-43495000D02*
X55560000Y-42860000D01*
X55560000Y-42860000D02*
X58100000Y-40320000D01*
X58100000Y-40320000D02*
X58100000Y-37780000D01*
X58100000Y-37780000D02*
X58735000Y-37145000D01*
X58735000Y-37145000D02*
X58675000Y-37145000D01*
X37780000Y-136365000D02*
X37780000Y-127315000D01*
X37780000Y-127315000D02*
X37145000Y-126680000D01*
X37145000Y-126680000D02*
X36510000Y-126045000D01*
X36510000Y-126045000D02*
X35875000Y-125410000D01*
X35875000Y-125410000D02*
X35875000Y-119695000D01*
X35875000Y-119695000D02*
X35240000Y-119060000D01*
X35240000Y-119060000D02*
X35240000Y-115885000D01*
X35240000Y-115885000D02*
X34605000Y-115250000D01*
X34605000Y-115250000D02*
X33970000Y-114615000D01*
X33970000Y-114615000D02*
X33970000Y-99375000D01*
X33970000Y-99375000D02*
X34605000Y-98740000D01*
X34605000Y-98740000D02*
X35240000Y-98105000D01*
X35240000Y-98105000D02*
X35240000Y-96200000D01*
X35240000Y-96200000D02*
X34605000Y-96200000D01*
X34605000Y-96200000D02*
X34605000Y-89215000D01*
X34605000Y-89215000D02*
X33335000Y-87945000D01*
X33335000Y-87945000D02*
X33335000Y-84135000D01*
X33335000Y-84135000D02*
X34605000Y-84135000D01*
X37780000Y-188365000D02*
X37780000Y-179385000D01*
X37780000Y-179385000D02*
X39050000Y-178115000D01*
X39050000Y-178115000D02*
X39685000Y-177480000D01*
X39685000Y-177480000D02*
X39685000Y-176210000D01*
X39685000Y-176210000D02*
X40320000Y-175575000D01*
X40320000Y-175575000D02*
X40320000Y-173670000D01*
X40320000Y-173670000D02*
X40955000Y-173035000D01*
X40955000Y-173035000D02*
X40955000Y-172400000D01*
X40955000Y-172400000D02*
X41590000Y-171765000D01*
X41590000Y-171765000D02*
X41590000Y-150175000D01*
X41590000Y-150175000D02*
X42225000Y-149540000D01*
X42225000Y-149540000D02*
X43495000Y-148270000D01*
X43495000Y-148270000D02*
X43495000Y-144460000D01*
X43495000Y-144460000D02*
X42860000Y-143825000D01*
X42860000Y-143825000D02*
X41590000Y-142555000D01*
X41590000Y-142555000D02*
X40955000Y-142555000D01*
X40955000Y-142555000D02*
X40955000Y-138745000D01*
X40955000Y-138745000D02*
X40320000Y-138110000D01*
X40320000Y-138110000D02*
X39685000Y-137475000D01*
X39685000Y-137475000D02*
X39050000Y-136840000D01*
X39050000Y-136840000D02*
X38415000Y-136205000D01*
X38415000Y-136205000D02*
X37980000Y-136205000D01*
D10*
X59950000Y-33000000D02*
X60005000Y-32700000D01*
X59950000Y-36500000D02*
X59370000Y-36510000D01*
X63500000Y-37950000D02*
X63180000Y-37780000D01*
X63180000Y-37780000D02*
X61910000Y-37780000D01*
X61910000Y-37780000D02*
X61910000Y-37145000D01*
X61910000Y-37145000D02*
X61275000Y-36510000D01*
X61275000Y-36510000D02*
X60640000Y-35875000D01*
X60640000Y-35875000D02*
X60575000Y-35875000D01*
X66500000Y-37950000D02*
X66355000Y-37780000D01*
X66355000Y-37780000D02*
X65085000Y-37780000D01*
X65085000Y-37780000D02*
X64450000Y-37145000D01*
X64450000Y-37145000D02*
X64275000Y-37325000D01*
X69500000Y-37950000D02*
X68895000Y-37780000D01*
X68895000Y-37780000D02*
X67275000Y-37780000D01*
D12*
X33950000Y-80000000D02*
X33970000Y-79690000D01*
X33970000Y-79690000D02*
X33970000Y-79055000D01*
X33970000Y-79055000D02*
X32700000Y-77785000D01*
X32700000Y-77785000D02*
X32065000Y-77150000D01*
X32065000Y-77150000D02*
X30795000Y-75880000D01*
X30795000Y-75880000D02*
X30160000Y-75245000D01*
X30160000Y-75245000D02*
X29525000Y-74610000D01*
X29525000Y-74610000D02*
X28255000Y-74610000D01*
X28255000Y-74610000D02*
X28255000Y-70075000D01*
X34605000Y-80960000D02*
X34575000Y-80775000D01*
X40050000Y-80000000D02*
X39685000Y-80325000D01*
X39685000Y-80325000D02*
X39685000Y-84770000D01*
X39685000Y-84770000D02*
X39050000Y-85405000D01*
X39050000Y-85405000D02*
X37780000Y-85405000D01*
X37780000Y-85405000D02*
X37780000Y-85485000D01*
X33950000Y-132000000D02*
X33970000Y-131760000D01*
X33970000Y-131760000D02*
X33970000Y-131125000D01*
X33970000Y-131125000D02*
X33335000Y-130490000D01*
X33335000Y-130490000D02*
X32700000Y-129855000D01*
X32700000Y-129855000D02*
X32065000Y-129220000D01*
X32065000Y-129220000D02*
X31430000Y-128585000D01*
X31430000Y-128585000D02*
X30795000Y-127950000D01*
X30795000Y-127950000D02*
X30160000Y-127315000D01*
X30160000Y-127315000D02*
X29525000Y-126680000D01*
X29525000Y-126680000D02*
X28255000Y-126680000D01*
X28255000Y-126680000D02*
X28255000Y-122075000D01*
X34605000Y-137475000D02*
X33335000Y-137475000D01*
X33335000Y-137475000D02*
X33335000Y-132775000D01*
X40050000Y-132000000D02*
X39685000Y-131760000D01*
X39685000Y-131760000D02*
X39050000Y-131760000D01*
X34605000Y-131760000D02*
X34575000Y-131760000D01*
X33950000Y-184000000D02*
X33970000Y-183830000D01*
X33970000Y-183830000D02*
X33970000Y-183195000D01*
X33970000Y-183195000D02*
X32700000Y-181925000D01*
X32700000Y-181925000D02*
X32065000Y-181290000D01*
X32065000Y-181290000D02*
X30795000Y-180020000D01*
X30795000Y-180020000D02*
X30160000Y-179385000D01*
X30160000Y-179385000D02*
X29525000Y-178750000D01*
X29525000Y-178750000D02*
X28255000Y-178750000D01*
X28255000Y-178750000D02*
X28255000Y-174075000D01*
X34605000Y-189545000D02*
X33335000Y-189545000D01*
X33335000Y-189545000D02*
X33335000Y-184775000D01*
X40050000Y-184000000D02*
X39685000Y-184465000D01*
X39685000Y-184465000D02*
X39685000Y-188910000D01*
X39685000Y-188910000D02*
X39050000Y-189545000D01*
X39050000Y-189545000D02*
X37780000Y-189545000D01*
X28000000Y-67550000D02*
X27620000Y-66990000D01*
X27620000Y-66990000D02*
X27620000Y-64440000D01*
X32000000Y-69962500D02*
X31430000Y-69530000D01*
X31430000Y-69530000D02*
X30795000Y-68895000D01*
X30795000Y-68895000D02*
X30160000Y-68260000D01*
X30160000Y-68260000D02*
X29525000Y-67625000D01*
X29525000Y-67625000D02*
X28890000Y-66990000D01*
X28890000Y-66990000D02*
X28775000Y-66990000D01*
X30795000Y-72070000D02*
X30795000Y-70800000D01*
X30795000Y-70800000D02*
X31050000Y-70588000D01*
X28000000Y-119550000D02*
X27620000Y-119060000D01*
X27620000Y-119060000D02*
X27620000Y-116440000D01*
X32000000Y-121962500D02*
X31430000Y-121600000D01*
X31430000Y-121600000D02*
X30795000Y-120965000D01*
X30795000Y-120965000D02*
X29525000Y-119695000D01*
X29525000Y-119695000D02*
X28890000Y-119060000D01*
X28890000Y-119060000D02*
X28775000Y-119060000D01*
X29525000Y-123505000D02*
X29525000Y-120330000D01*
X29525000Y-120330000D02*
X29701000Y-120154000D01*
X28000000Y-171550000D02*
X27620000Y-171130000D01*
X27620000Y-171130000D02*
X27620000Y-168440000D01*
X32000000Y-173962500D02*
X31430000Y-173670000D01*
X31430000Y-173670000D02*
X30795000Y-173035000D01*
X30795000Y-173035000D02*
X30160000Y-172400000D01*
X30160000Y-172400000D02*
X29525000Y-171765000D01*
X29525000Y-171765000D02*
X28890000Y-171130000D01*
X28890000Y-171130000D02*
X28775000Y-171130000D01*
X30795000Y-175575000D02*
X30795000Y-174940000D01*
X30795000Y-174940000D02*
X31050000Y-174588000D01*
D10*
X27000000Y-82450000D02*
X27620000Y-82865000D01*
X27620000Y-82865000D02*
X28255000Y-83500000D01*
X28255000Y-83500000D02*
X28890000Y-84135000D01*
X28890000Y-84135000D02*
X28890000Y-84215000D01*
X32050000Y-80000000D02*
X32065000Y-80325000D01*
X32065000Y-80325000D02*
X31430000Y-80960000D01*
X31430000Y-80960000D02*
X30795000Y-81595000D01*
X30795000Y-81595000D02*
X28890000Y-81595000D01*
X28890000Y-81595000D02*
X28890000Y-83500000D01*
X28890000Y-83500000D02*
X28679000Y-83711000D01*
X27000000Y-134450000D02*
X27620000Y-134935000D01*
X27620000Y-134935000D02*
X28255000Y-135570000D01*
X28255000Y-135570000D02*
X28890000Y-136205000D01*
X28890000Y-136205000D02*
X28890000Y-136215000D01*
X32050000Y-132000000D02*
X32065000Y-132395000D01*
X32065000Y-132395000D02*
X30795000Y-133665000D01*
X30795000Y-133665000D02*
X28890000Y-133665000D01*
X28890000Y-133665000D02*
X28890000Y-134300000D01*
X28890000Y-134300000D02*
X28255000Y-134935000D01*
X28255000Y-134935000D02*
X28044000Y-135146000D01*
X27000000Y-186450000D02*
X27620000Y-187005000D01*
X27620000Y-187005000D02*
X28255000Y-187640000D01*
X28255000Y-187640000D02*
X28890000Y-188275000D01*
X32050000Y-184000000D02*
X32065000Y-184465000D01*
X32065000Y-184465000D02*
X31430000Y-184465000D01*
X31430000Y-184465000D02*
X30795000Y-185100000D01*
X30795000Y-185100000D02*
X30160000Y-185735000D01*
X30160000Y-185735000D02*
X28890000Y-185735000D01*
X28890000Y-185735000D02*
X28890000Y-186370000D01*
X28890000Y-186370000D02*
X28255000Y-187005000D01*
X28255000Y-187005000D02*
X28044000Y-187216000D01*
X30795000Y-60640000D02*
X27900000Y-60640000D01*
X35550000Y-61000000D02*
X35240000Y-60640000D01*
X35240000Y-60640000D02*
X32275000Y-60640000D01*
X30795000Y-57465000D02*
X30795000Y-60425000D01*
X30795000Y-112710000D02*
X27900000Y-112710000D01*
X35550000Y-113000000D02*
X35240000Y-112710000D01*
X30795000Y-109535000D02*
X30795000Y-112425000D01*
X30795000Y-164780000D02*
X27900000Y-164780000D01*
X35550000Y-165000000D02*
X35240000Y-164780000D01*
X35240000Y-164780000D02*
X32275000Y-164780000D01*
X30795000Y-161605000D02*
X30795000Y-164425000D01*
X40000000Y-66450000D02*
X39685000Y-66355000D01*
X39685000Y-66355000D02*
X39050000Y-65720000D01*
X39050000Y-65720000D02*
X38415000Y-65720000D01*
X38415000Y-65720000D02*
X37780000Y-65085000D01*
X37780000Y-65085000D02*
X37780000Y-61775000D01*
X44050000Y-63650000D02*
X44130000Y-63815000D01*
X44130000Y-63815000D02*
X43495000Y-63815000D01*
X43495000Y-63815000D02*
X42860000Y-64450000D01*
X42860000Y-64450000D02*
X42225000Y-65085000D01*
X42225000Y-65085000D02*
X41590000Y-65720000D01*
X41590000Y-65720000D02*
X40955000Y-65720000D01*
X40955000Y-65720000D02*
X40775000Y-65825000D01*
X44050000Y-56500000D02*
X43495000Y-56830000D01*
X43495000Y-56830000D02*
X43495000Y-63180000D01*
X43495000Y-63180000D02*
X43550000Y-63180000D01*
X40000000Y-118450000D02*
X39685000Y-118425000D01*
X39685000Y-118425000D02*
X39050000Y-117790000D01*
X39050000Y-117790000D02*
X38415000Y-117790000D01*
X38415000Y-117790000D02*
X37780000Y-117155000D01*
X37780000Y-117155000D02*
X37780000Y-113775000D01*
X44050000Y-115650000D02*
X44130000Y-115885000D01*
X44130000Y-115885000D02*
X43495000Y-115885000D01*
X43495000Y-115885000D02*
X42860000Y-116520000D01*
X42860000Y-116520000D02*
X41590000Y-117790000D01*
X41590000Y-117790000D02*
X40955000Y-117790000D01*
X40955000Y-117790000D02*
X40775000Y-117825000D01*
X44050000Y-108500000D02*
X43495000Y-108900000D01*
X43495000Y-108900000D02*
X43495000Y-115250000D01*
X43495000Y-115250000D02*
X43550000Y-115250000D01*
X40000000Y-170450000D02*
X39685000Y-169860000D01*
X39685000Y-169860000D02*
X38415000Y-169860000D01*
X38415000Y-169860000D02*
X37780000Y-169225000D01*
X37780000Y-169225000D02*
X37780000Y-165775000D01*
X44050000Y-167650000D02*
X44130000Y-167955000D01*
X44130000Y-167955000D02*
X43495000Y-168590000D01*
X43495000Y-168590000D02*
X42860000Y-169225000D01*
X44050000Y-160500000D02*
X43495000Y-160970000D01*
X43495000Y-160970000D02*
X43495000Y-166685000D01*
X43495000Y-166685000D02*
X43550000Y-167100000D01*
X45950000Y-56500000D02*
X45400000Y-56830000D01*
X45400000Y-56830000D02*
X45400000Y-60800000D01*
X51000000Y-57450000D02*
X50480000Y-57465000D01*
X50480000Y-57465000D02*
X46670000Y-57465000D01*
X46670000Y-57465000D02*
X46575000Y-57275000D01*
X56450000Y-60850000D02*
X56195000Y-60640000D01*
X56195000Y-60640000D02*
X56195000Y-59370000D01*
X56195000Y-59370000D02*
X53020000Y-59370000D01*
X51115000Y-58100000D02*
X51115000Y-58075000D01*
X45950000Y-108500000D02*
X45400000Y-108900000D01*
X45400000Y-108900000D02*
X45400000Y-112800000D01*
X51000000Y-109450000D02*
X50480000Y-109535000D01*
X50480000Y-109535000D02*
X46670000Y-109535000D01*
X46670000Y-109535000D02*
X46575000Y-109275000D01*
X56450000Y-112850000D02*
X56195000Y-112710000D01*
X56195000Y-112710000D02*
X56195000Y-111440000D01*
X56195000Y-111440000D02*
X51115000Y-111440000D01*
X51115000Y-111440000D02*
X50480000Y-110805000D01*
X50480000Y-110805000D02*
X49845000Y-110170000D01*
X49845000Y-110170000D02*
X50225000Y-110075000D01*
X45950000Y-160500000D02*
X45400000Y-160970000D01*
X45400000Y-160970000D02*
X45400000Y-164800000D01*
X51000000Y-161450000D02*
X50480000Y-161605000D01*
X50480000Y-161605000D02*
X46670000Y-161605000D01*
X46670000Y-161605000D02*
X46575000Y-161275000D01*
X56450000Y-164850000D02*
X56195000Y-164780000D01*
X56195000Y-164780000D02*
X56195000Y-163510000D01*
X56195000Y-163510000D02*
X51115000Y-163510000D01*
X51115000Y-163510000D02*
X50480000Y-162875000D01*
X50480000Y-162875000D02*
X49845000Y-162240000D01*
X49845000Y-162240000D02*
X50225000Y-162075000D01*
X56195000Y-57465000D02*
X56830000Y-58100000D01*
X56830000Y-58100000D02*
X57465000Y-58735000D01*
X57465000Y-58735000D02*
X58100000Y-59370000D01*
X58100000Y-59370000D02*
X58100000Y-62545000D01*
X58100000Y-62545000D02*
X57465000Y-62545000D01*
X57465000Y-62545000D02*
X56830000Y-63180000D01*
X56830000Y-63180000D02*
X56830000Y-64450000D01*
X56830000Y-64450000D02*
X54290000Y-64450000D01*
X54290000Y-64450000D02*
X54290000Y-61275000D01*
X56195000Y-109535000D02*
X56830000Y-110170000D01*
X56830000Y-110170000D02*
X57465000Y-110805000D01*
X57465000Y-110805000D02*
X58100000Y-111440000D01*
X58100000Y-111440000D02*
X58100000Y-113980000D01*
X58100000Y-113980000D02*
X54925000Y-113980000D01*
X54925000Y-113980000D02*
X54925000Y-113345000D01*
X56195000Y-161605000D02*
X56830000Y-162240000D01*
X56830000Y-162240000D02*
X57465000Y-162875000D01*
X57465000Y-162875000D02*
X58100000Y-163510000D01*
X58100000Y-163510000D02*
X58100000Y-166050000D01*
X58100000Y-166050000D02*
X54925000Y-166050000D01*
X54925000Y-166050000D02*
X54925000Y-165400000D01*
X59500000Y-66450000D02*
X59370000Y-66355000D01*
X59370000Y-66355000D02*
X58735000Y-66355000D01*
X58735000Y-66355000D02*
X57465000Y-65085000D01*
X62550000Y-61000000D02*
X62545000Y-61275000D01*
X62545000Y-61275000D02*
X61910000Y-61910000D01*
X61910000Y-61910000D02*
X61275000Y-62545000D01*
X61275000Y-62545000D02*
X61275000Y-65720000D01*
X61275000Y-65720000D02*
X60640000Y-65720000D01*
X60640000Y-65720000D02*
X60275000Y-65825000D01*
X59500000Y-118450000D02*
X59370000Y-118425000D01*
X59370000Y-118425000D02*
X58735000Y-118425000D01*
X58735000Y-118425000D02*
X58100000Y-117790000D01*
X58100000Y-117790000D02*
X57465000Y-117155000D01*
X57465000Y-117155000D02*
X56830000Y-116520000D01*
X56830000Y-116520000D02*
X56195000Y-115885000D01*
X56195000Y-115885000D02*
X56000000Y-115700000D01*
X62550000Y-113000000D02*
X62545000Y-113345000D01*
X62545000Y-113345000D02*
X61910000Y-113980000D01*
X61910000Y-113980000D02*
X61275000Y-114615000D01*
X61275000Y-114615000D02*
X61275000Y-117790000D01*
X61275000Y-117790000D02*
X60640000Y-117790000D01*
X60640000Y-117790000D02*
X60275000Y-117825000D01*
X59500000Y-170450000D02*
X59370000Y-169860000D01*
X59370000Y-169860000D02*
X58100000Y-169860000D01*
X58100000Y-169860000D02*
X57465000Y-169225000D01*
X57465000Y-169225000D02*
X56830000Y-168590000D01*
X56830000Y-168590000D02*
X56195000Y-167955000D01*
X56195000Y-167955000D02*
X56000000Y-167700000D01*
X62550000Y-165000000D02*
X62545000Y-165415000D01*
X62545000Y-165415000D02*
X61910000Y-166050000D01*
X61910000Y-166050000D02*
X61275000Y-166685000D01*
X61275000Y-166685000D02*
X61275000Y-169860000D01*
X61275000Y-169860000D02*
X60275000Y-169860000D01*
X67625000Y-57465000D02*
X66990000Y-58100000D01*
X66990000Y-58100000D02*
X66355000Y-58735000D01*
X66355000Y-58735000D02*
X65720000Y-59370000D01*
X65720000Y-59370000D02*
X65085000Y-60005000D01*
X65085000Y-60005000D02*
X65075000Y-60225000D01*
X70165000Y-60095000D02*
X70165000Y-60005000D01*
X70165000Y-60005000D02*
X68260000Y-60005000D01*
X68260000Y-60005000D02*
X67625000Y-59370000D01*
X67625000Y-59370000D02*
X66990000Y-58735000D01*
X66990000Y-58735000D02*
X66779000Y-58524000D01*
X67000000Y-66450000D02*
X67625000Y-66355000D01*
X67625000Y-66355000D02*
X68260000Y-65720000D01*
X68260000Y-65720000D02*
X68895000Y-65720000D01*
X68895000Y-65720000D02*
X68895000Y-60005000D01*
X67625000Y-109535000D02*
X66990000Y-110170000D01*
X66990000Y-110170000D02*
X66355000Y-110805000D01*
X66355000Y-110805000D02*
X65720000Y-111440000D01*
X65720000Y-111440000D02*
X65085000Y-112075000D01*
X65085000Y-112075000D02*
X65075000Y-112225000D01*
X70165000Y-112095000D02*
X70165000Y-112075000D01*
X70165000Y-112075000D02*
X68260000Y-112075000D01*
X68260000Y-112075000D02*
X67625000Y-111440000D01*
X67625000Y-111440000D02*
X66990000Y-110805000D01*
X66990000Y-110805000D02*
X66779000Y-110594000D01*
X67000000Y-118450000D02*
X67625000Y-118425000D01*
X67625000Y-118425000D02*
X67625000Y-117790000D01*
X67625000Y-117790000D02*
X68895000Y-117790000D01*
X68895000Y-117790000D02*
X68895000Y-112075000D01*
X67625000Y-161605000D02*
X66990000Y-162240000D01*
X66990000Y-162240000D02*
X66355000Y-162875000D01*
X66355000Y-162875000D02*
X65720000Y-163510000D01*
X65720000Y-163510000D02*
X65085000Y-164145000D01*
X65085000Y-164145000D02*
X65075000Y-164225000D01*
X70165000Y-164095000D02*
X70165000Y-164145000D01*
X70165000Y-164145000D02*
X68260000Y-164145000D01*
X68260000Y-164145000D02*
X67625000Y-163510000D01*
X67625000Y-163510000D02*
X66990000Y-162875000D01*
X66990000Y-162875000D02*
X66779000Y-162664000D01*
X67000000Y-170450000D02*
X67625000Y-169860000D01*
X67625000Y-169860000D02*
X68895000Y-169860000D01*
X68895000Y-169860000D02*
X68895000Y-164145000D01*
D11*
X39050000Y-40000000D02*
X39050000Y-36200000D01*
X43495000Y-39050000D02*
X42860000Y-39050000D01*
X42860000Y-39050000D02*
X42225000Y-38415000D01*
X42225000Y-38415000D02*
X40320000Y-38415000D01*
X40320000Y-38415000D02*
X39685000Y-37780000D01*
X39685000Y-37780000D02*
X39300000Y-37780000D01*
X46550000Y-53500000D02*
X46035000Y-53020000D01*
X46035000Y-53020000D02*
X46035000Y-41590000D01*
X46035000Y-41590000D02*
X45400000Y-40955000D01*
X51000000Y-55550000D02*
X50480000Y-55560000D01*
X50480000Y-55560000D02*
X50480000Y-51115000D01*
X50480000Y-51115000D02*
X49845000Y-51115000D01*
X49845000Y-51115000D02*
X49210000Y-50480000D01*
X49210000Y-50480000D02*
X48575000Y-49845000D01*
X48575000Y-49845000D02*
X47940000Y-49210000D01*
X47940000Y-49210000D02*
X47305000Y-48575000D01*
X47305000Y-48575000D02*
X46670000Y-47940000D01*
X46670000Y-47940000D02*
X46285000Y-47940000D01*
X55500000Y-55550000D02*
X54925000Y-55560000D01*
X54925000Y-55560000D02*
X53655000Y-55560000D01*
X73550000Y-56000000D02*
X73340000Y-55560000D01*
X73340000Y-55560000D02*
X71435000Y-55560000D01*
X71435000Y-55560000D02*
X70800000Y-54925000D01*
X70800000Y-54925000D02*
X56195000Y-54925000D01*
X76975000Y-60095000D02*
X76515000Y-60005000D01*
X76515000Y-60005000D02*
X75880000Y-60005000D01*
X75880000Y-60005000D02*
X75245000Y-59370000D01*
X75245000Y-59370000D02*
X73975000Y-58100000D01*
X73975000Y-58100000D02*
X73340000Y-57465000D01*
X73340000Y-57465000D02*
X72705000Y-56830000D01*
X72705000Y-56830000D02*
X72925000Y-56775000D01*
X91755000Y-54290000D02*
X70800000Y-54290000D01*
X70800000Y-54290000D02*
X70800000Y-54675000D01*
X93000000Y-56830000D02*
X93025000Y-56830000D01*
X93025000Y-56830000D02*
X92390000Y-56830000D01*
X92390000Y-56830000D02*
X91755000Y-56195000D01*
X91755000Y-56195000D02*
X91755000Y-55775000D01*
X94930000Y-33540000D02*
X94930000Y-33970000D01*
X94930000Y-33970000D02*
X93660000Y-33970000D01*
X93660000Y-33970000D02*
X93025000Y-34605000D01*
X93025000Y-34605000D02*
X92390000Y-35240000D01*
X92390000Y-35240000D02*
X91755000Y-35875000D01*
X91755000Y-35875000D02*
X91120000Y-36510000D01*
X91120000Y-36510000D02*
X90485000Y-37145000D01*
X90485000Y-37145000D02*
X89850000Y-37780000D01*
X89850000Y-37780000D02*
X89215000Y-38415000D01*
X89215000Y-38415000D02*
X88580000Y-39050000D01*
X88580000Y-39050000D02*
X88580000Y-40320000D01*
X88580000Y-40320000D02*
X87310000Y-40320000D01*
X87310000Y-40320000D02*
X86675000Y-40955000D01*
X86675000Y-40955000D02*
X86040000Y-41590000D01*
X86040000Y-41590000D02*
X84770000Y-42860000D01*
X84770000Y-42860000D02*
X84135000Y-43495000D01*
X84135000Y-43495000D02*
X83500000Y-44130000D01*
X83500000Y-44130000D02*
X82865000Y-44765000D01*
X82865000Y-44765000D02*
X82230000Y-45400000D01*
X82230000Y-45400000D02*
X81595000Y-46035000D01*
X81595000Y-46035000D02*
X80960000Y-46670000D01*
X80960000Y-46670000D02*
X80325000Y-47305000D01*
X80325000Y-47305000D02*
X79690000Y-47940000D01*
X79690000Y-47940000D02*
X79055000Y-48575000D01*
X79055000Y-48575000D02*
X77785000Y-49845000D01*
X77785000Y-49845000D02*
X77150000Y-50480000D01*
X77150000Y-50480000D02*
X76515000Y-51115000D01*
X76515000Y-51115000D02*
X75880000Y-51750000D01*
X75880000Y-51750000D02*
X75245000Y-52385000D01*
X75245000Y-52385000D02*
X74610000Y-53020000D01*
X74610000Y-53020000D02*
X73975000Y-53655000D01*
X73975000Y-53655000D02*
X73975000Y-54040000D01*
X96050000Y-24000000D02*
X95565000Y-24445000D01*
X95565000Y-24445000D02*
X94930000Y-25080000D01*
X94930000Y-25080000D02*
X93660000Y-26350000D01*
X93660000Y-26350000D02*
X93660000Y-33720000D01*
X95050000Y-80000000D02*
X94930000Y-79690000D01*
X94930000Y-79690000D02*
X94930000Y-77785000D01*
X94930000Y-77785000D02*
X94295000Y-77150000D01*
X94295000Y-77150000D02*
X93660000Y-76515000D01*
X93660000Y-76515000D02*
X93025000Y-75880000D01*
X93025000Y-75880000D02*
X92390000Y-75245000D01*
X92390000Y-75245000D02*
X91755000Y-74610000D01*
X91755000Y-74610000D02*
X91120000Y-73975000D01*
X91120000Y-73975000D02*
X90485000Y-73340000D01*
X90485000Y-73340000D02*
X89850000Y-72705000D01*
X89850000Y-72705000D02*
X89215000Y-72070000D01*
X89215000Y-72070000D02*
X88580000Y-71435000D01*
X88580000Y-71435000D02*
X88580000Y-70800000D01*
X88580000Y-70800000D02*
X87945000Y-70165000D01*
X87945000Y-70165000D02*
X87945000Y-68895000D01*
X87945000Y-68895000D02*
X87310000Y-68260000D01*
X87310000Y-68260000D02*
X87310000Y-64450000D01*
X87310000Y-64450000D02*
X86675000Y-63815000D01*
X86675000Y-63815000D02*
X86675000Y-60640000D01*
X86675000Y-60640000D02*
X86040000Y-60005000D01*
X86040000Y-60005000D02*
X85405000Y-59370000D01*
X85405000Y-59370000D02*
X84770000Y-58735000D01*
X84770000Y-58735000D02*
X84135000Y-58100000D01*
X84135000Y-58100000D02*
X83500000Y-57465000D01*
X83500000Y-57465000D02*
X82865000Y-56830000D01*
X82865000Y-56830000D02*
X82230000Y-56195000D01*
X82230000Y-56195000D02*
X81595000Y-55560000D01*
X81595000Y-55560000D02*
X80960000Y-54925000D01*
X80960000Y-54925000D02*
X80960000Y-54540000D01*
X94295000Y-82865000D02*
X94295000Y-80960000D01*
X94295000Y-80960000D02*
X94425000Y-80775000D01*
X89215000Y-86675000D02*
X90485000Y-86675000D01*
X90485000Y-86675000D02*
X90485000Y-84770000D01*
X90485000Y-84770000D02*
X91120000Y-84135000D01*
X91120000Y-84135000D02*
X91755000Y-83500000D01*
X91755000Y-83500000D02*
X92390000Y-83500000D01*
X92390000Y-83500000D02*
X92450000Y-83445000D01*
X85950000Y-80500000D02*
X86040000Y-80325000D01*
X86040000Y-80325000D02*
X86040000Y-73340000D01*
X86040000Y-73340000D02*
X86675000Y-72705000D01*
X86675000Y-72705000D02*
X87945000Y-71435000D01*
X87945000Y-71435000D02*
X88330000Y-71435000D01*
X91755000Y-106360000D02*
X91755000Y-84135000D01*
X91755000Y-84135000D02*
X91614000Y-83994000D01*
X93000000Y-108265000D02*
X93025000Y-108265000D01*
X93025000Y-108265000D02*
X92390000Y-108265000D01*
X92390000Y-108265000D02*
X92390000Y-107630000D01*
X79055000Y-112095000D02*
X79055000Y-110170000D01*
X79055000Y-110170000D02*
X79690000Y-109535000D01*
X79690000Y-109535000D02*
X80325000Y-108900000D01*
X80325000Y-108900000D02*
X80960000Y-108265000D01*
X80960000Y-108265000D02*
X81595000Y-107630000D01*
X81595000Y-107630000D02*
X82230000Y-106995000D01*
X82230000Y-106995000D02*
X82865000Y-106360000D01*
X82865000Y-106360000D02*
X83500000Y-105725000D01*
X83500000Y-105725000D02*
X84135000Y-105090000D01*
X84135000Y-105090000D02*
X84770000Y-104455000D01*
X84770000Y-104455000D02*
X85405000Y-103820000D01*
X85405000Y-103820000D02*
X86040000Y-103185000D01*
X86040000Y-103185000D02*
X86675000Y-102550000D01*
X86675000Y-102550000D02*
X86675000Y-87055000D01*
X73550000Y-108000000D02*
X73975000Y-107630000D01*
X73975000Y-107630000D02*
X73975000Y-105725000D01*
X73975000Y-105725000D02*
X74610000Y-105090000D01*
X74610000Y-105090000D02*
X75245000Y-104455000D01*
X75245000Y-104455000D02*
X75880000Y-103820000D01*
X75880000Y-103820000D02*
X76515000Y-103185000D01*
X76515000Y-103185000D02*
X80325000Y-99375000D01*
X80325000Y-99375000D02*
X80960000Y-98740000D01*
X80960000Y-98740000D02*
X81595000Y-98105000D01*
X81595000Y-98105000D02*
X82230000Y-97470000D01*
X82230000Y-97470000D02*
X82865000Y-96835000D01*
X82865000Y-96835000D02*
X83500000Y-96200000D01*
X83500000Y-96200000D02*
X86040000Y-93660000D01*
X86040000Y-93660000D02*
X86425000Y-93660000D01*
X56195000Y-106995000D02*
X56830000Y-106360000D01*
X56830000Y-106360000D02*
X57465000Y-105725000D01*
X57465000Y-105725000D02*
X73725000Y-105725000D01*
X51000000Y-107550000D02*
X51115000Y-106995000D01*
X51115000Y-106995000D02*
X54725000Y-106995000D01*
X46550000Y-105500000D02*
X46670000Y-105725000D01*
X46670000Y-105725000D02*
X46670000Y-106995000D01*
X46670000Y-106995000D02*
X50225000Y-106995000D01*
X95050000Y-132000000D02*
X95565000Y-131760000D01*
X95565000Y-131760000D02*
X95565000Y-115250000D01*
X95565000Y-115250000D02*
X96200000Y-114615000D01*
X96200000Y-114615000D02*
X96200000Y-105090000D01*
X96200000Y-105090000D02*
X95565000Y-104455000D01*
X95565000Y-104455000D02*
X94930000Y-103820000D01*
X94930000Y-103820000D02*
X94295000Y-103185000D01*
X94295000Y-103185000D02*
X92390000Y-101280000D01*
X92390000Y-101280000D02*
X92005000Y-101280000D01*
X94295000Y-134935000D02*
X94295000Y-133030000D01*
X94295000Y-133030000D02*
X94425000Y-132775000D01*
X89215000Y-138745000D02*
X90485000Y-138745000D01*
X90485000Y-138745000D02*
X90485000Y-108265000D01*
X90485000Y-108265000D02*
X91120000Y-107630000D01*
X91120000Y-107630000D02*
X91425000Y-107630000D01*
X85405000Y-131760000D02*
X85405000Y-104455000D01*
X85405000Y-104455000D02*
X85264000Y-104314000D01*
X92050000Y-159000000D02*
X91755000Y-158430000D01*
X91755000Y-158430000D02*
X91755000Y-136840000D01*
X91755000Y-136840000D02*
X91120000Y-136205000D01*
X91120000Y-136205000D02*
X90735000Y-136205000D01*
X93000000Y-160335000D02*
X93025000Y-160335000D01*
X93025000Y-160335000D02*
X92390000Y-160335000D01*
X92390000Y-160335000D02*
X92390000Y-159700000D01*
X77785000Y-164145000D02*
X77785000Y-119695000D01*
X77785000Y-119695000D02*
X76515000Y-118425000D01*
X76515000Y-118425000D02*
X75880000Y-117790000D01*
X75880000Y-117790000D02*
X75245000Y-117155000D01*
X75245000Y-117155000D02*
X75245000Y-112075000D01*
X75245000Y-112075000D02*
X75880000Y-111440000D01*
X75880000Y-111440000D02*
X75950000Y-111745000D01*
X73550000Y-160000000D02*
X73975000Y-159700000D01*
X73975000Y-159700000D02*
X73975000Y-158430000D01*
X73975000Y-158430000D02*
X74610000Y-157795000D01*
X74610000Y-157795000D02*
X75245000Y-157160000D01*
X75245000Y-157160000D02*
X75880000Y-156525000D01*
X75880000Y-156525000D02*
X76515000Y-155890000D01*
X76515000Y-155890000D02*
X77150000Y-155255000D01*
X77150000Y-155255000D02*
X77535000Y-155255000D01*
X56195000Y-159065000D02*
X56195000Y-150175000D01*
X56195000Y-150175000D02*
X56830000Y-149540000D01*
X56830000Y-149540000D02*
X57465000Y-148905000D01*
X57465000Y-148905000D02*
X57465000Y-148270000D01*
X57465000Y-148270000D02*
X58100000Y-147635000D01*
X58100000Y-147635000D02*
X58100000Y-145730000D01*
X58100000Y-145730000D02*
X58735000Y-145095000D01*
X58735000Y-145095000D02*
X58735000Y-144460000D01*
X58735000Y-144460000D02*
X59370000Y-143825000D01*
X59370000Y-143825000D02*
X59370000Y-141920000D01*
X59370000Y-141920000D02*
X60005000Y-141285000D01*
X60005000Y-141285000D02*
X60005000Y-140650000D01*
X60005000Y-140650000D02*
X60640000Y-140015000D01*
X60640000Y-140015000D02*
X60640000Y-137475000D01*
X60640000Y-137475000D02*
X61910000Y-136205000D01*
X61910000Y-136205000D02*
X62545000Y-135570000D01*
X62545000Y-135570000D02*
X63815000Y-134300000D01*
X63815000Y-134300000D02*
X64450000Y-133665000D01*
X64450000Y-133665000D02*
X65085000Y-133030000D01*
X65085000Y-133030000D02*
X65720000Y-132395000D01*
X65720000Y-132395000D02*
X66355000Y-131760000D01*
X66355000Y-131760000D02*
X66990000Y-131125000D01*
X66990000Y-131125000D02*
X67625000Y-130490000D01*
X67625000Y-130490000D02*
X68260000Y-129855000D01*
X68260000Y-129855000D02*
X68895000Y-129220000D01*
X68895000Y-129220000D02*
X69530000Y-128585000D01*
X69530000Y-128585000D02*
X70165000Y-127950000D01*
X70165000Y-127950000D02*
X70800000Y-127315000D01*
X70800000Y-127315000D02*
X71435000Y-126680000D01*
X71435000Y-126680000D02*
X71435000Y-119695000D01*
X71435000Y-119695000D02*
X72705000Y-118425000D01*
X72705000Y-118425000D02*
X73340000Y-117790000D01*
X73340000Y-117790000D02*
X73975000Y-117155000D01*
X73975000Y-117155000D02*
X74610000Y-116520000D01*
X74610000Y-116520000D02*
X74995000Y-116520000D01*
X51000000Y-159550000D02*
X51115000Y-159065000D01*
X51115000Y-159065000D02*
X51115000Y-157795000D01*
X51115000Y-157795000D02*
X52385000Y-156525000D01*
X52385000Y-156525000D02*
X53020000Y-155890000D01*
X53020000Y-155890000D02*
X54925000Y-153985000D01*
X54925000Y-153985000D02*
X55560000Y-153350000D01*
X55560000Y-153350000D02*
X55945000Y-153350000D01*
X46550000Y-157500000D02*
X46670000Y-157160000D01*
X46670000Y-157160000D02*
X46670000Y-155890000D01*
X46670000Y-155890000D02*
X47940000Y-154620000D01*
X47940000Y-154620000D02*
X48575000Y-153985000D01*
X48575000Y-153985000D02*
X49210000Y-153350000D01*
X49210000Y-153350000D02*
X50480000Y-152080000D01*
X50480000Y-152080000D02*
X51115000Y-151445000D01*
X51115000Y-151445000D02*
X52385000Y-150175000D01*
X52385000Y-150175000D02*
X53020000Y-149540000D01*
X53020000Y-149540000D02*
X54290000Y-148270000D01*
X54290000Y-148270000D02*
X54925000Y-147635000D01*
X54925000Y-147635000D02*
X55560000Y-147000000D01*
X55560000Y-147000000D02*
X56195000Y-146365000D01*
X56195000Y-146365000D02*
X56830000Y-145730000D01*
X56830000Y-145730000D02*
X57465000Y-145095000D01*
X57465000Y-145095000D02*
X58100000Y-144460000D01*
X58100000Y-144460000D02*
X58485000Y-144460000D01*
X95050000Y-184000000D02*
X95565000Y-183830000D01*
X95565000Y-183830000D02*
X95565000Y-167320000D01*
X95565000Y-167320000D02*
X96200000Y-166685000D01*
X96200000Y-166685000D02*
X96200000Y-140650000D01*
X96200000Y-140650000D02*
X96835000Y-140015000D01*
X96835000Y-140015000D02*
X96835000Y-134935000D01*
X96835000Y-134935000D02*
X96200000Y-134300000D01*
X96200000Y-134300000D02*
X95565000Y-133665000D01*
X95565000Y-133665000D02*
X95565000Y-132775000D01*
X94295000Y-187005000D02*
X94295000Y-185100000D01*
X94295000Y-185100000D02*
X94425000Y-184775000D01*
X89215000Y-190815000D02*
X90485000Y-190815000D01*
X90485000Y-190815000D02*
X90485000Y-138995000D01*
X86040000Y-183830000D02*
X86040000Y-144460000D01*
X86040000Y-144460000D02*
X86675000Y-143825000D01*
X86675000Y-143825000D02*
X86675000Y-139055000D01*
X87200000Y-212950000D02*
X86675000Y-213040000D01*
X86675000Y-213040000D02*
X82230000Y-213040000D01*
X82230000Y-213040000D02*
X81595000Y-212405000D01*
X81595000Y-212405000D02*
X79690000Y-212405000D01*
X79690000Y-212405000D02*
X79690000Y-181290000D01*
X79690000Y-181290000D02*
X80325000Y-180655000D01*
X80325000Y-180655000D02*
X80960000Y-180020000D01*
X80960000Y-180020000D02*
X81595000Y-179385000D01*
X81595000Y-179385000D02*
X82230000Y-178750000D01*
X82230000Y-178750000D02*
X82865000Y-178115000D01*
X82865000Y-178115000D02*
X83500000Y-177480000D01*
X83500000Y-177480000D02*
X84135000Y-176845000D01*
X84135000Y-176845000D02*
X84770000Y-176210000D01*
X84770000Y-176210000D02*
X85405000Y-175575000D01*
X85405000Y-175575000D02*
X85790000Y-175575000D01*
X81200000Y-212950000D02*
X80960000Y-212405000D01*
X93200000Y-212950000D02*
X93025000Y-213040000D01*
X93025000Y-213040000D02*
X87945000Y-213040000D01*
X101050000Y-210500000D02*
X100645000Y-211135000D01*
X100645000Y-211135000D02*
X100010000Y-211135000D01*
X100010000Y-211135000D02*
X99375000Y-211770000D01*
X99375000Y-211770000D02*
X98740000Y-212405000D01*
X98740000Y-212405000D02*
X98105000Y-213040000D01*
X98105000Y-213040000D02*
X93975000Y-213040000D01*
X102000000Y-212405000D02*
X101915000Y-212405000D01*
D10*
X87000000Y-28950000D02*
X86675000Y-28890000D01*
X86675000Y-28890000D02*
X86040000Y-28890000D01*
X86040000Y-28890000D02*
X85405000Y-28255000D01*
X85405000Y-28255000D02*
X84770000Y-27620000D01*
X84770000Y-27620000D02*
X84135000Y-26985000D01*
X84135000Y-26985000D02*
X84135000Y-25080000D01*
X84135000Y-25080000D02*
X82865000Y-25080000D01*
X82865000Y-25080000D02*
X82230000Y-25715000D01*
X82230000Y-25715000D02*
X82150000Y-25715000D01*
X91000000Y-28000000D02*
X90485000Y-28255000D01*
X90485000Y-28255000D02*
X87945000Y-28255000D01*
X87945000Y-28255000D02*
X87775000Y-28325000D01*
X72950000Y-82000000D02*
X73340000Y-81595000D01*
X73340000Y-81595000D02*
X73340000Y-79690000D01*
X73340000Y-79690000D02*
X80325000Y-72705000D01*
X80325000Y-72705000D02*
X80325000Y-71435000D01*
X80325000Y-71435000D02*
X80960000Y-70800000D01*
X80960000Y-70800000D02*
X80960000Y-69530000D01*
X80960000Y-69530000D02*
X81595000Y-68895000D01*
X81595000Y-68895000D02*
X82230000Y-68260000D01*
X82230000Y-68260000D02*
X82865000Y-67625000D01*
X82865000Y-67625000D02*
X83500000Y-66990000D01*
X83500000Y-66990000D02*
X84135000Y-66355000D01*
X84135000Y-66355000D02*
X84135000Y-60640000D01*
X84135000Y-60640000D02*
X84770000Y-60005000D01*
X72950000Y-134000000D02*
X72705000Y-133665000D01*
X72705000Y-133665000D02*
X72705000Y-122235000D01*
X72950000Y-186000000D02*
X72705000Y-185735000D01*
X72705000Y-185735000D02*
X72705000Y-174940000D01*
X72705000Y-174940000D02*
X72070000Y-174305000D01*
X72070000Y-174305000D02*
X72070000Y-171130000D01*
X72070000Y-171130000D02*
X73340000Y-169860000D01*
X73340000Y-169860000D02*
X73975000Y-169225000D01*
X73975000Y-169225000D02*
X73975000Y-168590000D01*
X73975000Y-168590000D02*
X74610000Y-167955000D01*
X74610000Y-167955000D02*
X75245000Y-167320000D01*
X75245000Y-167320000D02*
X75245000Y-164145000D01*
X75245000Y-164145000D02*
X74610000Y-163510000D01*
X74610000Y-163510000D02*
X73975000Y-162875000D01*
X73975000Y-162875000D02*
X73340000Y-162240000D01*
X73340000Y-162240000D02*
X72705000Y-161605000D01*
X72705000Y-161605000D02*
X72070000Y-161605000D01*
X72070000Y-161605000D02*
X72070000Y-134935000D01*
X72070000Y-134935000D02*
X72325000Y-134775000D01*
X83500000Y-207325000D02*
X83850000Y-207325000D01*
X93950000Y-58200000D02*
X93660000Y-58735000D01*
X93660000Y-58735000D02*
X94295000Y-59370000D01*
X94295000Y-59370000D02*
X94930000Y-59370000D01*
X94930000Y-59370000D02*
X95565000Y-60005000D01*
X95565000Y-60005000D02*
X96200000Y-60005000D01*
X96200000Y-60005000D02*
X96835000Y-60640000D01*
X96835000Y-60640000D02*
X97470000Y-61275000D01*
X97470000Y-61275000D02*
X97900000Y-61275000D01*
X93950000Y-110200000D02*
X93660000Y-110170000D01*
X93660000Y-110170000D02*
X94295000Y-110170000D01*
X97470000Y-113345000D02*
X97900000Y-113345000D01*
X95565000Y-207325000D02*
X95850000Y-207325000D01*
X93950000Y-162200000D02*
X93660000Y-162240000D01*
X93660000Y-162240000D02*
X94295000Y-162240000D01*
X81200000Y-211050000D02*
X81595000Y-210500000D01*
X81595000Y-210500000D02*
X83100000Y-210500000D01*
X102950000Y-216800000D02*
X103185000Y-216850000D01*
X87200000Y-211050000D02*
X87310000Y-210500000D01*
X87310000Y-210500000D02*
X89215000Y-210500000D01*
X101050000Y-216800000D02*
X101280000Y-216850000D01*
X101280000Y-216850000D02*
X100645000Y-216850000D01*
X100645000Y-216850000D02*
X100010000Y-216215000D01*
X100010000Y-216215000D02*
X99375000Y-215580000D01*
X99375000Y-215580000D02*
X99375000Y-213040000D01*
X93200000Y-211050000D02*
X93660000Y-210500000D01*
X93660000Y-210500000D02*
X95100000Y-210500000D01*
X101050000Y-214200000D02*
X101280000Y-213675000D01*
X101280000Y-213675000D02*
X100645000Y-213675000D01*
X98740000Y-209865000D02*
X96835000Y-209865000D01*
X96835000Y-209865000D02*
X96835000Y-210140000D01*
X84770000Y-85405000D02*
X83500000Y-85405000D01*
X83500000Y-85405000D02*
X82865000Y-84770000D01*
X82865000Y-84770000D02*
X82865000Y-82865000D01*
X82865000Y-82865000D02*
X86675000Y-82865000D01*
X86675000Y-82865000D02*
X86675000Y-82945000D01*
X84770000Y-137475000D02*
X83500000Y-137475000D01*
X83500000Y-137475000D02*
X82865000Y-136840000D01*
X82865000Y-136840000D02*
X82865000Y-134935000D01*
X82865000Y-134935000D02*
X83500000Y-134935000D01*
X83500000Y-134935000D02*
X84135000Y-134300000D01*
X84135000Y-134300000D02*
X86040000Y-134300000D01*
X86040000Y-134300000D02*
X86675000Y-134935000D01*
X86675000Y-134935000D02*
X86675000Y-134945000D01*
X84770000Y-189545000D02*
X83500000Y-189545000D01*
X83500000Y-189545000D02*
X82865000Y-188910000D01*
X82865000Y-188910000D02*
X82865000Y-187005000D01*
X82865000Y-187005000D02*
X83500000Y-187005000D01*
X83500000Y-187005000D02*
X84135000Y-186370000D01*
X84135000Y-186370000D02*
X87310000Y-186370000D01*
X87310000Y-186370000D02*
X87500000Y-186745000D01*
X99500000Y-85950000D02*
X99375000Y-85405000D01*
X99375000Y-85405000D02*
X97470000Y-85405000D01*
X97470000Y-85405000D02*
X96835000Y-84770000D01*
X96835000Y-84770000D02*
X95565000Y-84770000D01*
X95565000Y-84770000D02*
X95565000Y-84515000D01*
X99500000Y-137950000D02*
X99375000Y-137475000D01*
X99375000Y-137475000D02*
X98105000Y-137475000D01*
X95565000Y-136840000D02*
X95565000Y-136515000D01*
X99500000Y-189950000D02*
X99375000Y-189545000D01*
X99375000Y-189545000D02*
X97470000Y-189545000D01*
X97470000Y-189545000D02*
X96835000Y-188910000D01*
X96835000Y-188910000D02*
X95565000Y-188910000D01*
X95565000Y-188910000D02*
X95565000Y-188515000D01*
X64500000Y-71000000D02*
X65085000Y-70800000D01*
X65085000Y-70800000D02*
X71435000Y-70800000D01*
X71435000Y-70800000D02*
X71435000Y-67625000D01*
X71435000Y-67625000D02*
X72070000Y-66990000D01*
X72070000Y-66990000D02*
X72705000Y-66355000D01*
X72705000Y-66355000D02*
X73340000Y-65720000D01*
X73340000Y-65720000D02*
X73975000Y-65085000D01*
X73975000Y-65085000D02*
X73975000Y-64450000D01*
X73975000Y-64450000D02*
X74610000Y-63815000D01*
X74610000Y-63815000D02*
X75245000Y-63180000D01*
X75245000Y-63180000D02*
X75245000Y-61910000D01*
X75245000Y-61910000D02*
X74610000Y-61275000D01*
X74610000Y-61275000D02*
X73050000Y-61275000D01*
X68050000Y-73000000D02*
X67625000Y-72705000D01*
X67625000Y-72705000D02*
X67625000Y-70800000D01*
X68050000Y-125000000D02*
X67625000Y-124775000D01*
X67625000Y-124775000D02*
X67625000Y-123505000D01*
X67625000Y-123505000D02*
X66990000Y-122870000D01*
X66990000Y-122870000D02*
X66355000Y-122235000D01*
X66355000Y-122235000D02*
X65720000Y-121600000D01*
X65720000Y-121600000D02*
X65550000Y-121950000D01*
X68050000Y-177000000D02*
X67625000Y-176845000D01*
X67625000Y-176845000D02*
X66990000Y-176210000D01*
X66990000Y-176210000D02*
X66355000Y-175575000D01*
X66355000Y-175575000D02*
X65720000Y-174940000D01*
X65720000Y-174940000D02*
X65550000Y-174940000D01*
X66000000Y-86500000D02*
X66355000Y-86040000D01*
X66355000Y-86040000D02*
X66355000Y-77785000D01*
X66355000Y-77785000D02*
X69530000Y-74610000D01*
X69530000Y-74610000D02*
X69530000Y-73775000D01*
X69530000Y-126045000D02*
X69530000Y-125775000D01*
X66000000Y-190500000D02*
X66355000Y-190180000D01*
X66355000Y-190180000D02*
X66355000Y-181925000D01*
X66355000Y-181925000D02*
X66990000Y-181290000D01*
X66990000Y-181290000D02*
X68260000Y-180020000D01*
X68260000Y-180020000D02*
X68895000Y-179385000D01*
X68895000Y-179385000D02*
X69530000Y-178750000D01*
X69530000Y-178750000D02*
X69530000Y-177775000D01*
X71050000Y-82000000D02*
X70800000Y-82230000D01*
X70800000Y-82230000D02*
X70165000Y-82865000D01*
X70165000Y-82865000D02*
X70165000Y-87945000D01*
X70165000Y-87945000D02*
X64450000Y-87945000D01*
X64450000Y-87945000D02*
X64450000Y-87310000D01*
X64450000Y-87310000D02*
X64360000Y-87310000D01*
X71050000Y-134000000D02*
X70800000Y-134300000D01*
X70800000Y-134300000D02*
X67625000Y-134300000D01*
X67625000Y-134300000D02*
X66990000Y-134935000D01*
X66990000Y-134935000D02*
X66355000Y-135570000D01*
X66355000Y-135570000D02*
X65720000Y-136205000D01*
X65720000Y-136205000D02*
X65085000Y-136840000D01*
X65085000Y-136840000D02*
X64450000Y-136840000D01*
X64450000Y-136840000D02*
X64450000Y-137475000D01*
X64450000Y-137475000D02*
X64360000Y-137600000D01*
X71050000Y-186000000D02*
X70800000Y-186370000D01*
X70800000Y-186370000D02*
X70165000Y-187005000D01*
X70165000Y-187005000D02*
X70165000Y-192085000D01*
X70165000Y-192085000D02*
X64450000Y-192085000D01*
X64450000Y-192085000D02*
X64450000Y-191450000D01*
X64450000Y-191450000D02*
X64360000Y-191400000D01*
X58100000Y-82230000D02*
X58735000Y-82865000D01*
X58735000Y-82865000D02*
X59370000Y-82865000D01*
X59370000Y-82865000D02*
X60005000Y-83500000D01*
X60005000Y-83500000D02*
X64450000Y-83500000D01*
X64450000Y-83500000D02*
X65085000Y-84135000D01*
X58050000Y-133500000D02*
X58100000Y-133665000D01*
X58100000Y-133665000D02*
X58735000Y-134300000D01*
X58735000Y-134300000D02*
X58735000Y-134935000D01*
X58735000Y-134935000D02*
X59370000Y-135570000D01*
X59370000Y-135570000D02*
X60005000Y-136205000D01*
X58050000Y-185500000D02*
X58100000Y-185735000D01*
X58100000Y-185735000D02*
X58735000Y-186370000D01*
X58735000Y-186370000D02*
X58735000Y-187005000D01*
X58735000Y-187005000D02*
X59370000Y-187005000D01*
X59370000Y-187005000D02*
X60005000Y-187640000D01*
X60005000Y-187640000D02*
X64450000Y-187640000D01*
X64450000Y-187640000D02*
X65085000Y-188275000D01*
X73550000Y-68500000D02*
X73340000Y-68260000D01*
X73340000Y-68260000D02*
X73340000Y-66990000D01*
X72705000Y-64450000D02*
X72705000Y-64255000D01*
X73550000Y-120500000D02*
X73975000Y-120330000D01*
X73975000Y-120330000D02*
X73975000Y-118425000D01*
X73975000Y-115885000D02*
X73050000Y-115885000D01*
X70165000Y-121600000D02*
X70165000Y-122235000D01*
X73340000Y-171765000D02*
X73340000Y-171130000D01*
X72705000Y-168590000D02*
X72705000Y-168255000D01*
X81595000Y-63815000D02*
X80960000Y-63815000D01*
X80960000Y-63815000D02*
X80325000Y-63180000D01*
X80325000Y-63180000D02*
X79055000Y-63180000D01*
X79055000Y-63180000D02*
X79055000Y-62785000D01*
X75450000Y-68500000D02*
X75880000Y-68260000D01*
X75880000Y-68260000D02*
X78420000Y-65720000D01*
X78420000Y-65720000D02*
X79055000Y-65720000D01*
X79055000Y-65720000D02*
X79690000Y-65085000D01*
X79690000Y-65085000D02*
X80325000Y-64450000D01*
X80325000Y-64450000D02*
X80325000Y-63815000D01*
X80325000Y-63815000D02*
X80536000Y-63604000D01*
X93000000Y-62545000D02*
X93025000Y-62545000D01*
X93025000Y-62545000D02*
X87945000Y-62545000D01*
X82000000Y-116500000D02*
X81595000Y-115885000D01*
X81595000Y-115885000D02*
X80960000Y-115885000D01*
X80960000Y-115885000D02*
X80325000Y-115250000D01*
X80325000Y-115250000D02*
X79690000Y-114615000D01*
X79690000Y-114615000D02*
X79055000Y-114615000D01*
X75450000Y-120500000D02*
X75880000Y-120330000D01*
X75880000Y-120330000D02*
X76515000Y-119695000D01*
X93000000Y-114615000D02*
X93025000Y-114615000D01*
X93025000Y-114615000D02*
X91755000Y-114615000D01*
X82000000Y-168500000D02*
X81595000Y-167955000D01*
X81595000Y-167955000D02*
X80960000Y-167955000D01*
X80960000Y-167955000D02*
X80325000Y-167320000D01*
X80325000Y-167320000D02*
X79690000Y-166685000D01*
X79690000Y-166685000D02*
X79055000Y-166685000D01*
X75880000Y-171765000D02*
X77150000Y-170495000D01*
X77150000Y-170495000D02*
X77785000Y-169860000D01*
X77785000Y-169860000D02*
X79055000Y-169860000D01*
X79055000Y-169860000D02*
X79690000Y-169225000D01*
X79690000Y-169225000D02*
X80325000Y-168590000D01*
X80325000Y-168590000D02*
X80325000Y-167955000D01*
X80325000Y-167955000D02*
X80536000Y-167744000D01*
X93000000Y-166685000D02*
X93025000Y-166685000D01*
X93025000Y-166685000D02*
X91755000Y-166685000D01*
X93475000Y-85635000D02*
X93025000Y-85405000D01*
X93475000Y-137635000D02*
X93025000Y-137475000D01*
X93475000Y-189635000D02*
X93025000Y-189545000D01*
X27500000Y-90450000D02*
X26985000Y-90485000D01*
X26985000Y-90485000D02*
X26350000Y-89850000D01*
X26350000Y-89850000D02*
X25715000Y-89850000D01*
X25715000Y-89850000D02*
X25080000Y-89215000D01*
X25080000Y-89215000D02*
X25080000Y-86675000D01*
X25080000Y-86675000D02*
X26350000Y-86675000D01*
X26350000Y-86675000D02*
X26985000Y-86040000D01*
X26985000Y-86040000D02*
X28255000Y-86040000D01*
X28255000Y-86040000D02*
X28255000Y-85785000D01*
X29550000Y-93000000D02*
X29525000Y-92390000D01*
X29525000Y-92390000D02*
X29525000Y-91120000D01*
X29525000Y-91120000D02*
X28890000Y-90485000D01*
X28890000Y-90485000D02*
X28255000Y-89850000D01*
X27500000Y-142450000D02*
X26985000Y-141920000D01*
X26985000Y-141920000D02*
X25715000Y-141920000D01*
X25715000Y-141920000D02*
X25715000Y-141285000D01*
X25715000Y-141285000D02*
X25080000Y-140650000D01*
X25080000Y-140650000D02*
X25080000Y-138745000D01*
X25080000Y-138745000D02*
X26350000Y-138745000D01*
X26350000Y-138745000D02*
X26985000Y-138110000D01*
X26985000Y-138110000D02*
X28255000Y-138110000D01*
X28255000Y-138110000D02*
X28255000Y-137785000D01*
X29550000Y-145000000D02*
X29525000Y-144460000D01*
X29525000Y-144460000D02*
X28890000Y-143825000D01*
X28890000Y-143825000D02*
X28255000Y-143190000D01*
X28255000Y-143190000D02*
X28255000Y-143075000D01*
X38415000Y-145730000D02*
X38415000Y-144460000D01*
X38415000Y-144460000D02*
X33970000Y-144460000D01*
X33970000Y-144460000D02*
X33335000Y-143825000D01*
X33335000Y-143825000D02*
X32700000Y-143190000D01*
X32700000Y-143190000D02*
X30160000Y-143190000D01*
X30160000Y-143190000D02*
X29525000Y-142555000D01*
X29525000Y-142555000D02*
X28890000Y-141920000D01*
X28890000Y-141920000D02*
X28255000Y-141920000D01*
X27500000Y-194450000D02*
X26985000Y-193990000D01*
X26985000Y-193990000D02*
X25715000Y-193990000D01*
X25715000Y-193990000D02*
X25715000Y-193355000D01*
X25715000Y-193355000D02*
X25080000Y-192720000D01*
X25080000Y-192720000D02*
X25080000Y-190815000D01*
X25080000Y-190815000D02*
X26350000Y-190815000D01*
X26350000Y-190815000D02*
X26985000Y-190180000D01*
X26985000Y-190180000D02*
X28255000Y-190180000D01*
X28255000Y-190180000D02*
X28255000Y-189785000D01*
X29550000Y-197000000D02*
X29525000Y-196530000D01*
X29525000Y-196530000D02*
X28890000Y-195895000D01*
X28890000Y-195895000D02*
X28255000Y-195260000D01*
X28255000Y-195260000D02*
X28255000Y-195075000D01*
X38415000Y-197800000D02*
X38415000Y-196530000D01*
X38415000Y-196530000D02*
X33970000Y-196530000D01*
X33970000Y-196530000D02*
X33335000Y-195895000D01*
X33335000Y-195895000D02*
X32700000Y-195260000D01*
X32700000Y-195260000D02*
X30160000Y-195260000D01*
X30160000Y-195260000D02*
X29525000Y-194625000D01*
X29525000Y-194625000D02*
X28890000Y-193990000D01*
X28890000Y-193990000D02*
X28255000Y-193990000D01*
X31050000Y-96500000D02*
X31430000Y-96200000D01*
X31050000Y-148500000D02*
X31430000Y-148270000D01*
X31430000Y-148270000D02*
X31430000Y-147000000D01*
X31430000Y-147000000D02*
X35560000Y-147000000D01*
X31050000Y-200500000D02*
X31430000Y-200340000D01*
X31430000Y-200340000D02*
X31430000Y-199070000D01*
X31430000Y-199070000D02*
X35560000Y-199070000D01*
X87000000Y-38950000D02*
X86675000Y-38415000D01*
X86675000Y-38415000D02*
X85405000Y-38415000D01*
X85405000Y-38415000D02*
X84770000Y-37780000D01*
X84770000Y-37780000D02*
X84135000Y-37145000D01*
X84135000Y-37145000D02*
X84135000Y-35240000D01*
X84135000Y-35240000D02*
X82150000Y-35240000D01*
X81595000Y-37145000D02*
X81650000Y-37145000D01*
X88525000Y-84365000D02*
X87945000Y-84135000D01*
X87945000Y-84135000D02*
X87945000Y-85405000D01*
X85000000Y-89950000D02*
X85405000Y-89850000D01*
X87310000Y-85405000D02*
X87310000Y-85485000D01*
X84050000Y-80500000D02*
X83500000Y-80960000D01*
X83500000Y-80960000D02*
X82865000Y-81595000D01*
X82865000Y-81595000D02*
X82230000Y-81595000D01*
X82230000Y-81595000D02*
X81595000Y-82230000D01*
X81595000Y-82230000D02*
X81595000Y-85405000D01*
X81595000Y-85405000D02*
X82230000Y-86040000D01*
X82230000Y-86040000D02*
X82230000Y-89215000D01*
X82230000Y-89215000D02*
X84135000Y-89215000D01*
X84135000Y-89215000D02*
X84225000Y-89325000D01*
X88525000Y-136365000D02*
X87945000Y-136205000D01*
X87945000Y-136205000D02*
X87945000Y-137285000D01*
X85000000Y-141950000D02*
X85405000Y-141920000D01*
X85405000Y-141920000D02*
X85405000Y-141285000D01*
X87310000Y-137475000D02*
X87310000Y-137485000D01*
X84050000Y-132500000D02*
X83500000Y-133030000D01*
X83500000Y-133030000D02*
X82865000Y-133665000D01*
X82865000Y-133665000D02*
X82230000Y-133665000D01*
X82230000Y-133665000D02*
X81595000Y-134300000D01*
X81595000Y-134300000D02*
X81595000Y-137475000D01*
X81595000Y-137475000D02*
X82230000Y-138110000D01*
X82230000Y-138110000D02*
X82230000Y-141285000D01*
X82230000Y-141285000D02*
X84135000Y-141285000D01*
X84135000Y-141285000D02*
X84225000Y-141325000D01*
X88525000Y-188365000D02*
X87945000Y-188275000D01*
X87945000Y-188275000D02*
X87945000Y-189285000D01*
X85000000Y-193950000D02*
X85405000Y-193990000D01*
X85405000Y-193990000D02*
X85405000Y-193355000D01*
X84050000Y-184500000D02*
X83500000Y-185100000D01*
X83500000Y-185100000D02*
X82865000Y-185735000D01*
X82865000Y-185735000D02*
X82230000Y-185735000D01*
X82230000Y-185735000D02*
X81595000Y-186370000D01*
X81595000Y-186370000D02*
X81595000Y-189545000D01*
X81595000Y-189545000D02*
X82230000Y-190180000D01*
X82230000Y-190180000D02*
X82230000Y-193355000D01*
X82230000Y-193355000D02*
X84225000Y-193355000D01*
X99500000Y-90050000D02*
X100010000Y-89850000D01*
X100010000Y-89850000D02*
X100010000Y-88580000D01*
X100010000Y-88580000D02*
X100645000Y-87945000D01*
X100645000Y-87945000D02*
X101280000Y-87310000D01*
X101280000Y-87310000D02*
X101280000Y-84770000D01*
X101280000Y-84770000D02*
X100645000Y-84770000D01*
X100645000Y-84770000D02*
X100275000Y-84675000D01*
X99500000Y-142050000D02*
X100010000Y-141920000D01*
X100010000Y-141920000D02*
X100010000Y-140650000D01*
X100010000Y-140650000D02*
X100645000Y-140015000D01*
X100645000Y-140015000D02*
X101280000Y-139380000D01*
X101280000Y-139380000D02*
X101280000Y-137475000D01*
X101280000Y-137475000D02*
X100645000Y-136840000D01*
X100645000Y-136840000D02*
X100275000Y-136675000D01*
X99500000Y-194050000D02*
X100010000Y-193990000D01*
X100010000Y-193990000D02*
X100010000Y-192720000D01*
X100010000Y-192720000D02*
X100645000Y-192085000D01*
X100645000Y-192085000D02*
X101280000Y-191450000D01*
X101280000Y-191450000D02*
X101280000Y-189545000D01*
X101280000Y-189545000D02*
X100645000Y-188910000D01*
X100645000Y-188910000D02*
X100275000Y-188675000D01*
X110805000Y-58735000D02*
X100575000Y-58735000D01*
X100645000Y-110805000D02*
X100575000Y-110805000D01*
X100645000Y-162875000D02*
X100575000Y-162875000D01*
X105500000Y-215550000D02*
X105090000Y-215580000D01*
X105090000Y-215580000D02*
X104455000Y-214945000D01*
X104455000Y-214945000D02*
X103820000Y-214310000D01*
X103820000Y-214310000D02*
X103185000Y-213675000D01*
X111000000Y-215000000D02*
X110805000Y-215580000D01*
X110805000Y-215580000D02*
X106995000Y-215580000D01*
X106995000Y-215580000D02*
X106995000Y-216850000D01*
X106995000Y-216850000D02*
X106275000Y-216850000D01*
X109500000Y-222500000D02*
X108900000Y-221930000D01*
X108900000Y-221930000D02*
X108900000Y-221295000D01*
X108900000Y-221295000D02*
X107630000Y-220025000D01*
X107630000Y-220025000D02*
X106995000Y-219390000D01*
X106995000Y-219390000D02*
X106995000Y-218755000D01*
X106995000Y-218755000D02*
X106360000Y-218120000D01*
X106360000Y-218120000D02*
X106275000Y-218075000D01*
X49000000Y-83450000D02*
X49210000Y-83500000D01*
X49210000Y-83500000D02*
X51115000Y-83500000D01*
X51115000Y-83500000D02*
X51750000Y-84135000D01*
X51750000Y-84135000D02*
X52385000Y-84770000D01*
X52385000Y-84770000D02*
X53020000Y-85405000D01*
X53020000Y-85405000D02*
X53655000Y-86040000D01*
X53655000Y-86040000D02*
X54290000Y-86675000D01*
X54290000Y-86675000D02*
X54925000Y-87310000D01*
X54925000Y-87310000D02*
X55560000Y-87945000D01*
X55560000Y-87945000D02*
X56830000Y-89215000D01*
X56830000Y-89215000D02*
X57465000Y-89850000D01*
X57465000Y-89850000D02*
X71435000Y-89850000D01*
X71435000Y-89850000D02*
X72070000Y-89215000D01*
X72070000Y-89215000D02*
X72070000Y-86040000D01*
X72070000Y-86040000D02*
X74610000Y-83500000D01*
X74610000Y-83500000D02*
X74610000Y-80325000D01*
X74610000Y-80325000D02*
X80325000Y-74610000D01*
X80325000Y-74610000D02*
X80960000Y-73975000D01*
X80960000Y-73975000D02*
X81595000Y-73340000D01*
X81595000Y-73340000D02*
X81595000Y-72070000D01*
X81595000Y-72070000D02*
X82230000Y-71435000D01*
X82230000Y-71435000D02*
X82230000Y-70800000D01*
X82230000Y-70800000D02*
X86040000Y-66990000D01*
X94930000Y-27620000D02*
X94930000Y-27340000D01*
X45500000Y-83450000D02*
X46035000Y-82865000D01*
X46035000Y-82865000D02*
X48225000Y-82865000D01*
X41950000Y-80000000D02*
X42225000Y-80325000D01*
X42225000Y-80325000D02*
X42860000Y-80960000D01*
X42860000Y-80960000D02*
X42860000Y-81595000D01*
X42860000Y-81595000D02*
X43495000Y-82230000D01*
X43495000Y-82230000D02*
X44130000Y-82865000D01*
X44130000Y-82865000D02*
X44765000Y-82865000D01*
X41950000Y-132000000D02*
X42225000Y-131760000D01*
X42225000Y-131760000D02*
X50480000Y-131760000D01*
X50480000Y-131760000D02*
X51115000Y-132395000D01*
X51115000Y-132395000D02*
X52385000Y-133665000D01*
X52385000Y-133665000D02*
X53020000Y-134300000D01*
X53020000Y-134300000D02*
X54290000Y-135570000D01*
X54290000Y-135570000D02*
X54925000Y-136205000D01*
X54925000Y-136205000D02*
X55560000Y-136840000D01*
X55560000Y-136840000D02*
X56195000Y-137475000D01*
X56195000Y-137475000D02*
X56830000Y-138110000D01*
X56830000Y-138110000D02*
X57465000Y-138745000D01*
X57465000Y-138745000D02*
X58735000Y-140015000D01*
X94930000Y-30160000D02*
X94930000Y-29880000D01*
X49000000Y-135450000D02*
X49210000Y-134935000D01*
X49210000Y-134935000D02*
X50480000Y-134935000D01*
X50480000Y-134935000D02*
X50480000Y-132395000D01*
X50480000Y-132395000D02*
X50691000Y-132184000D01*
X44765000Y-134935000D02*
X44130000Y-134935000D01*
X44130000Y-134935000D02*
X43495000Y-134300000D01*
X43495000Y-134300000D02*
X42860000Y-133665000D01*
X42860000Y-133665000D02*
X42860000Y-133030000D01*
X42860000Y-133030000D02*
X42575000Y-132775000D01*
X41950000Y-184000000D02*
X42225000Y-183830000D01*
X42225000Y-183830000D02*
X51115000Y-183830000D01*
X51115000Y-183830000D02*
X52385000Y-185100000D01*
X52385000Y-185100000D02*
X53020000Y-185100000D01*
X53020000Y-185100000D02*
X53655000Y-185735000D01*
X53655000Y-185735000D02*
X54925000Y-187005000D01*
X54925000Y-187005000D02*
X55560000Y-187640000D01*
X55560000Y-187640000D02*
X56195000Y-188275000D01*
X56195000Y-188275000D02*
X56830000Y-188910000D01*
X56830000Y-188910000D02*
X57465000Y-189545000D01*
X57465000Y-189545000D02*
X58100000Y-190180000D01*
X58100000Y-190180000D02*
X59370000Y-191450000D01*
X59370000Y-191450000D02*
X60005000Y-192085000D01*
X60005000Y-192085000D02*
X60640000Y-192720000D01*
X60640000Y-192720000D02*
X61910000Y-192720000D01*
X61910000Y-192720000D02*
X62545000Y-193355000D01*
X62545000Y-193355000D02*
X63180000Y-193990000D01*
X63180000Y-193990000D02*
X71435000Y-193990000D01*
X71435000Y-193990000D02*
X72070000Y-193355000D01*
X72070000Y-193355000D02*
X72070000Y-190180000D01*
X72070000Y-190180000D02*
X72705000Y-189545000D01*
X72705000Y-189545000D02*
X73340000Y-188910000D01*
X73340000Y-188910000D02*
X73975000Y-188275000D01*
X73975000Y-188275000D02*
X74610000Y-187640000D01*
X74610000Y-187640000D02*
X74610000Y-180020000D01*
X74610000Y-180020000D02*
X75245000Y-179385000D01*
X75245000Y-179385000D02*
X75880000Y-178750000D01*
X75880000Y-178750000D02*
X76515000Y-178115000D01*
X76515000Y-178115000D02*
X77150000Y-177480000D01*
X77150000Y-177480000D02*
X77785000Y-176845000D01*
X77785000Y-176845000D02*
X78420000Y-176210000D01*
X78420000Y-176210000D02*
X79055000Y-175575000D01*
X79055000Y-175575000D02*
X79690000Y-174940000D01*
X79690000Y-174940000D02*
X80325000Y-174305000D01*
X80325000Y-174305000D02*
X80960000Y-173670000D01*
X80960000Y-173670000D02*
X82230000Y-172400000D01*
X82230000Y-172400000D02*
X82865000Y-171765000D01*
X82865000Y-171765000D02*
X84135000Y-170495000D01*
X84135000Y-170495000D02*
X84135000Y-153985000D01*
X100645000Y-30795000D02*
X100950000Y-30795000D01*
X49000000Y-187450000D02*
X49210000Y-187005000D01*
X49210000Y-187005000D02*
X50480000Y-187005000D01*
X50480000Y-187005000D02*
X50480000Y-183830000D01*
X44765000Y-187005000D02*
X44130000Y-187005000D01*
X44130000Y-187005000D02*
X43495000Y-186370000D01*
X43495000Y-186370000D02*
X42860000Y-185735000D01*
X42860000Y-185735000D02*
X42860000Y-185100000D01*
X42860000Y-185100000D02*
X42575000Y-184775000D01*
X77000000Y-31450000D02*
X77150000Y-31430000D01*
X77150000Y-31430000D02*
X77150000Y-30795000D01*
X77785000Y-24445000D02*
X77775000Y-24445000D01*
X77000000Y-36450000D02*
X77150000Y-35875000D01*
X77150000Y-35875000D02*
X78420000Y-35875000D01*
X78420000Y-35875000D02*
X78420000Y-32700000D01*
X78420000Y-32700000D02*
X77785000Y-32065000D01*
X77785000Y-32065000D02*
X77775000Y-32065000D01*
X101280000Y-28255000D02*
X100010000Y-28255000D01*
X100010000Y-28255000D02*
X100010000Y-27620000D01*
X100010000Y-27620000D02*
X99375000Y-27620000D01*
X99375000Y-27620000D02*
X99375000Y-25715000D01*
X99375000Y-25715000D02*
X100010000Y-25715000D01*
X100010000Y-25715000D02*
X100010000Y-25080000D01*
X100010000Y-25080000D02*
X100645000Y-25080000D01*
X100645000Y-25080000D02*
X100645000Y-23810000D01*
X100645000Y-23810000D02*
X100010000Y-23175000D01*
X100010000Y-23175000D02*
X99375000Y-22540000D01*
X99375000Y-22540000D02*
X85405000Y-22540000D01*
X85405000Y-22540000D02*
X84770000Y-23175000D01*
X84770000Y-23175000D02*
X84135000Y-23810000D01*
X84135000Y-23810000D02*
X81595000Y-23810000D01*
X81595000Y-23810000D02*
X80960000Y-24445000D01*
X80960000Y-24445000D02*
X78185000Y-24445000D01*
X106350000Y-30000000D02*
X106360000Y-30160000D01*
X106360000Y-30160000D02*
X105725000Y-30795000D01*
X105725000Y-30795000D02*
X105090000Y-31430000D01*
X105090000Y-31430000D02*
X105090000Y-35240000D01*
X105090000Y-35240000D02*
X104455000Y-35875000D01*
X104455000Y-35875000D02*
X98105000Y-35875000D01*
X98105000Y-35875000D02*
X97470000Y-35240000D01*
X97470000Y-35240000D02*
X97470000Y-35160000D01*
X106350000Y-33000000D02*
X106360000Y-33335000D01*
X103820000Y-34605000D02*
X103820000Y-34660000D01*
X113000000Y-30540000D02*
X112710000Y-30160000D01*
X112710000Y-30160000D02*
X108875000Y-30160000D01*
X113000000Y-33080000D02*
X112710000Y-32700000D01*
X112710000Y-32700000D02*
X108875000Y-32700000D01*
D13*
X98050000Y-114500000D03*
X104000000Y-114500000D03*
X98050000Y-166500000D03*
X105500000Y-166500000D03*
X37000000Y-37150000D03*
X35874000Y-28200000D03*
X36076000Y-40650000D03*
X41600000Y-41126000D03*
X47874000Y-22400000D03*
X59000000Y-29600000D03*
X65626000Y-24887000D03*
X69626000Y-24887000D03*
X62374000Y-35400000D03*
X65374000Y-35400000D03*
X68374000Y-35400000D03*
X82000000Y-30600000D03*
X85874000Y-26400000D03*
X82000000Y-40600000D03*
X85874000Y-36400000D03*
X75874000Y-28900000D03*
X75874000Y-33900000D03*
X98625000Y-28460000D03*
X98151000Y-31650000D03*
X95899000Y-31620000D03*
X100849000Y-26540000D03*
X103575000Y-29730000D03*
X103101000Y-32920000D03*
X100849000Y-32890000D03*
X99076000Y-24650000D03*
X32626000Y-63600000D03*
X33126000Y-66387000D03*
X38874000Y-63900000D03*
X47076000Y-64300000D03*
X58374000Y-63900000D03*
X49100000Y-52374000D03*
X65874000Y-63900000D03*
X73625000Y-62635000D03*
X78101000Y-64555000D03*
X76576000Y-56650000D03*
X70150000Y-66424000D03*
X95076000Y-61450000D03*
X95076000Y-55650000D03*
X31651000Y-87555000D03*
X25874000Y-79900000D03*
X26374000Y-87900000D03*
X32576000Y-93650000D03*
X34076000Y-97150000D03*
X44374000Y-80900000D03*
X47874000Y-80900000D03*
X61076000Y-82150000D03*
X94601000Y-87555000D03*
X83400000Y-88050000D03*
X98076000Y-80650000D03*
X84200000Y-84050000D03*
X100626000Y-92600000D03*
X32626000Y-115600000D03*
X33126000Y-118387000D03*
X38874000Y-115900000D03*
X47076000Y-116300000D03*
X58374000Y-115900000D03*
X49100000Y-104374000D03*
X65874000Y-115900000D03*
X73625000Y-114635000D03*
X78101000Y-116555000D03*
X76576000Y-108650000D03*
X70150000Y-118424000D03*
X95076000Y-113450000D03*
X95076000Y-106350000D03*
X31651000Y-139555000D03*
X25874000Y-131900000D03*
X26374000Y-139900000D03*
X32576000Y-145650000D03*
X34076000Y-149150000D03*
X44374000Y-132900000D03*
X47874000Y-132900000D03*
X61076000Y-134150000D03*
X94601000Y-139555000D03*
X83400000Y-140050000D03*
X98076000Y-132650000D03*
X84200000Y-136050000D03*
X100626000Y-144600000D03*
X32626000Y-167600000D03*
X33126000Y-170387000D03*
X38874000Y-167900000D03*
X47076000Y-168300000D03*
X58374000Y-167900000D03*
X49100000Y-156374000D03*
X65874000Y-167900000D03*
X73625000Y-166635000D03*
X78101000Y-168555000D03*
X76576000Y-160650000D03*
X70150000Y-170424000D03*
X95076000Y-165450000D03*
X95076000Y-158350000D03*
X31651000Y-191555000D03*
X25874000Y-183900000D03*
X26374000Y-191900000D03*
X32576000Y-197650000D03*
X34076000Y-201150000D03*
X44374000Y-184900000D03*
X47874000Y-184900000D03*
X61076000Y-186150000D03*
X94601000Y-191555000D03*
X83400000Y-192050000D03*
X98076000Y-184650000D03*
X84200000Y-188050000D03*
X100626000Y-196600000D03*
X102000000Y-218100000D03*
X104076000Y-211150000D03*
X63180000Y-28255000D03*
X59370000Y-24445000D03*
X76515000Y-25715000D03*
X58100000Y-35875000D03*
X60005000Y-32700000D03*
X60005000Y-30160000D03*
X59370000Y-36510000D03*
X34605000Y-85405000D03*
X34605000Y-80960000D03*
X39050000Y-131760000D03*
X34605000Y-131760000D03*
X35240000Y-112710000D03*
X42860000Y-169225000D03*
X40320000Y-169860000D03*
X53020000Y-59370000D03*
X51115000Y-58100000D03*
X57465000Y-65085000D03*
X55560000Y-63180000D03*
X53655000Y-55560000D03*
X51115000Y-55560000D03*
X101915000Y-212405000D03*
X101280000Y-211135000D03*
X84770000Y-60005000D03*
X72705000Y-122235000D03*
X72705000Y-82230000D03*
X83500000Y-207325000D03*
X89850000Y-206690000D03*
X94295000Y-110170000D03*
X97470000Y-113345000D03*
X95565000Y-207325000D03*
X94295000Y-162240000D03*
X103185000Y-216850000D03*
X99375000Y-213040000D03*
X100645000Y-213675000D03*
X98740000Y-209865000D03*
X98105000Y-137475000D03*
X95565000Y-136840000D03*
X70165000Y-113345000D03*
X70165000Y-165415000D03*
X69530000Y-126045000D03*
X65085000Y-84135000D03*
X60005000Y-136205000D03*
X65085000Y-188275000D03*
X73340000Y-66990000D03*
X72705000Y-64450000D03*
X70165000Y-68895000D03*
X73975000Y-118425000D03*
X73975000Y-115885000D03*
X70165000Y-122235000D03*
X73340000Y-171130000D03*
X72705000Y-168590000D03*
X70165000Y-173035000D03*
X87945000Y-62545000D03*
X76515000Y-119695000D03*
X91755000Y-114615000D03*
X91755000Y-166685000D03*
X93025000Y-85405000D03*
X79055000Y-61275000D03*
X93025000Y-137475000D03*
X76515000Y-113345000D03*
X93025000Y-189545000D03*
X79055000Y-165415000D03*
X30160000Y-92390000D03*
X31430000Y-96200000D03*
X81595000Y-37145000D03*
X85405000Y-89850000D03*
X87310000Y-85405000D03*
X85405000Y-141285000D03*
X87310000Y-137475000D03*
X85405000Y-193355000D03*
X87310000Y-189545000D03*
X100645000Y-110805000D03*
X100645000Y-162875000D03*
X86040000Y-66990000D03*
X94930000Y-27620000D03*
X58735000Y-140015000D03*
X94930000Y-30160000D03*
X84135000Y-153985000D03*
X100645000Y-30795000D03*
X77150000Y-30795000D03*
X77785000Y-24445000D03*
X106360000Y-33335000D03*
X103820000Y-34605000D03*
D14*
X24000000Y-32000000D03*
D15*
X24000000Y-34540000D03*
D16*
X34700000Y-35150000D03*
X37000000Y-35150000D03*
X39300000Y-35150000D03*
D17*
X37000000Y-28850000D03*
D18*
X33050000Y-40000000D03*
X34950000Y-40000000D03*
X39050000Y-40000000D03*
X40950000Y-40000000D03*
D19*
X49000000Y-24950000D03*
X49000000Y-23050000D03*
D20*
X51000000Y-33100000D03*
X51000000Y-28900000D03*
D21*
X58050000Y-28300000D03*
X59000000Y-28300000D03*
X59950000Y-28300000D03*
X59950000Y-25700000D03*
X59000000Y-25700000D03*
X58050000Y-25700000D03*
D22*
X64500000Y-28462500D03*
X64500000Y-25537500D03*
D23*
X68500000Y-28462500D03*
X68500000Y-25537500D03*
D18*
X58050000Y-33000000D03*
X59950000Y-33000000D03*
X58050000Y-36500000D03*
X59950000Y-36500000D03*
D19*
X63500000Y-37950000D03*
X63500000Y-36050000D03*
X66500000Y-37950000D03*
X66500000Y-36050000D03*
X69500000Y-37950000D03*
X69500000Y-36050000D03*
D21*
X81050000Y-29300000D03*
X82000000Y-29300000D03*
X82950000Y-29300000D03*
X82950000Y-26700000D03*
X82000000Y-26700000D03*
D19*
X87000000Y-28950000D03*
X87000000Y-27050000D03*
D21*
X81050000Y-39300000D03*
X82000000Y-39300000D03*
X82950000Y-39300000D03*
X82950000Y-36700000D03*
X82000000Y-36700000D03*
D19*
X87000000Y-38950000D03*
X87000000Y-37050000D03*
X77000000Y-25950000D03*
X77000000Y-24050000D03*
X77000000Y-31450000D03*
X77000000Y-29550000D03*
X77000000Y-36450000D03*
X77000000Y-34550000D03*
D24*
X97025000Y-27190000D03*
X97025000Y-28460000D03*
X97025000Y-29730000D03*
X97025000Y-31000000D03*
X97025000Y-32270000D03*
X97025000Y-33540000D03*
X97025000Y-34810000D03*
X101975000Y-27190000D03*
X101975000Y-28460000D03*
X101975000Y-29730000D03*
X101975000Y-31000000D03*
X101975000Y-32270000D03*
X101975000Y-33540000D03*
X101975000Y-34810000D03*
D18*
X96050000Y-24000000D03*
X97950000Y-24000000D03*
X106350000Y-30000000D03*
X108250000Y-30000000D03*
X106350000Y-33000000D03*
X108250000Y-33000000D03*
D14*
X113000000Y-28000000D03*
D15*
X113000000Y-30540000D03*
X113000000Y-33080000D03*
D25*
X29000000Y-39500000D03*
X29000000Y-43500000D03*
X44500000Y-40000000D03*
X73000000Y-27000000D03*
X91000000Y-28000000D03*
D14*
X27000000Y-61000000D03*
D15*
X27000000Y-63540000D03*
D19*
X31500000Y-61050000D03*
X31500000Y-62950000D03*
X28000000Y-69450000D03*
X28000000Y-67550000D03*
D23*
X32000000Y-69962500D03*
X32000000Y-67037500D03*
D18*
X35550000Y-61000000D03*
X37450000Y-61000000D03*
D19*
X40000000Y-66450000D03*
X40000000Y-64550000D03*
D26*
X44050000Y-63650000D03*
X45950000Y-63650000D03*
X45000000Y-61350000D03*
D18*
X44050000Y-56500000D03*
X45950000Y-56500000D03*
D19*
X51000000Y-57450000D03*
X51000000Y-55550000D03*
D26*
X56450000Y-60850000D03*
X54550000Y-60850000D03*
X55500000Y-63150000D03*
D19*
X55500000Y-57450000D03*
X55500000Y-55550000D03*
X59500000Y-66450000D03*
X59500000Y-64550000D03*
D18*
X46550000Y-53500000D03*
X48450000Y-53500000D03*
X62550000Y-61000000D03*
X64450000Y-61000000D03*
D19*
X67000000Y-66450000D03*
X67000000Y-64550000D03*
D24*
X72025000Y-60095000D03*
X72025000Y-61365000D03*
X72025000Y-62635000D03*
X72025000Y-63905000D03*
X76975000Y-60095000D03*
X76975000Y-61365000D03*
X76975000Y-62635000D03*
X76975000Y-63905000D03*
D18*
X73550000Y-56000000D03*
X75450000Y-56000000D03*
D19*
X69500000Y-69450000D03*
X69500000Y-67550000D03*
D18*
X73550000Y-68500000D03*
X75450000Y-68500000D03*
X68050000Y-73000000D03*
X69950000Y-73000000D03*
D21*
X92050000Y-60800000D03*
X93000000Y-60800000D03*
X93950000Y-60800000D03*
X93950000Y-58200000D03*
X93000000Y-58200000D03*
D18*
X92050000Y-55000000D03*
X93950000Y-55000000D03*
X98050000Y-58200000D03*
X99950000Y-58200000D03*
D27*
X111000000Y-59500000D03*
X108460000Y-56960000D03*
X113540000Y-56960000D03*
X108460000Y-62040000D03*
X113540000Y-62040000D03*
D24*
X30525000Y-83095000D03*
X30525000Y-84365000D03*
X30525000Y-85635000D03*
X30525000Y-86905000D03*
X35475000Y-83095000D03*
X35475000Y-84365000D03*
X35475000Y-85635000D03*
X35475000Y-86905000D03*
D19*
X27000000Y-82450000D03*
X27000000Y-80550000D03*
D18*
X32050000Y-80000000D03*
X33950000Y-80000000D03*
D19*
X27500000Y-90450000D03*
X27500000Y-88550000D03*
D18*
X29550000Y-93000000D03*
X31450000Y-93000000D03*
D14*
X36460000Y-94500000D03*
D15*
X39000000Y-94500000D03*
X41540000Y-94500000D03*
D18*
X31050000Y-96500000D03*
X32950000Y-96500000D03*
D28*
X42690000Y-89000000D03*
D29*
X50310000Y-89000000D03*
D18*
X40050000Y-80000000D03*
X41950000Y-80000000D03*
D19*
X45500000Y-83450000D03*
X45500000Y-81550000D03*
X49000000Y-83450000D03*
X49000000Y-81550000D03*
D14*
X63460000Y-86500000D03*
D15*
X66000000Y-86500000D03*
X68540000Y-86500000D03*
D18*
X58050000Y-81500000D03*
X59950000Y-81500000D03*
X71050000Y-82000000D03*
X72950000Y-82000000D03*
D24*
X93475000Y-86905000D03*
X93475000Y-85635000D03*
X93475000Y-84365000D03*
X93475000Y-83095000D03*
X88525000Y-86905000D03*
X88525000Y-85635000D03*
X88525000Y-84365000D03*
X88525000Y-83095000D03*
D18*
X84050000Y-80500000D03*
X85950000Y-80500000D03*
D19*
X85000000Y-89950000D03*
X85000000Y-88050000D03*
D18*
X95050000Y-80000000D03*
X96950000Y-80000000D03*
D19*
X85500000Y-85950000D03*
X85500000Y-84050000D03*
X99500000Y-85950000D03*
X99500000Y-84050000D03*
X99500000Y-91950000D03*
X99500000Y-90050000D03*
D25*
X31500000Y-57000000D03*
X31500000Y-53000000D03*
X30000000Y-72500000D03*
X68500000Y-57000000D03*
X64500000Y-71000000D03*
X82000000Y-64500000D03*
D14*
X27000000Y-113000000D03*
D15*
X27000000Y-115540000D03*
D19*
X31500000Y-113050000D03*
X31500000Y-114950000D03*
X28000000Y-121450000D03*
X28000000Y-119550000D03*
D23*
X32000000Y-121962500D03*
X32000000Y-119037500D03*
D18*
X35550000Y-113000000D03*
X37450000Y-113000000D03*
D19*
X40000000Y-118450000D03*
X40000000Y-116550000D03*
D26*
X44050000Y-115650000D03*
X45950000Y-115650000D03*
X45000000Y-113350000D03*
D18*
X44050000Y-108500000D03*
X45950000Y-108500000D03*
D19*
X51000000Y-109450000D03*
X51000000Y-107550000D03*
D26*
X56450000Y-112850000D03*
X54550000Y-112850000D03*
X55500000Y-115150000D03*
D19*
X55500000Y-109450000D03*
X55500000Y-107550000D03*
X59500000Y-118450000D03*
X59500000Y-116550000D03*
D18*
X46550000Y-105500000D03*
X48450000Y-105500000D03*
X62550000Y-113000000D03*
X64450000Y-113000000D03*
D19*
X67000000Y-118450000D03*
X67000000Y-116550000D03*
D24*
X72025000Y-112095000D03*
X72025000Y-113365000D03*
X72025000Y-114635000D03*
X72025000Y-115905000D03*
X76975000Y-112095000D03*
X76975000Y-113365000D03*
X76975000Y-114635000D03*
X76975000Y-115905000D03*
D18*
X73550000Y-108000000D03*
X75450000Y-108000000D03*
D19*
X69500000Y-121450000D03*
X69500000Y-119550000D03*
D18*
X73550000Y-120500000D03*
X75450000Y-120500000D03*
X68050000Y-125000000D03*
X69950000Y-125000000D03*
D21*
X92050000Y-112800000D03*
X93000000Y-112800000D03*
X93950000Y-112800000D03*
X93950000Y-110200000D03*
X93000000Y-110200000D03*
D18*
X92050000Y-107000000D03*
X93950000Y-107000000D03*
X98050000Y-110200000D03*
X99950000Y-110200000D03*
D27*
X111000000Y-111500000D03*
X108460000Y-108960000D03*
X113540000Y-108960000D03*
X108460000Y-114040000D03*
X113540000Y-114040000D03*
D24*
X30525000Y-135095000D03*
X30525000Y-136365000D03*
X30525000Y-137635000D03*
X30525000Y-138905000D03*
X35475000Y-135095000D03*
X35475000Y-136365000D03*
X35475000Y-137635000D03*
X35475000Y-138905000D03*
D19*
X27000000Y-134450000D03*
X27000000Y-132550000D03*
D18*
X32050000Y-132000000D03*
X33950000Y-132000000D03*
D19*
X27500000Y-142450000D03*
X27500000Y-140550000D03*
D18*
X29550000Y-145000000D03*
X31450000Y-145000000D03*
D14*
X36460000Y-146500000D03*
D15*
X39000000Y-146500000D03*
X41540000Y-146500000D03*
D18*
X31050000Y-148500000D03*
X32950000Y-148500000D03*
D28*
X42690000Y-141000000D03*
D29*
X50310000Y-141000000D03*
D18*
X40050000Y-132000000D03*
X41950000Y-132000000D03*
D19*
X45500000Y-135450000D03*
X45500000Y-133550000D03*
X49000000Y-135450000D03*
X49000000Y-133550000D03*
D14*
X63460000Y-138500000D03*
D15*
X66000000Y-138500000D03*
X68540000Y-138500000D03*
D18*
X58050000Y-133500000D03*
X59950000Y-133500000D03*
X71050000Y-134000000D03*
X72950000Y-134000000D03*
D24*
X93475000Y-138905000D03*
X93475000Y-137635000D03*
X93475000Y-136365000D03*
X93475000Y-135095000D03*
X88525000Y-138905000D03*
X88525000Y-137635000D03*
X88525000Y-136365000D03*
X88525000Y-135095000D03*
D18*
X84050000Y-132500000D03*
X85950000Y-132500000D03*
D19*
X85000000Y-141950000D03*
X85000000Y-140050000D03*
D18*
X95050000Y-132000000D03*
X96950000Y-132000000D03*
D19*
X85500000Y-137950000D03*
X85500000Y-136050000D03*
X99500000Y-137950000D03*
X99500000Y-136050000D03*
X99500000Y-143950000D03*
X99500000Y-142050000D03*
D25*
X31500000Y-109000000D03*
X31500000Y-105000000D03*
X30000000Y-124500000D03*
X68500000Y-109000000D03*
X64500000Y-123000000D03*
X82000000Y-116500000D03*
D14*
X27000000Y-165000000D03*
D15*
X27000000Y-167540000D03*
D19*
X31500000Y-165050000D03*
X31500000Y-166950000D03*
X28000000Y-173450000D03*
X28000000Y-171550000D03*
D23*
X32000000Y-173962500D03*
X32000000Y-171037500D03*
D18*
X35550000Y-165000000D03*
X37450000Y-165000000D03*
D19*
X40000000Y-170450000D03*
X40000000Y-168550000D03*
D26*
X44050000Y-167650000D03*
X45950000Y-167650000D03*
X45000000Y-165350000D03*
D18*
X44050000Y-160500000D03*
X45950000Y-160500000D03*
D19*
X51000000Y-161450000D03*
X51000000Y-159550000D03*
D26*
X56450000Y-164850000D03*
X54550000Y-164850000D03*
X55500000Y-167150000D03*
D19*
X55500000Y-161450000D03*
X55500000Y-159550000D03*
X59500000Y-170450000D03*
X59500000Y-168550000D03*
D18*
X46550000Y-157500000D03*
X48450000Y-157500000D03*
X62550000Y-165000000D03*
X64450000Y-165000000D03*
D19*
X67000000Y-170450000D03*
X67000000Y-168550000D03*
D24*
X72025000Y-164095000D03*
X72025000Y-165365000D03*
X72025000Y-166635000D03*
X72025000Y-167905000D03*
X76975000Y-164095000D03*
X76975000Y-165365000D03*
X76975000Y-166635000D03*
X76975000Y-167905000D03*
D18*
X73550000Y-160000000D03*
X75450000Y-160000000D03*
D19*
X69500000Y-173450000D03*
X69500000Y-171550000D03*
D18*
X73550000Y-172500000D03*
X75450000Y-172500000D03*
X68050000Y-177000000D03*
X69950000Y-177000000D03*
D21*
X92050000Y-164800000D03*
X93000000Y-164800000D03*
X93950000Y-164800000D03*
X93950000Y-162200000D03*
X93000000Y-162200000D03*
D18*
X92050000Y-159000000D03*
X93950000Y-159000000D03*
X98050000Y-162200000D03*
X99950000Y-162200000D03*
D27*
X111000000Y-163500000D03*
X108460000Y-160960000D03*
X113540000Y-160960000D03*
X108460000Y-166040000D03*
X113540000Y-166040000D03*
D24*
X30525000Y-187095000D03*
X30525000Y-188365000D03*
X30525000Y-189635000D03*
X30525000Y-190905000D03*
X35475000Y-187095000D03*
X35475000Y-188365000D03*
X35475000Y-189635000D03*
X35475000Y-190905000D03*
D19*
X27000000Y-186450000D03*
X27000000Y-184550000D03*
D18*
X32050000Y-184000000D03*
X33950000Y-184000000D03*
D19*
X27500000Y-194450000D03*
X27500000Y-192550000D03*
D18*
X29550000Y-197000000D03*
X31450000Y-197000000D03*
D14*
X36460000Y-198500000D03*
D15*
X39000000Y-198500000D03*
X41540000Y-198500000D03*
D18*
X31050000Y-200500000D03*
X32950000Y-200500000D03*
D28*
X42690000Y-193000000D03*
D29*
X50310000Y-193000000D03*
D18*
X40050000Y-184000000D03*
X41950000Y-184000000D03*
D19*
X45500000Y-187450000D03*
X45500000Y-185550000D03*
X49000000Y-187450000D03*
X49000000Y-185550000D03*
D14*
X63460000Y-190500000D03*
D15*
X66000000Y-190500000D03*
X68540000Y-190500000D03*
D18*
X58050000Y-185500000D03*
X59950000Y-185500000D03*
X71050000Y-186000000D03*
X72950000Y-186000000D03*
D24*
X93475000Y-190905000D03*
X93475000Y-189635000D03*
X93475000Y-188365000D03*
X93475000Y-187095000D03*
X88525000Y-190905000D03*
X88525000Y-189635000D03*
X88525000Y-188365000D03*
X88525000Y-187095000D03*
D18*
X84050000Y-184500000D03*
X85950000Y-184500000D03*
D19*
X85000000Y-193950000D03*
X85000000Y-192050000D03*
D18*
X95050000Y-184000000D03*
X96950000Y-184000000D03*
D19*
X85500000Y-189950000D03*
X85500000Y-188050000D03*
X99500000Y-189950000D03*
X99500000Y-188050000D03*
X99500000Y-195950000D03*
X99500000Y-194050000D03*
D25*
X31500000Y-161000000D03*
X31500000Y-157000000D03*
X30000000Y-176500000D03*
X68500000Y-161000000D03*
X64500000Y-175000000D03*
X82000000Y-168500000D03*
D14*
X84000000Y-208500000D03*
D15*
X84000000Y-211040000D03*
D14*
X90000000Y-208500000D03*
D15*
X90000000Y-211040000D03*
D14*
X96000000Y-208500000D03*
D15*
X96000000Y-211040000D03*
D19*
X81200000Y-211050000D03*
X81200000Y-212950000D03*
X87200000Y-211050000D03*
X87200000Y-212950000D03*
X93200000Y-211050000D03*
X93200000Y-212950000D03*
D21*
X101050000Y-216800000D03*
X102000000Y-216800000D03*
X102950000Y-216800000D03*
X102950000Y-214200000D03*
X102000000Y-214200000D03*
X101050000Y-214200000D03*
D18*
X101050000Y-210500000D03*
X102950000Y-210500000D03*
D19*
X105500000Y-215550000D03*
X105500000Y-217450000D03*
D27*
X111000000Y-215000000D03*
X108460000Y-212460000D03*
X113540000Y-212460000D03*
X108460000Y-217540000D03*
X113540000Y-217540000D03*
D25*
X109500000Y-222500000D03*
M02*
