%TF.GenerationSoftware,rivgen,1.0*%
%TF.FileFunction,Paste,Top*%
%FSLAX46Y46*%
%MOMM*%
%LPD*%
G01*
%ADD10R,1.450X1.150*%
%ADD11R,1.150X1.450*%
%ADD12R,0.900X1.000*%
%ADD13R,1.950X0.600*%
%ADD14R,0.600X1.100*%
%ADD15R,5.800X2.200*%
%ADD16R,2.800X1.150*%
%ADD17R,1.800X1.150*%
%ADD18R,1.150X1.800*%
%ADD19R,1.500X2.000*%
%ADD20R,3.600X2.200*%
D10*
X30000000Y-34450000D03*
X30000000Y-32550000D03*
X30000000Y-89450000D03*
X30000000Y-87550000D03*
X30000000Y-144450000D03*
X30000000Y-142550000D03*
D11*
X32550000Y-29000000D03*
X34450000Y-29000000D03*
X32550000Y-84000000D03*
X34450000Y-84000000D03*
X32550000Y-139000000D03*
X34450000Y-139000000D03*
D10*
X37000000Y-34450000D03*
X37000000Y-32550000D03*
X37000000Y-89450000D03*
X37000000Y-87550000D03*
X37000000Y-144450000D03*
X37000000Y-142550000D03*
D12*
X41050000Y-31650000D03*
X42950000Y-31650000D03*
X42000000Y-29350000D03*
X41050000Y-86650000D03*
X42950000Y-86650000D03*
X42000000Y-84350000D03*
X41050000Y-141650000D03*
X42950000Y-141650000D03*
X42000000Y-139350000D03*
D11*
X41050000Y-24500000D03*
X42950000Y-24500000D03*
X41050000Y-79500000D03*
X42950000Y-79500000D03*
X41050000Y-134500000D03*
X42950000Y-134500000D03*
D10*
X48000000Y-25450000D03*
X48000000Y-23550000D03*
X48000000Y-80450000D03*
X48000000Y-78550000D03*
X48000000Y-135450000D03*
X48000000Y-133550000D03*
D12*
X53450000Y-28850000D03*
X51550000Y-28850000D03*
X52500000Y-31150000D03*
X53450000Y-83850000D03*
X51550000Y-83850000D03*
X52500000Y-86150000D03*
X53450000Y-138850000D03*
X51550000Y-138850000D03*
X52500000Y-141150000D03*
D10*
X52500000Y-25450000D03*
X52500000Y-23550000D03*
X52500000Y-80450000D03*
X52500000Y-78550000D03*
X52500000Y-135450000D03*
X52500000Y-133550000D03*
X56500000Y-34450000D03*
X56500000Y-32550000D03*
X56500000Y-89450000D03*
X56500000Y-87550000D03*
X56500000Y-144450000D03*
X56500000Y-142550000D03*
D11*
X59550000Y-29000000D03*
X61450000Y-29000000D03*
X59550000Y-84000000D03*
X61450000Y-84000000D03*
X59550000Y-139000000D03*
X61450000Y-139000000D03*
D10*
X64000000Y-34450000D03*
X64000000Y-32550000D03*
X64000000Y-89450000D03*
X64000000Y-87550000D03*
X64000000Y-144450000D03*
X64000000Y-142550000D03*
D11*
X43550000Y-21500000D03*
X45450000Y-21500000D03*
X43550000Y-76500000D03*
X45450000Y-76500000D03*
X43550000Y-131500000D03*
X45450000Y-131500000D03*
D13*
X69025000Y-28095000D03*
X69025000Y-29365000D03*
X69025000Y-30635000D03*
X69025000Y-31905000D03*
X73975000Y-28095000D03*
X73975000Y-29365000D03*
X73975000Y-30635000D03*
X73975000Y-31905000D03*
X69025000Y-83095000D03*
X69025000Y-84365000D03*
X69025000Y-85635000D03*
X69025000Y-86905000D03*
X73975000Y-83095000D03*
X73975000Y-84365000D03*
X73975000Y-85635000D03*
X73975000Y-86905000D03*
X69025000Y-138095000D03*
X69025000Y-139365000D03*
X69025000Y-140635000D03*
X69025000Y-141905000D03*
X73975000Y-138095000D03*
X73975000Y-139365000D03*
X73975000Y-140635000D03*
X73975000Y-141905000D03*
D11*
X70550000Y-24000000D03*
X72450000Y-24000000D03*
X70550000Y-79000000D03*
X72450000Y-79000000D03*
X70550000Y-134000000D03*
X72450000Y-134000000D03*
D10*
X66500000Y-37450000D03*
X66500000Y-35550000D03*
X66500000Y-92450000D03*
X66500000Y-90550000D03*
X66500000Y-147450000D03*
X66500000Y-145550000D03*
D11*
X70550000Y-36500000D03*
X72450000Y-36500000D03*
X70550000Y-91500000D03*
X72450000Y-91500000D03*
X70550000Y-146500000D03*
X72450000Y-146500000D03*
X65050000Y-41000000D03*
X66950000Y-41000000D03*
X65050000Y-96000000D03*
X66950000Y-96000000D03*
X65050000Y-151000000D03*
X66950000Y-151000000D03*
D13*
X86475000Y-41905000D03*
X86475000Y-40635000D03*
X86475000Y-39365000D03*
X86475000Y-38095000D03*
X81525000Y-41905000D03*
X81525000Y-40635000D03*
X81525000Y-39365000D03*
X81525000Y-38095000D03*
X86475000Y-96905000D03*
X86475000Y-95635000D03*
X86475000Y-94365000D03*
X86475000Y-93095000D03*
X81525000Y-96905000D03*
X81525000Y-95635000D03*
X81525000Y-94365000D03*
X81525000Y-93095000D03*
X86475000Y-151905000D03*
X86475000Y-150635000D03*
X86475000Y-149365000D03*
X86475000Y-148095000D03*
X81525000Y-151905000D03*
X81525000Y-150635000D03*
X81525000Y-149365000D03*
X81525000Y-148095000D03*
D11*
X77050000Y-35500000D03*
X78950000Y-35500000D03*
X77050000Y-90500000D03*
X78950000Y-90500000D03*
X77050000Y-145500000D03*
X78950000Y-145500000D03*
D10*
X78000000Y-44950000D03*
X78000000Y-43050000D03*
X78000000Y-99950000D03*
X78000000Y-98050000D03*
X78000000Y-154950000D03*
X78000000Y-153050000D03*
D11*
X88050000Y-35000000D03*
X89950000Y-35000000D03*
X88050000Y-90000000D03*
X89950000Y-90000000D03*
X88050000Y-145000000D03*
X89950000Y-145000000D03*
D10*
X78500000Y-40950000D03*
X78500000Y-39050000D03*
X78500000Y-95950000D03*
X78500000Y-94050000D03*
X78500000Y-150950000D03*
X78500000Y-149050000D03*
X92500000Y-40950000D03*
X92500000Y-39050000D03*
X92500000Y-95950000D03*
X92500000Y-94050000D03*
X92500000Y-150950000D03*
X92500000Y-149050000D03*
X92500000Y-46950000D03*
X92500000Y-45050000D03*
X92500000Y-101950000D03*
X92500000Y-100050000D03*
X92500000Y-156950000D03*
X92500000Y-155050000D03*
D11*
X55050000Y-46000000D03*
X56950000Y-46000000D03*
X55050000Y-101000000D03*
X56950000Y-101000000D03*
X55050000Y-156000000D03*
X56950000Y-156000000D03*
X68050000Y-46500000D03*
X69950000Y-46500000D03*
X68050000Y-101500000D03*
X69950000Y-101500000D03*
X68050000Y-156500000D03*
X69950000Y-156500000D03*
D14*
X74050000Y-52300000D03*
X75000000Y-52300000D03*
X75950000Y-52300000D03*
X75950000Y-49700000D03*
X75000000Y-49700000D03*
D10*
X80600000Y-48750000D03*
X80600000Y-46850000D03*
D15*
X27000000Y-49600000D03*
X27000000Y-45400000D03*
D14*
X33550000Y-45800000D03*
X34500000Y-45800000D03*
X35450000Y-45800000D03*
X35450000Y-43200000D03*
X34500000Y-43200000D03*
X33550000Y-43200000D03*
D10*
X24000000Y-41950000D03*
X24000000Y-40050000D03*
D16*
X40000000Y-45962500D03*
X40000000Y-43037500D03*
D17*
X44000000Y-45962500D03*
X44000000Y-43037500D03*
D11*
X33050000Y-51000000D03*
X34950000Y-51000000D03*
X33050000Y-54000000D03*
X34950000Y-54000000D03*
X23050000Y-58000000D03*
X24950000Y-58000000D03*
X23050000Y-61000000D03*
X24950000Y-61000000D03*
X23050000Y-64000000D03*
X24950000Y-64000000D03*
D13*
X44525000Y-58095000D03*
X44525000Y-59365000D03*
X44525000Y-60635000D03*
X44525000Y-61905000D03*
X49475000Y-58095000D03*
X49475000Y-59365000D03*
X49475000Y-60635000D03*
X49475000Y-61905000D03*
X44525000Y-113095000D03*
X44525000Y-114365000D03*
X44525000Y-115635000D03*
X44525000Y-116905000D03*
X49475000Y-113095000D03*
X49475000Y-114365000D03*
X49475000Y-115635000D03*
X49475000Y-116905000D03*
X44525000Y-168095000D03*
X44525000Y-169365000D03*
X44525000Y-170635000D03*
X44525000Y-171905000D03*
X49475000Y-168095000D03*
X49475000Y-169365000D03*
X49475000Y-170635000D03*
X49475000Y-171905000D03*
D10*
X41000000Y-57450000D03*
X41000000Y-55550000D03*
X41000000Y-112450000D03*
X41000000Y-110550000D03*
X41000000Y-167450000D03*
X41000000Y-165550000D03*
D11*
X46050000Y-55000000D03*
X47950000Y-55000000D03*
X46050000Y-110000000D03*
X47950000Y-110000000D03*
X46050000Y-165000000D03*
X47950000Y-165000000D03*
D10*
X41500000Y-65450000D03*
X41500000Y-63550000D03*
X41500000Y-120450000D03*
X41500000Y-118550000D03*
X41500000Y-175450000D03*
X41500000Y-173550000D03*
D11*
X43550000Y-68000000D03*
X45450000Y-68000000D03*
X43550000Y-123000000D03*
X45450000Y-123000000D03*
X43550000Y-178000000D03*
X45450000Y-178000000D03*
X45050000Y-71500000D03*
X46950000Y-71500000D03*
X45050000Y-126500000D03*
X46950000Y-126500000D03*
X45050000Y-181500000D03*
X46950000Y-181500000D03*
D14*
X66050000Y-62300000D03*
X67000000Y-62300000D03*
X67950000Y-62300000D03*
X67950000Y-59700000D03*
X67000000Y-59700000D03*
D11*
X60550000Y-57500000D03*
X62450000Y-57500000D03*
X27050000Y-37000000D03*
X28950000Y-37000000D03*
X27050000Y-92000000D03*
X28950000Y-92000000D03*
X27050000Y-147000000D03*
X28950000Y-147000000D03*
D18*
X33037500Y-37000000D03*
X35962500Y-37000000D03*
X33037500Y-92000000D03*
X35962500Y-92000000D03*
X33037500Y-147000000D03*
X35962500Y-147000000D03*
D11*
X91350000Y-60800000D03*
X93250000Y-60800000D03*
D19*
X83700000Y-68650000D03*
X86000000Y-68650000D03*
X88300000Y-68650000D03*
D20*
X86000000Y-62350000D03*
D11*
X79050000Y-61500000D03*
X80950000Y-61500000D03*
D14*
X87050000Y-53800000D03*
X88000000Y-53800000D03*
X88950000Y-53800000D03*
X88950000Y-51200000D03*
X88000000Y-51200000D03*
X87050000Y-108800000D03*
X88000000Y-108800000D03*
X88950000Y-108800000D03*
X88950000Y-106200000D03*
X88000000Y-106200000D03*
X87050000Y-163800000D03*
X88000000Y-163800000D03*
X88950000Y-163800000D03*
X88950000Y-161200000D03*
X88000000Y-161200000D03*
D10*
X84500000Y-53450000D03*
X84500000Y-51550000D03*
X84500000Y-108450000D03*
X84500000Y-106550000D03*
X84500000Y-163450000D03*
X84500000Y-161550000D03*
X89800000Y-58550000D03*
X89800000Y-56650000D03*
X89800000Y-113550000D03*
X89800000Y-111650000D03*
X89800000Y-168550000D03*
X89800000Y-166650000D03*
D14*
X83050000Y-121800000D03*
X84000000Y-121800000D03*
X84950000Y-121800000D03*
X84950000Y-119200000D03*
X84000000Y-119200000D03*
X83050000Y-119200000D03*
D10*
X86500000Y-116450000D03*
X86500000Y-114550000D03*
D11*
X88550000Y-119000000D03*
X90450000Y-119000000D03*
D10*
X78000000Y-121450000D03*
X78000000Y-119550000D03*
X80000000Y-121450000D03*
X80000000Y-119550000D03*
X81500000Y-116450000D03*
X81500000Y-114550000D03*
M02*
