%TF.GenerationSoftware,rivgen,1.0*%
%TF.FileFunction,Paste,Top*%
%FSLAX46Y46*%
%MOMM*%
%LPD*%
G01*
%ADD10R,1.500X2.000*%
%ADD11R,3.600X2.200*%
%ADD12R,1.150X1.450*%
%ADD13R,1.450X1.150*%
%ADD14R,5.800X2.200*%
%ADD15R,0.600X1.100*%
%ADD16R,2.800X1.150*%
%ADD17R,1.800X1.150*%
%ADD18R,1.950X0.600*%
%ADD19R,0.900X1.000*%
D10*
X34700000Y-35150000D03*
X37000000Y-35150000D03*
X39300000Y-35150000D03*
D11*
X37000000Y-28850000D03*
D12*
X33050000Y-40000000D03*
X34950000Y-40000000D03*
X39050000Y-40000000D03*
X40950000Y-40000000D03*
D13*
X49000000Y-24950000D03*
X49000000Y-23050000D03*
D14*
X51000000Y-33100000D03*
X51000000Y-28900000D03*
D15*
X58050000Y-28300000D03*
X59000000Y-28300000D03*
X59950000Y-28300000D03*
X59950000Y-25700000D03*
X59000000Y-25700000D03*
X58050000Y-25700000D03*
D16*
X64500000Y-28462500D03*
X64500000Y-25537500D03*
D17*
X68500000Y-28462500D03*
X68500000Y-25537500D03*
D12*
X58050000Y-33000000D03*
X59950000Y-33000000D03*
X58050000Y-36500000D03*
X59950000Y-36500000D03*
D13*
X63500000Y-37950000D03*
X63500000Y-36050000D03*
X66500000Y-37950000D03*
X66500000Y-36050000D03*
X69500000Y-37950000D03*
X69500000Y-36050000D03*
D15*
X81050000Y-29300000D03*
X82000000Y-29300000D03*
X82950000Y-29300000D03*
X82950000Y-26700000D03*
X82000000Y-26700000D03*
D13*
X87000000Y-28950000D03*
X87000000Y-27050000D03*
D15*
X81050000Y-39300000D03*
X82000000Y-39300000D03*
X82950000Y-39300000D03*
X82950000Y-36700000D03*
X82000000Y-36700000D03*
D13*
X87000000Y-38950000D03*
X87000000Y-37050000D03*
X77000000Y-25950000D03*
X77000000Y-24050000D03*
X77000000Y-31450000D03*
X77000000Y-29550000D03*
X77000000Y-36450000D03*
X77000000Y-34550000D03*
D18*
X97025000Y-27190000D03*
X97025000Y-28460000D03*
X97025000Y-29730000D03*
X97025000Y-31000000D03*
X97025000Y-32270000D03*
X97025000Y-33540000D03*
X97025000Y-34810000D03*
X101975000Y-27190000D03*
X101975000Y-28460000D03*
X101975000Y-29730000D03*
X101975000Y-31000000D03*
X101975000Y-32270000D03*
X101975000Y-33540000D03*
X101975000Y-34810000D03*
D12*
X96050000Y-24000000D03*
X97950000Y-24000000D03*
X106350000Y-30000000D03*
X108250000Y-30000000D03*
X106350000Y-33000000D03*
X108250000Y-33000000D03*
D13*
X31500000Y-61050000D03*
X31500000Y-62950000D03*
X28000000Y-69450000D03*
X28000000Y-67550000D03*
D17*
X32000000Y-69962500D03*
X32000000Y-67037500D03*
D12*
X35550000Y-61000000D03*
X37450000Y-61000000D03*
D13*
X40000000Y-66450000D03*
X40000000Y-64550000D03*
D19*
X44050000Y-63650000D03*
X45950000Y-63650000D03*
X45000000Y-61350000D03*
D12*
X44050000Y-56500000D03*
X45950000Y-56500000D03*
D13*
X51000000Y-57450000D03*
X51000000Y-55550000D03*
D19*
X56450000Y-60850000D03*
X54550000Y-60850000D03*
X55500000Y-63150000D03*
D13*
X55500000Y-57450000D03*
X55500000Y-55550000D03*
X59500000Y-66450000D03*
X59500000Y-64550000D03*
D12*
X46550000Y-53500000D03*
X48450000Y-53500000D03*
X62550000Y-61000000D03*
X64450000Y-61000000D03*
D13*
X67000000Y-66450000D03*
X67000000Y-64550000D03*
D18*
X72025000Y-60095000D03*
X72025000Y-61365000D03*
X72025000Y-62635000D03*
X72025000Y-63905000D03*
X76975000Y-60095000D03*
X76975000Y-61365000D03*
X76975000Y-62635000D03*
X76975000Y-63905000D03*
D12*
X73550000Y-56000000D03*
X75450000Y-56000000D03*
D13*
X69500000Y-69450000D03*
X69500000Y-67550000D03*
D12*
X73550000Y-68500000D03*
X75450000Y-68500000D03*
X68050000Y-73000000D03*
X69950000Y-73000000D03*
D15*
X92050000Y-60800000D03*
X93000000Y-60800000D03*
X93950000Y-60800000D03*
X93950000Y-58200000D03*
X93000000Y-58200000D03*
D12*
X92050000Y-55000000D03*
X93950000Y-55000000D03*
X98050000Y-58200000D03*
X99950000Y-58200000D03*
D18*
X30525000Y-83095000D03*
X30525000Y-84365000D03*
X30525000Y-85635000D03*
X30525000Y-86905000D03*
X35475000Y-83095000D03*
X35475000Y-84365000D03*
X35475000Y-85635000D03*
X35475000Y-86905000D03*
D13*
X27000000Y-82450000D03*
X27000000Y-80550000D03*
D12*
X32050000Y-80000000D03*
X33950000Y-80000000D03*
D13*
X27500000Y-90450000D03*
X27500000Y-88550000D03*
D12*
X29550000Y-93000000D03*
X31450000Y-93000000D03*
X31050000Y-96500000D03*
X32950000Y-96500000D03*
X40050000Y-80000000D03*
X41950000Y-80000000D03*
D13*
X45500000Y-83450000D03*
X45500000Y-81550000D03*
X49000000Y-83450000D03*
X49000000Y-81550000D03*
D12*
X58050000Y-81500000D03*
X59950000Y-81500000D03*
X71050000Y-82000000D03*
X72950000Y-82000000D03*
D18*
X93475000Y-86905000D03*
X93475000Y-85635000D03*
X93475000Y-84365000D03*
X93475000Y-83095000D03*
X88525000Y-86905000D03*
X88525000Y-85635000D03*
X88525000Y-84365000D03*
X88525000Y-83095000D03*
D12*
X84050000Y-80500000D03*
X85950000Y-80500000D03*
D13*
X85000000Y-89950000D03*
X85000000Y-88050000D03*
D12*
X95050000Y-80000000D03*
X96950000Y-80000000D03*
D13*
X85500000Y-85950000D03*
X85500000Y-84050000D03*
X99500000Y-85950000D03*
X99500000Y-84050000D03*
X99500000Y-91950000D03*
X99500000Y-90050000D03*
X31500000Y-113050000D03*
X31500000Y-114950000D03*
X28000000Y-121450000D03*
X28000000Y-119550000D03*
D17*
X32000000Y-121962500D03*
X32000000Y-119037500D03*
D12*
X35550000Y-113000000D03*
X37450000Y-113000000D03*
D13*
X40000000Y-118450000D03*
X40000000Y-116550000D03*
D19*
X44050000Y-115650000D03*
X45950000Y-115650000D03*
X45000000Y-113350000D03*
D12*
X44050000Y-108500000D03*
X45950000Y-108500000D03*
D13*
X51000000Y-109450000D03*
X51000000Y-107550000D03*
D19*
X56450000Y-112850000D03*
X54550000Y-112850000D03*
X55500000Y-115150000D03*
D13*
X55500000Y-109450000D03*
X55500000Y-107550000D03*
X59500000Y-118450000D03*
X59500000Y-116550000D03*
D12*
X46550000Y-105500000D03*
X48450000Y-105500000D03*
X62550000Y-113000000D03*
X64450000Y-113000000D03*
D13*
X67000000Y-118450000D03*
X67000000Y-116550000D03*
D18*
X72025000Y-112095000D03*
X72025000Y-113365000D03*
X72025000Y-114635000D03*
X72025000Y-115905000D03*
X76975000Y-112095000D03*
X76975000Y-113365000D03*
X76975000Y-114635000D03*
X76975000Y-115905000D03*
D12*
X73550000Y-108000000D03*
X75450000Y-108000000D03*
D13*
X69500000Y-121450000D03*
X69500000Y-119550000D03*
D12*
X73550000Y-120500000D03*
X75450000Y-120500000D03*
X68050000Y-125000000D03*
X69950000Y-125000000D03*
D15*
X92050000Y-112800000D03*
X93000000Y-112800000D03*
X93950000Y-112800000D03*
X93950000Y-110200000D03*
X93000000Y-110200000D03*
D12*
X92050000Y-107000000D03*
X93950000Y-107000000D03*
X98050000Y-110200000D03*
X99950000Y-110200000D03*
D18*
X30525000Y-135095000D03*
X30525000Y-136365000D03*
X30525000Y-137635000D03*
X30525000Y-138905000D03*
X35475000Y-135095000D03*
X35475000Y-136365000D03*
X35475000Y-137635000D03*
X35475000Y-138905000D03*
D13*
X27000000Y-134450000D03*
X27000000Y-132550000D03*
D12*
X32050000Y-132000000D03*
X33950000Y-132000000D03*
D13*
X27500000Y-142450000D03*
X27500000Y-140550000D03*
D12*
X29550000Y-145000000D03*
X31450000Y-145000000D03*
X31050000Y-148500000D03*
X32950000Y-148500000D03*
X40050000Y-132000000D03*
X41950000Y-132000000D03*
D13*
X45500000Y-135450000D03*
X45500000Y-133550000D03*
X49000000Y-135450000D03*
X49000000Y-133550000D03*
D12*
X58050000Y-133500000D03*
X59950000Y-133500000D03*
X71050000Y-134000000D03*
X72950000Y-134000000D03*
D18*
X93475000Y-138905000D03*
X93475000Y-137635000D03*
X93475000Y-136365000D03*
X93475000Y-135095000D03*
X88525000Y-138905000D03*
X88525000Y-137635000D03*
X88525000Y-136365000D03*
X88525000Y-135095000D03*
D12*
X84050000Y-132500000D03*
X85950000Y-132500000D03*
D13*
X85000000Y-141950000D03*
X85000000Y-140050000D03*
D12*
X95050000Y-132000000D03*
X96950000Y-132000000D03*
D13*
X85500000Y-137950000D03*
X85500000Y-136050000D03*
X99500000Y-137950000D03*
X99500000Y-136050000D03*
X99500000Y-143950000D03*
X99500000Y-142050000D03*
X31500000Y-165050000D03*
X31500000Y-166950000D03*
X28000000Y-173450000D03*
X28000000Y-171550000D03*
D17*
X32000000Y-173962500D03*
X32000000Y-171037500D03*
D12*
X35550000Y-165000000D03*
X37450000Y-165000000D03*
D13*
X40000000Y-170450000D03*
X40000000Y-168550000D03*
D19*
X44050000Y-167650000D03*
X45950000Y-167650000D03*
X45000000Y-165350000D03*
D12*
X44050000Y-160500000D03*
X45950000Y-160500000D03*
D13*
X51000000Y-161450000D03*
X51000000Y-159550000D03*
D19*
X56450000Y-164850000D03*
X54550000Y-164850000D03*
X55500000Y-167150000D03*
D13*
X55500000Y-161450000D03*
X55500000Y-159550000D03*
X59500000Y-170450000D03*
X59500000Y-168550000D03*
D12*
X46550000Y-157500000D03*
X48450000Y-157500000D03*
X62550000Y-165000000D03*
X64450000Y-165000000D03*
D13*
X67000000Y-170450000D03*
X67000000Y-168550000D03*
D18*
X72025000Y-164095000D03*
X72025000Y-165365000D03*
X72025000Y-166635000D03*
X72025000Y-167905000D03*
X76975000Y-164095000D03*
X76975000Y-165365000D03*
X76975000Y-166635000D03*
X76975000Y-167905000D03*
D12*
X73550000Y-160000000D03*
X75450000Y-160000000D03*
D13*
X69500000Y-173450000D03*
X69500000Y-171550000D03*
D12*
X73550000Y-172500000D03*
X75450000Y-172500000D03*
X68050000Y-177000000D03*
X69950000Y-177000000D03*
D15*
X92050000Y-164800000D03*
X93000000Y-164800000D03*
X93950000Y-164800000D03*
X93950000Y-162200000D03*
X93000000Y-162200000D03*
D12*
X92050000Y-159000000D03*
X93950000Y-159000000D03*
X98050000Y-162200000D03*
X99950000Y-162200000D03*
D18*
X30525000Y-187095000D03*
X30525000Y-188365000D03*
X30525000Y-189635000D03*
X30525000Y-190905000D03*
X35475000Y-187095000D03*
X35475000Y-188365000D03*
X35475000Y-189635000D03*
X35475000Y-190905000D03*
D13*
X27000000Y-186450000D03*
X27000000Y-184550000D03*
D12*
X32050000Y-184000000D03*
X33950000Y-184000000D03*
D13*
X27500000Y-194450000D03*
X27500000Y-192550000D03*
D12*
X29550000Y-197000000D03*
X31450000Y-197000000D03*
X31050000Y-200500000D03*
X32950000Y-200500000D03*
X40050000Y-184000000D03*
X41950000Y-184000000D03*
D13*
X45500000Y-187450000D03*
X45500000Y-185550000D03*
X49000000Y-187450000D03*
X49000000Y-185550000D03*
D12*
X58050000Y-185500000D03*
X59950000Y-185500000D03*
X71050000Y-186000000D03*
X72950000Y-186000000D03*
D18*
X93475000Y-190905000D03*
X93475000Y-189635000D03*
X93475000Y-188365000D03*
X93475000Y-187095000D03*
X88525000Y-190905000D03*
X88525000Y-189635000D03*
X88525000Y-188365000D03*
X88525000Y-187095000D03*
D12*
X84050000Y-184500000D03*
X85950000Y-184500000D03*
D13*
X85000000Y-193950000D03*
X85000000Y-192050000D03*
D12*
X95050000Y-184000000D03*
X96950000Y-184000000D03*
D13*
X85500000Y-189950000D03*
X85500000Y-188050000D03*
X99500000Y-189950000D03*
X99500000Y-188050000D03*
X99500000Y-195950000D03*
X99500000Y-194050000D03*
X81200000Y-211050000D03*
X81200000Y-212950000D03*
X87200000Y-211050000D03*
X87200000Y-212950000D03*
X93200000Y-211050000D03*
X93200000Y-212950000D03*
D15*
X101050000Y-216800000D03*
X102000000Y-216800000D03*
X102950000Y-216800000D03*
X102950000Y-214200000D03*
X102000000Y-214200000D03*
X101050000Y-214200000D03*
D12*
X101050000Y-210500000D03*
X102950000Y-210500000D03*
D13*
X105500000Y-215550000D03*
X105500000Y-217450000D03*
M02*
