%TF.GenerationSoftware,rivgen,1.0*%
%TF.FileFunction,Paste,Top*%
%FSLAX46Y46*%
%MOMM*%
%LPD*%
G01*
%ADD10R,1.500X2.000*%
%ADD11R,3.600X2.200*%
%ADD12R,1.150X1.450*%
%ADD13R,1.450X1.150*%
%ADD14R,5.800X2.200*%
%ADD15R,0.600X1.100*%
%ADD16R,2.800X1.150*%
%ADD17R,1.800X1.150*%
%ADD18R,1.950X0.600*%
%ADD19R,0.900X1.000*%
D10*
X41050000Y-35150000D03*
X43350000Y-35150000D03*
X45650000Y-35150000D03*
D11*
X43350000Y-28850000D03*
D12*
X39400000Y-40000000D03*
X41300000Y-40000000D03*
X45400000Y-40000000D03*
X47300000Y-40000000D03*
D13*
X57255000Y-24950000D03*
X57255000Y-23050000D03*
D14*
X59255000Y-33100000D03*
X59255000Y-28900000D03*
D15*
X66305000Y-28300000D03*
X67255000Y-28300000D03*
X68205000Y-28300000D03*
X68205000Y-25700000D03*
X67255000Y-25700000D03*
X66305000Y-25700000D03*
D16*
X72755000Y-28462500D03*
X72755000Y-25537500D03*
D17*
X76755000Y-28462500D03*
X76755000Y-25537500D03*
D12*
X66305000Y-33000000D03*
X68205000Y-33000000D03*
X66305000Y-36500000D03*
X68205000Y-36500000D03*
D13*
X71755000Y-37950000D03*
X71755000Y-36050000D03*
X74755000Y-37950000D03*
X74755000Y-36050000D03*
X77755000Y-37950000D03*
X77755000Y-36050000D03*
D15*
X91845000Y-29300000D03*
X92795000Y-29300000D03*
X93745000Y-29300000D03*
X93745000Y-26700000D03*
X92795000Y-26700000D03*
D13*
X97795000Y-28950000D03*
X97795000Y-27050000D03*
D15*
X91845000Y-39300000D03*
X92795000Y-39300000D03*
X93745000Y-39300000D03*
X93745000Y-36700000D03*
X92795000Y-36700000D03*
D13*
X97795000Y-38950000D03*
X97795000Y-37050000D03*
X85255000Y-25950000D03*
X85255000Y-24050000D03*
X85255000Y-31450000D03*
X85255000Y-29550000D03*
X85255000Y-36450000D03*
X85255000Y-34550000D03*
D18*
X107060000Y-31690000D03*
X107060000Y-32960000D03*
X107060000Y-34230000D03*
X107060000Y-35500000D03*
X107060000Y-36770000D03*
X107060000Y-38040000D03*
X107060000Y-39310000D03*
X112010000Y-31690000D03*
X112010000Y-32960000D03*
X112010000Y-34230000D03*
X112010000Y-35500000D03*
X112010000Y-36770000D03*
X112010000Y-38040000D03*
X112010000Y-39310000D03*
D12*
X108585000Y-42000000D03*
X110485000Y-42000000D03*
X115650000Y-35000000D03*
X117550000Y-35000000D03*
X115650000Y-38000000D03*
X117550000Y-38000000D03*
D13*
X31500000Y-61050000D03*
X31500000Y-62950000D03*
X28000000Y-69450000D03*
X28000000Y-67550000D03*
D17*
X32000000Y-69962500D03*
X32000000Y-67037500D03*
D12*
X37455000Y-61000000D03*
X39355000Y-61000000D03*
D13*
X41905000Y-66450000D03*
X41905000Y-64550000D03*
D19*
X45955000Y-63650000D03*
X47855000Y-63650000D03*
X46905000Y-61350000D03*
D12*
X45955000Y-56500000D03*
X47855000Y-56500000D03*
D13*
X52905000Y-57450000D03*
X52905000Y-55550000D03*
D19*
X58355000Y-60850000D03*
X56455000Y-60850000D03*
X57405000Y-63150000D03*
D13*
X57405000Y-57450000D03*
X57405000Y-55550000D03*
X61405000Y-66450000D03*
X61405000Y-64550000D03*
D12*
X48455000Y-53500000D03*
X50355000Y-53500000D03*
X66360000Y-61000000D03*
X68260000Y-61000000D03*
D13*
X70810000Y-66450000D03*
X70810000Y-64550000D03*
D18*
X75835000Y-60095000D03*
X75835000Y-61365000D03*
X75835000Y-62635000D03*
X75835000Y-63905000D03*
X80785000Y-60095000D03*
X80785000Y-61365000D03*
X80785000Y-62635000D03*
X80785000Y-63905000D03*
D12*
X77360000Y-56000000D03*
X79260000Y-56000000D03*
D13*
X73310000Y-69450000D03*
X73310000Y-67550000D03*
D12*
X77360000Y-68500000D03*
X79260000Y-68500000D03*
X71860000Y-73000000D03*
X73760000Y-73000000D03*
D15*
X98400000Y-60800000D03*
X99350000Y-60800000D03*
X100300000Y-60800000D03*
X100300000Y-58200000D03*
X99350000Y-58200000D03*
D12*
X98400000Y-55000000D03*
X100300000Y-55000000D03*
X104400000Y-58200000D03*
X106300000Y-58200000D03*
D18*
X30525000Y-83095000D03*
X30525000Y-84365000D03*
X30525000Y-85635000D03*
X30525000Y-86905000D03*
X35475000Y-83095000D03*
X35475000Y-84365000D03*
X35475000Y-85635000D03*
X35475000Y-86905000D03*
D13*
X27000000Y-82450000D03*
X27000000Y-80550000D03*
D12*
X32050000Y-80000000D03*
X33950000Y-80000000D03*
D13*
X27500000Y-90450000D03*
X27500000Y-88550000D03*
D12*
X29550000Y-93000000D03*
X31450000Y-93000000D03*
X31050000Y-96500000D03*
X32950000Y-96500000D03*
X40050000Y-80000000D03*
X41950000Y-80000000D03*
D13*
X45500000Y-83450000D03*
X45500000Y-81550000D03*
X49000000Y-83450000D03*
X49000000Y-81550000D03*
D12*
X61860000Y-81500000D03*
X63760000Y-81500000D03*
X74860000Y-82000000D03*
X76760000Y-82000000D03*
D18*
X99825000Y-86905000D03*
X99825000Y-85635000D03*
X99825000Y-84365000D03*
X99825000Y-83095000D03*
X94875000Y-86905000D03*
X94875000Y-85635000D03*
X94875000Y-84365000D03*
X94875000Y-83095000D03*
D12*
X90400000Y-80500000D03*
X92300000Y-80500000D03*
D13*
X91350000Y-89950000D03*
X91350000Y-88050000D03*
D12*
X101400000Y-80000000D03*
X103300000Y-80000000D03*
D13*
X91850000Y-85950000D03*
X91850000Y-84050000D03*
X105850000Y-85950000D03*
X105850000Y-84050000D03*
X105850000Y-91950000D03*
X105850000Y-90050000D03*
X31500000Y-115050000D03*
X31500000Y-116950000D03*
X28000000Y-123450000D03*
X28000000Y-121550000D03*
D17*
X32000000Y-123962500D03*
X32000000Y-121037500D03*
D12*
X37455000Y-115000000D03*
X39355000Y-115000000D03*
D13*
X41905000Y-120450000D03*
X41905000Y-118550000D03*
D19*
X45955000Y-117650000D03*
X47855000Y-117650000D03*
X46905000Y-115350000D03*
D12*
X45955000Y-110500000D03*
X47855000Y-110500000D03*
D13*
X52905000Y-111450000D03*
X52905000Y-109550000D03*
D19*
X58355000Y-114850000D03*
X56455000Y-114850000D03*
X57405000Y-117150000D03*
D13*
X57405000Y-111450000D03*
X57405000Y-109550000D03*
X61405000Y-120450000D03*
X61405000Y-118550000D03*
D12*
X48455000Y-107500000D03*
X50355000Y-107500000D03*
X66360000Y-115000000D03*
X68260000Y-115000000D03*
D13*
X70810000Y-120450000D03*
X70810000Y-118550000D03*
D18*
X75835000Y-114095000D03*
X75835000Y-115365000D03*
X75835000Y-116635000D03*
X75835000Y-117905000D03*
X80785000Y-114095000D03*
X80785000Y-115365000D03*
X80785000Y-116635000D03*
X80785000Y-117905000D03*
D12*
X77360000Y-110000000D03*
X79260000Y-110000000D03*
D13*
X73310000Y-123450000D03*
X73310000Y-121550000D03*
D12*
X77360000Y-122500000D03*
X79260000Y-122500000D03*
X71860000Y-127000000D03*
X73760000Y-127000000D03*
D15*
X98400000Y-114800000D03*
X99350000Y-114800000D03*
X100300000Y-114800000D03*
X100300000Y-112200000D03*
X99350000Y-112200000D03*
D12*
X98400000Y-109000000D03*
X100300000Y-109000000D03*
X104400000Y-112200000D03*
X106300000Y-112200000D03*
D18*
X30525000Y-137095000D03*
X30525000Y-138365000D03*
X30525000Y-139635000D03*
X30525000Y-140905000D03*
X35475000Y-137095000D03*
X35475000Y-138365000D03*
X35475000Y-139635000D03*
X35475000Y-140905000D03*
D13*
X27000000Y-136450000D03*
X27000000Y-134550000D03*
D12*
X32050000Y-134000000D03*
X33950000Y-134000000D03*
D13*
X27500000Y-144450000D03*
X27500000Y-142550000D03*
D12*
X29550000Y-147000000D03*
X31450000Y-147000000D03*
X31050000Y-150500000D03*
X32950000Y-150500000D03*
X40050000Y-134000000D03*
X41950000Y-134000000D03*
D13*
X45500000Y-137450000D03*
X45500000Y-135550000D03*
X49000000Y-137450000D03*
X49000000Y-135550000D03*
D12*
X61860000Y-135500000D03*
X63760000Y-135500000D03*
X74860000Y-136000000D03*
X76760000Y-136000000D03*
D18*
X99825000Y-140905000D03*
X99825000Y-139635000D03*
X99825000Y-138365000D03*
X99825000Y-137095000D03*
X94875000Y-140905000D03*
X94875000Y-139635000D03*
X94875000Y-138365000D03*
X94875000Y-137095000D03*
D12*
X90400000Y-134500000D03*
X92300000Y-134500000D03*
D13*
X91350000Y-143950000D03*
X91350000Y-142050000D03*
D12*
X101400000Y-134000000D03*
X103300000Y-134000000D03*
D13*
X91850000Y-139950000D03*
X91850000Y-138050000D03*
X105850000Y-139950000D03*
X105850000Y-138050000D03*
X105850000Y-145950000D03*
X105850000Y-144050000D03*
X31500000Y-169050000D03*
X31500000Y-170950000D03*
X28000000Y-177450000D03*
X28000000Y-175550000D03*
D17*
X32000000Y-177962500D03*
X32000000Y-175037500D03*
D12*
X37455000Y-169000000D03*
X39355000Y-169000000D03*
D13*
X41905000Y-174450000D03*
X41905000Y-172550000D03*
D19*
X45955000Y-171650000D03*
X47855000Y-171650000D03*
X46905000Y-169350000D03*
D12*
X45955000Y-164500000D03*
X47855000Y-164500000D03*
D13*
X52905000Y-165450000D03*
X52905000Y-163550000D03*
D19*
X58355000Y-168850000D03*
X56455000Y-168850000D03*
X57405000Y-171150000D03*
D13*
X57405000Y-165450000D03*
X57405000Y-163550000D03*
X61405000Y-174450000D03*
X61405000Y-172550000D03*
D12*
X48455000Y-161500000D03*
X50355000Y-161500000D03*
X66360000Y-169000000D03*
X68260000Y-169000000D03*
D13*
X70810000Y-174450000D03*
X70810000Y-172550000D03*
D18*
X75835000Y-168095000D03*
X75835000Y-169365000D03*
X75835000Y-170635000D03*
X75835000Y-171905000D03*
X80785000Y-168095000D03*
X80785000Y-169365000D03*
X80785000Y-170635000D03*
X80785000Y-171905000D03*
D12*
X77360000Y-164000000D03*
X79260000Y-164000000D03*
D13*
X73310000Y-177450000D03*
X73310000Y-175550000D03*
D12*
X77360000Y-176500000D03*
X79260000Y-176500000D03*
X71860000Y-181000000D03*
X73760000Y-181000000D03*
D15*
X98400000Y-168800000D03*
X99350000Y-168800000D03*
X100300000Y-168800000D03*
X100300000Y-166200000D03*
X99350000Y-166200000D03*
D12*
X98400000Y-163000000D03*
X100300000Y-163000000D03*
X104400000Y-166200000D03*
X106300000Y-166200000D03*
D18*
X30525000Y-191095000D03*
X30525000Y-192365000D03*
X30525000Y-193635000D03*
X30525000Y-194905000D03*
X35475000Y-191095000D03*
X35475000Y-192365000D03*
X35475000Y-193635000D03*
X35475000Y-194905000D03*
D13*
X27000000Y-190450000D03*
X27000000Y-188550000D03*
D12*
X32050000Y-188000000D03*
X33950000Y-188000000D03*
D13*
X27500000Y-198450000D03*
X27500000Y-196550000D03*
D12*
X29550000Y-201000000D03*
X31450000Y-201000000D03*
X31050000Y-204500000D03*
X32950000Y-204500000D03*
X40050000Y-188000000D03*
X41950000Y-188000000D03*
D13*
X45500000Y-191450000D03*
X45500000Y-189550000D03*
X49000000Y-191450000D03*
X49000000Y-189550000D03*
D12*
X61860000Y-189500000D03*
X63760000Y-189500000D03*
X74860000Y-190000000D03*
X76760000Y-190000000D03*
D18*
X99825000Y-194905000D03*
X99825000Y-193635000D03*
X99825000Y-192365000D03*
X99825000Y-191095000D03*
X94875000Y-194905000D03*
X94875000Y-193635000D03*
X94875000Y-192365000D03*
X94875000Y-191095000D03*
D12*
X90400000Y-188500000D03*
X92300000Y-188500000D03*
D13*
X91350000Y-197950000D03*
X91350000Y-196050000D03*
D12*
X101400000Y-188000000D03*
X103300000Y-188000000D03*
D13*
X91850000Y-193950000D03*
X91850000Y-192050000D03*
X105850000Y-193950000D03*
X105850000Y-192050000D03*
X105850000Y-199950000D03*
X105850000Y-198050000D03*
X87550000Y-217050000D03*
X87550000Y-218950000D03*
X93550000Y-217050000D03*
X93550000Y-218950000D03*
X99550000Y-217050000D03*
X99550000Y-218950000D03*
D15*
X107400000Y-222800000D03*
X108350000Y-222800000D03*
X109300000Y-222800000D03*
X109300000Y-220200000D03*
X108350000Y-220200000D03*
X107400000Y-220200000D03*
D12*
X107400000Y-216500000D03*
X109300000Y-216500000D03*
D13*
X111850000Y-221550000D03*
X111850000Y-223450000D03*
M02*
