%TF.GenerationSoftware,rivgen,1.0*%
%TF.FileFunction,Copper,L1,Top*%
%FSLAX46Y46*%
%MOMM*%
%LPD*%
G01*
%ADD10C,0.300*%
%ADD11C,0.500*%
%ADD12C,0.400*%
%ADD13C,0.800*%
%ADD14R,1.700X1.700*%
%ADD15C,1.700*%
%ADD16R,1.450X1.150*%
%ADD17R,1.150X1.450*%
%ADD18R,0.900X1.000*%
%ADD19R,1.950X0.600*%
%ADD20R,0.600X1.100*%
%ADD21R,5.800X2.200*%
%ADD22R,2.800X1.150*%
%ADD23R,1.800X1.150*%
%ADD24R,1.600X1.600*%
%ADD25C,1.600*%
%ADD26R,1.150X1.800*%
%ADD27R,1.500X2.000*%
%ADD28R,3.600X2.200*%
%ADD29C,1.500*%
%ADD30C,2.000*%
D10*
X69025000Y-28095000D02*
X66990000Y-28095000D01*
X69025000Y-29365000D02*
X66990000Y-29365000D01*
X69025000Y-30635000D02*
X66990000Y-30635000D01*
X69025000Y-31905000D02*
X66990000Y-31905000D01*
X73975000Y-28095000D02*
X75880000Y-28095000D01*
X73975000Y-29365000D02*
X75880000Y-29365000D01*
X73975000Y-30635000D02*
X75880000Y-30635000D01*
X73975000Y-31905000D02*
X75880000Y-31905000D01*
X69025000Y-83095000D02*
X66990000Y-83095000D01*
X69025000Y-84365000D02*
X66990000Y-84365000D01*
X69025000Y-85635000D02*
X66990000Y-85635000D01*
X69025000Y-86905000D02*
X66990000Y-86905000D01*
X73975000Y-83095000D02*
X75880000Y-83095000D01*
X73975000Y-84365000D02*
X75880000Y-84365000D01*
X73975000Y-85635000D02*
X75880000Y-85635000D01*
X73975000Y-86905000D02*
X75880000Y-86905000D01*
X69025000Y-138095000D02*
X66990000Y-138095000D01*
X69025000Y-139365000D02*
X66990000Y-139365000D01*
X69025000Y-140635000D02*
X66990000Y-140635000D01*
X69025000Y-141905000D02*
X66990000Y-141905000D01*
X73975000Y-138095000D02*
X75880000Y-138095000D01*
X73975000Y-139365000D02*
X75880000Y-139365000D01*
X73975000Y-140635000D02*
X75880000Y-140635000D01*
X73975000Y-141905000D02*
X75880000Y-141905000D01*
X86475000Y-41905000D02*
X88580000Y-41905000D01*
X86475000Y-40635000D02*
X88580000Y-40635000D01*
X86475000Y-39365000D02*
X88580000Y-39365000D01*
X86475000Y-38095000D02*
X88580000Y-38095000D01*
X81525000Y-41905000D02*
X79690000Y-41905000D01*
X81525000Y-40635000D02*
X79690000Y-40635000D01*
X81525000Y-39365000D02*
X79690000Y-39365000D01*
X81525000Y-38095000D02*
X79690000Y-38095000D01*
X86475000Y-96905000D02*
X88580000Y-96905000D01*
X86475000Y-95635000D02*
X88580000Y-95635000D01*
X86475000Y-94365000D02*
X88580000Y-94365000D01*
X86475000Y-93095000D02*
X88580000Y-93095000D01*
X81525000Y-96905000D02*
X79690000Y-96905000D01*
X81525000Y-95635000D02*
X79690000Y-95635000D01*
X81525000Y-94365000D02*
X79690000Y-94365000D01*
X81525000Y-93095000D02*
X79690000Y-93095000D01*
X86475000Y-151905000D02*
X88580000Y-151905000D01*
X86475000Y-150635000D02*
X88580000Y-150635000D01*
X86475000Y-149365000D02*
X88580000Y-149365000D01*
X86475000Y-148095000D02*
X88580000Y-148095000D01*
X81525000Y-151905000D02*
X79690000Y-151905000D01*
X81525000Y-150635000D02*
X79690000Y-150635000D01*
X81525000Y-149365000D02*
X79690000Y-149365000D01*
X81525000Y-148095000D02*
X79690000Y-148095000D01*
X74050000Y-52300000D02*
X74050000Y-53655000D01*
X75000000Y-52300000D02*
X75000000Y-53655000D01*
X75950000Y-52300000D02*
X75950000Y-53655000D01*
X75000000Y-49700000D02*
X75000000Y-47940000D01*
X33550000Y-45800000D02*
X33550000Y-47305000D01*
X34500000Y-45800000D02*
X34500000Y-47305000D01*
X35450000Y-45800000D02*
X35450000Y-47305000D01*
X35450000Y-43200000D02*
X37780000Y-43200000D01*
X34500000Y-43200000D02*
X34500000Y-41590000D01*
X33550000Y-43200000D02*
X33550000Y-41590000D01*
X44525000Y-59365000D02*
X42225000Y-59365000D01*
X44525000Y-60635000D02*
X42225000Y-60635000D01*
X44525000Y-61905000D02*
X42225000Y-61905000D01*
X49475000Y-59365000D02*
X51750000Y-59365000D01*
X49475000Y-60635000D02*
X51750000Y-60635000D01*
X44525000Y-114365000D02*
X42225000Y-114365000D01*
X44525000Y-115635000D02*
X42225000Y-115635000D01*
X44525000Y-116905000D02*
X42225000Y-116905000D01*
X49475000Y-114365000D02*
X51750000Y-114365000D01*
X49475000Y-115635000D02*
X51750000Y-115635000D01*
X44525000Y-169365000D02*
X42225000Y-169365000D01*
X44525000Y-170635000D02*
X42225000Y-170635000D01*
X44525000Y-171905000D02*
X42225000Y-171905000D01*
X49475000Y-169365000D02*
X51750000Y-169365000D01*
X49475000Y-170635000D02*
X51750000Y-170635000D01*
X66050000Y-62300000D02*
X63815000Y-62300000D01*
X67000000Y-62300000D02*
X67000000Y-63815000D01*
X67950000Y-62300000D02*
X67950000Y-63815000D01*
X67000000Y-59700000D02*
X67000000Y-58100000D01*
X88000000Y-53800000D02*
X88000000Y-55560000D01*
X88950000Y-53800000D02*
X88950000Y-55560000D01*
X88950000Y-51200000D02*
X88950000Y-49845000D01*
X88000000Y-51200000D02*
X88000000Y-49845000D01*
X88000000Y-108800000D02*
X88000000Y-110170000D01*
X88950000Y-108800000D02*
X88950000Y-110170000D01*
X88950000Y-106200000D02*
X88950000Y-104455000D01*
X88000000Y-106200000D02*
X88000000Y-104455000D01*
X88000000Y-163800000D02*
X88000000Y-165415000D01*
X88950000Y-163800000D02*
X88950000Y-165415000D01*
X88950000Y-161200000D02*
X88950000Y-159700000D01*
X88000000Y-161200000D02*
X88000000Y-159700000D01*
X83050000Y-121800000D02*
X83050000Y-123505000D01*
X84000000Y-121800000D02*
X84000000Y-123505000D01*
X84950000Y-121800000D02*
X84950000Y-123505000D01*
X84950000Y-119200000D02*
X84950000Y-117790000D01*
X84000000Y-119200000D02*
X84000000Y-117790000D01*
X83050000Y-119200000D02*
X83050000Y-117790000D01*
D11*
X30000000Y-32550000D02*
X28874000Y-31900000D01*
X30000000Y-87550000D02*
X28874000Y-86900000D01*
X30000000Y-142550000D02*
X28874000Y-141900000D01*
X37000000Y-32550000D02*
X35874000Y-31900000D01*
X37000000Y-87550000D02*
X35874000Y-86900000D01*
X37000000Y-142550000D02*
X35874000Y-141900000D01*
X42950000Y-31650000D02*
X44076000Y-32300000D01*
X42950000Y-86650000D02*
X44076000Y-87300000D01*
X42950000Y-141650000D02*
X44076000Y-142300000D01*
X56500000Y-32550000D02*
X55374000Y-31900000D01*
X56500000Y-87550000D02*
X55374000Y-86900000D01*
X56500000Y-142550000D02*
X55374000Y-141900000D01*
X64000000Y-32550000D02*
X62874000Y-31900000D01*
X64000000Y-87550000D02*
X62874000Y-86900000D01*
X64000000Y-142550000D02*
X62874000Y-141900000D01*
X45450000Y-21500000D02*
X46750000Y-21500000D01*
X45450000Y-76500000D02*
X46100000Y-75374000D01*
X45450000Y-131500000D02*
X46100000Y-130374000D01*
X69025000Y-30635000D02*
X70625000Y-30635000D01*
X73975000Y-31905000D02*
X75101000Y-32555000D01*
X69025000Y-85635000D02*
X70625000Y-85635000D01*
X73975000Y-86905000D02*
X75101000Y-87555000D01*
X69025000Y-140635000D02*
X70625000Y-140635000D01*
X73975000Y-141905000D02*
X75101000Y-142555000D01*
X72450000Y-24000000D02*
X73576000Y-24650000D01*
X72450000Y-79000000D02*
X73576000Y-79650000D01*
X72450000Y-134000000D02*
X73576000Y-134650000D01*
X66500000Y-35550000D02*
X67150000Y-34424000D01*
X66500000Y-90550000D02*
X67150000Y-89424000D01*
X66500000Y-145550000D02*
X67150000Y-144424000D01*
X86475000Y-41905000D02*
X87601000Y-42555000D01*
X86475000Y-96905000D02*
X87601000Y-97555000D01*
X86475000Y-151905000D02*
X87601000Y-152555000D01*
X78000000Y-43050000D02*
X76400000Y-43050000D01*
X78000000Y-98050000D02*
X76400000Y-98050000D01*
X78000000Y-153050000D02*
X76400000Y-153050000D01*
X89950000Y-35000000D02*
X91076000Y-35650000D01*
X89950000Y-90000000D02*
X91076000Y-90650000D01*
X89950000Y-145000000D02*
X91076000Y-145650000D01*
X78500000Y-39050000D02*
X77200000Y-39050000D01*
X78500000Y-94050000D02*
X77200000Y-94050000D01*
X78500000Y-149050000D02*
X77200000Y-149050000D01*
X92500000Y-46950000D02*
X93626000Y-47600000D01*
X92500000Y-101950000D02*
X93626000Y-102600000D01*
X92500000Y-156950000D02*
X93626000Y-157600000D01*
X56950000Y-46000000D02*
X58076000Y-46650000D01*
X56950000Y-101000000D02*
X58076000Y-101650000D01*
X56950000Y-156000000D02*
X58076000Y-156650000D01*
X75000000Y-52300000D02*
X75000000Y-53600000D01*
X80600000Y-46850000D02*
X81250000Y-45724000D01*
X34500000Y-45800000D02*
X34500000Y-47100000D01*
X24000000Y-40050000D02*
X22874000Y-39400000D01*
X40000000Y-43037500D02*
X41126000Y-42388000D01*
X44000000Y-43037500D02*
X43350000Y-41912000D01*
X24950000Y-58000000D02*
X26076000Y-58650000D01*
X24950000Y-61000000D02*
X26076000Y-61650000D01*
X24950000Y-64000000D02*
X26076000Y-64650000D01*
X44525000Y-61905000D02*
X45651000Y-62555000D01*
X44525000Y-116905000D02*
X45651000Y-117555000D01*
X44525000Y-171905000D02*
X45651000Y-172555000D01*
X41000000Y-55550000D02*
X39874000Y-54900000D01*
X41000000Y-110550000D02*
X39874000Y-109900000D01*
X41000000Y-165550000D02*
X39874000Y-164900000D01*
X41500000Y-63550000D02*
X40374000Y-62900000D01*
X41500000Y-118550000D02*
X40374000Y-117900000D01*
X41500000Y-173550000D02*
X40374000Y-172900000D01*
X45450000Y-68000000D02*
X46576000Y-68650000D01*
X45450000Y-123000000D02*
X46576000Y-123650000D01*
X45450000Y-178000000D02*
X46576000Y-178650000D01*
X46950000Y-71500000D02*
X48076000Y-72150000D01*
X46950000Y-126500000D02*
X48076000Y-127150000D01*
X46950000Y-181500000D02*
X48076000Y-182150000D01*
X67000000Y-62300000D02*
X67000000Y-63600000D01*
X62450000Y-57500000D02*
X63576000Y-58150000D01*
X35962500Y-37000000D02*
X35962000Y-38300000D01*
X35962500Y-92000000D02*
X35962000Y-93300000D01*
X35962500Y-147000000D02*
X35962000Y-148300000D01*
X93250000Y-60800000D02*
X94376000Y-61450000D01*
X86000000Y-68650000D02*
X86000000Y-70650000D01*
X86000000Y-62350000D02*
X84874000Y-61700000D01*
X80950000Y-61500000D02*
X82076000Y-62150000D01*
X88950000Y-53800000D02*
X90076000Y-54450000D01*
X88950000Y-108800000D02*
X90076000Y-109450000D01*
X88950000Y-163800000D02*
X90076000Y-164450000D01*
X84500000Y-51550000D02*
X83374000Y-50900000D01*
X84500000Y-106550000D02*
X83374000Y-105900000D01*
X84500000Y-161550000D02*
X83374000Y-160900000D01*
X84000000Y-121800000D02*
X84000000Y-123100000D01*
X86500000Y-114550000D02*
X85374000Y-113900000D01*
X33550000Y-45800000D02*
X33335000Y-45400000D01*
X33335000Y-45400000D02*
X29950000Y-45400000D01*
D12*
X40955000Y-45400000D02*
X41590000Y-45400000D01*
X41590000Y-45400000D02*
X42225000Y-44765000D01*
X42225000Y-44765000D02*
X42225000Y-40955000D01*
X42225000Y-40955000D02*
X36510000Y-40955000D01*
X36510000Y-40955000D02*
X35875000Y-41590000D01*
X35875000Y-41590000D02*
X35240000Y-41590000D01*
X35240000Y-41590000D02*
X34605000Y-42225000D01*
X44000000Y-45962500D02*
X43495000Y-45400000D01*
X43495000Y-45400000D02*
X42225000Y-45400000D01*
X42225000Y-45400000D02*
X42049000Y-45224000D01*
X48575000Y-46035000D02*
X44950000Y-46035000D01*
X33050000Y-51000000D02*
X33335000Y-50480000D01*
X33335000Y-50480000D02*
X33335000Y-49210000D01*
X33335000Y-49210000D02*
X37145000Y-49210000D01*
X37145000Y-49210000D02*
X37780000Y-48575000D01*
X37780000Y-48575000D02*
X38415000Y-47940000D01*
X38415000Y-47940000D02*
X39050000Y-47305000D01*
X39050000Y-47305000D02*
X39685000Y-46670000D01*
X39685000Y-46670000D02*
X39685000Y-46588000D01*
X33050000Y-54000000D02*
X33335000Y-53655000D01*
X33335000Y-53655000D02*
X33335000Y-52385000D01*
X33335000Y-52385000D02*
X33970000Y-51750000D01*
X33970000Y-51750000D02*
X33675000Y-51750000D01*
X51750000Y-59365000D02*
X51750000Y-59370000D01*
X51750000Y-59370000D02*
X51750000Y-58100000D01*
X51750000Y-58100000D02*
X51115000Y-57465000D01*
X51115000Y-57465000D02*
X51115000Y-56830000D01*
X51115000Y-56830000D02*
X50480000Y-56195000D01*
X50480000Y-56195000D02*
X49845000Y-55560000D01*
X49845000Y-55560000D02*
X49210000Y-54925000D01*
X49210000Y-54925000D02*
X49210000Y-53020000D01*
X49210000Y-53020000D02*
X48575000Y-52385000D01*
X48575000Y-52385000D02*
X47940000Y-51750000D01*
X47940000Y-51750000D02*
X47305000Y-51115000D01*
X47305000Y-51115000D02*
X46670000Y-50480000D01*
X46670000Y-50480000D02*
X46035000Y-49845000D01*
X46035000Y-49845000D02*
X44765000Y-48575000D01*
X44765000Y-48575000D02*
X44130000Y-47940000D01*
X44130000Y-47940000D02*
X43495000Y-47305000D01*
X43495000Y-47305000D02*
X42860000Y-46670000D01*
X42860000Y-46670000D02*
X43050000Y-46588000D01*
X51750000Y-114365000D02*
X51750000Y-89215000D01*
X51750000Y-89215000D02*
X52385000Y-88580000D01*
X52385000Y-88580000D02*
X53020000Y-87945000D01*
X53020000Y-87945000D02*
X53655000Y-87310000D01*
X53655000Y-87310000D02*
X53655000Y-86040000D01*
X53655000Y-86040000D02*
X54290000Y-85405000D01*
X54290000Y-85405000D02*
X54925000Y-85405000D01*
X54925000Y-85405000D02*
X54925000Y-73975000D01*
X54925000Y-73975000D02*
X55560000Y-73340000D01*
X55560000Y-73340000D02*
X56830000Y-72070000D01*
X56830000Y-72070000D02*
X57465000Y-71435000D01*
X57465000Y-71435000D02*
X57465000Y-67625000D01*
X57465000Y-67625000D02*
X56830000Y-66990000D01*
X56830000Y-66990000D02*
X56195000Y-66355000D01*
X56195000Y-66355000D02*
X55560000Y-65720000D01*
X55560000Y-65720000D02*
X54925000Y-65720000D01*
X54925000Y-65720000D02*
X54925000Y-63180000D01*
X54925000Y-63180000D02*
X54290000Y-62545000D01*
X54290000Y-62545000D02*
X53655000Y-61910000D01*
X53655000Y-61910000D02*
X53020000Y-61275000D01*
X53020000Y-61275000D02*
X53020000Y-60005000D01*
X53020000Y-60005000D02*
X51750000Y-60005000D01*
X51750000Y-60005000D02*
X51750000Y-59570000D01*
X51750000Y-169365000D02*
X51750000Y-143190000D01*
X51750000Y-143190000D02*
X51115000Y-142555000D01*
X51115000Y-142555000D02*
X51115000Y-141285000D01*
X51115000Y-141285000D02*
X50480000Y-140650000D01*
X50480000Y-140650000D02*
X49845000Y-140015000D01*
X49845000Y-140015000D02*
X49845000Y-126680000D01*
X49845000Y-126680000D02*
X49210000Y-126045000D01*
X49210000Y-126045000D02*
X48575000Y-126045000D01*
X48575000Y-126045000D02*
X48575000Y-119695000D01*
X48575000Y-119695000D02*
X47940000Y-119060000D01*
X47940000Y-119060000D02*
X47305000Y-118425000D01*
X47305000Y-118425000D02*
X47305000Y-114615000D01*
X47305000Y-114615000D02*
X47940000Y-114615000D01*
X47940000Y-114615000D02*
X48575000Y-113980000D01*
X48575000Y-113980000D02*
X48575000Y-114015000D01*
D10*
X34950000Y-51000000D02*
X35240000Y-50480000D01*
X35875000Y-47305000D02*
X35600000Y-47305000D01*
X34950000Y-54000000D02*
X34605000Y-53655000D01*
X34605000Y-53655000D02*
X34605000Y-51750000D01*
X23050000Y-58000000D02*
X23175000Y-57465000D01*
X23175000Y-57465000D02*
X23175000Y-56195000D01*
X23175000Y-56195000D02*
X28890000Y-56195000D01*
X28890000Y-56195000D02*
X29525000Y-55560000D01*
X29525000Y-55560000D02*
X34605000Y-55560000D01*
X34605000Y-55560000D02*
X34605000Y-54775000D01*
X23050000Y-61000000D02*
X23175000Y-60640000D01*
X23175000Y-60640000D02*
X23175000Y-58735000D01*
X23050000Y-64000000D02*
X22540000Y-63815000D01*
X22540000Y-63815000D02*
X22540000Y-61775000D01*
D12*
X47950000Y-55000000D02*
X47940000Y-55560000D01*
X47940000Y-55560000D02*
X47940000Y-56195000D01*
X47940000Y-56195000D02*
X47305000Y-56830000D01*
X47305000Y-56830000D02*
X47305000Y-60640000D01*
X47305000Y-60640000D02*
X48575000Y-60640000D01*
X27050000Y-37000000D02*
X27620000Y-37145000D01*
X27620000Y-37145000D02*
X27620000Y-38415000D01*
X27620000Y-38415000D02*
X28255000Y-39050000D01*
X28255000Y-39050000D02*
X28890000Y-39685000D01*
X28890000Y-39685000D02*
X29525000Y-40320000D01*
X29525000Y-40320000D02*
X30160000Y-40955000D01*
X30160000Y-40955000D02*
X30795000Y-41590000D01*
X30795000Y-41590000D02*
X31430000Y-42225000D01*
X47305000Y-54290000D02*
X47325000Y-54290000D01*
X47950000Y-110000000D02*
X47940000Y-110170000D01*
X47940000Y-110170000D02*
X47940000Y-112075000D01*
X27050000Y-92000000D02*
X27620000Y-92390000D01*
X27620000Y-92390000D02*
X27620000Y-93660000D01*
X27620000Y-93660000D02*
X28255000Y-94295000D01*
X28255000Y-94295000D02*
X28890000Y-94930000D01*
X28890000Y-94930000D02*
X29525000Y-95565000D01*
X29525000Y-95565000D02*
X30160000Y-96200000D01*
X30160000Y-96200000D02*
X30795000Y-96835000D01*
X30795000Y-96835000D02*
X32065000Y-98105000D01*
X32065000Y-98105000D02*
X32700000Y-98740000D01*
X32700000Y-98740000D02*
X33970000Y-100010000D01*
X33970000Y-100010000D02*
X34605000Y-100645000D01*
X34605000Y-100645000D02*
X35240000Y-101280000D01*
X35240000Y-101280000D02*
X35875000Y-101915000D01*
X35875000Y-101915000D02*
X36510000Y-102550000D01*
X36510000Y-102550000D02*
X37145000Y-103185000D01*
X37145000Y-103185000D02*
X37780000Y-103820000D01*
X37780000Y-103820000D02*
X39050000Y-105090000D01*
X39050000Y-105090000D02*
X39685000Y-105725000D01*
X39685000Y-105725000D02*
X40955000Y-106995000D01*
X40955000Y-106995000D02*
X41590000Y-107630000D01*
X41590000Y-107630000D02*
X42860000Y-108900000D01*
X42860000Y-108900000D02*
X43495000Y-109535000D01*
X43495000Y-109535000D02*
X44130000Y-110170000D01*
X44130000Y-110170000D02*
X44765000Y-110805000D01*
X44765000Y-110805000D02*
X44765000Y-111440000D01*
X44765000Y-111440000D02*
X47740000Y-111440000D01*
X47950000Y-165000000D02*
X47940000Y-165415000D01*
X47940000Y-165415000D02*
X47940000Y-166050000D01*
X47940000Y-166050000D02*
X47305000Y-166685000D01*
X47305000Y-166685000D02*
X47305000Y-170495000D01*
X47305000Y-170495000D02*
X48575000Y-170495000D01*
X27050000Y-147000000D02*
X27620000Y-147635000D01*
X27620000Y-147635000D02*
X27620000Y-148905000D01*
X27620000Y-148905000D02*
X28255000Y-149540000D01*
X28255000Y-149540000D02*
X28890000Y-150175000D01*
X28890000Y-150175000D02*
X29525000Y-150810000D01*
X29525000Y-150810000D02*
X30160000Y-151445000D01*
X30160000Y-151445000D02*
X30795000Y-152080000D01*
X30795000Y-152080000D02*
X32065000Y-153350000D01*
X32065000Y-153350000D02*
X32700000Y-153985000D01*
X32700000Y-153985000D02*
X34605000Y-155890000D01*
X34605000Y-155890000D02*
X35240000Y-156525000D01*
X35240000Y-156525000D02*
X36510000Y-157795000D01*
X36510000Y-157795000D02*
X37145000Y-158430000D01*
X37145000Y-158430000D02*
X38415000Y-159700000D01*
X38415000Y-159700000D02*
X39050000Y-160335000D01*
X39050000Y-160335000D02*
X39685000Y-160970000D01*
X39685000Y-160970000D02*
X40320000Y-161605000D01*
X40320000Y-161605000D02*
X40955000Y-162240000D01*
X40955000Y-162240000D02*
X41590000Y-162875000D01*
X41590000Y-162875000D02*
X42225000Y-163510000D01*
X42225000Y-163510000D02*
X42860000Y-164145000D01*
X42860000Y-164145000D02*
X43495000Y-164780000D01*
X43495000Y-164780000D02*
X44130000Y-165415000D01*
X44130000Y-165415000D02*
X44765000Y-166050000D01*
X44765000Y-166050000D02*
X44765000Y-166685000D01*
X44765000Y-166685000D02*
X47105000Y-166685000D01*
X28950000Y-37000000D02*
X29525000Y-36510000D01*
X29525000Y-36510000D02*
X30795000Y-36510000D01*
X30795000Y-36510000D02*
X31430000Y-35875000D01*
X31430000Y-35875000D02*
X31430000Y-30795000D01*
X31430000Y-30795000D02*
X24900000Y-30795000D01*
X33037500Y-37000000D02*
X32700000Y-36510000D01*
X32700000Y-36510000D02*
X31430000Y-36510000D01*
X31430000Y-36510000D02*
X31254000Y-36334000D01*
X28950000Y-92000000D02*
X29525000Y-91755000D01*
X29525000Y-91755000D02*
X30795000Y-91755000D01*
X30795000Y-91755000D02*
X31430000Y-91120000D01*
X31430000Y-91120000D02*
X31430000Y-86040000D01*
X31430000Y-86040000D02*
X30160000Y-86040000D01*
X30160000Y-86040000D02*
X29525000Y-85405000D01*
X29525000Y-85405000D02*
X25080000Y-85405000D01*
X25080000Y-85405000D02*
X24900000Y-85640000D01*
X32700000Y-91120000D02*
X31630000Y-91120000D01*
X28950000Y-147000000D02*
X29525000Y-146365000D01*
X29525000Y-146365000D02*
X30795000Y-146365000D01*
X30795000Y-146365000D02*
X31430000Y-145730000D01*
X31430000Y-145730000D02*
X31430000Y-141285000D01*
X31430000Y-141285000D02*
X30795000Y-141285000D01*
X30795000Y-141285000D02*
X30160000Y-140650000D01*
X30160000Y-140650000D02*
X24900000Y-140650000D01*
X33037500Y-147000000D02*
X32700000Y-146365000D01*
X32700000Y-146365000D02*
X31430000Y-146365000D01*
X31430000Y-146365000D02*
X31254000Y-146189000D01*
D10*
X41000000Y-57450000D02*
X41590000Y-57465000D01*
X41590000Y-57465000D02*
X42860000Y-58735000D01*
X42860000Y-58735000D02*
X42860000Y-59370000D01*
X46050000Y-55000000D02*
X46035000Y-55560000D01*
X46035000Y-55560000D02*
X45400000Y-55560000D01*
X45400000Y-55560000D02*
X44130000Y-56830000D01*
X44130000Y-56830000D02*
X42860000Y-56830000D01*
X42860000Y-56830000D02*
X42860000Y-58100000D01*
X42860000Y-58100000D02*
X42649000Y-58311000D01*
X41000000Y-112450000D02*
X41590000Y-112710000D01*
X41590000Y-112710000D02*
X42860000Y-113980000D01*
X42860000Y-113980000D02*
X42860000Y-114215000D01*
X46050000Y-110000000D02*
X46035000Y-110170000D01*
X42860000Y-113345000D02*
X42649000Y-113556000D01*
X41000000Y-167450000D02*
X41590000Y-167955000D01*
X41590000Y-167955000D02*
X42860000Y-169225000D01*
X46050000Y-165000000D02*
X46035000Y-165415000D01*
X30000000Y-34450000D02*
X29525000Y-33970000D01*
X29525000Y-33970000D02*
X28255000Y-33970000D01*
X28255000Y-33970000D02*
X27620000Y-33335000D01*
X27620000Y-33335000D02*
X22540000Y-33335000D01*
X22540000Y-33335000D02*
X22540000Y-30160000D01*
X22540000Y-30160000D02*
X23175000Y-30160000D01*
X23175000Y-30160000D02*
X23175000Y-29900000D01*
X32550000Y-29000000D02*
X32065000Y-29525000D01*
X32065000Y-29525000D02*
X25715000Y-29525000D01*
X25715000Y-29525000D02*
X25080000Y-30160000D01*
X25080000Y-30160000D02*
X24900000Y-29900000D01*
X30000000Y-89450000D02*
X29525000Y-89215000D01*
X29525000Y-89215000D02*
X28255000Y-89215000D01*
X28255000Y-89215000D02*
X27620000Y-88580000D01*
X27620000Y-88580000D02*
X22540000Y-88580000D01*
X22540000Y-88580000D02*
X22540000Y-84770000D01*
X22540000Y-84770000D02*
X23175000Y-84770000D01*
X32550000Y-84000000D02*
X32065000Y-84135000D01*
X32065000Y-84135000D02*
X25715000Y-84135000D01*
X25715000Y-84135000D02*
X25080000Y-84770000D01*
X25080000Y-84770000D02*
X24900000Y-84770000D01*
X30000000Y-144450000D02*
X29525000Y-144460000D01*
X29525000Y-144460000D02*
X28890000Y-143825000D01*
X28890000Y-143825000D02*
X28255000Y-143825000D01*
X28255000Y-143825000D02*
X27620000Y-143190000D01*
X27620000Y-143190000D02*
X22540000Y-143190000D01*
X22540000Y-143190000D02*
X22540000Y-140015000D01*
X22540000Y-140015000D02*
X23175000Y-140015000D01*
X23175000Y-140015000D02*
X23175000Y-139900000D01*
X32550000Y-139000000D02*
X32065000Y-139380000D01*
X32065000Y-139380000D02*
X25715000Y-139380000D01*
X25715000Y-139380000D02*
X25080000Y-140015000D01*
X25080000Y-140015000D02*
X24900000Y-139900000D01*
X37000000Y-34450000D02*
X36510000Y-33970000D01*
X36510000Y-33970000D02*
X35240000Y-33970000D01*
X35240000Y-33970000D02*
X35240000Y-33335000D01*
X35240000Y-33335000D02*
X34605000Y-32700000D01*
X34605000Y-32700000D02*
X34605000Y-29775000D01*
X41050000Y-31650000D02*
X40955000Y-32065000D01*
X40955000Y-32065000D02*
X40320000Y-32065000D01*
X40320000Y-32065000D02*
X39685000Y-32700000D01*
X39685000Y-32700000D02*
X39050000Y-33335000D01*
X39050000Y-33335000D02*
X38415000Y-33970000D01*
X38415000Y-33970000D02*
X37775000Y-33970000D01*
X41050000Y-24500000D02*
X40955000Y-25080000D01*
X40955000Y-25080000D02*
X40955000Y-28255000D01*
X40955000Y-28255000D02*
X40320000Y-28890000D01*
X40320000Y-28890000D02*
X40320000Y-30795000D01*
X40320000Y-30795000D02*
X40550000Y-31100000D01*
X37000000Y-89450000D02*
X36510000Y-89215000D01*
X36510000Y-89215000D02*
X35240000Y-89215000D01*
X35240000Y-89215000D02*
X35240000Y-88580000D01*
X35240000Y-88580000D02*
X34605000Y-87945000D01*
X34605000Y-87945000D02*
X34605000Y-84770000D01*
X41050000Y-86650000D02*
X40955000Y-86675000D01*
X40955000Y-86675000D02*
X40320000Y-86675000D01*
X40320000Y-86675000D02*
X39685000Y-87310000D01*
X39685000Y-87310000D02*
X39050000Y-87945000D01*
X39050000Y-87945000D02*
X38415000Y-88580000D01*
X38415000Y-88580000D02*
X37780000Y-88580000D01*
X37780000Y-88580000D02*
X37775000Y-88825000D01*
X41050000Y-79500000D02*
X40955000Y-79690000D01*
X40955000Y-79690000D02*
X40955000Y-83500000D01*
X40955000Y-83500000D02*
X40320000Y-84135000D01*
X40320000Y-84135000D02*
X40320000Y-86040000D01*
X40320000Y-86040000D02*
X40550000Y-86100000D01*
X37000000Y-144450000D02*
X36510000Y-144460000D01*
X36510000Y-144460000D02*
X35875000Y-143825000D01*
X35875000Y-143825000D02*
X35240000Y-143825000D01*
X35240000Y-143825000D02*
X34605000Y-143190000D01*
X34605000Y-143190000D02*
X34605000Y-139775000D01*
X41050000Y-141650000D02*
X40955000Y-141920000D01*
X40955000Y-141920000D02*
X40320000Y-141920000D01*
X40320000Y-141920000D02*
X39685000Y-142555000D01*
X39685000Y-142555000D02*
X39050000Y-143190000D01*
X39050000Y-143190000D02*
X38415000Y-143825000D01*
X38415000Y-143825000D02*
X37775000Y-143825000D01*
X41050000Y-134500000D02*
X40955000Y-134935000D01*
X40955000Y-134935000D02*
X40955000Y-141100000D01*
X42950000Y-24500000D02*
X42860000Y-25080000D01*
X42860000Y-25080000D02*
X42860000Y-28255000D01*
X42860000Y-28255000D02*
X42225000Y-28890000D01*
X47305000Y-25715000D02*
X43495000Y-25715000D01*
X43495000Y-25715000D02*
X43495000Y-25275000D01*
X53450000Y-28850000D02*
X53020000Y-28890000D01*
X53020000Y-28890000D02*
X53020000Y-27620000D01*
X53020000Y-27620000D02*
X49210000Y-27620000D01*
X49210000Y-27620000D02*
X48575000Y-26985000D01*
X48575000Y-26985000D02*
X47940000Y-26350000D01*
X47940000Y-26350000D02*
X47940000Y-26075000D01*
X42950000Y-79500000D02*
X42860000Y-79690000D01*
X42860000Y-79690000D02*
X42860000Y-82865000D01*
X42860000Y-82865000D02*
X42225000Y-83500000D01*
X42225000Y-83500000D02*
X42225000Y-83800000D01*
X47305000Y-80960000D02*
X43495000Y-80960000D01*
X43495000Y-80960000D02*
X42860000Y-81595000D01*
X53450000Y-83850000D02*
X53020000Y-83500000D01*
X53020000Y-83500000D02*
X53020000Y-82230000D01*
X53020000Y-82230000D02*
X49210000Y-82230000D01*
X49210000Y-82230000D02*
X48575000Y-81595000D01*
X48575000Y-81595000D02*
X47940000Y-80960000D01*
X42950000Y-134500000D02*
X42860000Y-134935000D01*
X42860000Y-134935000D02*
X42860000Y-138745000D01*
X42860000Y-138745000D02*
X42500000Y-138800000D01*
X47305000Y-135570000D02*
X43495000Y-135570000D01*
X43495000Y-135570000D02*
X43495000Y-135275000D01*
X53450000Y-138850000D02*
X53020000Y-138745000D01*
X53020000Y-138745000D02*
X53020000Y-137475000D01*
X53020000Y-137475000D02*
X51750000Y-137475000D01*
X51750000Y-137475000D02*
X51115000Y-136840000D01*
X51115000Y-136840000D02*
X51115000Y-136205000D01*
X48575000Y-136205000D02*
X48575000Y-136075000D01*
X52500000Y-25450000D02*
X53020000Y-25715000D01*
X53020000Y-25715000D02*
X53655000Y-26350000D01*
X53655000Y-26350000D02*
X54290000Y-26985000D01*
X54290000Y-26985000D02*
X54925000Y-27620000D01*
X54925000Y-27620000D02*
X54925000Y-30160000D01*
X54925000Y-30160000D02*
X54290000Y-30795000D01*
X54290000Y-30795000D02*
X54290000Y-32065000D01*
X54290000Y-32065000D02*
X53655000Y-32700000D01*
X53655000Y-32700000D02*
X51115000Y-32700000D01*
X51115000Y-32700000D02*
X51115000Y-29400000D01*
X52500000Y-80450000D02*
X52385000Y-80325000D01*
X52385000Y-80325000D02*
X51115000Y-80325000D01*
X51115000Y-80325000D02*
X51115000Y-77785000D01*
X51115000Y-77785000D02*
X50480000Y-77150000D01*
X50480000Y-77150000D02*
X49210000Y-75880000D01*
X49210000Y-75880000D02*
X48575000Y-75245000D01*
X48575000Y-75245000D02*
X47940000Y-74610000D01*
X47940000Y-74610000D02*
X47305000Y-73975000D01*
X47305000Y-73975000D02*
X45400000Y-73975000D01*
X45400000Y-73975000D02*
X44765000Y-74610000D01*
X44765000Y-74610000D02*
X42225000Y-74610000D01*
X42225000Y-74610000D02*
X42225000Y-75245000D01*
X42225000Y-75245000D02*
X41590000Y-75880000D01*
X41590000Y-75880000D02*
X40955000Y-76515000D01*
X40955000Y-76515000D02*
X40320000Y-77150000D01*
X40320000Y-77150000D02*
X39685000Y-77785000D01*
X39685000Y-77785000D02*
X39685000Y-83500000D01*
X52500000Y-135450000D02*
X53020000Y-135570000D01*
X53020000Y-135570000D02*
X53655000Y-136205000D01*
X53655000Y-136205000D02*
X54925000Y-137475000D01*
X54925000Y-137475000D02*
X54925000Y-140015000D01*
X54925000Y-140015000D02*
X52385000Y-140015000D01*
X52385000Y-140015000D02*
X51750000Y-139380000D01*
X56500000Y-34450000D02*
X56195000Y-33970000D01*
X56195000Y-33970000D02*
X54925000Y-33970000D01*
X54925000Y-33970000D02*
X54290000Y-33335000D01*
X53020000Y-31430000D02*
X53000000Y-31430000D01*
X59550000Y-29000000D02*
X59370000Y-29525000D01*
X59370000Y-29525000D02*
X58100000Y-30795000D01*
X58100000Y-30795000D02*
X58100000Y-33970000D01*
X58100000Y-33970000D02*
X57275000Y-33970000D01*
X56500000Y-89450000D02*
X56195000Y-89215000D01*
X56195000Y-89215000D02*
X54925000Y-89215000D01*
X54925000Y-89215000D02*
X54290000Y-88580000D01*
X59550000Y-84000000D02*
X59370000Y-84135000D01*
X59370000Y-84135000D02*
X58735000Y-84770000D01*
X58735000Y-84770000D02*
X58100000Y-85405000D01*
X58100000Y-85405000D02*
X58100000Y-88580000D01*
X58100000Y-88580000D02*
X57465000Y-88580000D01*
X57465000Y-88580000D02*
X57275000Y-88825000D01*
X56500000Y-144450000D02*
X56195000Y-144460000D01*
X56195000Y-144460000D02*
X55560000Y-144460000D01*
X55560000Y-144460000D02*
X54925000Y-143825000D01*
X54925000Y-143825000D02*
X53655000Y-142555000D01*
X53655000Y-142555000D02*
X53020000Y-141920000D01*
X53020000Y-141920000D02*
X53000000Y-141700000D01*
X59550000Y-139000000D02*
X59370000Y-139380000D01*
X59370000Y-139380000D02*
X58735000Y-140015000D01*
X58735000Y-140015000D02*
X58100000Y-140650000D01*
X58100000Y-140650000D02*
X58100000Y-143825000D01*
X58100000Y-143825000D02*
X57275000Y-143825000D01*
X64000000Y-34450000D02*
X63815000Y-33970000D01*
X63815000Y-33970000D02*
X62545000Y-33970000D01*
X62545000Y-33970000D02*
X61910000Y-33335000D01*
X61910000Y-33335000D02*
X61275000Y-32700000D01*
X61275000Y-32700000D02*
X61275000Y-29775000D01*
X66990000Y-28095000D02*
X66990000Y-28255000D01*
X66990000Y-28255000D02*
X66355000Y-28255000D01*
X66355000Y-28255000D02*
X65720000Y-28890000D01*
X65720000Y-28890000D02*
X65085000Y-29525000D01*
X65085000Y-29525000D02*
X64450000Y-30160000D01*
X64450000Y-30160000D02*
X61910000Y-30160000D01*
X61910000Y-30160000D02*
X61910000Y-29775000D01*
X96200000Y-25080000D02*
X95565000Y-24445000D01*
X95565000Y-24445000D02*
X94930000Y-24445000D01*
X94930000Y-24445000D02*
X94295000Y-23810000D01*
X94295000Y-23810000D02*
X93660000Y-23175000D01*
X93660000Y-23175000D02*
X77150000Y-23175000D01*
X77150000Y-23175000D02*
X76515000Y-23810000D01*
X76515000Y-23810000D02*
X75880000Y-24445000D01*
X75880000Y-24445000D02*
X75245000Y-25080000D01*
X75245000Y-25080000D02*
X74610000Y-25715000D01*
X74610000Y-25715000D02*
X72070000Y-25715000D01*
X72070000Y-25715000D02*
X71435000Y-26350000D01*
X71435000Y-26350000D02*
X70800000Y-26985000D01*
X70800000Y-26985000D02*
X70165000Y-27620000D01*
X70165000Y-27620000D02*
X70050000Y-27745000D01*
X64000000Y-89450000D02*
X63815000Y-89215000D01*
X63815000Y-89215000D02*
X62545000Y-89215000D01*
X62545000Y-89215000D02*
X62545000Y-88580000D01*
X62545000Y-88580000D02*
X61910000Y-87945000D01*
X61910000Y-87945000D02*
X61910000Y-84770000D01*
X66990000Y-83095000D02*
X66990000Y-83500000D01*
X66990000Y-83500000D02*
X65720000Y-83500000D01*
X65720000Y-83500000D02*
X63815000Y-85405000D01*
X63815000Y-85405000D02*
X61910000Y-85405000D01*
X96200000Y-80325000D02*
X95565000Y-79690000D01*
X95565000Y-79690000D02*
X94930000Y-79690000D01*
X94930000Y-79690000D02*
X94295000Y-79055000D01*
X94295000Y-79055000D02*
X93660000Y-78420000D01*
X93660000Y-78420000D02*
X77150000Y-78420000D01*
X77150000Y-78420000D02*
X76515000Y-79055000D01*
X76515000Y-79055000D02*
X75880000Y-79690000D01*
X75880000Y-79690000D02*
X75245000Y-80325000D01*
X75245000Y-80325000D02*
X74610000Y-80960000D01*
X74610000Y-80960000D02*
X72070000Y-80960000D01*
X72070000Y-80960000D02*
X71435000Y-81595000D01*
X71435000Y-81595000D02*
X70165000Y-82865000D01*
X70165000Y-82865000D02*
X70050000Y-82865000D01*
X64000000Y-144450000D02*
X63815000Y-144460000D01*
X63815000Y-144460000D02*
X63180000Y-143825000D01*
X63180000Y-143825000D02*
X62545000Y-143825000D01*
X62545000Y-143825000D02*
X61910000Y-143190000D01*
X61910000Y-143190000D02*
X61275000Y-142555000D01*
X61275000Y-142555000D02*
X61275000Y-139775000D01*
X66990000Y-138095000D02*
X66990000Y-138110000D01*
X66990000Y-138110000D02*
X66355000Y-138110000D01*
X66355000Y-138110000D02*
X65085000Y-139380000D01*
X65085000Y-139380000D02*
X64450000Y-140015000D01*
X64450000Y-140015000D02*
X61910000Y-140015000D01*
X61910000Y-140015000D02*
X61910000Y-139775000D01*
X96200000Y-136840000D02*
X94295000Y-136840000D01*
X94295000Y-136840000D02*
X93660000Y-137475000D01*
X93660000Y-137475000D02*
X93025000Y-137475000D01*
X93025000Y-137475000D02*
X92390000Y-138110000D01*
X92390000Y-138110000D02*
X91120000Y-138110000D01*
X91120000Y-138110000D02*
X90485000Y-137475000D01*
X90485000Y-137475000D02*
X90485000Y-136840000D01*
X90485000Y-136840000D02*
X89850000Y-136205000D01*
X89850000Y-136205000D02*
X89215000Y-136840000D01*
X89215000Y-136840000D02*
X88580000Y-136205000D01*
X88580000Y-136205000D02*
X71435000Y-136205000D01*
X71435000Y-136205000D02*
X70800000Y-136840000D01*
X70800000Y-136840000D02*
X70165000Y-137475000D01*
X70165000Y-137475000D02*
X70050000Y-137745000D01*
D11*
X75950000Y-53655000D02*
X75880000Y-53655000D01*
X75880000Y-53655000D02*
X75880000Y-54925000D01*
X75880000Y-54925000D02*
X73975000Y-54925000D01*
X73975000Y-54925000D02*
X73975000Y-53655000D01*
X67950000Y-62300000D02*
X68260000Y-61910000D01*
X68260000Y-61910000D02*
X68895000Y-61275000D01*
X68895000Y-61275000D02*
X69530000Y-61275000D01*
X69530000Y-61275000D02*
X69530000Y-58735000D01*
X69530000Y-58735000D02*
X70165000Y-58100000D01*
X70165000Y-58100000D02*
X70800000Y-57465000D01*
X70800000Y-57465000D02*
X71435000Y-56830000D01*
X71435000Y-56830000D02*
X72070000Y-56195000D01*
X72070000Y-56195000D02*
X72705000Y-55560000D01*
X72705000Y-55560000D02*
X73340000Y-54925000D01*
X73340000Y-54925000D02*
X73725000Y-54925000D01*
X63815000Y-62300000D02*
X63815000Y-61910000D01*
X63815000Y-61910000D02*
X64450000Y-61275000D01*
X64450000Y-61275000D02*
X65085000Y-60640000D01*
X65085000Y-60640000D02*
X65085000Y-56830000D01*
X65085000Y-56830000D02*
X65720000Y-56195000D01*
X65720000Y-56195000D02*
X70165000Y-56195000D01*
X70165000Y-56195000D02*
X70800000Y-56830000D01*
X70800000Y-56830000D02*
X70941000Y-56971000D01*
X83700000Y-68650000D02*
X83500000Y-68260000D01*
X83500000Y-68260000D02*
X81595000Y-68260000D01*
X81595000Y-68260000D02*
X80960000Y-67625000D01*
X80960000Y-67625000D02*
X80325000Y-66990000D01*
X80325000Y-66990000D02*
X79690000Y-66355000D01*
X79690000Y-66355000D02*
X79055000Y-65720000D01*
X79055000Y-65720000D02*
X78420000Y-65085000D01*
X78420000Y-65085000D02*
X77785000Y-64450000D01*
X77785000Y-64450000D02*
X77150000Y-63815000D01*
X77150000Y-63815000D02*
X75880000Y-62545000D01*
X75880000Y-62545000D02*
X75245000Y-61910000D01*
X75245000Y-61910000D02*
X74610000Y-61275000D01*
X74610000Y-61275000D02*
X73975000Y-61275000D01*
X73975000Y-61275000D02*
X73340000Y-60640000D01*
X73340000Y-60640000D02*
X72705000Y-60005000D01*
X72705000Y-60005000D02*
X72070000Y-59370000D01*
X72070000Y-59370000D02*
X71435000Y-58735000D01*
X71435000Y-58735000D02*
X70800000Y-58100000D01*
X70800000Y-58100000D02*
X70659000Y-57959000D01*
X91755000Y-70165000D02*
X91120000Y-69530000D01*
X91120000Y-69530000D02*
X90485000Y-68895000D01*
X90485000Y-68895000D02*
X89850000Y-68260000D01*
X89850000Y-68260000D02*
X89850000Y-66355000D01*
X89850000Y-66355000D02*
X80325000Y-66355000D01*
X80325000Y-66355000D02*
X80184000Y-66496000D01*
X96500000Y-67540000D02*
X96200000Y-67625000D01*
X96200000Y-67625000D02*
X90100000Y-67625000D01*
X91350000Y-60800000D02*
X91120000Y-61275000D01*
X91120000Y-61275000D02*
X90485000Y-61910000D01*
X90485000Y-61910000D02*
X89850000Y-62545000D01*
X89850000Y-62545000D02*
X89215000Y-63180000D01*
X89215000Y-63180000D02*
X88580000Y-63815000D01*
X88580000Y-63815000D02*
X88580000Y-64450000D01*
X88580000Y-64450000D02*
X86040000Y-64450000D01*
X86040000Y-64450000D02*
X85405000Y-65085000D01*
X85405000Y-65085000D02*
X84770000Y-65720000D01*
X84770000Y-65720000D02*
X84770000Y-66105000D01*
X37780000Y-43200000D02*
X37780000Y-43495000D01*
X33550000Y-41590000D02*
X33335000Y-41590000D01*
X33335000Y-41590000D02*
X33335000Y-40320000D01*
X33335000Y-40320000D02*
X35240000Y-40320000D01*
X35240000Y-40320000D02*
X35875000Y-39685000D01*
X35875000Y-39685000D02*
X46035000Y-39685000D01*
X46035000Y-39685000D02*
X46670000Y-40320000D01*
X46670000Y-40320000D02*
X47305000Y-40955000D01*
X47305000Y-40955000D02*
X47940000Y-41590000D01*
X47940000Y-41590000D02*
X48575000Y-42225000D01*
X48575000Y-42225000D02*
X49845000Y-43495000D01*
X49845000Y-43495000D02*
X50480000Y-44130000D01*
X50480000Y-44130000D02*
X51115000Y-44765000D01*
X51115000Y-44765000D02*
X51115000Y-48575000D01*
X24445000Y-48575000D02*
X23810000Y-47940000D01*
X23810000Y-47940000D02*
X23175000Y-47305000D01*
X23175000Y-47305000D02*
X23175000Y-43495000D01*
X23175000Y-43495000D02*
X33335000Y-43495000D01*
X24000000Y-41950000D02*
X24445000Y-42225000D01*
X24445000Y-42225000D02*
X25715000Y-42225000D01*
X25715000Y-42225000D02*
X26350000Y-42860000D01*
X26350000Y-42860000D02*
X26350000Y-43245000D01*
X52500000Y-23550000D02*
X52385000Y-23175000D01*
X52385000Y-23175000D02*
X48775000Y-23175000D01*
X43550000Y-21500000D02*
X44130000Y-21905000D01*
X70550000Y-24000000D02*
X70165000Y-23810000D01*
X70165000Y-23810000D02*
X53275000Y-23810000D01*
X73975000Y-28095000D02*
X73340000Y-28255000D01*
X73340000Y-28255000D02*
X70800000Y-28255000D01*
X68895000Y-26985000D02*
X66355000Y-26985000D01*
X66355000Y-26985000D02*
X65720000Y-26350000D01*
X65720000Y-26350000D02*
X65085000Y-25715000D01*
X65085000Y-25715000D02*
X64450000Y-25080000D01*
X64450000Y-25080000D02*
X63815000Y-24445000D01*
X63815000Y-24445000D02*
X63815000Y-24060000D01*
X78950000Y-35500000D02*
X78420000Y-35240000D01*
X78420000Y-35240000D02*
X78420000Y-33970000D01*
X78420000Y-33970000D02*
X72705000Y-33970000D01*
X72705000Y-33970000D02*
X72070000Y-33335000D01*
X72070000Y-33335000D02*
X72070000Y-29525000D01*
X72070000Y-29525000D02*
X71435000Y-29525000D01*
X71435000Y-29525000D02*
X70800000Y-28890000D01*
X70800000Y-28890000D02*
X70800000Y-28655000D01*
X82230000Y-41590000D02*
X82230000Y-42225000D01*
X82230000Y-42225000D02*
X83500000Y-42225000D01*
X83500000Y-42225000D02*
X83500000Y-36510000D01*
X83500000Y-36510000D02*
X79690000Y-36510000D01*
X79690000Y-36510000D02*
X79575000Y-36275000D01*
X86475000Y-38095000D02*
X86040000Y-37780000D01*
X86040000Y-37780000D02*
X83750000Y-37780000D01*
X88050000Y-35000000D02*
X87945000Y-34605000D01*
X87945000Y-34605000D02*
X79690000Y-34605000D01*
X79690000Y-34605000D02*
X79575000Y-34725000D01*
X88000000Y-49845000D02*
X87945000Y-49845000D01*
X87945000Y-49845000D02*
X87310000Y-49210000D01*
X87310000Y-49210000D02*
X86675000Y-48575000D01*
X86675000Y-48575000D02*
X86040000Y-47940000D01*
X86040000Y-47940000D02*
X84770000Y-46670000D01*
X84770000Y-46670000D02*
X84135000Y-46035000D01*
X84135000Y-46035000D02*
X82865000Y-44765000D01*
X82865000Y-44765000D02*
X82230000Y-44130000D01*
X82230000Y-44130000D02*
X81595000Y-44130000D01*
X81595000Y-44130000D02*
X80960000Y-43495000D01*
X80960000Y-43495000D02*
X80325000Y-42860000D01*
X80325000Y-42860000D02*
X79690000Y-42225000D01*
X79690000Y-42225000D02*
X79690000Y-42055000D01*
X84500000Y-53450000D02*
X84770000Y-53020000D01*
X84770000Y-53020000D02*
X86040000Y-53020000D01*
X86040000Y-53020000D02*
X86040000Y-52385000D01*
X86040000Y-52385000D02*
X86675000Y-52385000D01*
X86675000Y-52385000D02*
X87310000Y-51750000D01*
X87310000Y-51750000D02*
X87650000Y-51750000D01*
X79050000Y-61500000D02*
X79055000Y-61275000D01*
X79055000Y-61275000D02*
X79055000Y-58735000D01*
X79055000Y-58735000D02*
X79690000Y-58100000D01*
X79690000Y-58100000D02*
X80325000Y-57465000D01*
X80325000Y-57465000D02*
X80960000Y-56830000D01*
X80960000Y-56830000D02*
X82230000Y-55560000D01*
X82230000Y-55560000D02*
X82865000Y-54925000D01*
X82865000Y-54925000D02*
X83500000Y-54290000D01*
X83500000Y-54290000D02*
X83725000Y-54075000D01*
X78420000Y-61910000D02*
X78425000Y-61910000D01*
X87945000Y-69530000D02*
X87945000Y-73340000D01*
X87945000Y-73340000D02*
X86675000Y-74610000D01*
X86675000Y-74610000D02*
X82230000Y-74610000D01*
X82230000Y-74610000D02*
X82230000Y-72070000D01*
X82230000Y-72070000D02*
X81595000Y-71435000D01*
X81595000Y-71435000D02*
X80325000Y-70165000D01*
X80325000Y-70165000D02*
X80050000Y-70165000D01*
X70550000Y-79000000D02*
X70800000Y-78420000D01*
X70800000Y-78420000D02*
X70800000Y-77150000D01*
X70800000Y-77150000D02*
X71435000Y-76515000D01*
X71435000Y-76515000D02*
X72070000Y-75880000D01*
X72070000Y-75880000D02*
X72705000Y-75245000D01*
X72705000Y-75245000D02*
X73340000Y-74610000D01*
X73340000Y-74610000D02*
X73975000Y-73975000D01*
X73975000Y-73975000D02*
X74610000Y-73340000D01*
X74610000Y-73340000D02*
X75245000Y-72705000D01*
X75245000Y-72705000D02*
X75880000Y-72070000D01*
X75880000Y-72070000D02*
X76515000Y-71435000D01*
X76515000Y-71435000D02*
X77785000Y-70165000D01*
X77785000Y-70165000D02*
X77950000Y-70165000D01*
X73975000Y-83095000D02*
X73340000Y-82865000D01*
X73340000Y-82865000D02*
X72070000Y-82865000D01*
X65085000Y-82865000D02*
X65085000Y-82230000D01*
X65085000Y-82230000D02*
X67625000Y-79690000D01*
X67625000Y-79690000D02*
X68260000Y-79055000D01*
X68260000Y-79055000D02*
X68895000Y-78420000D01*
X68895000Y-78420000D02*
X69530000Y-77785000D01*
X69530000Y-77785000D02*
X70165000Y-77150000D01*
X70165000Y-77150000D02*
X70550000Y-77150000D01*
X78420000Y-89850000D02*
X78420000Y-84770000D01*
X78420000Y-84770000D02*
X77785000Y-84135000D01*
X77785000Y-84135000D02*
X77150000Y-83500000D01*
X77150000Y-83500000D02*
X76515000Y-82865000D01*
X76515000Y-82865000D02*
X75880000Y-82865000D01*
X75880000Y-82865000D02*
X75880000Y-82945000D01*
X82230000Y-96835000D02*
X83500000Y-96835000D01*
X83500000Y-96835000D02*
X83500000Y-91755000D01*
X83500000Y-91755000D02*
X82865000Y-91120000D01*
X82865000Y-91120000D02*
X82230000Y-90485000D01*
X82230000Y-90485000D02*
X81595000Y-89850000D01*
X81595000Y-89850000D02*
X80960000Y-89215000D01*
X80960000Y-89215000D02*
X80325000Y-88580000D01*
X80325000Y-88580000D02*
X79055000Y-87310000D01*
X79055000Y-87310000D02*
X78670000Y-87310000D01*
X86475000Y-93095000D02*
X86040000Y-93025000D01*
X86040000Y-93025000D02*
X84770000Y-91755000D01*
X84770000Y-91755000D02*
X83750000Y-91755000D01*
X88050000Y-90000000D02*
X87945000Y-90485000D01*
X87945000Y-90485000D02*
X87945000Y-91755000D01*
X87945000Y-91755000D02*
X87310000Y-92390000D01*
X87310000Y-92390000D02*
X87310000Y-92745000D01*
X88000000Y-104455000D02*
X87945000Y-104455000D01*
X87945000Y-104455000D02*
X87945000Y-99375000D01*
X87945000Y-99375000D02*
X88580000Y-98740000D01*
X88580000Y-98740000D02*
X89215000Y-98105000D01*
X89215000Y-98105000D02*
X89850000Y-97470000D01*
X89850000Y-97470000D02*
X89850000Y-93025000D01*
X89850000Y-93025000D02*
X89215000Y-92390000D01*
X89215000Y-92390000D02*
X88580000Y-91755000D01*
X88580000Y-91755000D02*
X88195000Y-91755000D01*
X84500000Y-108450000D02*
X84135000Y-108265000D01*
X84135000Y-108265000D02*
X82865000Y-108265000D01*
X82865000Y-108265000D02*
X82865000Y-107630000D01*
X82865000Y-107630000D02*
X82230000Y-106995000D01*
X82230000Y-106995000D02*
X82230000Y-97255000D01*
X82230000Y-113980000D02*
X82230000Y-108265000D01*
X82230000Y-108265000D02*
X82615000Y-108265000D01*
X84000000Y-117790000D02*
X84135000Y-117790000D01*
X84135000Y-117790000D02*
X84135000Y-108900000D01*
X86500000Y-116450000D02*
X86040000Y-115885000D01*
X86040000Y-115885000D02*
X84385000Y-115885000D01*
X80000000Y-119550000D02*
X79690000Y-119060000D01*
X79690000Y-119060000D02*
X79690000Y-97055000D01*
X78000000Y-119550000D02*
X78420000Y-119060000D01*
X78420000Y-119060000D02*
X79055000Y-118425000D01*
X79055000Y-118425000D02*
X79440000Y-118425000D01*
X52500000Y-78550000D02*
X53020000Y-79055000D01*
X53020000Y-79055000D02*
X53655000Y-79055000D01*
X66355000Y-80325000D02*
X66496000Y-80466000D01*
X48000000Y-78550000D02*
X48575000Y-78420000D01*
X48575000Y-78420000D02*
X49845000Y-78420000D01*
X48575000Y-77785000D02*
X48575000Y-77925000D01*
X70550000Y-134000000D02*
X70800000Y-133665000D01*
X70800000Y-133665000D02*
X70800000Y-103820000D01*
X70800000Y-103820000D02*
X71435000Y-103185000D01*
X71435000Y-103185000D02*
X71435000Y-95565000D01*
X71435000Y-95565000D02*
X73975000Y-93025000D01*
X73975000Y-93025000D02*
X73975000Y-89850000D01*
X73975000Y-89850000D02*
X72070000Y-87945000D01*
X72070000Y-87945000D02*
X72070000Y-83265000D01*
X73975000Y-138095000D02*
X73340000Y-138110000D01*
X73340000Y-138110000D02*
X72070000Y-138110000D01*
X64450000Y-138745000D02*
X64450000Y-138110000D01*
X64450000Y-138110000D02*
X65085000Y-137475000D01*
X65085000Y-137475000D02*
X66355000Y-136205000D01*
X66355000Y-136205000D02*
X66990000Y-135570000D01*
X66990000Y-135570000D02*
X68260000Y-134300000D01*
X68260000Y-134300000D02*
X68895000Y-133665000D01*
X68895000Y-133665000D02*
X69530000Y-133030000D01*
X69530000Y-133030000D02*
X69925000Y-133225000D01*
X78950000Y-145500000D02*
X78420000Y-145095000D01*
X78420000Y-145095000D02*
X78420000Y-140015000D01*
X78420000Y-140015000D02*
X77785000Y-139380000D01*
X77785000Y-139380000D02*
X77150000Y-138745000D01*
X77150000Y-138745000D02*
X76515000Y-138110000D01*
X76515000Y-138110000D02*
X75880000Y-138110000D01*
X82230000Y-152080000D02*
X83500000Y-152080000D01*
X83500000Y-152080000D02*
X83500000Y-144460000D01*
X83500000Y-144460000D02*
X82865000Y-143825000D01*
X82865000Y-143825000D02*
X82230000Y-143190000D01*
X82230000Y-143190000D02*
X81595000Y-142555000D01*
X81595000Y-142555000D02*
X80960000Y-141920000D01*
X80960000Y-141920000D02*
X80325000Y-141285000D01*
X80325000Y-141285000D02*
X79690000Y-140650000D01*
X79690000Y-140650000D02*
X79055000Y-140015000D01*
X79055000Y-140015000D02*
X78670000Y-140015000D01*
X86475000Y-148095000D02*
X86040000Y-148270000D01*
X86040000Y-148270000D02*
X86040000Y-147000000D01*
X86040000Y-147000000D02*
X85405000Y-146365000D01*
X85405000Y-146365000D02*
X84770000Y-145730000D01*
X84770000Y-145730000D02*
X84135000Y-145095000D01*
X84135000Y-145095000D02*
X83750000Y-145095000D01*
X88050000Y-145000000D02*
X87945000Y-145095000D01*
X87945000Y-145095000D02*
X84770000Y-145095000D01*
X84770000Y-145095000D02*
X84629000Y-145236000D01*
X88000000Y-159700000D02*
X87945000Y-159700000D01*
X87945000Y-159700000D02*
X87945000Y-156525000D01*
X87945000Y-156525000D02*
X87310000Y-155890000D01*
X87310000Y-155890000D02*
X86675000Y-155255000D01*
X86675000Y-155255000D02*
X86040000Y-154620000D01*
X86040000Y-154620000D02*
X85405000Y-153985000D01*
X85405000Y-153985000D02*
X84770000Y-153350000D01*
X84770000Y-153350000D02*
X84770000Y-146365000D01*
X84770000Y-146365000D02*
X84911000Y-146224000D01*
X84500000Y-163450000D02*
X84770000Y-162875000D01*
X84770000Y-162875000D02*
X86040000Y-162875000D01*
X86040000Y-162875000D02*
X86040000Y-155255000D01*
X86040000Y-155255000D02*
X86181000Y-155114000D01*
X52500000Y-133550000D02*
X53020000Y-133030000D01*
X53020000Y-133030000D02*
X53020000Y-131125000D01*
X53020000Y-131125000D02*
X53655000Y-130490000D01*
X53655000Y-130490000D02*
X54290000Y-129855000D01*
X54290000Y-129855000D02*
X54925000Y-129220000D01*
X54925000Y-129220000D02*
X55560000Y-128585000D01*
X55560000Y-128585000D02*
X56830000Y-127315000D01*
X56830000Y-127315000D02*
X57465000Y-126680000D01*
X57465000Y-126680000D02*
X58735000Y-125410000D01*
X58735000Y-125410000D02*
X59370000Y-124775000D01*
X59370000Y-124775000D02*
X59370000Y-124140000D01*
X59370000Y-124140000D02*
X60005000Y-123505000D01*
X60005000Y-123505000D02*
X60005000Y-119695000D01*
X60005000Y-119695000D02*
X60640000Y-119060000D01*
X60640000Y-119060000D02*
X61275000Y-118425000D01*
X61275000Y-118425000D02*
X61910000Y-117790000D01*
X61910000Y-117790000D02*
X62545000Y-117155000D01*
X62545000Y-117155000D02*
X63180000Y-116520000D01*
X63180000Y-116520000D02*
X63815000Y-115885000D01*
X63815000Y-115885000D02*
X64450000Y-115250000D01*
X64450000Y-115250000D02*
X65085000Y-114615000D01*
X65085000Y-114615000D02*
X65720000Y-113980000D01*
X65720000Y-113980000D02*
X66355000Y-113345000D01*
X66355000Y-113345000D02*
X66990000Y-112710000D01*
X66990000Y-112710000D02*
X67625000Y-112075000D01*
X67625000Y-112075000D02*
X70165000Y-109535000D01*
X70165000Y-109535000D02*
X70550000Y-109535000D01*
X48000000Y-133550000D02*
X48575000Y-133030000D01*
X52385000Y-131125000D02*
X52770000Y-131125000D01*
X43550000Y-131500000D02*
X44130000Y-131760000D01*
X44130000Y-131760000D02*
X44130000Y-133030000D01*
X44130000Y-133030000D02*
X47305000Y-133030000D01*
D10*
X72070000Y-46035000D02*
X70575000Y-46035000D01*
X75000000Y-47940000D02*
X73550000Y-47940000D01*
X80600000Y-48750000D02*
X80325000Y-48575000D01*
X80325000Y-48575000D02*
X77785000Y-48575000D01*
X77785000Y-48575000D02*
X77150000Y-47940000D01*
X77150000Y-47940000D02*
X75150000Y-47940000D01*
X69950000Y-101500000D02*
X69530000Y-101280000D01*
X69530000Y-101280000D02*
X69530000Y-93660000D01*
X69530000Y-93660000D02*
X68895000Y-93025000D01*
X68895000Y-93025000D02*
X68895000Y-88580000D01*
X63815000Y-82865000D02*
X63815000Y-66990000D01*
X63815000Y-66990000D02*
X63180000Y-66355000D01*
X63180000Y-66355000D02*
X62545000Y-65720000D01*
X62545000Y-65720000D02*
X62545000Y-62545000D01*
X62545000Y-62545000D02*
X59370000Y-59370000D01*
X59370000Y-59370000D02*
X59370000Y-55560000D01*
X59370000Y-55560000D02*
X64450000Y-55560000D01*
X64450000Y-55560000D02*
X65085000Y-54925000D01*
X65085000Y-54925000D02*
X68260000Y-54925000D01*
X68260000Y-54925000D02*
X68895000Y-54290000D01*
X68895000Y-54290000D02*
X70165000Y-53020000D01*
X70165000Y-53020000D02*
X70800000Y-52385000D01*
X70800000Y-52385000D02*
X71435000Y-51750000D01*
X71435000Y-51750000D02*
X72070000Y-51115000D01*
X72070000Y-51115000D02*
X72705000Y-50480000D01*
X72705000Y-50480000D02*
X73340000Y-49845000D01*
X73340000Y-49845000D02*
X73975000Y-49210000D01*
X73975000Y-49210000D02*
X74610000Y-48575000D01*
X74610000Y-48575000D02*
X74850000Y-48575000D01*
X69950000Y-156500000D02*
X69530000Y-155890000D01*
X69530000Y-155890000D02*
X69530000Y-148905000D01*
X69530000Y-148905000D02*
X68895000Y-148270000D01*
X68895000Y-148270000D02*
X68895000Y-143825000D01*
X68895000Y-143825000D02*
X68260000Y-143190000D01*
X63180000Y-138745000D02*
X63180000Y-123505000D01*
X63180000Y-123505000D02*
X63815000Y-122870000D01*
X63815000Y-122870000D02*
X64450000Y-122235000D01*
X64450000Y-122235000D02*
X65085000Y-121600000D01*
X65085000Y-121600000D02*
X65720000Y-120965000D01*
X65720000Y-120965000D02*
X65720000Y-115885000D01*
X68895000Y-93660000D02*
X69106000Y-93449000D01*
X90485000Y-58100000D02*
X91120000Y-58100000D01*
X91120000Y-58100000D02*
X91120000Y-53020000D01*
X91120000Y-53020000D02*
X90485000Y-52385000D01*
X90485000Y-52385000D02*
X89850000Y-51750000D01*
X89850000Y-51750000D02*
X89215000Y-51115000D01*
X90485000Y-59370000D02*
X90485000Y-59175000D01*
X90485000Y-113345000D02*
X91120000Y-113345000D01*
X91120000Y-113345000D02*
X91120000Y-108265000D01*
X91120000Y-108265000D02*
X90485000Y-107630000D01*
X90485000Y-107630000D02*
X89850000Y-106995000D01*
X89850000Y-106995000D02*
X89215000Y-106360000D01*
X89215000Y-114615000D02*
X89215000Y-114175000D01*
X90485000Y-168590000D02*
X91120000Y-167955000D01*
X91120000Y-167955000D02*
X91120000Y-163510000D01*
X91120000Y-163510000D02*
X89850000Y-162240000D01*
X89850000Y-162240000D02*
X89215000Y-161605000D01*
X88580000Y-126680000D02*
X88580000Y-127950000D01*
X88580000Y-127950000D02*
X89850000Y-129220000D01*
X89850000Y-129220000D02*
X90485000Y-129855000D01*
X90485000Y-129855000D02*
X91120000Y-130490000D01*
X91120000Y-130490000D02*
X91755000Y-131125000D01*
X91755000Y-131125000D02*
X92390000Y-131760000D01*
X92390000Y-131760000D02*
X93025000Y-132395000D01*
X93025000Y-132395000D02*
X93660000Y-133030000D01*
X93660000Y-133030000D02*
X94295000Y-133665000D01*
X94295000Y-133665000D02*
X94930000Y-134300000D01*
X94930000Y-134300000D02*
X98740000Y-134300000D01*
X98740000Y-134300000D02*
X98740000Y-154620000D01*
X98740000Y-154620000D02*
X98105000Y-155255000D01*
X98105000Y-155255000D02*
X97470000Y-155890000D01*
X97470000Y-155890000D02*
X96835000Y-156525000D01*
X96835000Y-156525000D02*
X96200000Y-157160000D01*
X96200000Y-157160000D02*
X95565000Y-157795000D01*
X95565000Y-157795000D02*
X94930000Y-158430000D01*
X94930000Y-158430000D02*
X93660000Y-159700000D01*
X93660000Y-159700000D02*
X93025000Y-160335000D01*
X93025000Y-160335000D02*
X92390000Y-160970000D01*
X92390000Y-160970000D02*
X91755000Y-160970000D01*
X91755000Y-160970000D02*
X91755000Y-162240000D01*
X91755000Y-162240000D02*
X91120000Y-162875000D01*
X91120000Y-162875000D02*
X90909000Y-163086000D01*
X80325000Y-125410000D02*
X80960000Y-124775000D01*
X80960000Y-124775000D02*
X80960000Y-124140000D01*
X80960000Y-124140000D02*
X81595000Y-124140000D01*
X81595000Y-124140000D02*
X82865000Y-122870000D01*
X82865000Y-122870000D02*
X82900000Y-122870000D01*
X78000000Y-121450000D02*
X78420000Y-121600000D01*
X78420000Y-121600000D02*
X78420000Y-122870000D01*
X78420000Y-122870000D02*
X79690000Y-122870000D01*
X79690000Y-122870000D02*
X80325000Y-123505000D01*
X80325000Y-123505000D02*
X80960000Y-124140000D01*
X85040000Y-126000000D02*
X84770000Y-125410000D01*
X84770000Y-125410000D02*
X84770000Y-123505000D01*
X84770000Y-123505000D02*
X84800000Y-123505000D01*
X80000000Y-121450000D02*
X79690000Y-120965000D01*
X82230000Y-116520000D02*
X82230000Y-117155000D01*
X82230000Y-117155000D02*
X82865000Y-117790000D01*
X82865000Y-117790000D02*
X82900000Y-117790000D01*
X80960000Y-117155000D02*
X80960000Y-117075000D01*
X77785000Y-40955000D02*
X76515000Y-40955000D01*
X76515000Y-40955000D02*
X75880000Y-40320000D01*
X75880000Y-40320000D02*
X75880000Y-37780000D01*
X75880000Y-37780000D02*
X79690000Y-37780000D01*
X79690000Y-37780000D02*
X79690000Y-37945000D01*
X77785000Y-95565000D02*
X76515000Y-95565000D01*
X76515000Y-95565000D02*
X75880000Y-94930000D01*
X75880000Y-94930000D02*
X75880000Y-93025000D01*
X75880000Y-93025000D02*
X76515000Y-93025000D01*
X76515000Y-93025000D02*
X77150000Y-92390000D01*
X77150000Y-92390000D02*
X80325000Y-92390000D01*
X80325000Y-92390000D02*
X80500000Y-92745000D01*
X77785000Y-150810000D02*
X76515000Y-150810000D01*
X76515000Y-150810000D02*
X75880000Y-150175000D01*
X75880000Y-150175000D02*
X75880000Y-148270000D01*
X75880000Y-148270000D02*
X76515000Y-147635000D01*
X76515000Y-147635000D02*
X79690000Y-147635000D01*
X79690000Y-147635000D02*
X79690000Y-147945000D01*
X92500000Y-40950000D02*
X92390000Y-40955000D01*
X92390000Y-40955000D02*
X91120000Y-40955000D01*
X91120000Y-40955000D02*
X89850000Y-39685000D01*
X89850000Y-39685000D02*
X88580000Y-39685000D01*
X88580000Y-39685000D02*
X88580000Y-39515000D01*
X92500000Y-95950000D02*
X92390000Y-95565000D01*
X92390000Y-95565000D02*
X91120000Y-95565000D01*
X92500000Y-150950000D02*
X92390000Y-150810000D01*
X92390000Y-150810000D02*
X90485000Y-150810000D01*
X90485000Y-150810000D02*
X89850000Y-150175000D01*
X89850000Y-150175000D02*
X89215000Y-149540000D01*
X89215000Y-149540000D02*
X88580000Y-149540000D01*
X88580000Y-149540000D02*
X88580000Y-149515000D01*
X65085000Y-40320000D02*
X65085000Y-39685000D01*
X65085000Y-39685000D02*
X65720000Y-39050000D01*
X65720000Y-39050000D02*
X68260000Y-39050000D01*
X68260000Y-39050000D02*
X68260000Y-33335000D01*
X68260000Y-33335000D02*
X66990000Y-33335000D01*
X66990000Y-33335000D02*
X66355000Y-32700000D01*
X66355000Y-32700000D02*
X65720000Y-32700000D01*
X65720000Y-32700000D02*
X65720000Y-30160000D01*
X65720000Y-30160000D02*
X66355000Y-30160000D01*
X66355000Y-30160000D02*
X66355000Y-29525000D01*
X66355000Y-29525000D02*
X66990000Y-29525000D01*
X66990000Y-29525000D02*
X66990000Y-29515000D01*
X70165000Y-29525000D02*
X70050000Y-29525000D01*
X65050000Y-96000000D02*
X65085000Y-95565000D01*
X65085000Y-95565000D02*
X65085000Y-91120000D01*
X65085000Y-86040000D02*
X65720000Y-85405000D01*
X65720000Y-85405000D02*
X65720000Y-84770000D01*
X65720000Y-84770000D02*
X66990000Y-84770000D01*
X66990000Y-84770000D02*
X66990000Y-84515000D01*
X65050000Y-151000000D02*
X65085000Y-151445000D01*
X65085000Y-151445000D02*
X65085000Y-157160000D01*
X65085000Y-157160000D02*
X65720000Y-157795000D01*
X65720000Y-157795000D02*
X66355000Y-158430000D01*
X66355000Y-158430000D02*
X71435000Y-158430000D01*
X71435000Y-158430000D02*
X71435000Y-150810000D01*
X71435000Y-150810000D02*
X72070000Y-150175000D01*
X72070000Y-150175000D02*
X72705000Y-149540000D01*
X72705000Y-149540000D02*
X73340000Y-148905000D01*
X73340000Y-148905000D02*
X73975000Y-148270000D01*
X73975000Y-148270000D02*
X73975000Y-145095000D01*
X73975000Y-145095000D02*
X73340000Y-144460000D01*
X73340000Y-144460000D02*
X72705000Y-143825000D01*
X72705000Y-143825000D02*
X72070000Y-143190000D01*
X72070000Y-143190000D02*
X72070000Y-140015000D01*
X72070000Y-140015000D02*
X71435000Y-139380000D01*
X71435000Y-139380000D02*
X70050000Y-139380000D01*
X73975000Y-144460000D02*
X73764000Y-144671000D01*
X63815000Y-50480000D02*
X63815000Y-45400000D01*
X63815000Y-45400000D02*
X64450000Y-44765000D01*
X64450000Y-44765000D02*
X65085000Y-44130000D01*
X65085000Y-44130000D02*
X65720000Y-43495000D01*
X65720000Y-43495000D02*
X66355000Y-42860000D01*
X66355000Y-42860000D02*
X66355000Y-41775000D01*
X63815000Y-105725000D02*
X63815000Y-100010000D01*
X63815000Y-100010000D02*
X64450000Y-99375000D01*
X64450000Y-99375000D02*
X65085000Y-98740000D01*
X65085000Y-98740000D02*
X65720000Y-98105000D01*
X65720000Y-98105000D02*
X66355000Y-97470000D01*
X66355000Y-97470000D02*
X66355000Y-96775000D01*
X63815000Y-160335000D02*
X63815000Y-149540000D01*
X63815000Y-149540000D02*
X66355000Y-149540000D01*
X66355000Y-149540000D02*
X66355000Y-150225000D01*
X68050000Y-46500000D02*
X67625000Y-46670000D01*
X67625000Y-46670000D02*
X66990000Y-47305000D01*
X66990000Y-47305000D02*
X66990000Y-53020000D01*
X66990000Y-53020000D02*
X61275000Y-53020000D01*
X61275000Y-53020000D02*
X61275000Y-51750000D01*
X68050000Y-101500000D02*
X67625000Y-101915000D01*
X67625000Y-101915000D02*
X66990000Y-102550000D01*
X66990000Y-102550000D02*
X66990000Y-107630000D01*
X66990000Y-107630000D02*
X61275000Y-107630000D01*
X61275000Y-107630000D02*
X61275000Y-106900000D01*
X67625000Y-157160000D02*
X66355000Y-157160000D01*
X55560000Y-46670000D02*
X55560000Y-47940000D01*
X55560000Y-47940000D02*
X62545000Y-47940000D01*
X55050000Y-101000000D02*
X55560000Y-101280000D01*
X55560000Y-101280000D02*
X55560000Y-102550000D01*
X55560000Y-102550000D02*
X56830000Y-102550000D01*
X56830000Y-102550000D02*
X57465000Y-103185000D01*
X57465000Y-103185000D02*
X61275000Y-103185000D01*
X61275000Y-103185000D02*
X61910000Y-103820000D01*
X61910000Y-103820000D02*
X62545000Y-104455000D01*
X55050000Y-156000000D02*
X55560000Y-156525000D01*
X55560000Y-156525000D02*
X55560000Y-157795000D01*
X55560000Y-157795000D02*
X56195000Y-158430000D01*
X56195000Y-158430000D02*
X56830000Y-159065000D01*
X56830000Y-159065000D02*
X57465000Y-159700000D01*
X57465000Y-159700000D02*
X58100000Y-160335000D01*
X58100000Y-160335000D02*
X58735000Y-160970000D01*
X58735000Y-160970000D02*
X58735000Y-162875000D01*
X58735000Y-162875000D02*
X64450000Y-162875000D01*
X64450000Y-162875000D02*
X64450000Y-162240000D01*
X64450000Y-162240000D02*
X64640000Y-161900000D01*
X70550000Y-36500000D02*
X70165000Y-35875000D01*
X70165000Y-35875000D02*
X70165000Y-33970000D01*
X70165000Y-33970000D02*
X69530000Y-33335000D01*
X69530000Y-33335000D02*
X69530000Y-32255000D01*
X66500000Y-37450000D02*
X66355000Y-37145000D01*
X66355000Y-37145000D02*
X65085000Y-37145000D01*
X65085000Y-37145000D02*
X65085000Y-35875000D01*
X69530000Y-35875000D02*
X69925000Y-35875000D01*
X70550000Y-91500000D02*
X70165000Y-91120000D01*
X70165000Y-91120000D02*
X70165000Y-87310000D01*
X70165000Y-87310000D02*
X70050000Y-87255000D01*
X66500000Y-92450000D02*
X66355000Y-93025000D01*
X66355000Y-93025000D02*
X66355000Y-94295000D01*
X65720000Y-99375000D02*
X66355000Y-99375000D01*
X66355000Y-99375000D02*
X66990000Y-98740000D01*
X66990000Y-98740000D02*
X67625000Y-98105000D01*
X67625000Y-98105000D02*
X68260000Y-97470000D01*
X68260000Y-97470000D02*
X68260000Y-96835000D01*
X70800000Y-93660000D02*
X70800000Y-92275000D01*
X70550000Y-146500000D02*
X70165000Y-146365000D01*
X70165000Y-146365000D02*
X70165000Y-143190000D01*
X70165000Y-143190000D02*
X69530000Y-142555000D01*
X69530000Y-142555000D02*
X69530000Y-142255000D01*
X66500000Y-147450000D02*
X66990000Y-147635000D01*
X66990000Y-147635000D02*
X67625000Y-148270000D01*
X70165000Y-148270000D02*
X70165000Y-147275000D01*
X72450000Y-36500000D02*
X72705000Y-35875000D01*
X72705000Y-35875000D02*
X72705000Y-35240000D01*
X96200000Y-33335000D02*
X95565000Y-32700000D01*
X95565000Y-32700000D02*
X94930000Y-32700000D01*
X94930000Y-32700000D02*
X94295000Y-32065000D01*
X94295000Y-32065000D02*
X93660000Y-31430000D01*
X93660000Y-31430000D02*
X93025000Y-31430000D01*
X93025000Y-31430000D02*
X92390000Y-30795000D01*
X92390000Y-30795000D02*
X75880000Y-30795000D01*
X75880000Y-30795000D02*
X75880000Y-30785000D01*
X88000000Y-53800000D02*
X87945000Y-54290000D01*
X87945000Y-54290000D02*
X87945000Y-54925000D01*
X72450000Y-91500000D02*
X72705000Y-91120000D01*
X77150000Y-86675000D02*
X77150000Y-86040000D01*
X77150000Y-86040000D02*
X75880000Y-86040000D01*
X75880000Y-86040000D02*
X75880000Y-85785000D01*
X88000000Y-108800000D02*
X87945000Y-108265000D01*
X87945000Y-108265000D02*
X87945000Y-107630000D01*
X94295000Y-93660000D02*
X94295000Y-91120000D01*
X94295000Y-91120000D02*
X94930000Y-90485000D01*
X94930000Y-90485000D02*
X95565000Y-89850000D01*
X95565000Y-89850000D02*
X95950000Y-89850000D01*
X72450000Y-146500000D02*
X72705000Y-146365000D01*
X72705000Y-146365000D02*
X72705000Y-145095000D01*
X88000000Y-165415000D02*
X87945000Y-165415000D01*
X88580000Y-40635000D02*
X88580000Y-40955000D01*
X88580000Y-40955000D02*
X89850000Y-40955000D01*
X89850000Y-40955000D02*
X89850000Y-41590000D01*
X89850000Y-41590000D02*
X90485000Y-42225000D01*
X90485000Y-42225000D02*
X94295000Y-42225000D01*
X94295000Y-42225000D02*
X94295000Y-40955000D01*
X94295000Y-40955000D02*
X94930000Y-40320000D01*
X94930000Y-40320000D02*
X98105000Y-40320000D01*
X98105000Y-40320000D02*
X98740000Y-39685000D01*
X98740000Y-39685000D02*
X98740000Y-28255000D01*
X98740000Y-28255000D02*
X77785000Y-28255000D01*
X77785000Y-28255000D02*
X77150000Y-28890000D01*
X77150000Y-28890000D02*
X75880000Y-28890000D01*
X75880000Y-28890000D02*
X75880000Y-29215000D01*
X88580000Y-95635000D02*
X88580000Y-95565000D01*
X91120000Y-96835000D02*
X91120000Y-97470000D01*
X91120000Y-97470000D02*
X94295000Y-97470000D01*
X94295000Y-97470000D02*
X94295000Y-95565000D01*
X94295000Y-95565000D02*
X94930000Y-94930000D01*
X94930000Y-94930000D02*
X98740000Y-94930000D01*
X98740000Y-94930000D02*
X98740000Y-87310000D01*
X98740000Y-87310000D02*
X82865000Y-87310000D01*
X82865000Y-87310000D02*
X82230000Y-86675000D01*
X82230000Y-86675000D02*
X81595000Y-86040000D01*
X81595000Y-86040000D02*
X80960000Y-85405000D01*
X80960000Y-85405000D02*
X80325000Y-84770000D01*
X80325000Y-84770000D02*
X79690000Y-84135000D01*
X79690000Y-84135000D02*
X79055000Y-84135000D01*
X75880000Y-84135000D02*
X75880000Y-84215000D01*
X88580000Y-150635000D02*
X88580000Y-150810000D01*
X88580000Y-150810000D02*
X89215000Y-150810000D01*
X89215000Y-150810000D02*
X89215000Y-151445000D01*
X89215000Y-151445000D02*
X89850000Y-151445000D01*
X89850000Y-151445000D02*
X89850000Y-152080000D01*
X89850000Y-152080000D02*
X90485000Y-152080000D01*
X90485000Y-152080000D02*
X91120000Y-152715000D01*
X91120000Y-152715000D02*
X94295000Y-152715000D01*
X94295000Y-152715000D02*
X94295000Y-147635000D01*
X94295000Y-147635000D02*
X93660000Y-147000000D01*
X93660000Y-147000000D02*
X93025000Y-146365000D01*
X93025000Y-146365000D02*
X92390000Y-145730000D01*
X92390000Y-145730000D02*
X92390000Y-144460000D01*
X92390000Y-144460000D02*
X91755000Y-143825000D01*
X91755000Y-143825000D02*
X91120000Y-143190000D01*
X91120000Y-143190000D02*
X84135000Y-143190000D01*
X84135000Y-143190000D02*
X83500000Y-142555000D01*
X83500000Y-142555000D02*
X82865000Y-141920000D01*
X82865000Y-141920000D02*
X82230000Y-141285000D01*
X82230000Y-141285000D02*
X81595000Y-140650000D01*
X81595000Y-140650000D02*
X80960000Y-140015000D01*
X80960000Y-140015000D02*
X80325000Y-139380000D01*
X80325000Y-139380000D02*
X79690000Y-139380000D01*
X41500000Y-65450000D02*
X40955000Y-65085000D01*
X40955000Y-65085000D02*
X39685000Y-65085000D01*
X39685000Y-65085000D02*
X39685000Y-64450000D01*
X39685000Y-64450000D02*
X39050000Y-63815000D01*
X39050000Y-63815000D02*
X39050000Y-61910000D01*
X39050000Y-61910000D02*
X40320000Y-61910000D01*
X40320000Y-61910000D02*
X40955000Y-61275000D01*
X40955000Y-61275000D02*
X41590000Y-60640000D01*
X41590000Y-60640000D02*
X42225000Y-60640000D01*
X43550000Y-68000000D02*
X43495000Y-67625000D01*
X43495000Y-67625000D02*
X43495000Y-66990000D01*
X43495000Y-66990000D02*
X42860000Y-66355000D01*
X42860000Y-66355000D02*
X42225000Y-65720000D01*
X53000000Y-69500000D02*
X52385000Y-68895000D01*
X52385000Y-68895000D02*
X52385000Y-67625000D01*
X52385000Y-67625000D02*
X47940000Y-67625000D01*
X47940000Y-67625000D02*
X47305000Y-66990000D01*
X47305000Y-66990000D02*
X46670000Y-66355000D01*
X46670000Y-66355000D02*
X43495000Y-66355000D01*
X43495000Y-66355000D02*
X43284000Y-66566000D01*
X41500000Y-120450000D02*
X40955000Y-120330000D01*
X40955000Y-120330000D02*
X39685000Y-120330000D01*
X39685000Y-120330000D02*
X39685000Y-119695000D01*
X39685000Y-119695000D02*
X39050000Y-119060000D01*
X39050000Y-119060000D02*
X39050000Y-117155000D01*
X39050000Y-117155000D02*
X39685000Y-116520000D01*
X39685000Y-116520000D02*
X40955000Y-116520000D01*
X40955000Y-116520000D02*
X41590000Y-115885000D01*
X41590000Y-115885000D02*
X42225000Y-115885000D01*
X42225000Y-115885000D02*
X42225000Y-115785000D01*
X43550000Y-123000000D02*
X43495000Y-122870000D01*
X43495000Y-122870000D02*
X43495000Y-121600000D01*
X43495000Y-121600000D02*
X42860000Y-120965000D01*
X42860000Y-120965000D02*
X42225000Y-120330000D01*
X41500000Y-175450000D02*
X40955000Y-174940000D01*
X40955000Y-174940000D02*
X39685000Y-174940000D01*
X39685000Y-174940000D02*
X39685000Y-174305000D01*
X39685000Y-174305000D02*
X39050000Y-173670000D01*
X39050000Y-173670000D02*
X39050000Y-171765000D01*
X39050000Y-171765000D02*
X40320000Y-171765000D01*
X40320000Y-171765000D02*
X40955000Y-171130000D01*
X40955000Y-171130000D02*
X42225000Y-171130000D01*
X42225000Y-171130000D02*
X42225000Y-170785000D01*
X43550000Y-178000000D02*
X43495000Y-177480000D01*
X43495000Y-177480000D02*
X43495000Y-176845000D01*
X43495000Y-176845000D02*
X42860000Y-176210000D01*
X42860000Y-176210000D02*
X42225000Y-175575000D01*
X52385000Y-178750000D02*
X52385000Y-177480000D01*
X52385000Y-177480000D02*
X47940000Y-177480000D01*
X47940000Y-177480000D02*
X46670000Y-176210000D01*
X46670000Y-176210000D02*
X43495000Y-176210000D01*
X43495000Y-176210000D02*
X43284000Y-176421000D01*
X45400000Y-70800000D02*
X45400000Y-70165000D01*
X45400000Y-70165000D02*
X49560000Y-70165000D01*
X45050000Y-126500000D02*
X45400000Y-126045000D01*
X45050000Y-181500000D02*
X45400000Y-181290000D01*
X45400000Y-181290000D02*
X45400000Y-180020000D01*
X45400000Y-180020000D02*
X49560000Y-180020000D01*
X67000000Y-59700000D02*
X66990000Y-60005000D01*
X66990000Y-60005000D02*
X66990000Y-60640000D01*
X60550000Y-57500000D02*
X60640000Y-58100000D01*
X60640000Y-58100000D02*
X61275000Y-58735000D01*
X61275000Y-58735000D02*
X61275000Y-59370000D01*
X61275000Y-59370000D02*
X63180000Y-59370000D01*
X63180000Y-59370000D02*
X63815000Y-60005000D01*
X81525000Y-39365000D02*
X80960000Y-39050000D01*
X80960000Y-39050000D02*
X80960000Y-40320000D01*
X78000000Y-44950000D02*
X78420000Y-44765000D01*
X80325000Y-40955000D02*
X80325000Y-40785000D01*
X77050000Y-35500000D02*
X76515000Y-35875000D01*
X76515000Y-35875000D02*
X75880000Y-36510000D01*
X75880000Y-36510000D02*
X75245000Y-36510000D01*
X75245000Y-36510000D02*
X74610000Y-37145000D01*
X74610000Y-37145000D02*
X74610000Y-40955000D01*
X74610000Y-40955000D02*
X75245000Y-41590000D01*
X75245000Y-41590000D02*
X75245000Y-44130000D01*
X75245000Y-44130000D02*
X77150000Y-44130000D01*
X77150000Y-44130000D02*
X77225000Y-44325000D01*
X81525000Y-94365000D02*
X80960000Y-94295000D01*
X80960000Y-94295000D02*
X80960000Y-95285000D01*
X78000000Y-99950000D02*
X78420000Y-99375000D01*
X81525000Y-149365000D02*
X80960000Y-149540000D01*
X80960000Y-149540000D02*
X80960000Y-150285000D01*
X78000000Y-154950000D02*
X78420000Y-154620000D01*
X80325000Y-150810000D02*
X80325000Y-150785000D01*
X77050000Y-145500000D02*
X77150000Y-145095000D01*
X77150000Y-145095000D02*
X77150000Y-141285000D01*
X77150000Y-141285000D02*
X76515000Y-141285000D01*
X65085000Y-145730000D02*
X65085000Y-148270000D01*
X92500000Y-45050000D02*
X92390000Y-44765000D01*
X92390000Y-44765000D02*
X92390000Y-43495000D01*
X92390000Y-39685000D02*
X92390000Y-39675000D01*
X92500000Y-155050000D02*
X92390000Y-154620000D01*
X92390000Y-154620000D02*
X92390000Y-153985000D01*
X96000000Y-110000000D02*
X95565000Y-110170000D01*
X95565000Y-110170000D02*
X94930000Y-110805000D01*
X94930000Y-110805000D02*
X94930000Y-113980000D01*
X94930000Y-113980000D02*
X92390000Y-113980000D01*
X92390000Y-113980000D02*
X91755000Y-114615000D01*
X91755000Y-114615000D02*
X91120000Y-115250000D01*
X91120000Y-115250000D02*
X90485000Y-115885000D01*
X90485000Y-115885000D02*
X87945000Y-115885000D01*
X87945000Y-115885000D02*
X87945000Y-112075000D01*
X87945000Y-112075000D02*
X89025000Y-112075000D01*
X96000000Y-165000000D02*
X95565000Y-165415000D01*
X95565000Y-165415000D02*
X94930000Y-166050000D01*
X94930000Y-166050000D02*
X94930000Y-169225000D01*
X94930000Y-169225000D02*
X91755000Y-169225000D01*
X91755000Y-169225000D02*
X91120000Y-169860000D01*
X91120000Y-169860000D02*
X87945000Y-169860000D01*
X87945000Y-169860000D02*
X87945000Y-167320000D01*
X87945000Y-167320000D02*
X88580000Y-167320000D01*
X88580000Y-167320000D02*
X89025000Y-167275000D01*
X88550000Y-119000000D02*
X88580000Y-118425000D01*
X88580000Y-118425000D02*
X85405000Y-118425000D01*
X85405000Y-118425000D02*
X85300000Y-118600000D01*
X95565000Y-120330000D02*
X91755000Y-120330000D01*
X91755000Y-120330000D02*
X91120000Y-119695000D01*
X91120000Y-119695000D02*
X91075000Y-119695000D01*
X77050000Y-90500000D02*
X76515000Y-91120000D01*
X76515000Y-91120000D02*
X75880000Y-91755000D01*
X75880000Y-91755000D02*
X75245000Y-92390000D01*
X75245000Y-92390000D02*
X75245000Y-98740000D01*
X75245000Y-98740000D02*
X75880000Y-99375000D01*
X75880000Y-99375000D02*
X77225000Y-99375000D01*
X92500000Y-100050000D02*
X92390000Y-100645000D01*
X92390000Y-100645000D02*
X91120000Y-100645000D01*
X91120000Y-100645000D02*
X91120000Y-106360000D01*
X91120000Y-106360000D02*
X91755000Y-106995000D01*
X91755000Y-106995000D02*
X91755000Y-107630000D01*
X59370000Y-94295000D02*
X59370000Y-86040000D01*
X58100000Y-82865000D02*
X58100000Y-82230000D01*
X58100000Y-82230000D02*
X59370000Y-80960000D01*
X59370000Y-80960000D02*
X60005000Y-80325000D01*
X60005000Y-80325000D02*
X60640000Y-79690000D01*
X60640000Y-79690000D02*
X61275000Y-79055000D01*
X61275000Y-79055000D02*
X61910000Y-78420000D01*
X61910000Y-78420000D02*
X62545000Y-77785000D01*
X96835000Y-75245000D02*
X98740000Y-75245000D01*
X98740000Y-75245000D02*
X98740000Y-82865000D01*
X98740000Y-82865000D02*
X77785000Y-82865000D01*
X70800000Y-86675000D02*
X70800000Y-88580000D01*
X70800000Y-88580000D02*
X71435000Y-89215000D01*
X71435000Y-89215000D02*
X72070000Y-89215000D01*
X73975000Y-88580000D02*
X74610000Y-88580000D01*
X74610000Y-88580000D02*
X75245000Y-89215000D01*
X75245000Y-89215000D02*
X75245000Y-89850000D01*
X92390000Y-91120000D02*
X92390000Y-93425000D01*
D13*
X28874000Y-31900000D03*
X28874000Y-86900000D03*
X28874000Y-141900000D03*
X35874000Y-31900000D03*
X35874000Y-86900000D03*
X35874000Y-141900000D03*
X44076000Y-32300000D03*
X44076000Y-87300000D03*
X44076000Y-142300000D03*
X55374000Y-31900000D03*
X55374000Y-86900000D03*
X55374000Y-141900000D03*
X62874000Y-31900000D03*
X62874000Y-86900000D03*
X62874000Y-141900000D03*
X46750000Y-21500000D03*
X46100000Y-75374000D03*
X46100000Y-130374000D03*
X70625000Y-30635000D03*
X75101000Y-32555000D03*
X70625000Y-85635000D03*
X75101000Y-87555000D03*
X70625000Y-140635000D03*
X75101000Y-142555000D03*
X73576000Y-24650000D03*
X73576000Y-79650000D03*
X73576000Y-134650000D03*
X67150000Y-34424000D03*
X67150000Y-89424000D03*
X67150000Y-144424000D03*
X87601000Y-42555000D03*
X87601000Y-97555000D03*
X87601000Y-152555000D03*
X76400000Y-43050000D03*
X76400000Y-98050000D03*
X76400000Y-153050000D03*
X91076000Y-35650000D03*
X91076000Y-90650000D03*
X91076000Y-145650000D03*
X77200000Y-39050000D03*
X77200000Y-94050000D03*
X77200000Y-149050000D03*
X93626000Y-47600000D03*
X93626000Y-102600000D03*
X93626000Y-157600000D03*
X58076000Y-46650000D03*
X58076000Y-101650000D03*
X58076000Y-156650000D03*
X75000000Y-53600000D03*
X81250000Y-45724000D03*
X34500000Y-47100000D03*
X22874000Y-39400000D03*
X41126000Y-42388000D03*
X43350000Y-41912000D03*
X26076000Y-58650000D03*
X26076000Y-61650000D03*
X26076000Y-64650000D03*
X45651000Y-62555000D03*
X45651000Y-117555000D03*
X45651000Y-172555000D03*
X39874000Y-54900000D03*
X39874000Y-109900000D03*
X39874000Y-164900000D03*
X40374000Y-62900000D03*
X40374000Y-117900000D03*
X40374000Y-172900000D03*
X46576000Y-68650000D03*
X46576000Y-123650000D03*
X46576000Y-178650000D03*
X48076000Y-72150000D03*
X48076000Y-127150000D03*
X48076000Y-182150000D03*
X67000000Y-63600000D03*
X63576000Y-58150000D03*
X35962000Y-38300000D03*
X35962000Y-93300000D03*
X35962000Y-148300000D03*
X94376000Y-61450000D03*
X86000000Y-70650000D03*
X84874000Y-61700000D03*
X82076000Y-62150000D03*
X90076000Y-54450000D03*
X90076000Y-109450000D03*
X90076000Y-164450000D03*
X83374000Y-50900000D03*
X83374000Y-105900000D03*
X83374000Y-160900000D03*
X84000000Y-123100000D03*
X85374000Y-113900000D03*
X35240000Y-50480000D03*
X35875000Y-47305000D03*
X31430000Y-42225000D03*
X47305000Y-54290000D03*
X47940000Y-112075000D03*
X48575000Y-115885000D03*
X46035000Y-110170000D03*
X42860000Y-113345000D03*
X46035000Y-165415000D03*
X45400000Y-169225000D03*
X51115000Y-136205000D03*
X48575000Y-136205000D03*
X39685000Y-83500000D03*
X51115000Y-83500000D03*
X54290000Y-33335000D03*
X53020000Y-31430000D03*
X54290000Y-88580000D03*
X52385000Y-86675000D03*
X37780000Y-43495000D03*
X65085000Y-56830000D03*
X51115000Y-48575000D03*
X44130000Y-21905000D03*
X47305000Y-23175000D03*
X70800000Y-28255000D03*
X68895000Y-26985000D03*
X78420000Y-61910000D03*
X72070000Y-82865000D03*
X65085000Y-82865000D03*
X53655000Y-79055000D03*
X66355000Y-80325000D03*
X49845000Y-78420000D03*
X44130000Y-77150000D03*
X48575000Y-77785000D03*
X72070000Y-138110000D03*
X64450000Y-138745000D03*
X48575000Y-133030000D03*
X52385000Y-131125000D03*
X68895000Y-88580000D03*
X63815000Y-82865000D03*
X68260000Y-143190000D03*
X63180000Y-138745000D03*
X65720000Y-115885000D03*
X68895000Y-93660000D03*
X90485000Y-59370000D03*
X89215000Y-114615000D03*
X79690000Y-120965000D03*
X80960000Y-117155000D03*
X91120000Y-95565000D03*
X88580000Y-94295000D03*
X70165000Y-29525000D03*
X65085000Y-91120000D03*
X65085000Y-86040000D03*
X73975000Y-144460000D03*
X66355000Y-157160000D03*
X62545000Y-47940000D03*
X62545000Y-104455000D03*
X65085000Y-35875000D03*
X69530000Y-35875000D03*
X66355000Y-94295000D03*
X65720000Y-99375000D03*
X68260000Y-96835000D03*
X70800000Y-93660000D03*
X67625000Y-148270000D03*
X70165000Y-148270000D03*
X72705000Y-35240000D03*
X73340000Y-30795000D03*
X87945000Y-54925000D03*
X72705000Y-91120000D03*
X77150000Y-86675000D03*
X87945000Y-107630000D03*
X94295000Y-93660000D03*
X72705000Y-145095000D03*
X73340000Y-140650000D03*
X87945000Y-165415000D03*
X88580000Y-95565000D03*
X91120000Y-96835000D03*
X79055000Y-84135000D03*
X75880000Y-84135000D03*
X79690000Y-139380000D03*
X75880000Y-139380000D03*
X44130000Y-122235000D03*
X45400000Y-126045000D03*
X66990000Y-60640000D03*
X63815000Y-60005000D03*
X78420000Y-44765000D03*
X80325000Y-40955000D03*
X78420000Y-99375000D03*
X80325000Y-95565000D03*
X78420000Y-154620000D03*
X80325000Y-150810000D03*
X76515000Y-141285000D03*
X65085000Y-145730000D03*
X65085000Y-148270000D03*
X92390000Y-43495000D03*
X92390000Y-39685000D03*
X92390000Y-153985000D03*
X92390000Y-149540000D03*
X89850000Y-56195000D03*
X91755000Y-107630000D03*
X59370000Y-94295000D03*
X59370000Y-86040000D03*
X58100000Y-82865000D03*
X62545000Y-77785000D03*
X96835000Y-75245000D03*
X77785000Y-82865000D03*
X70800000Y-86675000D03*
X72070000Y-89215000D03*
X73975000Y-88580000D03*
X75245000Y-89850000D03*
X92390000Y-91120000D03*
D14*
X24000000Y-29000000D03*
D15*
X24000000Y-31540000D03*
D14*
X24000000Y-84000000D03*
D15*
X24000000Y-86540000D03*
D14*
X24000000Y-139000000D03*
D15*
X24000000Y-141540000D03*
D16*
X30000000Y-34450000D03*
X30000000Y-32550000D03*
X30000000Y-89450000D03*
X30000000Y-87550000D03*
X30000000Y-144450000D03*
X30000000Y-142550000D03*
D17*
X32550000Y-29000000D03*
X34450000Y-29000000D03*
X32550000Y-84000000D03*
X34450000Y-84000000D03*
X32550000Y-139000000D03*
X34450000Y-139000000D03*
D16*
X37000000Y-34450000D03*
X37000000Y-32550000D03*
X37000000Y-89450000D03*
X37000000Y-87550000D03*
X37000000Y-144450000D03*
X37000000Y-142550000D03*
D18*
X41050000Y-31650000D03*
X42950000Y-31650000D03*
X42000000Y-29350000D03*
X41050000Y-86650000D03*
X42950000Y-86650000D03*
X42000000Y-84350000D03*
X41050000Y-141650000D03*
X42950000Y-141650000D03*
X42000000Y-139350000D03*
D17*
X41050000Y-24500000D03*
X42950000Y-24500000D03*
X41050000Y-79500000D03*
X42950000Y-79500000D03*
X41050000Y-134500000D03*
X42950000Y-134500000D03*
D16*
X48000000Y-25450000D03*
X48000000Y-23550000D03*
X48000000Y-80450000D03*
X48000000Y-78550000D03*
X48000000Y-135450000D03*
X48000000Y-133550000D03*
D18*
X53450000Y-28850000D03*
X51550000Y-28850000D03*
X52500000Y-31150000D03*
X53450000Y-83850000D03*
X51550000Y-83850000D03*
X52500000Y-86150000D03*
X53450000Y-138850000D03*
X51550000Y-138850000D03*
X52500000Y-141150000D03*
D16*
X52500000Y-25450000D03*
X52500000Y-23550000D03*
X52500000Y-80450000D03*
X52500000Y-78550000D03*
X52500000Y-135450000D03*
X52500000Y-133550000D03*
X56500000Y-34450000D03*
X56500000Y-32550000D03*
X56500000Y-89450000D03*
X56500000Y-87550000D03*
X56500000Y-144450000D03*
X56500000Y-142550000D03*
D17*
X59550000Y-29000000D03*
X61450000Y-29000000D03*
X59550000Y-84000000D03*
X61450000Y-84000000D03*
X59550000Y-139000000D03*
X61450000Y-139000000D03*
D16*
X64000000Y-34450000D03*
X64000000Y-32550000D03*
X64000000Y-89450000D03*
X64000000Y-87550000D03*
X64000000Y-144450000D03*
X64000000Y-142550000D03*
D17*
X43550000Y-21500000D03*
X45450000Y-21500000D03*
X43550000Y-76500000D03*
X45450000Y-76500000D03*
X43550000Y-131500000D03*
X45450000Y-131500000D03*
D19*
X69025000Y-28095000D03*
X69025000Y-29365000D03*
X69025000Y-30635000D03*
X69025000Y-31905000D03*
X73975000Y-28095000D03*
X73975000Y-29365000D03*
X73975000Y-30635000D03*
X73975000Y-31905000D03*
X69025000Y-83095000D03*
X69025000Y-84365000D03*
X69025000Y-85635000D03*
X69025000Y-86905000D03*
X73975000Y-83095000D03*
X73975000Y-84365000D03*
X73975000Y-85635000D03*
X73975000Y-86905000D03*
X69025000Y-138095000D03*
X69025000Y-139365000D03*
X69025000Y-140635000D03*
X69025000Y-141905000D03*
X73975000Y-138095000D03*
X73975000Y-139365000D03*
X73975000Y-140635000D03*
X73975000Y-141905000D03*
D17*
X70550000Y-24000000D03*
X72450000Y-24000000D03*
X70550000Y-79000000D03*
X72450000Y-79000000D03*
X70550000Y-134000000D03*
X72450000Y-134000000D03*
D16*
X66500000Y-37450000D03*
X66500000Y-35550000D03*
X66500000Y-92450000D03*
X66500000Y-90550000D03*
X66500000Y-147450000D03*
X66500000Y-145550000D03*
D17*
X70550000Y-36500000D03*
X72450000Y-36500000D03*
X70550000Y-91500000D03*
X72450000Y-91500000D03*
X70550000Y-146500000D03*
X72450000Y-146500000D03*
X65050000Y-41000000D03*
X66950000Y-41000000D03*
X65050000Y-96000000D03*
X66950000Y-96000000D03*
X65050000Y-151000000D03*
X66950000Y-151000000D03*
D19*
X86475000Y-41905000D03*
X86475000Y-40635000D03*
X86475000Y-39365000D03*
X86475000Y-38095000D03*
X81525000Y-41905000D03*
X81525000Y-40635000D03*
X81525000Y-39365000D03*
X81525000Y-38095000D03*
X86475000Y-96905000D03*
X86475000Y-95635000D03*
X86475000Y-94365000D03*
X86475000Y-93095000D03*
X81525000Y-96905000D03*
X81525000Y-95635000D03*
X81525000Y-94365000D03*
X81525000Y-93095000D03*
X86475000Y-151905000D03*
X86475000Y-150635000D03*
X86475000Y-149365000D03*
X86475000Y-148095000D03*
X81525000Y-151905000D03*
X81525000Y-150635000D03*
X81525000Y-149365000D03*
X81525000Y-148095000D03*
D17*
X77050000Y-35500000D03*
X78950000Y-35500000D03*
X77050000Y-90500000D03*
X78950000Y-90500000D03*
X77050000Y-145500000D03*
X78950000Y-145500000D03*
D16*
X78000000Y-44950000D03*
X78000000Y-43050000D03*
X78000000Y-99950000D03*
X78000000Y-98050000D03*
X78000000Y-154950000D03*
X78000000Y-153050000D03*
D17*
X88050000Y-35000000D03*
X89950000Y-35000000D03*
X88050000Y-90000000D03*
X89950000Y-90000000D03*
X88050000Y-145000000D03*
X89950000Y-145000000D03*
D16*
X78500000Y-40950000D03*
X78500000Y-39050000D03*
X78500000Y-95950000D03*
X78500000Y-94050000D03*
X78500000Y-150950000D03*
X78500000Y-149050000D03*
X92500000Y-40950000D03*
X92500000Y-39050000D03*
X92500000Y-95950000D03*
X92500000Y-94050000D03*
X92500000Y-150950000D03*
X92500000Y-149050000D03*
X92500000Y-46950000D03*
X92500000Y-45050000D03*
X92500000Y-101950000D03*
X92500000Y-100050000D03*
X92500000Y-156950000D03*
X92500000Y-155050000D03*
D14*
X60460000Y-51000000D03*
D15*
X63000000Y-51000000D03*
X65540000Y-51000000D03*
D14*
X60460000Y-106000000D03*
D15*
X63000000Y-106000000D03*
X65540000Y-106000000D03*
D14*
X60460000Y-161000000D03*
D15*
X63000000Y-161000000D03*
X65540000Y-161000000D03*
D17*
X55050000Y-46000000D03*
X56950000Y-46000000D03*
X55050000Y-101000000D03*
X56950000Y-101000000D03*
X55050000Y-156000000D03*
X56950000Y-156000000D03*
X68050000Y-46500000D03*
X69950000Y-46500000D03*
X68050000Y-101500000D03*
X69950000Y-101500000D03*
X68050000Y-156500000D03*
X69950000Y-156500000D03*
D20*
X74050000Y-52300000D03*
X75000000Y-52300000D03*
X75950000Y-52300000D03*
X75950000Y-49700000D03*
X75000000Y-49700000D03*
D16*
X80600000Y-48750000D03*
X80600000Y-46850000D03*
D21*
X27000000Y-49600000D03*
X27000000Y-45400000D03*
D20*
X33550000Y-45800000D03*
X34500000Y-45800000D03*
X35450000Y-45800000D03*
X35450000Y-43200000D03*
X34500000Y-43200000D03*
X33550000Y-43200000D03*
D16*
X24000000Y-41950000D03*
X24000000Y-40050000D03*
D22*
X40000000Y-45962500D03*
X40000000Y-43037500D03*
D23*
X44000000Y-45962500D03*
X44000000Y-43037500D03*
D17*
X33050000Y-51000000D03*
X34950000Y-51000000D03*
X33050000Y-54000000D03*
X34950000Y-54000000D03*
X23050000Y-58000000D03*
X24950000Y-58000000D03*
X23050000Y-61000000D03*
X24950000Y-61000000D03*
X23050000Y-64000000D03*
X24950000Y-64000000D03*
D19*
X44525000Y-58095000D03*
X44525000Y-59365000D03*
X44525000Y-60635000D03*
X44525000Y-61905000D03*
X49475000Y-58095000D03*
X49475000Y-59365000D03*
X49475000Y-60635000D03*
X49475000Y-61905000D03*
X44525000Y-113095000D03*
X44525000Y-114365000D03*
X44525000Y-115635000D03*
X44525000Y-116905000D03*
X49475000Y-113095000D03*
X49475000Y-114365000D03*
X49475000Y-115635000D03*
X49475000Y-116905000D03*
X44525000Y-168095000D03*
X44525000Y-169365000D03*
X44525000Y-170635000D03*
X44525000Y-171905000D03*
X49475000Y-168095000D03*
X49475000Y-169365000D03*
X49475000Y-170635000D03*
X49475000Y-171905000D03*
D16*
X41000000Y-57450000D03*
X41000000Y-55550000D03*
X41000000Y-112450000D03*
X41000000Y-110550000D03*
X41000000Y-167450000D03*
X41000000Y-165550000D03*
D17*
X46050000Y-55000000D03*
X47950000Y-55000000D03*
X46050000Y-110000000D03*
X47950000Y-110000000D03*
X46050000Y-165000000D03*
X47950000Y-165000000D03*
D16*
X41500000Y-65450000D03*
X41500000Y-63550000D03*
X41500000Y-120450000D03*
X41500000Y-118550000D03*
X41500000Y-175450000D03*
X41500000Y-173550000D03*
D17*
X43550000Y-68000000D03*
X45450000Y-68000000D03*
X43550000Y-123000000D03*
X45450000Y-123000000D03*
X43550000Y-178000000D03*
X45450000Y-178000000D03*
D14*
X50460000Y-69500000D03*
D15*
X53000000Y-69500000D03*
X55540000Y-69500000D03*
D14*
X50460000Y-124500000D03*
D15*
X53000000Y-124500000D03*
X55540000Y-124500000D03*
D14*
X50460000Y-179500000D03*
D15*
X53000000Y-179500000D03*
X55540000Y-179500000D03*
D17*
X45050000Y-71500000D03*
X46950000Y-71500000D03*
X45050000Y-126500000D03*
X46950000Y-126500000D03*
X45050000Y-181500000D03*
X46950000Y-181500000D03*
D24*
X56690000Y-64000000D03*
D25*
X64310000Y-64000000D03*
D24*
X56690000Y-119000000D03*
D25*
X64310000Y-119000000D03*
D24*
X56690000Y-174000000D03*
D25*
X64310000Y-174000000D03*
D20*
X66050000Y-62300000D03*
X67000000Y-62300000D03*
X67950000Y-62300000D03*
X67950000Y-59700000D03*
X67000000Y-59700000D03*
D17*
X60550000Y-57500000D03*
X62450000Y-57500000D03*
X27050000Y-37000000D03*
X28950000Y-37000000D03*
X27050000Y-92000000D03*
X28950000Y-92000000D03*
X27050000Y-147000000D03*
X28950000Y-147000000D03*
D26*
X33037500Y-37000000D03*
X35962500Y-37000000D03*
X33037500Y-92000000D03*
X35962500Y-92000000D03*
X33037500Y-147000000D03*
X35962500Y-147000000D03*
D14*
X96500000Y-65000000D03*
D15*
X96500000Y-67540000D03*
D17*
X91350000Y-60800000D03*
X93250000Y-60800000D03*
D27*
X83700000Y-68650000D03*
X86000000Y-68650000D03*
X88300000Y-68650000D03*
D28*
X86000000Y-62350000D03*
D17*
X79050000Y-61500000D03*
X80950000Y-61500000D03*
D20*
X87050000Y-53800000D03*
X88000000Y-53800000D03*
X88950000Y-53800000D03*
X88950000Y-51200000D03*
X88000000Y-51200000D03*
X87050000Y-108800000D03*
X88000000Y-108800000D03*
X88950000Y-108800000D03*
X88950000Y-106200000D03*
X88000000Y-106200000D03*
X87050000Y-163800000D03*
X88000000Y-163800000D03*
X88950000Y-163800000D03*
X88950000Y-161200000D03*
X88000000Y-161200000D03*
D16*
X84500000Y-53450000D03*
X84500000Y-51550000D03*
X84500000Y-108450000D03*
X84500000Y-106550000D03*
X84500000Y-163450000D03*
X84500000Y-161550000D03*
X89800000Y-58550000D03*
X89800000Y-56650000D03*
X89800000Y-113550000D03*
X89800000Y-111650000D03*
X89800000Y-168550000D03*
X89800000Y-166650000D03*
D29*
X96000000Y-55000000D03*
X93460000Y-52460000D03*
X98540000Y-52460000D03*
X93460000Y-57540000D03*
X98540000Y-57540000D03*
X96000000Y-110000000D03*
X93460000Y-107460000D03*
X98540000Y-107460000D03*
X93460000Y-112540000D03*
X98540000Y-112540000D03*
X96000000Y-165000000D03*
X93460000Y-162460000D03*
X98540000Y-162460000D03*
X93460000Y-167540000D03*
X98540000Y-167540000D03*
D30*
X97000000Y-22000000D03*
X97000000Y-26000000D03*
X97000000Y-30000000D03*
X97000000Y-34000000D03*
X97000000Y-38000000D03*
X97000000Y-42000000D03*
X97000000Y-77000000D03*
X97000000Y-81000000D03*
X97000000Y-85000000D03*
X97000000Y-89000000D03*
X97000000Y-93000000D03*
X97000000Y-97000000D03*
X97000000Y-132000000D03*
X97000000Y-136000000D03*
X97000000Y-140000000D03*
X97000000Y-144000000D03*
X97000000Y-148000000D03*
X97000000Y-152000000D03*
D20*
X83050000Y-121800000D03*
X84000000Y-121800000D03*
X84950000Y-121800000D03*
X84950000Y-119200000D03*
X84000000Y-119200000D03*
X83050000Y-119200000D03*
D16*
X86500000Y-116450000D03*
X86500000Y-114550000D03*
D17*
X88550000Y-119000000D03*
X90450000Y-119000000D03*
D29*
X96000000Y-121000000D03*
X93460000Y-118460000D03*
X98540000Y-118460000D03*
X93460000Y-123540000D03*
X98540000Y-123540000D03*
D16*
X78000000Y-121450000D03*
X78000000Y-119550000D03*
X80000000Y-121450000D03*
X80000000Y-119550000D03*
X81500000Y-116450000D03*
X81500000Y-114550000D03*
D14*
X77000000Y-126000000D03*
D15*
X79540000Y-126000000D03*
D14*
X82500000Y-126000000D03*
D15*
X85040000Y-126000000D03*
D14*
X88000000Y-126000000D03*
D15*
X90540000Y-126000000D03*
D30*
X49000000Y-47000000D03*
X92500000Y-71000000D03*
X79000000Y-71000000D03*
X72500000Y-47000000D03*
X94000000Y-127500000D03*
X84500000Y-72500000D03*
M02*
