M48
METRIC,TZ
T1C0.400
T2C0.800
T3C0.900
T4C1.000
T5C3.200
%
G90
G05
T1
X104.400Y-116.500
X110.350Y-116.500
X104.400Y-170.500
X111.850Y-170.500
X43.350Y-37.150
X42.700Y-27.724
X42.426Y-40.650
X47.950Y-41.126
X56.129Y-22.400
X67.255Y-29.600
X73.881Y-24.887
X77.881Y-24.887
X70.629Y-35.400
X73.629Y-35.400
X76.629Y-35.400
X92.795Y-30.600
X96.669Y-26.400
X92.795Y-40.600
X96.669Y-36.400
X84.129Y-28.900
X84.129Y-33.900
X108.660Y-32.960
X108.186Y-36.150
X105.934Y-36.120
X110.884Y-31.040
X113.610Y-34.230
X113.136Y-37.420
X110.884Y-37.390
X111.611Y-42.650
X32.626Y-63.600
X33.126Y-66.387
X40.779Y-63.900
X48.981Y-64.300
X60.279Y-63.900
X51.005Y-52.374
X69.684Y-63.900
X77.435Y-62.635
X81.911Y-64.555
X80.386Y-56.650
X73.960Y-66.424
X101.426Y-61.450
X101.426Y-55.650
X31.651Y-87.555
X25.874Y-79.900
X26.374Y-87.900
X32.576Y-93.650
X34.076Y-97.150
X44.374Y-80.900
X47.874Y-80.900
X64.886Y-82.150
X100.951Y-87.555
X89.750Y-88.050
X104.426Y-80.650
X90.550Y-84.050
X106.976Y-92.600
X32.626Y-117.600
X33.126Y-120.387
X40.779Y-117.900
X48.981Y-118.300
X60.279Y-117.900
X51.005Y-106.374
X69.684Y-117.900
X77.435Y-116.635
X81.911Y-118.555
X80.386Y-110.650
X73.960Y-120.424
X101.426Y-115.450
X100.950Y-107.874
X31.651Y-141.555
X25.874Y-133.900
X26.374Y-141.900
X32.576Y-147.650
X34.076Y-151.150
X44.374Y-134.900
X47.874Y-134.900
X64.886Y-136.150
X100.951Y-141.555
X89.750Y-142.050
X104.426Y-134.650
X90.550Y-138.050
X106.976Y-146.600
X32.626Y-171.600
X33.126Y-174.387
X40.779Y-171.900
X48.981Y-172.300
X60.279Y-171.900
X51.005Y-160.374
X69.684Y-171.900
X77.435Y-170.635
X81.911Y-172.555
X80.386Y-164.650
X73.960Y-174.424
X101.426Y-169.450
X100.950Y-161.874
X31.651Y-195.555
X25.874Y-187.900
X26.374Y-195.900
X32.576Y-201.650
X34.076Y-205.150
X44.374Y-188.900
X47.874Y-188.900
X64.886Y-190.150
X100.951Y-195.555
X89.750Y-196.050
X104.426Y-188.650
X90.550Y-192.050
X106.976Y-200.600
X108.350Y-224.100
X110.426Y-217.150
X66.355Y-32.700
X70.165Y-33.335
X72.070Y-32.065
X34.605Y-85.405
X34.605Y-80.960
X34.605Y-139.380
X34.605Y-134.935
X37.145Y-114.615
X37.145Y-168.590
X54.925Y-59.370
X53.020Y-58.100
X59.370Y-65.085
X57.465Y-63.180
X59.370Y-119.060
X57.465Y-117.155
X59.370Y-173.035
X57.465Y-171.130
X55.560Y-55.560
X53.020Y-55.560
X106.995Y-213.675
X103.185Y-169.860
X88.580Y-60.005
X76.515Y-124.140
X76.515Y-82.230
X89.850Y-213.040
X96.200Y-212.405
X100.645Y-113.345
X101.915Y-213.040
X100.645Y-166.685
X103.820Y-168.590
X100.010Y-220.660
X105.725Y-218.755
X104.455Y-139.380
X101.915Y-138.745
X73.975Y-115.250
X73.975Y-169.225
X73.340Y-127.950
X68.895Y-84.135
X63.815Y-138.110
X68.895Y-192.720
X77.150Y-66.990
X76.515Y-64.450
X73.975Y-68.895
X77.785Y-120.330
X77.785Y-117.790
X73.975Y-124.140
X77.150Y-174.940
X76.515Y-172.400
X74.610Y-176.845
X93.660Y-62.545
X80.325Y-121.600
X98.105Y-116.520
X98.105Y-170.495
X99.375Y-85.405
X82.865Y-61.275
X99.375Y-139.380
X88.580Y-117.790
X99.375Y-193.355
X82.865Y-169.225
X30.160Y-92.390
X30.160Y-146.365
X31.430Y-96.200
X31.430Y-150.175
X92.390Y-35.875
X91.755Y-89.850
X93.660Y-85.405
X91.755Y-143.825
X93.660Y-139.380
X91.755Y-197.800
X93.660Y-193.355
X106.995Y-113.345
X106.995Y-167.320
X89.850Y-61.275
X105.090Y-32.065
X60.005Y-144.460
X105.090Y-34.605
X91.120Y-155.255
X110.805Y-35.240
X86.675Y-25.080
X86.040Y-24.445
X107.600Y-134.500
X117.790Y-38.415
T2
X119.000Y-59.500
X116.460Y-56.960
X121.540Y-56.960
X116.460Y-62.040
X121.540Y-62.040
X42.690Y-89.000
X50.310Y-89.000
X119.000Y-113.500
X116.460Y-110.960
X121.540Y-110.960
X116.460Y-116.040
X121.540Y-116.040
X42.690Y-143.000
X50.310Y-143.000
X119.000Y-167.500
X116.460Y-164.960
X121.540Y-164.960
X116.460Y-170.040
X121.540Y-170.040
X42.690Y-197.000
X50.310Y-197.000
X119.000Y-221.000
X116.460Y-218.460
X121.540Y-218.460
X116.460Y-223.540
X121.540Y-223.540
T3
X36.460Y-94.500
X39.000Y-94.500
X41.540Y-94.500
X67.270Y-86.500
X69.810Y-86.500
X72.350Y-86.500
X36.460Y-148.500
X39.000Y-148.500
X41.540Y-148.500
X67.270Y-140.500
X69.810Y-140.500
X72.350Y-140.500
X36.460Y-202.500
X39.000Y-202.500
X41.540Y-202.500
X67.270Y-194.500
X69.810Y-194.500
X72.350Y-194.500
T4
X30.350Y-32.000
X30.350Y-34.540
X114.500Y-43.700
X117.040Y-43.700
X119.580Y-43.700
X35.350Y-39.500
X35.350Y-43.500
X50.850Y-40.000
X81.255Y-27.000
X101.795Y-28.000
X27.000Y-61.000
X27.000Y-63.540
X31.500Y-57.000
X31.500Y-53.000
X30.000Y-72.500
X72.310Y-57.000
X68.310Y-71.000
X85.810Y-64.500
X27.000Y-115.000
X27.000Y-117.540
X31.500Y-111.000
X31.500Y-107.000
X30.000Y-126.500
X72.310Y-111.000
X68.310Y-125.000
X85.810Y-118.500
X27.000Y-169.000
X27.000Y-171.540
X31.500Y-165.000
X31.500Y-161.000
X30.000Y-180.500
X72.310Y-165.000
X68.310Y-179.000
X85.810Y-172.500
X90.350Y-214.500
X90.350Y-217.040
X96.350Y-214.500
X96.350Y-217.040
X102.350Y-214.500
X102.350Y-217.040
X111.500Y-230.000
T5
X24.000Y-24.000
X119.000Y-24.000
X24.000Y-231.000
X119.000Y-231.000
X24.000Y-101.000
X119.000Y-101.000
X24.000Y-155.000
X119.000Y-155.000
M30
